G04 #@! TF.GenerationSoftware,KiCad,Pcbnew,(5.0.1)-3*
G04 #@! TF.CreationDate,2018-10-23T00:57:20+09:00*
G04 #@! TF.ProjectId,badge,62616467652E6B696361645F70636200,rev?*
G04 #@! TF.SameCoordinates,Original*
G04 #@! TF.FileFunction,Paste,Top*
G04 #@! TF.FilePolarity,Positive*
%FSLAX46Y46*%
G04 Gerber Fmt 4.6, Leading zero omitted, Abs format (unit mm)*
G04 Created by KiCad (PCBNEW (5.0.1)-3) date 2018-10-23 오전 12:57:20*
%MOMM*%
%LPD*%
G01*
G04 APERTURE LIST*
%ADD10R,2.200000X1.800000*%
%ADD11R,1.300000X0.300000*%
G04 APERTURE END LIST*
D10*
G04 #@! TO.C,J1*
X191640000Y-90390000D03*
X191640000Y-67090000D03*
D11*
X194890000Y-68990000D03*
X194890000Y-69490000D03*
X194890000Y-69990000D03*
X194890000Y-70490000D03*
X194890000Y-70990000D03*
X194890000Y-71490000D03*
X194890000Y-71990000D03*
X194890000Y-72490000D03*
X194890000Y-72990000D03*
X194890000Y-73490000D03*
X194890000Y-73990000D03*
X194890000Y-74490000D03*
X194890000Y-74990000D03*
X194890000Y-75490000D03*
X194890000Y-75990000D03*
X194890000Y-76490000D03*
X194890000Y-76990000D03*
X194890000Y-77490000D03*
X194890000Y-77990000D03*
X194890000Y-78490000D03*
X194890000Y-78990000D03*
X194890000Y-79490000D03*
X194890000Y-79990000D03*
X194890000Y-80490000D03*
X194890000Y-80990000D03*
X194890000Y-81490000D03*
X194890000Y-81990000D03*
X194890000Y-82490000D03*
X194890000Y-82990000D03*
X194890000Y-83490000D03*
X194890000Y-83990000D03*
X194890000Y-84490000D03*
X194890000Y-84990000D03*
X194890000Y-85490000D03*
X194890000Y-85990000D03*
X194890000Y-86490000D03*
X194890000Y-86990000D03*
X194890000Y-87490000D03*
X194890000Y-87990000D03*
X194890000Y-88490000D03*
G04 #@! TD*
M02*
