M48
;DRILL file {KiCad (5.0.1)-3} date 2018-10-30 오전 3:44:53
;FORMAT={-:-/ absolute / metric / decimal}
FMAT,2
METRIC,TZ
T1C0.400
T2C1.000
%
G90
G05
M71
T1
X107.32Y-84.01
X114.178Y-89.789
X117.978Y-77.533
X124.841Y-83.629
X130.937Y-40.132
X135.636Y-61.214
X137.541Y-46.609
X147.04Y-35.56
X155.829Y-72.898
X155.829Y-75.819
X163.576Y-77.47
X163.576Y-84.709
X165.1Y-59.944
X167.259Y-91.694
X169.926Y-37.846
X173.609Y-59.944
X174.498Y-62.103
X175.768Y-62.103
X176.784Y-40.132
X176.784Y-48.006
X179.832Y-51.054
X180.848Y-44.196
X194.188Y-87.884
T2
X171.604Y-20.335
X174.144Y-20.335
X176.684Y-20.335
X179.224Y-20.335
X171.604Y-22.875
X174.144Y-22.875
X176.684Y-22.875
X179.224Y-22.875
X148.299Y-20.341
X150.839Y-20.341
X153.379Y-20.341
X155.919Y-20.341
X158.459Y-20.341
X160.999Y-20.341
X148.299Y-17.801
X150.839Y-17.801
X153.379Y-17.801
X155.919Y-17.801
X158.459Y-17.801
X160.999Y-17.801
X130.452Y-55.925
X132.992Y-55.925
X135.532Y-55.925
X138.072Y-55.925
X140.612Y-55.925
X143.152Y-55.925
X145.692Y-55.925
X148.232Y-55.925
X150.772Y-55.925
X153.312Y-55.925
X155.852Y-55.925
X158.392Y-55.925
X160.932Y-55.925
X163.472Y-55.925
X166.012Y-55.925
X168.552Y-55.925
X171.092Y-55.925
X173.632Y-55.925
X176.172Y-55.925
X171.604Y-17.795
X174.144Y-17.795
X176.684Y-17.795
X179.224Y-17.795
X130.452Y-30.525
X132.992Y-30.525
X135.532Y-30.525
X138.072Y-30.525
X140.612Y-30.525
X143.152Y-30.525
X145.692Y-30.525
X148.232Y-30.525
X150.772Y-30.525
X153.312Y-30.525
X155.852Y-30.525
X158.392Y-30.525
X160.932Y-30.525
X163.472Y-30.525
X166.012Y-30.525
X168.552Y-30.525
X171.092Y-30.525
X173.632Y-30.525
X176.172Y-30.525
X148.299Y-22.881
X150.839Y-22.881
X153.379Y-22.881
X155.919Y-22.881
X158.459Y-22.881
X160.999Y-22.881
T0
M30
