G04 #@! TF.GenerationSoftware,KiCad,Pcbnew,(5.0.1)-3*
G04 #@! TF.CreationDate,2018-11-05T03:46:25+09:00*
G04 #@! TF.ProjectId,badge,62616467652E6B696361645F70636200,rev?*
G04 #@! TF.SameCoordinates,Original*
G04 #@! TF.FileFunction,Soldermask,Bot*
G04 #@! TF.FilePolarity,Negative*
%FSLAX46Y46*%
G04 Gerber Fmt 4.6, Leading zero omitted, Abs format (unit mm)*
G04 Created by KiCad (PCBNEW (5.0.1)-3) date 2018-11-05 오전 3:46:25*
%MOMM*%
%LPD*%
G01*
G04 APERTURE LIST*
%ADD10C,0.100000*%
G04 APERTURE END LIST*
D10*
G36*
X165989941Y-134226248D02*
X165989943Y-134226249D01*
X165989944Y-134226249D01*
X166545190Y-134456239D01*
X166545191Y-134456240D01*
X167044902Y-134790136D01*
X167469864Y-135215098D01*
X167469866Y-135215101D01*
X167803761Y-135714810D01*
X168033751Y-136270056D01*
X168151000Y-136859503D01*
X168151000Y-137460497D01*
X168033751Y-138049944D01*
X167803761Y-138605190D01*
X167474367Y-139098162D01*
X167469864Y-139104902D01*
X167044902Y-139529864D01*
X167044899Y-139529866D01*
X166545190Y-139863761D01*
X165989944Y-140093751D01*
X165989943Y-140093751D01*
X165989941Y-140093752D01*
X165400499Y-140211000D01*
X164799501Y-140211000D01*
X164210059Y-140093752D01*
X164210057Y-140093751D01*
X164210056Y-140093751D01*
X163654810Y-139863761D01*
X163155101Y-139529866D01*
X163155098Y-139529864D01*
X162730136Y-139104902D01*
X162725633Y-139098162D01*
X162396239Y-138605190D01*
X162166249Y-138049944D01*
X162049000Y-137460497D01*
X162049000Y-136859503D01*
X162166249Y-136270056D01*
X162396239Y-135714810D01*
X162730134Y-135215101D01*
X162730136Y-135215098D01*
X163155098Y-134790136D01*
X163654809Y-134456240D01*
X163654810Y-134456239D01*
X164210056Y-134226249D01*
X164210057Y-134226249D01*
X164210059Y-134226248D01*
X164799501Y-134109000D01*
X165400499Y-134109000D01*
X165989941Y-134226248D01*
X165989941Y-134226248D01*
G37*
G36*
X107569941Y-134226248D02*
X107569943Y-134226249D01*
X107569944Y-134226249D01*
X108125190Y-134456239D01*
X108125191Y-134456240D01*
X108624902Y-134790136D01*
X109049864Y-135215098D01*
X109049866Y-135215101D01*
X109383761Y-135714810D01*
X109613751Y-136270056D01*
X109731000Y-136859503D01*
X109731000Y-137460497D01*
X109613751Y-138049944D01*
X109383761Y-138605190D01*
X109054367Y-139098162D01*
X109049864Y-139104902D01*
X108624902Y-139529864D01*
X108624899Y-139529866D01*
X108125190Y-139863761D01*
X107569944Y-140093751D01*
X107569943Y-140093751D01*
X107569941Y-140093752D01*
X106980499Y-140211000D01*
X106379501Y-140211000D01*
X105790059Y-140093752D01*
X105790057Y-140093751D01*
X105790056Y-140093751D01*
X105234810Y-139863761D01*
X104735101Y-139529866D01*
X104735098Y-139529864D01*
X104310136Y-139104902D01*
X104305633Y-139098162D01*
X103976239Y-138605190D01*
X103746249Y-138049944D01*
X103629000Y-137460497D01*
X103629000Y-136859503D01*
X103746249Y-136270056D01*
X103976239Y-135714810D01*
X104310134Y-135215101D01*
X104310136Y-135215098D01*
X104735098Y-134790136D01*
X105234809Y-134456240D01*
X105234810Y-134456239D01*
X105790056Y-134226249D01*
X105790057Y-134226249D01*
X105790059Y-134226248D01*
X106379501Y-134109000D01*
X106980499Y-134109000D01*
X107569941Y-134226248D01*
X107569941Y-134226248D01*
G37*
G36*
X130818812Y-138071624D02*
X130982784Y-138139544D01*
X131130354Y-138238147D01*
X131255853Y-138363646D01*
X131354456Y-138511216D01*
X131422376Y-138675188D01*
X131457000Y-138849259D01*
X131457000Y-139026741D01*
X131422376Y-139200812D01*
X131354456Y-139364784D01*
X131255853Y-139512354D01*
X131130354Y-139637853D01*
X130982784Y-139736456D01*
X130818812Y-139804376D01*
X130644741Y-139839000D01*
X130467259Y-139839000D01*
X130293188Y-139804376D01*
X130129216Y-139736456D01*
X129981646Y-139637853D01*
X129856147Y-139512354D01*
X129757544Y-139364784D01*
X129689624Y-139200812D01*
X129655000Y-139026741D01*
X129655000Y-138849259D01*
X129689624Y-138675188D01*
X129757544Y-138511216D01*
X129856147Y-138363646D01*
X129981646Y-138238147D01*
X130129216Y-138139544D01*
X130293188Y-138071624D01*
X130467259Y-138037000D01*
X130644741Y-138037000D01*
X130818812Y-138071624D01*
X130818812Y-138071624D01*
G37*
G36*
X158098442Y-138043518D02*
X158164627Y-138050037D01*
X158277853Y-138084384D01*
X158334467Y-138101557D01*
X158473087Y-138175652D01*
X158490991Y-138185222D01*
X158526729Y-138214552D01*
X158628186Y-138297814D01*
X158711448Y-138399271D01*
X158740778Y-138435009D01*
X158740779Y-138435011D01*
X158824443Y-138591533D01*
X158828586Y-138605191D01*
X158875963Y-138761373D01*
X158893359Y-138938000D01*
X158875963Y-139114627D01*
X158849819Y-139200812D01*
X158824443Y-139284467D01*
X158781513Y-139364782D01*
X158740778Y-139440991D01*
X158711448Y-139476729D01*
X158628186Y-139578186D01*
X158555480Y-139637853D01*
X158490991Y-139690778D01*
X158490989Y-139690779D01*
X158334467Y-139774443D01*
X158277853Y-139791616D01*
X158164627Y-139825963D01*
X158098443Y-139832481D01*
X158032260Y-139839000D01*
X157943740Y-139839000D01*
X157877557Y-139832481D01*
X157811373Y-139825963D01*
X157698147Y-139791616D01*
X157641533Y-139774443D01*
X157485011Y-139690779D01*
X157485009Y-139690778D01*
X157420520Y-139637853D01*
X157347814Y-139578186D01*
X157264552Y-139476729D01*
X157235222Y-139440991D01*
X157194487Y-139364782D01*
X157151557Y-139284467D01*
X157126181Y-139200812D01*
X157100037Y-139114627D01*
X157082641Y-138938000D01*
X157100037Y-138761373D01*
X157147414Y-138605191D01*
X157151557Y-138591533D01*
X157235221Y-138435011D01*
X157235222Y-138435009D01*
X157264552Y-138399271D01*
X157347814Y-138297814D01*
X157449271Y-138214552D01*
X157485009Y-138185222D01*
X157502913Y-138175652D01*
X157641533Y-138101557D01*
X157698147Y-138084384D01*
X157811373Y-138050037D01*
X157877558Y-138043518D01*
X157943740Y-138037000D01*
X158032260Y-138037000D01*
X158098442Y-138043518D01*
X158098442Y-138043518D01*
G37*
G36*
X155558442Y-138043518D02*
X155624627Y-138050037D01*
X155737853Y-138084384D01*
X155794467Y-138101557D01*
X155933087Y-138175652D01*
X155950991Y-138185222D01*
X155986729Y-138214552D01*
X156088186Y-138297814D01*
X156171448Y-138399271D01*
X156200778Y-138435009D01*
X156200779Y-138435011D01*
X156284443Y-138591533D01*
X156288586Y-138605191D01*
X156335963Y-138761373D01*
X156353359Y-138938000D01*
X156335963Y-139114627D01*
X156309819Y-139200812D01*
X156284443Y-139284467D01*
X156241513Y-139364782D01*
X156200778Y-139440991D01*
X156171448Y-139476729D01*
X156088186Y-139578186D01*
X156015480Y-139637853D01*
X155950991Y-139690778D01*
X155950989Y-139690779D01*
X155794467Y-139774443D01*
X155737853Y-139791616D01*
X155624627Y-139825963D01*
X155558443Y-139832481D01*
X155492260Y-139839000D01*
X155403740Y-139839000D01*
X155337557Y-139832481D01*
X155271373Y-139825963D01*
X155158147Y-139791616D01*
X155101533Y-139774443D01*
X154945011Y-139690779D01*
X154945009Y-139690778D01*
X154880520Y-139637853D01*
X154807814Y-139578186D01*
X154724552Y-139476729D01*
X154695222Y-139440991D01*
X154654487Y-139364782D01*
X154611557Y-139284467D01*
X154586181Y-139200812D01*
X154560037Y-139114627D01*
X154542641Y-138938000D01*
X154560037Y-138761373D01*
X154607414Y-138605191D01*
X154611557Y-138591533D01*
X154695221Y-138435011D01*
X154695222Y-138435009D01*
X154724552Y-138399271D01*
X154807814Y-138297814D01*
X154909271Y-138214552D01*
X154945009Y-138185222D01*
X154962913Y-138175652D01*
X155101533Y-138101557D01*
X155158147Y-138084384D01*
X155271373Y-138050037D01*
X155337558Y-138043518D01*
X155403740Y-138037000D01*
X155492260Y-138037000D01*
X155558442Y-138043518D01*
X155558442Y-138043518D01*
G37*
G36*
X153018442Y-138043518D02*
X153084627Y-138050037D01*
X153197853Y-138084384D01*
X153254467Y-138101557D01*
X153393087Y-138175652D01*
X153410991Y-138185222D01*
X153446729Y-138214552D01*
X153548186Y-138297814D01*
X153631448Y-138399271D01*
X153660778Y-138435009D01*
X153660779Y-138435011D01*
X153744443Y-138591533D01*
X153748586Y-138605191D01*
X153795963Y-138761373D01*
X153813359Y-138938000D01*
X153795963Y-139114627D01*
X153769819Y-139200812D01*
X153744443Y-139284467D01*
X153701513Y-139364782D01*
X153660778Y-139440991D01*
X153631448Y-139476729D01*
X153548186Y-139578186D01*
X153475480Y-139637853D01*
X153410991Y-139690778D01*
X153410989Y-139690779D01*
X153254467Y-139774443D01*
X153197853Y-139791616D01*
X153084627Y-139825963D01*
X153018443Y-139832481D01*
X152952260Y-139839000D01*
X152863740Y-139839000D01*
X152797557Y-139832481D01*
X152731373Y-139825963D01*
X152618147Y-139791616D01*
X152561533Y-139774443D01*
X152405011Y-139690779D01*
X152405009Y-139690778D01*
X152340520Y-139637853D01*
X152267814Y-139578186D01*
X152184552Y-139476729D01*
X152155222Y-139440991D01*
X152114487Y-139364782D01*
X152071557Y-139284467D01*
X152046181Y-139200812D01*
X152020037Y-139114627D01*
X152002641Y-138938000D01*
X152020037Y-138761373D01*
X152067414Y-138605191D01*
X152071557Y-138591533D01*
X152155221Y-138435011D01*
X152155222Y-138435009D01*
X152184552Y-138399271D01*
X152267814Y-138297814D01*
X152369271Y-138214552D01*
X152405009Y-138185222D01*
X152422913Y-138175652D01*
X152561533Y-138101557D01*
X152618147Y-138084384D01*
X152731373Y-138050037D01*
X152797558Y-138043518D01*
X152863740Y-138037000D01*
X152952260Y-138037000D01*
X153018442Y-138043518D01*
X153018442Y-138043518D01*
G37*
G36*
X150478442Y-138043518D02*
X150544627Y-138050037D01*
X150657853Y-138084384D01*
X150714467Y-138101557D01*
X150853087Y-138175652D01*
X150870991Y-138185222D01*
X150906729Y-138214552D01*
X151008186Y-138297814D01*
X151091448Y-138399271D01*
X151120778Y-138435009D01*
X151120779Y-138435011D01*
X151204443Y-138591533D01*
X151208586Y-138605191D01*
X151255963Y-138761373D01*
X151273359Y-138938000D01*
X151255963Y-139114627D01*
X151229819Y-139200812D01*
X151204443Y-139284467D01*
X151161513Y-139364782D01*
X151120778Y-139440991D01*
X151091448Y-139476729D01*
X151008186Y-139578186D01*
X150935480Y-139637853D01*
X150870991Y-139690778D01*
X150870989Y-139690779D01*
X150714467Y-139774443D01*
X150657853Y-139791616D01*
X150544627Y-139825963D01*
X150478443Y-139832481D01*
X150412260Y-139839000D01*
X150323740Y-139839000D01*
X150257557Y-139832481D01*
X150191373Y-139825963D01*
X150078147Y-139791616D01*
X150021533Y-139774443D01*
X149865011Y-139690779D01*
X149865009Y-139690778D01*
X149800520Y-139637853D01*
X149727814Y-139578186D01*
X149644552Y-139476729D01*
X149615222Y-139440991D01*
X149574487Y-139364782D01*
X149531557Y-139284467D01*
X149506181Y-139200812D01*
X149480037Y-139114627D01*
X149462641Y-138938000D01*
X149480037Y-138761373D01*
X149527414Y-138605191D01*
X149531557Y-138591533D01*
X149615221Y-138435011D01*
X149615222Y-138435009D01*
X149644552Y-138399271D01*
X149727814Y-138297814D01*
X149829271Y-138214552D01*
X149865009Y-138185222D01*
X149882913Y-138175652D01*
X150021533Y-138101557D01*
X150078147Y-138084384D01*
X150191373Y-138050037D01*
X150257558Y-138043518D01*
X150323740Y-138037000D01*
X150412260Y-138037000D01*
X150478442Y-138043518D01*
X150478442Y-138043518D01*
G37*
G36*
X147938442Y-138043518D02*
X148004627Y-138050037D01*
X148117853Y-138084384D01*
X148174467Y-138101557D01*
X148313087Y-138175652D01*
X148330991Y-138185222D01*
X148366729Y-138214552D01*
X148468186Y-138297814D01*
X148551448Y-138399271D01*
X148580778Y-138435009D01*
X148580779Y-138435011D01*
X148664443Y-138591533D01*
X148668586Y-138605191D01*
X148715963Y-138761373D01*
X148733359Y-138938000D01*
X148715963Y-139114627D01*
X148689819Y-139200812D01*
X148664443Y-139284467D01*
X148621513Y-139364782D01*
X148580778Y-139440991D01*
X148551448Y-139476729D01*
X148468186Y-139578186D01*
X148395480Y-139637853D01*
X148330991Y-139690778D01*
X148330989Y-139690779D01*
X148174467Y-139774443D01*
X148117853Y-139791616D01*
X148004627Y-139825963D01*
X147938443Y-139832481D01*
X147872260Y-139839000D01*
X147783740Y-139839000D01*
X147717557Y-139832481D01*
X147651373Y-139825963D01*
X147538147Y-139791616D01*
X147481533Y-139774443D01*
X147325011Y-139690779D01*
X147325009Y-139690778D01*
X147260520Y-139637853D01*
X147187814Y-139578186D01*
X147104552Y-139476729D01*
X147075222Y-139440991D01*
X147034487Y-139364782D01*
X146991557Y-139284467D01*
X146966181Y-139200812D01*
X146940037Y-139114627D01*
X146922641Y-138938000D01*
X146940037Y-138761373D01*
X146987414Y-138605191D01*
X146991557Y-138591533D01*
X147075221Y-138435011D01*
X147075222Y-138435009D01*
X147104552Y-138399271D01*
X147187814Y-138297814D01*
X147289271Y-138214552D01*
X147325009Y-138185222D01*
X147342913Y-138175652D01*
X147481533Y-138101557D01*
X147538147Y-138084384D01*
X147651373Y-138050037D01*
X147717558Y-138043518D01*
X147783740Y-138037000D01*
X147872260Y-138037000D01*
X147938442Y-138043518D01*
X147938442Y-138043518D01*
G37*
G36*
X145550812Y-138071624D02*
X145714784Y-138139544D01*
X145862354Y-138238147D01*
X145987853Y-138363646D01*
X146086456Y-138511216D01*
X146154376Y-138675188D01*
X146189000Y-138849259D01*
X146189000Y-139026741D01*
X146154376Y-139200812D01*
X146086456Y-139364784D01*
X145987853Y-139512354D01*
X145862354Y-139637853D01*
X145714784Y-139736456D01*
X145550812Y-139804376D01*
X145376741Y-139839000D01*
X145199259Y-139839000D01*
X145025188Y-139804376D01*
X144861216Y-139736456D01*
X144713646Y-139637853D01*
X144588147Y-139512354D01*
X144489544Y-139364784D01*
X144421624Y-139200812D01*
X144387000Y-139026741D01*
X144387000Y-138849259D01*
X144421624Y-138675188D01*
X144489544Y-138511216D01*
X144588147Y-138363646D01*
X144713646Y-138238147D01*
X144861216Y-138139544D01*
X145025188Y-138071624D01*
X145199259Y-138037000D01*
X145376741Y-138037000D01*
X145550812Y-138071624D01*
X145550812Y-138071624D01*
G37*
G36*
X112530812Y-138071624D02*
X112694784Y-138139544D01*
X112842354Y-138238147D01*
X112967853Y-138363646D01*
X113066456Y-138511216D01*
X113134376Y-138675188D01*
X113169000Y-138849259D01*
X113169000Y-139026741D01*
X113134376Y-139200812D01*
X113066456Y-139364784D01*
X112967853Y-139512354D01*
X112842354Y-139637853D01*
X112694784Y-139736456D01*
X112530812Y-139804376D01*
X112356741Y-139839000D01*
X112179259Y-139839000D01*
X112005188Y-139804376D01*
X111841216Y-139736456D01*
X111693646Y-139637853D01*
X111568147Y-139512354D01*
X111469544Y-139364784D01*
X111401624Y-139200812D01*
X111367000Y-139026741D01*
X111367000Y-138849259D01*
X111401624Y-138675188D01*
X111469544Y-138511216D01*
X111568147Y-138363646D01*
X111693646Y-138238147D01*
X111841216Y-138139544D01*
X112005188Y-138071624D01*
X112179259Y-138037000D01*
X112356741Y-138037000D01*
X112530812Y-138071624D01*
X112530812Y-138071624D01*
G37*
G36*
X117610812Y-138071624D02*
X117774784Y-138139544D01*
X117922354Y-138238147D01*
X118047853Y-138363646D01*
X118146456Y-138511216D01*
X118214376Y-138675188D01*
X118249000Y-138849259D01*
X118249000Y-139026741D01*
X118214376Y-139200812D01*
X118146456Y-139364784D01*
X118047853Y-139512354D01*
X117922354Y-139637853D01*
X117774784Y-139736456D01*
X117610812Y-139804376D01*
X117436741Y-139839000D01*
X117259259Y-139839000D01*
X117085188Y-139804376D01*
X116921216Y-139736456D01*
X116773646Y-139637853D01*
X116648147Y-139512354D01*
X116549544Y-139364784D01*
X116481624Y-139200812D01*
X116447000Y-139026741D01*
X116447000Y-138849259D01*
X116481624Y-138675188D01*
X116549544Y-138511216D01*
X116648147Y-138363646D01*
X116773646Y-138238147D01*
X116921216Y-138139544D01*
X117085188Y-138071624D01*
X117259259Y-138037000D01*
X117436741Y-138037000D01*
X117610812Y-138071624D01*
X117610812Y-138071624D01*
G37*
G36*
X119998442Y-138043518D02*
X120064627Y-138050037D01*
X120177853Y-138084384D01*
X120234467Y-138101557D01*
X120373087Y-138175652D01*
X120390991Y-138185222D01*
X120426729Y-138214552D01*
X120528186Y-138297814D01*
X120611448Y-138399271D01*
X120640778Y-138435009D01*
X120640779Y-138435011D01*
X120724443Y-138591533D01*
X120728586Y-138605191D01*
X120775963Y-138761373D01*
X120793359Y-138938000D01*
X120775963Y-139114627D01*
X120749819Y-139200812D01*
X120724443Y-139284467D01*
X120681513Y-139364782D01*
X120640778Y-139440991D01*
X120611448Y-139476729D01*
X120528186Y-139578186D01*
X120455480Y-139637853D01*
X120390991Y-139690778D01*
X120390989Y-139690779D01*
X120234467Y-139774443D01*
X120177853Y-139791616D01*
X120064627Y-139825963D01*
X119998443Y-139832481D01*
X119932260Y-139839000D01*
X119843740Y-139839000D01*
X119777557Y-139832481D01*
X119711373Y-139825963D01*
X119598147Y-139791616D01*
X119541533Y-139774443D01*
X119385011Y-139690779D01*
X119385009Y-139690778D01*
X119320520Y-139637853D01*
X119247814Y-139578186D01*
X119164552Y-139476729D01*
X119135222Y-139440991D01*
X119094487Y-139364782D01*
X119051557Y-139284467D01*
X119026181Y-139200812D01*
X119000037Y-139114627D01*
X118982641Y-138938000D01*
X119000037Y-138761373D01*
X119047414Y-138605191D01*
X119051557Y-138591533D01*
X119135221Y-138435011D01*
X119135222Y-138435009D01*
X119164552Y-138399271D01*
X119247814Y-138297814D01*
X119349271Y-138214552D01*
X119385009Y-138185222D01*
X119402913Y-138175652D01*
X119541533Y-138101557D01*
X119598147Y-138084384D01*
X119711373Y-138050037D01*
X119777558Y-138043518D01*
X119843740Y-138037000D01*
X119932260Y-138037000D01*
X119998442Y-138043518D01*
X119998442Y-138043518D01*
G37*
G36*
X122538442Y-138043518D02*
X122604627Y-138050037D01*
X122717853Y-138084384D01*
X122774467Y-138101557D01*
X122913087Y-138175652D01*
X122930991Y-138185222D01*
X122966729Y-138214552D01*
X123068186Y-138297814D01*
X123151448Y-138399271D01*
X123180778Y-138435009D01*
X123180779Y-138435011D01*
X123264443Y-138591533D01*
X123268586Y-138605191D01*
X123315963Y-138761373D01*
X123333359Y-138938000D01*
X123315963Y-139114627D01*
X123289819Y-139200812D01*
X123264443Y-139284467D01*
X123221513Y-139364782D01*
X123180778Y-139440991D01*
X123151448Y-139476729D01*
X123068186Y-139578186D01*
X122995480Y-139637853D01*
X122930991Y-139690778D01*
X122930989Y-139690779D01*
X122774467Y-139774443D01*
X122717853Y-139791616D01*
X122604627Y-139825963D01*
X122538443Y-139832481D01*
X122472260Y-139839000D01*
X122383740Y-139839000D01*
X122317557Y-139832481D01*
X122251373Y-139825963D01*
X122138147Y-139791616D01*
X122081533Y-139774443D01*
X121925011Y-139690779D01*
X121925009Y-139690778D01*
X121860520Y-139637853D01*
X121787814Y-139578186D01*
X121704552Y-139476729D01*
X121675222Y-139440991D01*
X121634487Y-139364782D01*
X121591557Y-139284467D01*
X121566181Y-139200812D01*
X121540037Y-139114627D01*
X121522641Y-138938000D01*
X121540037Y-138761373D01*
X121587414Y-138605191D01*
X121591557Y-138591533D01*
X121675221Y-138435011D01*
X121675222Y-138435009D01*
X121704552Y-138399271D01*
X121787814Y-138297814D01*
X121889271Y-138214552D01*
X121925009Y-138185222D01*
X121942913Y-138175652D01*
X122081533Y-138101557D01*
X122138147Y-138084384D01*
X122251373Y-138050037D01*
X122317558Y-138043518D01*
X122383740Y-138037000D01*
X122472260Y-138037000D01*
X122538442Y-138043518D01*
X122538442Y-138043518D01*
G37*
G36*
X125078442Y-138043518D02*
X125144627Y-138050037D01*
X125257853Y-138084384D01*
X125314467Y-138101557D01*
X125453087Y-138175652D01*
X125470991Y-138185222D01*
X125506729Y-138214552D01*
X125608186Y-138297814D01*
X125691448Y-138399271D01*
X125720778Y-138435009D01*
X125720779Y-138435011D01*
X125804443Y-138591533D01*
X125808586Y-138605191D01*
X125855963Y-138761373D01*
X125873359Y-138938000D01*
X125855963Y-139114627D01*
X125829819Y-139200812D01*
X125804443Y-139284467D01*
X125761513Y-139364782D01*
X125720778Y-139440991D01*
X125691448Y-139476729D01*
X125608186Y-139578186D01*
X125535480Y-139637853D01*
X125470991Y-139690778D01*
X125470989Y-139690779D01*
X125314467Y-139774443D01*
X125257853Y-139791616D01*
X125144627Y-139825963D01*
X125078443Y-139832481D01*
X125012260Y-139839000D01*
X124923740Y-139839000D01*
X124857557Y-139832481D01*
X124791373Y-139825963D01*
X124678147Y-139791616D01*
X124621533Y-139774443D01*
X124465011Y-139690779D01*
X124465009Y-139690778D01*
X124400520Y-139637853D01*
X124327814Y-139578186D01*
X124244552Y-139476729D01*
X124215222Y-139440991D01*
X124174487Y-139364782D01*
X124131557Y-139284467D01*
X124106181Y-139200812D01*
X124080037Y-139114627D01*
X124062641Y-138938000D01*
X124080037Y-138761373D01*
X124127414Y-138605191D01*
X124131557Y-138591533D01*
X124215221Y-138435011D01*
X124215222Y-138435009D01*
X124244552Y-138399271D01*
X124327814Y-138297814D01*
X124429271Y-138214552D01*
X124465009Y-138185222D01*
X124482913Y-138175652D01*
X124621533Y-138101557D01*
X124678147Y-138084384D01*
X124791373Y-138050037D01*
X124857558Y-138043518D01*
X124923740Y-138037000D01*
X125012260Y-138037000D01*
X125078442Y-138043518D01*
X125078442Y-138043518D01*
G37*
G36*
X138286442Y-138043518D02*
X138352627Y-138050037D01*
X138465853Y-138084384D01*
X138522467Y-138101557D01*
X138661087Y-138175652D01*
X138678991Y-138185222D01*
X138714729Y-138214552D01*
X138816186Y-138297814D01*
X138899448Y-138399271D01*
X138928778Y-138435009D01*
X138928779Y-138435011D01*
X139012443Y-138591533D01*
X139016586Y-138605191D01*
X139063963Y-138761373D01*
X139081359Y-138938000D01*
X139063963Y-139114627D01*
X139037819Y-139200812D01*
X139012443Y-139284467D01*
X138969513Y-139364782D01*
X138928778Y-139440991D01*
X138899448Y-139476729D01*
X138816186Y-139578186D01*
X138743480Y-139637853D01*
X138678991Y-139690778D01*
X138678989Y-139690779D01*
X138522467Y-139774443D01*
X138465853Y-139791616D01*
X138352627Y-139825963D01*
X138286443Y-139832481D01*
X138220260Y-139839000D01*
X138131740Y-139839000D01*
X138065557Y-139832481D01*
X137999373Y-139825963D01*
X137886147Y-139791616D01*
X137829533Y-139774443D01*
X137673011Y-139690779D01*
X137673009Y-139690778D01*
X137608520Y-139637853D01*
X137535814Y-139578186D01*
X137452552Y-139476729D01*
X137423222Y-139440991D01*
X137382487Y-139364782D01*
X137339557Y-139284467D01*
X137314181Y-139200812D01*
X137288037Y-139114627D01*
X137270641Y-138938000D01*
X137288037Y-138761373D01*
X137335414Y-138605191D01*
X137339557Y-138591533D01*
X137423221Y-138435011D01*
X137423222Y-138435009D01*
X137452552Y-138399271D01*
X137535814Y-138297814D01*
X137637271Y-138214552D01*
X137673009Y-138185222D01*
X137690913Y-138175652D01*
X137829533Y-138101557D01*
X137886147Y-138084384D01*
X137999373Y-138050037D01*
X138065558Y-138043518D01*
X138131740Y-138037000D01*
X138220260Y-138037000D01*
X138286442Y-138043518D01*
X138286442Y-138043518D01*
G37*
G36*
X135746442Y-138043518D02*
X135812627Y-138050037D01*
X135925853Y-138084384D01*
X135982467Y-138101557D01*
X136121087Y-138175652D01*
X136138991Y-138185222D01*
X136174729Y-138214552D01*
X136276186Y-138297814D01*
X136359448Y-138399271D01*
X136388778Y-138435009D01*
X136388779Y-138435011D01*
X136472443Y-138591533D01*
X136476586Y-138605191D01*
X136523963Y-138761373D01*
X136541359Y-138938000D01*
X136523963Y-139114627D01*
X136497819Y-139200812D01*
X136472443Y-139284467D01*
X136429513Y-139364782D01*
X136388778Y-139440991D01*
X136359448Y-139476729D01*
X136276186Y-139578186D01*
X136203480Y-139637853D01*
X136138991Y-139690778D01*
X136138989Y-139690779D01*
X135982467Y-139774443D01*
X135925853Y-139791616D01*
X135812627Y-139825963D01*
X135746443Y-139832481D01*
X135680260Y-139839000D01*
X135591740Y-139839000D01*
X135525557Y-139832481D01*
X135459373Y-139825963D01*
X135346147Y-139791616D01*
X135289533Y-139774443D01*
X135133011Y-139690779D01*
X135133009Y-139690778D01*
X135068520Y-139637853D01*
X134995814Y-139578186D01*
X134912552Y-139476729D01*
X134883222Y-139440991D01*
X134842487Y-139364782D01*
X134799557Y-139284467D01*
X134774181Y-139200812D01*
X134748037Y-139114627D01*
X134730641Y-138938000D01*
X134748037Y-138761373D01*
X134795414Y-138605191D01*
X134799557Y-138591533D01*
X134883221Y-138435011D01*
X134883222Y-138435009D01*
X134912552Y-138399271D01*
X134995814Y-138297814D01*
X135097271Y-138214552D01*
X135133009Y-138185222D01*
X135150913Y-138175652D01*
X135289533Y-138101557D01*
X135346147Y-138084384D01*
X135459373Y-138050037D01*
X135525558Y-138043518D01*
X135591740Y-138037000D01*
X135680260Y-138037000D01*
X135746442Y-138043518D01*
X135746442Y-138043518D01*
G37*
G36*
X133206442Y-138043518D02*
X133272627Y-138050037D01*
X133385853Y-138084384D01*
X133442467Y-138101557D01*
X133581087Y-138175652D01*
X133598991Y-138185222D01*
X133634729Y-138214552D01*
X133736186Y-138297814D01*
X133819448Y-138399271D01*
X133848778Y-138435009D01*
X133848779Y-138435011D01*
X133932443Y-138591533D01*
X133936586Y-138605191D01*
X133983963Y-138761373D01*
X134001359Y-138938000D01*
X133983963Y-139114627D01*
X133957819Y-139200812D01*
X133932443Y-139284467D01*
X133889513Y-139364782D01*
X133848778Y-139440991D01*
X133819448Y-139476729D01*
X133736186Y-139578186D01*
X133663480Y-139637853D01*
X133598991Y-139690778D01*
X133598989Y-139690779D01*
X133442467Y-139774443D01*
X133385853Y-139791616D01*
X133272627Y-139825963D01*
X133206443Y-139832481D01*
X133140260Y-139839000D01*
X133051740Y-139839000D01*
X132985557Y-139832481D01*
X132919373Y-139825963D01*
X132806147Y-139791616D01*
X132749533Y-139774443D01*
X132593011Y-139690779D01*
X132593009Y-139690778D01*
X132528520Y-139637853D01*
X132455814Y-139578186D01*
X132372552Y-139476729D01*
X132343222Y-139440991D01*
X132302487Y-139364782D01*
X132259557Y-139284467D01*
X132234181Y-139200812D01*
X132208037Y-139114627D01*
X132190641Y-138938000D01*
X132208037Y-138761373D01*
X132255414Y-138605191D01*
X132259557Y-138591533D01*
X132343221Y-138435011D01*
X132343222Y-138435009D01*
X132372552Y-138399271D01*
X132455814Y-138297814D01*
X132557271Y-138214552D01*
X132593009Y-138185222D01*
X132610913Y-138175652D01*
X132749533Y-138101557D01*
X132806147Y-138084384D01*
X132919373Y-138050037D01*
X132985558Y-138043518D01*
X133051740Y-138037000D01*
X133140260Y-138037000D01*
X133206442Y-138043518D01*
X133206442Y-138043518D01*
G37*
G36*
X114918442Y-138043518D02*
X114984627Y-138050037D01*
X115097853Y-138084384D01*
X115154467Y-138101557D01*
X115293087Y-138175652D01*
X115310991Y-138185222D01*
X115346729Y-138214552D01*
X115448186Y-138297814D01*
X115531448Y-138399271D01*
X115560778Y-138435009D01*
X115560779Y-138435011D01*
X115644443Y-138591533D01*
X115648586Y-138605191D01*
X115695963Y-138761373D01*
X115713359Y-138938000D01*
X115695963Y-139114627D01*
X115669819Y-139200812D01*
X115644443Y-139284467D01*
X115601513Y-139364782D01*
X115560778Y-139440991D01*
X115531448Y-139476729D01*
X115448186Y-139578186D01*
X115375480Y-139637853D01*
X115310991Y-139690778D01*
X115310989Y-139690779D01*
X115154467Y-139774443D01*
X115097853Y-139791616D01*
X114984627Y-139825963D01*
X114918443Y-139832481D01*
X114852260Y-139839000D01*
X114763740Y-139839000D01*
X114697557Y-139832481D01*
X114631373Y-139825963D01*
X114518147Y-139791616D01*
X114461533Y-139774443D01*
X114305011Y-139690779D01*
X114305009Y-139690778D01*
X114240520Y-139637853D01*
X114167814Y-139578186D01*
X114084552Y-139476729D01*
X114055222Y-139440991D01*
X114014487Y-139364782D01*
X113971557Y-139284467D01*
X113946181Y-139200812D01*
X113920037Y-139114627D01*
X113902641Y-138938000D01*
X113920037Y-138761373D01*
X113967414Y-138605191D01*
X113971557Y-138591533D01*
X114055221Y-138435011D01*
X114055222Y-138435009D01*
X114084552Y-138399271D01*
X114167814Y-138297814D01*
X114269271Y-138214552D01*
X114305009Y-138185222D01*
X114322913Y-138175652D01*
X114461533Y-138101557D01*
X114518147Y-138084384D01*
X114631373Y-138050037D01*
X114697558Y-138043518D01*
X114763740Y-138037000D01*
X114852260Y-138037000D01*
X114918442Y-138043518D01*
X114918442Y-138043518D01*
G37*
G36*
X166988443Y-128645519D02*
X167054627Y-128652037D01*
X167167853Y-128686384D01*
X167224467Y-128703557D01*
X167363087Y-128777652D01*
X167380991Y-128787222D01*
X167416729Y-128816552D01*
X167518186Y-128899814D01*
X167601448Y-129001271D01*
X167630778Y-129037009D01*
X167630779Y-129037011D01*
X167714443Y-129193533D01*
X167714443Y-129193534D01*
X167765963Y-129363373D01*
X167783359Y-129540000D01*
X167765963Y-129716627D01*
X167731616Y-129829853D01*
X167714443Y-129886467D01*
X167640348Y-130025087D01*
X167630778Y-130042991D01*
X167601448Y-130078729D01*
X167518186Y-130180186D01*
X167416729Y-130263448D01*
X167380991Y-130292778D01*
X167380989Y-130292779D01*
X167224467Y-130376443D01*
X167167853Y-130393616D01*
X167054627Y-130427963D01*
X166988443Y-130434481D01*
X166922260Y-130441000D01*
X166833740Y-130441000D01*
X166767557Y-130434481D01*
X166701373Y-130427963D01*
X166588147Y-130393616D01*
X166531533Y-130376443D01*
X166375011Y-130292779D01*
X166375009Y-130292778D01*
X166339271Y-130263448D01*
X166237814Y-130180186D01*
X166154552Y-130078729D01*
X166125222Y-130042991D01*
X166115652Y-130025087D01*
X166041557Y-129886467D01*
X166024384Y-129829853D01*
X165990037Y-129716627D01*
X165972641Y-129540000D01*
X165990037Y-129363373D01*
X166041557Y-129193534D01*
X166041557Y-129193533D01*
X166125221Y-129037011D01*
X166125222Y-129037009D01*
X166154552Y-129001271D01*
X166237814Y-128899814D01*
X166339271Y-128816552D01*
X166375009Y-128787222D01*
X166392913Y-128777652D01*
X166531533Y-128703557D01*
X166588147Y-128686384D01*
X166701373Y-128652037D01*
X166767557Y-128645519D01*
X166833740Y-128639000D01*
X166922260Y-128639000D01*
X166988443Y-128645519D01*
X166988443Y-128645519D01*
G37*
G36*
X166988443Y-126105519D02*
X167054627Y-126112037D01*
X167167853Y-126146384D01*
X167224467Y-126163557D01*
X167363087Y-126237652D01*
X167380991Y-126247222D01*
X167416729Y-126276552D01*
X167518186Y-126359814D01*
X167601448Y-126461271D01*
X167630778Y-126497009D01*
X167630779Y-126497011D01*
X167714443Y-126653533D01*
X167714443Y-126653534D01*
X167765963Y-126823373D01*
X167783359Y-127000000D01*
X167765963Y-127176627D01*
X167731616Y-127289853D01*
X167714443Y-127346467D01*
X167640348Y-127485087D01*
X167630778Y-127502991D01*
X167601448Y-127538729D01*
X167518186Y-127640186D01*
X167416729Y-127723448D01*
X167380991Y-127752778D01*
X167380989Y-127752779D01*
X167224467Y-127836443D01*
X167167853Y-127853616D01*
X167054627Y-127887963D01*
X166988442Y-127894482D01*
X166922260Y-127901000D01*
X166833740Y-127901000D01*
X166767558Y-127894482D01*
X166701373Y-127887963D01*
X166588147Y-127853616D01*
X166531533Y-127836443D01*
X166375011Y-127752779D01*
X166375009Y-127752778D01*
X166339271Y-127723448D01*
X166237814Y-127640186D01*
X166154552Y-127538729D01*
X166125222Y-127502991D01*
X166115652Y-127485087D01*
X166041557Y-127346467D01*
X166024384Y-127289853D01*
X165990037Y-127176627D01*
X165972641Y-127000000D01*
X165990037Y-126823373D01*
X166041557Y-126653534D01*
X166041557Y-126653533D01*
X166125221Y-126497011D01*
X166125222Y-126497009D01*
X166154552Y-126461271D01*
X166237814Y-126359814D01*
X166339271Y-126276552D01*
X166375009Y-126247222D01*
X166392913Y-126237652D01*
X166531533Y-126163557D01*
X166588147Y-126146384D01*
X166701373Y-126112037D01*
X166767557Y-126105519D01*
X166833740Y-126099000D01*
X166922260Y-126099000D01*
X166988443Y-126105519D01*
X166988443Y-126105519D01*
G37*
G36*
X166988442Y-123565518D02*
X167054627Y-123572037D01*
X167167853Y-123606384D01*
X167224467Y-123623557D01*
X167363087Y-123697652D01*
X167380991Y-123707222D01*
X167416729Y-123736552D01*
X167518186Y-123819814D01*
X167601448Y-123921271D01*
X167630778Y-123957009D01*
X167630779Y-123957011D01*
X167714443Y-124113533D01*
X167714443Y-124113534D01*
X167765963Y-124283373D01*
X167783359Y-124460000D01*
X167765963Y-124636627D01*
X167731616Y-124749853D01*
X167714443Y-124806467D01*
X167640348Y-124945087D01*
X167630778Y-124962991D01*
X167601448Y-124998729D01*
X167518186Y-125100186D01*
X167416729Y-125183448D01*
X167380991Y-125212778D01*
X167380989Y-125212779D01*
X167224467Y-125296443D01*
X167167853Y-125313616D01*
X167054627Y-125347963D01*
X166988442Y-125354482D01*
X166922260Y-125361000D01*
X166833740Y-125361000D01*
X166767558Y-125354482D01*
X166701373Y-125347963D01*
X166588147Y-125313616D01*
X166531533Y-125296443D01*
X166375011Y-125212779D01*
X166375009Y-125212778D01*
X166339271Y-125183448D01*
X166237814Y-125100186D01*
X166154552Y-124998729D01*
X166125222Y-124962991D01*
X166115652Y-124945087D01*
X166041557Y-124806467D01*
X166024384Y-124749853D01*
X165990037Y-124636627D01*
X165972641Y-124460000D01*
X165990037Y-124283373D01*
X166041557Y-124113534D01*
X166041557Y-124113533D01*
X166125221Y-123957011D01*
X166125222Y-123957009D01*
X166154552Y-123921271D01*
X166237814Y-123819814D01*
X166339271Y-123736552D01*
X166375009Y-123707222D01*
X166392913Y-123697652D01*
X166531533Y-123623557D01*
X166588147Y-123606384D01*
X166701373Y-123572037D01*
X166767558Y-123565518D01*
X166833740Y-123559000D01*
X166922260Y-123559000D01*
X166988442Y-123565518D01*
X166988442Y-123565518D01*
G37*
G36*
X167140812Y-121053624D02*
X167304784Y-121121544D01*
X167452354Y-121220147D01*
X167577853Y-121345646D01*
X167676456Y-121493216D01*
X167744376Y-121657188D01*
X167779000Y-121831259D01*
X167779000Y-122008741D01*
X167744376Y-122182812D01*
X167676456Y-122346784D01*
X167577853Y-122494354D01*
X167452354Y-122619853D01*
X167304784Y-122718456D01*
X167140812Y-122786376D01*
X166966741Y-122821000D01*
X166789259Y-122821000D01*
X166615188Y-122786376D01*
X166451216Y-122718456D01*
X166303646Y-122619853D01*
X166178147Y-122494354D01*
X166079544Y-122346784D01*
X166011624Y-122182812D01*
X165977000Y-122008741D01*
X165977000Y-121831259D01*
X166011624Y-121657188D01*
X166079544Y-121493216D01*
X166178147Y-121345646D01*
X166303646Y-121220147D01*
X166451216Y-121121544D01*
X166615188Y-121053624D01*
X166789259Y-121019000D01*
X166966741Y-121019000D01*
X167140812Y-121053624D01*
X167140812Y-121053624D01*
G37*
G36*
X123031552Y-116116331D02*
X123113625Y-116150327D01*
X123113626Y-116150328D01*
X123113629Y-116150329D01*
X123187496Y-116199686D01*
X123187500Y-116199689D01*
X123250311Y-116262500D01*
X123250313Y-116262503D01*
X123250314Y-116262504D01*
X123299671Y-116336371D01*
X123299672Y-116336374D01*
X123299673Y-116336375D01*
X123333669Y-116418448D01*
X123351000Y-116505579D01*
X123351000Y-116594421D01*
X123333669Y-116681552D01*
X123299673Y-116763625D01*
X123299671Y-116763629D01*
X123250314Y-116837496D01*
X123250311Y-116837500D01*
X123187500Y-116900311D01*
X123187497Y-116900313D01*
X123187496Y-116900314D01*
X123113629Y-116949671D01*
X123113626Y-116949672D01*
X123113625Y-116949673D01*
X123031552Y-116983669D01*
X122944421Y-117001000D01*
X122855579Y-117001000D01*
X122768448Y-116983669D01*
X122686375Y-116949673D01*
X122686374Y-116949672D01*
X122686371Y-116949671D01*
X122612504Y-116900314D01*
X122612503Y-116900313D01*
X122612500Y-116900311D01*
X122549689Y-116837500D01*
X122549686Y-116837496D01*
X122500329Y-116763629D01*
X122500327Y-116763625D01*
X122466331Y-116681552D01*
X122449000Y-116594421D01*
X122449000Y-116505579D01*
X122466331Y-116418448D01*
X122500327Y-116336375D01*
X122500328Y-116336374D01*
X122500329Y-116336371D01*
X122549686Y-116262504D01*
X122549687Y-116262503D01*
X122549689Y-116262500D01*
X122612500Y-116199689D01*
X122612504Y-116199686D01*
X122686371Y-116150329D01*
X122686374Y-116150328D01*
X122686375Y-116150327D01*
X122768448Y-116116331D01*
X122855579Y-116099000D01*
X122944421Y-116099000D01*
X123031552Y-116116331D01*
X123031552Y-116116331D01*
G37*
G36*
X118531552Y-116116331D02*
X118613625Y-116150327D01*
X118613626Y-116150328D01*
X118613629Y-116150329D01*
X118687496Y-116199686D01*
X118687500Y-116199689D01*
X118750311Y-116262500D01*
X118750313Y-116262503D01*
X118750314Y-116262504D01*
X118799671Y-116336371D01*
X118799672Y-116336374D01*
X118799673Y-116336375D01*
X118833669Y-116418448D01*
X118851000Y-116505579D01*
X118851000Y-116594421D01*
X118833669Y-116681552D01*
X118799673Y-116763625D01*
X118799671Y-116763629D01*
X118750314Y-116837496D01*
X118750311Y-116837500D01*
X118687500Y-116900311D01*
X118687497Y-116900313D01*
X118687496Y-116900314D01*
X118613629Y-116949671D01*
X118613626Y-116949672D01*
X118613625Y-116949673D01*
X118531552Y-116983669D01*
X118444421Y-117001000D01*
X118355579Y-117001000D01*
X118268448Y-116983669D01*
X118186375Y-116949673D01*
X118186374Y-116949672D01*
X118186371Y-116949671D01*
X118112504Y-116900314D01*
X118112503Y-116900313D01*
X118112500Y-116900311D01*
X118049689Y-116837500D01*
X118049686Y-116837496D01*
X118000329Y-116763629D01*
X118000327Y-116763625D01*
X117966331Y-116681552D01*
X117949000Y-116594421D01*
X117949000Y-116505579D01*
X117966331Y-116418448D01*
X118000327Y-116336375D01*
X118000328Y-116336374D01*
X118000329Y-116336371D01*
X118049686Y-116262504D01*
X118049687Y-116262503D01*
X118049689Y-116262500D01*
X118112500Y-116199689D01*
X118112504Y-116199686D01*
X118186371Y-116150329D01*
X118186374Y-116150328D01*
X118186375Y-116150327D01*
X118268448Y-116116331D01*
X118355579Y-116099000D01*
X118444421Y-116099000D01*
X118531552Y-116116331D01*
X118531552Y-116116331D01*
G37*
G36*
X167140812Y-115211624D02*
X167304784Y-115279544D01*
X167452354Y-115378147D01*
X167577853Y-115503646D01*
X167676456Y-115651216D01*
X167744376Y-115815188D01*
X167779000Y-115989259D01*
X167779000Y-116166741D01*
X167744376Y-116340812D01*
X167676456Y-116504784D01*
X167577853Y-116652354D01*
X167452354Y-116777853D01*
X167304784Y-116876456D01*
X167140812Y-116944376D01*
X166966741Y-116979000D01*
X166789259Y-116979000D01*
X166615188Y-116944376D01*
X166451216Y-116876456D01*
X166303646Y-116777853D01*
X166178147Y-116652354D01*
X166079544Y-116504784D01*
X166011624Y-116340812D01*
X165977000Y-116166741D01*
X165977000Y-115989259D01*
X166011624Y-115815188D01*
X166079544Y-115651216D01*
X166178147Y-115503646D01*
X166303646Y-115378147D01*
X166451216Y-115279544D01*
X166615188Y-115211624D01*
X166789259Y-115177000D01*
X166966741Y-115177000D01*
X167140812Y-115211624D01*
X167140812Y-115211624D01*
G37*
G36*
X167140812Y-112671624D02*
X167304784Y-112739544D01*
X167452354Y-112838147D01*
X167577853Y-112963646D01*
X167676456Y-113111216D01*
X167744376Y-113275188D01*
X167779000Y-113449259D01*
X167779000Y-113626741D01*
X167744376Y-113800812D01*
X167676456Y-113964784D01*
X167577853Y-114112354D01*
X167452354Y-114237853D01*
X167304784Y-114336456D01*
X167140812Y-114404376D01*
X166966741Y-114439000D01*
X166789259Y-114439000D01*
X166615188Y-114404376D01*
X166451216Y-114336456D01*
X166303646Y-114237853D01*
X166178147Y-114112354D01*
X166079544Y-113964784D01*
X166011624Y-113800812D01*
X165977000Y-113626741D01*
X165977000Y-113449259D01*
X166011624Y-113275188D01*
X166079544Y-113111216D01*
X166178147Y-112963646D01*
X166303646Y-112838147D01*
X166451216Y-112739544D01*
X166615188Y-112671624D01*
X166789259Y-112637000D01*
X166966741Y-112637000D01*
X167140812Y-112671624D01*
X167140812Y-112671624D01*
G37*
G36*
X166988443Y-110103519D02*
X167054627Y-110110037D01*
X167167853Y-110144384D01*
X167224467Y-110161557D01*
X167363087Y-110235652D01*
X167380991Y-110245222D01*
X167416729Y-110274552D01*
X167518186Y-110357814D01*
X167601448Y-110459271D01*
X167630778Y-110495009D01*
X167630779Y-110495011D01*
X167714443Y-110651533D01*
X167714443Y-110651534D01*
X167765963Y-110821373D01*
X167783359Y-110998000D01*
X167765963Y-111174627D01*
X167731616Y-111287853D01*
X167714443Y-111344467D01*
X167640348Y-111483087D01*
X167630778Y-111500991D01*
X167601448Y-111536729D01*
X167518186Y-111638186D01*
X167416729Y-111721448D01*
X167380991Y-111750778D01*
X167380989Y-111750779D01*
X167224467Y-111834443D01*
X167167853Y-111851616D01*
X167054627Y-111885963D01*
X166988442Y-111892482D01*
X166922260Y-111899000D01*
X166833740Y-111899000D01*
X166767558Y-111892482D01*
X166701373Y-111885963D01*
X166588147Y-111851616D01*
X166531533Y-111834443D01*
X166375011Y-111750779D01*
X166375009Y-111750778D01*
X166339271Y-111721448D01*
X166237814Y-111638186D01*
X166154552Y-111536729D01*
X166125222Y-111500991D01*
X166115652Y-111483087D01*
X166041557Y-111344467D01*
X166024384Y-111287853D01*
X165990037Y-111174627D01*
X165972641Y-110998000D01*
X165990037Y-110821373D01*
X166041557Y-110651534D01*
X166041557Y-110651533D01*
X166125221Y-110495011D01*
X166125222Y-110495009D01*
X166154552Y-110459271D01*
X166237814Y-110357814D01*
X166339271Y-110274552D01*
X166375009Y-110245222D01*
X166392913Y-110235652D01*
X166531533Y-110161557D01*
X166588147Y-110144384D01*
X166701373Y-110110037D01*
X166767557Y-110103519D01*
X166833740Y-110097000D01*
X166922260Y-110097000D01*
X166988443Y-110103519D01*
X166988443Y-110103519D01*
G37*
G36*
X166988443Y-107563519D02*
X167054627Y-107570037D01*
X167167853Y-107604384D01*
X167224467Y-107621557D01*
X167363087Y-107695652D01*
X167380991Y-107705222D01*
X167416729Y-107734552D01*
X167518186Y-107817814D01*
X167601448Y-107919271D01*
X167630778Y-107955009D01*
X167630779Y-107955011D01*
X167714443Y-108111533D01*
X167714443Y-108111534D01*
X167765963Y-108281373D01*
X167783359Y-108458000D01*
X167765963Y-108634627D01*
X167731616Y-108747853D01*
X167714443Y-108804467D01*
X167640348Y-108943087D01*
X167630778Y-108960991D01*
X167601448Y-108996729D01*
X167518186Y-109098186D01*
X167416729Y-109181448D01*
X167380991Y-109210778D01*
X167380989Y-109210779D01*
X167224467Y-109294443D01*
X167167853Y-109311616D01*
X167054627Y-109345963D01*
X166988443Y-109352481D01*
X166922260Y-109359000D01*
X166833740Y-109359000D01*
X166767557Y-109352481D01*
X166701373Y-109345963D01*
X166588147Y-109311616D01*
X166531533Y-109294443D01*
X166375011Y-109210779D01*
X166375009Y-109210778D01*
X166339271Y-109181448D01*
X166237814Y-109098186D01*
X166154552Y-108996729D01*
X166125222Y-108960991D01*
X166115652Y-108943087D01*
X166041557Y-108804467D01*
X166024384Y-108747853D01*
X165990037Y-108634627D01*
X165972641Y-108458000D01*
X165990037Y-108281373D01*
X166041557Y-108111534D01*
X166041557Y-108111533D01*
X166125221Y-107955011D01*
X166125222Y-107955009D01*
X166154552Y-107919271D01*
X166237814Y-107817814D01*
X166339271Y-107734552D01*
X166375009Y-107705222D01*
X166392913Y-107695652D01*
X166531533Y-107621557D01*
X166588147Y-107604384D01*
X166701373Y-107570037D01*
X166767557Y-107563519D01*
X166833740Y-107557000D01*
X166922260Y-107557000D01*
X166988443Y-107563519D01*
X166988443Y-107563519D01*
G37*
G36*
X128126442Y-51750436D02*
X128192627Y-51756955D01*
X128305853Y-51791302D01*
X128362467Y-51808475D01*
X128501087Y-51882570D01*
X128518991Y-51892140D01*
X128554729Y-51921470D01*
X128656186Y-52004732D01*
X128739448Y-52106189D01*
X128768778Y-52141927D01*
X128768779Y-52141929D01*
X128852443Y-52298451D01*
X128852443Y-52298452D01*
X128903963Y-52468291D01*
X128921359Y-52644918D01*
X128903963Y-52821545D01*
X128869616Y-52934771D01*
X128852443Y-52991385D01*
X128778348Y-53130005D01*
X128768778Y-53147909D01*
X128739448Y-53183647D01*
X128656186Y-53285104D01*
X128554729Y-53368366D01*
X128518991Y-53397696D01*
X128518989Y-53397697D01*
X128362467Y-53481361D01*
X128305853Y-53498534D01*
X128192627Y-53532881D01*
X128126443Y-53539399D01*
X128060260Y-53545918D01*
X127971740Y-53545918D01*
X127905557Y-53539399D01*
X127839373Y-53532881D01*
X127726147Y-53498534D01*
X127669533Y-53481361D01*
X127513011Y-53397697D01*
X127513009Y-53397696D01*
X127477271Y-53368366D01*
X127375814Y-53285104D01*
X127292552Y-53183647D01*
X127263222Y-53147909D01*
X127253652Y-53130005D01*
X127179557Y-52991385D01*
X127162384Y-52934771D01*
X127128037Y-52821545D01*
X127110641Y-52644918D01*
X127128037Y-52468291D01*
X127179557Y-52298452D01*
X127179557Y-52298451D01*
X127263221Y-52141929D01*
X127263222Y-52141927D01*
X127292552Y-52106189D01*
X127375814Y-52004732D01*
X127477271Y-51921470D01*
X127513009Y-51892140D01*
X127530913Y-51882570D01*
X127669533Y-51808475D01*
X127726147Y-51791302D01*
X127839373Y-51756955D01*
X127905558Y-51750436D01*
X127971740Y-51743918D01*
X128060260Y-51743918D01*
X128126442Y-51750436D01*
X128126442Y-51750436D01*
G37*
G36*
X125586442Y-51750436D02*
X125652627Y-51756955D01*
X125765853Y-51791302D01*
X125822467Y-51808475D01*
X125961087Y-51882570D01*
X125978991Y-51892140D01*
X126014729Y-51921470D01*
X126116186Y-52004732D01*
X126199448Y-52106189D01*
X126228778Y-52141927D01*
X126228779Y-52141929D01*
X126312443Y-52298451D01*
X126312443Y-52298452D01*
X126363963Y-52468291D01*
X126381359Y-52644918D01*
X126363963Y-52821545D01*
X126329616Y-52934771D01*
X126312443Y-52991385D01*
X126238348Y-53130005D01*
X126228778Y-53147909D01*
X126199448Y-53183647D01*
X126116186Y-53285104D01*
X126014729Y-53368366D01*
X125978991Y-53397696D01*
X125978989Y-53397697D01*
X125822467Y-53481361D01*
X125765853Y-53498534D01*
X125652627Y-53532881D01*
X125586443Y-53539399D01*
X125520260Y-53545918D01*
X125431740Y-53545918D01*
X125365557Y-53539399D01*
X125299373Y-53532881D01*
X125186147Y-53498534D01*
X125129533Y-53481361D01*
X124973011Y-53397697D01*
X124973009Y-53397696D01*
X124937271Y-53368366D01*
X124835814Y-53285104D01*
X124752552Y-53183647D01*
X124723222Y-53147909D01*
X124713652Y-53130005D01*
X124639557Y-52991385D01*
X124622384Y-52934771D01*
X124588037Y-52821545D01*
X124570641Y-52644918D01*
X124588037Y-52468291D01*
X124639557Y-52298452D01*
X124639557Y-52298451D01*
X124723221Y-52141929D01*
X124723222Y-52141927D01*
X124752552Y-52106189D01*
X124835814Y-52004732D01*
X124937271Y-51921470D01*
X124973009Y-51892140D01*
X124990913Y-51882570D01*
X125129533Y-51808475D01*
X125186147Y-51791302D01*
X125299373Y-51756955D01*
X125365558Y-51750436D01*
X125431740Y-51743918D01*
X125520260Y-51743918D01*
X125586442Y-51750436D01*
X125586442Y-51750436D01*
G37*
G36*
X123046442Y-51750436D02*
X123112627Y-51756955D01*
X123225853Y-51791302D01*
X123282467Y-51808475D01*
X123421087Y-51882570D01*
X123438991Y-51892140D01*
X123474729Y-51921470D01*
X123576186Y-52004732D01*
X123659448Y-52106189D01*
X123688778Y-52141927D01*
X123688779Y-52141929D01*
X123772443Y-52298451D01*
X123772443Y-52298452D01*
X123823963Y-52468291D01*
X123841359Y-52644918D01*
X123823963Y-52821545D01*
X123789616Y-52934771D01*
X123772443Y-52991385D01*
X123698348Y-53130005D01*
X123688778Y-53147909D01*
X123659448Y-53183647D01*
X123576186Y-53285104D01*
X123474729Y-53368366D01*
X123438991Y-53397696D01*
X123438989Y-53397697D01*
X123282467Y-53481361D01*
X123225853Y-53498534D01*
X123112627Y-53532881D01*
X123046443Y-53539399D01*
X122980260Y-53545918D01*
X122891740Y-53545918D01*
X122825557Y-53539399D01*
X122759373Y-53532881D01*
X122646147Y-53498534D01*
X122589533Y-53481361D01*
X122433011Y-53397697D01*
X122433009Y-53397696D01*
X122397271Y-53368366D01*
X122295814Y-53285104D01*
X122212552Y-53183647D01*
X122183222Y-53147909D01*
X122173652Y-53130005D01*
X122099557Y-52991385D01*
X122082384Y-52934771D01*
X122048037Y-52821545D01*
X122030641Y-52644918D01*
X122048037Y-52468291D01*
X122099557Y-52298452D01*
X122099557Y-52298451D01*
X122183221Y-52141929D01*
X122183222Y-52141927D01*
X122212552Y-52106189D01*
X122295814Y-52004732D01*
X122397271Y-51921470D01*
X122433009Y-51892140D01*
X122450913Y-51882570D01*
X122589533Y-51808475D01*
X122646147Y-51791302D01*
X122759373Y-51756955D01*
X122825558Y-51750436D01*
X122891740Y-51743918D01*
X122980260Y-51743918D01*
X123046442Y-51750436D01*
X123046442Y-51750436D01*
G37*
G36*
X120506442Y-51750436D02*
X120572627Y-51756955D01*
X120685853Y-51791302D01*
X120742467Y-51808475D01*
X120881087Y-51882570D01*
X120898991Y-51892140D01*
X120934729Y-51921470D01*
X121036186Y-52004732D01*
X121119448Y-52106189D01*
X121148778Y-52141927D01*
X121148779Y-52141929D01*
X121232443Y-52298451D01*
X121232443Y-52298452D01*
X121283963Y-52468291D01*
X121301359Y-52644918D01*
X121283963Y-52821545D01*
X121249616Y-52934771D01*
X121232443Y-52991385D01*
X121158348Y-53130005D01*
X121148778Y-53147909D01*
X121119448Y-53183647D01*
X121036186Y-53285104D01*
X120934729Y-53368366D01*
X120898991Y-53397696D01*
X120898989Y-53397697D01*
X120742467Y-53481361D01*
X120685853Y-53498534D01*
X120572627Y-53532881D01*
X120506443Y-53539399D01*
X120440260Y-53545918D01*
X120351740Y-53545918D01*
X120285557Y-53539399D01*
X120219373Y-53532881D01*
X120106147Y-53498534D01*
X120049533Y-53481361D01*
X119893011Y-53397697D01*
X119893009Y-53397696D01*
X119857271Y-53368366D01*
X119755814Y-53285104D01*
X119672552Y-53183647D01*
X119643222Y-53147909D01*
X119633652Y-53130005D01*
X119559557Y-52991385D01*
X119542384Y-52934771D01*
X119508037Y-52821545D01*
X119490641Y-52644918D01*
X119508037Y-52468291D01*
X119559557Y-52298452D01*
X119559557Y-52298451D01*
X119643221Y-52141929D01*
X119643222Y-52141927D01*
X119672552Y-52106189D01*
X119755814Y-52004732D01*
X119857271Y-51921470D01*
X119893009Y-51892140D01*
X119910913Y-51882570D01*
X120049533Y-51808475D01*
X120106147Y-51791302D01*
X120219373Y-51756955D01*
X120285558Y-51750436D01*
X120351740Y-51743918D01*
X120440260Y-51743918D01*
X120506442Y-51750436D01*
X120506442Y-51750436D01*
G37*
G36*
X117966442Y-51750436D02*
X118032627Y-51756955D01*
X118145853Y-51791302D01*
X118202467Y-51808475D01*
X118341087Y-51882570D01*
X118358991Y-51892140D01*
X118394729Y-51921470D01*
X118496186Y-52004732D01*
X118579448Y-52106189D01*
X118608778Y-52141927D01*
X118608779Y-52141929D01*
X118692443Y-52298451D01*
X118692443Y-52298452D01*
X118743963Y-52468291D01*
X118761359Y-52644918D01*
X118743963Y-52821545D01*
X118709616Y-52934771D01*
X118692443Y-52991385D01*
X118618348Y-53130005D01*
X118608778Y-53147909D01*
X118579448Y-53183647D01*
X118496186Y-53285104D01*
X118394729Y-53368366D01*
X118358991Y-53397696D01*
X118358989Y-53397697D01*
X118202467Y-53481361D01*
X118145853Y-53498534D01*
X118032627Y-53532881D01*
X117966443Y-53539399D01*
X117900260Y-53545918D01*
X117811740Y-53545918D01*
X117745557Y-53539399D01*
X117679373Y-53532881D01*
X117566147Y-53498534D01*
X117509533Y-53481361D01*
X117353011Y-53397697D01*
X117353009Y-53397696D01*
X117317271Y-53368366D01*
X117215814Y-53285104D01*
X117132552Y-53183647D01*
X117103222Y-53147909D01*
X117093652Y-53130005D01*
X117019557Y-52991385D01*
X117002384Y-52934771D01*
X116968037Y-52821545D01*
X116950641Y-52644918D01*
X116968037Y-52468291D01*
X117019557Y-52298452D01*
X117019557Y-52298451D01*
X117103221Y-52141929D01*
X117103222Y-52141927D01*
X117132552Y-52106189D01*
X117215814Y-52004732D01*
X117317271Y-51921470D01*
X117353009Y-51892140D01*
X117370913Y-51882570D01*
X117509533Y-51808475D01*
X117566147Y-51791302D01*
X117679373Y-51756955D01*
X117745558Y-51750436D01*
X117811740Y-51743918D01*
X117900260Y-51743918D01*
X117966442Y-51750436D01*
X117966442Y-51750436D01*
G37*
G36*
X112886442Y-51750436D02*
X112952627Y-51756955D01*
X113065853Y-51791302D01*
X113122467Y-51808475D01*
X113261087Y-51882570D01*
X113278991Y-51892140D01*
X113314729Y-51921470D01*
X113416186Y-52004732D01*
X113499448Y-52106189D01*
X113528778Y-52141927D01*
X113528779Y-52141929D01*
X113612443Y-52298451D01*
X113612443Y-52298452D01*
X113663963Y-52468291D01*
X113681359Y-52644918D01*
X113663963Y-52821545D01*
X113629616Y-52934771D01*
X113612443Y-52991385D01*
X113538348Y-53130005D01*
X113528778Y-53147909D01*
X113499448Y-53183647D01*
X113416186Y-53285104D01*
X113314729Y-53368366D01*
X113278991Y-53397696D01*
X113278989Y-53397697D01*
X113122467Y-53481361D01*
X113065853Y-53498534D01*
X112952627Y-53532881D01*
X112886443Y-53539399D01*
X112820260Y-53545918D01*
X112731740Y-53545918D01*
X112665557Y-53539399D01*
X112599373Y-53532881D01*
X112486147Y-53498534D01*
X112429533Y-53481361D01*
X112273011Y-53397697D01*
X112273009Y-53397696D01*
X112237271Y-53368366D01*
X112135814Y-53285104D01*
X112052552Y-53183647D01*
X112023222Y-53147909D01*
X112013652Y-53130005D01*
X111939557Y-52991385D01*
X111922384Y-52934771D01*
X111888037Y-52821545D01*
X111870641Y-52644918D01*
X111888037Y-52468291D01*
X111939557Y-52298452D01*
X111939557Y-52298451D01*
X112023221Y-52141929D01*
X112023222Y-52141927D01*
X112052552Y-52106189D01*
X112135814Y-52004732D01*
X112237271Y-51921470D01*
X112273009Y-51892140D01*
X112290913Y-51882570D01*
X112429533Y-51808475D01*
X112486147Y-51791302D01*
X112599373Y-51756955D01*
X112665558Y-51750436D01*
X112731740Y-51743918D01*
X112820260Y-51743918D01*
X112886442Y-51750436D01*
X112886442Y-51750436D01*
G37*
G36*
X156066442Y-51750436D02*
X156132627Y-51756955D01*
X156245853Y-51791302D01*
X156302467Y-51808475D01*
X156441087Y-51882570D01*
X156458991Y-51892140D01*
X156494729Y-51921470D01*
X156596186Y-52004732D01*
X156679448Y-52106189D01*
X156708778Y-52141927D01*
X156708779Y-52141929D01*
X156792443Y-52298451D01*
X156792443Y-52298452D01*
X156843963Y-52468291D01*
X156861359Y-52644918D01*
X156843963Y-52821545D01*
X156809616Y-52934771D01*
X156792443Y-52991385D01*
X156718348Y-53130005D01*
X156708778Y-53147909D01*
X156679448Y-53183647D01*
X156596186Y-53285104D01*
X156494729Y-53368366D01*
X156458991Y-53397696D01*
X156458989Y-53397697D01*
X156302467Y-53481361D01*
X156245853Y-53498534D01*
X156132627Y-53532881D01*
X156066443Y-53539399D01*
X156000260Y-53545918D01*
X155911740Y-53545918D01*
X155845557Y-53539399D01*
X155779373Y-53532881D01*
X155666147Y-53498534D01*
X155609533Y-53481361D01*
X155453011Y-53397697D01*
X155453009Y-53397696D01*
X155417271Y-53368366D01*
X155315814Y-53285104D01*
X155232552Y-53183647D01*
X155203222Y-53147909D01*
X155193652Y-53130005D01*
X155119557Y-52991385D01*
X155102384Y-52934771D01*
X155068037Y-52821545D01*
X155050641Y-52644918D01*
X155068037Y-52468291D01*
X155119557Y-52298452D01*
X155119557Y-52298451D01*
X155203221Y-52141929D01*
X155203222Y-52141927D01*
X155232552Y-52106189D01*
X155315814Y-52004732D01*
X155417271Y-51921470D01*
X155453009Y-51892140D01*
X155470913Y-51882570D01*
X155609533Y-51808475D01*
X155666147Y-51791302D01*
X155779373Y-51756955D01*
X155845558Y-51750436D01*
X155911740Y-51743918D01*
X156000260Y-51743918D01*
X156066442Y-51750436D01*
X156066442Y-51750436D01*
G37*
G36*
X153526442Y-51750436D02*
X153592627Y-51756955D01*
X153705853Y-51791302D01*
X153762467Y-51808475D01*
X153901087Y-51882570D01*
X153918991Y-51892140D01*
X153954729Y-51921470D01*
X154056186Y-52004732D01*
X154139448Y-52106189D01*
X154168778Y-52141927D01*
X154168779Y-52141929D01*
X154252443Y-52298451D01*
X154252443Y-52298452D01*
X154303963Y-52468291D01*
X154321359Y-52644918D01*
X154303963Y-52821545D01*
X154269616Y-52934771D01*
X154252443Y-52991385D01*
X154178348Y-53130005D01*
X154168778Y-53147909D01*
X154139448Y-53183647D01*
X154056186Y-53285104D01*
X153954729Y-53368366D01*
X153918991Y-53397696D01*
X153918989Y-53397697D01*
X153762467Y-53481361D01*
X153705853Y-53498534D01*
X153592627Y-53532881D01*
X153526443Y-53539399D01*
X153460260Y-53545918D01*
X153371740Y-53545918D01*
X153305557Y-53539399D01*
X153239373Y-53532881D01*
X153126147Y-53498534D01*
X153069533Y-53481361D01*
X152913011Y-53397697D01*
X152913009Y-53397696D01*
X152877271Y-53368366D01*
X152775814Y-53285104D01*
X152692552Y-53183647D01*
X152663222Y-53147909D01*
X152653652Y-53130005D01*
X152579557Y-52991385D01*
X152562384Y-52934771D01*
X152528037Y-52821545D01*
X152510641Y-52644918D01*
X152528037Y-52468291D01*
X152579557Y-52298452D01*
X152579557Y-52298451D01*
X152663221Y-52141929D01*
X152663222Y-52141927D01*
X152692552Y-52106189D01*
X152775814Y-52004732D01*
X152877271Y-51921470D01*
X152913009Y-51892140D01*
X152930913Y-51882570D01*
X153069533Y-51808475D01*
X153126147Y-51791302D01*
X153239373Y-51756955D01*
X153305558Y-51750436D01*
X153371740Y-51743918D01*
X153460260Y-51743918D01*
X153526442Y-51750436D01*
X153526442Y-51750436D01*
G37*
G36*
X159397000Y-53545918D02*
X157595000Y-53545918D01*
X157595000Y-51743918D01*
X159397000Y-51743918D01*
X159397000Y-53545918D01*
X159397000Y-53545918D01*
G37*
G36*
X133206442Y-51750436D02*
X133272627Y-51756955D01*
X133385853Y-51791302D01*
X133442467Y-51808475D01*
X133581087Y-51882570D01*
X133598991Y-51892140D01*
X133634729Y-51921470D01*
X133736186Y-52004732D01*
X133819448Y-52106189D01*
X133848778Y-52141927D01*
X133848779Y-52141929D01*
X133932443Y-52298451D01*
X133932443Y-52298452D01*
X133983963Y-52468291D01*
X134001359Y-52644918D01*
X133983963Y-52821545D01*
X133949616Y-52934771D01*
X133932443Y-52991385D01*
X133858348Y-53130005D01*
X133848778Y-53147909D01*
X133819448Y-53183647D01*
X133736186Y-53285104D01*
X133634729Y-53368366D01*
X133598991Y-53397696D01*
X133598989Y-53397697D01*
X133442467Y-53481361D01*
X133385853Y-53498534D01*
X133272627Y-53532881D01*
X133206443Y-53539399D01*
X133140260Y-53545918D01*
X133051740Y-53545918D01*
X132985557Y-53539399D01*
X132919373Y-53532881D01*
X132806147Y-53498534D01*
X132749533Y-53481361D01*
X132593011Y-53397697D01*
X132593009Y-53397696D01*
X132557271Y-53368366D01*
X132455814Y-53285104D01*
X132372552Y-53183647D01*
X132343222Y-53147909D01*
X132333652Y-53130005D01*
X132259557Y-52991385D01*
X132242384Y-52934771D01*
X132208037Y-52821545D01*
X132190641Y-52644918D01*
X132208037Y-52468291D01*
X132259557Y-52298452D01*
X132259557Y-52298451D01*
X132343221Y-52141929D01*
X132343222Y-52141927D01*
X132372552Y-52106189D01*
X132455814Y-52004732D01*
X132557271Y-51921470D01*
X132593009Y-51892140D01*
X132610913Y-51882570D01*
X132749533Y-51808475D01*
X132806147Y-51791302D01*
X132919373Y-51756955D01*
X132985558Y-51750436D01*
X133051740Y-51743918D01*
X133140260Y-51743918D01*
X133206442Y-51750436D01*
X133206442Y-51750436D01*
G37*
G36*
X130666442Y-51750436D02*
X130732627Y-51756955D01*
X130845853Y-51791302D01*
X130902467Y-51808475D01*
X131041087Y-51882570D01*
X131058991Y-51892140D01*
X131094729Y-51921470D01*
X131196186Y-52004732D01*
X131279448Y-52106189D01*
X131308778Y-52141927D01*
X131308779Y-52141929D01*
X131392443Y-52298451D01*
X131392443Y-52298452D01*
X131443963Y-52468291D01*
X131461359Y-52644918D01*
X131443963Y-52821545D01*
X131409616Y-52934771D01*
X131392443Y-52991385D01*
X131318348Y-53130005D01*
X131308778Y-53147909D01*
X131279448Y-53183647D01*
X131196186Y-53285104D01*
X131094729Y-53368366D01*
X131058991Y-53397696D01*
X131058989Y-53397697D01*
X130902467Y-53481361D01*
X130845853Y-53498534D01*
X130732627Y-53532881D01*
X130666443Y-53539399D01*
X130600260Y-53545918D01*
X130511740Y-53545918D01*
X130445557Y-53539399D01*
X130379373Y-53532881D01*
X130266147Y-53498534D01*
X130209533Y-53481361D01*
X130053011Y-53397697D01*
X130053009Y-53397696D01*
X130017271Y-53368366D01*
X129915814Y-53285104D01*
X129832552Y-53183647D01*
X129803222Y-53147909D01*
X129793652Y-53130005D01*
X129719557Y-52991385D01*
X129702384Y-52934771D01*
X129668037Y-52821545D01*
X129650641Y-52644918D01*
X129668037Y-52468291D01*
X129719557Y-52298452D01*
X129719557Y-52298451D01*
X129803221Y-52141929D01*
X129803222Y-52141927D01*
X129832552Y-52106189D01*
X129915814Y-52004732D01*
X130017271Y-51921470D01*
X130053009Y-51892140D01*
X130070913Y-51882570D01*
X130209533Y-51808475D01*
X130266147Y-51791302D01*
X130379373Y-51756955D01*
X130445558Y-51750436D01*
X130511740Y-51743918D01*
X130600260Y-51743918D01*
X130666442Y-51750436D01*
X130666442Y-51750436D01*
G37*
G36*
X138286442Y-51750436D02*
X138352627Y-51756955D01*
X138465853Y-51791302D01*
X138522467Y-51808475D01*
X138661087Y-51882570D01*
X138678991Y-51892140D01*
X138714729Y-51921470D01*
X138816186Y-52004732D01*
X138899448Y-52106189D01*
X138928778Y-52141927D01*
X138928779Y-52141929D01*
X139012443Y-52298451D01*
X139012443Y-52298452D01*
X139063963Y-52468291D01*
X139081359Y-52644918D01*
X139063963Y-52821545D01*
X139029616Y-52934771D01*
X139012443Y-52991385D01*
X138938348Y-53130005D01*
X138928778Y-53147909D01*
X138899448Y-53183647D01*
X138816186Y-53285104D01*
X138714729Y-53368366D01*
X138678991Y-53397696D01*
X138678989Y-53397697D01*
X138522467Y-53481361D01*
X138465853Y-53498534D01*
X138352627Y-53532881D01*
X138286443Y-53539399D01*
X138220260Y-53545918D01*
X138131740Y-53545918D01*
X138065557Y-53539399D01*
X137999373Y-53532881D01*
X137886147Y-53498534D01*
X137829533Y-53481361D01*
X137673011Y-53397697D01*
X137673009Y-53397696D01*
X137637271Y-53368366D01*
X137535814Y-53285104D01*
X137452552Y-53183647D01*
X137423222Y-53147909D01*
X137413652Y-53130005D01*
X137339557Y-52991385D01*
X137322384Y-52934771D01*
X137288037Y-52821545D01*
X137270641Y-52644918D01*
X137288037Y-52468291D01*
X137339557Y-52298452D01*
X137339557Y-52298451D01*
X137423221Y-52141929D01*
X137423222Y-52141927D01*
X137452552Y-52106189D01*
X137535814Y-52004732D01*
X137637271Y-51921470D01*
X137673009Y-51892140D01*
X137690913Y-51882570D01*
X137829533Y-51808475D01*
X137886147Y-51791302D01*
X137999373Y-51756955D01*
X138065558Y-51750436D01*
X138131740Y-51743918D01*
X138220260Y-51743918D01*
X138286442Y-51750436D01*
X138286442Y-51750436D01*
G37*
G36*
X150986442Y-51750436D02*
X151052627Y-51756955D01*
X151165853Y-51791302D01*
X151222467Y-51808475D01*
X151361087Y-51882570D01*
X151378991Y-51892140D01*
X151414729Y-51921470D01*
X151516186Y-52004732D01*
X151599448Y-52106189D01*
X151628778Y-52141927D01*
X151628779Y-52141929D01*
X151712443Y-52298451D01*
X151712443Y-52298452D01*
X151763963Y-52468291D01*
X151781359Y-52644918D01*
X151763963Y-52821545D01*
X151729616Y-52934771D01*
X151712443Y-52991385D01*
X151638348Y-53130005D01*
X151628778Y-53147909D01*
X151599448Y-53183647D01*
X151516186Y-53285104D01*
X151414729Y-53368366D01*
X151378991Y-53397696D01*
X151378989Y-53397697D01*
X151222467Y-53481361D01*
X151165853Y-53498534D01*
X151052627Y-53532881D01*
X150986443Y-53539399D01*
X150920260Y-53545918D01*
X150831740Y-53545918D01*
X150765557Y-53539399D01*
X150699373Y-53532881D01*
X150586147Y-53498534D01*
X150529533Y-53481361D01*
X150373011Y-53397697D01*
X150373009Y-53397696D01*
X150337271Y-53368366D01*
X150235814Y-53285104D01*
X150152552Y-53183647D01*
X150123222Y-53147909D01*
X150113652Y-53130005D01*
X150039557Y-52991385D01*
X150022384Y-52934771D01*
X149988037Y-52821545D01*
X149970641Y-52644918D01*
X149988037Y-52468291D01*
X150039557Y-52298452D01*
X150039557Y-52298451D01*
X150123221Y-52141929D01*
X150123222Y-52141927D01*
X150152552Y-52106189D01*
X150235814Y-52004732D01*
X150337271Y-51921470D01*
X150373009Y-51892140D01*
X150390913Y-51882570D01*
X150529533Y-51808475D01*
X150586147Y-51791302D01*
X150699373Y-51756955D01*
X150765558Y-51750436D01*
X150831740Y-51743918D01*
X150920260Y-51743918D01*
X150986442Y-51750436D01*
X150986442Y-51750436D01*
G37*
G36*
X140826442Y-51750436D02*
X140892627Y-51756955D01*
X141005853Y-51791302D01*
X141062467Y-51808475D01*
X141201087Y-51882570D01*
X141218991Y-51892140D01*
X141254729Y-51921470D01*
X141356186Y-52004732D01*
X141439448Y-52106189D01*
X141468778Y-52141927D01*
X141468779Y-52141929D01*
X141552443Y-52298451D01*
X141552443Y-52298452D01*
X141603963Y-52468291D01*
X141621359Y-52644918D01*
X141603963Y-52821545D01*
X141569616Y-52934771D01*
X141552443Y-52991385D01*
X141478348Y-53130005D01*
X141468778Y-53147909D01*
X141439448Y-53183647D01*
X141356186Y-53285104D01*
X141254729Y-53368366D01*
X141218991Y-53397696D01*
X141218989Y-53397697D01*
X141062467Y-53481361D01*
X141005853Y-53498534D01*
X140892627Y-53532881D01*
X140826443Y-53539399D01*
X140760260Y-53545918D01*
X140671740Y-53545918D01*
X140605557Y-53539399D01*
X140539373Y-53532881D01*
X140426147Y-53498534D01*
X140369533Y-53481361D01*
X140213011Y-53397697D01*
X140213009Y-53397696D01*
X140177271Y-53368366D01*
X140075814Y-53285104D01*
X139992552Y-53183647D01*
X139963222Y-53147909D01*
X139953652Y-53130005D01*
X139879557Y-52991385D01*
X139862384Y-52934771D01*
X139828037Y-52821545D01*
X139810641Y-52644918D01*
X139828037Y-52468291D01*
X139879557Y-52298452D01*
X139879557Y-52298451D01*
X139963221Y-52141929D01*
X139963222Y-52141927D01*
X139992552Y-52106189D01*
X140075814Y-52004732D01*
X140177271Y-51921470D01*
X140213009Y-51892140D01*
X140230913Y-51882570D01*
X140369533Y-51808475D01*
X140426147Y-51791302D01*
X140539373Y-51756955D01*
X140605558Y-51750436D01*
X140671740Y-51743918D01*
X140760260Y-51743918D01*
X140826442Y-51750436D01*
X140826442Y-51750436D01*
G37*
G36*
X143366442Y-51750436D02*
X143432627Y-51756955D01*
X143545853Y-51791302D01*
X143602467Y-51808475D01*
X143741087Y-51882570D01*
X143758991Y-51892140D01*
X143794729Y-51921470D01*
X143896186Y-52004732D01*
X143979448Y-52106189D01*
X144008778Y-52141927D01*
X144008779Y-52141929D01*
X144092443Y-52298451D01*
X144092443Y-52298452D01*
X144143963Y-52468291D01*
X144161359Y-52644918D01*
X144143963Y-52821545D01*
X144109616Y-52934771D01*
X144092443Y-52991385D01*
X144018348Y-53130005D01*
X144008778Y-53147909D01*
X143979448Y-53183647D01*
X143896186Y-53285104D01*
X143794729Y-53368366D01*
X143758991Y-53397696D01*
X143758989Y-53397697D01*
X143602467Y-53481361D01*
X143545853Y-53498534D01*
X143432627Y-53532881D01*
X143366443Y-53539399D01*
X143300260Y-53545918D01*
X143211740Y-53545918D01*
X143145557Y-53539399D01*
X143079373Y-53532881D01*
X142966147Y-53498534D01*
X142909533Y-53481361D01*
X142753011Y-53397697D01*
X142753009Y-53397696D01*
X142717271Y-53368366D01*
X142615814Y-53285104D01*
X142532552Y-53183647D01*
X142503222Y-53147909D01*
X142493652Y-53130005D01*
X142419557Y-52991385D01*
X142402384Y-52934771D01*
X142368037Y-52821545D01*
X142350641Y-52644918D01*
X142368037Y-52468291D01*
X142419557Y-52298452D01*
X142419557Y-52298451D01*
X142503221Y-52141929D01*
X142503222Y-52141927D01*
X142532552Y-52106189D01*
X142615814Y-52004732D01*
X142717271Y-51921470D01*
X142753009Y-51892140D01*
X142770913Y-51882570D01*
X142909533Y-51808475D01*
X142966147Y-51791302D01*
X143079373Y-51756955D01*
X143145558Y-51750436D01*
X143211740Y-51743918D01*
X143300260Y-51743918D01*
X143366442Y-51750436D01*
X143366442Y-51750436D01*
G37*
G36*
X145906442Y-51750436D02*
X145972627Y-51756955D01*
X146085853Y-51791302D01*
X146142467Y-51808475D01*
X146281087Y-51882570D01*
X146298991Y-51892140D01*
X146334729Y-51921470D01*
X146436186Y-52004732D01*
X146519448Y-52106189D01*
X146548778Y-52141927D01*
X146548779Y-52141929D01*
X146632443Y-52298451D01*
X146632443Y-52298452D01*
X146683963Y-52468291D01*
X146701359Y-52644918D01*
X146683963Y-52821545D01*
X146649616Y-52934771D01*
X146632443Y-52991385D01*
X146558348Y-53130005D01*
X146548778Y-53147909D01*
X146519448Y-53183647D01*
X146436186Y-53285104D01*
X146334729Y-53368366D01*
X146298991Y-53397696D01*
X146298989Y-53397697D01*
X146142467Y-53481361D01*
X146085853Y-53498534D01*
X145972627Y-53532881D01*
X145906443Y-53539399D01*
X145840260Y-53545918D01*
X145751740Y-53545918D01*
X145685557Y-53539399D01*
X145619373Y-53532881D01*
X145506147Y-53498534D01*
X145449533Y-53481361D01*
X145293011Y-53397697D01*
X145293009Y-53397696D01*
X145257271Y-53368366D01*
X145155814Y-53285104D01*
X145072552Y-53183647D01*
X145043222Y-53147909D01*
X145033652Y-53130005D01*
X144959557Y-52991385D01*
X144942384Y-52934771D01*
X144908037Y-52821545D01*
X144890641Y-52644918D01*
X144908037Y-52468291D01*
X144959557Y-52298452D01*
X144959557Y-52298451D01*
X145043221Y-52141929D01*
X145043222Y-52141927D01*
X145072552Y-52106189D01*
X145155814Y-52004732D01*
X145257271Y-51921470D01*
X145293009Y-51892140D01*
X145310913Y-51882570D01*
X145449533Y-51808475D01*
X145506147Y-51791302D01*
X145619373Y-51756955D01*
X145685558Y-51750436D01*
X145751740Y-51743918D01*
X145840260Y-51743918D01*
X145906442Y-51750436D01*
X145906442Y-51750436D01*
G37*
G36*
X148446442Y-51750436D02*
X148512627Y-51756955D01*
X148625853Y-51791302D01*
X148682467Y-51808475D01*
X148821087Y-51882570D01*
X148838991Y-51892140D01*
X148874729Y-51921470D01*
X148976186Y-52004732D01*
X149059448Y-52106189D01*
X149088778Y-52141927D01*
X149088779Y-52141929D01*
X149172443Y-52298451D01*
X149172443Y-52298452D01*
X149223963Y-52468291D01*
X149241359Y-52644918D01*
X149223963Y-52821545D01*
X149189616Y-52934771D01*
X149172443Y-52991385D01*
X149098348Y-53130005D01*
X149088778Y-53147909D01*
X149059448Y-53183647D01*
X148976186Y-53285104D01*
X148874729Y-53368366D01*
X148838991Y-53397696D01*
X148838989Y-53397697D01*
X148682467Y-53481361D01*
X148625853Y-53498534D01*
X148512627Y-53532881D01*
X148446443Y-53539399D01*
X148380260Y-53545918D01*
X148291740Y-53545918D01*
X148225557Y-53539399D01*
X148159373Y-53532881D01*
X148046147Y-53498534D01*
X147989533Y-53481361D01*
X147833011Y-53397697D01*
X147833009Y-53397696D01*
X147797271Y-53368366D01*
X147695814Y-53285104D01*
X147612552Y-53183647D01*
X147583222Y-53147909D01*
X147573652Y-53130005D01*
X147499557Y-52991385D01*
X147482384Y-52934771D01*
X147448037Y-52821545D01*
X147430641Y-52644918D01*
X147448037Y-52468291D01*
X147499557Y-52298452D01*
X147499557Y-52298451D01*
X147583221Y-52141929D01*
X147583222Y-52141927D01*
X147612552Y-52106189D01*
X147695814Y-52004732D01*
X147797271Y-51921470D01*
X147833009Y-51892140D01*
X147850913Y-51882570D01*
X147989533Y-51808475D01*
X148046147Y-51791302D01*
X148159373Y-51756955D01*
X148225558Y-51750436D01*
X148291740Y-51743918D01*
X148380260Y-51743918D01*
X148446442Y-51750436D01*
X148446442Y-51750436D01*
G37*
G36*
X115426442Y-51750436D02*
X115492627Y-51756955D01*
X115605853Y-51791302D01*
X115662467Y-51808475D01*
X115801087Y-51882570D01*
X115818991Y-51892140D01*
X115854729Y-51921470D01*
X115956186Y-52004732D01*
X116039448Y-52106189D01*
X116068778Y-52141927D01*
X116068779Y-52141929D01*
X116152443Y-52298451D01*
X116152443Y-52298452D01*
X116203963Y-52468291D01*
X116221359Y-52644918D01*
X116203963Y-52821545D01*
X116169616Y-52934771D01*
X116152443Y-52991385D01*
X116078348Y-53130005D01*
X116068778Y-53147909D01*
X116039448Y-53183647D01*
X115956186Y-53285104D01*
X115854729Y-53368366D01*
X115818991Y-53397696D01*
X115818989Y-53397697D01*
X115662467Y-53481361D01*
X115605853Y-53498534D01*
X115492627Y-53532881D01*
X115426443Y-53539399D01*
X115360260Y-53545918D01*
X115271740Y-53545918D01*
X115205557Y-53539399D01*
X115139373Y-53532881D01*
X115026147Y-53498534D01*
X114969533Y-53481361D01*
X114813011Y-53397697D01*
X114813009Y-53397696D01*
X114777271Y-53368366D01*
X114675814Y-53285104D01*
X114592552Y-53183647D01*
X114563222Y-53147909D01*
X114553652Y-53130005D01*
X114479557Y-52991385D01*
X114462384Y-52934771D01*
X114428037Y-52821545D01*
X114410641Y-52644918D01*
X114428037Y-52468291D01*
X114479557Y-52298452D01*
X114479557Y-52298451D01*
X114563221Y-52141929D01*
X114563222Y-52141927D01*
X114592552Y-52106189D01*
X114675814Y-52004732D01*
X114777271Y-51921470D01*
X114813009Y-51892140D01*
X114830913Y-51882570D01*
X114969533Y-51808475D01*
X115026147Y-51791302D01*
X115139373Y-51756955D01*
X115205558Y-51750436D01*
X115271740Y-51743918D01*
X115360260Y-51743918D01*
X115426442Y-51750436D01*
X115426442Y-51750436D01*
G37*
G36*
X135746442Y-51750436D02*
X135812627Y-51756955D01*
X135925853Y-51791302D01*
X135982467Y-51808475D01*
X136121087Y-51882570D01*
X136138991Y-51892140D01*
X136174729Y-51921470D01*
X136276186Y-52004732D01*
X136359448Y-52106189D01*
X136388778Y-52141927D01*
X136388779Y-52141929D01*
X136472443Y-52298451D01*
X136472443Y-52298452D01*
X136523963Y-52468291D01*
X136541359Y-52644918D01*
X136523963Y-52821545D01*
X136489616Y-52934771D01*
X136472443Y-52991385D01*
X136398348Y-53130005D01*
X136388778Y-53147909D01*
X136359448Y-53183647D01*
X136276186Y-53285104D01*
X136174729Y-53368366D01*
X136138991Y-53397696D01*
X136138989Y-53397697D01*
X135982467Y-53481361D01*
X135925853Y-53498534D01*
X135812627Y-53532881D01*
X135746443Y-53539399D01*
X135680260Y-53545918D01*
X135591740Y-53545918D01*
X135525557Y-53539399D01*
X135459373Y-53532881D01*
X135346147Y-53498534D01*
X135289533Y-53481361D01*
X135133011Y-53397697D01*
X135133009Y-53397696D01*
X135097271Y-53368366D01*
X134995814Y-53285104D01*
X134912552Y-53183647D01*
X134883222Y-53147909D01*
X134873652Y-53130005D01*
X134799557Y-52991385D01*
X134782384Y-52934771D01*
X134748037Y-52821545D01*
X134730641Y-52644918D01*
X134748037Y-52468291D01*
X134799557Y-52298452D01*
X134799557Y-52298451D01*
X134883221Y-52141929D01*
X134883222Y-52141927D01*
X134912552Y-52106189D01*
X134995814Y-52004732D01*
X135097271Y-51921470D01*
X135133009Y-51892140D01*
X135150913Y-51882570D01*
X135289533Y-51808475D01*
X135346147Y-51791302D01*
X135459373Y-51756955D01*
X135525558Y-51750436D01*
X135591740Y-51743918D01*
X135680260Y-51743918D01*
X135746442Y-51750436D01*
X135746442Y-51750436D01*
G37*
G36*
X138286443Y-26350437D02*
X138352627Y-26356955D01*
X138465853Y-26391302D01*
X138522467Y-26408475D01*
X138661087Y-26482570D01*
X138678991Y-26492140D01*
X138714729Y-26521470D01*
X138816186Y-26604732D01*
X138899448Y-26706189D01*
X138928778Y-26741927D01*
X138928779Y-26741929D01*
X139012443Y-26898451D01*
X139012443Y-26898452D01*
X139063963Y-27068291D01*
X139081359Y-27244918D01*
X139063963Y-27421545D01*
X139029616Y-27534771D01*
X139012443Y-27591385D01*
X138938348Y-27730005D01*
X138928778Y-27747909D01*
X138899448Y-27783647D01*
X138816186Y-27885104D01*
X138714729Y-27968366D01*
X138678991Y-27997696D01*
X138678989Y-27997697D01*
X138522467Y-28081361D01*
X138465853Y-28098534D01*
X138352627Y-28132881D01*
X138286443Y-28139399D01*
X138220260Y-28145918D01*
X138131740Y-28145918D01*
X138065557Y-28139399D01*
X137999373Y-28132881D01*
X137886147Y-28098534D01*
X137829533Y-28081361D01*
X137673011Y-27997697D01*
X137673009Y-27997696D01*
X137637271Y-27968366D01*
X137535814Y-27885104D01*
X137452552Y-27783647D01*
X137423222Y-27747909D01*
X137413652Y-27730005D01*
X137339557Y-27591385D01*
X137322384Y-27534771D01*
X137288037Y-27421545D01*
X137270641Y-27244918D01*
X137288037Y-27068291D01*
X137339557Y-26898452D01*
X137339557Y-26898451D01*
X137423221Y-26741929D01*
X137423222Y-26741927D01*
X137452552Y-26706189D01*
X137535814Y-26604732D01*
X137637271Y-26521470D01*
X137673009Y-26492140D01*
X137690913Y-26482570D01*
X137829533Y-26408475D01*
X137886147Y-26391302D01*
X137999373Y-26356955D01*
X138065557Y-26350437D01*
X138131740Y-26343918D01*
X138220260Y-26343918D01*
X138286443Y-26350437D01*
X138286443Y-26350437D01*
G37*
G36*
X135746443Y-26350437D02*
X135812627Y-26356955D01*
X135925853Y-26391302D01*
X135982467Y-26408475D01*
X136121087Y-26482570D01*
X136138991Y-26492140D01*
X136174729Y-26521470D01*
X136276186Y-26604732D01*
X136359448Y-26706189D01*
X136388778Y-26741927D01*
X136388779Y-26741929D01*
X136472443Y-26898451D01*
X136472443Y-26898452D01*
X136523963Y-27068291D01*
X136541359Y-27244918D01*
X136523963Y-27421545D01*
X136489616Y-27534771D01*
X136472443Y-27591385D01*
X136398348Y-27730005D01*
X136388778Y-27747909D01*
X136359448Y-27783647D01*
X136276186Y-27885104D01*
X136174729Y-27968366D01*
X136138991Y-27997696D01*
X136138989Y-27997697D01*
X135982467Y-28081361D01*
X135925853Y-28098534D01*
X135812627Y-28132881D01*
X135746443Y-28139399D01*
X135680260Y-28145918D01*
X135591740Y-28145918D01*
X135525557Y-28139399D01*
X135459373Y-28132881D01*
X135346147Y-28098534D01*
X135289533Y-28081361D01*
X135133011Y-27997697D01*
X135133009Y-27997696D01*
X135097271Y-27968366D01*
X134995814Y-27885104D01*
X134912552Y-27783647D01*
X134883222Y-27747909D01*
X134873652Y-27730005D01*
X134799557Y-27591385D01*
X134782384Y-27534771D01*
X134748037Y-27421545D01*
X134730641Y-27244918D01*
X134748037Y-27068291D01*
X134799557Y-26898452D01*
X134799557Y-26898451D01*
X134883221Y-26741929D01*
X134883222Y-26741927D01*
X134912552Y-26706189D01*
X134995814Y-26604732D01*
X135097271Y-26521470D01*
X135133009Y-26492140D01*
X135150913Y-26482570D01*
X135289533Y-26408475D01*
X135346147Y-26391302D01*
X135459373Y-26356955D01*
X135525557Y-26350437D01*
X135591740Y-26343918D01*
X135680260Y-26343918D01*
X135746443Y-26350437D01*
X135746443Y-26350437D01*
G37*
G36*
X133206443Y-26350437D02*
X133272627Y-26356955D01*
X133385853Y-26391302D01*
X133442467Y-26408475D01*
X133581087Y-26482570D01*
X133598991Y-26492140D01*
X133634729Y-26521470D01*
X133736186Y-26604732D01*
X133819448Y-26706189D01*
X133848778Y-26741927D01*
X133848779Y-26741929D01*
X133932443Y-26898451D01*
X133932443Y-26898452D01*
X133983963Y-27068291D01*
X134001359Y-27244918D01*
X133983963Y-27421545D01*
X133949616Y-27534771D01*
X133932443Y-27591385D01*
X133858348Y-27730005D01*
X133848778Y-27747909D01*
X133819448Y-27783647D01*
X133736186Y-27885104D01*
X133634729Y-27968366D01*
X133598991Y-27997696D01*
X133598989Y-27997697D01*
X133442467Y-28081361D01*
X133385853Y-28098534D01*
X133272627Y-28132881D01*
X133206443Y-28139399D01*
X133140260Y-28145918D01*
X133051740Y-28145918D01*
X132985557Y-28139399D01*
X132919373Y-28132881D01*
X132806147Y-28098534D01*
X132749533Y-28081361D01*
X132593011Y-27997697D01*
X132593009Y-27997696D01*
X132557271Y-27968366D01*
X132455814Y-27885104D01*
X132372552Y-27783647D01*
X132343222Y-27747909D01*
X132333652Y-27730005D01*
X132259557Y-27591385D01*
X132242384Y-27534771D01*
X132208037Y-27421545D01*
X132190641Y-27244918D01*
X132208037Y-27068291D01*
X132259557Y-26898452D01*
X132259557Y-26898451D01*
X132343221Y-26741929D01*
X132343222Y-26741927D01*
X132372552Y-26706189D01*
X132455814Y-26604732D01*
X132557271Y-26521470D01*
X132593009Y-26492140D01*
X132610913Y-26482570D01*
X132749533Y-26408475D01*
X132806147Y-26391302D01*
X132919373Y-26356955D01*
X132985557Y-26350437D01*
X133051740Y-26343918D01*
X133140260Y-26343918D01*
X133206443Y-26350437D01*
X133206443Y-26350437D01*
G37*
G36*
X130666443Y-26350437D02*
X130732627Y-26356955D01*
X130845853Y-26391302D01*
X130902467Y-26408475D01*
X131041087Y-26482570D01*
X131058991Y-26492140D01*
X131094729Y-26521470D01*
X131196186Y-26604732D01*
X131279448Y-26706189D01*
X131308778Y-26741927D01*
X131308779Y-26741929D01*
X131392443Y-26898451D01*
X131392443Y-26898452D01*
X131443963Y-27068291D01*
X131461359Y-27244918D01*
X131443963Y-27421545D01*
X131409616Y-27534771D01*
X131392443Y-27591385D01*
X131318348Y-27730005D01*
X131308778Y-27747909D01*
X131279448Y-27783647D01*
X131196186Y-27885104D01*
X131094729Y-27968366D01*
X131058991Y-27997696D01*
X131058989Y-27997697D01*
X130902467Y-28081361D01*
X130845853Y-28098534D01*
X130732627Y-28132881D01*
X130666443Y-28139399D01*
X130600260Y-28145918D01*
X130511740Y-28145918D01*
X130445557Y-28139399D01*
X130379373Y-28132881D01*
X130266147Y-28098534D01*
X130209533Y-28081361D01*
X130053011Y-27997697D01*
X130053009Y-27997696D01*
X130017271Y-27968366D01*
X129915814Y-27885104D01*
X129832552Y-27783647D01*
X129803222Y-27747909D01*
X129793652Y-27730005D01*
X129719557Y-27591385D01*
X129702384Y-27534771D01*
X129668037Y-27421545D01*
X129650641Y-27244918D01*
X129668037Y-27068291D01*
X129719557Y-26898452D01*
X129719557Y-26898451D01*
X129803221Y-26741929D01*
X129803222Y-26741927D01*
X129832552Y-26706189D01*
X129915814Y-26604732D01*
X130017271Y-26521470D01*
X130053009Y-26492140D01*
X130070913Y-26482570D01*
X130209533Y-26408475D01*
X130266147Y-26391302D01*
X130379373Y-26356955D01*
X130445557Y-26350437D01*
X130511740Y-26343918D01*
X130600260Y-26343918D01*
X130666443Y-26350437D01*
X130666443Y-26350437D01*
G37*
G36*
X125586443Y-26350437D02*
X125652627Y-26356955D01*
X125765853Y-26391302D01*
X125822467Y-26408475D01*
X125961087Y-26482570D01*
X125978991Y-26492140D01*
X126014729Y-26521470D01*
X126116186Y-26604732D01*
X126199448Y-26706189D01*
X126228778Y-26741927D01*
X126228779Y-26741929D01*
X126312443Y-26898451D01*
X126312443Y-26898452D01*
X126363963Y-27068291D01*
X126381359Y-27244918D01*
X126363963Y-27421545D01*
X126329616Y-27534771D01*
X126312443Y-27591385D01*
X126238348Y-27730005D01*
X126228778Y-27747909D01*
X126199448Y-27783647D01*
X126116186Y-27885104D01*
X126014729Y-27968366D01*
X125978991Y-27997696D01*
X125978989Y-27997697D01*
X125822467Y-28081361D01*
X125765853Y-28098534D01*
X125652627Y-28132881D01*
X125586443Y-28139399D01*
X125520260Y-28145918D01*
X125431740Y-28145918D01*
X125365557Y-28139399D01*
X125299373Y-28132881D01*
X125186147Y-28098534D01*
X125129533Y-28081361D01*
X124973011Y-27997697D01*
X124973009Y-27997696D01*
X124937271Y-27968366D01*
X124835814Y-27885104D01*
X124752552Y-27783647D01*
X124723222Y-27747909D01*
X124713652Y-27730005D01*
X124639557Y-27591385D01*
X124622384Y-27534771D01*
X124588037Y-27421545D01*
X124570641Y-27244918D01*
X124588037Y-27068291D01*
X124639557Y-26898452D01*
X124639557Y-26898451D01*
X124723221Y-26741929D01*
X124723222Y-26741927D01*
X124752552Y-26706189D01*
X124835814Y-26604732D01*
X124937271Y-26521470D01*
X124973009Y-26492140D01*
X124990913Y-26482570D01*
X125129533Y-26408475D01*
X125186147Y-26391302D01*
X125299373Y-26356955D01*
X125365557Y-26350437D01*
X125431740Y-26343918D01*
X125520260Y-26343918D01*
X125586443Y-26350437D01*
X125586443Y-26350437D01*
G37*
G36*
X123046443Y-26350437D02*
X123112627Y-26356955D01*
X123225853Y-26391302D01*
X123282467Y-26408475D01*
X123421087Y-26482570D01*
X123438991Y-26492140D01*
X123474729Y-26521470D01*
X123576186Y-26604732D01*
X123659448Y-26706189D01*
X123688778Y-26741927D01*
X123688779Y-26741929D01*
X123772443Y-26898451D01*
X123772443Y-26898452D01*
X123823963Y-27068291D01*
X123841359Y-27244918D01*
X123823963Y-27421545D01*
X123789616Y-27534771D01*
X123772443Y-27591385D01*
X123698348Y-27730005D01*
X123688778Y-27747909D01*
X123659448Y-27783647D01*
X123576186Y-27885104D01*
X123474729Y-27968366D01*
X123438991Y-27997696D01*
X123438989Y-27997697D01*
X123282467Y-28081361D01*
X123225853Y-28098534D01*
X123112627Y-28132881D01*
X123046443Y-28139399D01*
X122980260Y-28145918D01*
X122891740Y-28145918D01*
X122825557Y-28139399D01*
X122759373Y-28132881D01*
X122646147Y-28098534D01*
X122589533Y-28081361D01*
X122433011Y-27997697D01*
X122433009Y-27997696D01*
X122397271Y-27968366D01*
X122295814Y-27885104D01*
X122212552Y-27783647D01*
X122183222Y-27747909D01*
X122173652Y-27730005D01*
X122099557Y-27591385D01*
X122082384Y-27534771D01*
X122048037Y-27421545D01*
X122030641Y-27244918D01*
X122048037Y-27068291D01*
X122099557Y-26898452D01*
X122099557Y-26898451D01*
X122183221Y-26741929D01*
X122183222Y-26741927D01*
X122212552Y-26706189D01*
X122295814Y-26604732D01*
X122397271Y-26521470D01*
X122433009Y-26492140D01*
X122450913Y-26482570D01*
X122589533Y-26408475D01*
X122646147Y-26391302D01*
X122759373Y-26356955D01*
X122825557Y-26350437D01*
X122891740Y-26343918D01*
X122980260Y-26343918D01*
X123046443Y-26350437D01*
X123046443Y-26350437D01*
G37*
G36*
X120506443Y-26350437D02*
X120572627Y-26356955D01*
X120685853Y-26391302D01*
X120742467Y-26408475D01*
X120881087Y-26482570D01*
X120898991Y-26492140D01*
X120934729Y-26521470D01*
X121036186Y-26604732D01*
X121119448Y-26706189D01*
X121148778Y-26741927D01*
X121148779Y-26741929D01*
X121232443Y-26898451D01*
X121232443Y-26898452D01*
X121283963Y-27068291D01*
X121301359Y-27244918D01*
X121283963Y-27421545D01*
X121249616Y-27534771D01*
X121232443Y-27591385D01*
X121158348Y-27730005D01*
X121148778Y-27747909D01*
X121119448Y-27783647D01*
X121036186Y-27885104D01*
X120934729Y-27968366D01*
X120898991Y-27997696D01*
X120898989Y-27997697D01*
X120742467Y-28081361D01*
X120685853Y-28098534D01*
X120572627Y-28132881D01*
X120506443Y-28139399D01*
X120440260Y-28145918D01*
X120351740Y-28145918D01*
X120285557Y-28139399D01*
X120219373Y-28132881D01*
X120106147Y-28098534D01*
X120049533Y-28081361D01*
X119893011Y-27997697D01*
X119893009Y-27997696D01*
X119857271Y-27968366D01*
X119755814Y-27885104D01*
X119672552Y-27783647D01*
X119643222Y-27747909D01*
X119633652Y-27730005D01*
X119559557Y-27591385D01*
X119542384Y-27534771D01*
X119508037Y-27421545D01*
X119490641Y-27244918D01*
X119508037Y-27068291D01*
X119559557Y-26898452D01*
X119559557Y-26898451D01*
X119643221Y-26741929D01*
X119643222Y-26741927D01*
X119672552Y-26706189D01*
X119755814Y-26604732D01*
X119857271Y-26521470D01*
X119893009Y-26492140D01*
X119910913Y-26482570D01*
X120049533Y-26408475D01*
X120106147Y-26391302D01*
X120219373Y-26356955D01*
X120285557Y-26350437D01*
X120351740Y-26343918D01*
X120440260Y-26343918D01*
X120506443Y-26350437D01*
X120506443Y-26350437D01*
G37*
G36*
X117966443Y-26350437D02*
X118032627Y-26356955D01*
X118145853Y-26391302D01*
X118202467Y-26408475D01*
X118341087Y-26482570D01*
X118358991Y-26492140D01*
X118394729Y-26521470D01*
X118496186Y-26604732D01*
X118579448Y-26706189D01*
X118608778Y-26741927D01*
X118608779Y-26741929D01*
X118692443Y-26898451D01*
X118692443Y-26898452D01*
X118743963Y-27068291D01*
X118761359Y-27244918D01*
X118743963Y-27421545D01*
X118709616Y-27534771D01*
X118692443Y-27591385D01*
X118618348Y-27730005D01*
X118608778Y-27747909D01*
X118579448Y-27783647D01*
X118496186Y-27885104D01*
X118394729Y-27968366D01*
X118358991Y-27997696D01*
X118358989Y-27997697D01*
X118202467Y-28081361D01*
X118145853Y-28098534D01*
X118032627Y-28132881D01*
X117966443Y-28139399D01*
X117900260Y-28145918D01*
X117811740Y-28145918D01*
X117745557Y-28139399D01*
X117679373Y-28132881D01*
X117566147Y-28098534D01*
X117509533Y-28081361D01*
X117353011Y-27997697D01*
X117353009Y-27997696D01*
X117317271Y-27968366D01*
X117215814Y-27885104D01*
X117132552Y-27783647D01*
X117103222Y-27747909D01*
X117093652Y-27730005D01*
X117019557Y-27591385D01*
X117002384Y-27534771D01*
X116968037Y-27421545D01*
X116950641Y-27244918D01*
X116968037Y-27068291D01*
X117019557Y-26898452D01*
X117019557Y-26898451D01*
X117103221Y-26741929D01*
X117103222Y-26741927D01*
X117132552Y-26706189D01*
X117215814Y-26604732D01*
X117317271Y-26521470D01*
X117353009Y-26492140D01*
X117370913Y-26482570D01*
X117509533Y-26408475D01*
X117566147Y-26391302D01*
X117679373Y-26356955D01*
X117745557Y-26350437D01*
X117811740Y-26343918D01*
X117900260Y-26343918D01*
X117966443Y-26350437D01*
X117966443Y-26350437D01*
G37*
G36*
X115426443Y-26350437D02*
X115492627Y-26356955D01*
X115605853Y-26391302D01*
X115662467Y-26408475D01*
X115801087Y-26482570D01*
X115818991Y-26492140D01*
X115854729Y-26521470D01*
X115956186Y-26604732D01*
X116039448Y-26706189D01*
X116068778Y-26741927D01*
X116068779Y-26741929D01*
X116152443Y-26898451D01*
X116152443Y-26898452D01*
X116203963Y-27068291D01*
X116221359Y-27244918D01*
X116203963Y-27421545D01*
X116169616Y-27534771D01*
X116152443Y-27591385D01*
X116078348Y-27730005D01*
X116068778Y-27747909D01*
X116039448Y-27783647D01*
X115956186Y-27885104D01*
X115854729Y-27968366D01*
X115818991Y-27997696D01*
X115818989Y-27997697D01*
X115662467Y-28081361D01*
X115605853Y-28098534D01*
X115492627Y-28132881D01*
X115426443Y-28139399D01*
X115360260Y-28145918D01*
X115271740Y-28145918D01*
X115205557Y-28139399D01*
X115139373Y-28132881D01*
X115026147Y-28098534D01*
X114969533Y-28081361D01*
X114813011Y-27997697D01*
X114813009Y-27997696D01*
X114777271Y-27968366D01*
X114675814Y-27885104D01*
X114592552Y-27783647D01*
X114563222Y-27747909D01*
X114553652Y-27730005D01*
X114479557Y-27591385D01*
X114462384Y-27534771D01*
X114428037Y-27421545D01*
X114410641Y-27244918D01*
X114428037Y-27068291D01*
X114479557Y-26898452D01*
X114479557Y-26898451D01*
X114563221Y-26741929D01*
X114563222Y-26741927D01*
X114592552Y-26706189D01*
X114675814Y-26604732D01*
X114777271Y-26521470D01*
X114813009Y-26492140D01*
X114830913Y-26482570D01*
X114969533Y-26408475D01*
X115026147Y-26391302D01*
X115139373Y-26356955D01*
X115205557Y-26350437D01*
X115271740Y-26343918D01*
X115360260Y-26343918D01*
X115426443Y-26350437D01*
X115426443Y-26350437D01*
G37*
G36*
X143366443Y-26350437D02*
X143432627Y-26356955D01*
X143545853Y-26391302D01*
X143602467Y-26408475D01*
X143741087Y-26482570D01*
X143758991Y-26492140D01*
X143794729Y-26521470D01*
X143896186Y-26604732D01*
X143979448Y-26706189D01*
X144008778Y-26741927D01*
X144008779Y-26741929D01*
X144092443Y-26898451D01*
X144092443Y-26898452D01*
X144143963Y-27068291D01*
X144161359Y-27244918D01*
X144143963Y-27421545D01*
X144109616Y-27534771D01*
X144092443Y-27591385D01*
X144018348Y-27730005D01*
X144008778Y-27747909D01*
X143979448Y-27783647D01*
X143896186Y-27885104D01*
X143794729Y-27968366D01*
X143758991Y-27997696D01*
X143758989Y-27997697D01*
X143602467Y-28081361D01*
X143545853Y-28098534D01*
X143432627Y-28132881D01*
X143366443Y-28139399D01*
X143300260Y-28145918D01*
X143211740Y-28145918D01*
X143145557Y-28139399D01*
X143079373Y-28132881D01*
X142966147Y-28098534D01*
X142909533Y-28081361D01*
X142753011Y-27997697D01*
X142753009Y-27997696D01*
X142717271Y-27968366D01*
X142615814Y-27885104D01*
X142532552Y-27783647D01*
X142503222Y-27747909D01*
X142493652Y-27730005D01*
X142419557Y-27591385D01*
X142402384Y-27534771D01*
X142368037Y-27421545D01*
X142350641Y-27244918D01*
X142368037Y-27068291D01*
X142419557Y-26898452D01*
X142419557Y-26898451D01*
X142503221Y-26741929D01*
X142503222Y-26741927D01*
X142532552Y-26706189D01*
X142615814Y-26604732D01*
X142717271Y-26521470D01*
X142753009Y-26492140D01*
X142770913Y-26482570D01*
X142909533Y-26408475D01*
X142966147Y-26391302D01*
X143079373Y-26356955D01*
X143145557Y-26350437D01*
X143211740Y-26343918D01*
X143300260Y-26343918D01*
X143366443Y-26350437D01*
X143366443Y-26350437D01*
G37*
G36*
X140826443Y-26350437D02*
X140892627Y-26356955D01*
X141005853Y-26391302D01*
X141062467Y-26408475D01*
X141201087Y-26482570D01*
X141218991Y-26492140D01*
X141254729Y-26521470D01*
X141356186Y-26604732D01*
X141439448Y-26706189D01*
X141468778Y-26741927D01*
X141468779Y-26741929D01*
X141552443Y-26898451D01*
X141552443Y-26898452D01*
X141603963Y-27068291D01*
X141621359Y-27244918D01*
X141603963Y-27421545D01*
X141569616Y-27534771D01*
X141552443Y-27591385D01*
X141478348Y-27730005D01*
X141468778Y-27747909D01*
X141439448Y-27783647D01*
X141356186Y-27885104D01*
X141254729Y-27968366D01*
X141218991Y-27997696D01*
X141218989Y-27997697D01*
X141062467Y-28081361D01*
X141005853Y-28098534D01*
X140892627Y-28132881D01*
X140826443Y-28139399D01*
X140760260Y-28145918D01*
X140671740Y-28145918D01*
X140605557Y-28139399D01*
X140539373Y-28132881D01*
X140426147Y-28098534D01*
X140369533Y-28081361D01*
X140213011Y-27997697D01*
X140213009Y-27997696D01*
X140177271Y-27968366D01*
X140075814Y-27885104D01*
X139992552Y-27783647D01*
X139963222Y-27747909D01*
X139953652Y-27730005D01*
X139879557Y-27591385D01*
X139862384Y-27534771D01*
X139828037Y-27421545D01*
X139810641Y-27244918D01*
X139828037Y-27068291D01*
X139879557Y-26898452D01*
X139879557Y-26898451D01*
X139963221Y-26741929D01*
X139963222Y-26741927D01*
X139992552Y-26706189D01*
X140075814Y-26604732D01*
X140177271Y-26521470D01*
X140213009Y-26492140D01*
X140230913Y-26482570D01*
X140369533Y-26408475D01*
X140426147Y-26391302D01*
X140539373Y-26356955D01*
X140605557Y-26350437D01*
X140671740Y-26343918D01*
X140760260Y-26343918D01*
X140826443Y-26350437D01*
X140826443Y-26350437D01*
G37*
G36*
X145906443Y-26350437D02*
X145972627Y-26356955D01*
X146085853Y-26391302D01*
X146142467Y-26408475D01*
X146281087Y-26482570D01*
X146298991Y-26492140D01*
X146334729Y-26521470D01*
X146436186Y-26604732D01*
X146519448Y-26706189D01*
X146548778Y-26741927D01*
X146548779Y-26741929D01*
X146632443Y-26898451D01*
X146632443Y-26898452D01*
X146683963Y-27068291D01*
X146701359Y-27244918D01*
X146683963Y-27421545D01*
X146649616Y-27534771D01*
X146632443Y-27591385D01*
X146558348Y-27730005D01*
X146548778Y-27747909D01*
X146519448Y-27783647D01*
X146436186Y-27885104D01*
X146334729Y-27968366D01*
X146298991Y-27997696D01*
X146298989Y-27997697D01*
X146142467Y-28081361D01*
X146085853Y-28098534D01*
X145972627Y-28132881D01*
X145906443Y-28139399D01*
X145840260Y-28145918D01*
X145751740Y-28145918D01*
X145685557Y-28139399D01*
X145619373Y-28132881D01*
X145506147Y-28098534D01*
X145449533Y-28081361D01*
X145293011Y-27997697D01*
X145293009Y-27997696D01*
X145257271Y-27968366D01*
X145155814Y-27885104D01*
X145072552Y-27783647D01*
X145043222Y-27747909D01*
X145033652Y-27730005D01*
X144959557Y-27591385D01*
X144942384Y-27534771D01*
X144908037Y-27421545D01*
X144890641Y-27244918D01*
X144908037Y-27068291D01*
X144959557Y-26898452D01*
X144959557Y-26898451D01*
X145043221Y-26741929D01*
X145043222Y-26741927D01*
X145072552Y-26706189D01*
X145155814Y-26604732D01*
X145257271Y-26521470D01*
X145293009Y-26492140D01*
X145310913Y-26482570D01*
X145449533Y-26408475D01*
X145506147Y-26391302D01*
X145619373Y-26356955D01*
X145685557Y-26350437D01*
X145751740Y-26343918D01*
X145840260Y-26343918D01*
X145906443Y-26350437D01*
X145906443Y-26350437D01*
G37*
G36*
X148446443Y-26350437D02*
X148512627Y-26356955D01*
X148625853Y-26391302D01*
X148682467Y-26408475D01*
X148821087Y-26482570D01*
X148838991Y-26492140D01*
X148874729Y-26521470D01*
X148976186Y-26604732D01*
X149059448Y-26706189D01*
X149088778Y-26741927D01*
X149088779Y-26741929D01*
X149172443Y-26898451D01*
X149172443Y-26898452D01*
X149223963Y-27068291D01*
X149241359Y-27244918D01*
X149223963Y-27421545D01*
X149189616Y-27534771D01*
X149172443Y-27591385D01*
X149098348Y-27730005D01*
X149088778Y-27747909D01*
X149059448Y-27783647D01*
X148976186Y-27885104D01*
X148874729Y-27968366D01*
X148838991Y-27997696D01*
X148838989Y-27997697D01*
X148682467Y-28081361D01*
X148625853Y-28098534D01*
X148512627Y-28132881D01*
X148446443Y-28139399D01*
X148380260Y-28145918D01*
X148291740Y-28145918D01*
X148225557Y-28139399D01*
X148159373Y-28132881D01*
X148046147Y-28098534D01*
X147989533Y-28081361D01*
X147833011Y-27997697D01*
X147833009Y-27997696D01*
X147797271Y-27968366D01*
X147695814Y-27885104D01*
X147612552Y-27783647D01*
X147583222Y-27747909D01*
X147573652Y-27730005D01*
X147499557Y-27591385D01*
X147482384Y-27534771D01*
X147448037Y-27421545D01*
X147430641Y-27244918D01*
X147448037Y-27068291D01*
X147499557Y-26898452D01*
X147499557Y-26898451D01*
X147583221Y-26741929D01*
X147583222Y-26741927D01*
X147612552Y-26706189D01*
X147695814Y-26604732D01*
X147797271Y-26521470D01*
X147833009Y-26492140D01*
X147850913Y-26482570D01*
X147989533Y-26408475D01*
X148046147Y-26391302D01*
X148159373Y-26356955D01*
X148225557Y-26350437D01*
X148291740Y-26343918D01*
X148380260Y-26343918D01*
X148446443Y-26350437D01*
X148446443Y-26350437D01*
G37*
G36*
X150986443Y-26350437D02*
X151052627Y-26356955D01*
X151165853Y-26391302D01*
X151222467Y-26408475D01*
X151361087Y-26482570D01*
X151378991Y-26492140D01*
X151414729Y-26521470D01*
X151516186Y-26604732D01*
X151599448Y-26706189D01*
X151628778Y-26741927D01*
X151628779Y-26741929D01*
X151712443Y-26898451D01*
X151712443Y-26898452D01*
X151763963Y-27068291D01*
X151781359Y-27244918D01*
X151763963Y-27421545D01*
X151729616Y-27534771D01*
X151712443Y-27591385D01*
X151638348Y-27730005D01*
X151628778Y-27747909D01*
X151599448Y-27783647D01*
X151516186Y-27885104D01*
X151414729Y-27968366D01*
X151378991Y-27997696D01*
X151378989Y-27997697D01*
X151222467Y-28081361D01*
X151165853Y-28098534D01*
X151052627Y-28132881D01*
X150986443Y-28139399D01*
X150920260Y-28145918D01*
X150831740Y-28145918D01*
X150765557Y-28139399D01*
X150699373Y-28132881D01*
X150586147Y-28098534D01*
X150529533Y-28081361D01*
X150373011Y-27997697D01*
X150373009Y-27997696D01*
X150337271Y-27968366D01*
X150235814Y-27885104D01*
X150152552Y-27783647D01*
X150123222Y-27747909D01*
X150113652Y-27730005D01*
X150039557Y-27591385D01*
X150022384Y-27534771D01*
X149988037Y-27421545D01*
X149970641Y-27244918D01*
X149988037Y-27068291D01*
X150039557Y-26898452D01*
X150039557Y-26898451D01*
X150123221Y-26741929D01*
X150123222Y-26741927D01*
X150152552Y-26706189D01*
X150235814Y-26604732D01*
X150337271Y-26521470D01*
X150373009Y-26492140D01*
X150390913Y-26482570D01*
X150529533Y-26408475D01*
X150586147Y-26391302D01*
X150699373Y-26356955D01*
X150765557Y-26350437D01*
X150831740Y-26343918D01*
X150920260Y-26343918D01*
X150986443Y-26350437D01*
X150986443Y-26350437D01*
G37*
G36*
X153526443Y-26350437D02*
X153592627Y-26356955D01*
X153705853Y-26391302D01*
X153762467Y-26408475D01*
X153901087Y-26482570D01*
X153918991Y-26492140D01*
X153954729Y-26521470D01*
X154056186Y-26604732D01*
X154139448Y-26706189D01*
X154168778Y-26741927D01*
X154168779Y-26741929D01*
X154252443Y-26898451D01*
X154252443Y-26898452D01*
X154303963Y-27068291D01*
X154321359Y-27244918D01*
X154303963Y-27421545D01*
X154269616Y-27534771D01*
X154252443Y-27591385D01*
X154178348Y-27730005D01*
X154168778Y-27747909D01*
X154139448Y-27783647D01*
X154056186Y-27885104D01*
X153954729Y-27968366D01*
X153918991Y-27997696D01*
X153918989Y-27997697D01*
X153762467Y-28081361D01*
X153705853Y-28098534D01*
X153592627Y-28132881D01*
X153526443Y-28139399D01*
X153460260Y-28145918D01*
X153371740Y-28145918D01*
X153305557Y-28139399D01*
X153239373Y-28132881D01*
X153126147Y-28098534D01*
X153069533Y-28081361D01*
X152913011Y-27997697D01*
X152913009Y-27997696D01*
X152877271Y-27968366D01*
X152775814Y-27885104D01*
X152692552Y-27783647D01*
X152663222Y-27747909D01*
X152653652Y-27730005D01*
X152579557Y-27591385D01*
X152562384Y-27534771D01*
X152528037Y-27421545D01*
X152510641Y-27244918D01*
X152528037Y-27068291D01*
X152579557Y-26898452D01*
X152579557Y-26898451D01*
X152663221Y-26741929D01*
X152663222Y-26741927D01*
X152692552Y-26706189D01*
X152775814Y-26604732D01*
X152877271Y-26521470D01*
X152913009Y-26492140D01*
X152930913Y-26482570D01*
X153069533Y-26408475D01*
X153126147Y-26391302D01*
X153239373Y-26356955D01*
X153305557Y-26350437D01*
X153371740Y-26343918D01*
X153460260Y-26343918D01*
X153526443Y-26350437D01*
X153526443Y-26350437D01*
G37*
G36*
X156066443Y-26350437D02*
X156132627Y-26356955D01*
X156245853Y-26391302D01*
X156302467Y-26408475D01*
X156441087Y-26482570D01*
X156458991Y-26492140D01*
X156494729Y-26521470D01*
X156596186Y-26604732D01*
X156679448Y-26706189D01*
X156708778Y-26741927D01*
X156708779Y-26741929D01*
X156792443Y-26898451D01*
X156792443Y-26898452D01*
X156843963Y-27068291D01*
X156861359Y-27244918D01*
X156843963Y-27421545D01*
X156809616Y-27534771D01*
X156792443Y-27591385D01*
X156718348Y-27730005D01*
X156708778Y-27747909D01*
X156679448Y-27783647D01*
X156596186Y-27885104D01*
X156494729Y-27968366D01*
X156458991Y-27997696D01*
X156458989Y-27997697D01*
X156302467Y-28081361D01*
X156245853Y-28098534D01*
X156132627Y-28132881D01*
X156066443Y-28139399D01*
X156000260Y-28145918D01*
X155911740Y-28145918D01*
X155845557Y-28139399D01*
X155779373Y-28132881D01*
X155666147Y-28098534D01*
X155609533Y-28081361D01*
X155453011Y-27997697D01*
X155453009Y-27997696D01*
X155417271Y-27968366D01*
X155315814Y-27885104D01*
X155232552Y-27783647D01*
X155203222Y-27747909D01*
X155193652Y-27730005D01*
X155119557Y-27591385D01*
X155102384Y-27534771D01*
X155068037Y-27421545D01*
X155050641Y-27244918D01*
X155068037Y-27068291D01*
X155119557Y-26898452D01*
X155119557Y-26898451D01*
X155203221Y-26741929D01*
X155203222Y-26741927D01*
X155232552Y-26706189D01*
X155315814Y-26604732D01*
X155417271Y-26521470D01*
X155453009Y-26492140D01*
X155470913Y-26482570D01*
X155609533Y-26408475D01*
X155666147Y-26391302D01*
X155779373Y-26356955D01*
X155845557Y-26350437D01*
X155911740Y-26343918D01*
X156000260Y-26343918D01*
X156066443Y-26350437D01*
X156066443Y-26350437D01*
G37*
G36*
X159397000Y-28145918D02*
X157595000Y-28145918D01*
X157595000Y-26343918D01*
X159397000Y-26343918D01*
X159397000Y-28145918D01*
X159397000Y-28145918D01*
G37*
G36*
X128126443Y-26350437D02*
X128192627Y-26356955D01*
X128305853Y-26391302D01*
X128362467Y-26408475D01*
X128501087Y-26482570D01*
X128518991Y-26492140D01*
X128554729Y-26521470D01*
X128656186Y-26604732D01*
X128739448Y-26706189D01*
X128768778Y-26741927D01*
X128768779Y-26741929D01*
X128852443Y-26898451D01*
X128852443Y-26898452D01*
X128903963Y-27068291D01*
X128921359Y-27244918D01*
X128903963Y-27421545D01*
X128869616Y-27534771D01*
X128852443Y-27591385D01*
X128778348Y-27730005D01*
X128768778Y-27747909D01*
X128739448Y-27783647D01*
X128656186Y-27885104D01*
X128554729Y-27968366D01*
X128518991Y-27997696D01*
X128518989Y-27997697D01*
X128362467Y-28081361D01*
X128305853Y-28098534D01*
X128192627Y-28132881D01*
X128126443Y-28139399D01*
X128060260Y-28145918D01*
X127971740Y-28145918D01*
X127905557Y-28139399D01*
X127839373Y-28132881D01*
X127726147Y-28098534D01*
X127669533Y-28081361D01*
X127513011Y-27997697D01*
X127513009Y-27997696D01*
X127477271Y-27968366D01*
X127375814Y-27885104D01*
X127292552Y-27783647D01*
X127263222Y-27747909D01*
X127253652Y-27730005D01*
X127179557Y-27591385D01*
X127162384Y-27534771D01*
X127128037Y-27421545D01*
X127110641Y-27244918D01*
X127128037Y-27068291D01*
X127179557Y-26898452D01*
X127179557Y-26898451D01*
X127263221Y-26741929D01*
X127263222Y-26741927D01*
X127292552Y-26706189D01*
X127375814Y-26604732D01*
X127477271Y-26521470D01*
X127513009Y-26492140D01*
X127530913Y-26482570D01*
X127669533Y-26408475D01*
X127726147Y-26391302D01*
X127839373Y-26356955D01*
X127905557Y-26350437D01*
X127971740Y-26343918D01*
X128060260Y-26343918D01*
X128126443Y-26350437D01*
X128126443Y-26350437D01*
G37*
G36*
X112886443Y-26350437D02*
X112952627Y-26356955D01*
X113065853Y-26391302D01*
X113122467Y-26408475D01*
X113261087Y-26482570D01*
X113278991Y-26492140D01*
X113314729Y-26521470D01*
X113416186Y-26604732D01*
X113499448Y-26706189D01*
X113528778Y-26741927D01*
X113528779Y-26741929D01*
X113612443Y-26898451D01*
X113612443Y-26898452D01*
X113663963Y-27068291D01*
X113681359Y-27244918D01*
X113663963Y-27421545D01*
X113629616Y-27534771D01*
X113612443Y-27591385D01*
X113538348Y-27730005D01*
X113528778Y-27747909D01*
X113499448Y-27783647D01*
X113416186Y-27885104D01*
X113314729Y-27968366D01*
X113278991Y-27997696D01*
X113278989Y-27997697D01*
X113122467Y-28081361D01*
X113065853Y-28098534D01*
X112952627Y-28132881D01*
X112886443Y-28139399D01*
X112820260Y-28145918D01*
X112731740Y-28145918D01*
X112665557Y-28139399D01*
X112599373Y-28132881D01*
X112486147Y-28098534D01*
X112429533Y-28081361D01*
X112273011Y-27997697D01*
X112273009Y-27997696D01*
X112237271Y-27968366D01*
X112135814Y-27885104D01*
X112052552Y-27783647D01*
X112023222Y-27747909D01*
X112013652Y-27730005D01*
X111939557Y-27591385D01*
X111922384Y-27534771D01*
X111888037Y-27421545D01*
X111870641Y-27244918D01*
X111888037Y-27068291D01*
X111939557Y-26898452D01*
X111939557Y-26898451D01*
X112023221Y-26741929D01*
X112023222Y-26741927D01*
X112052552Y-26706189D01*
X112135814Y-26604732D01*
X112237271Y-26521470D01*
X112273009Y-26492140D01*
X112290913Y-26482570D01*
X112429533Y-26408475D01*
X112486147Y-26391302D01*
X112599373Y-26356955D01*
X112665557Y-26350437D01*
X112731740Y-26343918D01*
X112820260Y-26343918D01*
X112886443Y-26350437D01*
X112886443Y-26350437D01*
G37*
G36*
X159905000Y-21221000D02*
X158103000Y-21221000D01*
X158103000Y-19419000D01*
X159905000Y-19419000D01*
X159905000Y-21221000D01*
X159905000Y-21221000D01*
G37*
G36*
X156574443Y-19425519D02*
X156640627Y-19432037D01*
X156753853Y-19466384D01*
X156810467Y-19483557D01*
X156949087Y-19557652D01*
X156966991Y-19567222D01*
X157002729Y-19596552D01*
X157104186Y-19679814D01*
X157187448Y-19781271D01*
X157216778Y-19817009D01*
X157216779Y-19817011D01*
X157300443Y-19973533D01*
X157300443Y-19973534D01*
X157351963Y-20143373D01*
X157369359Y-20320000D01*
X157351963Y-20496627D01*
X157317616Y-20609853D01*
X157300443Y-20666467D01*
X157275168Y-20713752D01*
X157216778Y-20822991D01*
X157210205Y-20831000D01*
X157104186Y-20960186D01*
X157002729Y-21043448D01*
X156966991Y-21072778D01*
X156966989Y-21072779D01*
X156810467Y-21156443D01*
X156753853Y-21173616D01*
X156640627Y-21207963D01*
X156574442Y-21214482D01*
X156508260Y-21221000D01*
X156419740Y-21221000D01*
X156353558Y-21214482D01*
X156287373Y-21207963D01*
X156174147Y-21173616D01*
X156117533Y-21156443D01*
X155961011Y-21072779D01*
X155961009Y-21072778D01*
X155925271Y-21043448D01*
X155823814Y-20960186D01*
X155717795Y-20831000D01*
X155711222Y-20822991D01*
X155652832Y-20713752D01*
X155627557Y-20666467D01*
X155610384Y-20609853D01*
X155576037Y-20496627D01*
X155558641Y-20320000D01*
X155576037Y-20143373D01*
X155627557Y-19973534D01*
X155627557Y-19973533D01*
X155711221Y-19817011D01*
X155711222Y-19817009D01*
X155740552Y-19781271D01*
X155823814Y-19679814D01*
X155925271Y-19596552D01*
X155961009Y-19567222D01*
X155978913Y-19557652D01*
X156117533Y-19483557D01*
X156174147Y-19466384D01*
X156287373Y-19432037D01*
X156353558Y-19425518D01*
X156419740Y-19419000D01*
X156508260Y-19419000D01*
X156574443Y-19425519D01*
X156574443Y-19425519D01*
G37*
G36*
X116217000Y-21221000D02*
X114415000Y-21221000D01*
X114415000Y-19419000D01*
X116217000Y-19419000D01*
X116217000Y-21221000D01*
X116217000Y-21221000D01*
G37*
G36*
X112886443Y-19425519D02*
X112952627Y-19432037D01*
X113065853Y-19466384D01*
X113122467Y-19483557D01*
X113261087Y-19557652D01*
X113278991Y-19567222D01*
X113314729Y-19596552D01*
X113416186Y-19679814D01*
X113499448Y-19781271D01*
X113528778Y-19817009D01*
X113528779Y-19817011D01*
X113612443Y-19973533D01*
X113612443Y-19973534D01*
X113663963Y-20143373D01*
X113681359Y-20320000D01*
X113663963Y-20496627D01*
X113629616Y-20609853D01*
X113612443Y-20666467D01*
X113587168Y-20713752D01*
X113528778Y-20822991D01*
X113522205Y-20831000D01*
X113416186Y-20960186D01*
X113314729Y-21043448D01*
X113278991Y-21072778D01*
X113278989Y-21072779D01*
X113122467Y-21156443D01*
X113065853Y-21173616D01*
X112952627Y-21207963D01*
X112886442Y-21214482D01*
X112820260Y-21221000D01*
X112731740Y-21221000D01*
X112665558Y-21214482D01*
X112599373Y-21207963D01*
X112486147Y-21173616D01*
X112429533Y-21156443D01*
X112273011Y-21072779D01*
X112273009Y-21072778D01*
X112237271Y-21043448D01*
X112135814Y-20960186D01*
X112029795Y-20831000D01*
X112023222Y-20822991D01*
X111964832Y-20713752D01*
X111939557Y-20666467D01*
X111922384Y-20609853D01*
X111888037Y-20496627D01*
X111870641Y-20320000D01*
X111888037Y-20143373D01*
X111939557Y-19973534D01*
X111939557Y-19973533D01*
X112023221Y-19817011D01*
X112023222Y-19817009D01*
X112052552Y-19781271D01*
X112135814Y-19679814D01*
X112237271Y-19596552D01*
X112273009Y-19567222D01*
X112290913Y-19557652D01*
X112429533Y-19483557D01*
X112486147Y-19466384D01*
X112599373Y-19432037D01*
X112665558Y-19425518D01*
X112731740Y-19419000D01*
X112820260Y-19419000D01*
X112886443Y-19425519D01*
X112886443Y-19425519D01*
G37*
G36*
X107569941Y-14846248D02*
X107569943Y-14846249D01*
X107569944Y-14846249D01*
X108125190Y-15076239D01*
X108125191Y-15076240D01*
X108624902Y-15410136D01*
X109049864Y-15835098D01*
X109049866Y-15835101D01*
X109383761Y-16334810D01*
X109599838Y-16856467D01*
X109613752Y-16890059D01*
X109710487Y-17376376D01*
X109731000Y-17479503D01*
X109731000Y-18080497D01*
X109613751Y-18669944D01*
X109383761Y-19225190D01*
X109155223Y-19567221D01*
X109049864Y-19724902D01*
X108624902Y-20149864D01*
X108624899Y-20149866D01*
X108125190Y-20483761D01*
X107569944Y-20713751D01*
X107569943Y-20713751D01*
X107569941Y-20713752D01*
X106980499Y-20831000D01*
X106379501Y-20831000D01*
X105790059Y-20713752D01*
X105790057Y-20713751D01*
X105790056Y-20713751D01*
X105234810Y-20483761D01*
X104735101Y-20149866D01*
X104735098Y-20149864D01*
X104310136Y-19724902D01*
X104204777Y-19567221D01*
X103976239Y-19225190D01*
X103746249Y-18669944D01*
X103629000Y-18080497D01*
X103629000Y-17479503D01*
X103649513Y-17376376D01*
X103746248Y-16890059D01*
X103760162Y-16856467D01*
X103976239Y-16334810D01*
X104310134Y-15835101D01*
X104310136Y-15835098D01*
X104735098Y-15410136D01*
X105234809Y-15076240D01*
X105234810Y-15076239D01*
X105790056Y-14846249D01*
X105790057Y-14846249D01*
X105790059Y-14846248D01*
X106379501Y-14729000D01*
X106980499Y-14729000D01*
X107569941Y-14846248D01*
X107569941Y-14846248D01*
G37*
G36*
X165989941Y-14846248D02*
X165989943Y-14846249D01*
X165989944Y-14846249D01*
X166545190Y-15076239D01*
X166545191Y-15076240D01*
X167044902Y-15410136D01*
X167469864Y-15835098D01*
X167469866Y-15835101D01*
X167803761Y-16334810D01*
X168019838Y-16856467D01*
X168033752Y-16890059D01*
X168130487Y-17376376D01*
X168151000Y-17479503D01*
X168151000Y-18080497D01*
X168033751Y-18669944D01*
X167803761Y-19225190D01*
X167575223Y-19567221D01*
X167469864Y-19724902D01*
X167044902Y-20149864D01*
X167044899Y-20149866D01*
X166545190Y-20483761D01*
X165989944Y-20713751D01*
X165989943Y-20713751D01*
X165989941Y-20713752D01*
X165400499Y-20831000D01*
X164799501Y-20831000D01*
X164210059Y-20713752D01*
X164210057Y-20713751D01*
X164210056Y-20713751D01*
X163654810Y-20483761D01*
X163155101Y-20149866D01*
X163155098Y-20149864D01*
X162730136Y-19724902D01*
X162624777Y-19567221D01*
X162396239Y-19225190D01*
X162166249Y-18669944D01*
X162049000Y-18080497D01*
X162049000Y-17479503D01*
X162069513Y-17376376D01*
X162166248Y-16890059D01*
X162180162Y-16856467D01*
X162396239Y-16334810D01*
X162730134Y-15835101D01*
X162730136Y-15835098D01*
X163155098Y-15410136D01*
X163654809Y-15076240D01*
X163654810Y-15076239D01*
X164210056Y-14846249D01*
X164210057Y-14846249D01*
X164210059Y-14846248D01*
X164799501Y-14729000D01*
X165400499Y-14729000D01*
X165989941Y-14846248D01*
X165989941Y-14846248D01*
G37*
G36*
X120658812Y-15643624D02*
X120822784Y-15711544D01*
X120970354Y-15810147D01*
X121095853Y-15935646D01*
X121194456Y-16083216D01*
X121262376Y-16247188D01*
X121297000Y-16421259D01*
X121297000Y-16598741D01*
X121262376Y-16772812D01*
X121194456Y-16936784D01*
X121095853Y-17084354D01*
X120970354Y-17209853D01*
X120822784Y-17308456D01*
X120658812Y-17376376D01*
X120484741Y-17411000D01*
X120307259Y-17411000D01*
X120133188Y-17376376D01*
X119969216Y-17308456D01*
X119821646Y-17209853D01*
X119696147Y-17084354D01*
X119597544Y-16936784D01*
X119529624Y-16772812D01*
X119495000Y-16598741D01*
X119495000Y-16421259D01*
X119529624Y-16247188D01*
X119597544Y-16083216D01*
X119696147Y-15935646D01*
X119821646Y-15810147D01*
X119969216Y-15711544D01*
X120133188Y-15643624D01*
X120307259Y-15609000D01*
X120484741Y-15609000D01*
X120658812Y-15643624D01*
X120658812Y-15643624D01*
G37*
G36*
X159114442Y-15615518D02*
X159180627Y-15622037D01*
X159293853Y-15656384D01*
X159350467Y-15673557D01*
X159489087Y-15747652D01*
X159506991Y-15757222D01*
X159542729Y-15786552D01*
X159644186Y-15869814D01*
X159727448Y-15971271D01*
X159756778Y-16007009D01*
X159756779Y-16007011D01*
X159840443Y-16163533D01*
X159840443Y-16163534D01*
X159891963Y-16333373D01*
X159909359Y-16510000D01*
X159891963Y-16686627D01*
X159865819Y-16772812D01*
X159840443Y-16856467D01*
X159822489Y-16890056D01*
X159756778Y-17012991D01*
X159727448Y-17048729D01*
X159644186Y-17150186D01*
X159571480Y-17209853D01*
X159506991Y-17262778D01*
X159506989Y-17262779D01*
X159350467Y-17346443D01*
X159293853Y-17363616D01*
X159180627Y-17397963D01*
X159114443Y-17404481D01*
X159048260Y-17411000D01*
X158959740Y-17411000D01*
X158893558Y-17404482D01*
X158827373Y-17397963D01*
X158714147Y-17363616D01*
X158657533Y-17346443D01*
X158501011Y-17262779D01*
X158501009Y-17262778D01*
X158436520Y-17209853D01*
X158363814Y-17150186D01*
X158280552Y-17048729D01*
X158251222Y-17012991D01*
X158185511Y-16890056D01*
X158167557Y-16856467D01*
X158142181Y-16772812D01*
X158116037Y-16686627D01*
X158098641Y-16510000D01*
X158116037Y-16333373D01*
X158167557Y-16163534D01*
X158167557Y-16163533D01*
X158251221Y-16007011D01*
X158251222Y-16007009D01*
X158280552Y-15971271D01*
X158363814Y-15869814D01*
X158465271Y-15786552D01*
X158501009Y-15757222D01*
X158518913Y-15747652D01*
X158657533Y-15673557D01*
X158714147Y-15656384D01*
X158827373Y-15622037D01*
X158893558Y-15615518D01*
X158959740Y-15609000D01*
X159048260Y-15609000D01*
X159114442Y-15615518D01*
X159114442Y-15615518D01*
G37*
G36*
X156574442Y-15615518D02*
X156640627Y-15622037D01*
X156753853Y-15656384D01*
X156810467Y-15673557D01*
X156949087Y-15747652D01*
X156966991Y-15757222D01*
X157002729Y-15786552D01*
X157104186Y-15869814D01*
X157187448Y-15971271D01*
X157216778Y-16007009D01*
X157216779Y-16007011D01*
X157300443Y-16163533D01*
X157300443Y-16163534D01*
X157351963Y-16333373D01*
X157369359Y-16510000D01*
X157351963Y-16686627D01*
X157325819Y-16772812D01*
X157300443Y-16856467D01*
X157282489Y-16890056D01*
X157216778Y-17012991D01*
X157187448Y-17048729D01*
X157104186Y-17150186D01*
X157031480Y-17209853D01*
X156966991Y-17262778D01*
X156966989Y-17262779D01*
X156810467Y-17346443D01*
X156753853Y-17363616D01*
X156640627Y-17397963D01*
X156574443Y-17404481D01*
X156508260Y-17411000D01*
X156419740Y-17411000D01*
X156353558Y-17404482D01*
X156287373Y-17397963D01*
X156174147Y-17363616D01*
X156117533Y-17346443D01*
X155961011Y-17262779D01*
X155961009Y-17262778D01*
X155896520Y-17209853D01*
X155823814Y-17150186D01*
X155740552Y-17048729D01*
X155711222Y-17012991D01*
X155645511Y-16890056D01*
X155627557Y-16856467D01*
X155602181Y-16772812D01*
X155576037Y-16686627D01*
X155558641Y-16510000D01*
X155576037Y-16333373D01*
X155627557Y-16163534D01*
X155627557Y-16163533D01*
X155711221Y-16007011D01*
X155711222Y-16007009D01*
X155740552Y-15971271D01*
X155823814Y-15869814D01*
X155925271Y-15786552D01*
X155961009Y-15757222D01*
X155978913Y-15747652D01*
X156117533Y-15673557D01*
X156174147Y-15656384D01*
X156287373Y-15622037D01*
X156353558Y-15615518D01*
X156419740Y-15609000D01*
X156508260Y-15609000D01*
X156574442Y-15615518D01*
X156574442Y-15615518D01*
G37*
G36*
X112886442Y-15615518D02*
X112952627Y-15622037D01*
X113065853Y-15656384D01*
X113122467Y-15673557D01*
X113261087Y-15747652D01*
X113278991Y-15757222D01*
X113314729Y-15786552D01*
X113416186Y-15869814D01*
X113499448Y-15971271D01*
X113528778Y-16007009D01*
X113528779Y-16007011D01*
X113612443Y-16163533D01*
X113612443Y-16163534D01*
X113663963Y-16333373D01*
X113681359Y-16510000D01*
X113663963Y-16686627D01*
X113637819Y-16772812D01*
X113612443Y-16856467D01*
X113594489Y-16890056D01*
X113528778Y-17012991D01*
X113499448Y-17048729D01*
X113416186Y-17150186D01*
X113343480Y-17209853D01*
X113278991Y-17262778D01*
X113278989Y-17262779D01*
X113122467Y-17346443D01*
X113065853Y-17363616D01*
X112952627Y-17397963D01*
X112886443Y-17404481D01*
X112820260Y-17411000D01*
X112731740Y-17411000D01*
X112665558Y-17404482D01*
X112599373Y-17397963D01*
X112486147Y-17363616D01*
X112429533Y-17346443D01*
X112273011Y-17262779D01*
X112273009Y-17262778D01*
X112208520Y-17209853D01*
X112135814Y-17150186D01*
X112052552Y-17048729D01*
X112023222Y-17012991D01*
X111957511Y-16890056D01*
X111939557Y-16856467D01*
X111914181Y-16772812D01*
X111888037Y-16686627D01*
X111870641Y-16510000D01*
X111888037Y-16333373D01*
X111939557Y-16163534D01*
X111939557Y-16163533D01*
X112023221Y-16007011D01*
X112023222Y-16007009D01*
X112052552Y-15971271D01*
X112135814Y-15869814D01*
X112237271Y-15786552D01*
X112273009Y-15757222D01*
X112290913Y-15747652D01*
X112429533Y-15673557D01*
X112486147Y-15656384D01*
X112599373Y-15622037D01*
X112665558Y-15615518D01*
X112731740Y-15609000D01*
X112820260Y-15609000D01*
X112886442Y-15615518D01*
X112886442Y-15615518D01*
G37*
G36*
X115578812Y-15643624D02*
X115742784Y-15711544D01*
X115890354Y-15810147D01*
X116015853Y-15935646D01*
X116114456Y-16083216D01*
X116182376Y-16247188D01*
X116217000Y-16421259D01*
X116217000Y-16598741D01*
X116182376Y-16772812D01*
X116114456Y-16936784D01*
X116015853Y-17084354D01*
X115890354Y-17209853D01*
X115742784Y-17308456D01*
X115578812Y-17376376D01*
X115404741Y-17411000D01*
X115227259Y-17411000D01*
X115053188Y-17376376D01*
X114889216Y-17308456D01*
X114741646Y-17209853D01*
X114616147Y-17084354D01*
X114517544Y-16936784D01*
X114449624Y-16772812D01*
X114415000Y-16598741D01*
X114415000Y-16421259D01*
X114449624Y-16247188D01*
X114517544Y-16083216D01*
X114616147Y-15935646D01*
X114741646Y-15810147D01*
X114889216Y-15711544D01*
X115053188Y-15643624D01*
X115227259Y-15609000D01*
X115404741Y-15609000D01*
X115578812Y-15643624D01*
X115578812Y-15643624D01*
G37*
G36*
X117966442Y-15615518D02*
X118032627Y-15622037D01*
X118145853Y-15656384D01*
X118202467Y-15673557D01*
X118341087Y-15747652D01*
X118358991Y-15757222D01*
X118394729Y-15786552D01*
X118496186Y-15869814D01*
X118579448Y-15971271D01*
X118608778Y-16007009D01*
X118608779Y-16007011D01*
X118692443Y-16163533D01*
X118692443Y-16163534D01*
X118743963Y-16333373D01*
X118761359Y-16510000D01*
X118743963Y-16686627D01*
X118717819Y-16772812D01*
X118692443Y-16856467D01*
X118674489Y-16890056D01*
X118608778Y-17012991D01*
X118579448Y-17048729D01*
X118496186Y-17150186D01*
X118423480Y-17209853D01*
X118358991Y-17262778D01*
X118358989Y-17262779D01*
X118202467Y-17346443D01*
X118145853Y-17363616D01*
X118032627Y-17397963D01*
X117966443Y-17404481D01*
X117900260Y-17411000D01*
X117811740Y-17411000D01*
X117745558Y-17404482D01*
X117679373Y-17397963D01*
X117566147Y-17363616D01*
X117509533Y-17346443D01*
X117353011Y-17262779D01*
X117353009Y-17262778D01*
X117288520Y-17209853D01*
X117215814Y-17150186D01*
X117132552Y-17048729D01*
X117103222Y-17012991D01*
X117037511Y-16890056D01*
X117019557Y-16856467D01*
X116994181Y-16772812D01*
X116968037Y-16686627D01*
X116950641Y-16510000D01*
X116968037Y-16333373D01*
X117019557Y-16163534D01*
X117019557Y-16163533D01*
X117103221Y-16007011D01*
X117103222Y-16007009D01*
X117132552Y-15971271D01*
X117215814Y-15869814D01*
X117317271Y-15786552D01*
X117353009Y-15757222D01*
X117370913Y-15747652D01*
X117509533Y-15673557D01*
X117566147Y-15656384D01*
X117679373Y-15622037D01*
X117745558Y-15615518D01*
X117811740Y-15609000D01*
X117900260Y-15609000D01*
X117966442Y-15615518D01*
X117966442Y-15615518D01*
G37*
G36*
X123046442Y-15615518D02*
X123112627Y-15622037D01*
X123225853Y-15656384D01*
X123282467Y-15673557D01*
X123421087Y-15747652D01*
X123438991Y-15757222D01*
X123474729Y-15786552D01*
X123576186Y-15869814D01*
X123659448Y-15971271D01*
X123688778Y-16007009D01*
X123688779Y-16007011D01*
X123772443Y-16163533D01*
X123772443Y-16163534D01*
X123823963Y-16333373D01*
X123841359Y-16510000D01*
X123823963Y-16686627D01*
X123797819Y-16772812D01*
X123772443Y-16856467D01*
X123754489Y-16890056D01*
X123688778Y-17012991D01*
X123659448Y-17048729D01*
X123576186Y-17150186D01*
X123503480Y-17209853D01*
X123438991Y-17262778D01*
X123438989Y-17262779D01*
X123282467Y-17346443D01*
X123225853Y-17363616D01*
X123112627Y-17397963D01*
X123046443Y-17404481D01*
X122980260Y-17411000D01*
X122891740Y-17411000D01*
X122825558Y-17404482D01*
X122759373Y-17397963D01*
X122646147Y-17363616D01*
X122589533Y-17346443D01*
X122433011Y-17262779D01*
X122433009Y-17262778D01*
X122368520Y-17209853D01*
X122295814Y-17150186D01*
X122212552Y-17048729D01*
X122183222Y-17012991D01*
X122117511Y-16890056D01*
X122099557Y-16856467D01*
X122074181Y-16772812D01*
X122048037Y-16686627D01*
X122030641Y-16510000D01*
X122048037Y-16333373D01*
X122099557Y-16163534D01*
X122099557Y-16163533D01*
X122183221Y-16007011D01*
X122183222Y-16007009D01*
X122212552Y-15971271D01*
X122295814Y-15869814D01*
X122397271Y-15786552D01*
X122433009Y-15757222D01*
X122450913Y-15747652D01*
X122589533Y-15673557D01*
X122646147Y-15656384D01*
X122759373Y-15622037D01*
X122825558Y-15615518D01*
X122891740Y-15609000D01*
X122980260Y-15609000D01*
X123046442Y-15615518D01*
X123046442Y-15615518D01*
G37*
G36*
X125738812Y-15643624D02*
X125902784Y-15711544D01*
X126050354Y-15810147D01*
X126175853Y-15935646D01*
X126274456Y-16083216D01*
X126342376Y-16247188D01*
X126377000Y-16421259D01*
X126377000Y-16598741D01*
X126342376Y-16772812D01*
X126274456Y-16936784D01*
X126175853Y-17084354D01*
X126050354Y-17209853D01*
X125902784Y-17308456D01*
X125738812Y-17376376D01*
X125564741Y-17411000D01*
X125387259Y-17411000D01*
X125213188Y-17376376D01*
X125049216Y-17308456D01*
X124901646Y-17209853D01*
X124776147Y-17084354D01*
X124677544Y-16936784D01*
X124609624Y-16772812D01*
X124575000Y-16598741D01*
X124575000Y-16421259D01*
X124609624Y-16247188D01*
X124677544Y-16083216D01*
X124776147Y-15935646D01*
X124901646Y-15810147D01*
X125049216Y-15711544D01*
X125213188Y-15643624D01*
X125387259Y-15609000D01*
X125564741Y-15609000D01*
X125738812Y-15643624D01*
X125738812Y-15643624D01*
G37*
G36*
X151494442Y-15615518D02*
X151560627Y-15622037D01*
X151673853Y-15656384D01*
X151730467Y-15673557D01*
X151869087Y-15747652D01*
X151886991Y-15757222D01*
X151922729Y-15786552D01*
X152024186Y-15869814D01*
X152107448Y-15971271D01*
X152136778Y-16007009D01*
X152136779Y-16007011D01*
X152220443Y-16163533D01*
X152220443Y-16163534D01*
X152271963Y-16333373D01*
X152289359Y-16510000D01*
X152271963Y-16686627D01*
X152245819Y-16772812D01*
X152220443Y-16856467D01*
X152202489Y-16890056D01*
X152136778Y-17012991D01*
X152107448Y-17048729D01*
X152024186Y-17150186D01*
X151951480Y-17209853D01*
X151886991Y-17262778D01*
X151886989Y-17262779D01*
X151730467Y-17346443D01*
X151673853Y-17363616D01*
X151560627Y-17397963D01*
X151494443Y-17404481D01*
X151428260Y-17411000D01*
X151339740Y-17411000D01*
X151273558Y-17404482D01*
X151207373Y-17397963D01*
X151094147Y-17363616D01*
X151037533Y-17346443D01*
X150881011Y-17262779D01*
X150881009Y-17262778D01*
X150816520Y-17209853D01*
X150743814Y-17150186D01*
X150660552Y-17048729D01*
X150631222Y-17012991D01*
X150565511Y-16890056D01*
X150547557Y-16856467D01*
X150522181Y-16772812D01*
X150496037Y-16686627D01*
X150478641Y-16510000D01*
X150496037Y-16333373D01*
X150547557Y-16163534D01*
X150547557Y-16163533D01*
X150631221Y-16007011D01*
X150631222Y-16007009D01*
X150660552Y-15971271D01*
X150743814Y-15869814D01*
X150845271Y-15786552D01*
X150881009Y-15757222D01*
X150898913Y-15747652D01*
X151037533Y-15673557D01*
X151094147Y-15656384D01*
X151207373Y-15622037D01*
X151273558Y-15615518D01*
X151339740Y-15609000D01*
X151428260Y-15609000D01*
X151494442Y-15615518D01*
X151494442Y-15615518D01*
G37*
G36*
X147205000Y-17411000D02*
X145403000Y-17411000D01*
X145403000Y-15609000D01*
X147205000Y-15609000D01*
X147205000Y-17411000D01*
X147205000Y-17411000D01*
G37*
G36*
X148954442Y-15615518D02*
X149020627Y-15622037D01*
X149133853Y-15656384D01*
X149190467Y-15673557D01*
X149329087Y-15747652D01*
X149346991Y-15757222D01*
X149382729Y-15786552D01*
X149484186Y-15869814D01*
X149567448Y-15971271D01*
X149596778Y-16007009D01*
X149596779Y-16007011D01*
X149680443Y-16163533D01*
X149680443Y-16163534D01*
X149731963Y-16333373D01*
X149749359Y-16510000D01*
X149731963Y-16686627D01*
X149705819Y-16772812D01*
X149680443Y-16856467D01*
X149662489Y-16890056D01*
X149596778Y-17012991D01*
X149567448Y-17048729D01*
X149484186Y-17150186D01*
X149411480Y-17209853D01*
X149346991Y-17262778D01*
X149346989Y-17262779D01*
X149190467Y-17346443D01*
X149133853Y-17363616D01*
X149020627Y-17397963D01*
X148954443Y-17404481D01*
X148888260Y-17411000D01*
X148799740Y-17411000D01*
X148733558Y-17404482D01*
X148667373Y-17397963D01*
X148554147Y-17363616D01*
X148497533Y-17346443D01*
X148341011Y-17262779D01*
X148341009Y-17262778D01*
X148276520Y-17209853D01*
X148203814Y-17150186D01*
X148120552Y-17048729D01*
X148091222Y-17012991D01*
X148025511Y-16890056D01*
X148007557Y-16856467D01*
X147982181Y-16772812D01*
X147956037Y-16686627D01*
X147938641Y-16510000D01*
X147956037Y-16333373D01*
X148007557Y-16163534D01*
X148007557Y-16163533D01*
X148091221Y-16007011D01*
X148091222Y-16007009D01*
X148120552Y-15971271D01*
X148203814Y-15869814D01*
X148305271Y-15786552D01*
X148341009Y-15757222D01*
X148358913Y-15747652D01*
X148497533Y-15673557D01*
X148554147Y-15656384D01*
X148667373Y-15622037D01*
X148733558Y-15615518D01*
X148799740Y-15609000D01*
X148888260Y-15609000D01*
X148954442Y-15615518D01*
X148954442Y-15615518D01*
G37*
G36*
X154034442Y-15615518D02*
X154100627Y-15622037D01*
X154213853Y-15656384D01*
X154270467Y-15673557D01*
X154409087Y-15747652D01*
X154426991Y-15757222D01*
X154462729Y-15786552D01*
X154564186Y-15869814D01*
X154647448Y-15971271D01*
X154676778Y-16007009D01*
X154676779Y-16007011D01*
X154760443Y-16163533D01*
X154760443Y-16163534D01*
X154811963Y-16333373D01*
X154829359Y-16510000D01*
X154811963Y-16686627D01*
X154785819Y-16772812D01*
X154760443Y-16856467D01*
X154742489Y-16890056D01*
X154676778Y-17012991D01*
X154647448Y-17048729D01*
X154564186Y-17150186D01*
X154491480Y-17209853D01*
X154426991Y-17262778D01*
X154426989Y-17262779D01*
X154270467Y-17346443D01*
X154213853Y-17363616D01*
X154100627Y-17397963D01*
X154034443Y-17404481D01*
X153968260Y-17411000D01*
X153879740Y-17411000D01*
X153813558Y-17404482D01*
X153747373Y-17397963D01*
X153634147Y-17363616D01*
X153577533Y-17346443D01*
X153421011Y-17262779D01*
X153421009Y-17262778D01*
X153356520Y-17209853D01*
X153283814Y-17150186D01*
X153200552Y-17048729D01*
X153171222Y-17012991D01*
X153105511Y-16890056D01*
X153087557Y-16856467D01*
X153062181Y-16772812D01*
X153036037Y-16686627D01*
X153018641Y-16510000D01*
X153036037Y-16333373D01*
X153087557Y-16163534D01*
X153087557Y-16163533D01*
X153171221Y-16007011D01*
X153171222Y-16007009D01*
X153200552Y-15971271D01*
X153283814Y-15869814D01*
X153385271Y-15786552D01*
X153421009Y-15757222D01*
X153438913Y-15747652D01*
X153577533Y-15673557D01*
X153634147Y-15656384D01*
X153747373Y-15622037D01*
X153813558Y-15615518D01*
X153879740Y-15609000D01*
X153968260Y-15609000D01*
X154034442Y-15615518D01*
X154034442Y-15615518D01*
G37*
M02*
