G04 #@! TF.GenerationSoftware,KiCad,Pcbnew,(5.0.1)-3*
G04 #@! TF.CreationDate,2018-10-23T00:57:20+09:00*
G04 #@! TF.ProjectId,badge,62616467652E6B696361645F70636200,rev?*
G04 #@! TF.SameCoordinates,Original*
G04 #@! TF.FileFunction,Soldermask,Bot*
G04 #@! TF.FilePolarity,Negative*
%FSLAX46Y46*%
G04 Gerber Fmt 4.6, Leading zero omitted, Abs format (unit mm)*
G04 Created by KiCad (PCBNEW (5.0.1)-3) date 2018-10-23 오전 12:57:20*
%MOMM*%
%LPD*%
G01*
G04 APERTURE LIST*
%ADD10C,0.100000*%
G04 APERTURE END LIST*
D10*
G36*
X115691000Y-51631000D02*
X114029000Y-51631000D01*
X114029000Y-49969000D01*
X115691000Y-49969000D01*
X115691000Y-51631000D01*
X115691000Y-51631000D01*
G37*
G36*
X135422391Y-50000934D02*
X135422393Y-50000935D01*
X135422394Y-50000935D01*
X135573626Y-50063577D01*
X135573627Y-50063578D01*
X135709735Y-50154522D01*
X135825478Y-50270265D01*
X135825480Y-50270268D01*
X135916423Y-50406374D01*
X135979065Y-50557606D01*
X136011000Y-50718154D01*
X136011000Y-50881846D01*
X135979065Y-51042394D01*
X135916423Y-51193626D01*
X135916422Y-51193627D01*
X135825478Y-51329735D01*
X135709735Y-51445478D01*
X135709732Y-51445480D01*
X135573626Y-51536423D01*
X135422394Y-51599065D01*
X135422393Y-51599065D01*
X135422391Y-51599066D01*
X135261848Y-51631000D01*
X135098152Y-51631000D01*
X134937609Y-51599066D01*
X134937607Y-51599065D01*
X134937606Y-51599065D01*
X134786374Y-51536423D01*
X134650268Y-51445480D01*
X134650265Y-51445478D01*
X134534522Y-51329735D01*
X134443578Y-51193627D01*
X134443577Y-51193626D01*
X134380935Y-51042394D01*
X134349000Y-50881846D01*
X134349000Y-50718154D01*
X134380935Y-50557606D01*
X134443577Y-50406374D01*
X134534520Y-50270268D01*
X134534522Y-50270265D01*
X134650265Y-50154522D01*
X134786373Y-50063578D01*
X134786374Y-50063577D01*
X134937606Y-50000935D01*
X134937607Y-50000935D01*
X134937609Y-50000934D01*
X135098152Y-49969000D01*
X135261848Y-49969000D01*
X135422391Y-50000934D01*
X135422391Y-50000934D01*
G37*
G36*
X155742391Y-50000934D02*
X155742393Y-50000935D01*
X155742394Y-50000935D01*
X155893626Y-50063577D01*
X155893627Y-50063578D01*
X156029735Y-50154522D01*
X156145478Y-50270265D01*
X156145480Y-50270268D01*
X156236423Y-50406374D01*
X156299065Y-50557606D01*
X156331000Y-50718154D01*
X156331000Y-50881846D01*
X156299065Y-51042394D01*
X156236423Y-51193626D01*
X156236422Y-51193627D01*
X156145478Y-51329735D01*
X156029735Y-51445478D01*
X156029732Y-51445480D01*
X155893626Y-51536423D01*
X155742394Y-51599065D01*
X155742393Y-51599065D01*
X155742391Y-51599066D01*
X155581848Y-51631000D01*
X155418152Y-51631000D01*
X155257609Y-51599066D01*
X155257607Y-51599065D01*
X155257606Y-51599065D01*
X155106374Y-51536423D01*
X154970268Y-51445480D01*
X154970265Y-51445478D01*
X154854522Y-51329735D01*
X154763578Y-51193627D01*
X154763577Y-51193626D01*
X154700935Y-51042394D01*
X154669000Y-50881846D01*
X154669000Y-50718154D01*
X154700935Y-50557606D01*
X154763577Y-50406374D01*
X154854520Y-50270268D01*
X154854522Y-50270265D01*
X154970265Y-50154522D01*
X155106373Y-50063578D01*
X155106374Y-50063577D01*
X155257606Y-50000935D01*
X155257607Y-50000935D01*
X155257609Y-50000934D01*
X155418152Y-49969000D01*
X155581848Y-49969000D01*
X155742391Y-50000934D01*
X155742391Y-50000934D01*
G37*
G36*
X153202391Y-50000934D02*
X153202393Y-50000935D01*
X153202394Y-50000935D01*
X153353626Y-50063577D01*
X153353627Y-50063578D01*
X153489735Y-50154522D01*
X153605478Y-50270265D01*
X153605480Y-50270268D01*
X153696423Y-50406374D01*
X153759065Y-50557606D01*
X153791000Y-50718154D01*
X153791000Y-50881846D01*
X153759065Y-51042394D01*
X153696423Y-51193626D01*
X153696422Y-51193627D01*
X153605478Y-51329735D01*
X153489735Y-51445478D01*
X153489732Y-51445480D01*
X153353626Y-51536423D01*
X153202394Y-51599065D01*
X153202393Y-51599065D01*
X153202391Y-51599066D01*
X153041848Y-51631000D01*
X152878152Y-51631000D01*
X152717609Y-51599066D01*
X152717607Y-51599065D01*
X152717606Y-51599065D01*
X152566374Y-51536423D01*
X152430268Y-51445480D01*
X152430265Y-51445478D01*
X152314522Y-51329735D01*
X152223578Y-51193627D01*
X152223577Y-51193626D01*
X152160935Y-51042394D01*
X152129000Y-50881846D01*
X152129000Y-50718154D01*
X152160935Y-50557606D01*
X152223577Y-50406374D01*
X152314520Y-50270268D01*
X152314522Y-50270265D01*
X152430265Y-50154522D01*
X152566373Y-50063578D01*
X152566374Y-50063577D01*
X152717606Y-50000935D01*
X152717607Y-50000935D01*
X152717609Y-50000934D01*
X152878152Y-49969000D01*
X153041848Y-49969000D01*
X153202391Y-50000934D01*
X153202391Y-50000934D01*
G37*
G36*
X150662391Y-50000934D02*
X150662393Y-50000935D01*
X150662394Y-50000935D01*
X150813626Y-50063577D01*
X150813627Y-50063578D01*
X150949735Y-50154522D01*
X151065478Y-50270265D01*
X151065480Y-50270268D01*
X151156423Y-50406374D01*
X151219065Y-50557606D01*
X151251000Y-50718154D01*
X151251000Y-50881846D01*
X151219065Y-51042394D01*
X151156423Y-51193626D01*
X151156422Y-51193627D01*
X151065478Y-51329735D01*
X150949735Y-51445478D01*
X150949732Y-51445480D01*
X150813626Y-51536423D01*
X150662394Y-51599065D01*
X150662393Y-51599065D01*
X150662391Y-51599066D01*
X150501848Y-51631000D01*
X150338152Y-51631000D01*
X150177609Y-51599066D01*
X150177607Y-51599065D01*
X150177606Y-51599065D01*
X150026374Y-51536423D01*
X149890268Y-51445480D01*
X149890265Y-51445478D01*
X149774522Y-51329735D01*
X149683578Y-51193627D01*
X149683577Y-51193626D01*
X149620935Y-51042394D01*
X149589000Y-50881846D01*
X149589000Y-50718154D01*
X149620935Y-50557606D01*
X149683577Y-50406374D01*
X149774520Y-50270268D01*
X149774522Y-50270265D01*
X149890265Y-50154522D01*
X150026373Y-50063578D01*
X150026374Y-50063577D01*
X150177606Y-50000935D01*
X150177607Y-50000935D01*
X150177609Y-50000934D01*
X150338152Y-49969000D01*
X150501848Y-49969000D01*
X150662391Y-50000934D01*
X150662391Y-50000934D01*
G37*
G36*
X148122391Y-50000934D02*
X148122393Y-50000935D01*
X148122394Y-50000935D01*
X148273626Y-50063577D01*
X148273627Y-50063578D01*
X148409735Y-50154522D01*
X148525478Y-50270265D01*
X148525480Y-50270268D01*
X148616423Y-50406374D01*
X148679065Y-50557606D01*
X148711000Y-50718154D01*
X148711000Y-50881846D01*
X148679065Y-51042394D01*
X148616423Y-51193626D01*
X148616422Y-51193627D01*
X148525478Y-51329735D01*
X148409735Y-51445478D01*
X148409732Y-51445480D01*
X148273626Y-51536423D01*
X148122394Y-51599065D01*
X148122393Y-51599065D01*
X148122391Y-51599066D01*
X147961848Y-51631000D01*
X147798152Y-51631000D01*
X147637609Y-51599066D01*
X147637607Y-51599065D01*
X147637606Y-51599065D01*
X147486374Y-51536423D01*
X147350268Y-51445480D01*
X147350265Y-51445478D01*
X147234522Y-51329735D01*
X147143578Y-51193627D01*
X147143577Y-51193626D01*
X147080935Y-51042394D01*
X147049000Y-50881846D01*
X147049000Y-50718154D01*
X147080935Y-50557606D01*
X147143577Y-50406374D01*
X147234520Y-50270268D01*
X147234522Y-50270265D01*
X147350265Y-50154522D01*
X147486373Y-50063578D01*
X147486374Y-50063577D01*
X147637606Y-50000935D01*
X147637607Y-50000935D01*
X147637609Y-50000934D01*
X147798152Y-49969000D01*
X147961848Y-49969000D01*
X148122391Y-50000934D01*
X148122391Y-50000934D01*
G37*
G36*
X145582391Y-50000934D02*
X145582393Y-50000935D01*
X145582394Y-50000935D01*
X145733626Y-50063577D01*
X145733627Y-50063578D01*
X145869735Y-50154522D01*
X145985478Y-50270265D01*
X145985480Y-50270268D01*
X146076423Y-50406374D01*
X146139065Y-50557606D01*
X146171000Y-50718154D01*
X146171000Y-50881846D01*
X146139065Y-51042394D01*
X146076423Y-51193626D01*
X146076422Y-51193627D01*
X145985478Y-51329735D01*
X145869735Y-51445478D01*
X145869732Y-51445480D01*
X145733626Y-51536423D01*
X145582394Y-51599065D01*
X145582393Y-51599065D01*
X145582391Y-51599066D01*
X145421848Y-51631000D01*
X145258152Y-51631000D01*
X145097609Y-51599066D01*
X145097607Y-51599065D01*
X145097606Y-51599065D01*
X144946374Y-51536423D01*
X144810268Y-51445480D01*
X144810265Y-51445478D01*
X144694522Y-51329735D01*
X144603578Y-51193627D01*
X144603577Y-51193626D01*
X144540935Y-51042394D01*
X144509000Y-50881846D01*
X144509000Y-50718154D01*
X144540935Y-50557606D01*
X144603577Y-50406374D01*
X144694520Y-50270268D01*
X144694522Y-50270265D01*
X144810265Y-50154522D01*
X144946373Y-50063578D01*
X144946374Y-50063577D01*
X145097606Y-50000935D01*
X145097607Y-50000935D01*
X145097609Y-50000934D01*
X145258152Y-49969000D01*
X145421848Y-49969000D01*
X145582391Y-50000934D01*
X145582391Y-50000934D01*
G37*
G36*
X143042391Y-50000934D02*
X143042393Y-50000935D01*
X143042394Y-50000935D01*
X143193626Y-50063577D01*
X143193627Y-50063578D01*
X143329735Y-50154522D01*
X143445478Y-50270265D01*
X143445480Y-50270268D01*
X143536423Y-50406374D01*
X143599065Y-50557606D01*
X143631000Y-50718154D01*
X143631000Y-50881846D01*
X143599065Y-51042394D01*
X143536423Y-51193626D01*
X143536422Y-51193627D01*
X143445478Y-51329735D01*
X143329735Y-51445478D01*
X143329732Y-51445480D01*
X143193626Y-51536423D01*
X143042394Y-51599065D01*
X143042393Y-51599065D01*
X143042391Y-51599066D01*
X142881848Y-51631000D01*
X142718152Y-51631000D01*
X142557609Y-51599066D01*
X142557607Y-51599065D01*
X142557606Y-51599065D01*
X142406374Y-51536423D01*
X142270268Y-51445480D01*
X142270265Y-51445478D01*
X142154522Y-51329735D01*
X142063578Y-51193627D01*
X142063577Y-51193626D01*
X142000935Y-51042394D01*
X141969000Y-50881846D01*
X141969000Y-50718154D01*
X142000935Y-50557606D01*
X142063577Y-50406374D01*
X142154520Y-50270268D01*
X142154522Y-50270265D01*
X142270265Y-50154522D01*
X142406373Y-50063578D01*
X142406374Y-50063577D01*
X142557606Y-50000935D01*
X142557607Y-50000935D01*
X142557609Y-50000934D01*
X142718152Y-49969000D01*
X142881848Y-49969000D01*
X143042391Y-50000934D01*
X143042391Y-50000934D01*
G37*
G36*
X140502391Y-50000934D02*
X140502393Y-50000935D01*
X140502394Y-50000935D01*
X140653626Y-50063577D01*
X140653627Y-50063578D01*
X140789735Y-50154522D01*
X140905478Y-50270265D01*
X140905480Y-50270268D01*
X140996423Y-50406374D01*
X141059065Y-50557606D01*
X141091000Y-50718154D01*
X141091000Y-50881846D01*
X141059065Y-51042394D01*
X140996423Y-51193626D01*
X140996422Y-51193627D01*
X140905478Y-51329735D01*
X140789735Y-51445478D01*
X140789732Y-51445480D01*
X140653626Y-51536423D01*
X140502394Y-51599065D01*
X140502393Y-51599065D01*
X140502391Y-51599066D01*
X140341848Y-51631000D01*
X140178152Y-51631000D01*
X140017609Y-51599066D01*
X140017607Y-51599065D01*
X140017606Y-51599065D01*
X139866374Y-51536423D01*
X139730268Y-51445480D01*
X139730265Y-51445478D01*
X139614522Y-51329735D01*
X139523578Y-51193627D01*
X139523577Y-51193626D01*
X139460935Y-51042394D01*
X139429000Y-50881846D01*
X139429000Y-50718154D01*
X139460935Y-50557606D01*
X139523577Y-50406374D01*
X139614520Y-50270268D01*
X139614522Y-50270265D01*
X139730265Y-50154522D01*
X139866373Y-50063578D01*
X139866374Y-50063577D01*
X140017606Y-50000935D01*
X140017607Y-50000935D01*
X140017609Y-50000934D01*
X140178152Y-49969000D01*
X140341848Y-49969000D01*
X140502391Y-50000934D01*
X140502391Y-50000934D01*
G37*
G36*
X137962391Y-50000934D02*
X137962393Y-50000935D01*
X137962394Y-50000935D01*
X138113626Y-50063577D01*
X138113627Y-50063578D01*
X138249735Y-50154522D01*
X138365478Y-50270265D01*
X138365480Y-50270268D01*
X138456423Y-50406374D01*
X138519065Y-50557606D01*
X138551000Y-50718154D01*
X138551000Y-50881846D01*
X138519065Y-51042394D01*
X138456423Y-51193626D01*
X138456422Y-51193627D01*
X138365478Y-51329735D01*
X138249735Y-51445478D01*
X138249732Y-51445480D01*
X138113626Y-51536423D01*
X137962394Y-51599065D01*
X137962393Y-51599065D01*
X137962391Y-51599066D01*
X137801848Y-51631000D01*
X137638152Y-51631000D01*
X137477609Y-51599066D01*
X137477607Y-51599065D01*
X137477606Y-51599065D01*
X137326374Y-51536423D01*
X137190268Y-51445480D01*
X137190265Y-51445478D01*
X137074522Y-51329735D01*
X136983578Y-51193627D01*
X136983577Y-51193626D01*
X136920935Y-51042394D01*
X136889000Y-50881846D01*
X136889000Y-50718154D01*
X136920935Y-50557606D01*
X136983577Y-50406374D01*
X137074520Y-50270268D01*
X137074522Y-50270265D01*
X137190265Y-50154522D01*
X137326373Y-50063578D01*
X137326374Y-50063577D01*
X137477606Y-50000935D01*
X137477607Y-50000935D01*
X137477609Y-50000934D01*
X137638152Y-49969000D01*
X137801848Y-49969000D01*
X137962391Y-50000934D01*
X137962391Y-50000934D01*
G37*
G36*
X132882391Y-50000934D02*
X132882393Y-50000935D01*
X132882394Y-50000935D01*
X133033626Y-50063577D01*
X133033627Y-50063578D01*
X133169735Y-50154522D01*
X133285478Y-50270265D01*
X133285480Y-50270268D01*
X133376423Y-50406374D01*
X133439065Y-50557606D01*
X133471000Y-50718154D01*
X133471000Y-50881846D01*
X133439065Y-51042394D01*
X133376423Y-51193626D01*
X133376422Y-51193627D01*
X133285478Y-51329735D01*
X133169735Y-51445478D01*
X133169732Y-51445480D01*
X133033626Y-51536423D01*
X132882394Y-51599065D01*
X132882393Y-51599065D01*
X132882391Y-51599066D01*
X132721848Y-51631000D01*
X132558152Y-51631000D01*
X132397609Y-51599066D01*
X132397607Y-51599065D01*
X132397606Y-51599065D01*
X132246374Y-51536423D01*
X132110268Y-51445480D01*
X132110265Y-51445478D01*
X131994522Y-51329735D01*
X131903578Y-51193627D01*
X131903577Y-51193626D01*
X131840935Y-51042394D01*
X131809000Y-50881846D01*
X131809000Y-50718154D01*
X131840935Y-50557606D01*
X131903577Y-50406374D01*
X131994520Y-50270268D01*
X131994522Y-50270265D01*
X132110265Y-50154522D01*
X132246373Y-50063578D01*
X132246374Y-50063577D01*
X132397606Y-50000935D01*
X132397607Y-50000935D01*
X132397609Y-50000934D01*
X132558152Y-49969000D01*
X132721848Y-49969000D01*
X132882391Y-50000934D01*
X132882391Y-50000934D01*
G37*
G36*
X130342391Y-50000934D02*
X130342393Y-50000935D01*
X130342394Y-50000935D01*
X130493626Y-50063577D01*
X130493627Y-50063578D01*
X130629735Y-50154522D01*
X130745478Y-50270265D01*
X130745480Y-50270268D01*
X130836423Y-50406374D01*
X130899065Y-50557606D01*
X130931000Y-50718154D01*
X130931000Y-50881846D01*
X130899065Y-51042394D01*
X130836423Y-51193626D01*
X130836422Y-51193627D01*
X130745478Y-51329735D01*
X130629735Y-51445478D01*
X130629732Y-51445480D01*
X130493626Y-51536423D01*
X130342394Y-51599065D01*
X130342393Y-51599065D01*
X130342391Y-51599066D01*
X130181848Y-51631000D01*
X130018152Y-51631000D01*
X129857609Y-51599066D01*
X129857607Y-51599065D01*
X129857606Y-51599065D01*
X129706374Y-51536423D01*
X129570268Y-51445480D01*
X129570265Y-51445478D01*
X129454522Y-51329735D01*
X129363578Y-51193627D01*
X129363577Y-51193626D01*
X129300935Y-51042394D01*
X129269000Y-50881846D01*
X129269000Y-50718154D01*
X129300935Y-50557606D01*
X129363577Y-50406374D01*
X129454520Y-50270268D01*
X129454522Y-50270265D01*
X129570265Y-50154522D01*
X129706373Y-50063578D01*
X129706374Y-50063577D01*
X129857606Y-50000935D01*
X129857607Y-50000935D01*
X129857609Y-50000934D01*
X130018152Y-49969000D01*
X130181848Y-49969000D01*
X130342391Y-50000934D01*
X130342391Y-50000934D01*
G37*
G36*
X127802391Y-50000934D02*
X127802393Y-50000935D01*
X127802394Y-50000935D01*
X127953626Y-50063577D01*
X127953627Y-50063578D01*
X128089735Y-50154522D01*
X128205478Y-50270265D01*
X128205480Y-50270268D01*
X128296423Y-50406374D01*
X128359065Y-50557606D01*
X128391000Y-50718154D01*
X128391000Y-50881846D01*
X128359065Y-51042394D01*
X128296423Y-51193626D01*
X128296422Y-51193627D01*
X128205478Y-51329735D01*
X128089735Y-51445478D01*
X128089732Y-51445480D01*
X127953626Y-51536423D01*
X127802394Y-51599065D01*
X127802393Y-51599065D01*
X127802391Y-51599066D01*
X127641848Y-51631000D01*
X127478152Y-51631000D01*
X127317609Y-51599066D01*
X127317607Y-51599065D01*
X127317606Y-51599065D01*
X127166374Y-51536423D01*
X127030268Y-51445480D01*
X127030265Y-51445478D01*
X126914522Y-51329735D01*
X126823578Y-51193627D01*
X126823577Y-51193626D01*
X126760935Y-51042394D01*
X126729000Y-50881846D01*
X126729000Y-50718154D01*
X126760935Y-50557606D01*
X126823577Y-50406374D01*
X126914520Y-50270268D01*
X126914522Y-50270265D01*
X127030265Y-50154522D01*
X127166373Y-50063578D01*
X127166374Y-50063577D01*
X127317606Y-50000935D01*
X127317607Y-50000935D01*
X127317609Y-50000934D01*
X127478152Y-49969000D01*
X127641848Y-49969000D01*
X127802391Y-50000934D01*
X127802391Y-50000934D01*
G37*
G36*
X125262391Y-50000934D02*
X125262393Y-50000935D01*
X125262394Y-50000935D01*
X125413626Y-50063577D01*
X125413627Y-50063578D01*
X125549735Y-50154522D01*
X125665478Y-50270265D01*
X125665480Y-50270268D01*
X125756423Y-50406374D01*
X125819065Y-50557606D01*
X125851000Y-50718154D01*
X125851000Y-50881846D01*
X125819065Y-51042394D01*
X125756423Y-51193626D01*
X125756422Y-51193627D01*
X125665478Y-51329735D01*
X125549735Y-51445478D01*
X125549732Y-51445480D01*
X125413626Y-51536423D01*
X125262394Y-51599065D01*
X125262393Y-51599065D01*
X125262391Y-51599066D01*
X125101848Y-51631000D01*
X124938152Y-51631000D01*
X124777609Y-51599066D01*
X124777607Y-51599065D01*
X124777606Y-51599065D01*
X124626374Y-51536423D01*
X124490268Y-51445480D01*
X124490265Y-51445478D01*
X124374522Y-51329735D01*
X124283578Y-51193627D01*
X124283577Y-51193626D01*
X124220935Y-51042394D01*
X124189000Y-50881846D01*
X124189000Y-50718154D01*
X124220935Y-50557606D01*
X124283577Y-50406374D01*
X124374520Y-50270268D01*
X124374522Y-50270265D01*
X124490265Y-50154522D01*
X124626373Y-50063578D01*
X124626374Y-50063577D01*
X124777606Y-50000935D01*
X124777607Y-50000935D01*
X124777609Y-50000934D01*
X124938152Y-49969000D01*
X125101848Y-49969000D01*
X125262391Y-50000934D01*
X125262391Y-50000934D01*
G37*
G36*
X122722391Y-50000934D02*
X122722393Y-50000935D01*
X122722394Y-50000935D01*
X122873626Y-50063577D01*
X122873627Y-50063578D01*
X123009735Y-50154522D01*
X123125478Y-50270265D01*
X123125480Y-50270268D01*
X123216423Y-50406374D01*
X123279065Y-50557606D01*
X123311000Y-50718154D01*
X123311000Y-50881846D01*
X123279065Y-51042394D01*
X123216423Y-51193626D01*
X123216422Y-51193627D01*
X123125478Y-51329735D01*
X123009735Y-51445478D01*
X123009732Y-51445480D01*
X122873626Y-51536423D01*
X122722394Y-51599065D01*
X122722393Y-51599065D01*
X122722391Y-51599066D01*
X122561848Y-51631000D01*
X122398152Y-51631000D01*
X122237609Y-51599066D01*
X122237607Y-51599065D01*
X122237606Y-51599065D01*
X122086374Y-51536423D01*
X121950268Y-51445480D01*
X121950265Y-51445478D01*
X121834522Y-51329735D01*
X121743578Y-51193627D01*
X121743577Y-51193626D01*
X121680935Y-51042394D01*
X121649000Y-50881846D01*
X121649000Y-50718154D01*
X121680935Y-50557606D01*
X121743577Y-50406374D01*
X121834520Y-50270268D01*
X121834522Y-50270265D01*
X121950265Y-50154522D01*
X122086373Y-50063578D01*
X122086374Y-50063577D01*
X122237606Y-50000935D01*
X122237607Y-50000935D01*
X122237609Y-50000934D01*
X122398152Y-49969000D01*
X122561848Y-49969000D01*
X122722391Y-50000934D01*
X122722391Y-50000934D01*
G37*
G36*
X120182391Y-50000934D02*
X120182393Y-50000935D01*
X120182394Y-50000935D01*
X120333626Y-50063577D01*
X120333627Y-50063578D01*
X120469735Y-50154522D01*
X120585478Y-50270265D01*
X120585480Y-50270268D01*
X120676423Y-50406374D01*
X120739065Y-50557606D01*
X120771000Y-50718154D01*
X120771000Y-50881846D01*
X120739065Y-51042394D01*
X120676423Y-51193626D01*
X120676422Y-51193627D01*
X120585478Y-51329735D01*
X120469735Y-51445478D01*
X120469732Y-51445480D01*
X120333626Y-51536423D01*
X120182394Y-51599065D01*
X120182393Y-51599065D01*
X120182391Y-51599066D01*
X120021848Y-51631000D01*
X119858152Y-51631000D01*
X119697609Y-51599066D01*
X119697607Y-51599065D01*
X119697606Y-51599065D01*
X119546374Y-51536423D01*
X119410268Y-51445480D01*
X119410265Y-51445478D01*
X119294522Y-51329735D01*
X119203578Y-51193627D01*
X119203577Y-51193626D01*
X119140935Y-51042394D01*
X119109000Y-50881846D01*
X119109000Y-50718154D01*
X119140935Y-50557606D01*
X119203577Y-50406374D01*
X119294520Y-50270268D01*
X119294522Y-50270265D01*
X119410265Y-50154522D01*
X119546373Y-50063578D01*
X119546374Y-50063577D01*
X119697606Y-50000935D01*
X119697607Y-50000935D01*
X119697609Y-50000934D01*
X119858152Y-49969000D01*
X120021848Y-49969000D01*
X120182391Y-50000934D01*
X120182391Y-50000934D01*
G37*
G36*
X160822391Y-50000934D02*
X160822393Y-50000935D01*
X160822394Y-50000935D01*
X160973626Y-50063577D01*
X160973627Y-50063578D01*
X161109735Y-50154522D01*
X161225478Y-50270265D01*
X161225480Y-50270268D01*
X161316423Y-50406374D01*
X161379065Y-50557606D01*
X161411000Y-50718154D01*
X161411000Y-50881846D01*
X161379065Y-51042394D01*
X161316423Y-51193626D01*
X161316422Y-51193627D01*
X161225478Y-51329735D01*
X161109735Y-51445478D01*
X161109732Y-51445480D01*
X160973626Y-51536423D01*
X160822394Y-51599065D01*
X160822393Y-51599065D01*
X160822391Y-51599066D01*
X160661848Y-51631000D01*
X160498152Y-51631000D01*
X160337609Y-51599066D01*
X160337607Y-51599065D01*
X160337606Y-51599065D01*
X160186374Y-51536423D01*
X160050268Y-51445480D01*
X160050265Y-51445478D01*
X159934522Y-51329735D01*
X159843578Y-51193627D01*
X159843577Y-51193626D01*
X159780935Y-51042394D01*
X159749000Y-50881846D01*
X159749000Y-50718154D01*
X159780935Y-50557606D01*
X159843577Y-50406374D01*
X159934520Y-50270268D01*
X159934522Y-50270265D01*
X160050265Y-50154522D01*
X160186373Y-50063578D01*
X160186374Y-50063577D01*
X160337606Y-50000935D01*
X160337607Y-50000935D01*
X160337609Y-50000934D01*
X160498152Y-49969000D01*
X160661848Y-49969000D01*
X160822391Y-50000934D01*
X160822391Y-50000934D01*
G37*
G36*
X117642391Y-50000934D02*
X117642393Y-50000935D01*
X117642394Y-50000935D01*
X117793626Y-50063577D01*
X117793627Y-50063578D01*
X117929735Y-50154522D01*
X118045478Y-50270265D01*
X118045480Y-50270268D01*
X118136423Y-50406374D01*
X118199065Y-50557606D01*
X118231000Y-50718154D01*
X118231000Y-50881846D01*
X118199065Y-51042394D01*
X118136423Y-51193626D01*
X118136422Y-51193627D01*
X118045478Y-51329735D01*
X117929735Y-51445478D01*
X117929732Y-51445480D01*
X117793626Y-51536423D01*
X117642394Y-51599065D01*
X117642393Y-51599065D01*
X117642391Y-51599066D01*
X117481848Y-51631000D01*
X117318152Y-51631000D01*
X117157609Y-51599066D01*
X117157607Y-51599065D01*
X117157606Y-51599065D01*
X117006374Y-51536423D01*
X116870268Y-51445480D01*
X116870265Y-51445478D01*
X116754522Y-51329735D01*
X116663578Y-51193627D01*
X116663577Y-51193626D01*
X116600935Y-51042394D01*
X116569000Y-50881846D01*
X116569000Y-50718154D01*
X116600935Y-50557606D01*
X116663577Y-50406374D01*
X116754520Y-50270268D01*
X116754522Y-50270265D01*
X116870265Y-50154522D01*
X117006373Y-50063578D01*
X117006374Y-50063577D01*
X117157606Y-50000935D01*
X117157607Y-50000935D01*
X117157609Y-50000934D01*
X117318152Y-49969000D01*
X117481848Y-49969000D01*
X117642391Y-50000934D01*
X117642391Y-50000934D01*
G37*
G36*
X158282391Y-50000934D02*
X158282393Y-50000935D01*
X158282394Y-50000935D01*
X158433626Y-50063577D01*
X158433627Y-50063578D01*
X158569735Y-50154522D01*
X158685478Y-50270265D01*
X158685480Y-50270268D01*
X158776423Y-50406374D01*
X158839065Y-50557606D01*
X158871000Y-50718154D01*
X158871000Y-50881846D01*
X158839065Y-51042394D01*
X158776423Y-51193626D01*
X158776422Y-51193627D01*
X158685478Y-51329735D01*
X158569735Y-51445478D01*
X158569732Y-51445480D01*
X158433626Y-51536423D01*
X158282394Y-51599065D01*
X158282393Y-51599065D01*
X158282391Y-51599066D01*
X158121848Y-51631000D01*
X157958152Y-51631000D01*
X157797609Y-51599066D01*
X157797607Y-51599065D01*
X157797606Y-51599065D01*
X157646374Y-51536423D01*
X157510268Y-51445480D01*
X157510265Y-51445478D01*
X157394522Y-51329735D01*
X157303578Y-51193627D01*
X157303577Y-51193626D01*
X157240935Y-51042394D01*
X157209000Y-50881846D01*
X157209000Y-50718154D01*
X157240935Y-50557606D01*
X157303577Y-50406374D01*
X157394520Y-50270268D01*
X157394522Y-50270265D01*
X157510265Y-50154522D01*
X157646373Y-50063578D01*
X157646374Y-50063577D01*
X157797606Y-50000935D01*
X157797607Y-50000935D01*
X157797609Y-50000934D01*
X157958152Y-49969000D01*
X158121848Y-49969000D01*
X158282391Y-50000934D01*
X158282391Y-50000934D01*
G37*
G36*
X137962391Y-24600934D02*
X137962393Y-24600935D01*
X137962394Y-24600935D01*
X138113626Y-24663577D01*
X138113627Y-24663578D01*
X138249735Y-24754522D01*
X138365478Y-24870265D01*
X138365480Y-24870268D01*
X138456423Y-25006374D01*
X138519065Y-25157606D01*
X138551000Y-25318154D01*
X138551000Y-25481846D01*
X138519065Y-25642394D01*
X138456423Y-25793626D01*
X138456422Y-25793627D01*
X138365478Y-25929735D01*
X138249735Y-26045478D01*
X138249732Y-26045480D01*
X138113626Y-26136423D01*
X137962394Y-26199065D01*
X137962393Y-26199065D01*
X137962391Y-26199066D01*
X137801848Y-26231000D01*
X137638152Y-26231000D01*
X137477609Y-26199066D01*
X137477607Y-26199065D01*
X137477606Y-26199065D01*
X137326374Y-26136423D01*
X137190268Y-26045480D01*
X137190265Y-26045478D01*
X137074522Y-25929735D01*
X136983578Y-25793627D01*
X136983577Y-25793626D01*
X136920935Y-25642394D01*
X136889000Y-25481846D01*
X136889000Y-25318154D01*
X136920935Y-25157606D01*
X136983577Y-25006374D01*
X137074520Y-24870268D01*
X137074522Y-24870265D01*
X137190265Y-24754522D01*
X137326373Y-24663578D01*
X137326374Y-24663577D01*
X137477606Y-24600935D01*
X137477607Y-24600935D01*
X137477609Y-24600934D01*
X137638152Y-24569000D01*
X137801848Y-24569000D01*
X137962391Y-24600934D01*
X137962391Y-24600934D01*
G37*
G36*
X135422391Y-24600934D02*
X135422393Y-24600935D01*
X135422394Y-24600935D01*
X135573626Y-24663577D01*
X135573627Y-24663578D01*
X135709735Y-24754522D01*
X135825478Y-24870265D01*
X135825480Y-24870268D01*
X135916423Y-25006374D01*
X135979065Y-25157606D01*
X136011000Y-25318154D01*
X136011000Y-25481846D01*
X135979065Y-25642394D01*
X135916423Y-25793626D01*
X135916422Y-25793627D01*
X135825478Y-25929735D01*
X135709735Y-26045478D01*
X135709732Y-26045480D01*
X135573626Y-26136423D01*
X135422394Y-26199065D01*
X135422393Y-26199065D01*
X135422391Y-26199066D01*
X135261848Y-26231000D01*
X135098152Y-26231000D01*
X134937609Y-26199066D01*
X134937607Y-26199065D01*
X134937606Y-26199065D01*
X134786374Y-26136423D01*
X134650268Y-26045480D01*
X134650265Y-26045478D01*
X134534522Y-25929735D01*
X134443578Y-25793627D01*
X134443577Y-25793626D01*
X134380935Y-25642394D01*
X134349000Y-25481846D01*
X134349000Y-25318154D01*
X134380935Y-25157606D01*
X134443577Y-25006374D01*
X134534520Y-24870268D01*
X134534522Y-24870265D01*
X134650265Y-24754522D01*
X134786373Y-24663578D01*
X134786374Y-24663577D01*
X134937606Y-24600935D01*
X134937607Y-24600935D01*
X134937609Y-24600934D01*
X135098152Y-24569000D01*
X135261848Y-24569000D01*
X135422391Y-24600934D01*
X135422391Y-24600934D01*
G37*
G36*
X132882391Y-24600934D02*
X132882393Y-24600935D01*
X132882394Y-24600935D01*
X133033626Y-24663577D01*
X133033627Y-24663578D01*
X133169735Y-24754522D01*
X133285478Y-24870265D01*
X133285480Y-24870268D01*
X133376423Y-25006374D01*
X133439065Y-25157606D01*
X133471000Y-25318154D01*
X133471000Y-25481846D01*
X133439065Y-25642394D01*
X133376423Y-25793626D01*
X133376422Y-25793627D01*
X133285478Y-25929735D01*
X133169735Y-26045478D01*
X133169732Y-26045480D01*
X133033626Y-26136423D01*
X132882394Y-26199065D01*
X132882393Y-26199065D01*
X132882391Y-26199066D01*
X132721848Y-26231000D01*
X132558152Y-26231000D01*
X132397609Y-26199066D01*
X132397607Y-26199065D01*
X132397606Y-26199065D01*
X132246374Y-26136423D01*
X132110268Y-26045480D01*
X132110265Y-26045478D01*
X131994522Y-25929735D01*
X131903578Y-25793627D01*
X131903577Y-25793626D01*
X131840935Y-25642394D01*
X131809000Y-25481846D01*
X131809000Y-25318154D01*
X131840935Y-25157606D01*
X131903577Y-25006374D01*
X131994520Y-24870268D01*
X131994522Y-24870265D01*
X132110265Y-24754522D01*
X132246373Y-24663578D01*
X132246374Y-24663577D01*
X132397606Y-24600935D01*
X132397607Y-24600935D01*
X132397609Y-24600934D01*
X132558152Y-24569000D01*
X132721848Y-24569000D01*
X132882391Y-24600934D01*
X132882391Y-24600934D01*
G37*
G36*
X130342391Y-24600934D02*
X130342393Y-24600935D01*
X130342394Y-24600935D01*
X130493626Y-24663577D01*
X130493627Y-24663578D01*
X130629735Y-24754522D01*
X130745478Y-24870265D01*
X130745480Y-24870268D01*
X130836423Y-25006374D01*
X130899065Y-25157606D01*
X130931000Y-25318154D01*
X130931000Y-25481846D01*
X130899065Y-25642394D01*
X130836423Y-25793626D01*
X130836422Y-25793627D01*
X130745478Y-25929735D01*
X130629735Y-26045478D01*
X130629732Y-26045480D01*
X130493626Y-26136423D01*
X130342394Y-26199065D01*
X130342393Y-26199065D01*
X130342391Y-26199066D01*
X130181848Y-26231000D01*
X130018152Y-26231000D01*
X129857609Y-26199066D01*
X129857607Y-26199065D01*
X129857606Y-26199065D01*
X129706374Y-26136423D01*
X129570268Y-26045480D01*
X129570265Y-26045478D01*
X129454522Y-25929735D01*
X129363578Y-25793627D01*
X129363577Y-25793626D01*
X129300935Y-25642394D01*
X129269000Y-25481846D01*
X129269000Y-25318154D01*
X129300935Y-25157606D01*
X129363577Y-25006374D01*
X129454520Y-24870268D01*
X129454522Y-24870265D01*
X129570265Y-24754522D01*
X129706373Y-24663578D01*
X129706374Y-24663577D01*
X129857606Y-24600935D01*
X129857607Y-24600935D01*
X129857609Y-24600934D01*
X130018152Y-24569000D01*
X130181848Y-24569000D01*
X130342391Y-24600934D01*
X130342391Y-24600934D01*
G37*
G36*
X127802391Y-24600934D02*
X127802393Y-24600935D01*
X127802394Y-24600935D01*
X127953626Y-24663577D01*
X127953627Y-24663578D01*
X128089735Y-24754522D01*
X128205478Y-24870265D01*
X128205480Y-24870268D01*
X128296423Y-25006374D01*
X128359065Y-25157606D01*
X128391000Y-25318154D01*
X128391000Y-25481846D01*
X128359065Y-25642394D01*
X128296423Y-25793626D01*
X128296422Y-25793627D01*
X128205478Y-25929735D01*
X128089735Y-26045478D01*
X128089732Y-26045480D01*
X127953626Y-26136423D01*
X127802394Y-26199065D01*
X127802393Y-26199065D01*
X127802391Y-26199066D01*
X127641848Y-26231000D01*
X127478152Y-26231000D01*
X127317609Y-26199066D01*
X127317607Y-26199065D01*
X127317606Y-26199065D01*
X127166374Y-26136423D01*
X127030268Y-26045480D01*
X127030265Y-26045478D01*
X126914522Y-25929735D01*
X126823578Y-25793627D01*
X126823577Y-25793626D01*
X126760935Y-25642394D01*
X126729000Y-25481846D01*
X126729000Y-25318154D01*
X126760935Y-25157606D01*
X126823577Y-25006374D01*
X126914520Y-24870268D01*
X126914522Y-24870265D01*
X127030265Y-24754522D01*
X127166373Y-24663578D01*
X127166374Y-24663577D01*
X127317606Y-24600935D01*
X127317607Y-24600935D01*
X127317609Y-24600934D01*
X127478152Y-24569000D01*
X127641848Y-24569000D01*
X127802391Y-24600934D01*
X127802391Y-24600934D01*
G37*
G36*
X125262391Y-24600934D02*
X125262393Y-24600935D01*
X125262394Y-24600935D01*
X125413626Y-24663577D01*
X125413627Y-24663578D01*
X125549735Y-24754522D01*
X125665478Y-24870265D01*
X125665480Y-24870268D01*
X125756423Y-25006374D01*
X125819065Y-25157606D01*
X125851000Y-25318154D01*
X125851000Y-25481846D01*
X125819065Y-25642394D01*
X125756423Y-25793626D01*
X125756422Y-25793627D01*
X125665478Y-25929735D01*
X125549735Y-26045478D01*
X125549732Y-26045480D01*
X125413626Y-26136423D01*
X125262394Y-26199065D01*
X125262393Y-26199065D01*
X125262391Y-26199066D01*
X125101848Y-26231000D01*
X124938152Y-26231000D01*
X124777609Y-26199066D01*
X124777607Y-26199065D01*
X124777606Y-26199065D01*
X124626374Y-26136423D01*
X124490268Y-26045480D01*
X124490265Y-26045478D01*
X124374522Y-25929735D01*
X124283578Y-25793627D01*
X124283577Y-25793626D01*
X124220935Y-25642394D01*
X124189000Y-25481846D01*
X124189000Y-25318154D01*
X124220935Y-25157606D01*
X124283577Y-25006374D01*
X124374520Y-24870268D01*
X124374522Y-24870265D01*
X124490265Y-24754522D01*
X124626373Y-24663578D01*
X124626374Y-24663577D01*
X124777606Y-24600935D01*
X124777607Y-24600935D01*
X124777609Y-24600934D01*
X124938152Y-24569000D01*
X125101848Y-24569000D01*
X125262391Y-24600934D01*
X125262391Y-24600934D01*
G37*
G36*
X122722391Y-24600934D02*
X122722393Y-24600935D01*
X122722394Y-24600935D01*
X122873626Y-24663577D01*
X122873627Y-24663578D01*
X123009735Y-24754522D01*
X123125478Y-24870265D01*
X123125480Y-24870268D01*
X123216423Y-25006374D01*
X123279065Y-25157606D01*
X123311000Y-25318154D01*
X123311000Y-25481846D01*
X123279065Y-25642394D01*
X123216423Y-25793626D01*
X123216422Y-25793627D01*
X123125478Y-25929735D01*
X123009735Y-26045478D01*
X123009732Y-26045480D01*
X122873626Y-26136423D01*
X122722394Y-26199065D01*
X122722393Y-26199065D01*
X122722391Y-26199066D01*
X122561848Y-26231000D01*
X122398152Y-26231000D01*
X122237609Y-26199066D01*
X122237607Y-26199065D01*
X122237606Y-26199065D01*
X122086374Y-26136423D01*
X121950268Y-26045480D01*
X121950265Y-26045478D01*
X121834522Y-25929735D01*
X121743578Y-25793627D01*
X121743577Y-25793626D01*
X121680935Y-25642394D01*
X121649000Y-25481846D01*
X121649000Y-25318154D01*
X121680935Y-25157606D01*
X121743577Y-25006374D01*
X121834520Y-24870268D01*
X121834522Y-24870265D01*
X121950265Y-24754522D01*
X122086373Y-24663578D01*
X122086374Y-24663577D01*
X122237606Y-24600935D01*
X122237607Y-24600935D01*
X122237609Y-24600934D01*
X122398152Y-24569000D01*
X122561848Y-24569000D01*
X122722391Y-24600934D01*
X122722391Y-24600934D01*
G37*
G36*
X120182391Y-24600934D02*
X120182393Y-24600935D01*
X120182394Y-24600935D01*
X120333626Y-24663577D01*
X120333627Y-24663578D01*
X120469735Y-24754522D01*
X120585478Y-24870265D01*
X120585480Y-24870268D01*
X120676423Y-25006374D01*
X120739065Y-25157606D01*
X120771000Y-25318154D01*
X120771000Y-25481846D01*
X120739065Y-25642394D01*
X120676423Y-25793626D01*
X120676422Y-25793627D01*
X120585478Y-25929735D01*
X120469735Y-26045478D01*
X120469732Y-26045480D01*
X120333626Y-26136423D01*
X120182394Y-26199065D01*
X120182393Y-26199065D01*
X120182391Y-26199066D01*
X120021848Y-26231000D01*
X119858152Y-26231000D01*
X119697609Y-26199066D01*
X119697607Y-26199065D01*
X119697606Y-26199065D01*
X119546374Y-26136423D01*
X119410268Y-26045480D01*
X119410265Y-26045478D01*
X119294522Y-25929735D01*
X119203578Y-25793627D01*
X119203577Y-25793626D01*
X119140935Y-25642394D01*
X119109000Y-25481846D01*
X119109000Y-25318154D01*
X119140935Y-25157606D01*
X119203577Y-25006374D01*
X119294520Y-24870268D01*
X119294522Y-24870265D01*
X119410265Y-24754522D01*
X119546373Y-24663578D01*
X119546374Y-24663577D01*
X119697606Y-24600935D01*
X119697607Y-24600935D01*
X119697609Y-24600934D01*
X119858152Y-24569000D01*
X120021848Y-24569000D01*
X120182391Y-24600934D01*
X120182391Y-24600934D01*
G37*
G36*
X115102391Y-24600934D02*
X115102393Y-24600935D01*
X115102394Y-24600935D01*
X115253626Y-24663577D01*
X115253627Y-24663578D01*
X115389735Y-24754522D01*
X115505478Y-24870265D01*
X115505480Y-24870268D01*
X115596423Y-25006374D01*
X115659065Y-25157606D01*
X115691000Y-25318154D01*
X115691000Y-25481846D01*
X115659065Y-25642394D01*
X115596423Y-25793626D01*
X115596422Y-25793627D01*
X115505478Y-25929735D01*
X115389735Y-26045478D01*
X115389732Y-26045480D01*
X115253626Y-26136423D01*
X115102394Y-26199065D01*
X115102393Y-26199065D01*
X115102391Y-26199066D01*
X114941848Y-26231000D01*
X114778152Y-26231000D01*
X114617609Y-26199066D01*
X114617607Y-26199065D01*
X114617606Y-26199065D01*
X114466374Y-26136423D01*
X114330268Y-26045480D01*
X114330265Y-26045478D01*
X114214522Y-25929735D01*
X114123578Y-25793627D01*
X114123577Y-25793626D01*
X114060935Y-25642394D01*
X114029000Y-25481846D01*
X114029000Y-25318154D01*
X114060935Y-25157606D01*
X114123577Y-25006374D01*
X114214520Y-24870268D01*
X114214522Y-24870265D01*
X114330265Y-24754522D01*
X114466373Y-24663578D01*
X114466374Y-24663577D01*
X114617606Y-24600935D01*
X114617607Y-24600935D01*
X114617609Y-24600934D01*
X114778152Y-24569000D01*
X114941848Y-24569000D01*
X115102391Y-24600934D01*
X115102391Y-24600934D01*
G37*
G36*
X160822391Y-24600934D02*
X160822393Y-24600935D01*
X160822394Y-24600935D01*
X160973626Y-24663577D01*
X160973627Y-24663578D01*
X161109735Y-24754522D01*
X161225478Y-24870265D01*
X161225480Y-24870268D01*
X161316423Y-25006374D01*
X161379065Y-25157606D01*
X161411000Y-25318154D01*
X161411000Y-25481846D01*
X161379065Y-25642394D01*
X161316423Y-25793626D01*
X161316422Y-25793627D01*
X161225478Y-25929735D01*
X161109735Y-26045478D01*
X161109732Y-26045480D01*
X160973626Y-26136423D01*
X160822394Y-26199065D01*
X160822393Y-26199065D01*
X160822391Y-26199066D01*
X160661848Y-26231000D01*
X160498152Y-26231000D01*
X160337609Y-26199066D01*
X160337607Y-26199065D01*
X160337606Y-26199065D01*
X160186374Y-26136423D01*
X160050268Y-26045480D01*
X160050265Y-26045478D01*
X159934522Y-25929735D01*
X159843578Y-25793627D01*
X159843577Y-25793626D01*
X159780935Y-25642394D01*
X159749000Y-25481846D01*
X159749000Y-25318154D01*
X159780935Y-25157606D01*
X159843577Y-25006374D01*
X159934520Y-24870268D01*
X159934522Y-24870265D01*
X160050265Y-24754522D01*
X160186373Y-24663578D01*
X160186374Y-24663577D01*
X160337606Y-24600935D01*
X160337607Y-24600935D01*
X160337609Y-24600934D01*
X160498152Y-24569000D01*
X160661848Y-24569000D01*
X160822391Y-24600934D01*
X160822391Y-24600934D01*
G37*
G36*
X143042391Y-24600934D02*
X143042393Y-24600935D01*
X143042394Y-24600935D01*
X143193626Y-24663577D01*
X143193627Y-24663578D01*
X143329735Y-24754522D01*
X143445478Y-24870265D01*
X143445480Y-24870268D01*
X143536423Y-25006374D01*
X143599065Y-25157606D01*
X143631000Y-25318154D01*
X143631000Y-25481846D01*
X143599065Y-25642394D01*
X143536423Y-25793626D01*
X143536422Y-25793627D01*
X143445478Y-25929735D01*
X143329735Y-26045478D01*
X143329732Y-26045480D01*
X143193626Y-26136423D01*
X143042394Y-26199065D01*
X143042393Y-26199065D01*
X143042391Y-26199066D01*
X142881848Y-26231000D01*
X142718152Y-26231000D01*
X142557609Y-26199066D01*
X142557607Y-26199065D01*
X142557606Y-26199065D01*
X142406374Y-26136423D01*
X142270268Y-26045480D01*
X142270265Y-26045478D01*
X142154522Y-25929735D01*
X142063578Y-25793627D01*
X142063577Y-25793626D01*
X142000935Y-25642394D01*
X141969000Y-25481846D01*
X141969000Y-25318154D01*
X142000935Y-25157606D01*
X142063577Y-25006374D01*
X142154520Y-24870268D01*
X142154522Y-24870265D01*
X142270265Y-24754522D01*
X142406373Y-24663578D01*
X142406374Y-24663577D01*
X142557606Y-24600935D01*
X142557607Y-24600935D01*
X142557609Y-24600934D01*
X142718152Y-24569000D01*
X142881848Y-24569000D01*
X143042391Y-24600934D01*
X143042391Y-24600934D01*
G37*
G36*
X145582391Y-24600934D02*
X145582393Y-24600935D01*
X145582394Y-24600935D01*
X145733626Y-24663577D01*
X145733627Y-24663578D01*
X145869735Y-24754522D01*
X145985478Y-24870265D01*
X145985480Y-24870268D01*
X146076423Y-25006374D01*
X146139065Y-25157606D01*
X146171000Y-25318154D01*
X146171000Y-25481846D01*
X146139065Y-25642394D01*
X146076423Y-25793626D01*
X146076422Y-25793627D01*
X145985478Y-25929735D01*
X145869735Y-26045478D01*
X145869732Y-26045480D01*
X145733626Y-26136423D01*
X145582394Y-26199065D01*
X145582393Y-26199065D01*
X145582391Y-26199066D01*
X145421848Y-26231000D01*
X145258152Y-26231000D01*
X145097609Y-26199066D01*
X145097607Y-26199065D01*
X145097606Y-26199065D01*
X144946374Y-26136423D01*
X144810268Y-26045480D01*
X144810265Y-26045478D01*
X144694522Y-25929735D01*
X144603578Y-25793627D01*
X144603577Y-25793626D01*
X144540935Y-25642394D01*
X144509000Y-25481846D01*
X144509000Y-25318154D01*
X144540935Y-25157606D01*
X144603577Y-25006374D01*
X144694520Y-24870268D01*
X144694522Y-24870265D01*
X144810265Y-24754522D01*
X144946373Y-24663578D01*
X144946374Y-24663577D01*
X145097606Y-24600935D01*
X145097607Y-24600935D01*
X145097609Y-24600934D01*
X145258152Y-24569000D01*
X145421848Y-24569000D01*
X145582391Y-24600934D01*
X145582391Y-24600934D01*
G37*
G36*
X148122391Y-24600934D02*
X148122393Y-24600935D01*
X148122394Y-24600935D01*
X148273626Y-24663577D01*
X148273627Y-24663578D01*
X148409735Y-24754522D01*
X148525478Y-24870265D01*
X148525480Y-24870268D01*
X148616423Y-25006374D01*
X148679065Y-25157606D01*
X148711000Y-25318154D01*
X148711000Y-25481846D01*
X148679065Y-25642394D01*
X148616423Y-25793626D01*
X148616422Y-25793627D01*
X148525478Y-25929735D01*
X148409735Y-26045478D01*
X148409732Y-26045480D01*
X148273626Y-26136423D01*
X148122394Y-26199065D01*
X148122393Y-26199065D01*
X148122391Y-26199066D01*
X147961848Y-26231000D01*
X147798152Y-26231000D01*
X147637609Y-26199066D01*
X147637607Y-26199065D01*
X147637606Y-26199065D01*
X147486374Y-26136423D01*
X147350268Y-26045480D01*
X147350265Y-26045478D01*
X147234522Y-25929735D01*
X147143578Y-25793627D01*
X147143577Y-25793626D01*
X147080935Y-25642394D01*
X147049000Y-25481846D01*
X147049000Y-25318154D01*
X147080935Y-25157606D01*
X147143577Y-25006374D01*
X147234520Y-24870268D01*
X147234522Y-24870265D01*
X147350265Y-24754522D01*
X147486373Y-24663578D01*
X147486374Y-24663577D01*
X147637606Y-24600935D01*
X147637607Y-24600935D01*
X147637609Y-24600934D01*
X147798152Y-24569000D01*
X147961848Y-24569000D01*
X148122391Y-24600934D01*
X148122391Y-24600934D01*
G37*
G36*
X150662391Y-24600934D02*
X150662393Y-24600935D01*
X150662394Y-24600935D01*
X150813626Y-24663577D01*
X150813627Y-24663578D01*
X150949735Y-24754522D01*
X151065478Y-24870265D01*
X151065480Y-24870268D01*
X151156423Y-25006374D01*
X151219065Y-25157606D01*
X151251000Y-25318154D01*
X151251000Y-25481846D01*
X151219065Y-25642394D01*
X151156423Y-25793626D01*
X151156422Y-25793627D01*
X151065478Y-25929735D01*
X150949735Y-26045478D01*
X150949732Y-26045480D01*
X150813626Y-26136423D01*
X150662394Y-26199065D01*
X150662393Y-26199065D01*
X150662391Y-26199066D01*
X150501848Y-26231000D01*
X150338152Y-26231000D01*
X150177609Y-26199066D01*
X150177607Y-26199065D01*
X150177606Y-26199065D01*
X150026374Y-26136423D01*
X149890268Y-26045480D01*
X149890265Y-26045478D01*
X149774522Y-25929735D01*
X149683578Y-25793627D01*
X149683577Y-25793626D01*
X149620935Y-25642394D01*
X149589000Y-25481846D01*
X149589000Y-25318154D01*
X149620935Y-25157606D01*
X149683577Y-25006374D01*
X149774520Y-24870268D01*
X149774522Y-24870265D01*
X149890265Y-24754522D01*
X150026373Y-24663578D01*
X150026374Y-24663577D01*
X150177606Y-24600935D01*
X150177607Y-24600935D01*
X150177609Y-24600934D01*
X150338152Y-24569000D01*
X150501848Y-24569000D01*
X150662391Y-24600934D01*
X150662391Y-24600934D01*
G37*
G36*
X153202391Y-24600934D02*
X153202393Y-24600935D01*
X153202394Y-24600935D01*
X153353626Y-24663577D01*
X153353627Y-24663578D01*
X153489735Y-24754522D01*
X153605478Y-24870265D01*
X153605480Y-24870268D01*
X153696423Y-25006374D01*
X153759065Y-25157606D01*
X153791000Y-25318154D01*
X153791000Y-25481846D01*
X153759065Y-25642394D01*
X153696423Y-25793626D01*
X153696422Y-25793627D01*
X153605478Y-25929735D01*
X153489735Y-26045478D01*
X153489732Y-26045480D01*
X153353626Y-26136423D01*
X153202394Y-26199065D01*
X153202393Y-26199065D01*
X153202391Y-26199066D01*
X153041848Y-26231000D01*
X152878152Y-26231000D01*
X152717609Y-26199066D01*
X152717607Y-26199065D01*
X152717606Y-26199065D01*
X152566374Y-26136423D01*
X152430268Y-26045480D01*
X152430265Y-26045478D01*
X152314522Y-25929735D01*
X152223578Y-25793627D01*
X152223577Y-25793626D01*
X152160935Y-25642394D01*
X152129000Y-25481846D01*
X152129000Y-25318154D01*
X152160935Y-25157606D01*
X152223577Y-25006374D01*
X152314520Y-24870268D01*
X152314522Y-24870265D01*
X152430265Y-24754522D01*
X152566373Y-24663578D01*
X152566374Y-24663577D01*
X152717606Y-24600935D01*
X152717607Y-24600935D01*
X152717609Y-24600934D01*
X152878152Y-24569000D01*
X153041848Y-24569000D01*
X153202391Y-24600934D01*
X153202391Y-24600934D01*
G37*
G36*
X155742391Y-24600934D02*
X155742393Y-24600935D01*
X155742394Y-24600935D01*
X155893626Y-24663577D01*
X155893627Y-24663578D01*
X156029735Y-24754522D01*
X156145478Y-24870265D01*
X156145480Y-24870268D01*
X156236423Y-25006374D01*
X156299065Y-25157606D01*
X156331000Y-25318154D01*
X156331000Y-25481846D01*
X156299065Y-25642394D01*
X156236423Y-25793626D01*
X156236422Y-25793627D01*
X156145478Y-25929735D01*
X156029735Y-26045478D01*
X156029732Y-26045480D01*
X155893626Y-26136423D01*
X155742394Y-26199065D01*
X155742393Y-26199065D01*
X155742391Y-26199066D01*
X155581848Y-26231000D01*
X155418152Y-26231000D01*
X155257609Y-26199066D01*
X155257607Y-26199065D01*
X155257606Y-26199065D01*
X155106374Y-26136423D01*
X154970268Y-26045480D01*
X154970265Y-26045478D01*
X154854522Y-25929735D01*
X154763578Y-25793627D01*
X154763577Y-25793626D01*
X154700935Y-25642394D01*
X154669000Y-25481846D01*
X154669000Y-25318154D01*
X154700935Y-25157606D01*
X154763577Y-25006374D01*
X154854520Y-24870268D01*
X154854522Y-24870265D01*
X154970265Y-24754522D01*
X155106373Y-24663578D01*
X155106374Y-24663577D01*
X155257606Y-24600935D01*
X155257607Y-24600935D01*
X155257609Y-24600934D01*
X155418152Y-24569000D01*
X155581848Y-24569000D01*
X155742391Y-24600934D01*
X155742391Y-24600934D01*
G37*
G36*
X158282391Y-24600934D02*
X158282393Y-24600935D01*
X158282394Y-24600935D01*
X158433626Y-24663577D01*
X158433627Y-24663578D01*
X158569735Y-24754522D01*
X158685478Y-24870265D01*
X158685480Y-24870268D01*
X158776423Y-25006374D01*
X158839065Y-25157606D01*
X158871000Y-25318154D01*
X158871000Y-25481846D01*
X158839065Y-25642394D01*
X158776423Y-25793626D01*
X158776422Y-25793627D01*
X158685478Y-25929735D01*
X158569735Y-26045478D01*
X158569732Y-26045480D01*
X158433626Y-26136423D01*
X158282394Y-26199065D01*
X158282393Y-26199065D01*
X158282391Y-26199066D01*
X158121848Y-26231000D01*
X157958152Y-26231000D01*
X157797609Y-26199066D01*
X157797607Y-26199065D01*
X157797606Y-26199065D01*
X157646374Y-26136423D01*
X157510268Y-26045480D01*
X157510265Y-26045478D01*
X157394522Y-25929735D01*
X157303578Y-25793627D01*
X157303577Y-25793626D01*
X157240935Y-25642394D01*
X157209000Y-25481846D01*
X157209000Y-25318154D01*
X157240935Y-25157606D01*
X157303577Y-25006374D01*
X157394520Y-24870268D01*
X157394522Y-24870265D01*
X157510265Y-24754522D01*
X157646373Y-24663578D01*
X157646374Y-24663577D01*
X157797606Y-24600935D01*
X157797607Y-24600935D01*
X157797609Y-24600934D01*
X157958152Y-24569000D01*
X158121848Y-24569000D01*
X158282391Y-24600934D01*
X158282391Y-24600934D01*
G37*
G36*
X140502391Y-24600934D02*
X140502393Y-24600935D01*
X140502394Y-24600935D01*
X140653626Y-24663577D01*
X140653627Y-24663578D01*
X140789735Y-24754522D01*
X140905478Y-24870265D01*
X140905480Y-24870268D01*
X140996423Y-25006374D01*
X141059065Y-25157606D01*
X141091000Y-25318154D01*
X141091000Y-25481846D01*
X141059065Y-25642394D01*
X140996423Y-25793626D01*
X140996422Y-25793627D01*
X140905478Y-25929735D01*
X140789735Y-26045478D01*
X140789732Y-26045480D01*
X140653626Y-26136423D01*
X140502394Y-26199065D01*
X140502393Y-26199065D01*
X140502391Y-26199066D01*
X140341848Y-26231000D01*
X140178152Y-26231000D01*
X140017609Y-26199066D01*
X140017607Y-26199065D01*
X140017606Y-26199065D01*
X139866374Y-26136423D01*
X139730268Y-26045480D01*
X139730265Y-26045478D01*
X139614522Y-25929735D01*
X139523578Y-25793627D01*
X139523577Y-25793626D01*
X139460935Y-25642394D01*
X139429000Y-25481846D01*
X139429000Y-25318154D01*
X139460935Y-25157606D01*
X139523577Y-25006374D01*
X139614520Y-24870268D01*
X139614522Y-24870265D01*
X139730265Y-24754522D01*
X139866373Y-24663578D01*
X139866374Y-24663577D01*
X140017606Y-24600935D01*
X140017607Y-24600935D01*
X140017609Y-24600934D01*
X140178152Y-24569000D01*
X140341848Y-24569000D01*
X140502391Y-24600934D01*
X140502391Y-24600934D01*
G37*
G36*
X117642391Y-24600934D02*
X117642393Y-24600935D01*
X117642394Y-24600935D01*
X117793626Y-24663577D01*
X117793627Y-24663578D01*
X117929735Y-24754522D01*
X118045478Y-24870265D01*
X118045480Y-24870268D01*
X118136423Y-25006374D01*
X118199065Y-25157606D01*
X118231000Y-25318154D01*
X118231000Y-25481846D01*
X118199065Y-25642394D01*
X118136423Y-25793626D01*
X118136422Y-25793627D01*
X118045478Y-25929735D01*
X117929735Y-26045478D01*
X117929732Y-26045480D01*
X117793626Y-26136423D01*
X117642394Y-26199065D01*
X117642393Y-26199065D01*
X117642391Y-26199066D01*
X117481848Y-26231000D01*
X117318152Y-26231000D01*
X117157609Y-26199066D01*
X117157607Y-26199065D01*
X117157606Y-26199065D01*
X117006374Y-26136423D01*
X116870268Y-26045480D01*
X116870265Y-26045478D01*
X116754522Y-25929735D01*
X116663578Y-25793627D01*
X116663577Y-25793626D01*
X116600935Y-25642394D01*
X116569000Y-25481846D01*
X116569000Y-25318154D01*
X116600935Y-25157606D01*
X116663577Y-25006374D01*
X116754520Y-24870268D01*
X116754522Y-24870265D01*
X116870265Y-24754522D01*
X117006373Y-24663578D01*
X117006374Y-24663577D01*
X117157606Y-24600935D01*
X117157607Y-24600935D01*
X117157609Y-24600934D01*
X117318152Y-24569000D01*
X117481848Y-24569000D01*
X117642391Y-24600934D01*
X117642391Y-24600934D01*
G37*
M02*
