G04 #@! TF.GenerationSoftware,KiCad,Pcbnew,(5.0.1)-3*
G04 #@! TF.CreationDate,2018-10-30T03:44:56+09:00*
G04 #@! TF.ProjectId,badge,62616467652E6B696361645F70636200,rev?*
G04 #@! TF.SameCoordinates,Original*
G04 #@! TF.FileFunction,Copper,L1,Top,Signal*
G04 #@! TF.FilePolarity,Positive*
%FSLAX46Y46*%
G04 Gerber Fmt 4.6, Leading zero omitted, Abs format (unit mm)*
G04 Created by KiCad (PCBNEW (5.0.1)-3) date 2018-10-30 오전 3:44:56*
%MOMM*%
%LPD*%
G01*
G04 APERTURE LIST*
G04 #@! TA.AperFunction,SMDPad,CuDef*
%ADD10R,1.000000X1.700000*%
G04 #@! TD*
G04 #@! TA.AperFunction,Conductor*
%ADD11C,0.100000*%
G04 #@! TD*
G04 #@! TA.AperFunction,SMDPad,CuDef*
%ADD12C,0.875000*%
G04 #@! TD*
G04 #@! TA.AperFunction,ComponentPad*
%ADD13R,1.700000X1.700000*%
G04 #@! TD*
G04 #@! TA.AperFunction,ComponentPad*
%ADD14O,1.700000X1.700000*%
G04 #@! TD*
G04 #@! TA.AperFunction,SMDPad,CuDef*
%ADD15C,0.500000*%
G04 #@! TD*
G04 #@! TA.AperFunction,ViaPad*
%ADD16C,0.800000*%
G04 #@! TD*
G04 #@! TA.AperFunction,Conductor*
%ADD17C,0.250000*%
G04 #@! TD*
G04 APERTURE END LIST*
D10*
G04 #@! TO.P,SW6,2*
G04 #@! TO.N,GND*
X197988000Y-75590000D03*
X197988000Y-81890000D03*
G04 #@! TO.P,SW6,1*
G04 #@! TO.N,/GPIO36*
X194188000Y-75590000D03*
X194188000Y-81890000D03*
G04 #@! TD*
D11*
G04 #@! TO.N,Net-(D2-Pad2)*
G04 #@! TO.C,D2*
G36*
X150899691Y-60803053D02*
X150920926Y-60806203D01*
X150941750Y-60811419D01*
X150961962Y-60818651D01*
X150981368Y-60827830D01*
X150999781Y-60838866D01*
X151017024Y-60851654D01*
X151032930Y-60866070D01*
X151047346Y-60881976D01*
X151060134Y-60899219D01*
X151071170Y-60917632D01*
X151080349Y-60937038D01*
X151087581Y-60957250D01*
X151092797Y-60978074D01*
X151095947Y-60999309D01*
X151097000Y-61020750D01*
X151097000Y-61458250D01*
X151095947Y-61479691D01*
X151092797Y-61500926D01*
X151087581Y-61521750D01*
X151080349Y-61541962D01*
X151071170Y-61561368D01*
X151060134Y-61579781D01*
X151047346Y-61597024D01*
X151032930Y-61612930D01*
X151017024Y-61627346D01*
X150999781Y-61640134D01*
X150981368Y-61651170D01*
X150961962Y-61660349D01*
X150941750Y-61667581D01*
X150920926Y-61672797D01*
X150899691Y-61675947D01*
X150878250Y-61677000D01*
X150365750Y-61677000D01*
X150344309Y-61675947D01*
X150323074Y-61672797D01*
X150302250Y-61667581D01*
X150282038Y-61660349D01*
X150262632Y-61651170D01*
X150244219Y-61640134D01*
X150226976Y-61627346D01*
X150211070Y-61612930D01*
X150196654Y-61597024D01*
X150183866Y-61579781D01*
X150172830Y-61561368D01*
X150163651Y-61541962D01*
X150156419Y-61521750D01*
X150151203Y-61500926D01*
X150148053Y-61479691D01*
X150147000Y-61458250D01*
X150147000Y-61020750D01*
X150148053Y-60999309D01*
X150151203Y-60978074D01*
X150156419Y-60957250D01*
X150163651Y-60937038D01*
X150172830Y-60917632D01*
X150183866Y-60899219D01*
X150196654Y-60881976D01*
X150211070Y-60866070D01*
X150226976Y-60851654D01*
X150244219Y-60838866D01*
X150262632Y-60827830D01*
X150282038Y-60818651D01*
X150302250Y-60811419D01*
X150323074Y-60806203D01*
X150344309Y-60803053D01*
X150365750Y-60802000D01*
X150878250Y-60802000D01*
X150899691Y-60803053D01*
X150899691Y-60803053D01*
G37*
D12*
G04 #@! TD*
G04 #@! TO.P,D2,2*
G04 #@! TO.N,Net-(D2-Pad2)*
X150622000Y-61239500D03*
D11*
G04 #@! TO.N,/GPIO17*
G04 #@! TO.C,D2*
G36*
X150899691Y-59228053D02*
X150920926Y-59231203D01*
X150941750Y-59236419D01*
X150961962Y-59243651D01*
X150981368Y-59252830D01*
X150999781Y-59263866D01*
X151017024Y-59276654D01*
X151032930Y-59291070D01*
X151047346Y-59306976D01*
X151060134Y-59324219D01*
X151071170Y-59342632D01*
X151080349Y-59362038D01*
X151087581Y-59382250D01*
X151092797Y-59403074D01*
X151095947Y-59424309D01*
X151097000Y-59445750D01*
X151097000Y-59883250D01*
X151095947Y-59904691D01*
X151092797Y-59925926D01*
X151087581Y-59946750D01*
X151080349Y-59966962D01*
X151071170Y-59986368D01*
X151060134Y-60004781D01*
X151047346Y-60022024D01*
X151032930Y-60037930D01*
X151017024Y-60052346D01*
X150999781Y-60065134D01*
X150981368Y-60076170D01*
X150961962Y-60085349D01*
X150941750Y-60092581D01*
X150920926Y-60097797D01*
X150899691Y-60100947D01*
X150878250Y-60102000D01*
X150365750Y-60102000D01*
X150344309Y-60100947D01*
X150323074Y-60097797D01*
X150302250Y-60092581D01*
X150282038Y-60085349D01*
X150262632Y-60076170D01*
X150244219Y-60065134D01*
X150226976Y-60052346D01*
X150211070Y-60037930D01*
X150196654Y-60022024D01*
X150183866Y-60004781D01*
X150172830Y-59986368D01*
X150163651Y-59966962D01*
X150156419Y-59946750D01*
X150151203Y-59925926D01*
X150148053Y-59904691D01*
X150147000Y-59883250D01*
X150147000Y-59445750D01*
X150148053Y-59424309D01*
X150151203Y-59403074D01*
X150156419Y-59382250D01*
X150163651Y-59362038D01*
X150172830Y-59342632D01*
X150183866Y-59324219D01*
X150196654Y-59306976D01*
X150211070Y-59291070D01*
X150226976Y-59276654D01*
X150244219Y-59263866D01*
X150262632Y-59252830D01*
X150282038Y-59243651D01*
X150302250Y-59236419D01*
X150323074Y-59231203D01*
X150344309Y-59228053D01*
X150365750Y-59227000D01*
X150878250Y-59227000D01*
X150899691Y-59228053D01*
X150899691Y-59228053D01*
G37*
D12*
G04 #@! TD*
G04 #@! TO.P,D2,1*
G04 #@! TO.N,/GPIO17*
X150622000Y-59664500D03*
D11*
G04 #@! TO.N,/GPIO16*
G04 #@! TO.C,D1*
G36*
X149121691Y-59228053D02*
X149142926Y-59231203D01*
X149163750Y-59236419D01*
X149183962Y-59243651D01*
X149203368Y-59252830D01*
X149221781Y-59263866D01*
X149239024Y-59276654D01*
X149254930Y-59291070D01*
X149269346Y-59306976D01*
X149282134Y-59324219D01*
X149293170Y-59342632D01*
X149302349Y-59362038D01*
X149309581Y-59382250D01*
X149314797Y-59403074D01*
X149317947Y-59424309D01*
X149319000Y-59445750D01*
X149319000Y-59883250D01*
X149317947Y-59904691D01*
X149314797Y-59925926D01*
X149309581Y-59946750D01*
X149302349Y-59966962D01*
X149293170Y-59986368D01*
X149282134Y-60004781D01*
X149269346Y-60022024D01*
X149254930Y-60037930D01*
X149239024Y-60052346D01*
X149221781Y-60065134D01*
X149203368Y-60076170D01*
X149183962Y-60085349D01*
X149163750Y-60092581D01*
X149142926Y-60097797D01*
X149121691Y-60100947D01*
X149100250Y-60102000D01*
X148587750Y-60102000D01*
X148566309Y-60100947D01*
X148545074Y-60097797D01*
X148524250Y-60092581D01*
X148504038Y-60085349D01*
X148484632Y-60076170D01*
X148466219Y-60065134D01*
X148448976Y-60052346D01*
X148433070Y-60037930D01*
X148418654Y-60022024D01*
X148405866Y-60004781D01*
X148394830Y-59986368D01*
X148385651Y-59966962D01*
X148378419Y-59946750D01*
X148373203Y-59925926D01*
X148370053Y-59904691D01*
X148369000Y-59883250D01*
X148369000Y-59445750D01*
X148370053Y-59424309D01*
X148373203Y-59403074D01*
X148378419Y-59382250D01*
X148385651Y-59362038D01*
X148394830Y-59342632D01*
X148405866Y-59324219D01*
X148418654Y-59306976D01*
X148433070Y-59291070D01*
X148448976Y-59276654D01*
X148466219Y-59263866D01*
X148484632Y-59252830D01*
X148504038Y-59243651D01*
X148524250Y-59236419D01*
X148545074Y-59231203D01*
X148566309Y-59228053D01*
X148587750Y-59227000D01*
X149100250Y-59227000D01*
X149121691Y-59228053D01*
X149121691Y-59228053D01*
G37*
D12*
G04 #@! TD*
G04 #@! TO.P,D1,1*
G04 #@! TO.N,/GPIO16*
X148844000Y-59664500D03*
D11*
G04 #@! TO.N,Net-(D1-Pad2)*
G04 #@! TO.C,D1*
G36*
X149121691Y-60803053D02*
X149142926Y-60806203D01*
X149163750Y-60811419D01*
X149183962Y-60818651D01*
X149203368Y-60827830D01*
X149221781Y-60838866D01*
X149239024Y-60851654D01*
X149254930Y-60866070D01*
X149269346Y-60881976D01*
X149282134Y-60899219D01*
X149293170Y-60917632D01*
X149302349Y-60937038D01*
X149309581Y-60957250D01*
X149314797Y-60978074D01*
X149317947Y-60999309D01*
X149319000Y-61020750D01*
X149319000Y-61458250D01*
X149317947Y-61479691D01*
X149314797Y-61500926D01*
X149309581Y-61521750D01*
X149302349Y-61541962D01*
X149293170Y-61561368D01*
X149282134Y-61579781D01*
X149269346Y-61597024D01*
X149254930Y-61612930D01*
X149239024Y-61627346D01*
X149221781Y-61640134D01*
X149203368Y-61651170D01*
X149183962Y-61660349D01*
X149163750Y-61667581D01*
X149142926Y-61672797D01*
X149121691Y-61675947D01*
X149100250Y-61677000D01*
X148587750Y-61677000D01*
X148566309Y-61675947D01*
X148545074Y-61672797D01*
X148524250Y-61667581D01*
X148504038Y-61660349D01*
X148484632Y-61651170D01*
X148466219Y-61640134D01*
X148448976Y-61627346D01*
X148433070Y-61612930D01*
X148418654Y-61597024D01*
X148405866Y-61579781D01*
X148394830Y-61561368D01*
X148385651Y-61541962D01*
X148378419Y-61521750D01*
X148373203Y-61500926D01*
X148370053Y-61479691D01*
X148369000Y-61458250D01*
X148369000Y-61020750D01*
X148370053Y-60999309D01*
X148373203Y-60978074D01*
X148378419Y-60957250D01*
X148385651Y-60937038D01*
X148394830Y-60917632D01*
X148405866Y-60899219D01*
X148418654Y-60881976D01*
X148433070Y-60866070D01*
X148448976Y-60851654D01*
X148466219Y-60838866D01*
X148484632Y-60827830D01*
X148504038Y-60818651D01*
X148524250Y-60811419D01*
X148545074Y-60806203D01*
X148566309Y-60803053D01*
X148587750Y-60802000D01*
X149100250Y-60802000D01*
X149121691Y-60803053D01*
X149121691Y-60803053D01*
G37*
D12*
G04 #@! TD*
G04 #@! TO.P,D1,2*
G04 #@! TO.N,Net-(D1-Pad2)*
X148844000Y-61239500D03*
D11*
G04 #@! TO.N,Net-(D1-Pad2)*
G04 #@! TO.C,R5*
G36*
X147343691Y-60803053D02*
X147364926Y-60806203D01*
X147385750Y-60811419D01*
X147405962Y-60818651D01*
X147425368Y-60827830D01*
X147443781Y-60838866D01*
X147461024Y-60851654D01*
X147476930Y-60866070D01*
X147491346Y-60881976D01*
X147504134Y-60899219D01*
X147515170Y-60917632D01*
X147524349Y-60937038D01*
X147531581Y-60957250D01*
X147536797Y-60978074D01*
X147539947Y-60999309D01*
X147541000Y-61020750D01*
X147541000Y-61458250D01*
X147539947Y-61479691D01*
X147536797Y-61500926D01*
X147531581Y-61521750D01*
X147524349Y-61541962D01*
X147515170Y-61561368D01*
X147504134Y-61579781D01*
X147491346Y-61597024D01*
X147476930Y-61612930D01*
X147461024Y-61627346D01*
X147443781Y-61640134D01*
X147425368Y-61651170D01*
X147405962Y-61660349D01*
X147385750Y-61667581D01*
X147364926Y-61672797D01*
X147343691Y-61675947D01*
X147322250Y-61677000D01*
X146809750Y-61677000D01*
X146788309Y-61675947D01*
X146767074Y-61672797D01*
X146746250Y-61667581D01*
X146726038Y-61660349D01*
X146706632Y-61651170D01*
X146688219Y-61640134D01*
X146670976Y-61627346D01*
X146655070Y-61612930D01*
X146640654Y-61597024D01*
X146627866Y-61579781D01*
X146616830Y-61561368D01*
X146607651Y-61541962D01*
X146600419Y-61521750D01*
X146595203Y-61500926D01*
X146592053Y-61479691D01*
X146591000Y-61458250D01*
X146591000Y-61020750D01*
X146592053Y-60999309D01*
X146595203Y-60978074D01*
X146600419Y-60957250D01*
X146607651Y-60937038D01*
X146616830Y-60917632D01*
X146627866Y-60899219D01*
X146640654Y-60881976D01*
X146655070Y-60866070D01*
X146670976Y-60851654D01*
X146688219Y-60838866D01*
X146706632Y-60827830D01*
X146726038Y-60818651D01*
X146746250Y-60811419D01*
X146767074Y-60806203D01*
X146788309Y-60803053D01*
X146809750Y-60802000D01*
X147322250Y-60802000D01*
X147343691Y-60803053D01*
X147343691Y-60803053D01*
G37*
D12*
G04 #@! TD*
G04 #@! TO.P,R5,2*
G04 #@! TO.N,Net-(D1-Pad2)*
X147066000Y-61239500D03*
D11*
G04 #@! TO.N,GND*
G04 #@! TO.C,R5*
G36*
X147343691Y-59228053D02*
X147364926Y-59231203D01*
X147385750Y-59236419D01*
X147405962Y-59243651D01*
X147425368Y-59252830D01*
X147443781Y-59263866D01*
X147461024Y-59276654D01*
X147476930Y-59291070D01*
X147491346Y-59306976D01*
X147504134Y-59324219D01*
X147515170Y-59342632D01*
X147524349Y-59362038D01*
X147531581Y-59382250D01*
X147536797Y-59403074D01*
X147539947Y-59424309D01*
X147541000Y-59445750D01*
X147541000Y-59883250D01*
X147539947Y-59904691D01*
X147536797Y-59925926D01*
X147531581Y-59946750D01*
X147524349Y-59966962D01*
X147515170Y-59986368D01*
X147504134Y-60004781D01*
X147491346Y-60022024D01*
X147476930Y-60037930D01*
X147461024Y-60052346D01*
X147443781Y-60065134D01*
X147425368Y-60076170D01*
X147405962Y-60085349D01*
X147385750Y-60092581D01*
X147364926Y-60097797D01*
X147343691Y-60100947D01*
X147322250Y-60102000D01*
X146809750Y-60102000D01*
X146788309Y-60100947D01*
X146767074Y-60097797D01*
X146746250Y-60092581D01*
X146726038Y-60085349D01*
X146706632Y-60076170D01*
X146688219Y-60065134D01*
X146670976Y-60052346D01*
X146655070Y-60037930D01*
X146640654Y-60022024D01*
X146627866Y-60004781D01*
X146616830Y-59986368D01*
X146607651Y-59966962D01*
X146600419Y-59946750D01*
X146595203Y-59925926D01*
X146592053Y-59904691D01*
X146591000Y-59883250D01*
X146591000Y-59445750D01*
X146592053Y-59424309D01*
X146595203Y-59403074D01*
X146600419Y-59382250D01*
X146607651Y-59362038D01*
X146616830Y-59342632D01*
X146627866Y-59324219D01*
X146640654Y-59306976D01*
X146655070Y-59291070D01*
X146670976Y-59276654D01*
X146688219Y-59263866D01*
X146706632Y-59252830D01*
X146726038Y-59243651D01*
X146746250Y-59236419D01*
X146767074Y-59231203D01*
X146788309Y-59228053D01*
X146809750Y-59227000D01*
X147322250Y-59227000D01*
X147343691Y-59228053D01*
X147343691Y-59228053D01*
G37*
D12*
G04 #@! TD*
G04 #@! TO.P,R5,1*
G04 #@! TO.N,GND*
X147066000Y-59664500D03*
D11*
G04 #@! TO.N,GND*
G04 #@! TO.C,R6*
G36*
X145565691Y-59228053D02*
X145586926Y-59231203D01*
X145607750Y-59236419D01*
X145627962Y-59243651D01*
X145647368Y-59252830D01*
X145665781Y-59263866D01*
X145683024Y-59276654D01*
X145698930Y-59291070D01*
X145713346Y-59306976D01*
X145726134Y-59324219D01*
X145737170Y-59342632D01*
X145746349Y-59362038D01*
X145753581Y-59382250D01*
X145758797Y-59403074D01*
X145761947Y-59424309D01*
X145763000Y-59445750D01*
X145763000Y-59883250D01*
X145761947Y-59904691D01*
X145758797Y-59925926D01*
X145753581Y-59946750D01*
X145746349Y-59966962D01*
X145737170Y-59986368D01*
X145726134Y-60004781D01*
X145713346Y-60022024D01*
X145698930Y-60037930D01*
X145683024Y-60052346D01*
X145665781Y-60065134D01*
X145647368Y-60076170D01*
X145627962Y-60085349D01*
X145607750Y-60092581D01*
X145586926Y-60097797D01*
X145565691Y-60100947D01*
X145544250Y-60102000D01*
X145031750Y-60102000D01*
X145010309Y-60100947D01*
X144989074Y-60097797D01*
X144968250Y-60092581D01*
X144948038Y-60085349D01*
X144928632Y-60076170D01*
X144910219Y-60065134D01*
X144892976Y-60052346D01*
X144877070Y-60037930D01*
X144862654Y-60022024D01*
X144849866Y-60004781D01*
X144838830Y-59986368D01*
X144829651Y-59966962D01*
X144822419Y-59946750D01*
X144817203Y-59925926D01*
X144814053Y-59904691D01*
X144813000Y-59883250D01*
X144813000Y-59445750D01*
X144814053Y-59424309D01*
X144817203Y-59403074D01*
X144822419Y-59382250D01*
X144829651Y-59362038D01*
X144838830Y-59342632D01*
X144849866Y-59324219D01*
X144862654Y-59306976D01*
X144877070Y-59291070D01*
X144892976Y-59276654D01*
X144910219Y-59263866D01*
X144928632Y-59252830D01*
X144948038Y-59243651D01*
X144968250Y-59236419D01*
X144989074Y-59231203D01*
X145010309Y-59228053D01*
X145031750Y-59227000D01*
X145544250Y-59227000D01*
X145565691Y-59228053D01*
X145565691Y-59228053D01*
G37*
D12*
G04 #@! TD*
G04 #@! TO.P,R6,1*
G04 #@! TO.N,GND*
X145288000Y-59664500D03*
D11*
G04 #@! TO.N,Net-(D2-Pad2)*
G04 #@! TO.C,R6*
G36*
X145565691Y-60803053D02*
X145586926Y-60806203D01*
X145607750Y-60811419D01*
X145627962Y-60818651D01*
X145647368Y-60827830D01*
X145665781Y-60838866D01*
X145683024Y-60851654D01*
X145698930Y-60866070D01*
X145713346Y-60881976D01*
X145726134Y-60899219D01*
X145737170Y-60917632D01*
X145746349Y-60937038D01*
X145753581Y-60957250D01*
X145758797Y-60978074D01*
X145761947Y-60999309D01*
X145763000Y-61020750D01*
X145763000Y-61458250D01*
X145761947Y-61479691D01*
X145758797Y-61500926D01*
X145753581Y-61521750D01*
X145746349Y-61541962D01*
X145737170Y-61561368D01*
X145726134Y-61579781D01*
X145713346Y-61597024D01*
X145698930Y-61612930D01*
X145683024Y-61627346D01*
X145665781Y-61640134D01*
X145647368Y-61651170D01*
X145627962Y-61660349D01*
X145607750Y-61667581D01*
X145586926Y-61672797D01*
X145565691Y-61675947D01*
X145544250Y-61677000D01*
X145031750Y-61677000D01*
X145010309Y-61675947D01*
X144989074Y-61672797D01*
X144968250Y-61667581D01*
X144948038Y-61660349D01*
X144928632Y-61651170D01*
X144910219Y-61640134D01*
X144892976Y-61627346D01*
X144877070Y-61612930D01*
X144862654Y-61597024D01*
X144849866Y-61579781D01*
X144838830Y-61561368D01*
X144829651Y-61541962D01*
X144822419Y-61521750D01*
X144817203Y-61500926D01*
X144814053Y-61479691D01*
X144813000Y-61458250D01*
X144813000Y-61020750D01*
X144814053Y-60999309D01*
X144817203Y-60978074D01*
X144822419Y-60957250D01*
X144829651Y-60937038D01*
X144838830Y-60917632D01*
X144849866Y-60899219D01*
X144862654Y-60881976D01*
X144877070Y-60866070D01*
X144892976Y-60851654D01*
X144910219Y-60838866D01*
X144928632Y-60827830D01*
X144948038Y-60818651D01*
X144968250Y-60811419D01*
X144989074Y-60806203D01*
X145010309Y-60803053D01*
X145031750Y-60802000D01*
X145544250Y-60802000D01*
X145565691Y-60803053D01*
X145565691Y-60803053D01*
G37*
D12*
G04 #@! TD*
G04 #@! TO.P,R6,2*
G04 #@! TO.N,Net-(D2-Pad2)*
X145288000Y-61239500D03*
D10*
G04 #@! TO.P,SW4,2*
G04 #@! TO.N,GND*
X114178000Y-93320000D03*
X114178000Y-87020000D03*
G04 #@! TO.P,SW4,1*
G04 #@! TO.N,/GPIO14*
X117978000Y-93320000D03*
X117978000Y-87020000D03*
G04 #@! TD*
D13*
G04 #@! TO.P,J1,1*
G04 #@! TO.N,+3V3*
X176171893Y-30524875D03*
D14*
G04 #@! TO.P,J1,2*
G04 #@! TO.N,Net-(J1-Pad2)*
X173631893Y-30524875D03*
G04 #@! TO.P,J1,3*
G04 #@! TO.N,/GPIO36*
X171091893Y-30524875D03*
G04 #@! TO.P,J1,4*
G04 #@! TO.N,/GPIO39*
X168551893Y-30524875D03*
G04 #@! TO.P,J1,5*
G04 #@! TO.N,/GPIO34*
X166011893Y-30524875D03*
G04 #@! TO.P,J1,6*
G04 #@! TO.N,/GPIO35*
X163471893Y-30524875D03*
G04 #@! TO.P,J1,7*
G04 #@! TO.N,/GPIO32*
X160931893Y-30524875D03*
G04 #@! TO.P,J1,8*
G04 #@! TO.N,Net-(J1-Pad8)*
X158391893Y-30524875D03*
G04 #@! TO.P,J1,9*
G04 #@! TO.N,/GPIO25*
X155851893Y-30524875D03*
G04 #@! TO.P,J1,10*
G04 #@! TO.N,/GPIO26*
X153311893Y-30524875D03*
G04 #@! TO.P,J1,11*
G04 #@! TO.N,/GPIO27*
X150771893Y-30524875D03*
G04 #@! TO.P,J1,12*
G04 #@! TO.N,/GPIO14*
X148231893Y-30524875D03*
G04 #@! TO.P,J1,13*
G04 #@! TO.N,/GPIO12*
X145691893Y-30524875D03*
G04 #@! TO.P,J1,14*
G04 #@! TO.N,GND*
X143151893Y-30524875D03*
G04 #@! TO.P,J1,15*
G04 #@! TO.N,/GPIO13*
X140611893Y-30524875D03*
G04 #@! TO.P,J1,16*
G04 #@! TO.N,Net-(J1-Pad16)*
X138071893Y-30524875D03*
G04 #@! TO.P,J1,17*
G04 #@! TO.N,Net-(J1-Pad17)*
X135531893Y-30524875D03*
G04 #@! TO.P,J1,18*
G04 #@! TO.N,Net-(J1-Pad18)*
X132991893Y-30524875D03*
G04 #@! TO.P,J1,19*
G04 #@! TO.N,+5V*
X130451893Y-30524875D03*
G04 #@! TD*
D13*
G04 #@! TO.P,J4,1*
G04 #@! TO.N,+3V3*
X179223687Y-17795040D03*
D14*
G04 #@! TO.P,J4,2*
G04 #@! TO.N,GND*
X176683687Y-17795040D03*
G04 #@! TO.P,J4,3*
G04 #@! TO.N,/GPIO34*
X174143687Y-17795040D03*
G04 #@! TO.P,J4,4*
G04 #@! TO.N,/GPIO35*
X171603687Y-17795040D03*
G04 #@! TD*
G04 #@! TO.P,J6,4*
G04 #@! TO.N,/GPIO35*
X171603687Y-22875040D03*
G04 #@! TO.P,J6,3*
G04 #@! TO.N,/GPIO34*
X174143687Y-22875040D03*
G04 #@! TO.P,J6,2*
G04 #@! TO.N,GND*
X176683687Y-22875040D03*
D13*
G04 #@! TO.P,J6,1*
G04 #@! TO.N,+3V3*
X179223687Y-22875040D03*
G04 #@! TD*
D14*
G04 #@! TO.P,J8,6*
G04 #@! TO.N,/GPIO4*
X148298697Y-20341486D03*
G04 #@! TO.P,J8,5*
G04 #@! TO.N,/GPIO27*
X150838697Y-20341486D03*
G04 #@! TO.P,J8,4*
G04 #@! TO.N,/GPIO26*
X153378697Y-20341486D03*
G04 #@! TO.P,J8,3*
G04 #@! TO.N,/GPIO25*
X155918697Y-20341486D03*
G04 #@! TO.P,J8,2*
G04 #@! TO.N,GND*
X158458697Y-20341486D03*
D13*
G04 #@! TO.P,J8,1*
G04 #@! TO.N,+3V3*
X160998697Y-20341486D03*
G04 #@! TD*
G04 #@! TO.P,J9,1*
G04 #@! TO.N,+3V3*
X160998697Y-22881486D03*
D14*
G04 #@! TO.P,J9,2*
G04 #@! TO.N,GND*
X158458697Y-22881486D03*
G04 #@! TO.P,J9,3*
G04 #@! TO.N,/GPIO25*
X155918697Y-22881486D03*
G04 #@! TO.P,J9,4*
G04 #@! TO.N,/GPIO26*
X153378697Y-22881486D03*
G04 #@! TO.P,J9,5*
G04 #@! TO.N,/GPIO27*
X150838697Y-22881486D03*
G04 #@! TO.P,J9,6*
G04 #@! TO.N,/GPIO4*
X148298697Y-22881486D03*
G04 #@! TD*
D13*
G04 #@! TO.P,J7,1*
G04 #@! TO.N,+3V3*
X160998697Y-17801486D03*
D14*
G04 #@! TO.P,J7,2*
G04 #@! TO.N,GND*
X158458697Y-17801486D03*
G04 #@! TO.P,J7,3*
G04 #@! TO.N,/GPIO25*
X155918697Y-17801486D03*
G04 #@! TO.P,J7,4*
G04 #@! TO.N,/GPIO26*
X153378697Y-17801486D03*
G04 #@! TO.P,J7,5*
G04 #@! TO.N,/GPIO27*
X150838697Y-17801486D03*
G04 #@! TO.P,J7,6*
G04 #@! TO.N,/GPIO4*
X148298697Y-17801486D03*
G04 #@! TD*
G04 #@! TO.P,J5,4*
G04 #@! TO.N,/GPIO35*
X171603687Y-20335040D03*
G04 #@! TO.P,J5,3*
G04 #@! TO.N,/GPIO34*
X174143687Y-20335040D03*
G04 #@! TO.P,J5,2*
G04 #@! TO.N,GND*
X176683687Y-20335040D03*
D13*
G04 #@! TO.P,J5,1*
G04 #@! TO.N,+3V3*
X179223687Y-20335040D03*
G04 #@! TD*
D14*
G04 #@! TO.P,J2,19*
G04 #@! TO.N,Net-(J2-Pad19)*
X130451893Y-55924875D03*
G04 #@! TO.P,J2,18*
G04 #@! TO.N,Net-(J2-Pad18)*
X132991893Y-55924875D03*
G04 #@! TO.P,J2,17*
G04 #@! TO.N,Net-(J2-Pad17)*
X135531893Y-55924875D03*
G04 #@! TO.P,J2,16*
G04 #@! TO.N,/GPIO15*
X138071893Y-55924875D03*
G04 #@! TO.P,J2,15*
G04 #@! TO.N,Net-(J2-Pad15)*
X140611893Y-55924875D03*
G04 #@! TO.P,J2,14*
G04 #@! TO.N,Net-(J2-Pad14)*
X143151893Y-55924875D03*
G04 #@! TO.P,J2,13*
G04 #@! TO.N,/GPIO4*
X145691893Y-55924875D03*
G04 #@! TO.P,J2,12*
G04 #@! TO.N,/GPIO16*
X148231893Y-55924875D03*
G04 #@! TO.P,J2,11*
G04 #@! TO.N,/GPIO17*
X150771893Y-55924875D03*
G04 #@! TO.P,J2,10*
G04 #@! TO.N,/VSPI_CS*
X153311893Y-55924875D03*
G04 #@! TO.P,J2,9*
G04 #@! TO.N,/VSPI_SCK*
X155851893Y-55924875D03*
G04 #@! TO.P,J2,8*
G04 #@! TO.N,/VSPI_MISO*
X158391893Y-55924875D03*
G04 #@! TO.P,J2,7*
G04 #@! TO.N,GND*
X160931893Y-55924875D03*
G04 #@! TO.P,J2,6*
G04 #@! TO.N,/LCD_RST*
X163471893Y-55924875D03*
G04 #@! TO.P,J2,5*
G04 #@! TO.N,Net-(J2-Pad5)*
X166011893Y-55924875D03*
G04 #@! TO.P,J2,4*
G04 #@! TO.N,Net-(J2-Pad4)*
X168551893Y-55924875D03*
G04 #@! TO.P,J2,3*
G04 #@! TO.N,/LCD_DC*
X171091893Y-55924875D03*
G04 #@! TO.P,J2,2*
G04 #@! TO.N,/VSPI_MOSI*
X173631893Y-55924875D03*
D13*
G04 #@! TO.P,J2,1*
G04 #@! TO.N,GND*
X176171893Y-55924875D03*
G04 #@! TD*
D11*
G04 #@! TO.N,/GPIO14*
G04 #@! TO.C,C5*
G36*
X148486691Y-35530053D02*
X148507926Y-35533203D01*
X148528750Y-35538419D01*
X148548962Y-35545651D01*
X148568368Y-35554830D01*
X148586781Y-35565866D01*
X148604024Y-35578654D01*
X148619930Y-35593070D01*
X148634346Y-35608976D01*
X148647134Y-35626219D01*
X148658170Y-35644632D01*
X148667349Y-35664038D01*
X148674581Y-35684250D01*
X148679797Y-35705074D01*
X148682947Y-35726309D01*
X148684000Y-35747750D01*
X148684000Y-36185250D01*
X148682947Y-36206691D01*
X148679797Y-36227926D01*
X148674581Y-36248750D01*
X148667349Y-36268962D01*
X148658170Y-36288368D01*
X148647134Y-36306781D01*
X148634346Y-36324024D01*
X148619930Y-36339930D01*
X148604024Y-36354346D01*
X148586781Y-36367134D01*
X148568368Y-36378170D01*
X148548962Y-36387349D01*
X148528750Y-36394581D01*
X148507926Y-36399797D01*
X148486691Y-36402947D01*
X148465250Y-36404000D01*
X147952750Y-36404000D01*
X147931309Y-36402947D01*
X147910074Y-36399797D01*
X147889250Y-36394581D01*
X147869038Y-36387349D01*
X147849632Y-36378170D01*
X147831219Y-36367134D01*
X147813976Y-36354346D01*
X147798070Y-36339930D01*
X147783654Y-36324024D01*
X147770866Y-36306781D01*
X147759830Y-36288368D01*
X147750651Y-36268962D01*
X147743419Y-36248750D01*
X147738203Y-36227926D01*
X147735053Y-36206691D01*
X147734000Y-36185250D01*
X147734000Y-35747750D01*
X147735053Y-35726309D01*
X147738203Y-35705074D01*
X147743419Y-35684250D01*
X147750651Y-35664038D01*
X147759830Y-35644632D01*
X147770866Y-35626219D01*
X147783654Y-35608976D01*
X147798070Y-35593070D01*
X147813976Y-35578654D01*
X147831219Y-35565866D01*
X147849632Y-35554830D01*
X147869038Y-35545651D01*
X147889250Y-35538419D01*
X147910074Y-35533203D01*
X147931309Y-35530053D01*
X147952750Y-35529000D01*
X148465250Y-35529000D01*
X148486691Y-35530053D01*
X148486691Y-35530053D01*
G37*
D12*
G04 #@! TD*
G04 #@! TO.P,C5,2*
G04 #@! TO.N,/GPIO14*
X148209000Y-35966500D03*
D11*
G04 #@! TO.N,GND*
G04 #@! TO.C,C5*
G36*
X148486691Y-33955053D02*
X148507926Y-33958203D01*
X148528750Y-33963419D01*
X148548962Y-33970651D01*
X148568368Y-33979830D01*
X148586781Y-33990866D01*
X148604024Y-34003654D01*
X148619930Y-34018070D01*
X148634346Y-34033976D01*
X148647134Y-34051219D01*
X148658170Y-34069632D01*
X148667349Y-34089038D01*
X148674581Y-34109250D01*
X148679797Y-34130074D01*
X148682947Y-34151309D01*
X148684000Y-34172750D01*
X148684000Y-34610250D01*
X148682947Y-34631691D01*
X148679797Y-34652926D01*
X148674581Y-34673750D01*
X148667349Y-34693962D01*
X148658170Y-34713368D01*
X148647134Y-34731781D01*
X148634346Y-34749024D01*
X148619930Y-34764930D01*
X148604024Y-34779346D01*
X148586781Y-34792134D01*
X148568368Y-34803170D01*
X148548962Y-34812349D01*
X148528750Y-34819581D01*
X148507926Y-34824797D01*
X148486691Y-34827947D01*
X148465250Y-34829000D01*
X147952750Y-34829000D01*
X147931309Y-34827947D01*
X147910074Y-34824797D01*
X147889250Y-34819581D01*
X147869038Y-34812349D01*
X147849632Y-34803170D01*
X147831219Y-34792134D01*
X147813976Y-34779346D01*
X147798070Y-34764930D01*
X147783654Y-34749024D01*
X147770866Y-34731781D01*
X147759830Y-34713368D01*
X147750651Y-34693962D01*
X147743419Y-34673750D01*
X147738203Y-34652926D01*
X147735053Y-34631691D01*
X147734000Y-34610250D01*
X147734000Y-34172750D01*
X147735053Y-34151309D01*
X147738203Y-34130074D01*
X147743419Y-34109250D01*
X147750651Y-34089038D01*
X147759830Y-34069632D01*
X147770866Y-34051219D01*
X147783654Y-34033976D01*
X147798070Y-34018070D01*
X147813976Y-34003654D01*
X147831219Y-33990866D01*
X147849632Y-33979830D01*
X147869038Y-33970651D01*
X147889250Y-33963419D01*
X147910074Y-33958203D01*
X147931309Y-33955053D01*
X147952750Y-33954000D01*
X148465250Y-33954000D01*
X148486691Y-33955053D01*
X148486691Y-33955053D01*
G37*
D12*
G04 #@! TD*
G04 #@! TO.P,C5,1*
G04 #@! TO.N,GND*
X148209000Y-34391500D03*
D11*
G04 #@! TO.N,/VSPI_CS*
G04 #@! TO.C,J10*
G36*
X172337252Y-87050602D02*
X172349386Y-87052402D01*
X172361286Y-87055382D01*
X172372835Y-87059515D01*
X172383925Y-87064760D01*
X172394446Y-87071066D01*
X172404299Y-87078374D01*
X172413388Y-87086612D01*
X172421626Y-87095701D01*
X172428934Y-87105554D01*
X172435240Y-87116075D01*
X172440485Y-87127165D01*
X172444618Y-87138714D01*
X172447598Y-87150614D01*
X172449398Y-87162748D01*
X172450000Y-87175000D01*
X172450000Y-87425000D01*
X172449398Y-87437252D01*
X172447598Y-87449386D01*
X172444618Y-87461286D01*
X172440485Y-87472835D01*
X172435240Y-87483925D01*
X172428934Y-87494446D01*
X172421626Y-87504299D01*
X172413388Y-87513388D01*
X172404299Y-87521626D01*
X172394446Y-87528934D01*
X172383925Y-87535240D01*
X172372835Y-87540485D01*
X172361286Y-87544618D01*
X172349386Y-87547598D01*
X172337252Y-87549398D01*
X172325000Y-87550000D01*
X170575000Y-87550000D01*
X170562748Y-87549398D01*
X170550614Y-87547598D01*
X170538714Y-87544618D01*
X170527165Y-87540485D01*
X170516075Y-87535240D01*
X170505554Y-87528934D01*
X170495701Y-87521626D01*
X170486612Y-87513388D01*
X170478374Y-87504299D01*
X170471066Y-87494446D01*
X170464760Y-87483925D01*
X170459515Y-87472835D01*
X170455382Y-87461286D01*
X170452402Y-87449386D01*
X170450602Y-87437252D01*
X170450000Y-87425000D01*
X170450000Y-87175000D01*
X170450602Y-87162748D01*
X170452402Y-87150614D01*
X170455382Y-87138714D01*
X170459515Y-87127165D01*
X170464760Y-87116075D01*
X170471066Y-87105554D01*
X170478374Y-87095701D01*
X170486612Y-87086612D01*
X170495701Y-87078374D01*
X170505554Y-87071066D01*
X170516075Y-87064760D01*
X170527165Y-87059515D01*
X170538714Y-87055382D01*
X170550614Y-87052402D01*
X170562748Y-87050602D01*
X170575000Y-87050000D01*
X172325000Y-87050000D01*
X172337252Y-87050602D01*
X172337252Y-87050602D01*
G37*
D15*
G04 #@! TD*
G04 #@! TO.P,J10,5*
G04 #@! TO.N,/VSPI_CS*
X171450000Y-87300000D03*
D11*
G04 #@! TO.N,GND*
G04 #@! TO.C,J10*
G36*
X172337252Y-90250602D02*
X172349386Y-90252402D01*
X172361286Y-90255382D01*
X172372835Y-90259515D01*
X172383925Y-90264760D01*
X172394446Y-90271066D01*
X172404299Y-90278374D01*
X172413388Y-90286612D01*
X172421626Y-90295701D01*
X172428934Y-90305554D01*
X172435240Y-90316075D01*
X172440485Y-90327165D01*
X172444618Y-90338714D01*
X172447598Y-90350614D01*
X172449398Y-90362748D01*
X172450000Y-90375000D01*
X172450000Y-90625000D01*
X172449398Y-90637252D01*
X172447598Y-90649386D01*
X172444618Y-90661286D01*
X172440485Y-90672835D01*
X172435240Y-90683925D01*
X172428934Y-90694446D01*
X172421626Y-90704299D01*
X172413388Y-90713388D01*
X172404299Y-90721626D01*
X172394446Y-90728934D01*
X172383925Y-90735240D01*
X172372835Y-90740485D01*
X172361286Y-90744618D01*
X172349386Y-90747598D01*
X172337252Y-90749398D01*
X172325000Y-90750000D01*
X170575000Y-90750000D01*
X170562748Y-90749398D01*
X170550614Y-90747598D01*
X170538714Y-90744618D01*
X170527165Y-90740485D01*
X170516075Y-90735240D01*
X170505554Y-90728934D01*
X170495701Y-90721626D01*
X170486612Y-90713388D01*
X170478374Y-90704299D01*
X170471066Y-90694446D01*
X170464760Y-90683925D01*
X170459515Y-90672835D01*
X170455382Y-90661286D01*
X170452402Y-90649386D01*
X170450602Y-90637252D01*
X170450000Y-90625000D01*
X170450000Y-90375000D01*
X170450602Y-90362748D01*
X170452402Y-90350614D01*
X170455382Y-90338714D01*
X170459515Y-90327165D01*
X170464760Y-90316075D01*
X170471066Y-90305554D01*
X170478374Y-90295701D01*
X170486612Y-90286612D01*
X170495701Y-90278374D01*
X170505554Y-90271066D01*
X170516075Y-90264760D01*
X170527165Y-90259515D01*
X170538714Y-90255382D01*
X170550614Y-90252402D01*
X170562748Y-90250602D01*
X170575000Y-90250000D01*
X172325000Y-90250000D01*
X172337252Y-90250602D01*
X172337252Y-90250602D01*
G37*
D15*
G04 #@! TD*
G04 #@! TO.P,J10,1*
G04 #@! TO.N,GND*
X171450000Y-90500000D03*
D11*
G04 #@! TO.N,Net-(J10-Pad15)*
G04 #@! TO.C,J10*
G36*
X172337252Y-79050602D02*
X172349386Y-79052402D01*
X172361286Y-79055382D01*
X172372835Y-79059515D01*
X172383925Y-79064760D01*
X172394446Y-79071066D01*
X172404299Y-79078374D01*
X172413388Y-79086612D01*
X172421626Y-79095701D01*
X172428934Y-79105554D01*
X172435240Y-79116075D01*
X172440485Y-79127165D01*
X172444618Y-79138714D01*
X172447598Y-79150614D01*
X172449398Y-79162748D01*
X172450000Y-79175000D01*
X172450000Y-79425000D01*
X172449398Y-79437252D01*
X172447598Y-79449386D01*
X172444618Y-79461286D01*
X172440485Y-79472835D01*
X172435240Y-79483925D01*
X172428934Y-79494446D01*
X172421626Y-79504299D01*
X172413388Y-79513388D01*
X172404299Y-79521626D01*
X172394446Y-79528934D01*
X172383925Y-79535240D01*
X172372835Y-79540485D01*
X172361286Y-79544618D01*
X172349386Y-79547598D01*
X172337252Y-79549398D01*
X172325000Y-79550000D01*
X170575000Y-79550000D01*
X170562748Y-79549398D01*
X170550614Y-79547598D01*
X170538714Y-79544618D01*
X170527165Y-79540485D01*
X170516075Y-79535240D01*
X170505554Y-79528934D01*
X170495701Y-79521626D01*
X170486612Y-79513388D01*
X170478374Y-79504299D01*
X170471066Y-79494446D01*
X170464760Y-79483925D01*
X170459515Y-79472835D01*
X170455382Y-79461286D01*
X170452402Y-79449386D01*
X170450602Y-79437252D01*
X170450000Y-79425000D01*
X170450000Y-79175000D01*
X170450602Y-79162748D01*
X170452402Y-79150614D01*
X170455382Y-79138714D01*
X170459515Y-79127165D01*
X170464760Y-79116075D01*
X170471066Y-79105554D01*
X170478374Y-79095701D01*
X170486612Y-79086612D01*
X170495701Y-79078374D01*
X170505554Y-79071066D01*
X170516075Y-79064760D01*
X170527165Y-79059515D01*
X170538714Y-79055382D01*
X170550614Y-79052402D01*
X170562748Y-79050602D01*
X170575000Y-79050000D01*
X172325000Y-79050000D01*
X172337252Y-79050602D01*
X172337252Y-79050602D01*
G37*
D15*
G04 #@! TD*
G04 #@! TO.P,J10,15*
G04 #@! TO.N,Net-(J10-Pad15)*
X171450000Y-79300000D03*
D11*
G04 #@! TO.N,+3V3*
G04 #@! TO.C,J10*
G36*
X172337252Y-83050602D02*
X172349386Y-83052402D01*
X172361286Y-83055382D01*
X172372835Y-83059515D01*
X172383925Y-83064760D01*
X172394446Y-83071066D01*
X172404299Y-83078374D01*
X172413388Y-83086612D01*
X172421626Y-83095701D01*
X172428934Y-83105554D01*
X172435240Y-83116075D01*
X172440485Y-83127165D01*
X172444618Y-83138714D01*
X172447598Y-83150614D01*
X172449398Y-83162748D01*
X172450000Y-83175000D01*
X172450000Y-83425000D01*
X172449398Y-83437252D01*
X172447598Y-83449386D01*
X172444618Y-83461286D01*
X172440485Y-83472835D01*
X172435240Y-83483925D01*
X172428934Y-83494446D01*
X172421626Y-83504299D01*
X172413388Y-83513388D01*
X172404299Y-83521626D01*
X172394446Y-83528934D01*
X172383925Y-83535240D01*
X172372835Y-83540485D01*
X172361286Y-83544618D01*
X172349386Y-83547598D01*
X172337252Y-83549398D01*
X172325000Y-83550000D01*
X170575000Y-83550000D01*
X170562748Y-83549398D01*
X170550614Y-83547598D01*
X170538714Y-83544618D01*
X170527165Y-83540485D01*
X170516075Y-83535240D01*
X170505554Y-83528934D01*
X170495701Y-83521626D01*
X170486612Y-83513388D01*
X170478374Y-83504299D01*
X170471066Y-83494446D01*
X170464760Y-83483925D01*
X170459515Y-83472835D01*
X170455382Y-83461286D01*
X170452402Y-83449386D01*
X170450602Y-83437252D01*
X170450000Y-83425000D01*
X170450000Y-83175000D01*
X170450602Y-83162748D01*
X170452402Y-83150614D01*
X170455382Y-83138714D01*
X170459515Y-83127165D01*
X170464760Y-83116075D01*
X170471066Y-83105554D01*
X170478374Y-83095701D01*
X170486612Y-83086612D01*
X170495701Y-83078374D01*
X170505554Y-83071066D01*
X170516075Y-83064760D01*
X170527165Y-83059515D01*
X170538714Y-83055382D01*
X170550614Y-83052402D01*
X170562748Y-83050602D01*
X170575000Y-83050000D01*
X172325000Y-83050000D01*
X172337252Y-83050602D01*
X172337252Y-83050602D01*
G37*
D15*
G04 #@! TD*
G04 #@! TO.P,J10,10*
G04 #@! TO.N,+3V3*
X171450000Y-83300000D03*
D11*
G04 #@! TO.N,Net-(J10-Pad18)*
G04 #@! TO.C,J10*
G36*
X172337252Y-76650602D02*
X172349386Y-76652402D01*
X172361286Y-76655382D01*
X172372835Y-76659515D01*
X172383925Y-76664760D01*
X172394446Y-76671066D01*
X172404299Y-76678374D01*
X172413388Y-76686612D01*
X172421626Y-76695701D01*
X172428934Y-76705554D01*
X172435240Y-76716075D01*
X172440485Y-76727165D01*
X172444618Y-76738714D01*
X172447598Y-76750614D01*
X172449398Y-76762748D01*
X172450000Y-76775000D01*
X172450000Y-77025000D01*
X172449398Y-77037252D01*
X172447598Y-77049386D01*
X172444618Y-77061286D01*
X172440485Y-77072835D01*
X172435240Y-77083925D01*
X172428934Y-77094446D01*
X172421626Y-77104299D01*
X172413388Y-77113388D01*
X172404299Y-77121626D01*
X172394446Y-77128934D01*
X172383925Y-77135240D01*
X172372835Y-77140485D01*
X172361286Y-77144618D01*
X172349386Y-77147598D01*
X172337252Y-77149398D01*
X172325000Y-77150000D01*
X170575000Y-77150000D01*
X170562748Y-77149398D01*
X170550614Y-77147598D01*
X170538714Y-77144618D01*
X170527165Y-77140485D01*
X170516075Y-77135240D01*
X170505554Y-77128934D01*
X170495701Y-77121626D01*
X170486612Y-77113388D01*
X170478374Y-77104299D01*
X170471066Y-77094446D01*
X170464760Y-77083925D01*
X170459515Y-77072835D01*
X170455382Y-77061286D01*
X170452402Y-77049386D01*
X170450602Y-77037252D01*
X170450000Y-77025000D01*
X170450000Y-76775000D01*
X170450602Y-76762748D01*
X170452402Y-76750614D01*
X170455382Y-76738714D01*
X170459515Y-76727165D01*
X170464760Y-76716075D01*
X170471066Y-76705554D01*
X170478374Y-76695701D01*
X170486612Y-76686612D01*
X170495701Y-76678374D01*
X170505554Y-76671066D01*
X170516075Y-76664760D01*
X170527165Y-76659515D01*
X170538714Y-76655382D01*
X170550614Y-76652402D01*
X170562748Y-76650602D01*
X170575000Y-76650000D01*
X172325000Y-76650000D01*
X172337252Y-76650602D01*
X172337252Y-76650602D01*
G37*
D15*
G04 #@! TD*
G04 #@! TO.P,J10,18*
G04 #@! TO.N,Net-(J10-Pad18)*
X171450000Y-76900000D03*
D11*
G04 #@! TO.N,Net-(J10-Pad11)*
G04 #@! TO.C,J10*
G36*
X172337252Y-80650602D02*
X172349386Y-80652402D01*
X172361286Y-80655382D01*
X172372835Y-80659515D01*
X172383925Y-80664760D01*
X172394446Y-80671066D01*
X172404299Y-80678374D01*
X172413388Y-80686612D01*
X172421626Y-80695701D01*
X172428934Y-80705554D01*
X172435240Y-80716075D01*
X172440485Y-80727165D01*
X172444618Y-80738714D01*
X172447598Y-80750614D01*
X172449398Y-80762748D01*
X172450000Y-80775000D01*
X172450000Y-81025000D01*
X172449398Y-81037252D01*
X172447598Y-81049386D01*
X172444618Y-81061286D01*
X172440485Y-81072835D01*
X172435240Y-81083925D01*
X172428934Y-81094446D01*
X172421626Y-81104299D01*
X172413388Y-81113388D01*
X172404299Y-81121626D01*
X172394446Y-81128934D01*
X172383925Y-81135240D01*
X172372835Y-81140485D01*
X172361286Y-81144618D01*
X172349386Y-81147598D01*
X172337252Y-81149398D01*
X172325000Y-81150000D01*
X170575000Y-81150000D01*
X170562748Y-81149398D01*
X170550614Y-81147598D01*
X170538714Y-81144618D01*
X170527165Y-81140485D01*
X170516075Y-81135240D01*
X170505554Y-81128934D01*
X170495701Y-81121626D01*
X170486612Y-81113388D01*
X170478374Y-81104299D01*
X170471066Y-81094446D01*
X170464760Y-81083925D01*
X170459515Y-81072835D01*
X170455382Y-81061286D01*
X170452402Y-81049386D01*
X170450602Y-81037252D01*
X170450000Y-81025000D01*
X170450000Y-80775000D01*
X170450602Y-80762748D01*
X170452402Y-80750614D01*
X170455382Y-80738714D01*
X170459515Y-80727165D01*
X170464760Y-80716075D01*
X170471066Y-80705554D01*
X170478374Y-80695701D01*
X170486612Y-80686612D01*
X170495701Y-80678374D01*
X170505554Y-80671066D01*
X170516075Y-80664760D01*
X170527165Y-80659515D01*
X170538714Y-80655382D01*
X170550614Y-80652402D01*
X170562748Y-80650602D01*
X170575000Y-80650000D01*
X172325000Y-80650000D01*
X172337252Y-80650602D01*
X172337252Y-80650602D01*
G37*
D15*
G04 #@! TD*
G04 #@! TO.P,J10,13*
G04 #@! TO.N,Net-(J10-Pad11)*
X171450000Y-80900000D03*
D11*
G04 #@! TO.N,N/C*
G04 #@! TO.C,J10*
G36*
X172337252Y-84650602D02*
X172349386Y-84652402D01*
X172361286Y-84655382D01*
X172372835Y-84659515D01*
X172383925Y-84664760D01*
X172394446Y-84671066D01*
X172404299Y-84678374D01*
X172413388Y-84686612D01*
X172421626Y-84695701D01*
X172428934Y-84705554D01*
X172435240Y-84716075D01*
X172440485Y-84727165D01*
X172444618Y-84738714D01*
X172447598Y-84750614D01*
X172449398Y-84762748D01*
X172450000Y-84775000D01*
X172450000Y-85025000D01*
X172449398Y-85037252D01*
X172447598Y-85049386D01*
X172444618Y-85061286D01*
X172440485Y-85072835D01*
X172435240Y-85083925D01*
X172428934Y-85094446D01*
X172421626Y-85104299D01*
X172413388Y-85113388D01*
X172404299Y-85121626D01*
X172394446Y-85128934D01*
X172383925Y-85135240D01*
X172372835Y-85140485D01*
X172361286Y-85144618D01*
X172349386Y-85147598D01*
X172337252Y-85149398D01*
X172325000Y-85150000D01*
X170575000Y-85150000D01*
X170562748Y-85149398D01*
X170550614Y-85147598D01*
X170538714Y-85144618D01*
X170527165Y-85140485D01*
X170516075Y-85135240D01*
X170505554Y-85128934D01*
X170495701Y-85121626D01*
X170486612Y-85113388D01*
X170478374Y-85104299D01*
X170471066Y-85094446D01*
X170464760Y-85083925D01*
X170459515Y-85072835D01*
X170455382Y-85061286D01*
X170452402Y-85049386D01*
X170450602Y-85037252D01*
X170450000Y-85025000D01*
X170450000Y-84775000D01*
X170450602Y-84762748D01*
X170452402Y-84750614D01*
X170455382Y-84738714D01*
X170459515Y-84727165D01*
X170464760Y-84716075D01*
X170471066Y-84705554D01*
X170478374Y-84695701D01*
X170486612Y-84686612D01*
X170495701Y-84678374D01*
X170505554Y-84671066D01*
X170516075Y-84664760D01*
X170527165Y-84659515D01*
X170538714Y-84655382D01*
X170550614Y-84652402D01*
X170562748Y-84650602D01*
X170575000Y-84650000D01*
X172325000Y-84650000D01*
X172337252Y-84650602D01*
X172337252Y-84650602D01*
G37*
D15*
G04 #@! TD*
G04 #@! TO.P,J10,8*
G04 #@! TO.N,N/C*
X171450000Y-84900000D03*
D11*
G04 #@! TO.N,/VSPI_MISO*
G04 #@! TO.C,J10*
G36*
X172337252Y-85450602D02*
X172349386Y-85452402D01*
X172361286Y-85455382D01*
X172372835Y-85459515D01*
X172383925Y-85464760D01*
X172394446Y-85471066D01*
X172404299Y-85478374D01*
X172413388Y-85486612D01*
X172421626Y-85495701D01*
X172428934Y-85505554D01*
X172435240Y-85516075D01*
X172440485Y-85527165D01*
X172444618Y-85538714D01*
X172447598Y-85550614D01*
X172449398Y-85562748D01*
X172450000Y-85575000D01*
X172450000Y-85825000D01*
X172449398Y-85837252D01*
X172447598Y-85849386D01*
X172444618Y-85861286D01*
X172440485Y-85872835D01*
X172435240Y-85883925D01*
X172428934Y-85894446D01*
X172421626Y-85904299D01*
X172413388Y-85913388D01*
X172404299Y-85921626D01*
X172394446Y-85928934D01*
X172383925Y-85935240D01*
X172372835Y-85940485D01*
X172361286Y-85944618D01*
X172349386Y-85947598D01*
X172337252Y-85949398D01*
X172325000Y-85950000D01*
X170575000Y-85950000D01*
X170562748Y-85949398D01*
X170550614Y-85947598D01*
X170538714Y-85944618D01*
X170527165Y-85940485D01*
X170516075Y-85935240D01*
X170505554Y-85928934D01*
X170495701Y-85921626D01*
X170486612Y-85913388D01*
X170478374Y-85904299D01*
X170471066Y-85894446D01*
X170464760Y-85883925D01*
X170459515Y-85872835D01*
X170455382Y-85861286D01*
X170452402Y-85849386D01*
X170450602Y-85837252D01*
X170450000Y-85825000D01*
X170450000Y-85575000D01*
X170450602Y-85562748D01*
X170452402Y-85550614D01*
X170455382Y-85538714D01*
X170459515Y-85527165D01*
X170464760Y-85516075D01*
X170471066Y-85505554D01*
X170478374Y-85495701D01*
X170486612Y-85486612D01*
X170495701Y-85478374D01*
X170505554Y-85471066D01*
X170516075Y-85464760D01*
X170527165Y-85459515D01*
X170538714Y-85455382D01*
X170550614Y-85452402D01*
X170562748Y-85450602D01*
X170575000Y-85450000D01*
X172325000Y-85450000D01*
X172337252Y-85450602D01*
X172337252Y-85450602D01*
G37*
D15*
G04 #@! TD*
G04 #@! TO.P,J10,7*
G04 #@! TO.N,/VSPI_MISO*
X171450000Y-85700000D03*
D11*
G04 #@! TO.N,Net-(J10-Pad17)*
G04 #@! TO.C,J10*
G36*
X172337252Y-77450602D02*
X172349386Y-77452402D01*
X172361286Y-77455382D01*
X172372835Y-77459515D01*
X172383925Y-77464760D01*
X172394446Y-77471066D01*
X172404299Y-77478374D01*
X172413388Y-77486612D01*
X172421626Y-77495701D01*
X172428934Y-77505554D01*
X172435240Y-77516075D01*
X172440485Y-77527165D01*
X172444618Y-77538714D01*
X172447598Y-77550614D01*
X172449398Y-77562748D01*
X172450000Y-77575000D01*
X172450000Y-77825000D01*
X172449398Y-77837252D01*
X172447598Y-77849386D01*
X172444618Y-77861286D01*
X172440485Y-77872835D01*
X172435240Y-77883925D01*
X172428934Y-77894446D01*
X172421626Y-77904299D01*
X172413388Y-77913388D01*
X172404299Y-77921626D01*
X172394446Y-77928934D01*
X172383925Y-77935240D01*
X172372835Y-77940485D01*
X172361286Y-77944618D01*
X172349386Y-77947598D01*
X172337252Y-77949398D01*
X172325000Y-77950000D01*
X170575000Y-77950000D01*
X170562748Y-77949398D01*
X170550614Y-77947598D01*
X170538714Y-77944618D01*
X170527165Y-77940485D01*
X170516075Y-77935240D01*
X170505554Y-77928934D01*
X170495701Y-77921626D01*
X170486612Y-77913388D01*
X170478374Y-77904299D01*
X170471066Y-77894446D01*
X170464760Y-77883925D01*
X170459515Y-77872835D01*
X170455382Y-77861286D01*
X170452402Y-77849386D01*
X170450602Y-77837252D01*
X170450000Y-77825000D01*
X170450000Y-77575000D01*
X170450602Y-77562748D01*
X170452402Y-77550614D01*
X170455382Y-77538714D01*
X170459515Y-77527165D01*
X170464760Y-77516075D01*
X170471066Y-77505554D01*
X170478374Y-77495701D01*
X170486612Y-77486612D01*
X170495701Y-77478374D01*
X170505554Y-77471066D01*
X170516075Y-77464760D01*
X170527165Y-77459515D01*
X170538714Y-77455382D01*
X170550614Y-77452402D01*
X170562748Y-77450602D01*
X170575000Y-77450000D01*
X172325000Y-77450000D01*
X172337252Y-77450602D01*
X172337252Y-77450602D01*
G37*
D15*
G04 #@! TD*
G04 #@! TO.P,J10,17*
G04 #@! TO.N,Net-(J10-Pad17)*
X171450000Y-77700000D03*
D11*
G04 #@! TO.N,Net-(J10-Pad11)*
G04 #@! TO.C,J10*
G36*
X172337252Y-81450602D02*
X172349386Y-81452402D01*
X172361286Y-81455382D01*
X172372835Y-81459515D01*
X172383925Y-81464760D01*
X172394446Y-81471066D01*
X172404299Y-81478374D01*
X172413388Y-81486612D01*
X172421626Y-81495701D01*
X172428934Y-81505554D01*
X172435240Y-81516075D01*
X172440485Y-81527165D01*
X172444618Y-81538714D01*
X172447598Y-81550614D01*
X172449398Y-81562748D01*
X172450000Y-81575000D01*
X172450000Y-81825000D01*
X172449398Y-81837252D01*
X172447598Y-81849386D01*
X172444618Y-81861286D01*
X172440485Y-81872835D01*
X172435240Y-81883925D01*
X172428934Y-81894446D01*
X172421626Y-81904299D01*
X172413388Y-81913388D01*
X172404299Y-81921626D01*
X172394446Y-81928934D01*
X172383925Y-81935240D01*
X172372835Y-81940485D01*
X172361286Y-81944618D01*
X172349386Y-81947598D01*
X172337252Y-81949398D01*
X172325000Y-81950000D01*
X170575000Y-81950000D01*
X170562748Y-81949398D01*
X170550614Y-81947598D01*
X170538714Y-81944618D01*
X170527165Y-81940485D01*
X170516075Y-81935240D01*
X170505554Y-81928934D01*
X170495701Y-81921626D01*
X170486612Y-81913388D01*
X170478374Y-81904299D01*
X170471066Y-81894446D01*
X170464760Y-81883925D01*
X170459515Y-81872835D01*
X170455382Y-81861286D01*
X170452402Y-81849386D01*
X170450602Y-81837252D01*
X170450000Y-81825000D01*
X170450000Y-81575000D01*
X170450602Y-81562748D01*
X170452402Y-81550614D01*
X170455382Y-81538714D01*
X170459515Y-81527165D01*
X170464760Y-81516075D01*
X170471066Y-81505554D01*
X170478374Y-81495701D01*
X170486612Y-81486612D01*
X170495701Y-81478374D01*
X170505554Y-81471066D01*
X170516075Y-81464760D01*
X170527165Y-81459515D01*
X170538714Y-81455382D01*
X170550614Y-81452402D01*
X170562748Y-81450602D01*
X170575000Y-81450000D01*
X172325000Y-81450000D01*
X172337252Y-81450602D01*
X172337252Y-81450602D01*
G37*
D15*
G04 #@! TD*
G04 #@! TO.P,J10,12*
G04 #@! TO.N,Net-(J10-Pad11)*
X171450000Y-81700000D03*
D11*
G04 #@! TO.N,/VSPI_SCK*
G04 #@! TO.C,J10*
G36*
X172337252Y-88650602D02*
X172349386Y-88652402D01*
X172361286Y-88655382D01*
X172372835Y-88659515D01*
X172383925Y-88664760D01*
X172394446Y-88671066D01*
X172404299Y-88678374D01*
X172413388Y-88686612D01*
X172421626Y-88695701D01*
X172428934Y-88705554D01*
X172435240Y-88716075D01*
X172440485Y-88727165D01*
X172444618Y-88738714D01*
X172447598Y-88750614D01*
X172449398Y-88762748D01*
X172450000Y-88775000D01*
X172450000Y-89025000D01*
X172449398Y-89037252D01*
X172447598Y-89049386D01*
X172444618Y-89061286D01*
X172440485Y-89072835D01*
X172435240Y-89083925D01*
X172428934Y-89094446D01*
X172421626Y-89104299D01*
X172413388Y-89113388D01*
X172404299Y-89121626D01*
X172394446Y-89128934D01*
X172383925Y-89135240D01*
X172372835Y-89140485D01*
X172361286Y-89144618D01*
X172349386Y-89147598D01*
X172337252Y-89149398D01*
X172325000Y-89150000D01*
X170575000Y-89150000D01*
X170562748Y-89149398D01*
X170550614Y-89147598D01*
X170538714Y-89144618D01*
X170527165Y-89140485D01*
X170516075Y-89135240D01*
X170505554Y-89128934D01*
X170495701Y-89121626D01*
X170486612Y-89113388D01*
X170478374Y-89104299D01*
X170471066Y-89094446D01*
X170464760Y-89083925D01*
X170459515Y-89072835D01*
X170455382Y-89061286D01*
X170452402Y-89049386D01*
X170450602Y-89037252D01*
X170450000Y-89025000D01*
X170450000Y-88775000D01*
X170450602Y-88762748D01*
X170452402Y-88750614D01*
X170455382Y-88738714D01*
X170459515Y-88727165D01*
X170464760Y-88716075D01*
X170471066Y-88705554D01*
X170478374Y-88695701D01*
X170486612Y-88686612D01*
X170495701Y-88678374D01*
X170505554Y-88671066D01*
X170516075Y-88664760D01*
X170527165Y-88659515D01*
X170538714Y-88655382D01*
X170550614Y-88652402D01*
X170562748Y-88650602D01*
X170575000Y-88650000D01*
X172325000Y-88650000D01*
X172337252Y-88650602D01*
X172337252Y-88650602D01*
G37*
D15*
G04 #@! TD*
G04 #@! TO.P,J10,3*
G04 #@! TO.N,/VSPI_SCK*
X171450000Y-88900000D03*
D11*
G04 #@! TO.N,Net-(J10-Pad11)*
G04 #@! TO.C,J10*
G36*
X172337252Y-82250602D02*
X172349386Y-82252402D01*
X172361286Y-82255382D01*
X172372835Y-82259515D01*
X172383925Y-82264760D01*
X172394446Y-82271066D01*
X172404299Y-82278374D01*
X172413388Y-82286612D01*
X172421626Y-82295701D01*
X172428934Y-82305554D01*
X172435240Y-82316075D01*
X172440485Y-82327165D01*
X172444618Y-82338714D01*
X172447598Y-82350614D01*
X172449398Y-82362748D01*
X172450000Y-82375000D01*
X172450000Y-82625000D01*
X172449398Y-82637252D01*
X172447598Y-82649386D01*
X172444618Y-82661286D01*
X172440485Y-82672835D01*
X172435240Y-82683925D01*
X172428934Y-82694446D01*
X172421626Y-82704299D01*
X172413388Y-82713388D01*
X172404299Y-82721626D01*
X172394446Y-82728934D01*
X172383925Y-82735240D01*
X172372835Y-82740485D01*
X172361286Y-82744618D01*
X172349386Y-82747598D01*
X172337252Y-82749398D01*
X172325000Y-82750000D01*
X170575000Y-82750000D01*
X170562748Y-82749398D01*
X170550614Y-82747598D01*
X170538714Y-82744618D01*
X170527165Y-82740485D01*
X170516075Y-82735240D01*
X170505554Y-82728934D01*
X170495701Y-82721626D01*
X170486612Y-82713388D01*
X170478374Y-82704299D01*
X170471066Y-82694446D01*
X170464760Y-82683925D01*
X170459515Y-82672835D01*
X170455382Y-82661286D01*
X170452402Y-82649386D01*
X170450602Y-82637252D01*
X170450000Y-82625000D01*
X170450000Y-82375000D01*
X170450602Y-82362748D01*
X170452402Y-82350614D01*
X170455382Y-82338714D01*
X170459515Y-82327165D01*
X170464760Y-82316075D01*
X170471066Y-82305554D01*
X170478374Y-82295701D01*
X170486612Y-82286612D01*
X170495701Y-82278374D01*
X170505554Y-82271066D01*
X170516075Y-82264760D01*
X170527165Y-82259515D01*
X170538714Y-82255382D01*
X170550614Y-82252402D01*
X170562748Y-82250602D01*
X170575000Y-82250000D01*
X172325000Y-82250000D01*
X172337252Y-82250602D01*
X172337252Y-82250602D01*
G37*
D15*
G04 #@! TD*
G04 #@! TO.P,J10,11*
G04 #@! TO.N,Net-(J10-Pad11)*
X171450000Y-82500000D03*
D11*
G04 #@! TO.N,/LCD_RST*
G04 #@! TO.C,J10*
G36*
X172337252Y-89450602D02*
X172349386Y-89452402D01*
X172361286Y-89455382D01*
X172372835Y-89459515D01*
X172383925Y-89464760D01*
X172394446Y-89471066D01*
X172404299Y-89478374D01*
X172413388Y-89486612D01*
X172421626Y-89495701D01*
X172428934Y-89505554D01*
X172435240Y-89516075D01*
X172440485Y-89527165D01*
X172444618Y-89538714D01*
X172447598Y-89550614D01*
X172449398Y-89562748D01*
X172450000Y-89575000D01*
X172450000Y-89825000D01*
X172449398Y-89837252D01*
X172447598Y-89849386D01*
X172444618Y-89861286D01*
X172440485Y-89872835D01*
X172435240Y-89883925D01*
X172428934Y-89894446D01*
X172421626Y-89904299D01*
X172413388Y-89913388D01*
X172404299Y-89921626D01*
X172394446Y-89928934D01*
X172383925Y-89935240D01*
X172372835Y-89940485D01*
X172361286Y-89944618D01*
X172349386Y-89947598D01*
X172337252Y-89949398D01*
X172325000Y-89950000D01*
X170575000Y-89950000D01*
X170562748Y-89949398D01*
X170550614Y-89947598D01*
X170538714Y-89944618D01*
X170527165Y-89940485D01*
X170516075Y-89935240D01*
X170505554Y-89928934D01*
X170495701Y-89921626D01*
X170486612Y-89913388D01*
X170478374Y-89904299D01*
X170471066Y-89894446D01*
X170464760Y-89883925D01*
X170459515Y-89872835D01*
X170455382Y-89861286D01*
X170452402Y-89849386D01*
X170450602Y-89837252D01*
X170450000Y-89825000D01*
X170450000Y-89575000D01*
X170450602Y-89562748D01*
X170452402Y-89550614D01*
X170455382Y-89538714D01*
X170459515Y-89527165D01*
X170464760Y-89516075D01*
X170471066Y-89505554D01*
X170478374Y-89495701D01*
X170486612Y-89486612D01*
X170495701Y-89478374D01*
X170505554Y-89471066D01*
X170516075Y-89464760D01*
X170527165Y-89459515D01*
X170538714Y-89455382D01*
X170550614Y-89452402D01*
X170562748Y-89450602D01*
X170575000Y-89450000D01*
X172325000Y-89450000D01*
X172337252Y-89450602D01*
X172337252Y-89450602D01*
G37*
D15*
G04 #@! TD*
G04 #@! TO.P,J10,2*
G04 #@! TO.N,/LCD_RST*
X171450000Y-89700000D03*
D11*
G04 #@! TO.N,+3V3*
G04 #@! TO.C,J10*
G36*
X172337252Y-83850602D02*
X172349386Y-83852402D01*
X172361286Y-83855382D01*
X172372835Y-83859515D01*
X172383925Y-83864760D01*
X172394446Y-83871066D01*
X172404299Y-83878374D01*
X172413388Y-83886612D01*
X172421626Y-83895701D01*
X172428934Y-83905554D01*
X172435240Y-83916075D01*
X172440485Y-83927165D01*
X172444618Y-83938714D01*
X172447598Y-83950614D01*
X172449398Y-83962748D01*
X172450000Y-83975000D01*
X172450000Y-84225000D01*
X172449398Y-84237252D01*
X172447598Y-84249386D01*
X172444618Y-84261286D01*
X172440485Y-84272835D01*
X172435240Y-84283925D01*
X172428934Y-84294446D01*
X172421626Y-84304299D01*
X172413388Y-84313388D01*
X172404299Y-84321626D01*
X172394446Y-84328934D01*
X172383925Y-84335240D01*
X172372835Y-84340485D01*
X172361286Y-84344618D01*
X172349386Y-84347598D01*
X172337252Y-84349398D01*
X172325000Y-84350000D01*
X170575000Y-84350000D01*
X170562748Y-84349398D01*
X170550614Y-84347598D01*
X170538714Y-84344618D01*
X170527165Y-84340485D01*
X170516075Y-84335240D01*
X170505554Y-84328934D01*
X170495701Y-84321626D01*
X170486612Y-84313388D01*
X170478374Y-84304299D01*
X170471066Y-84294446D01*
X170464760Y-84283925D01*
X170459515Y-84272835D01*
X170455382Y-84261286D01*
X170452402Y-84249386D01*
X170450602Y-84237252D01*
X170450000Y-84225000D01*
X170450000Y-83975000D01*
X170450602Y-83962748D01*
X170452402Y-83950614D01*
X170455382Y-83938714D01*
X170459515Y-83927165D01*
X170464760Y-83916075D01*
X170471066Y-83905554D01*
X170478374Y-83895701D01*
X170486612Y-83886612D01*
X170495701Y-83878374D01*
X170505554Y-83871066D01*
X170516075Y-83864760D01*
X170527165Y-83859515D01*
X170538714Y-83855382D01*
X170550614Y-83852402D01*
X170562748Y-83850602D01*
X170575000Y-83850000D01*
X172325000Y-83850000D01*
X172337252Y-83850602D01*
X172337252Y-83850602D01*
G37*
D15*
G04 #@! TD*
G04 #@! TO.P,J10,9*
G04 #@! TO.N,+3V3*
X171450000Y-84100000D03*
D11*
G04 #@! TO.N,/VSPI_MOSI*
G04 #@! TO.C,J10*
G36*
X172337252Y-86250602D02*
X172349386Y-86252402D01*
X172361286Y-86255382D01*
X172372835Y-86259515D01*
X172383925Y-86264760D01*
X172394446Y-86271066D01*
X172404299Y-86278374D01*
X172413388Y-86286612D01*
X172421626Y-86295701D01*
X172428934Y-86305554D01*
X172435240Y-86316075D01*
X172440485Y-86327165D01*
X172444618Y-86338714D01*
X172447598Y-86350614D01*
X172449398Y-86362748D01*
X172450000Y-86375000D01*
X172450000Y-86625000D01*
X172449398Y-86637252D01*
X172447598Y-86649386D01*
X172444618Y-86661286D01*
X172440485Y-86672835D01*
X172435240Y-86683925D01*
X172428934Y-86694446D01*
X172421626Y-86704299D01*
X172413388Y-86713388D01*
X172404299Y-86721626D01*
X172394446Y-86728934D01*
X172383925Y-86735240D01*
X172372835Y-86740485D01*
X172361286Y-86744618D01*
X172349386Y-86747598D01*
X172337252Y-86749398D01*
X172325000Y-86750000D01*
X170575000Y-86750000D01*
X170562748Y-86749398D01*
X170550614Y-86747598D01*
X170538714Y-86744618D01*
X170527165Y-86740485D01*
X170516075Y-86735240D01*
X170505554Y-86728934D01*
X170495701Y-86721626D01*
X170486612Y-86713388D01*
X170478374Y-86704299D01*
X170471066Y-86694446D01*
X170464760Y-86683925D01*
X170459515Y-86672835D01*
X170455382Y-86661286D01*
X170452402Y-86649386D01*
X170450602Y-86637252D01*
X170450000Y-86625000D01*
X170450000Y-86375000D01*
X170450602Y-86362748D01*
X170452402Y-86350614D01*
X170455382Y-86338714D01*
X170459515Y-86327165D01*
X170464760Y-86316075D01*
X170471066Y-86305554D01*
X170478374Y-86295701D01*
X170486612Y-86286612D01*
X170495701Y-86278374D01*
X170505554Y-86271066D01*
X170516075Y-86264760D01*
X170527165Y-86259515D01*
X170538714Y-86255382D01*
X170550614Y-86252402D01*
X170562748Y-86250602D01*
X170575000Y-86250000D01*
X172325000Y-86250000D01*
X172337252Y-86250602D01*
X172337252Y-86250602D01*
G37*
D15*
G04 #@! TD*
G04 #@! TO.P,J10,6*
G04 #@! TO.N,/VSPI_MOSI*
X171450000Y-86500000D03*
D11*
G04 #@! TO.N,/LCD_DC*
G04 #@! TO.C,J10*
G36*
X172337252Y-87850602D02*
X172349386Y-87852402D01*
X172361286Y-87855382D01*
X172372835Y-87859515D01*
X172383925Y-87864760D01*
X172394446Y-87871066D01*
X172404299Y-87878374D01*
X172413388Y-87886612D01*
X172421626Y-87895701D01*
X172428934Y-87905554D01*
X172435240Y-87916075D01*
X172440485Y-87927165D01*
X172444618Y-87938714D01*
X172447598Y-87950614D01*
X172449398Y-87962748D01*
X172450000Y-87975000D01*
X172450000Y-88225000D01*
X172449398Y-88237252D01*
X172447598Y-88249386D01*
X172444618Y-88261286D01*
X172440485Y-88272835D01*
X172435240Y-88283925D01*
X172428934Y-88294446D01*
X172421626Y-88304299D01*
X172413388Y-88313388D01*
X172404299Y-88321626D01*
X172394446Y-88328934D01*
X172383925Y-88335240D01*
X172372835Y-88340485D01*
X172361286Y-88344618D01*
X172349386Y-88347598D01*
X172337252Y-88349398D01*
X172325000Y-88350000D01*
X170575000Y-88350000D01*
X170562748Y-88349398D01*
X170550614Y-88347598D01*
X170538714Y-88344618D01*
X170527165Y-88340485D01*
X170516075Y-88335240D01*
X170505554Y-88328934D01*
X170495701Y-88321626D01*
X170486612Y-88313388D01*
X170478374Y-88304299D01*
X170471066Y-88294446D01*
X170464760Y-88283925D01*
X170459515Y-88272835D01*
X170455382Y-88261286D01*
X170452402Y-88249386D01*
X170450602Y-88237252D01*
X170450000Y-88225000D01*
X170450000Y-87975000D01*
X170450602Y-87962748D01*
X170452402Y-87950614D01*
X170455382Y-87938714D01*
X170459515Y-87927165D01*
X170464760Y-87916075D01*
X170471066Y-87905554D01*
X170478374Y-87895701D01*
X170486612Y-87886612D01*
X170495701Y-87878374D01*
X170505554Y-87871066D01*
X170516075Y-87864760D01*
X170527165Y-87859515D01*
X170538714Y-87855382D01*
X170550614Y-87852402D01*
X170562748Y-87850602D01*
X170575000Y-87850000D01*
X172325000Y-87850000D01*
X172337252Y-87850602D01*
X172337252Y-87850602D01*
G37*
D15*
G04 #@! TD*
G04 #@! TO.P,J10,4*
G04 #@! TO.N,/LCD_DC*
X171450000Y-88100000D03*
D11*
G04 #@! TO.N,Net-(J10-Pad11)*
G04 #@! TO.C,J10*
G36*
X172337252Y-79850602D02*
X172349386Y-79852402D01*
X172361286Y-79855382D01*
X172372835Y-79859515D01*
X172383925Y-79864760D01*
X172394446Y-79871066D01*
X172404299Y-79878374D01*
X172413388Y-79886612D01*
X172421626Y-79895701D01*
X172428934Y-79905554D01*
X172435240Y-79916075D01*
X172440485Y-79927165D01*
X172444618Y-79938714D01*
X172447598Y-79950614D01*
X172449398Y-79962748D01*
X172450000Y-79975000D01*
X172450000Y-80225000D01*
X172449398Y-80237252D01*
X172447598Y-80249386D01*
X172444618Y-80261286D01*
X172440485Y-80272835D01*
X172435240Y-80283925D01*
X172428934Y-80294446D01*
X172421626Y-80304299D01*
X172413388Y-80313388D01*
X172404299Y-80321626D01*
X172394446Y-80328934D01*
X172383925Y-80335240D01*
X172372835Y-80340485D01*
X172361286Y-80344618D01*
X172349386Y-80347598D01*
X172337252Y-80349398D01*
X172325000Y-80350000D01*
X170575000Y-80350000D01*
X170562748Y-80349398D01*
X170550614Y-80347598D01*
X170538714Y-80344618D01*
X170527165Y-80340485D01*
X170516075Y-80335240D01*
X170505554Y-80328934D01*
X170495701Y-80321626D01*
X170486612Y-80313388D01*
X170478374Y-80304299D01*
X170471066Y-80294446D01*
X170464760Y-80283925D01*
X170459515Y-80272835D01*
X170455382Y-80261286D01*
X170452402Y-80249386D01*
X170450602Y-80237252D01*
X170450000Y-80225000D01*
X170450000Y-79975000D01*
X170450602Y-79962748D01*
X170452402Y-79950614D01*
X170455382Y-79938714D01*
X170459515Y-79927165D01*
X170464760Y-79916075D01*
X170471066Y-79905554D01*
X170478374Y-79895701D01*
X170486612Y-79886612D01*
X170495701Y-79878374D01*
X170505554Y-79871066D01*
X170516075Y-79864760D01*
X170527165Y-79859515D01*
X170538714Y-79855382D01*
X170550614Y-79852402D01*
X170562748Y-79850602D01*
X170575000Y-79850000D01*
X172325000Y-79850000D01*
X172337252Y-79850602D01*
X172337252Y-79850602D01*
G37*
D15*
G04 #@! TD*
G04 #@! TO.P,J10,14*
G04 #@! TO.N,Net-(J10-Pad11)*
X171450000Y-80100000D03*
D11*
G04 #@! TO.N,Net-(J10-Pad16)*
G04 #@! TO.C,J10*
G36*
X172337252Y-78250602D02*
X172349386Y-78252402D01*
X172361286Y-78255382D01*
X172372835Y-78259515D01*
X172383925Y-78264760D01*
X172394446Y-78271066D01*
X172404299Y-78278374D01*
X172413388Y-78286612D01*
X172421626Y-78295701D01*
X172428934Y-78305554D01*
X172435240Y-78316075D01*
X172440485Y-78327165D01*
X172444618Y-78338714D01*
X172447598Y-78350614D01*
X172449398Y-78362748D01*
X172450000Y-78375000D01*
X172450000Y-78625000D01*
X172449398Y-78637252D01*
X172447598Y-78649386D01*
X172444618Y-78661286D01*
X172440485Y-78672835D01*
X172435240Y-78683925D01*
X172428934Y-78694446D01*
X172421626Y-78704299D01*
X172413388Y-78713388D01*
X172404299Y-78721626D01*
X172394446Y-78728934D01*
X172383925Y-78735240D01*
X172372835Y-78740485D01*
X172361286Y-78744618D01*
X172349386Y-78747598D01*
X172337252Y-78749398D01*
X172325000Y-78750000D01*
X170575000Y-78750000D01*
X170562748Y-78749398D01*
X170550614Y-78747598D01*
X170538714Y-78744618D01*
X170527165Y-78740485D01*
X170516075Y-78735240D01*
X170505554Y-78728934D01*
X170495701Y-78721626D01*
X170486612Y-78713388D01*
X170478374Y-78704299D01*
X170471066Y-78694446D01*
X170464760Y-78683925D01*
X170459515Y-78672835D01*
X170455382Y-78661286D01*
X170452402Y-78649386D01*
X170450602Y-78637252D01*
X170450000Y-78625000D01*
X170450000Y-78375000D01*
X170450602Y-78362748D01*
X170452402Y-78350614D01*
X170455382Y-78338714D01*
X170459515Y-78327165D01*
X170464760Y-78316075D01*
X170471066Y-78305554D01*
X170478374Y-78295701D01*
X170486612Y-78286612D01*
X170495701Y-78278374D01*
X170505554Y-78271066D01*
X170516075Y-78264760D01*
X170527165Y-78259515D01*
X170538714Y-78255382D01*
X170550614Y-78252402D01*
X170562748Y-78250602D01*
X170575000Y-78250000D01*
X172325000Y-78250000D01*
X172337252Y-78250602D01*
X172337252Y-78250602D01*
G37*
D15*
G04 #@! TD*
G04 #@! TO.P,J10,16*
G04 #@! TO.N,Net-(J10-Pad16)*
X171450000Y-78500000D03*
D11*
G04 #@! TO.N,+3V3*
G04 #@! TO.C,C8*
G36*
X171473691Y-60930053D02*
X171494926Y-60933203D01*
X171515750Y-60938419D01*
X171535962Y-60945651D01*
X171555368Y-60954830D01*
X171573781Y-60965866D01*
X171591024Y-60978654D01*
X171606930Y-60993070D01*
X171621346Y-61008976D01*
X171634134Y-61026219D01*
X171645170Y-61044632D01*
X171654349Y-61064038D01*
X171661581Y-61084250D01*
X171666797Y-61105074D01*
X171669947Y-61126309D01*
X171671000Y-61147750D01*
X171671000Y-61585250D01*
X171669947Y-61606691D01*
X171666797Y-61627926D01*
X171661581Y-61648750D01*
X171654349Y-61668962D01*
X171645170Y-61688368D01*
X171634134Y-61706781D01*
X171621346Y-61724024D01*
X171606930Y-61739930D01*
X171591024Y-61754346D01*
X171573781Y-61767134D01*
X171555368Y-61778170D01*
X171535962Y-61787349D01*
X171515750Y-61794581D01*
X171494926Y-61799797D01*
X171473691Y-61802947D01*
X171452250Y-61804000D01*
X170939750Y-61804000D01*
X170918309Y-61802947D01*
X170897074Y-61799797D01*
X170876250Y-61794581D01*
X170856038Y-61787349D01*
X170836632Y-61778170D01*
X170818219Y-61767134D01*
X170800976Y-61754346D01*
X170785070Y-61739930D01*
X170770654Y-61724024D01*
X170757866Y-61706781D01*
X170746830Y-61688368D01*
X170737651Y-61668962D01*
X170730419Y-61648750D01*
X170725203Y-61627926D01*
X170722053Y-61606691D01*
X170721000Y-61585250D01*
X170721000Y-61147750D01*
X170722053Y-61126309D01*
X170725203Y-61105074D01*
X170730419Y-61084250D01*
X170737651Y-61064038D01*
X170746830Y-61044632D01*
X170757866Y-61026219D01*
X170770654Y-61008976D01*
X170785070Y-60993070D01*
X170800976Y-60978654D01*
X170818219Y-60965866D01*
X170836632Y-60954830D01*
X170856038Y-60945651D01*
X170876250Y-60938419D01*
X170897074Y-60933203D01*
X170918309Y-60930053D01*
X170939750Y-60929000D01*
X171452250Y-60929000D01*
X171473691Y-60930053D01*
X171473691Y-60930053D01*
G37*
D12*
G04 #@! TD*
G04 #@! TO.P,C8,1*
G04 #@! TO.N,+3V3*
X171196000Y-61366500D03*
D11*
G04 #@! TO.N,GND*
G04 #@! TO.C,C8*
G36*
X171473691Y-59355053D02*
X171494926Y-59358203D01*
X171515750Y-59363419D01*
X171535962Y-59370651D01*
X171555368Y-59379830D01*
X171573781Y-59390866D01*
X171591024Y-59403654D01*
X171606930Y-59418070D01*
X171621346Y-59433976D01*
X171634134Y-59451219D01*
X171645170Y-59469632D01*
X171654349Y-59489038D01*
X171661581Y-59509250D01*
X171666797Y-59530074D01*
X171669947Y-59551309D01*
X171671000Y-59572750D01*
X171671000Y-60010250D01*
X171669947Y-60031691D01*
X171666797Y-60052926D01*
X171661581Y-60073750D01*
X171654349Y-60093962D01*
X171645170Y-60113368D01*
X171634134Y-60131781D01*
X171621346Y-60149024D01*
X171606930Y-60164930D01*
X171591024Y-60179346D01*
X171573781Y-60192134D01*
X171555368Y-60203170D01*
X171535962Y-60212349D01*
X171515750Y-60219581D01*
X171494926Y-60224797D01*
X171473691Y-60227947D01*
X171452250Y-60229000D01*
X170939750Y-60229000D01*
X170918309Y-60227947D01*
X170897074Y-60224797D01*
X170876250Y-60219581D01*
X170856038Y-60212349D01*
X170836632Y-60203170D01*
X170818219Y-60192134D01*
X170800976Y-60179346D01*
X170785070Y-60164930D01*
X170770654Y-60149024D01*
X170757866Y-60131781D01*
X170746830Y-60113368D01*
X170737651Y-60093962D01*
X170730419Y-60073750D01*
X170725203Y-60052926D01*
X170722053Y-60031691D01*
X170721000Y-60010250D01*
X170721000Y-59572750D01*
X170722053Y-59551309D01*
X170725203Y-59530074D01*
X170730419Y-59509250D01*
X170737651Y-59489038D01*
X170746830Y-59469632D01*
X170757866Y-59451219D01*
X170770654Y-59433976D01*
X170785070Y-59418070D01*
X170800976Y-59403654D01*
X170818219Y-59390866D01*
X170836632Y-59379830D01*
X170856038Y-59370651D01*
X170876250Y-59363419D01*
X170897074Y-59358203D01*
X170918309Y-59355053D01*
X170939750Y-59354000D01*
X171452250Y-59354000D01*
X171473691Y-59355053D01*
X171473691Y-59355053D01*
G37*
D12*
G04 #@! TD*
G04 #@! TO.P,C8,2*
G04 #@! TO.N,GND*
X171196000Y-59791500D03*
D11*
G04 #@! TO.N,GND*
G04 #@! TO.C,R4*
G36*
X169568691Y-59355053D02*
X169589926Y-59358203D01*
X169610750Y-59363419D01*
X169630962Y-59370651D01*
X169650368Y-59379830D01*
X169668781Y-59390866D01*
X169686024Y-59403654D01*
X169701930Y-59418070D01*
X169716346Y-59433976D01*
X169729134Y-59451219D01*
X169740170Y-59469632D01*
X169749349Y-59489038D01*
X169756581Y-59509250D01*
X169761797Y-59530074D01*
X169764947Y-59551309D01*
X169766000Y-59572750D01*
X169766000Y-60010250D01*
X169764947Y-60031691D01*
X169761797Y-60052926D01*
X169756581Y-60073750D01*
X169749349Y-60093962D01*
X169740170Y-60113368D01*
X169729134Y-60131781D01*
X169716346Y-60149024D01*
X169701930Y-60164930D01*
X169686024Y-60179346D01*
X169668781Y-60192134D01*
X169650368Y-60203170D01*
X169630962Y-60212349D01*
X169610750Y-60219581D01*
X169589926Y-60224797D01*
X169568691Y-60227947D01*
X169547250Y-60229000D01*
X169034750Y-60229000D01*
X169013309Y-60227947D01*
X168992074Y-60224797D01*
X168971250Y-60219581D01*
X168951038Y-60212349D01*
X168931632Y-60203170D01*
X168913219Y-60192134D01*
X168895976Y-60179346D01*
X168880070Y-60164930D01*
X168865654Y-60149024D01*
X168852866Y-60131781D01*
X168841830Y-60113368D01*
X168832651Y-60093962D01*
X168825419Y-60073750D01*
X168820203Y-60052926D01*
X168817053Y-60031691D01*
X168816000Y-60010250D01*
X168816000Y-59572750D01*
X168817053Y-59551309D01*
X168820203Y-59530074D01*
X168825419Y-59509250D01*
X168832651Y-59489038D01*
X168841830Y-59469632D01*
X168852866Y-59451219D01*
X168865654Y-59433976D01*
X168880070Y-59418070D01*
X168895976Y-59403654D01*
X168913219Y-59390866D01*
X168931632Y-59379830D01*
X168951038Y-59370651D01*
X168971250Y-59363419D01*
X168992074Y-59358203D01*
X169013309Y-59355053D01*
X169034750Y-59354000D01*
X169547250Y-59354000D01*
X169568691Y-59355053D01*
X169568691Y-59355053D01*
G37*
D12*
G04 #@! TD*
G04 #@! TO.P,R4,2*
G04 #@! TO.N,GND*
X169291000Y-59791500D03*
D11*
G04 #@! TO.N,Net-(J10-Pad11)*
G04 #@! TO.C,R4*
G36*
X169568691Y-60930053D02*
X169589926Y-60933203D01*
X169610750Y-60938419D01*
X169630962Y-60945651D01*
X169650368Y-60954830D01*
X169668781Y-60965866D01*
X169686024Y-60978654D01*
X169701930Y-60993070D01*
X169716346Y-61008976D01*
X169729134Y-61026219D01*
X169740170Y-61044632D01*
X169749349Y-61064038D01*
X169756581Y-61084250D01*
X169761797Y-61105074D01*
X169764947Y-61126309D01*
X169766000Y-61147750D01*
X169766000Y-61585250D01*
X169764947Y-61606691D01*
X169761797Y-61627926D01*
X169756581Y-61648750D01*
X169749349Y-61668962D01*
X169740170Y-61688368D01*
X169729134Y-61706781D01*
X169716346Y-61724024D01*
X169701930Y-61739930D01*
X169686024Y-61754346D01*
X169668781Y-61767134D01*
X169650368Y-61778170D01*
X169630962Y-61787349D01*
X169610750Y-61794581D01*
X169589926Y-61799797D01*
X169568691Y-61802947D01*
X169547250Y-61804000D01*
X169034750Y-61804000D01*
X169013309Y-61802947D01*
X168992074Y-61799797D01*
X168971250Y-61794581D01*
X168951038Y-61787349D01*
X168931632Y-61778170D01*
X168913219Y-61767134D01*
X168895976Y-61754346D01*
X168880070Y-61739930D01*
X168865654Y-61724024D01*
X168852866Y-61706781D01*
X168841830Y-61688368D01*
X168832651Y-61668962D01*
X168825419Y-61648750D01*
X168820203Y-61627926D01*
X168817053Y-61606691D01*
X168816000Y-61585250D01*
X168816000Y-61147750D01*
X168817053Y-61126309D01*
X168820203Y-61105074D01*
X168825419Y-61084250D01*
X168832651Y-61064038D01*
X168841830Y-61044632D01*
X168852866Y-61026219D01*
X168865654Y-61008976D01*
X168880070Y-60993070D01*
X168895976Y-60978654D01*
X168913219Y-60965866D01*
X168931632Y-60954830D01*
X168951038Y-60945651D01*
X168971250Y-60938419D01*
X168992074Y-60933203D01*
X169013309Y-60930053D01*
X169034750Y-60929000D01*
X169547250Y-60929000D01*
X169568691Y-60930053D01*
X169568691Y-60930053D01*
G37*
D12*
G04 #@! TD*
G04 #@! TO.P,R4,1*
G04 #@! TO.N,Net-(J10-Pad11)*
X169291000Y-61366500D03*
D10*
G04 #@! TO.P,SW5,1*
G04 #@! TO.N,/GPIO15*
X121036000Y-86906500D03*
X121036000Y-80606500D03*
G04 #@! TO.P,SW5,2*
G04 #@! TO.N,GND*
X124836000Y-86906500D03*
X124836000Y-80606500D03*
G04 #@! TD*
G04 #@! TO.P,SW3,1*
G04 #@! TO.N,/GPIO39*
X190378000Y-91034000D03*
X190378000Y-84734000D03*
G04 #@! TO.P,SW3,2*
G04 #@! TO.N,GND*
X194178000Y-91034000D03*
X194178000Y-84734000D03*
G04 #@! TD*
G04 #@! TO.P,SW2,2*
G04 #@! TO.N,GND*
X107320000Y-86970000D03*
X107320000Y-80670000D03*
G04 #@! TO.P,SW2,1*
G04 #@! TO.N,/GPIO13*
X111120000Y-86970000D03*
X111120000Y-80670000D03*
G04 #@! TD*
G04 #@! TO.P,SW1,1*
G04 #@! TO.N,/GPIO12*
X114178000Y-80620000D03*
X114178000Y-74320000D03*
G04 #@! TO.P,SW1,2*
G04 #@! TO.N,GND*
X117978000Y-80620000D03*
X117978000Y-74320000D03*
G04 #@! TD*
D11*
G04 #@! TO.N,/GPIO36*
G04 #@! TO.C,C7*
G36*
X171473691Y-34082053D02*
X171494926Y-34085203D01*
X171515750Y-34090419D01*
X171535962Y-34097651D01*
X171555368Y-34106830D01*
X171573781Y-34117866D01*
X171591024Y-34130654D01*
X171606930Y-34145070D01*
X171621346Y-34160976D01*
X171634134Y-34178219D01*
X171645170Y-34196632D01*
X171654349Y-34216038D01*
X171661581Y-34236250D01*
X171666797Y-34257074D01*
X171669947Y-34278309D01*
X171671000Y-34299750D01*
X171671000Y-34737250D01*
X171669947Y-34758691D01*
X171666797Y-34779926D01*
X171661581Y-34800750D01*
X171654349Y-34820962D01*
X171645170Y-34840368D01*
X171634134Y-34858781D01*
X171621346Y-34876024D01*
X171606930Y-34891930D01*
X171591024Y-34906346D01*
X171573781Y-34919134D01*
X171555368Y-34930170D01*
X171535962Y-34939349D01*
X171515750Y-34946581D01*
X171494926Y-34951797D01*
X171473691Y-34954947D01*
X171452250Y-34956000D01*
X170939750Y-34956000D01*
X170918309Y-34954947D01*
X170897074Y-34951797D01*
X170876250Y-34946581D01*
X170856038Y-34939349D01*
X170836632Y-34930170D01*
X170818219Y-34919134D01*
X170800976Y-34906346D01*
X170785070Y-34891930D01*
X170770654Y-34876024D01*
X170757866Y-34858781D01*
X170746830Y-34840368D01*
X170737651Y-34820962D01*
X170730419Y-34800750D01*
X170725203Y-34779926D01*
X170722053Y-34758691D01*
X170721000Y-34737250D01*
X170721000Y-34299750D01*
X170722053Y-34278309D01*
X170725203Y-34257074D01*
X170730419Y-34236250D01*
X170737651Y-34216038D01*
X170746830Y-34196632D01*
X170757866Y-34178219D01*
X170770654Y-34160976D01*
X170785070Y-34145070D01*
X170800976Y-34130654D01*
X170818219Y-34117866D01*
X170836632Y-34106830D01*
X170856038Y-34097651D01*
X170876250Y-34090419D01*
X170897074Y-34085203D01*
X170918309Y-34082053D01*
X170939750Y-34081000D01*
X171452250Y-34081000D01*
X171473691Y-34082053D01*
X171473691Y-34082053D01*
G37*
D12*
G04 #@! TD*
G04 #@! TO.P,C7,2*
G04 #@! TO.N,/GPIO36*
X171196000Y-34518500D03*
D11*
G04 #@! TO.N,GND*
G04 #@! TO.C,C7*
G36*
X171473691Y-35657053D02*
X171494926Y-35660203D01*
X171515750Y-35665419D01*
X171535962Y-35672651D01*
X171555368Y-35681830D01*
X171573781Y-35692866D01*
X171591024Y-35705654D01*
X171606930Y-35720070D01*
X171621346Y-35735976D01*
X171634134Y-35753219D01*
X171645170Y-35771632D01*
X171654349Y-35791038D01*
X171661581Y-35811250D01*
X171666797Y-35832074D01*
X171669947Y-35853309D01*
X171671000Y-35874750D01*
X171671000Y-36312250D01*
X171669947Y-36333691D01*
X171666797Y-36354926D01*
X171661581Y-36375750D01*
X171654349Y-36395962D01*
X171645170Y-36415368D01*
X171634134Y-36433781D01*
X171621346Y-36451024D01*
X171606930Y-36466930D01*
X171591024Y-36481346D01*
X171573781Y-36494134D01*
X171555368Y-36505170D01*
X171535962Y-36514349D01*
X171515750Y-36521581D01*
X171494926Y-36526797D01*
X171473691Y-36529947D01*
X171452250Y-36531000D01*
X170939750Y-36531000D01*
X170918309Y-36529947D01*
X170897074Y-36526797D01*
X170876250Y-36521581D01*
X170856038Y-36514349D01*
X170836632Y-36505170D01*
X170818219Y-36494134D01*
X170800976Y-36481346D01*
X170785070Y-36466930D01*
X170770654Y-36451024D01*
X170757866Y-36433781D01*
X170746830Y-36415368D01*
X170737651Y-36395962D01*
X170730419Y-36375750D01*
X170725203Y-36354926D01*
X170722053Y-36333691D01*
X170721000Y-36312250D01*
X170721000Y-35874750D01*
X170722053Y-35853309D01*
X170725203Y-35832074D01*
X170730419Y-35811250D01*
X170737651Y-35791038D01*
X170746830Y-35771632D01*
X170757866Y-35753219D01*
X170770654Y-35735976D01*
X170785070Y-35720070D01*
X170800976Y-35705654D01*
X170818219Y-35692866D01*
X170836632Y-35681830D01*
X170856038Y-35672651D01*
X170876250Y-35665419D01*
X170897074Y-35660203D01*
X170918309Y-35657053D01*
X170939750Y-35656000D01*
X171452250Y-35656000D01*
X171473691Y-35657053D01*
X171473691Y-35657053D01*
G37*
D12*
G04 #@! TD*
G04 #@! TO.P,C7,1*
G04 #@! TO.N,GND*
X171196000Y-36093500D03*
D11*
G04 #@! TO.N,GND*
G04 #@! TO.C,C6*
G36*
X138453691Y-60803053D02*
X138474926Y-60806203D01*
X138495750Y-60811419D01*
X138515962Y-60818651D01*
X138535368Y-60827830D01*
X138553781Y-60838866D01*
X138571024Y-60851654D01*
X138586930Y-60866070D01*
X138601346Y-60881976D01*
X138614134Y-60899219D01*
X138625170Y-60917632D01*
X138634349Y-60937038D01*
X138641581Y-60957250D01*
X138646797Y-60978074D01*
X138649947Y-60999309D01*
X138651000Y-61020750D01*
X138651000Y-61458250D01*
X138649947Y-61479691D01*
X138646797Y-61500926D01*
X138641581Y-61521750D01*
X138634349Y-61541962D01*
X138625170Y-61561368D01*
X138614134Y-61579781D01*
X138601346Y-61597024D01*
X138586930Y-61612930D01*
X138571024Y-61627346D01*
X138553781Y-61640134D01*
X138535368Y-61651170D01*
X138515962Y-61660349D01*
X138495750Y-61667581D01*
X138474926Y-61672797D01*
X138453691Y-61675947D01*
X138432250Y-61677000D01*
X137919750Y-61677000D01*
X137898309Y-61675947D01*
X137877074Y-61672797D01*
X137856250Y-61667581D01*
X137836038Y-61660349D01*
X137816632Y-61651170D01*
X137798219Y-61640134D01*
X137780976Y-61627346D01*
X137765070Y-61612930D01*
X137750654Y-61597024D01*
X137737866Y-61579781D01*
X137726830Y-61561368D01*
X137717651Y-61541962D01*
X137710419Y-61521750D01*
X137705203Y-61500926D01*
X137702053Y-61479691D01*
X137701000Y-61458250D01*
X137701000Y-61020750D01*
X137702053Y-60999309D01*
X137705203Y-60978074D01*
X137710419Y-60957250D01*
X137717651Y-60937038D01*
X137726830Y-60917632D01*
X137737866Y-60899219D01*
X137750654Y-60881976D01*
X137765070Y-60866070D01*
X137780976Y-60851654D01*
X137798219Y-60838866D01*
X137816632Y-60827830D01*
X137836038Y-60818651D01*
X137856250Y-60811419D01*
X137877074Y-60806203D01*
X137898309Y-60803053D01*
X137919750Y-60802000D01*
X138432250Y-60802000D01*
X138453691Y-60803053D01*
X138453691Y-60803053D01*
G37*
D12*
G04 #@! TD*
G04 #@! TO.P,C6,1*
G04 #@! TO.N,GND*
X138176000Y-61239500D03*
D11*
G04 #@! TO.N,/GPIO15*
G04 #@! TO.C,C6*
G36*
X138453691Y-59228053D02*
X138474926Y-59231203D01*
X138495750Y-59236419D01*
X138515962Y-59243651D01*
X138535368Y-59252830D01*
X138553781Y-59263866D01*
X138571024Y-59276654D01*
X138586930Y-59291070D01*
X138601346Y-59306976D01*
X138614134Y-59324219D01*
X138625170Y-59342632D01*
X138634349Y-59362038D01*
X138641581Y-59382250D01*
X138646797Y-59403074D01*
X138649947Y-59424309D01*
X138651000Y-59445750D01*
X138651000Y-59883250D01*
X138649947Y-59904691D01*
X138646797Y-59925926D01*
X138641581Y-59946750D01*
X138634349Y-59966962D01*
X138625170Y-59986368D01*
X138614134Y-60004781D01*
X138601346Y-60022024D01*
X138586930Y-60037930D01*
X138571024Y-60052346D01*
X138553781Y-60065134D01*
X138535368Y-60076170D01*
X138515962Y-60085349D01*
X138495750Y-60092581D01*
X138474926Y-60097797D01*
X138453691Y-60100947D01*
X138432250Y-60102000D01*
X137919750Y-60102000D01*
X137898309Y-60100947D01*
X137877074Y-60097797D01*
X137856250Y-60092581D01*
X137836038Y-60085349D01*
X137816632Y-60076170D01*
X137798219Y-60065134D01*
X137780976Y-60052346D01*
X137765070Y-60037930D01*
X137750654Y-60022024D01*
X137737866Y-60004781D01*
X137726830Y-59986368D01*
X137717651Y-59966962D01*
X137710419Y-59946750D01*
X137705203Y-59925926D01*
X137702053Y-59904691D01*
X137701000Y-59883250D01*
X137701000Y-59445750D01*
X137702053Y-59424309D01*
X137705203Y-59403074D01*
X137710419Y-59382250D01*
X137717651Y-59362038D01*
X137726830Y-59342632D01*
X137737866Y-59324219D01*
X137750654Y-59306976D01*
X137765070Y-59291070D01*
X137780976Y-59276654D01*
X137798219Y-59263866D01*
X137816632Y-59252830D01*
X137836038Y-59243651D01*
X137856250Y-59236419D01*
X137877074Y-59231203D01*
X137898309Y-59228053D01*
X137919750Y-59227000D01*
X138432250Y-59227000D01*
X138453691Y-59228053D01*
X138453691Y-59228053D01*
G37*
D12*
G04 #@! TD*
G04 #@! TO.P,C6,2*
G04 #@! TO.N,/GPIO15*
X138176000Y-59664500D03*
D11*
G04 #@! TO.N,GND*
G04 #@! TO.C,C4*
G36*
X168933691Y-35657053D02*
X168954926Y-35660203D01*
X168975750Y-35665419D01*
X168995962Y-35672651D01*
X169015368Y-35681830D01*
X169033781Y-35692866D01*
X169051024Y-35705654D01*
X169066930Y-35720070D01*
X169081346Y-35735976D01*
X169094134Y-35753219D01*
X169105170Y-35771632D01*
X169114349Y-35791038D01*
X169121581Y-35811250D01*
X169126797Y-35832074D01*
X169129947Y-35853309D01*
X169131000Y-35874750D01*
X169131000Y-36312250D01*
X169129947Y-36333691D01*
X169126797Y-36354926D01*
X169121581Y-36375750D01*
X169114349Y-36395962D01*
X169105170Y-36415368D01*
X169094134Y-36433781D01*
X169081346Y-36451024D01*
X169066930Y-36466930D01*
X169051024Y-36481346D01*
X169033781Y-36494134D01*
X169015368Y-36505170D01*
X168995962Y-36514349D01*
X168975750Y-36521581D01*
X168954926Y-36526797D01*
X168933691Y-36529947D01*
X168912250Y-36531000D01*
X168399750Y-36531000D01*
X168378309Y-36529947D01*
X168357074Y-36526797D01*
X168336250Y-36521581D01*
X168316038Y-36514349D01*
X168296632Y-36505170D01*
X168278219Y-36494134D01*
X168260976Y-36481346D01*
X168245070Y-36466930D01*
X168230654Y-36451024D01*
X168217866Y-36433781D01*
X168206830Y-36415368D01*
X168197651Y-36395962D01*
X168190419Y-36375750D01*
X168185203Y-36354926D01*
X168182053Y-36333691D01*
X168181000Y-36312250D01*
X168181000Y-35874750D01*
X168182053Y-35853309D01*
X168185203Y-35832074D01*
X168190419Y-35811250D01*
X168197651Y-35791038D01*
X168206830Y-35771632D01*
X168217866Y-35753219D01*
X168230654Y-35735976D01*
X168245070Y-35720070D01*
X168260976Y-35705654D01*
X168278219Y-35692866D01*
X168296632Y-35681830D01*
X168316038Y-35672651D01*
X168336250Y-35665419D01*
X168357074Y-35660203D01*
X168378309Y-35657053D01*
X168399750Y-35656000D01*
X168912250Y-35656000D01*
X168933691Y-35657053D01*
X168933691Y-35657053D01*
G37*
D12*
G04 #@! TD*
G04 #@! TO.P,C4,1*
G04 #@! TO.N,GND*
X168656000Y-36093500D03*
D11*
G04 #@! TO.N,/GPIO39*
G04 #@! TO.C,C4*
G36*
X168933691Y-34082053D02*
X168954926Y-34085203D01*
X168975750Y-34090419D01*
X168995962Y-34097651D01*
X169015368Y-34106830D01*
X169033781Y-34117866D01*
X169051024Y-34130654D01*
X169066930Y-34145070D01*
X169081346Y-34160976D01*
X169094134Y-34178219D01*
X169105170Y-34196632D01*
X169114349Y-34216038D01*
X169121581Y-34236250D01*
X169126797Y-34257074D01*
X169129947Y-34278309D01*
X169131000Y-34299750D01*
X169131000Y-34737250D01*
X169129947Y-34758691D01*
X169126797Y-34779926D01*
X169121581Y-34800750D01*
X169114349Y-34820962D01*
X169105170Y-34840368D01*
X169094134Y-34858781D01*
X169081346Y-34876024D01*
X169066930Y-34891930D01*
X169051024Y-34906346D01*
X169033781Y-34919134D01*
X169015368Y-34930170D01*
X168995962Y-34939349D01*
X168975750Y-34946581D01*
X168954926Y-34951797D01*
X168933691Y-34954947D01*
X168912250Y-34956000D01*
X168399750Y-34956000D01*
X168378309Y-34954947D01*
X168357074Y-34951797D01*
X168336250Y-34946581D01*
X168316038Y-34939349D01*
X168296632Y-34930170D01*
X168278219Y-34919134D01*
X168260976Y-34906346D01*
X168245070Y-34891930D01*
X168230654Y-34876024D01*
X168217866Y-34858781D01*
X168206830Y-34840368D01*
X168197651Y-34820962D01*
X168190419Y-34800750D01*
X168185203Y-34779926D01*
X168182053Y-34758691D01*
X168181000Y-34737250D01*
X168181000Y-34299750D01*
X168182053Y-34278309D01*
X168185203Y-34257074D01*
X168190419Y-34236250D01*
X168197651Y-34216038D01*
X168206830Y-34196632D01*
X168217866Y-34178219D01*
X168230654Y-34160976D01*
X168245070Y-34145070D01*
X168260976Y-34130654D01*
X168278219Y-34117866D01*
X168296632Y-34106830D01*
X168316038Y-34097651D01*
X168336250Y-34090419D01*
X168357074Y-34085203D01*
X168378309Y-34082053D01*
X168399750Y-34081000D01*
X168912250Y-34081000D01*
X168933691Y-34082053D01*
X168933691Y-34082053D01*
G37*
D12*
G04 #@! TD*
G04 #@! TO.P,C4,2*
G04 #@! TO.N,/GPIO39*
X168656000Y-34518500D03*
D11*
G04 #@! TO.N,/GPIO13*
G04 #@! TO.C,C3*
G36*
X140866691Y-33955053D02*
X140887926Y-33958203D01*
X140908750Y-33963419D01*
X140928962Y-33970651D01*
X140948368Y-33979830D01*
X140966781Y-33990866D01*
X140984024Y-34003654D01*
X140999930Y-34018070D01*
X141014346Y-34033976D01*
X141027134Y-34051219D01*
X141038170Y-34069632D01*
X141047349Y-34089038D01*
X141054581Y-34109250D01*
X141059797Y-34130074D01*
X141062947Y-34151309D01*
X141064000Y-34172750D01*
X141064000Y-34610250D01*
X141062947Y-34631691D01*
X141059797Y-34652926D01*
X141054581Y-34673750D01*
X141047349Y-34693962D01*
X141038170Y-34713368D01*
X141027134Y-34731781D01*
X141014346Y-34749024D01*
X140999930Y-34764930D01*
X140984024Y-34779346D01*
X140966781Y-34792134D01*
X140948368Y-34803170D01*
X140928962Y-34812349D01*
X140908750Y-34819581D01*
X140887926Y-34824797D01*
X140866691Y-34827947D01*
X140845250Y-34829000D01*
X140332750Y-34829000D01*
X140311309Y-34827947D01*
X140290074Y-34824797D01*
X140269250Y-34819581D01*
X140249038Y-34812349D01*
X140229632Y-34803170D01*
X140211219Y-34792134D01*
X140193976Y-34779346D01*
X140178070Y-34764930D01*
X140163654Y-34749024D01*
X140150866Y-34731781D01*
X140139830Y-34713368D01*
X140130651Y-34693962D01*
X140123419Y-34673750D01*
X140118203Y-34652926D01*
X140115053Y-34631691D01*
X140114000Y-34610250D01*
X140114000Y-34172750D01*
X140115053Y-34151309D01*
X140118203Y-34130074D01*
X140123419Y-34109250D01*
X140130651Y-34089038D01*
X140139830Y-34069632D01*
X140150866Y-34051219D01*
X140163654Y-34033976D01*
X140178070Y-34018070D01*
X140193976Y-34003654D01*
X140211219Y-33990866D01*
X140229632Y-33979830D01*
X140249038Y-33970651D01*
X140269250Y-33963419D01*
X140290074Y-33958203D01*
X140311309Y-33955053D01*
X140332750Y-33954000D01*
X140845250Y-33954000D01*
X140866691Y-33955053D01*
X140866691Y-33955053D01*
G37*
D12*
G04 #@! TD*
G04 #@! TO.P,C3,2*
G04 #@! TO.N,/GPIO13*
X140589000Y-34391500D03*
D11*
G04 #@! TO.N,GND*
G04 #@! TO.C,C3*
G36*
X140866691Y-35530053D02*
X140887926Y-35533203D01*
X140908750Y-35538419D01*
X140928962Y-35545651D01*
X140948368Y-35554830D01*
X140966781Y-35565866D01*
X140984024Y-35578654D01*
X140999930Y-35593070D01*
X141014346Y-35608976D01*
X141027134Y-35626219D01*
X141038170Y-35644632D01*
X141047349Y-35664038D01*
X141054581Y-35684250D01*
X141059797Y-35705074D01*
X141062947Y-35726309D01*
X141064000Y-35747750D01*
X141064000Y-36185250D01*
X141062947Y-36206691D01*
X141059797Y-36227926D01*
X141054581Y-36248750D01*
X141047349Y-36268962D01*
X141038170Y-36288368D01*
X141027134Y-36306781D01*
X141014346Y-36324024D01*
X140999930Y-36339930D01*
X140984024Y-36354346D01*
X140966781Y-36367134D01*
X140948368Y-36378170D01*
X140928962Y-36387349D01*
X140908750Y-36394581D01*
X140887926Y-36399797D01*
X140866691Y-36402947D01*
X140845250Y-36404000D01*
X140332750Y-36404000D01*
X140311309Y-36402947D01*
X140290074Y-36399797D01*
X140269250Y-36394581D01*
X140249038Y-36387349D01*
X140229632Y-36378170D01*
X140211219Y-36367134D01*
X140193976Y-36354346D01*
X140178070Y-36339930D01*
X140163654Y-36324024D01*
X140150866Y-36306781D01*
X140139830Y-36288368D01*
X140130651Y-36268962D01*
X140123419Y-36248750D01*
X140118203Y-36227926D01*
X140115053Y-36206691D01*
X140114000Y-36185250D01*
X140114000Y-35747750D01*
X140115053Y-35726309D01*
X140118203Y-35705074D01*
X140123419Y-35684250D01*
X140130651Y-35664038D01*
X140139830Y-35644632D01*
X140150866Y-35626219D01*
X140163654Y-35608976D01*
X140178070Y-35593070D01*
X140193976Y-35578654D01*
X140211219Y-35565866D01*
X140229632Y-35554830D01*
X140249038Y-35545651D01*
X140269250Y-35538419D01*
X140290074Y-35533203D01*
X140311309Y-35530053D01*
X140332750Y-35529000D01*
X140845250Y-35529000D01*
X140866691Y-35530053D01*
X140866691Y-35530053D01*
G37*
D12*
G04 #@! TD*
G04 #@! TO.P,C3,1*
G04 #@! TO.N,GND*
X140589000Y-35966500D03*
D11*
G04 #@! TO.N,GND*
G04 #@! TO.C,C2*
G36*
X145946691Y-35530053D02*
X145967926Y-35533203D01*
X145988750Y-35538419D01*
X146008962Y-35545651D01*
X146028368Y-35554830D01*
X146046781Y-35565866D01*
X146064024Y-35578654D01*
X146079930Y-35593070D01*
X146094346Y-35608976D01*
X146107134Y-35626219D01*
X146118170Y-35644632D01*
X146127349Y-35664038D01*
X146134581Y-35684250D01*
X146139797Y-35705074D01*
X146142947Y-35726309D01*
X146144000Y-35747750D01*
X146144000Y-36185250D01*
X146142947Y-36206691D01*
X146139797Y-36227926D01*
X146134581Y-36248750D01*
X146127349Y-36268962D01*
X146118170Y-36288368D01*
X146107134Y-36306781D01*
X146094346Y-36324024D01*
X146079930Y-36339930D01*
X146064024Y-36354346D01*
X146046781Y-36367134D01*
X146028368Y-36378170D01*
X146008962Y-36387349D01*
X145988750Y-36394581D01*
X145967926Y-36399797D01*
X145946691Y-36402947D01*
X145925250Y-36404000D01*
X145412750Y-36404000D01*
X145391309Y-36402947D01*
X145370074Y-36399797D01*
X145349250Y-36394581D01*
X145329038Y-36387349D01*
X145309632Y-36378170D01*
X145291219Y-36367134D01*
X145273976Y-36354346D01*
X145258070Y-36339930D01*
X145243654Y-36324024D01*
X145230866Y-36306781D01*
X145219830Y-36288368D01*
X145210651Y-36268962D01*
X145203419Y-36248750D01*
X145198203Y-36227926D01*
X145195053Y-36206691D01*
X145194000Y-36185250D01*
X145194000Y-35747750D01*
X145195053Y-35726309D01*
X145198203Y-35705074D01*
X145203419Y-35684250D01*
X145210651Y-35664038D01*
X145219830Y-35644632D01*
X145230866Y-35626219D01*
X145243654Y-35608976D01*
X145258070Y-35593070D01*
X145273976Y-35578654D01*
X145291219Y-35565866D01*
X145309632Y-35554830D01*
X145329038Y-35545651D01*
X145349250Y-35538419D01*
X145370074Y-35533203D01*
X145391309Y-35530053D01*
X145412750Y-35529000D01*
X145925250Y-35529000D01*
X145946691Y-35530053D01*
X145946691Y-35530053D01*
G37*
D12*
G04 #@! TD*
G04 #@! TO.P,C2,1*
G04 #@! TO.N,GND*
X145669000Y-35966500D03*
D11*
G04 #@! TO.N,/GPIO12*
G04 #@! TO.C,C2*
G36*
X145946691Y-33955053D02*
X145967926Y-33958203D01*
X145988750Y-33963419D01*
X146008962Y-33970651D01*
X146028368Y-33979830D01*
X146046781Y-33990866D01*
X146064024Y-34003654D01*
X146079930Y-34018070D01*
X146094346Y-34033976D01*
X146107134Y-34051219D01*
X146118170Y-34069632D01*
X146127349Y-34089038D01*
X146134581Y-34109250D01*
X146139797Y-34130074D01*
X146142947Y-34151309D01*
X146144000Y-34172750D01*
X146144000Y-34610250D01*
X146142947Y-34631691D01*
X146139797Y-34652926D01*
X146134581Y-34673750D01*
X146127349Y-34693962D01*
X146118170Y-34713368D01*
X146107134Y-34731781D01*
X146094346Y-34749024D01*
X146079930Y-34764930D01*
X146064024Y-34779346D01*
X146046781Y-34792134D01*
X146028368Y-34803170D01*
X146008962Y-34812349D01*
X145988750Y-34819581D01*
X145967926Y-34824797D01*
X145946691Y-34827947D01*
X145925250Y-34829000D01*
X145412750Y-34829000D01*
X145391309Y-34827947D01*
X145370074Y-34824797D01*
X145349250Y-34819581D01*
X145329038Y-34812349D01*
X145309632Y-34803170D01*
X145291219Y-34792134D01*
X145273976Y-34779346D01*
X145258070Y-34764930D01*
X145243654Y-34749024D01*
X145230866Y-34731781D01*
X145219830Y-34713368D01*
X145210651Y-34693962D01*
X145203419Y-34673750D01*
X145198203Y-34652926D01*
X145195053Y-34631691D01*
X145194000Y-34610250D01*
X145194000Y-34172750D01*
X145195053Y-34151309D01*
X145198203Y-34130074D01*
X145203419Y-34109250D01*
X145210651Y-34089038D01*
X145219830Y-34069632D01*
X145230866Y-34051219D01*
X145243654Y-34033976D01*
X145258070Y-34018070D01*
X145273976Y-34003654D01*
X145291219Y-33990866D01*
X145309632Y-33979830D01*
X145329038Y-33970651D01*
X145349250Y-33963419D01*
X145370074Y-33958203D01*
X145391309Y-33955053D01*
X145412750Y-33954000D01*
X145925250Y-33954000D01*
X145946691Y-33955053D01*
X145946691Y-33955053D01*
G37*
D12*
G04 #@! TD*
G04 #@! TO.P,C2,2*
G04 #@! TO.N,/GPIO12*
X145669000Y-34391500D03*
D16*
G04 #@! TO.N,/LCD_DC*
X175768000Y-62103000D03*
G04 #@! TO.N,/LCD_RST*
X163576000Y-84709000D03*
X163576000Y-77470000D03*
G04 #@! TO.N,GND*
X165100000Y-59944000D03*
X167259000Y-91694000D03*
X107320000Y-84010500D03*
X114178000Y-89789000D03*
X124841000Y-83629500D03*
X117978000Y-77533500D03*
X135636000Y-61214000D03*
X194188000Y-87884000D03*
X169926000Y-37846000D03*
X147040500Y-35560000D03*
G04 #@! TO.N,/VSPI_SCK*
X155829000Y-72898000D03*
X155829000Y-75819000D03*
G04 #@! TO.N,/VSPI_MOSI*
X174498000Y-62103000D03*
X173609000Y-59944000D03*
G04 #@! TO.N,/GPIO39*
X179832000Y-51054000D03*
X176784000Y-48006000D03*
G04 #@! TO.N,/GPIO36*
X180848000Y-44196000D03*
X176784000Y-40132000D03*
G04 #@! TO.N,/GPIO4*
X130937000Y-40132000D03*
X137541000Y-46609000D03*
G04 #@! TD*
D17*
G04 #@! TO.N,+3V3*
X160998697Y-23981486D02*
X160998697Y-22881486D01*
X160998697Y-21781486D02*
X160998697Y-17801486D01*
X160998697Y-22881486D02*
X160998697Y-21781486D01*
X179223687Y-17795040D02*
X179223687Y-22875040D01*
X177271893Y-30524875D02*
X176171893Y-30524875D01*
X179223687Y-28573081D02*
X177271893Y-30524875D01*
X179223687Y-22875040D02*
X179223687Y-28573081D01*
X162098697Y-17801486D02*
X160998697Y-17801486D01*
X163280144Y-16620039D02*
X162098697Y-17801486D01*
X179148686Y-16620039D02*
X163280144Y-16620039D01*
X179223687Y-16695040D02*
X179148686Y-16620039D01*
X179223687Y-17795040D02*
X179223687Y-16695040D01*
X171450000Y-84100000D02*
X171450000Y-83300000D01*
X171129290Y-83620710D02*
X170934298Y-83620710D01*
X171450000Y-83300000D02*
X171129290Y-83620710D01*
X171196000Y-61904000D02*
X173609000Y-64317000D01*
X171196000Y-61366500D02*
X171196000Y-61904000D01*
X172550000Y-83300000D02*
X171450000Y-83300000D01*
X173609000Y-82241000D02*
X172550000Y-83300000D01*
X173609000Y-64317000D02*
X173609000Y-82241000D01*
X171196000Y-61366500D02*
X175615500Y-61366500D01*
X175615500Y-61366500D02*
X178816000Y-58166000D01*
X176171893Y-31624875D02*
X176171893Y-30524875D01*
X178816000Y-34268982D02*
X176171893Y-31624875D01*
X178816000Y-58166000D02*
X178816000Y-34268982D01*
G04 #@! TO.N,/LCD_DC*
X175768000Y-84882000D02*
X175768000Y-62103000D01*
X171450000Y-88100000D02*
X172550000Y-88100000D01*
X172550000Y-88100000D02*
X175768000Y-84882000D01*
G04 #@! TO.N,/LCD_RST*
X171450000Y-89700000D02*
X168567000Y-89700000D01*
X168567000Y-89700000D02*
X163576000Y-84709000D01*
X163576000Y-56028982D02*
X163471893Y-55924875D01*
X163576000Y-77470000D02*
X163576000Y-56028982D01*
G04 #@! TO.N,GND*
X169138500Y-59944000D02*
X169291000Y-59791500D01*
X165100000Y-59944000D02*
X169138500Y-59944000D01*
X169291000Y-59791500D02*
X171196000Y-59791500D01*
X171450000Y-90500000D02*
X168453000Y-90500000D01*
X168453000Y-90500000D02*
X167259000Y-91694000D01*
X124836000Y-81770000D02*
X124836000Y-80670000D01*
X114178000Y-93320000D02*
X114178000Y-92220000D01*
X114178000Y-87020000D02*
X114178000Y-85920000D01*
X114178000Y-88120000D02*
X114178000Y-87020000D01*
X117978000Y-75420000D02*
X117978000Y-74320000D01*
X138023500Y-61531500D02*
X138049000Y-61557000D01*
X107320000Y-87212000D02*
X107320000Y-86970000D01*
X114178000Y-93320000D02*
X114178000Y-93670000D01*
X107320000Y-86970000D02*
X107320000Y-85870000D01*
X107320000Y-84010500D02*
X107320000Y-80670000D01*
X107320000Y-85870000D02*
X107320000Y-84010500D01*
X114178000Y-93670000D02*
X114178000Y-89789000D01*
X114178000Y-89789000D02*
X114178000Y-88120000D01*
X124836000Y-80606500D02*
X124836000Y-86906500D01*
X117978000Y-79870000D02*
X117978000Y-77533500D01*
X117978000Y-77533500D02*
X117978000Y-75420000D01*
X138176000Y-61239500D02*
X135661500Y-61239500D01*
X135661500Y-61239500D02*
X135636000Y-61214000D01*
X139751000Y-59664500D02*
X138176000Y-61239500D01*
X147066000Y-59664500D02*
X139751000Y-59664500D01*
X194188000Y-91024000D02*
X194178000Y-91034000D01*
X194188000Y-87884000D02*
X194188000Y-91024000D01*
X197988000Y-81890000D02*
X197988000Y-75590000D01*
X197238000Y-81890000D02*
X197988000Y-81890000D01*
X196672000Y-81890000D02*
X197238000Y-81890000D01*
X194178000Y-84384000D02*
X196672000Y-81890000D01*
X194178000Y-84734000D02*
X194178000Y-84384000D01*
X169926000Y-37846000D02*
X169926000Y-36093500D01*
X168656000Y-36093500D02*
X169926000Y-36093500D01*
X169926000Y-36093500D02*
X171196000Y-36093500D01*
X145669000Y-35966500D02*
X146634000Y-35966500D01*
X143151893Y-33403607D02*
X143151893Y-30524875D01*
X140589000Y-35966500D02*
X143151893Y-33403607D01*
X146634000Y-35966500D02*
X147040500Y-35560000D01*
X147040500Y-35560000D02*
X148209000Y-34391500D01*
G04 #@! TO.N,/GPIO35*
X171603687Y-17795040D02*
X171603687Y-22074042D01*
X163471893Y-29804753D02*
X163471893Y-30524875D01*
X170401606Y-22875040D02*
X163471893Y-29804753D01*
X171603687Y-22875040D02*
X170401606Y-22875040D01*
G04 #@! TO.N,/GPIO34*
X174143687Y-17795040D02*
X174143687Y-18997121D01*
X174143687Y-18997121D02*
X174143687Y-22875040D01*
X166493852Y-30524875D02*
X166011893Y-30524875D01*
X174143687Y-22875040D02*
X166493852Y-30524875D01*
G04 #@! TO.N,/GPIO26*
X153378697Y-30458071D02*
X153311893Y-30524875D01*
X153378697Y-17801486D02*
X153378697Y-30458071D01*
G04 #@! TO.N,/GPIO14*
X117978000Y-87020000D02*
X117978000Y-85920000D01*
X117978000Y-92220000D02*
X117978000Y-87020000D01*
X117978000Y-93320000D02*
X117978000Y-92220000D01*
X117978000Y-85920000D02*
X119443500Y-84454500D01*
X148231893Y-31726956D02*
X148231893Y-30524875D01*
X119443500Y-84454500D02*
X119443500Y-63488006D01*
X149081892Y-31374874D02*
X148231893Y-30524875D01*
X149081892Y-34762602D02*
X149081892Y-31374874D01*
X137960495Y-45883999D02*
X149081892Y-34762602D01*
X137047507Y-45883999D02*
X137960495Y-45883999D01*
X119443500Y-63488006D02*
X137047507Y-45883999D01*
G04 #@! TO.N,/GPIO25*
X155918697Y-30458071D02*
X155851893Y-30524875D01*
X155918697Y-17801486D02*
X155918697Y-30458071D01*
G04 #@! TO.N,/GPIO27*
X150838697Y-30458071D02*
X150771893Y-30524875D01*
X150838697Y-17801486D02*
X150838697Y-30458071D01*
G04 #@! TO.N,/VSPI_SCK*
X155851893Y-55924875D02*
X155851893Y-72875107D01*
X155851893Y-72875107D02*
X155829000Y-72898000D01*
X168910000Y-88900000D02*
X171450000Y-88900000D01*
X155829000Y-75819000D02*
X168910000Y-88900000D01*
G04 #@! TO.N,/VSPI_CS*
X170350000Y-87300000D02*
X171450000Y-87300000D01*
X169013588Y-87300000D02*
X170350000Y-87300000D01*
X153311893Y-71598305D02*
X169013588Y-87300000D01*
X153311893Y-55924875D02*
X153311893Y-71598305D01*
G04 #@! TO.N,/VSPI_MISO*
X170350000Y-85700000D02*
X171450000Y-85700000D01*
X158391893Y-73741893D02*
X170350000Y-85700000D01*
X158391893Y-55924875D02*
X158391893Y-73741893D01*
G04 #@! TO.N,/VSPI_MOSI*
X173631893Y-57126956D02*
X173631893Y-55924875D01*
X174498000Y-84552000D02*
X174498000Y-62103000D01*
X171450000Y-86500000D02*
X172550000Y-86500000D01*
X172550000Y-86500000D02*
X174498000Y-84552000D01*
X173609000Y-55947768D02*
X173631893Y-55924875D01*
X173609000Y-59944000D02*
X173609000Y-55947768D01*
G04 #@! TO.N,/GPIO39*
X190378000Y-89934000D02*
X190378000Y-84734000D01*
X190378000Y-91034000D02*
X190378000Y-89934000D01*
X168656000Y-30628982D02*
X168551893Y-30524875D01*
X168656000Y-34518500D02*
X168656000Y-30628982D01*
X179832000Y-74938000D02*
X179832000Y-51054000D01*
X190378000Y-84734000D02*
X189628000Y-84734000D01*
X189628000Y-84734000D02*
X179832000Y-74938000D01*
X176784000Y-48006000D02*
X167132000Y-38354000D01*
X167132000Y-36042500D02*
X168656000Y-34518500D01*
X167132000Y-38354000D02*
X167132000Y-36042500D01*
G04 #@! TO.N,/GPIO36*
X171196000Y-30628982D02*
X171091893Y-30524875D01*
X171196000Y-34518500D02*
X171196000Y-30628982D01*
X194188000Y-80790000D02*
X194188000Y-75590000D01*
X194188000Y-81890000D02*
X194188000Y-80790000D01*
X180848000Y-68200000D02*
X180848000Y-44196000D01*
X194188000Y-81890000D02*
X194188000Y-81540000D01*
X194188000Y-81540000D02*
X180848000Y-68200000D01*
X171196000Y-34544000D02*
X171196000Y-34518500D01*
X176784000Y-40132000D02*
X171196000Y-34544000D01*
G04 #@! TO.N,/GPIO12*
X145691893Y-31726956D02*
X145691893Y-30524875D01*
X145691893Y-34368607D02*
X145691893Y-31726956D01*
X114178000Y-65882500D02*
X145691893Y-34368607D01*
X114178000Y-80620000D02*
X114178000Y-65882500D01*
G04 #@! TO.N,/GPIO13*
X140611893Y-31726956D02*
X140611893Y-30524875D01*
X140611893Y-34368607D02*
X140611893Y-31726956D01*
X111120000Y-63860500D02*
X140611893Y-34368607D01*
X111120000Y-86970000D02*
X111120000Y-63860500D01*
G04 #@! TO.N,/GPIO15*
X121036000Y-80670000D02*
X121036000Y-86970000D01*
X138049000Y-55947768D02*
X138071893Y-55924875D01*
X124930000Y-59664500D02*
X138176000Y-59664500D01*
X121031000Y-63563500D02*
X124930000Y-59664500D01*
X121031000Y-79501500D02*
X121031000Y-63563500D01*
X121036000Y-80606500D02*
X121036000Y-79506500D01*
X121036000Y-79506500D02*
X121031000Y-79501500D01*
X138176000Y-56028982D02*
X138071893Y-55924875D01*
X138176000Y-59664500D02*
X138176000Y-56028982D01*
G04 #@! TO.N,/GPIO4*
X148298697Y-21679405D02*
X148298697Y-17801486D01*
X148298697Y-22881486D02*
X148298697Y-21679405D01*
X147448698Y-16951487D02*
X132781513Y-16951487D01*
X148298697Y-17801486D02*
X147448698Y-16951487D01*
X132781513Y-16951487D02*
X124841000Y-24892000D01*
X124841000Y-24892000D02*
X124841000Y-34036000D01*
X124841000Y-34036000D02*
X130937000Y-40132000D01*
X145691893Y-54759893D02*
X145691893Y-55924875D01*
X137541000Y-46609000D02*
X145691893Y-54759893D01*
G04 #@! TO.N,Net-(J10-Pad11)*
X171450000Y-82500000D02*
X171450000Y-80100000D01*
X170350000Y-80100000D02*
X171450000Y-80100000D01*
X169291000Y-79041000D02*
X170350000Y-80100000D01*
X169291000Y-61366500D02*
X169291000Y-79041000D01*
G04 #@! TO.N,Net-(D2-Pad2)*
X145749612Y-61701112D02*
X145288000Y-61239500D01*
X146786500Y-62738000D02*
X145749612Y-61701112D01*
X149123500Y-62738000D02*
X146786500Y-62738000D01*
X150622000Y-61239500D02*
X149123500Y-62738000D01*
G04 #@! TO.N,Net-(D1-Pad2)*
X148844000Y-61239500D02*
X147066000Y-61239500D01*
G04 #@! TO.N,/GPIO16*
X148844000Y-56536982D02*
X148231893Y-55924875D01*
X148844000Y-59664500D02*
X148844000Y-56536982D01*
G04 #@! TO.N,/GPIO17*
X150622000Y-56074768D02*
X150771893Y-55924875D01*
X150622000Y-59664500D02*
X150622000Y-56074768D01*
G04 #@! TD*
M02*
