M48
;DRILL file {KiCad (5.0.1)-3} date 2018-11-05 오전 12:22:09
;FORMAT={-:-/ absolute / metric / decimal}
FMAT,2
METRIC,TZ
T1C0.400
T2C1.000
%
G90
G05
M71
T1
X108.204Y-60.198
X108.966Y-32.258
X109.474Y-30.226
X109.474Y-33.528
X111.252Y-35.941
X113.284Y-31.242
X116.332Y-29.464
X120.523Y-84.455
X121.412Y-28.702
X122.682Y-63.5
X125.73Y-66.929
X125.73Y-80.518
X125.73Y-79.457
X126.746Y-81.026
X127.889Y-81.407
X128.651Y-82.181
X130.302Y-82.042
X134.366Y-81.153
X135.636Y-75.692
X138.176Y-79.375
X140.716Y-70.162
X141.986Y-68.961
X144.145Y-77.089
X145.923Y-60.452
X146.685Y-77.851
X146.812Y-82.04
X147.574Y-81.28
X149.987Y-35.941
X151.552Y-79.506
X153.416Y-75.057
X156.718Y-61.468
T2
X112.268Y-138.938
X114.808Y-138.938
X117.348Y-138.938
X119.888Y-138.938
X122.428Y-138.938
X124.968Y-138.938
X145.288Y-138.938
X147.828Y-138.938
X150.368Y-138.938
X152.908Y-138.938
X155.448Y-138.938
X157.988Y-138.938
X146.304Y-16.51
X148.844Y-16.51
X151.384Y-16.51
X153.924Y-16.51
X156.464Y-16.51
X159.004Y-16.51
X112.776Y-16.51
X115.316Y-16.51
X117.856Y-16.51
X120.396Y-16.51
X122.936Y-16.51
X125.476Y-16.51
X112.776Y-20.32
X115.316Y-20.32
X166.878Y-108.458
X166.878Y-110.998
X166.878Y-113.538
X166.878Y-116.078
X112.776Y-27.245
X112.776Y-27.245
X115.316Y-27.245
X115.316Y-27.245
X117.856Y-27.245
X117.856Y-27.245
X120.396Y-27.245
X120.396Y-27.245
X122.936Y-27.245
X122.936Y-27.245
X125.476Y-27.245
X125.476Y-27.245
X128.016Y-27.245
X128.016Y-27.245
X130.556Y-27.245
X130.556Y-27.245
X133.096Y-27.245
X133.096Y-27.245
X135.636Y-27.245
X135.636Y-27.245
X138.176Y-27.245
X138.176Y-27.245
X140.716Y-27.245
X140.716Y-27.245
X143.256Y-27.245
X143.256Y-27.245
X145.796Y-27.245
X145.796Y-27.245
X148.336Y-27.245
X148.336Y-27.245
X150.876Y-27.245
X150.876Y-27.245
X153.416Y-27.245
X153.416Y-27.245
X155.956Y-27.245
X155.956Y-27.245
X158.496Y-27.245
X158.496Y-27.245
X156.464Y-20.32
X159.004Y-20.32
X166.878Y-122.428
X166.878Y-124.968
X166.878Y-127.508
X166.878Y-130.048
X112.776Y-52.645
X112.776Y-52.645
X115.316Y-52.645
X115.316Y-52.645
X117.856Y-52.645
X117.856Y-52.645
X120.396Y-52.645
X120.396Y-52.645
X122.936Y-52.645
X122.936Y-52.645
X125.476Y-52.645
X125.476Y-52.645
X128.016Y-52.645
X128.016Y-52.645
X130.556Y-52.645
X130.556Y-52.645
X133.096Y-52.645
X133.096Y-52.645
X135.636Y-52.645
X135.636Y-52.645
X138.176Y-52.645
X138.176Y-52.645
X140.716Y-52.645
X140.716Y-52.645
X143.256Y-52.645
X143.256Y-52.645
X145.796Y-52.645
X145.796Y-52.645
X148.336Y-52.645
X148.336Y-52.645
X150.876Y-52.645
X150.876Y-52.645
X153.416Y-52.645
X153.416Y-52.645
X155.956Y-52.645
X155.956Y-52.645
X158.496Y-52.645
X158.496Y-52.645
X130.556Y-138.938
X133.096Y-138.938
X135.636Y-138.938
X138.176Y-138.938
T0
M30
