G04 #@! TF.GenerationSoftware,KiCad,Pcbnew,(5.0.1)-3*
G04 #@! TF.CreationDate,2018-11-05T00:22:11+09:00*
G04 #@! TF.ProjectId,badge,62616467652E6B696361645F70636200,rev?*
G04 #@! TF.SameCoordinates,Original*
G04 #@! TF.FileFunction,Paste,Top*
G04 #@! TF.FilePolarity,Positive*
%FSLAX46Y46*%
G04 Gerber Fmt 4.6, Leading zero omitted, Abs format (unit mm)*
G04 Created by KiCad (PCBNEW (5.0.1)-3) date 2018-11-05 오전 12:22:11*
%MOMM*%
%LPD*%
G01*
G04 APERTURE LIST*
%ADD10C,0.100000*%
%ADD11C,0.975000*%
%ADD12C,0.500000*%
%ADD13R,2.200000X1.800000*%
%ADD14R,1.300000X0.300000*%
%ADD15R,1.000000X1.900000*%
%ADD16R,1.000000X1.500000*%
%ADD17R,1.400000X1.300000*%
%ADD18R,1.500000X1.400000*%
%ADD19R,0.800000X0.900000*%
G04 APERTURE END LIST*
D10*
G04 #@! TO.C,R7*
G36*
X146403142Y-39059174D02*
X146426803Y-39062684D01*
X146450007Y-39068496D01*
X146472529Y-39076554D01*
X146494153Y-39086782D01*
X146514670Y-39099079D01*
X146533883Y-39113329D01*
X146551607Y-39129393D01*
X146567671Y-39147117D01*
X146581921Y-39166330D01*
X146594218Y-39186847D01*
X146604446Y-39208471D01*
X146612504Y-39230993D01*
X146618316Y-39254197D01*
X146621826Y-39277858D01*
X146623000Y-39301750D01*
X146623000Y-39789250D01*
X146621826Y-39813142D01*
X146618316Y-39836803D01*
X146612504Y-39860007D01*
X146604446Y-39882529D01*
X146594218Y-39904153D01*
X146581921Y-39924670D01*
X146567671Y-39943883D01*
X146551607Y-39961607D01*
X146533883Y-39977671D01*
X146514670Y-39991921D01*
X146494153Y-40004218D01*
X146472529Y-40014446D01*
X146450007Y-40022504D01*
X146426803Y-40028316D01*
X146403142Y-40031826D01*
X146379250Y-40033000D01*
X145466750Y-40033000D01*
X145442858Y-40031826D01*
X145419197Y-40028316D01*
X145395993Y-40022504D01*
X145373471Y-40014446D01*
X145351847Y-40004218D01*
X145331330Y-39991921D01*
X145312117Y-39977671D01*
X145294393Y-39961607D01*
X145278329Y-39943883D01*
X145264079Y-39924670D01*
X145251782Y-39904153D01*
X145241554Y-39882529D01*
X145233496Y-39860007D01*
X145227684Y-39836803D01*
X145224174Y-39813142D01*
X145223000Y-39789250D01*
X145223000Y-39301750D01*
X145224174Y-39277858D01*
X145227684Y-39254197D01*
X145233496Y-39230993D01*
X145241554Y-39208471D01*
X145251782Y-39186847D01*
X145264079Y-39166330D01*
X145278329Y-39147117D01*
X145294393Y-39129393D01*
X145312117Y-39113329D01*
X145331330Y-39099079D01*
X145351847Y-39086782D01*
X145373471Y-39076554D01*
X145395993Y-39068496D01*
X145419197Y-39062684D01*
X145442858Y-39059174D01*
X145466750Y-39058000D01*
X146379250Y-39058000D01*
X146403142Y-39059174D01*
X146403142Y-39059174D01*
G37*
D11*
X145923000Y-39545500D03*
D10*
G36*
X146403142Y-37184174D02*
X146426803Y-37187684D01*
X146450007Y-37193496D01*
X146472529Y-37201554D01*
X146494153Y-37211782D01*
X146514670Y-37224079D01*
X146533883Y-37238329D01*
X146551607Y-37254393D01*
X146567671Y-37272117D01*
X146581921Y-37291330D01*
X146594218Y-37311847D01*
X146604446Y-37333471D01*
X146612504Y-37355993D01*
X146618316Y-37379197D01*
X146621826Y-37402858D01*
X146623000Y-37426750D01*
X146623000Y-37914250D01*
X146621826Y-37938142D01*
X146618316Y-37961803D01*
X146612504Y-37985007D01*
X146604446Y-38007529D01*
X146594218Y-38029153D01*
X146581921Y-38049670D01*
X146567671Y-38068883D01*
X146551607Y-38086607D01*
X146533883Y-38102671D01*
X146514670Y-38116921D01*
X146494153Y-38129218D01*
X146472529Y-38139446D01*
X146450007Y-38147504D01*
X146426803Y-38153316D01*
X146403142Y-38156826D01*
X146379250Y-38158000D01*
X145466750Y-38158000D01*
X145442858Y-38156826D01*
X145419197Y-38153316D01*
X145395993Y-38147504D01*
X145373471Y-38139446D01*
X145351847Y-38129218D01*
X145331330Y-38116921D01*
X145312117Y-38102671D01*
X145294393Y-38086607D01*
X145278329Y-38068883D01*
X145264079Y-38049670D01*
X145251782Y-38029153D01*
X145241554Y-38007529D01*
X145233496Y-37985007D01*
X145227684Y-37961803D01*
X145224174Y-37938142D01*
X145223000Y-37914250D01*
X145223000Y-37426750D01*
X145224174Y-37402858D01*
X145227684Y-37379197D01*
X145233496Y-37355993D01*
X145241554Y-37333471D01*
X145251782Y-37311847D01*
X145264079Y-37291330D01*
X145278329Y-37272117D01*
X145294393Y-37254393D01*
X145312117Y-37238329D01*
X145331330Y-37224079D01*
X145351847Y-37211782D01*
X145373471Y-37201554D01*
X145395993Y-37193496D01*
X145419197Y-37187684D01*
X145442858Y-37184174D01*
X145466750Y-37183000D01*
X146379250Y-37183000D01*
X146403142Y-37184174D01*
X146403142Y-37184174D01*
G37*
D11*
X145923000Y-37670500D03*
G04 #@! TD*
D10*
G04 #@! TO.C,C8*
G36*
X143863142Y-39059174D02*
X143886803Y-39062684D01*
X143910007Y-39068496D01*
X143932529Y-39076554D01*
X143954153Y-39086782D01*
X143974670Y-39099079D01*
X143993883Y-39113329D01*
X144011607Y-39129393D01*
X144027671Y-39147117D01*
X144041921Y-39166330D01*
X144054218Y-39186847D01*
X144064446Y-39208471D01*
X144072504Y-39230993D01*
X144078316Y-39254197D01*
X144081826Y-39277858D01*
X144083000Y-39301750D01*
X144083000Y-39789250D01*
X144081826Y-39813142D01*
X144078316Y-39836803D01*
X144072504Y-39860007D01*
X144064446Y-39882529D01*
X144054218Y-39904153D01*
X144041921Y-39924670D01*
X144027671Y-39943883D01*
X144011607Y-39961607D01*
X143993883Y-39977671D01*
X143974670Y-39991921D01*
X143954153Y-40004218D01*
X143932529Y-40014446D01*
X143910007Y-40022504D01*
X143886803Y-40028316D01*
X143863142Y-40031826D01*
X143839250Y-40033000D01*
X142926750Y-40033000D01*
X142902858Y-40031826D01*
X142879197Y-40028316D01*
X142855993Y-40022504D01*
X142833471Y-40014446D01*
X142811847Y-40004218D01*
X142791330Y-39991921D01*
X142772117Y-39977671D01*
X142754393Y-39961607D01*
X142738329Y-39943883D01*
X142724079Y-39924670D01*
X142711782Y-39904153D01*
X142701554Y-39882529D01*
X142693496Y-39860007D01*
X142687684Y-39836803D01*
X142684174Y-39813142D01*
X142683000Y-39789250D01*
X142683000Y-39301750D01*
X142684174Y-39277858D01*
X142687684Y-39254197D01*
X142693496Y-39230993D01*
X142701554Y-39208471D01*
X142711782Y-39186847D01*
X142724079Y-39166330D01*
X142738329Y-39147117D01*
X142754393Y-39129393D01*
X142772117Y-39113329D01*
X142791330Y-39099079D01*
X142811847Y-39086782D01*
X142833471Y-39076554D01*
X142855993Y-39068496D01*
X142879197Y-39062684D01*
X142902858Y-39059174D01*
X142926750Y-39058000D01*
X143839250Y-39058000D01*
X143863142Y-39059174D01*
X143863142Y-39059174D01*
G37*
D11*
X143383000Y-39545500D03*
D10*
G36*
X143863142Y-37184174D02*
X143886803Y-37187684D01*
X143910007Y-37193496D01*
X143932529Y-37201554D01*
X143954153Y-37211782D01*
X143974670Y-37224079D01*
X143993883Y-37238329D01*
X144011607Y-37254393D01*
X144027671Y-37272117D01*
X144041921Y-37291330D01*
X144054218Y-37311847D01*
X144064446Y-37333471D01*
X144072504Y-37355993D01*
X144078316Y-37379197D01*
X144081826Y-37402858D01*
X144083000Y-37426750D01*
X144083000Y-37914250D01*
X144081826Y-37938142D01*
X144078316Y-37961803D01*
X144072504Y-37985007D01*
X144064446Y-38007529D01*
X144054218Y-38029153D01*
X144041921Y-38049670D01*
X144027671Y-38068883D01*
X144011607Y-38086607D01*
X143993883Y-38102671D01*
X143974670Y-38116921D01*
X143954153Y-38129218D01*
X143932529Y-38139446D01*
X143910007Y-38147504D01*
X143886803Y-38153316D01*
X143863142Y-38156826D01*
X143839250Y-38158000D01*
X142926750Y-38158000D01*
X142902858Y-38156826D01*
X142879197Y-38153316D01*
X142855993Y-38147504D01*
X142833471Y-38139446D01*
X142811847Y-38129218D01*
X142791330Y-38116921D01*
X142772117Y-38102671D01*
X142754393Y-38086607D01*
X142738329Y-38068883D01*
X142724079Y-38049670D01*
X142711782Y-38029153D01*
X142701554Y-38007529D01*
X142693496Y-37985007D01*
X142687684Y-37961803D01*
X142684174Y-37938142D01*
X142683000Y-37914250D01*
X142683000Y-37426750D01*
X142684174Y-37402858D01*
X142687684Y-37379197D01*
X142693496Y-37355993D01*
X142701554Y-37333471D01*
X142711782Y-37311847D01*
X142724079Y-37291330D01*
X142738329Y-37272117D01*
X142754393Y-37254393D01*
X142772117Y-37238329D01*
X142791330Y-37224079D01*
X142811847Y-37211782D01*
X142833471Y-37201554D01*
X142855993Y-37193496D01*
X142879197Y-37187684D01*
X142902858Y-37184174D01*
X142926750Y-37183000D01*
X143839250Y-37183000D01*
X143863142Y-37184174D01*
X143863142Y-37184174D01*
G37*
D11*
X143383000Y-37670500D03*
G04 #@! TD*
D10*
G04 #@! TO.C,R4*
G36*
X141323142Y-39059174D02*
X141346803Y-39062684D01*
X141370007Y-39068496D01*
X141392529Y-39076554D01*
X141414153Y-39086782D01*
X141434670Y-39099079D01*
X141453883Y-39113329D01*
X141471607Y-39129393D01*
X141487671Y-39147117D01*
X141501921Y-39166330D01*
X141514218Y-39186847D01*
X141524446Y-39208471D01*
X141532504Y-39230993D01*
X141538316Y-39254197D01*
X141541826Y-39277858D01*
X141543000Y-39301750D01*
X141543000Y-39789250D01*
X141541826Y-39813142D01*
X141538316Y-39836803D01*
X141532504Y-39860007D01*
X141524446Y-39882529D01*
X141514218Y-39904153D01*
X141501921Y-39924670D01*
X141487671Y-39943883D01*
X141471607Y-39961607D01*
X141453883Y-39977671D01*
X141434670Y-39991921D01*
X141414153Y-40004218D01*
X141392529Y-40014446D01*
X141370007Y-40022504D01*
X141346803Y-40028316D01*
X141323142Y-40031826D01*
X141299250Y-40033000D01*
X140386750Y-40033000D01*
X140362858Y-40031826D01*
X140339197Y-40028316D01*
X140315993Y-40022504D01*
X140293471Y-40014446D01*
X140271847Y-40004218D01*
X140251330Y-39991921D01*
X140232117Y-39977671D01*
X140214393Y-39961607D01*
X140198329Y-39943883D01*
X140184079Y-39924670D01*
X140171782Y-39904153D01*
X140161554Y-39882529D01*
X140153496Y-39860007D01*
X140147684Y-39836803D01*
X140144174Y-39813142D01*
X140143000Y-39789250D01*
X140143000Y-39301750D01*
X140144174Y-39277858D01*
X140147684Y-39254197D01*
X140153496Y-39230993D01*
X140161554Y-39208471D01*
X140171782Y-39186847D01*
X140184079Y-39166330D01*
X140198329Y-39147117D01*
X140214393Y-39129393D01*
X140232117Y-39113329D01*
X140251330Y-39099079D01*
X140271847Y-39086782D01*
X140293471Y-39076554D01*
X140315993Y-39068496D01*
X140339197Y-39062684D01*
X140362858Y-39059174D01*
X140386750Y-39058000D01*
X141299250Y-39058000D01*
X141323142Y-39059174D01*
X141323142Y-39059174D01*
G37*
D11*
X140843000Y-39545500D03*
D10*
G36*
X141323142Y-37184174D02*
X141346803Y-37187684D01*
X141370007Y-37193496D01*
X141392529Y-37201554D01*
X141414153Y-37211782D01*
X141434670Y-37224079D01*
X141453883Y-37238329D01*
X141471607Y-37254393D01*
X141487671Y-37272117D01*
X141501921Y-37291330D01*
X141514218Y-37311847D01*
X141524446Y-37333471D01*
X141532504Y-37355993D01*
X141538316Y-37379197D01*
X141541826Y-37402858D01*
X141543000Y-37426750D01*
X141543000Y-37914250D01*
X141541826Y-37938142D01*
X141538316Y-37961803D01*
X141532504Y-37985007D01*
X141524446Y-38007529D01*
X141514218Y-38029153D01*
X141501921Y-38049670D01*
X141487671Y-38068883D01*
X141471607Y-38086607D01*
X141453883Y-38102671D01*
X141434670Y-38116921D01*
X141414153Y-38129218D01*
X141392529Y-38139446D01*
X141370007Y-38147504D01*
X141346803Y-38153316D01*
X141323142Y-38156826D01*
X141299250Y-38158000D01*
X140386750Y-38158000D01*
X140362858Y-38156826D01*
X140339197Y-38153316D01*
X140315993Y-38147504D01*
X140293471Y-38139446D01*
X140271847Y-38129218D01*
X140251330Y-38116921D01*
X140232117Y-38102671D01*
X140214393Y-38086607D01*
X140198329Y-38068883D01*
X140184079Y-38049670D01*
X140171782Y-38029153D01*
X140161554Y-38007529D01*
X140153496Y-37985007D01*
X140147684Y-37961803D01*
X140144174Y-37938142D01*
X140143000Y-37914250D01*
X140143000Y-37426750D01*
X140144174Y-37402858D01*
X140147684Y-37379197D01*
X140153496Y-37355993D01*
X140161554Y-37333471D01*
X140171782Y-37311847D01*
X140184079Y-37291330D01*
X140198329Y-37272117D01*
X140214393Y-37254393D01*
X140232117Y-37238329D01*
X140251330Y-37224079D01*
X140271847Y-37211782D01*
X140293471Y-37201554D01*
X140315993Y-37193496D01*
X140339197Y-37187684D01*
X140362858Y-37184174D01*
X140386750Y-37183000D01*
X141299250Y-37183000D01*
X141323142Y-37184174D01*
X141323142Y-37184174D01*
G37*
D11*
X140843000Y-37670500D03*
G04 #@! TD*
D10*
G04 #@! TO.C,DS1*
G36*
X150493252Y-79391002D02*
X150505386Y-79392802D01*
X150517286Y-79395782D01*
X150528835Y-79399915D01*
X150539925Y-79405160D01*
X150550446Y-79411466D01*
X150560299Y-79418774D01*
X150569388Y-79427012D01*
X150577626Y-79436101D01*
X150584934Y-79445954D01*
X150591240Y-79456475D01*
X150596485Y-79467565D01*
X150600618Y-79479114D01*
X150603598Y-79491014D01*
X150605398Y-79503148D01*
X150606000Y-79515400D01*
X150606000Y-79765400D01*
X150605398Y-79777652D01*
X150603598Y-79789786D01*
X150600618Y-79801686D01*
X150596485Y-79813235D01*
X150591240Y-79824325D01*
X150584934Y-79834846D01*
X150577626Y-79844699D01*
X150569388Y-79853788D01*
X150560299Y-79862026D01*
X150550446Y-79869334D01*
X150539925Y-79875640D01*
X150528835Y-79880885D01*
X150517286Y-79885018D01*
X150505386Y-79887998D01*
X150493252Y-79889798D01*
X150481000Y-79890400D01*
X148731000Y-79890400D01*
X148718748Y-79889798D01*
X148706614Y-79887998D01*
X148694714Y-79885018D01*
X148683165Y-79880885D01*
X148672075Y-79875640D01*
X148661554Y-79869334D01*
X148651701Y-79862026D01*
X148642612Y-79853788D01*
X148634374Y-79844699D01*
X148627066Y-79834846D01*
X148620760Y-79824325D01*
X148615515Y-79813235D01*
X148611382Y-79801686D01*
X148608402Y-79789786D01*
X148606602Y-79777652D01*
X148606000Y-79765400D01*
X148606000Y-79515400D01*
X148606602Y-79503148D01*
X148608402Y-79491014D01*
X148611382Y-79479114D01*
X148615515Y-79467565D01*
X148620760Y-79456475D01*
X148627066Y-79445954D01*
X148634374Y-79436101D01*
X148642612Y-79427012D01*
X148651701Y-79418774D01*
X148661554Y-79411466D01*
X148672075Y-79405160D01*
X148683165Y-79399915D01*
X148694714Y-79395782D01*
X148706614Y-79392802D01*
X148718748Y-79391002D01*
X148731000Y-79390400D01*
X150481000Y-79390400D01*
X150493252Y-79391002D01*
X150493252Y-79391002D01*
G37*
D12*
X149606000Y-79640400D03*
D10*
G36*
X150493252Y-82591002D02*
X150505386Y-82592802D01*
X150517286Y-82595782D01*
X150528835Y-82599915D01*
X150539925Y-82605160D01*
X150550446Y-82611466D01*
X150560299Y-82618774D01*
X150569388Y-82627012D01*
X150577626Y-82636101D01*
X150584934Y-82645954D01*
X150591240Y-82656475D01*
X150596485Y-82667565D01*
X150600618Y-82679114D01*
X150603598Y-82691014D01*
X150605398Y-82703148D01*
X150606000Y-82715400D01*
X150606000Y-82965400D01*
X150605398Y-82977652D01*
X150603598Y-82989786D01*
X150600618Y-83001686D01*
X150596485Y-83013235D01*
X150591240Y-83024325D01*
X150584934Y-83034846D01*
X150577626Y-83044699D01*
X150569388Y-83053788D01*
X150560299Y-83062026D01*
X150550446Y-83069334D01*
X150539925Y-83075640D01*
X150528835Y-83080885D01*
X150517286Y-83085018D01*
X150505386Y-83087998D01*
X150493252Y-83089798D01*
X150481000Y-83090400D01*
X148731000Y-83090400D01*
X148718748Y-83089798D01*
X148706614Y-83087998D01*
X148694714Y-83085018D01*
X148683165Y-83080885D01*
X148672075Y-83075640D01*
X148661554Y-83069334D01*
X148651701Y-83062026D01*
X148642612Y-83053788D01*
X148634374Y-83044699D01*
X148627066Y-83034846D01*
X148620760Y-83024325D01*
X148615515Y-83013235D01*
X148611382Y-83001686D01*
X148608402Y-82989786D01*
X148606602Y-82977652D01*
X148606000Y-82965400D01*
X148606000Y-82715400D01*
X148606602Y-82703148D01*
X148608402Y-82691014D01*
X148611382Y-82679114D01*
X148615515Y-82667565D01*
X148620760Y-82656475D01*
X148627066Y-82645954D01*
X148634374Y-82636101D01*
X148642612Y-82627012D01*
X148651701Y-82618774D01*
X148661554Y-82611466D01*
X148672075Y-82605160D01*
X148683165Y-82599915D01*
X148694714Y-82595782D01*
X148706614Y-82592802D01*
X148718748Y-82591002D01*
X148731000Y-82590400D01*
X150481000Y-82590400D01*
X150493252Y-82591002D01*
X150493252Y-82591002D01*
G37*
D12*
X149606000Y-82840400D03*
D10*
G36*
X150493252Y-71391002D02*
X150505386Y-71392802D01*
X150517286Y-71395782D01*
X150528835Y-71399915D01*
X150539925Y-71405160D01*
X150550446Y-71411466D01*
X150560299Y-71418774D01*
X150569388Y-71427012D01*
X150577626Y-71436101D01*
X150584934Y-71445954D01*
X150591240Y-71456475D01*
X150596485Y-71467565D01*
X150600618Y-71479114D01*
X150603598Y-71491014D01*
X150605398Y-71503148D01*
X150606000Y-71515400D01*
X150606000Y-71765400D01*
X150605398Y-71777652D01*
X150603598Y-71789786D01*
X150600618Y-71801686D01*
X150596485Y-71813235D01*
X150591240Y-71824325D01*
X150584934Y-71834846D01*
X150577626Y-71844699D01*
X150569388Y-71853788D01*
X150560299Y-71862026D01*
X150550446Y-71869334D01*
X150539925Y-71875640D01*
X150528835Y-71880885D01*
X150517286Y-71885018D01*
X150505386Y-71887998D01*
X150493252Y-71889798D01*
X150481000Y-71890400D01*
X148731000Y-71890400D01*
X148718748Y-71889798D01*
X148706614Y-71887998D01*
X148694714Y-71885018D01*
X148683165Y-71880885D01*
X148672075Y-71875640D01*
X148661554Y-71869334D01*
X148651701Y-71862026D01*
X148642612Y-71853788D01*
X148634374Y-71844699D01*
X148627066Y-71834846D01*
X148620760Y-71824325D01*
X148615515Y-71813235D01*
X148611382Y-71801686D01*
X148608402Y-71789786D01*
X148606602Y-71777652D01*
X148606000Y-71765400D01*
X148606000Y-71515400D01*
X148606602Y-71503148D01*
X148608402Y-71491014D01*
X148611382Y-71479114D01*
X148615515Y-71467565D01*
X148620760Y-71456475D01*
X148627066Y-71445954D01*
X148634374Y-71436101D01*
X148642612Y-71427012D01*
X148651701Y-71418774D01*
X148661554Y-71411466D01*
X148672075Y-71405160D01*
X148683165Y-71399915D01*
X148694714Y-71395782D01*
X148706614Y-71392802D01*
X148718748Y-71391002D01*
X148731000Y-71390400D01*
X150481000Y-71390400D01*
X150493252Y-71391002D01*
X150493252Y-71391002D01*
G37*
D12*
X149606000Y-71640400D03*
D10*
G36*
X150493252Y-75391002D02*
X150505386Y-75392802D01*
X150517286Y-75395782D01*
X150528835Y-75399915D01*
X150539925Y-75405160D01*
X150550446Y-75411466D01*
X150560299Y-75418774D01*
X150569388Y-75427012D01*
X150577626Y-75436101D01*
X150584934Y-75445954D01*
X150591240Y-75456475D01*
X150596485Y-75467565D01*
X150600618Y-75479114D01*
X150603598Y-75491014D01*
X150605398Y-75503148D01*
X150606000Y-75515400D01*
X150606000Y-75765400D01*
X150605398Y-75777652D01*
X150603598Y-75789786D01*
X150600618Y-75801686D01*
X150596485Y-75813235D01*
X150591240Y-75824325D01*
X150584934Y-75834846D01*
X150577626Y-75844699D01*
X150569388Y-75853788D01*
X150560299Y-75862026D01*
X150550446Y-75869334D01*
X150539925Y-75875640D01*
X150528835Y-75880885D01*
X150517286Y-75885018D01*
X150505386Y-75887998D01*
X150493252Y-75889798D01*
X150481000Y-75890400D01*
X148731000Y-75890400D01*
X148718748Y-75889798D01*
X148706614Y-75887998D01*
X148694714Y-75885018D01*
X148683165Y-75880885D01*
X148672075Y-75875640D01*
X148661554Y-75869334D01*
X148651701Y-75862026D01*
X148642612Y-75853788D01*
X148634374Y-75844699D01*
X148627066Y-75834846D01*
X148620760Y-75824325D01*
X148615515Y-75813235D01*
X148611382Y-75801686D01*
X148608402Y-75789786D01*
X148606602Y-75777652D01*
X148606000Y-75765400D01*
X148606000Y-75515400D01*
X148606602Y-75503148D01*
X148608402Y-75491014D01*
X148611382Y-75479114D01*
X148615515Y-75467565D01*
X148620760Y-75456475D01*
X148627066Y-75445954D01*
X148634374Y-75436101D01*
X148642612Y-75427012D01*
X148651701Y-75418774D01*
X148661554Y-75411466D01*
X148672075Y-75405160D01*
X148683165Y-75399915D01*
X148694714Y-75395782D01*
X148706614Y-75392802D01*
X148718748Y-75391002D01*
X148731000Y-75390400D01*
X150481000Y-75390400D01*
X150493252Y-75391002D01*
X150493252Y-75391002D01*
G37*
D12*
X149606000Y-75640400D03*
D10*
G36*
X150493252Y-68991002D02*
X150505386Y-68992802D01*
X150517286Y-68995782D01*
X150528835Y-68999915D01*
X150539925Y-69005160D01*
X150550446Y-69011466D01*
X150560299Y-69018774D01*
X150569388Y-69027012D01*
X150577626Y-69036101D01*
X150584934Y-69045954D01*
X150591240Y-69056475D01*
X150596485Y-69067565D01*
X150600618Y-69079114D01*
X150603598Y-69091014D01*
X150605398Y-69103148D01*
X150606000Y-69115400D01*
X150606000Y-69365400D01*
X150605398Y-69377652D01*
X150603598Y-69389786D01*
X150600618Y-69401686D01*
X150596485Y-69413235D01*
X150591240Y-69424325D01*
X150584934Y-69434846D01*
X150577626Y-69444699D01*
X150569388Y-69453788D01*
X150560299Y-69462026D01*
X150550446Y-69469334D01*
X150539925Y-69475640D01*
X150528835Y-69480885D01*
X150517286Y-69485018D01*
X150505386Y-69487998D01*
X150493252Y-69489798D01*
X150481000Y-69490400D01*
X148731000Y-69490400D01*
X148718748Y-69489798D01*
X148706614Y-69487998D01*
X148694714Y-69485018D01*
X148683165Y-69480885D01*
X148672075Y-69475640D01*
X148661554Y-69469334D01*
X148651701Y-69462026D01*
X148642612Y-69453788D01*
X148634374Y-69444699D01*
X148627066Y-69434846D01*
X148620760Y-69424325D01*
X148615515Y-69413235D01*
X148611382Y-69401686D01*
X148608402Y-69389786D01*
X148606602Y-69377652D01*
X148606000Y-69365400D01*
X148606000Y-69115400D01*
X148606602Y-69103148D01*
X148608402Y-69091014D01*
X148611382Y-69079114D01*
X148615515Y-69067565D01*
X148620760Y-69056475D01*
X148627066Y-69045954D01*
X148634374Y-69036101D01*
X148642612Y-69027012D01*
X148651701Y-69018774D01*
X148661554Y-69011466D01*
X148672075Y-69005160D01*
X148683165Y-68999915D01*
X148694714Y-68995782D01*
X148706614Y-68992802D01*
X148718748Y-68991002D01*
X148731000Y-68990400D01*
X150481000Y-68990400D01*
X150493252Y-68991002D01*
X150493252Y-68991002D01*
G37*
D12*
X149606000Y-69240400D03*
D10*
G36*
X150493252Y-72991002D02*
X150505386Y-72992802D01*
X150517286Y-72995782D01*
X150528835Y-72999915D01*
X150539925Y-73005160D01*
X150550446Y-73011466D01*
X150560299Y-73018774D01*
X150569388Y-73027012D01*
X150577626Y-73036101D01*
X150584934Y-73045954D01*
X150591240Y-73056475D01*
X150596485Y-73067565D01*
X150600618Y-73079114D01*
X150603598Y-73091014D01*
X150605398Y-73103148D01*
X150606000Y-73115400D01*
X150606000Y-73365400D01*
X150605398Y-73377652D01*
X150603598Y-73389786D01*
X150600618Y-73401686D01*
X150596485Y-73413235D01*
X150591240Y-73424325D01*
X150584934Y-73434846D01*
X150577626Y-73444699D01*
X150569388Y-73453788D01*
X150560299Y-73462026D01*
X150550446Y-73469334D01*
X150539925Y-73475640D01*
X150528835Y-73480885D01*
X150517286Y-73485018D01*
X150505386Y-73487998D01*
X150493252Y-73489798D01*
X150481000Y-73490400D01*
X148731000Y-73490400D01*
X148718748Y-73489798D01*
X148706614Y-73487998D01*
X148694714Y-73485018D01*
X148683165Y-73480885D01*
X148672075Y-73475640D01*
X148661554Y-73469334D01*
X148651701Y-73462026D01*
X148642612Y-73453788D01*
X148634374Y-73444699D01*
X148627066Y-73434846D01*
X148620760Y-73424325D01*
X148615515Y-73413235D01*
X148611382Y-73401686D01*
X148608402Y-73389786D01*
X148606602Y-73377652D01*
X148606000Y-73365400D01*
X148606000Y-73115400D01*
X148606602Y-73103148D01*
X148608402Y-73091014D01*
X148611382Y-73079114D01*
X148615515Y-73067565D01*
X148620760Y-73056475D01*
X148627066Y-73045954D01*
X148634374Y-73036101D01*
X148642612Y-73027012D01*
X148651701Y-73018774D01*
X148661554Y-73011466D01*
X148672075Y-73005160D01*
X148683165Y-72999915D01*
X148694714Y-72995782D01*
X148706614Y-72992802D01*
X148718748Y-72991002D01*
X148731000Y-72990400D01*
X150481000Y-72990400D01*
X150493252Y-72991002D01*
X150493252Y-72991002D01*
G37*
D12*
X149606000Y-73240400D03*
D10*
G36*
X150493252Y-76991002D02*
X150505386Y-76992802D01*
X150517286Y-76995782D01*
X150528835Y-76999915D01*
X150539925Y-77005160D01*
X150550446Y-77011466D01*
X150560299Y-77018774D01*
X150569388Y-77027012D01*
X150577626Y-77036101D01*
X150584934Y-77045954D01*
X150591240Y-77056475D01*
X150596485Y-77067565D01*
X150600618Y-77079114D01*
X150603598Y-77091014D01*
X150605398Y-77103148D01*
X150606000Y-77115400D01*
X150606000Y-77365400D01*
X150605398Y-77377652D01*
X150603598Y-77389786D01*
X150600618Y-77401686D01*
X150596485Y-77413235D01*
X150591240Y-77424325D01*
X150584934Y-77434846D01*
X150577626Y-77444699D01*
X150569388Y-77453788D01*
X150560299Y-77462026D01*
X150550446Y-77469334D01*
X150539925Y-77475640D01*
X150528835Y-77480885D01*
X150517286Y-77485018D01*
X150505386Y-77487998D01*
X150493252Y-77489798D01*
X150481000Y-77490400D01*
X148731000Y-77490400D01*
X148718748Y-77489798D01*
X148706614Y-77487998D01*
X148694714Y-77485018D01*
X148683165Y-77480885D01*
X148672075Y-77475640D01*
X148661554Y-77469334D01*
X148651701Y-77462026D01*
X148642612Y-77453788D01*
X148634374Y-77444699D01*
X148627066Y-77434846D01*
X148620760Y-77424325D01*
X148615515Y-77413235D01*
X148611382Y-77401686D01*
X148608402Y-77389786D01*
X148606602Y-77377652D01*
X148606000Y-77365400D01*
X148606000Y-77115400D01*
X148606602Y-77103148D01*
X148608402Y-77091014D01*
X148611382Y-77079114D01*
X148615515Y-77067565D01*
X148620760Y-77056475D01*
X148627066Y-77045954D01*
X148634374Y-77036101D01*
X148642612Y-77027012D01*
X148651701Y-77018774D01*
X148661554Y-77011466D01*
X148672075Y-77005160D01*
X148683165Y-76999915D01*
X148694714Y-76995782D01*
X148706614Y-76992802D01*
X148718748Y-76991002D01*
X148731000Y-76990400D01*
X150481000Y-76990400D01*
X150493252Y-76991002D01*
X150493252Y-76991002D01*
G37*
D12*
X149606000Y-77240400D03*
D10*
G36*
X150493252Y-77791002D02*
X150505386Y-77792802D01*
X150517286Y-77795782D01*
X150528835Y-77799915D01*
X150539925Y-77805160D01*
X150550446Y-77811466D01*
X150560299Y-77818774D01*
X150569388Y-77827012D01*
X150577626Y-77836101D01*
X150584934Y-77845954D01*
X150591240Y-77856475D01*
X150596485Y-77867565D01*
X150600618Y-77879114D01*
X150603598Y-77891014D01*
X150605398Y-77903148D01*
X150606000Y-77915400D01*
X150606000Y-78165400D01*
X150605398Y-78177652D01*
X150603598Y-78189786D01*
X150600618Y-78201686D01*
X150596485Y-78213235D01*
X150591240Y-78224325D01*
X150584934Y-78234846D01*
X150577626Y-78244699D01*
X150569388Y-78253788D01*
X150560299Y-78262026D01*
X150550446Y-78269334D01*
X150539925Y-78275640D01*
X150528835Y-78280885D01*
X150517286Y-78285018D01*
X150505386Y-78287998D01*
X150493252Y-78289798D01*
X150481000Y-78290400D01*
X148731000Y-78290400D01*
X148718748Y-78289798D01*
X148706614Y-78287998D01*
X148694714Y-78285018D01*
X148683165Y-78280885D01*
X148672075Y-78275640D01*
X148661554Y-78269334D01*
X148651701Y-78262026D01*
X148642612Y-78253788D01*
X148634374Y-78244699D01*
X148627066Y-78234846D01*
X148620760Y-78224325D01*
X148615515Y-78213235D01*
X148611382Y-78201686D01*
X148608402Y-78189786D01*
X148606602Y-78177652D01*
X148606000Y-78165400D01*
X148606000Y-77915400D01*
X148606602Y-77903148D01*
X148608402Y-77891014D01*
X148611382Y-77879114D01*
X148615515Y-77867565D01*
X148620760Y-77856475D01*
X148627066Y-77845954D01*
X148634374Y-77836101D01*
X148642612Y-77827012D01*
X148651701Y-77818774D01*
X148661554Y-77811466D01*
X148672075Y-77805160D01*
X148683165Y-77799915D01*
X148694714Y-77795782D01*
X148706614Y-77792802D01*
X148718748Y-77791002D01*
X148731000Y-77790400D01*
X150481000Y-77790400D01*
X150493252Y-77791002D01*
X150493252Y-77791002D01*
G37*
D12*
X149606000Y-78040400D03*
D10*
G36*
X150493252Y-69791002D02*
X150505386Y-69792802D01*
X150517286Y-69795782D01*
X150528835Y-69799915D01*
X150539925Y-69805160D01*
X150550446Y-69811466D01*
X150560299Y-69818774D01*
X150569388Y-69827012D01*
X150577626Y-69836101D01*
X150584934Y-69845954D01*
X150591240Y-69856475D01*
X150596485Y-69867565D01*
X150600618Y-69879114D01*
X150603598Y-69891014D01*
X150605398Y-69903148D01*
X150606000Y-69915400D01*
X150606000Y-70165400D01*
X150605398Y-70177652D01*
X150603598Y-70189786D01*
X150600618Y-70201686D01*
X150596485Y-70213235D01*
X150591240Y-70224325D01*
X150584934Y-70234846D01*
X150577626Y-70244699D01*
X150569388Y-70253788D01*
X150560299Y-70262026D01*
X150550446Y-70269334D01*
X150539925Y-70275640D01*
X150528835Y-70280885D01*
X150517286Y-70285018D01*
X150505386Y-70287998D01*
X150493252Y-70289798D01*
X150481000Y-70290400D01*
X148731000Y-70290400D01*
X148718748Y-70289798D01*
X148706614Y-70287998D01*
X148694714Y-70285018D01*
X148683165Y-70280885D01*
X148672075Y-70275640D01*
X148661554Y-70269334D01*
X148651701Y-70262026D01*
X148642612Y-70253788D01*
X148634374Y-70244699D01*
X148627066Y-70234846D01*
X148620760Y-70224325D01*
X148615515Y-70213235D01*
X148611382Y-70201686D01*
X148608402Y-70189786D01*
X148606602Y-70177652D01*
X148606000Y-70165400D01*
X148606000Y-69915400D01*
X148606602Y-69903148D01*
X148608402Y-69891014D01*
X148611382Y-69879114D01*
X148615515Y-69867565D01*
X148620760Y-69856475D01*
X148627066Y-69845954D01*
X148634374Y-69836101D01*
X148642612Y-69827012D01*
X148651701Y-69818774D01*
X148661554Y-69811466D01*
X148672075Y-69805160D01*
X148683165Y-69799915D01*
X148694714Y-69795782D01*
X148706614Y-69792802D01*
X148718748Y-69791002D01*
X148731000Y-69790400D01*
X150481000Y-69790400D01*
X150493252Y-69791002D01*
X150493252Y-69791002D01*
G37*
D12*
X149606000Y-70040400D03*
D10*
G36*
X150493252Y-73791002D02*
X150505386Y-73792802D01*
X150517286Y-73795782D01*
X150528835Y-73799915D01*
X150539925Y-73805160D01*
X150550446Y-73811466D01*
X150560299Y-73818774D01*
X150569388Y-73827012D01*
X150577626Y-73836101D01*
X150584934Y-73845954D01*
X150591240Y-73856475D01*
X150596485Y-73867565D01*
X150600618Y-73879114D01*
X150603598Y-73891014D01*
X150605398Y-73903148D01*
X150606000Y-73915400D01*
X150606000Y-74165400D01*
X150605398Y-74177652D01*
X150603598Y-74189786D01*
X150600618Y-74201686D01*
X150596485Y-74213235D01*
X150591240Y-74224325D01*
X150584934Y-74234846D01*
X150577626Y-74244699D01*
X150569388Y-74253788D01*
X150560299Y-74262026D01*
X150550446Y-74269334D01*
X150539925Y-74275640D01*
X150528835Y-74280885D01*
X150517286Y-74285018D01*
X150505386Y-74287998D01*
X150493252Y-74289798D01*
X150481000Y-74290400D01*
X148731000Y-74290400D01*
X148718748Y-74289798D01*
X148706614Y-74287998D01*
X148694714Y-74285018D01*
X148683165Y-74280885D01*
X148672075Y-74275640D01*
X148661554Y-74269334D01*
X148651701Y-74262026D01*
X148642612Y-74253788D01*
X148634374Y-74244699D01*
X148627066Y-74234846D01*
X148620760Y-74224325D01*
X148615515Y-74213235D01*
X148611382Y-74201686D01*
X148608402Y-74189786D01*
X148606602Y-74177652D01*
X148606000Y-74165400D01*
X148606000Y-73915400D01*
X148606602Y-73903148D01*
X148608402Y-73891014D01*
X148611382Y-73879114D01*
X148615515Y-73867565D01*
X148620760Y-73856475D01*
X148627066Y-73845954D01*
X148634374Y-73836101D01*
X148642612Y-73827012D01*
X148651701Y-73818774D01*
X148661554Y-73811466D01*
X148672075Y-73805160D01*
X148683165Y-73799915D01*
X148694714Y-73795782D01*
X148706614Y-73792802D01*
X148718748Y-73791002D01*
X148731000Y-73790400D01*
X150481000Y-73790400D01*
X150493252Y-73791002D01*
X150493252Y-73791002D01*
G37*
D12*
X149606000Y-74040400D03*
D10*
G36*
X150493252Y-80991002D02*
X150505386Y-80992802D01*
X150517286Y-80995782D01*
X150528835Y-80999915D01*
X150539925Y-81005160D01*
X150550446Y-81011466D01*
X150560299Y-81018774D01*
X150569388Y-81027012D01*
X150577626Y-81036101D01*
X150584934Y-81045954D01*
X150591240Y-81056475D01*
X150596485Y-81067565D01*
X150600618Y-81079114D01*
X150603598Y-81091014D01*
X150605398Y-81103148D01*
X150606000Y-81115400D01*
X150606000Y-81365400D01*
X150605398Y-81377652D01*
X150603598Y-81389786D01*
X150600618Y-81401686D01*
X150596485Y-81413235D01*
X150591240Y-81424325D01*
X150584934Y-81434846D01*
X150577626Y-81444699D01*
X150569388Y-81453788D01*
X150560299Y-81462026D01*
X150550446Y-81469334D01*
X150539925Y-81475640D01*
X150528835Y-81480885D01*
X150517286Y-81485018D01*
X150505386Y-81487998D01*
X150493252Y-81489798D01*
X150481000Y-81490400D01*
X148731000Y-81490400D01*
X148718748Y-81489798D01*
X148706614Y-81487998D01*
X148694714Y-81485018D01*
X148683165Y-81480885D01*
X148672075Y-81475640D01*
X148661554Y-81469334D01*
X148651701Y-81462026D01*
X148642612Y-81453788D01*
X148634374Y-81444699D01*
X148627066Y-81434846D01*
X148620760Y-81424325D01*
X148615515Y-81413235D01*
X148611382Y-81401686D01*
X148608402Y-81389786D01*
X148606602Y-81377652D01*
X148606000Y-81365400D01*
X148606000Y-81115400D01*
X148606602Y-81103148D01*
X148608402Y-81091014D01*
X148611382Y-81079114D01*
X148615515Y-81067565D01*
X148620760Y-81056475D01*
X148627066Y-81045954D01*
X148634374Y-81036101D01*
X148642612Y-81027012D01*
X148651701Y-81018774D01*
X148661554Y-81011466D01*
X148672075Y-81005160D01*
X148683165Y-80999915D01*
X148694714Y-80995782D01*
X148706614Y-80992802D01*
X148718748Y-80991002D01*
X148731000Y-80990400D01*
X150481000Y-80990400D01*
X150493252Y-80991002D01*
X150493252Y-80991002D01*
G37*
D12*
X149606000Y-81240400D03*
D10*
G36*
X150493252Y-74591002D02*
X150505386Y-74592802D01*
X150517286Y-74595782D01*
X150528835Y-74599915D01*
X150539925Y-74605160D01*
X150550446Y-74611466D01*
X150560299Y-74618774D01*
X150569388Y-74627012D01*
X150577626Y-74636101D01*
X150584934Y-74645954D01*
X150591240Y-74656475D01*
X150596485Y-74667565D01*
X150600618Y-74679114D01*
X150603598Y-74691014D01*
X150605398Y-74703148D01*
X150606000Y-74715400D01*
X150606000Y-74965400D01*
X150605398Y-74977652D01*
X150603598Y-74989786D01*
X150600618Y-75001686D01*
X150596485Y-75013235D01*
X150591240Y-75024325D01*
X150584934Y-75034846D01*
X150577626Y-75044699D01*
X150569388Y-75053788D01*
X150560299Y-75062026D01*
X150550446Y-75069334D01*
X150539925Y-75075640D01*
X150528835Y-75080885D01*
X150517286Y-75085018D01*
X150505386Y-75087998D01*
X150493252Y-75089798D01*
X150481000Y-75090400D01*
X148731000Y-75090400D01*
X148718748Y-75089798D01*
X148706614Y-75087998D01*
X148694714Y-75085018D01*
X148683165Y-75080885D01*
X148672075Y-75075640D01*
X148661554Y-75069334D01*
X148651701Y-75062026D01*
X148642612Y-75053788D01*
X148634374Y-75044699D01*
X148627066Y-75034846D01*
X148620760Y-75024325D01*
X148615515Y-75013235D01*
X148611382Y-75001686D01*
X148608402Y-74989786D01*
X148606602Y-74977652D01*
X148606000Y-74965400D01*
X148606000Y-74715400D01*
X148606602Y-74703148D01*
X148608402Y-74691014D01*
X148611382Y-74679114D01*
X148615515Y-74667565D01*
X148620760Y-74656475D01*
X148627066Y-74645954D01*
X148634374Y-74636101D01*
X148642612Y-74627012D01*
X148651701Y-74618774D01*
X148661554Y-74611466D01*
X148672075Y-74605160D01*
X148683165Y-74599915D01*
X148694714Y-74595782D01*
X148706614Y-74592802D01*
X148718748Y-74591002D01*
X148731000Y-74590400D01*
X150481000Y-74590400D01*
X150493252Y-74591002D01*
X150493252Y-74591002D01*
G37*
D12*
X149606000Y-74840400D03*
D10*
G36*
X150493252Y-81791002D02*
X150505386Y-81792802D01*
X150517286Y-81795782D01*
X150528835Y-81799915D01*
X150539925Y-81805160D01*
X150550446Y-81811466D01*
X150560299Y-81818774D01*
X150569388Y-81827012D01*
X150577626Y-81836101D01*
X150584934Y-81845954D01*
X150591240Y-81856475D01*
X150596485Y-81867565D01*
X150600618Y-81879114D01*
X150603598Y-81891014D01*
X150605398Y-81903148D01*
X150606000Y-81915400D01*
X150606000Y-82165400D01*
X150605398Y-82177652D01*
X150603598Y-82189786D01*
X150600618Y-82201686D01*
X150596485Y-82213235D01*
X150591240Y-82224325D01*
X150584934Y-82234846D01*
X150577626Y-82244699D01*
X150569388Y-82253788D01*
X150560299Y-82262026D01*
X150550446Y-82269334D01*
X150539925Y-82275640D01*
X150528835Y-82280885D01*
X150517286Y-82285018D01*
X150505386Y-82287998D01*
X150493252Y-82289798D01*
X150481000Y-82290400D01*
X148731000Y-82290400D01*
X148718748Y-82289798D01*
X148706614Y-82287998D01*
X148694714Y-82285018D01*
X148683165Y-82280885D01*
X148672075Y-82275640D01*
X148661554Y-82269334D01*
X148651701Y-82262026D01*
X148642612Y-82253788D01*
X148634374Y-82244699D01*
X148627066Y-82234846D01*
X148620760Y-82224325D01*
X148615515Y-82213235D01*
X148611382Y-82201686D01*
X148608402Y-82189786D01*
X148606602Y-82177652D01*
X148606000Y-82165400D01*
X148606000Y-81915400D01*
X148606602Y-81903148D01*
X148608402Y-81891014D01*
X148611382Y-81879114D01*
X148615515Y-81867565D01*
X148620760Y-81856475D01*
X148627066Y-81845954D01*
X148634374Y-81836101D01*
X148642612Y-81827012D01*
X148651701Y-81818774D01*
X148661554Y-81811466D01*
X148672075Y-81805160D01*
X148683165Y-81799915D01*
X148694714Y-81795782D01*
X148706614Y-81792802D01*
X148718748Y-81791002D01*
X148731000Y-81790400D01*
X150481000Y-81790400D01*
X150493252Y-81791002D01*
X150493252Y-81791002D01*
G37*
D12*
X149606000Y-82040400D03*
D10*
G36*
X150493252Y-76191002D02*
X150505386Y-76192802D01*
X150517286Y-76195782D01*
X150528835Y-76199915D01*
X150539925Y-76205160D01*
X150550446Y-76211466D01*
X150560299Y-76218774D01*
X150569388Y-76227012D01*
X150577626Y-76236101D01*
X150584934Y-76245954D01*
X150591240Y-76256475D01*
X150596485Y-76267565D01*
X150600618Y-76279114D01*
X150603598Y-76291014D01*
X150605398Y-76303148D01*
X150606000Y-76315400D01*
X150606000Y-76565400D01*
X150605398Y-76577652D01*
X150603598Y-76589786D01*
X150600618Y-76601686D01*
X150596485Y-76613235D01*
X150591240Y-76624325D01*
X150584934Y-76634846D01*
X150577626Y-76644699D01*
X150569388Y-76653788D01*
X150560299Y-76662026D01*
X150550446Y-76669334D01*
X150539925Y-76675640D01*
X150528835Y-76680885D01*
X150517286Y-76685018D01*
X150505386Y-76687998D01*
X150493252Y-76689798D01*
X150481000Y-76690400D01*
X148731000Y-76690400D01*
X148718748Y-76689798D01*
X148706614Y-76687998D01*
X148694714Y-76685018D01*
X148683165Y-76680885D01*
X148672075Y-76675640D01*
X148661554Y-76669334D01*
X148651701Y-76662026D01*
X148642612Y-76653788D01*
X148634374Y-76644699D01*
X148627066Y-76634846D01*
X148620760Y-76624325D01*
X148615515Y-76613235D01*
X148611382Y-76601686D01*
X148608402Y-76589786D01*
X148606602Y-76577652D01*
X148606000Y-76565400D01*
X148606000Y-76315400D01*
X148606602Y-76303148D01*
X148608402Y-76291014D01*
X148611382Y-76279114D01*
X148615515Y-76267565D01*
X148620760Y-76256475D01*
X148627066Y-76245954D01*
X148634374Y-76236101D01*
X148642612Y-76227012D01*
X148651701Y-76218774D01*
X148661554Y-76211466D01*
X148672075Y-76205160D01*
X148683165Y-76199915D01*
X148694714Y-76195782D01*
X148706614Y-76192802D01*
X148718748Y-76191002D01*
X148731000Y-76190400D01*
X150481000Y-76190400D01*
X150493252Y-76191002D01*
X150493252Y-76191002D01*
G37*
D12*
X149606000Y-76440400D03*
D10*
G36*
X150493252Y-78591002D02*
X150505386Y-78592802D01*
X150517286Y-78595782D01*
X150528835Y-78599915D01*
X150539925Y-78605160D01*
X150550446Y-78611466D01*
X150560299Y-78618774D01*
X150569388Y-78627012D01*
X150577626Y-78636101D01*
X150584934Y-78645954D01*
X150591240Y-78656475D01*
X150596485Y-78667565D01*
X150600618Y-78679114D01*
X150603598Y-78691014D01*
X150605398Y-78703148D01*
X150606000Y-78715400D01*
X150606000Y-78965400D01*
X150605398Y-78977652D01*
X150603598Y-78989786D01*
X150600618Y-79001686D01*
X150596485Y-79013235D01*
X150591240Y-79024325D01*
X150584934Y-79034846D01*
X150577626Y-79044699D01*
X150569388Y-79053788D01*
X150560299Y-79062026D01*
X150550446Y-79069334D01*
X150539925Y-79075640D01*
X150528835Y-79080885D01*
X150517286Y-79085018D01*
X150505386Y-79087998D01*
X150493252Y-79089798D01*
X150481000Y-79090400D01*
X148731000Y-79090400D01*
X148718748Y-79089798D01*
X148706614Y-79087998D01*
X148694714Y-79085018D01*
X148683165Y-79080885D01*
X148672075Y-79075640D01*
X148661554Y-79069334D01*
X148651701Y-79062026D01*
X148642612Y-79053788D01*
X148634374Y-79044699D01*
X148627066Y-79034846D01*
X148620760Y-79024325D01*
X148615515Y-79013235D01*
X148611382Y-79001686D01*
X148608402Y-78989786D01*
X148606602Y-78977652D01*
X148606000Y-78965400D01*
X148606000Y-78715400D01*
X148606602Y-78703148D01*
X148608402Y-78691014D01*
X148611382Y-78679114D01*
X148615515Y-78667565D01*
X148620760Y-78656475D01*
X148627066Y-78645954D01*
X148634374Y-78636101D01*
X148642612Y-78627012D01*
X148651701Y-78618774D01*
X148661554Y-78611466D01*
X148672075Y-78605160D01*
X148683165Y-78599915D01*
X148694714Y-78595782D01*
X148706614Y-78592802D01*
X148718748Y-78591002D01*
X148731000Y-78590400D01*
X150481000Y-78590400D01*
X150493252Y-78591002D01*
X150493252Y-78591002D01*
G37*
D12*
X149606000Y-78840400D03*
D10*
G36*
X150493252Y-80191002D02*
X150505386Y-80192802D01*
X150517286Y-80195782D01*
X150528835Y-80199915D01*
X150539925Y-80205160D01*
X150550446Y-80211466D01*
X150560299Y-80218774D01*
X150569388Y-80227012D01*
X150577626Y-80236101D01*
X150584934Y-80245954D01*
X150591240Y-80256475D01*
X150596485Y-80267565D01*
X150600618Y-80279114D01*
X150603598Y-80291014D01*
X150605398Y-80303148D01*
X150606000Y-80315400D01*
X150606000Y-80565400D01*
X150605398Y-80577652D01*
X150603598Y-80589786D01*
X150600618Y-80601686D01*
X150596485Y-80613235D01*
X150591240Y-80624325D01*
X150584934Y-80634846D01*
X150577626Y-80644699D01*
X150569388Y-80653788D01*
X150560299Y-80662026D01*
X150550446Y-80669334D01*
X150539925Y-80675640D01*
X150528835Y-80680885D01*
X150517286Y-80685018D01*
X150505386Y-80687998D01*
X150493252Y-80689798D01*
X150481000Y-80690400D01*
X148731000Y-80690400D01*
X148718748Y-80689798D01*
X148706614Y-80687998D01*
X148694714Y-80685018D01*
X148683165Y-80680885D01*
X148672075Y-80675640D01*
X148661554Y-80669334D01*
X148651701Y-80662026D01*
X148642612Y-80653788D01*
X148634374Y-80644699D01*
X148627066Y-80634846D01*
X148620760Y-80624325D01*
X148615515Y-80613235D01*
X148611382Y-80601686D01*
X148608402Y-80589786D01*
X148606602Y-80577652D01*
X148606000Y-80565400D01*
X148606000Y-80315400D01*
X148606602Y-80303148D01*
X148608402Y-80291014D01*
X148611382Y-80279114D01*
X148615515Y-80267565D01*
X148620760Y-80256475D01*
X148627066Y-80245954D01*
X148634374Y-80236101D01*
X148642612Y-80227012D01*
X148651701Y-80218774D01*
X148661554Y-80211466D01*
X148672075Y-80205160D01*
X148683165Y-80199915D01*
X148694714Y-80195782D01*
X148706614Y-80192802D01*
X148718748Y-80191002D01*
X148731000Y-80190400D01*
X150481000Y-80190400D01*
X150493252Y-80191002D01*
X150493252Y-80191002D01*
G37*
D12*
X149606000Y-80440400D03*
D10*
G36*
X150493252Y-72191002D02*
X150505386Y-72192802D01*
X150517286Y-72195782D01*
X150528835Y-72199915D01*
X150539925Y-72205160D01*
X150550446Y-72211466D01*
X150560299Y-72218774D01*
X150569388Y-72227012D01*
X150577626Y-72236101D01*
X150584934Y-72245954D01*
X150591240Y-72256475D01*
X150596485Y-72267565D01*
X150600618Y-72279114D01*
X150603598Y-72291014D01*
X150605398Y-72303148D01*
X150606000Y-72315400D01*
X150606000Y-72565400D01*
X150605398Y-72577652D01*
X150603598Y-72589786D01*
X150600618Y-72601686D01*
X150596485Y-72613235D01*
X150591240Y-72624325D01*
X150584934Y-72634846D01*
X150577626Y-72644699D01*
X150569388Y-72653788D01*
X150560299Y-72662026D01*
X150550446Y-72669334D01*
X150539925Y-72675640D01*
X150528835Y-72680885D01*
X150517286Y-72685018D01*
X150505386Y-72687998D01*
X150493252Y-72689798D01*
X150481000Y-72690400D01*
X148731000Y-72690400D01*
X148718748Y-72689798D01*
X148706614Y-72687998D01*
X148694714Y-72685018D01*
X148683165Y-72680885D01*
X148672075Y-72675640D01*
X148661554Y-72669334D01*
X148651701Y-72662026D01*
X148642612Y-72653788D01*
X148634374Y-72644699D01*
X148627066Y-72634846D01*
X148620760Y-72624325D01*
X148615515Y-72613235D01*
X148611382Y-72601686D01*
X148608402Y-72589786D01*
X148606602Y-72577652D01*
X148606000Y-72565400D01*
X148606000Y-72315400D01*
X148606602Y-72303148D01*
X148608402Y-72291014D01*
X148611382Y-72279114D01*
X148615515Y-72267565D01*
X148620760Y-72256475D01*
X148627066Y-72245954D01*
X148634374Y-72236101D01*
X148642612Y-72227012D01*
X148651701Y-72218774D01*
X148661554Y-72211466D01*
X148672075Y-72205160D01*
X148683165Y-72199915D01*
X148694714Y-72195782D01*
X148706614Y-72192802D01*
X148718748Y-72191002D01*
X148731000Y-72190400D01*
X150481000Y-72190400D01*
X150493252Y-72191002D01*
X150493252Y-72191002D01*
G37*
D12*
X149606000Y-72440400D03*
D10*
G36*
X150493252Y-70591002D02*
X150505386Y-70592802D01*
X150517286Y-70595782D01*
X150528835Y-70599915D01*
X150539925Y-70605160D01*
X150550446Y-70611466D01*
X150560299Y-70618774D01*
X150569388Y-70627012D01*
X150577626Y-70636101D01*
X150584934Y-70645954D01*
X150591240Y-70656475D01*
X150596485Y-70667565D01*
X150600618Y-70679114D01*
X150603598Y-70691014D01*
X150605398Y-70703148D01*
X150606000Y-70715400D01*
X150606000Y-70965400D01*
X150605398Y-70977652D01*
X150603598Y-70989786D01*
X150600618Y-71001686D01*
X150596485Y-71013235D01*
X150591240Y-71024325D01*
X150584934Y-71034846D01*
X150577626Y-71044699D01*
X150569388Y-71053788D01*
X150560299Y-71062026D01*
X150550446Y-71069334D01*
X150539925Y-71075640D01*
X150528835Y-71080885D01*
X150517286Y-71085018D01*
X150505386Y-71087998D01*
X150493252Y-71089798D01*
X150481000Y-71090400D01*
X148731000Y-71090400D01*
X148718748Y-71089798D01*
X148706614Y-71087998D01*
X148694714Y-71085018D01*
X148683165Y-71080885D01*
X148672075Y-71075640D01*
X148661554Y-71069334D01*
X148651701Y-71062026D01*
X148642612Y-71053788D01*
X148634374Y-71044699D01*
X148627066Y-71034846D01*
X148620760Y-71024325D01*
X148615515Y-71013235D01*
X148611382Y-71001686D01*
X148608402Y-70989786D01*
X148606602Y-70977652D01*
X148606000Y-70965400D01*
X148606000Y-70715400D01*
X148606602Y-70703148D01*
X148608402Y-70691014D01*
X148611382Y-70679114D01*
X148615515Y-70667565D01*
X148620760Y-70656475D01*
X148627066Y-70645954D01*
X148634374Y-70636101D01*
X148642612Y-70627012D01*
X148651701Y-70618774D01*
X148661554Y-70611466D01*
X148672075Y-70605160D01*
X148683165Y-70599915D01*
X148694714Y-70595782D01*
X148706614Y-70592802D01*
X148718748Y-70591002D01*
X148731000Y-70590400D01*
X150481000Y-70590400D01*
X150493252Y-70591002D01*
X150493252Y-70591002D01*
G37*
D12*
X149606000Y-70840400D03*
G04 #@! TD*
D13*
G04 #@! TO.C,DS2*
X126114000Y-65058000D03*
X126114000Y-88358000D03*
D14*
X122864000Y-86458000D03*
X122864000Y-85958000D03*
X122864000Y-85458000D03*
X122864000Y-84958000D03*
X122864000Y-84458000D03*
X122864000Y-83958000D03*
X122864000Y-83458000D03*
X122864000Y-82958000D03*
X122864000Y-82458000D03*
X122864000Y-81958000D03*
X122864000Y-81458000D03*
X122864000Y-80958000D03*
X122864000Y-80458000D03*
X122864000Y-79958000D03*
X122864000Y-79458000D03*
X122864000Y-78958000D03*
X122864000Y-78458000D03*
X122864000Y-77958000D03*
X122864000Y-77458000D03*
X122864000Y-76958000D03*
X122864000Y-76458000D03*
X122864000Y-75958000D03*
X122864000Y-75458000D03*
X122864000Y-74958000D03*
X122864000Y-74458000D03*
X122864000Y-73958000D03*
X122864000Y-73458000D03*
X122864000Y-72958000D03*
X122864000Y-72458000D03*
X122864000Y-71958000D03*
X122864000Y-71458000D03*
X122864000Y-70958000D03*
X122864000Y-70458000D03*
X122864000Y-69958000D03*
X122864000Y-69458000D03*
X122864000Y-68958000D03*
X122864000Y-68458000D03*
X122864000Y-67958000D03*
X122864000Y-67458000D03*
X122864000Y-66958000D03*
G04 #@! TD*
D15*
G04 #@! TO.C,J12*
X112776000Y-28917083D03*
X117856000Y-28917083D03*
X122936000Y-28917083D03*
X128016000Y-28917083D03*
X133096000Y-28917083D03*
X138176000Y-28917083D03*
X143256000Y-28917083D03*
X148336000Y-28917083D03*
X153416000Y-28917083D03*
X158496000Y-28917083D03*
X115316000Y-25617083D03*
X120396000Y-25617083D03*
X125476000Y-25617083D03*
X130556000Y-25617083D03*
X135636000Y-25617083D03*
X140716000Y-25617083D03*
X145796000Y-25617083D03*
X150876000Y-25617083D03*
X155956000Y-25617083D03*
G04 #@! TD*
D16*
G04 #@! TO.C,SW3*
X145375000Y-123070000D03*
X140375000Y-108070000D03*
X145375000Y-108070000D03*
X140375000Y-123070000D03*
G04 #@! TD*
G04 #@! TO.C,SW6*
X158710000Y-120530000D03*
X153710000Y-105530000D03*
X158710000Y-105530000D03*
X153710000Y-120530000D03*
G04 #@! TD*
D17*
G04 #@! TO.C,SW7*
X114850000Y-114750000D03*
X126450000Y-114750000D03*
D18*
X126450000Y-111050000D03*
X114850000Y-111050000D03*
X114850000Y-117550000D03*
X126450000Y-117550000D03*
G04 #@! TD*
D10*
G04 #@! TO.C,C3*
G36*
X153896142Y-37184174D02*
X153919803Y-37187684D01*
X153943007Y-37193496D01*
X153965529Y-37201554D01*
X153987153Y-37211782D01*
X154007670Y-37224079D01*
X154026883Y-37238329D01*
X154044607Y-37254393D01*
X154060671Y-37272117D01*
X154074921Y-37291330D01*
X154087218Y-37311847D01*
X154097446Y-37333471D01*
X154105504Y-37355993D01*
X154111316Y-37379197D01*
X154114826Y-37402858D01*
X154116000Y-37426750D01*
X154116000Y-37914250D01*
X154114826Y-37938142D01*
X154111316Y-37961803D01*
X154105504Y-37985007D01*
X154097446Y-38007529D01*
X154087218Y-38029153D01*
X154074921Y-38049670D01*
X154060671Y-38068883D01*
X154044607Y-38086607D01*
X154026883Y-38102671D01*
X154007670Y-38116921D01*
X153987153Y-38129218D01*
X153965529Y-38139446D01*
X153943007Y-38147504D01*
X153919803Y-38153316D01*
X153896142Y-38156826D01*
X153872250Y-38158000D01*
X152959750Y-38158000D01*
X152935858Y-38156826D01*
X152912197Y-38153316D01*
X152888993Y-38147504D01*
X152866471Y-38139446D01*
X152844847Y-38129218D01*
X152824330Y-38116921D01*
X152805117Y-38102671D01*
X152787393Y-38086607D01*
X152771329Y-38068883D01*
X152757079Y-38049670D01*
X152744782Y-38029153D01*
X152734554Y-38007529D01*
X152726496Y-37985007D01*
X152720684Y-37961803D01*
X152717174Y-37938142D01*
X152716000Y-37914250D01*
X152716000Y-37426750D01*
X152717174Y-37402858D01*
X152720684Y-37379197D01*
X152726496Y-37355993D01*
X152734554Y-37333471D01*
X152744782Y-37311847D01*
X152757079Y-37291330D01*
X152771329Y-37272117D01*
X152787393Y-37254393D01*
X152805117Y-37238329D01*
X152824330Y-37224079D01*
X152844847Y-37211782D01*
X152866471Y-37201554D01*
X152888993Y-37193496D01*
X152912197Y-37187684D01*
X152935858Y-37184174D01*
X152959750Y-37183000D01*
X153872250Y-37183000D01*
X153896142Y-37184174D01*
X153896142Y-37184174D01*
G37*
D11*
X153416000Y-37670500D03*
D10*
G36*
X153896142Y-39059174D02*
X153919803Y-39062684D01*
X153943007Y-39068496D01*
X153965529Y-39076554D01*
X153987153Y-39086782D01*
X154007670Y-39099079D01*
X154026883Y-39113329D01*
X154044607Y-39129393D01*
X154060671Y-39147117D01*
X154074921Y-39166330D01*
X154087218Y-39186847D01*
X154097446Y-39208471D01*
X154105504Y-39230993D01*
X154111316Y-39254197D01*
X154114826Y-39277858D01*
X154116000Y-39301750D01*
X154116000Y-39789250D01*
X154114826Y-39813142D01*
X154111316Y-39836803D01*
X154105504Y-39860007D01*
X154097446Y-39882529D01*
X154087218Y-39904153D01*
X154074921Y-39924670D01*
X154060671Y-39943883D01*
X154044607Y-39961607D01*
X154026883Y-39977671D01*
X154007670Y-39991921D01*
X153987153Y-40004218D01*
X153965529Y-40014446D01*
X153943007Y-40022504D01*
X153919803Y-40028316D01*
X153896142Y-40031826D01*
X153872250Y-40033000D01*
X152959750Y-40033000D01*
X152935858Y-40031826D01*
X152912197Y-40028316D01*
X152888993Y-40022504D01*
X152866471Y-40014446D01*
X152844847Y-40004218D01*
X152824330Y-39991921D01*
X152805117Y-39977671D01*
X152787393Y-39961607D01*
X152771329Y-39943883D01*
X152757079Y-39924670D01*
X152744782Y-39904153D01*
X152734554Y-39882529D01*
X152726496Y-39860007D01*
X152720684Y-39836803D01*
X152717174Y-39813142D01*
X152716000Y-39789250D01*
X152716000Y-39301750D01*
X152717174Y-39277858D01*
X152720684Y-39254197D01*
X152726496Y-39230993D01*
X152734554Y-39208471D01*
X152744782Y-39186847D01*
X152757079Y-39166330D01*
X152771329Y-39147117D01*
X152787393Y-39129393D01*
X152805117Y-39113329D01*
X152824330Y-39099079D01*
X152844847Y-39086782D01*
X152866471Y-39076554D01*
X152888993Y-39068496D01*
X152912197Y-39062684D01*
X152935858Y-39059174D01*
X152959750Y-39058000D01*
X153872250Y-39058000D01*
X153896142Y-39059174D01*
X153896142Y-39059174D01*
G37*
D11*
X153416000Y-39545500D03*
G04 #@! TD*
D10*
G04 #@! TO.C,C2*
G36*
X151356142Y-39059174D02*
X151379803Y-39062684D01*
X151403007Y-39068496D01*
X151425529Y-39076554D01*
X151447153Y-39086782D01*
X151467670Y-39099079D01*
X151486883Y-39113329D01*
X151504607Y-39129393D01*
X151520671Y-39147117D01*
X151534921Y-39166330D01*
X151547218Y-39186847D01*
X151557446Y-39208471D01*
X151565504Y-39230993D01*
X151571316Y-39254197D01*
X151574826Y-39277858D01*
X151576000Y-39301750D01*
X151576000Y-39789250D01*
X151574826Y-39813142D01*
X151571316Y-39836803D01*
X151565504Y-39860007D01*
X151557446Y-39882529D01*
X151547218Y-39904153D01*
X151534921Y-39924670D01*
X151520671Y-39943883D01*
X151504607Y-39961607D01*
X151486883Y-39977671D01*
X151467670Y-39991921D01*
X151447153Y-40004218D01*
X151425529Y-40014446D01*
X151403007Y-40022504D01*
X151379803Y-40028316D01*
X151356142Y-40031826D01*
X151332250Y-40033000D01*
X150419750Y-40033000D01*
X150395858Y-40031826D01*
X150372197Y-40028316D01*
X150348993Y-40022504D01*
X150326471Y-40014446D01*
X150304847Y-40004218D01*
X150284330Y-39991921D01*
X150265117Y-39977671D01*
X150247393Y-39961607D01*
X150231329Y-39943883D01*
X150217079Y-39924670D01*
X150204782Y-39904153D01*
X150194554Y-39882529D01*
X150186496Y-39860007D01*
X150180684Y-39836803D01*
X150177174Y-39813142D01*
X150176000Y-39789250D01*
X150176000Y-39301750D01*
X150177174Y-39277858D01*
X150180684Y-39254197D01*
X150186496Y-39230993D01*
X150194554Y-39208471D01*
X150204782Y-39186847D01*
X150217079Y-39166330D01*
X150231329Y-39147117D01*
X150247393Y-39129393D01*
X150265117Y-39113329D01*
X150284330Y-39099079D01*
X150304847Y-39086782D01*
X150326471Y-39076554D01*
X150348993Y-39068496D01*
X150372197Y-39062684D01*
X150395858Y-39059174D01*
X150419750Y-39058000D01*
X151332250Y-39058000D01*
X151356142Y-39059174D01*
X151356142Y-39059174D01*
G37*
D11*
X150876000Y-39545500D03*
D10*
G36*
X151356142Y-37184174D02*
X151379803Y-37187684D01*
X151403007Y-37193496D01*
X151425529Y-37201554D01*
X151447153Y-37211782D01*
X151467670Y-37224079D01*
X151486883Y-37238329D01*
X151504607Y-37254393D01*
X151520671Y-37272117D01*
X151534921Y-37291330D01*
X151547218Y-37311847D01*
X151557446Y-37333471D01*
X151565504Y-37355993D01*
X151571316Y-37379197D01*
X151574826Y-37402858D01*
X151576000Y-37426750D01*
X151576000Y-37914250D01*
X151574826Y-37938142D01*
X151571316Y-37961803D01*
X151565504Y-37985007D01*
X151557446Y-38007529D01*
X151547218Y-38029153D01*
X151534921Y-38049670D01*
X151520671Y-38068883D01*
X151504607Y-38086607D01*
X151486883Y-38102671D01*
X151467670Y-38116921D01*
X151447153Y-38129218D01*
X151425529Y-38139446D01*
X151403007Y-38147504D01*
X151379803Y-38153316D01*
X151356142Y-38156826D01*
X151332250Y-38158000D01*
X150419750Y-38158000D01*
X150395858Y-38156826D01*
X150372197Y-38153316D01*
X150348993Y-38147504D01*
X150326471Y-38139446D01*
X150304847Y-38129218D01*
X150284330Y-38116921D01*
X150265117Y-38102671D01*
X150247393Y-38086607D01*
X150231329Y-38068883D01*
X150217079Y-38049670D01*
X150204782Y-38029153D01*
X150194554Y-38007529D01*
X150186496Y-37985007D01*
X150180684Y-37961803D01*
X150177174Y-37938142D01*
X150176000Y-37914250D01*
X150176000Y-37426750D01*
X150177174Y-37402858D01*
X150180684Y-37379197D01*
X150186496Y-37355993D01*
X150194554Y-37333471D01*
X150204782Y-37311847D01*
X150217079Y-37291330D01*
X150231329Y-37272117D01*
X150247393Y-37254393D01*
X150265117Y-37238329D01*
X150284330Y-37224079D01*
X150304847Y-37211782D01*
X150326471Y-37201554D01*
X150348993Y-37193496D01*
X150372197Y-37187684D01*
X150395858Y-37184174D01*
X150419750Y-37183000D01*
X151332250Y-37183000D01*
X151356142Y-37184174D01*
X151356142Y-37184174D01*
G37*
D11*
X150876000Y-37670500D03*
G04 #@! TD*
D10*
G04 #@! TO.C,D2*
G36*
X138873142Y-15303174D02*
X138896803Y-15306684D01*
X138920007Y-15312496D01*
X138942529Y-15320554D01*
X138964153Y-15330782D01*
X138984670Y-15343079D01*
X139003883Y-15357329D01*
X139021607Y-15373393D01*
X139037671Y-15391117D01*
X139051921Y-15410330D01*
X139064218Y-15430847D01*
X139074446Y-15452471D01*
X139082504Y-15474993D01*
X139088316Y-15498197D01*
X139091826Y-15521858D01*
X139093000Y-15545750D01*
X139093000Y-16458250D01*
X139091826Y-16482142D01*
X139088316Y-16505803D01*
X139082504Y-16529007D01*
X139074446Y-16551529D01*
X139064218Y-16573153D01*
X139051921Y-16593670D01*
X139037671Y-16612883D01*
X139021607Y-16630607D01*
X139003883Y-16646671D01*
X138984670Y-16660921D01*
X138964153Y-16673218D01*
X138942529Y-16683446D01*
X138920007Y-16691504D01*
X138896803Y-16697316D01*
X138873142Y-16700826D01*
X138849250Y-16702000D01*
X138361750Y-16702000D01*
X138337858Y-16700826D01*
X138314197Y-16697316D01*
X138290993Y-16691504D01*
X138268471Y-16683446D01*
X138246847Y-16673218D01*
X138226330Y-16660921D01*
X138207117Y-16646671D01*
X138189393Y-16630607D01*
X138173329Y-16612883D01*
X138159079Y-16593670D01*
X138146782Y-16573153D01*
X138136554Y-16551529D01*
X138128496Y-16529007D01*
X138122684Y-16505803D01*
X138119174Y-16482142D01*
X138118000Y-16458250D01*
X138118000Y-15545750D01*
X138119174Y-15521858D01*
X138122684Y-15498197D01*
X138128496Y-15474993D01*
X138136554Y-15452471D01*
X138146782Y-15430847D01*
X138159079Y-15410330D01*
X138173329Y-15391117D01*
X138189393Y-15373393D01*
X138207117Y-15357329D01*
X138226330Y-15343079D01*
X138246847Y-15330782D01*
X138268471Y-15320554D01*
X138290993Y-15312496D01*
X138314197Y-15306684D01*
X138337858Y-15303174D01*
X138361750Y-15302000D01*
X138849250Y-15302000D01*
X138873142Y-15303174D01*
X138873142Y-15303174D01*
G37*
D11*
X138605500Y-16002000D03*
D10*
G36*
X136998142Y-15303174D02*
X137021803Y-15306684D01*
X137045007Y-15312496D01*
X137067529Y-15320554D01*
X137089153Y-15330782D01*
X137109670Y-15343079D01*
X137128883Y-15357329D01*
X137146607Y-15373393D01*
X137162671Y-15391117D01*
X137176921Y-15410330D01*
X137189218Y-15430847D01*
X137199446Y-15452471D01*
X137207504Y-15474993D01*
X137213316Y-15498197D01*
X137216826Y-15521858D01*
X137218000Y-15545750D01*
X137218000Y-16458250D01*
X137216826Y-16482142D01*
X137213316Y-16505803D01*
X137207504Y-16529007D01*
X137199446Y-16551529D01*
X137189218Y-16573153D01*
X137176921Y-16593670D01*
X137162671Y-16612883D01*
X137146607Y-16630607D01*
X137128883Y-16646671D01*
X137109670Y-16660921D01*
X137089153Y-16673218D01*
X137067529Y-16683446D01*
X137045007Y-16691504D01*
X137021803Y-16697316D01*
X136998142Y-16700826D01*
X136974250Y-16702000D01*
X136486750Y-16702000D01*
X136462858Y-16700826D01*
X136439197Y-16697316D01*
X136415993Y-16691504D01*
X136393471Y-16683446D01*
X136371847Y-16673218D01*
X136351330Y-16660921D01*
X136332117Y-16646671D01*
X136314393Y-16630607D01*
X136298329Y-16612883D01*
X136284079Y-16593670D01*
X136271782Y-16573153D01*
X136261554Y-16551529D01*
X136253496Y-16529007D01*
X136247684Y-16505803D01*
X136244174Y-16482142D01*
X136243000Y-16458250D01*
X136243000Y-15545750D01*
X136244174Y-15521858D01*
X136247684Y-15498197D01*
X136253496Y-15474993D01*
X136261554Y-15452471D01*
X136271782Y-15430847D01*
X136284079Y-15410330D01*
X136298329Y-15391117D01*
X136314393Y-15373393D01*
X136332117Y-15357329D01*
X136351330Y-15343079D01*
X136371847Y-15330782D01*
X136393471Y-15320554D01*
X136415993Y-15312496D01*
X136439197Y-15306684D01*
X136462858Y-15303174D01*
X136486750Y-15302000D01*
X136974250Y-15302000D01*
X136998142Y-15303174D01*
X136998142Y-15303174D01*
G37*
D11*
X136730500Y-16002000D03*
G04 #@! TD*
D10*
G04 #@! TO.C,D1*
G36*
X135317142Y-15303174D02*
X135340803Y-15306684D01*
X135364007Y-15312496D01*
X135386529Y-15320554D01*
X135408153Y-15330782D01*
X135428670Y-15343079D01*
X135447883Y-15357329D01*
X135465607Y-15373393D01*
X135481671Y-15391117D01*
X135495921Y-15410330D01*
X135508218Y-15430847D01*
X135518446Y-15452471D01*
X135526504Y-15474993D01*
X135532316Y-15498197D01*
X135535826Y-15521858D01*
X135537000Y-15545750D01*
X135537000Y-16458250D01*
X135535826Y-16482142D01*
X135532316Y-16505803D01*
X135526504Y-16529007D01*
X135518446Y-16551529D01*
X135508218Y-16573153D01*
X135495921Y-16593670D01*
X135481671Y-16612883D01*
X135465607Y-16630607D01*
X135447883Y-16646671D01*
X135428670Y-16660921D01*
X135408153Y-16673218D01*
X135386529Y-16683446D01*
X135364007Y-16691504D01*
X135340803Y-16697316D01*
X135317142Y-16700826D01*
X135293250Y-16702000D01*
X134805750Y-16702000D01*
X134781858Y-16700826D01*
X134758197Y-16697316D01*
X134734993Y-16691504D01*
X134712471Y-16683446D01*
X134690847Y-16673218D01*
X134670330Y-16660921D01*
X134651117Y-16646671D01*
X134633393Y-16630607D01*
X134617329Y-16612883D01*
X134603079Y-16593670D01*
X134590782Y-16573153D01*
X134580554Y-16551529D01*
X134572496Y-16529007D01*
X134566684Y-16505803D01*
X134563174Y-16482142D01*
X134562000Y-16458250D01*
X134562000Y-15545750D01*
X134563174Y-15521858D01*
X134566684Y-15498197D01*
X134572496Y-15474993D01*
X134580554Y-15452471D01*
X134590782Y-15430847D01*
X134603079Y-15410330D01*
X134617329Y-15391117D01*
X134633393Y-15373393D01*
X134651117Y-15357329D01*
X134670330Y-15343079D01*
X134690847Y-15330782D01*
X134712471Y-15320554D01*
X134734993Y-15312496D01*
X134758197Y-15306684D01*
X134781858Y-15303174D01*
X134805750Y-15302000D01*
X135293250Y-15302000D01*
X135317142Y-15303174D01*
X135317142Y-15303174D01*
G37*
D11*
X135049500Y-16002000D03*
D10*
G36*
X133442142Y-15303174D02*
X133465803Y-15306684D01*
X133489007Y-15312496D01*
X133511529Y-15320554D01*
X133533153Y-15330782D01*
X133553670Y-15343079D01*
X133572883Y-15357329D01*
X133590607Y-15373393D01*
X133606671Y-15391117D01*
X133620921Y-15410330D01*
X133633218Y-15430847D01*
X133643446Y-15452471D01*
X133651504Y-15474993D01*
X133657316Y-15498197D01*
X133660826Y-15521858D01*
X133662000Y-15545750D01*
X133662000Y-16458250D01*
X133660826Y-16482142D01*
X133657316Y-16505803D01*
X133651504Y-16529007D01*
X133643446Y-16551529D01*
X133633218Y-16573153D01*
X133620921Y-16593670D01*
X133606671Y-16612883D01*
X133590607Y-16630607D01*
X133572883Y-16646671D01*
X133553670Y-16660921D01*
X133533153Y-16673218D01*
X133511529Y-16683446D01*
X133489007Y-16691504D01*
X133465803Y-16697316D01*
X133442142Y-16700826D01*
X133418250Y-16702000D01*
X132930750Y-16702000D01*
X132906858Y-16700826D01*
X132883197Y-16697316D01*
X132859993Y-16691504D01*
X132837471Y-16683446D01*
X132815847Y-16673218D01*
X132795330Y-16660921D01*
X132776117Y-16646671D01*
X132758393Y-16630607D01*
X132742329Y-16612883D01*
X132728079Y-16593670D01*
X132715782Y-16573153D01*
X132705554Y-16551529D01*
X132697496Y-16529007D01*
X132691684Y-16505803D01*
X132688174Y-16482142D01*
X132687000Y-16458250D01*
X132687000Y-15545750D01*
X132688174Y-15521858D01*
X132691684Y-15498197D01*
X132697496Y-15474993D01*
X132705554Y-15452471D01*
X132715782Y-15430847D01*
X132728079Y-15410330D01*
X132742329Y-15391117D01*
X132758393Y-15373393D01*
X132776117Y-15357329D01*
X132795330Y-15343079D01*
X132815847Y-15330782D01*
X132837471Y-15320554D01*
X132859993Y-15312496D01*
X132883197Y-15306684D01*
X132906858Y-15303174D01*
X132930750Y-15302000D01*
X133418250Y-15302000D01*
X133442142Y-15303174D01*
X133442142Y-15303174D01*
G37*
D11*
X133174500Y-16002000D03*
G04 #@! TD*
D10*
G04 #@! TO.C,R9*
G36*
X121892142Y-39059174D02*
X121915803Y-39062684D01*
X121939007Y-39068496D01*
X121961529Y-39076554D01*
X121983153Y-39086782D01*
X122003670Y-39099079D01*
X122022883Y-39113329D01*
X122040607Y-39129393D01*
X122056671Y-39147117D01*
X122070921Y-39166330D01*
X122083218Y-39186847D01*
X122093446Y-39208471D01*
X122101504Y-39230993D01*
X122107316Y-39254197D01*
X122110826Y-39277858D01*
X122112000Y-39301750D01*
X122112000Y-39789250D01*
X122110826Y-39813142D01*
X122107316Y-39836803D01*
X122101504Y-39860007D01*
X122093446Y-39882529D01*
X122083218Y-39904153D01*
X122070921Y-39924670D01*
X122056671Y-39943883D01*
X122040607Y-39961607D01*
X122022883Y-39977671D01*
X122003670Y-39991921D01*
X121983153Y-40004218D01*
X121961529Y-40014446D01*
X121939007Y-40022504D01*
X121915803Y-40028316D01*
X121892142Y-40031826D01*
X121868250Y-40033000D01*
X120955750Y-40033000D01*
X120931858Y-40031826D01*
X120908197Y-40028316D01*
X120884993Y-40022504D01*
X120862471Y-40014446D01*
X120840847Y-40004218D01*
X120820330Y-39991921D01*
X120801117Y-39977671D01*
X120783393Y-39961607D01*
X120767329Y-39943883D01*
X120753079Y-39924670D01*
X120740782Y-39904153D01*
X120730554Y-39882529D01*
X120722496Y-39860007D01*
X120716684Y-39836803D01*
X120713174Y-39813142D01*
X120712000Y-39789250D01*
X120712000Y-39301750D01*
X120713174Y-39277858D01*
X120716684Y-39254197D01*
X120722496Y-39230993D01*
X120730554Y-39208471D01*
X120740782Y-39186847D01*
X120753079Y-39166330D01*
X120767329Y-39147117D01*
X120783393Y-39129393D01*
X120801117Y-39113329D01*
X120820330Y-39099079D01*
X120840847Y-39086782D01*
X120862471Y-39076554D01*
X120884993Y-39068496D01*
X120908197Y-39062684D01*
X120931858Y-39059174D01*
X120955750Y-39058000D01*
X121868250Y-39058000D01*
X121892142Y-39059174D01*
X121892142Y-39059174D01*
G37*
D11*
X121412000Y-39545500D03*
D10*
G36*
X121892142Y-37184174D02*
X121915803Y-37187684D01*
X121939007Y-37193496D01*
X121961529Y-37201554D01*
X121983153Y-37211782D01*
X122003670Y-37224079D01*
X122022883Y-37238329D01*
X122040607Y-37254393D01*
X122056671Y-37272117D01*
X122070921Y-37291330D01*
X122083218Y-37311847D01*
X122093446Y-37333471D01*
X122101504Y-37355993D01*
X122107316Y-37379197D01*
X122110826Y-37402858D01*
X122112000Y-37426750D01*
X122112000Y-37914250D01*
X122110826Y-37938142D01*
X122107316Y-37961803D01*
X122101504Y-37985007D01*
X122093446Y-38007529D01*
X122083218Y-38029153D01*
X122070921Y-38049670D01*
X122056671Y-38068883D01*
X122040607Y-38086607D01*
X122022883Y-38102671D01*
X122003670Y-38116921D01*
X121983153Y-38129218D01*
X121961529Y-38139446D01*
X121939007Y-38147504D01*
X121915803Y-38153316D01*
X121892142Y-38156826D01*
X121868250Y-38158000D01*
X120955750Y-38158000D01*
X120931858Y-38156826D01*
X120908197Y-38153316D01*
X120884993Y-38147504D01*
X120862471Y-38139446D01*
X120840847Y-38129218D01*
X120820330Y-38116921D01*
X120801117Y-38102671D01*
X120783393Y-38086607D01*
X120767329Y-38068883D01*
X120753079Y-38049670D01*
X120740782Y-38029153D01*
X120730554Y-38007529D01*
X120722496Y-37985007D01*
X120716684Y-37961803D01*
X120713174Y-37938142D01*
X120712000Y-37914250D01*
X120712000Y-37426750D01*
X120713174Y-37402858D01*
X120716684Y-37379197D01*
X120722496Y-37355993D01*
X120730554Y-37333471D01*
X120740782Y-37311847D01*
X120753079Y-37291330D01*
X120767329Y-37272117D01*
X120783393Y-37254393D01*
X120801117Y-37238329D01*
X120820330Y-37224079D01*
X120840847Y-37211782D01*
X120862471Y-37201554D01*
X120884993Y-37193496D01*
X120908197Y-37187684D01*
X120931858Y-37184174D01*
X120955750Y-37183000D01*
X121868250Y-37183000D01*
X121892142Y-37184174D01*
X121892142Y-37184174D01*
G37*
D11*
X121412000Y-37670500D03*
G04 #@! TD*
D10*
G04 #@! TO.C,R8*
G36*
X128496142Y-39059174D02*
X128519803Y-39062684D01*
X128543007Y-39068496D01*
X128565529Y-39076554D01*
X128587153Y-39086782D01*
X128607670Y-39099079D01*
X128626883Y-39113329D01*
X128644607Y-39129393D01*
X128660671Y-39147117D01*
X128674921Y-39166330D01*
X128687218Y-39186847D01*
X128697446Y-39208471D01*
X128705504Y-39230993D01*
X128711316Y-39254197D01*
X128714826Y-39277858D01*
X128716000Y-39301750D01*
X128716000Y-39789250D01*
X128714826Y-39813142D01*
X128711316Y-39836803D01*
X128705504Y-39860007D01*
X128697446Y-39882529D01*
X128687218Y-39904153D01*
X128674921Y-39924670D01*
X128660671Y-39943883D01*
X128644607Y-39961607D01*
X128626883Y-39977671D01*
X128607670Y-39991921D01*
X128587153Y-40004218D01*
X128565529Y-40014446D01*
X128543007Y-40022504D01*
X128519803Y-40028316D01*
X128496142Y-40031826D01*
X128472250Y-40033000D01*
X127559750Y-40033000D01*
X127535858Y-40031826D01*
X127512197Y-40028316D01*
X127488993Y-40022504D01*
X127466471Y-40014446D01*
X127444847Y-40004218D01*
X127424330Y-39991921D01*
X127405117Y-39977671D01*
X127387393Y-39961607D01*
X127371329Y-39943883D01*
X127357079Y-39924670D01*
X127344782Y-39904153D01*
X127334554Y-39882529D01*
X127326496Y-39860007D01*
X127320684Y-39836803D01*
X127317174Y-39813142D01*
X127316000Y-39789250D01*
X127316000Y-39301750D01*
X127317174Y-39277858D01*
X127320684Y-39254197D01*
X127326496Y-39230993D01*
X127334554Y-39208471D01*
X127344782Y-39186847D01*
X127357079Y-39166330D01*
X127371329Y-39147117D01*
X127387393Y-39129393D01*
X127405117Y-39113329D01*
X127424330Y-39099079D01*
X127444847Y-39086782D01*
X127466471Y-39076554D01*
X127488993Y-39068496D01*
X127512197Y-39062684D01*
X127535858Y-39059174D01*
X127559750Y-39058000D01*
X128472250Y-39058000D01*
X128496142Y-39059174D01*
X128496142Y-39059174D01*
G37*
D11*
X128016000Y-39545500D03*
D10*
G36*
X128496142Y-37184174D02*
X128519803Y-37187684D01*
X128543007Y-37193496D01*
X128565529Y-37201554D01*
X128587153Y-37211782D01*
X128607670Y-37224079D01*
X128626883Y-37238329D01*
X128644607Y-37254393D01*
X128660671Y-37272117D01*
X128674921Y-37291330D01*
X128687218Y-37311847D01*
X128697446Y-37333471D01*
X128705504Y-37355993D01*
X128711316Y-37379197D01*
X128714826Y-37402858D01*
X128716000Y-37426750D01*
X128716000Y-37914250D01*
X128714826Y-37938142D01*
X128711316Y-37961803D01*
X128705504Y-37985007D01*
X128697446Y-38007529D01*
X128687218Y-38029153D01*
X128674921Y-38049670D01*
X128660671Y-38068883D01*
X128644607Y-38086607D01*
X128626883Y-38102671D01*
X128607670Y-38116921D01*
X128587153Y-38129218D01*
X128565529Y-38139446D01*
X128543007Y-38147504D01*
X128519803Y-38153316D01*
X128496142Y-38156826D01*
X128472250Y-38158000D01*
X127559750Y-38158000D01*
X127535858Y-38156826D01*
X127512197Y-38153316D01*
X127488993Y-38147504D01*
X127466471Y-38139446D01*
X127444847Y-38129218D01*
X127424330Y-38116921D01*
X127405117Y-38102671D01*
X127387393Y-38086607D01*
X127371329Y-38068883D01*
X127357079Y-38049670D01*
X127344782Y-38029153D01*
X127334554Y-38007529D01*
X127326496Y-37985007D01*
X127320684Y-37961803D01*
X127317174Y-37938142D01*
X127316000Y-37914250D01*
X127316000Y-37426750D01*
X127317174Y-37402858D01*
X127320684Y-37379197D01*
X127326496Y-37355993D01*
X127334554Y-37333471D01*
X127344782Y-37311847D01*
X127357079Y-37291330D01*
X127371329Y-37272117D01*
X127387393Y-37254393D01*
X127405117Y-37238329D01*
X127424330Y-37224079D01*
X127444847Y-37211782D01*
X127466471Y-37201554D01*
X127488993Y-37193496D01*
X127512197Y-37187684D01*
X127535858Y-37184174D01*
X127559750Y-37183000D01*
X128472250Y-37183000D01*
X128496142Y-37184174D01*
X128496142Y-37184174D01*
G37*
D11*
X128016000Y-37670500D03*
G04 #@! TD*
D10*
G04 #@! TO.C,R5*
G36*
X131036142Y-39059174D02*
X131059803Y-39062684D01*
X131083007Y-39068496D01*
X131105529Y-39076554D01*
X131127153Y-39086782D01*
X131147670Y-39099079D01*
X131166883Y-39113329D01*
X131184607Y-39129393D01*
X131200671Y-39147117D01*
X131214921Y-39166330D01*
X131227218Y-39186847D01*
X131237446Y-39208471D01*
X131245504Y-39230993D01*
X131251316Y-39254197D01*
X131254826Y-39277858D01*
X131256000Y-39301750D01*
X131256000Y-39789250D01*
X131254826Y-39813142D01*
X131251316Y-39836803D01*
X131245504Y-39860007D01*
X131237446Y-39882529D01*
X131227218Y-39904153D01*
X131214921Y-39924670D01*
X131200671Y-39943883D01*
X131184607Y-39961607D01*
X131166883Y-39977671D01*
X131147670Y-39991921D01*
X131127153Y-40004218D01*
X131105529Y-40014446D01*
X131083007Y-40022504D01*
X131059803Y-40028316D01*
X131036142Y-40031826D01*
X131012250Y-40033000D01*
X130099750Y-40033000D01*
X130075858Y-40031826D01*
X130052197Y-40028316D01*
X130028993Y-40022504D01*
X130006471Y-40014446D01*
X129984847Y-40004218D01*
X129964330Y-39991921D01*
X129945117Y-39977671D01*
X129927393Y-39961607D01*
X129911329Y-39943883D01*
X129897079Y-39924670D01*
X129884782Y-39904153D01*
X129874554Y-39882529D01*
X129866496Y-39860007D01*
X129860684Y-39836803D01*
X129857174Y-39813142D01*
X129856000Y-39789250D01*
X129856000Y-39301750D01*
X129857174Y-39277858D01*
X129860684Y-39254197D01*
X129866496Y-39230993D01*
X129874554Y-39208471D01*
X129884782Y-39186847D01*
X129897079Y-39166330D01*
X129911329Y-39147117D01*
X129927393Y-39129393D01*
X129945117Y-39113329D01*
X129964330Y-39099079D01*
X129984847Y-39086782D01*
X130006471Y-39076554D01*
X130028993Y-39068496D01*
X130052197Y-39062684D01*
X130075858Y-39059174D01*
X130099750Y-39058000D01*
X131012250Y-39058000D01*
X131036142Y-39059174D01*
X131036142Y-39059174D01*
G37*
D11*
X130556000Y-39545500D03*
D10*
G36*
X131036142Y-37184174D02*
X131059803Y-37187684D01*
X131083007Y-37193496D01*
X131105529Y-37201554D01*
X131127153Y-37211782D01*
X131147670Y-37224079D01*
X131166883Y-37238329D01*
X131184607Y-37254393D01*
X131200671Y-37272117D01*
X131214921Y-37291330D01*
X131227218Y-37311847D01*
X131237446Y-37333471D01*
X131245504Y-37355993D01*
X131251316Y-37379197D01*
X131254826Y-37402858D01*
X131256000Y-37426750D01*
X131256000Y-37914250D01*
X131254826Y-37938142D01*
X131251316Y-37961803D01*
X131245504Y-37985007D01*
X131237446Y-38007529D01*
X131227218Y-38029153D01*
X131214921Y-38049670D01*
X131200671Y-38068883D01*
X131184607Y-38086607D01*
X131166883Y-38102671D01*
X131147670Y-38116921D01*
X131127153Y-38129218D01*
X131105529Y-38139446D01*
X131083007Y-38147504D01*
X131059803Y-38153316D01*
X131036142Y-38156826D01*
X131012250Y-38158000D01*
X130099750Y-38158000D01*
X130075858Y-38156826D01*
X130052197Y-38153316D01*
X130028993Y-38147504D01*
X130006471Y-38139446D01*
X129984847Y-38129218D01*
X129964330Y-38116921D01*
X129945117Y-38102671D01*
X129927393Y-38086607D01*
X129911329Y-38068883D01*
X129897079Y-38049670D01*
X129884782Y-38029153D01*
X129874554Y-38007529D01*
X129866496Y-37985007D01*
X129860684Y-37961803D01*
X129857174Y-37938142D01*
X129856000Y-37914250D01*
X129856000Y-37426750D01*
X129857174Y-37402858D01*
X129860684Y-37379197D01*
X129866496Y-37355993D01*
X129874554Y-37333471D01*
X129884782Y-37311847D01*
X129897079Y-37291330D01*
X129911329Y-37272117D01*
X129927393Y-37254393D01*
X129945117Y-37238329D01*
X129964330Y-37224079D01*
X129984847Y-37211782D01*
X130006471Y-37201554D01*
X130028993Y-37193496D01*
X130052197Y-37187684D01*
X130075858Y-37184174D01*
X130099750Y-37183000D01*
X131012250Y-37183000D01*
X131036142Y-37184174D01*
X131036142Y-37184174D01*
G37*
D11*
X130556000Y-37670500D03*
G04 #@! TD*
D10*
G04 #@! TO.C,R6*
G36*
X133576142Y-37184174D02*
X133599803Y-37187684D01*
X133623007Y-37193496D01*
X133645529Y-37201554D01*
X133667153Y-37211782D01*
X133687670Y-37224079D01*
X133706883Y-37238329D01*
X133724607Y-37254393D01*
X133740671Y-37272117D01*
X133754921Y-37291330D01*
X133767218Y-37311847D01*
X133777446Y-37333471D01*
X133785504Y-37355993D01*
X133791316Y-37379197D01*
X133794826Y-37402858D01*
X133796000Y-37426750D01*
X133796000Y-37914250D01*
X133794826Y-37938142D01*
X133791316Y-37961803D01*
X133785504Y-37985007D01*
X133777446Y-38007529D01*
X133767218Y-38029153D01*
X133754921Y-38049670D01*
X133740671Y-38068883D01*
X133724607Y-38086607D01*
X133706883Y-38102671D01*
X133687670Y-38116921D01*
X133667153Y-38129218D01*
X133645529Y-38139446D01*
X133623007Y-38147504D01*
X133599803Y-38153316D01*
X133576142Y-38156826D01*
X133552250Y-38158000D01*
X132639750Y-38158000D01*
X132615858Y-38156826D01*
X132592197Y-38153316D01*
X132568993Y-38147504D01*
X132546471Y-38139446D01*
X132524847Y-38129218D01*
X132504330Y-38116921D01*
X132485117Y-38102671D01*
X132467393Y-38086607D01*
X132451329Y-38068883D01*
X132437079Y-38049670D01*
X132424782Y-38029153D01*
X132414554Y-38007529D01*
X132406496Y-37985007D01*
X132400684Y-37961803D01*
X132397174Y-37938142D01*
X132396000Y-37914250D01*
X132396000Y-37426750D01*
X132397174Y-37402858D01*
X132400684Y-37379197D01*
X132406496Y-37355993D01*
X132414554Y-37333471D01*
X132424782Y-37311847D01*
X132437079Y-37291330D01*
X132451329Y-37272117D01*
X132467393Y-37254393D01*
X132485117Y-37238329D01*
X132504330Y-37224079D01*
X132524847Y-37211782D01*
X132546471Y-37201554D01*
X132568993Y-37193496D01*
X132592197Y-37187684D01*
X132615858Y-37184174D01*
X132639750Y-37183000D01*
X133552250Y-37183000D01*
X133576142Y-37184174D01*
X133576142Y-37184174D01*
G37*
D11*
X133096000Y-37670500D03*
D10*
G36*
X133576142Y-39059174D02*
X133599803Y-39062684D01*
X133623007Y-39068496D01*
X133645529Y-39076554D01*
X133667153Y-39086782D01*
X133687670Y-39099079D01*
X133706883Y-39113329D01*
X133724607Y-39129393D01*
X133740671Y-39147117D01*
X133754921Y-39166330D01*
X133767218Y-39186847D01*
X133777446Y-39208471D01*
X133785504Y-39230993D01*
X133791316Y-39254197D01*
X133794826Y-39277858D01*
X133796000Y-39301750D01*
X133796000Y-39789250D01*
X133794826Y-39813142D01*
X133791316Y-39836803D01*
X133785504Y-39860007D01*
X133777446Y-39882529D01*
X133767218Y-39904153D01*
X133754921Y-39924670D01*
X133740671Y-39943883D01*
X133724607Y-39961607D01*
X133706883Y-39977671D01*
X133687670Y-39991921D01*
X133667153Y-40004218D01*
X133645529Y-40014446D01*
X133623007Y-40022504D01*
X133599803Y-40028316D01*
X133576142Y-40031826D01*
X133552250Y-40033000D01*
X132639750Y-40033000D01*
X132615858Y-40031826D01*
X132592197Y-40028316D01*
X132568993Y-40022504D01*
X132546471Y-40014446D01*
X132524847Y-40004218D01*
X132504330Y-39991921D01*
X132485117Y-39977671D01*
X132467393Y-39961607D01*
X132451329Y-39943883D01*
X132437079Y-39924670D01*
X132424782Y-39904153D01*
X132414554Y-39882529D01*
X132406496Y-39860007D01*
X132400684Y-39836803D01*
X132397174Y-39813142D01*
X132396000Y-39789250D01*
X132396000Y-39301750D01*
X132397174Y-39277858D01*
X132400684Y-39254197D01*
X132406496Y-39230993D01*
X132414554Y-39208471D01*
X132424782Y-39186847D01*
X132437079Y-39166330D01*
X132451329Y-39147117D01*
X132467393Y-39129393D01*
X132485117Y-39113329D01*
X132504330Y-39099079D01*
X132524847Y-39086782D01*
X132546471Y-39076554D01*
X132568993Y-39068496D01*
X132592197Y-39062684D01*
X132615858Y-39059174D01*
X132639750Y-39058000D01*
X133552250Y-39058000D01*
X133576142Y-39059174D01*
X133576142Y-39059174D01*
G37*
D11*
X133096000Y-39545500D03*
G04 #@! TD*
D19*
G04 #@! TO.C,Q1*
X125664000Y-37608000D03*
X123764000Y-37608000D03*
X124714000Y-39608000D03*
G04 #@! TD*
D15*
G04 #@! TO.C,J13*
X115316000Y-54290683D03*
X120396000Y-54290683D03*
X125476000Y-54290683D03*
X130556000Y-54290683D03*
X135636000Y-54290683D03*
X140716000Y-54290683D03*
X145796000Y-54290683D03*
X150876000Y-54290683D03*
X155956000Y-54290683D03*
X112776000Y-50990683D03*
X117856000Y-50990683D03*
X122936000Y-50990683D03*
X128016000Y-50990683D03*
X133096000Y-50990683D03*
X138176000Y-50990683D03*
X143256000Y-50990683D03*
X148336000Y-50990683D03*
X153416000Y-50990683D03*
X158496000Y-50990683D03*
G04 #@! TD*
M02*
