G04 #@! TF.GenerationSoftware,KiCad,Pcbnew,(5.0.1)-3*
G04 #@! TF.CreationDate,2018-10-31T18:48:16+09:00*
G04 #@! TF.ProjectId,badge,62616467652E6B696361645F70636200,rev?*
G04 #@! TF.SameCoordinates,Original*
G04 #@! TF.FileFunction,Paste,Top*
G04 #@! TF.FilePolarity,Positive*
%FSLAX46Y46*%
G04 Gerber Fmt 4.6, Leading zero omitted, Abs format (unit mm)*
G04 Created by KiCad (PCBNEW (5.0.1)-3) date 2018-10-31 오후 6:48:16*
%MOMM*%
%LPD*%
G01*
G04 APERTURE LIST*
%ADD10R,1.000000X1.900000*%
%ADD11R,1.400000X1.300000*%
%ADD12R,1.500000X1.400000*%
%ADD13C,0.100000*%
%ADD14C,0.875000*%
%ADD15R,1.000000X1.700000*%
%ADD16C,0.500000*%
G04 APERTURE END LIST*
D10*
G04 #@! TO.C,J13*
X132999480Y-57570640D03*
X138079480Y-57570640D03*
X143159480Y-57570640D03*
X148239480Y-57570640D03*
X153319480Y-57570640D03*
X158399480Y-57570640D03*
X163479480Y-57570640D03*
X168559480Y-57570640D03*
X173639480Y-57570640D03*
X130459480Y-54270640D03*
X135539480Y-54270640D03*
X140619480Y-54270640D03*
X145699480Y-54270640D03*
X150779480Y-54270640D03*
X155859480Y-54270640D03*
X160939480Y-54270640D03*
X166019480Y-54270640D03*
X171099480Y-54270640D03*
X176179480Y-54270640D03*
G04 #@! TD*
G04 #@! TO.C,J12*
X130459480Y-32197040D03*
X135539480Y-32197040D03*
X140619480Y-32197040D03*
X145699480Y-32197040D03*
X150779480Y-32197040D03*
X155859480Y-32197040D03*
X160939480Y-32197040D03*
X166019480Y-32197040D03*
X171099480Y-32197040D03*
X176179480Y-32197040D03*
X132999480Y-28897040D03*
X138079480Y-28897040D03*
X143159480Y-28897040D03*
X148239480Y-28897040D03*
X153319480Y-28897040D03*
X158399480Y-28897040D03*
X163479480Y-28897040D03*
X168559480Y-28897040D03*
X173639480Y-28897040D03*
G04 #@! TD*
D11*
G04 #@! TO.C,SW7*
X110786000Y-62934000D03*
X122386000Y-62934000D03*
D12*
X122386000Y-59234000D03*
X110786000Y-59234000D03*
X110786000Y-65734000D03*
X122386000Y-65734000D03*
G04 #@! TD*
D13*
G04 #@! TO.C,C9*
G36*
X179093691Y-18562553D02*
X179114926Y-18565703D01*
X179135750Y-18570919D01*
X179155962Y-18578151D01*
X179175368Y-18587330D01*
X179193781Y-18598366D01*
X179211024Y-18611154D01*
X179226930Y-18625570D01*
X179241346Y-18641476D01*
X179254134Y-18658719D01*
X179265170Y-18677132D01*
X179274349Y-18696538D01*
X179281581Y-18716750D01*
X179286797Y-18737574D01*
X179289947Y-18758809D01*
X179291000Y-18780250D01*
X179291000Y-19217750D01*
X179289947Y-19239191D01*
X179286797Y-19260426D01*
X179281581Y-19281250D01*
X179274349Y-19301462D01*
X179265170Y-19320868D01*
X179254134Y-19339281D01*
X179241346Y-19356524D01*
X179226930Y-19372430D01*
X179211024Y-19386846D01*
X179193781Y-19399634D01*
X179175368Y-19410670D01*
X179155962Y-19419849D01*
X179135750Y-19427081D01*
X179114926Y-19432297D01*
X179093691Y-19435447D01*
X179072250Y-19436500D01*
X178559750Y-19436500D01*
X178538309Y-19435447D01*
X178517074Y-19432297D01*
X178496250Y-19427081D01*
X178476038Y-19419849D01*
X178456632Y-19410670D01*
X178438219Y-19399634D01*
X178420976Y-19386846D01*
X178405070Y-19372430D01*
X178390654Y-19356524D01*
X178377866Y-19339281D01*
X178366830Y-19320868D01*
X178357651Y-19301462D01*
X178350419Y-19281250D01*
X178345203Y-19260426D01*
X178342053Y-19239191D01*
X178341000Y-19217750D01*
X178341000Y-18780250D01*
X178342053Y-18758809D01*
X178345203Y-18737574D01*
X178350419Y-18716750D01*
X178357651Y-18696538D01*
X178366830Y-18677132D01*
X178377866Y-18658719D01*
X178390654Y-18641476D01*
X178405070Y-18625570D01*
X178420976Y-18611154D01*
X178438219Y-18598366D01*
X178456632Y-18587330D01*
X178476038Y-18578151D01*
X178496250Y-18570919D01*
X178517074Y-18565703D01*
X178538309Y-18562553D01*
X178559750Y-18561500D01*
X179072250Y-18561500D01*
X179093691Y-18562553D01*
X179093691Y-18562553D01*
G37*
D14*
X178816000Y-18999000D03*
D13*
G36*
X179093691Y-20137553D02*
X179114926Y-20140703D01*
X179135750Y-20145919D01*
X179155962Y-20153151D01*
X179175368Y-20162330D01*
X179193781Y-20173366D01*
X179211024Y-20186154D01*
X179226930Y-20200570D01*
X179241346Y-20216476D01*
X179254134Y-20233719D01*
X179265170Y-20252132D01*
X179274349Y-20271538D01*
X179281581Y-20291750D01*
X179286797Y-20312574D01*
X179289947Y-20333809D01*
X179291000Y-20355250D01*
X179291000Y-20792750D01*
X179289947Y-20814191D01*
X179286797Y-20835426D01*
X179281581Y-20856250D01*
X179274349Y-20876462D01*
X179265170Y-20895868D01*
X179254134Y-20914281D01*
X179241346Y-20931524D01*
X179226930Y-20947430D01*
X179211024Y-20961846D01*
X179193781Y-20974634D01*
X179175368Y-20985670D01*
X179155962Y-20994849D01*
X179135750Y-21002081D01*
X179114926Y-21007297D01*
X179093691Y-21010447D01*
X179072250Y-21011500D01*
X178559750Y-21011500D01*
X178538309Y-21010447D01*
X178517074Y-21007297D01*
X178496250Y-21002081D01*
X178476038Y-20994849D01*
X178456632Y-20985670D01*
X178438219Y-20974634D01*
X178420976Y-20961846D01*
X178405070Y-20947430D01*
X178390654Y-20931524D01*
X178377866Y-20914281D01*
X178366830Y-20895868D01*
X178357651Y-20876462D01*
X178350419Y-20856250D01*
X178345203Y-20835426D01*
X178342053Y-20814191D01*
X178341000Y-20792750D01*
X178341000Y-20355250D01*
X178342053Y-20333809D01*
X178345203Y-20312574D01*
X178350419Y-20291750D01*
X178357651Y-20271538D01*
X178366830Y-20252132D01*
X178377866Y-20233719D01*
X178390654Y-20216476D01*
X178405070Y-20200570D01*
X178420976Y-20186154D01*
X178438219Y-20173366D01*
X178456632Y-20162330D01*
X178476038Y-20153151D01*
X178496250Y-20145919D01*
X178517074Y-20140703D01*
X178538309Y-20137553D01*
X178559750Y-20136500D01*
X179072250Y-20136500D01*
X179093691Y-20137553D01*
X179093691Y-20137553D01*
G37*
D14*
X178816000Y-20574000D03*
G04 #@! TD*
D13*
G04 #@! TO.C,R7*
G36*
X176553691Y-18588053D02*
X176574926Y-18591203D01*
X176595750Y-18596419D01*
X176615962Y-18603651D01*
X176635368Y-18612830D01*
X176653781Y-18623866D01*
X176671024Y-18636654D01*
X176686930Y-18651070D01*
X176701346Y-18666976D01*
X176714134Y-18684219D01*
X176725170Y-18702632D01*
X176734349Y-18722038D01*
X176741581Y-18742250D01*
X176746797Y-18763074D01*
X176749947Y-18784309D01*
X176751000Y-18805750D01*
X176751000Y-19243250D01*
X176749947Y-19264691D01*
X176746797Y-19285926D01*
X176741581Y-19306750D01*
X176734349Y-19326962D01*
X176725170Y-19346368D01*
X176714134Y-19364781D01*
X176701346Y-19382024D01*
X176686930Y-19397930D01*
X176671024Y-19412346D01*
X176653781Y-19425134D01*
X176635368Y-19436170D01*
X176615962Y-19445349D01*
X176595750Y-19452581D01*
X176574926Y-19457797D01*
X176553691Y-19460947D01*
X176532250Y-19462000D01*
X176019750Y-19462000D01*
X175998309Y-19460947D01*
X175977074Y-19457797D01*
X175956250Y-19452581D01*
X175936038Y-19445349D01*
X175916632Y-19436170D01*
X175898219Y-19425134D01*
X175880976Y-19412346D01*
X175865070Y-19397930D01*
X175850654Y-19382024D01*
X175837866Y-19364781D01*
X175826830Y-19346368D01*
X175817651Y-19326962D01*
X175810419Y-19306750D01*
X175805203Y-19285926D01*
X175802053Y-19264691D01*
X175801000Y-19243250D01*
X175801000Y-18805750D01*
X175802053Y-18784309D01*
X175805203Y-18763074D01*
X175810419Y-18742250D01*
X175817651Y-18722038D01*
X175826830Y-18702632D01*
X175837866Y-18684219D01*
X175850654Y-18666976D01*
X175865070Y-18651070D01*
X175880976Y-18636654D01*
X175898219Y-18623866D01*
X175916632Y-18612830D01*
X175936038Y-18603651D01*
X175956250Y-18596419D01*
X175977074Y-18591203D01*
X175998309Y-18588053D01*
X176019750Y-18587000D01*
X176532250Y-18587000D01*
X176553691Y-18588053D01*
X176553691Y-18588053D01*
G37*
D14*
X176276000Y-19024500D03*
D13*
G36*
X176553691Y-20163053D02*
X176574926Y-20166203D01*
X176595750Y-20171419D01*
X176615962Y-20178651D01*
X176635368Y-20187830D01*
X176653781Y-20198866D01*
X176671024Y-20211654D01*
X176686930Y-20226070D01*
X176701346Y-20241976D01*
X176714134Y-20259219D01*
X176725170Y-20277632D01*
X176734349Y-20297038D01*
X176741581Y-20317250D01*
X176746797Y-20338074D01*
X176749947Y-20359309D01*
X176751000Y-20380750D01*
X176751000Y-20818250D01*
X176749947Y-20839691D01*
X176746797Y-20860926D01*
X176741581Y-20881750D01*
X176734349Y-20901962D01*
X176725170Y-20921368D01*
X176714134Y-20939781D01*
X176701346Y-20957024D01*
X176686930Y-20972930D01*
X176671024Y-20987346D01*
X176653781Y-21000134D01*
X176635368Y-21011170D01*
X176615962Y-21020349D01*
X176595750Y-21027581D01*
X176574926Y-21032797D01*
X176553691Y-21035947D01*
X176532250Y-21037000D01*
X176019750Y-21037000D01*
X175998309Y-21035947D01*
X175977074Y-21032797D01*
X175956250Y-21027581D01*
X175936038Y-21020349D01*
X175916632Y-21011170D01*
X175898219Y-21000134D01*
X175880976Y-20987346D01*
X175865070Y-20972930D01*
X175850654Y-20957024D01*
X175837866Y-20939781D01*
X175826830Y-20921368D01*
X175817651Y-20901962D01*
X175810419Y-20881750D01*
X175805203Y-20860926D01*
X175802053Y-20839691D01*
X175801000Y-20818250D01*
X175801000Y-20380750D01*
X175802053Y-20359309D01*
X175805203Y-20338074D01*
X175810419Y-20317250D01*
X175817651Y-20297038D01*
X175826830Y-20277632D01*
X175837866Y-20259219D01*
X175850654Y-20241976D01*
X175865070Y-20226070D01*
X175880976Y-20211654D01*
X175898219Y-20198866D01*
X175916632Y-20187830D01*
X175936038Y-20178651D01*
X175956250Y-20171419D01*
X175977074Y-20166203D01*
X175998309Y-20163053D01*
X176019750Y-20162000D01*
X176532250Y-20162000D01*
X176553691Y-20163053D01*
X176553691Y-20163053D01*
G37*
D14*
X176276000Y-20599500D03*
G04 #@! TD*
D13*
G04 #@! TO.C,D1*
G36*
X147089691Y-59355053D02*
X147110926Y-59358203D01*
X147131750Y-59363419D01*
X147151962Y-59370651D01*
X147171368Y-59379830D01*
X147189781Y-59390866D01*
X147207024Y-59403654D01*
X147222930Y-59418070D01*
X147237346Y-59433976D01*
X147250134Y-59451219D01*
X147261170Y-59469632D01*
X147270349Y-59489038D01*
X147277581Y-59509250D01*
X147282797Y-59530074D01*
X147285947Y-59551309D01*
X147287000Y-59572750D01*
X147287000Y-60010250D01*
X147285947Y-60031691D01*
X147282797Y-60052926D01*
X147277581Y-60073750D01*
X147270349Y-60093962D01*
X147261170Y-60113368D01*
X147250134Y-60131781D01*
X147237346Y-60149024D01*
X147222930Y-60164930D01*
X147207024Y-60179346D01*
X147189781Y-60192134D01*
X147171368Y-60203170D01*
X147151962Y-60212349D01*
X147131750Y-60219581D01*
X147110926Y-60224797D01*
X147089691Y-60227947D01*
X147068250Y-60229000D01*
X146555750Y-60229000D01*
X146534309Y-60227947D01*
X146513074Y-60224797D01*
X146492250Y-60219581D01*
X146472038Y-60212349D01*
X146452632Y-60203170D01*
X146434219Y-60192134D01*
X146416976Y-60179346D01*
X146401070Y-60164930D01*
X146386654Y-60149024D01*
X146373866Y-60131781D01*
X146362830Y-60113368D01*
X146353651Y-60093962D01*
X146346419Y-60073750D01*
X146341203Y-60052926D01*
X146338053Y-60031691D01*
X146337000Y-60010250D01*
X146337000Y-59572750D01*
X146338053Y-59551309D01*
X146341203Y-59530074D01*
X146346419Y-59509250D01*
X146353651Y-59489038D01*
X146362830Y-59469632D01*
X146373866Y-59451219D01*
X146386654Y-59433976D01*
X146401070Y-59418070D01*
X146416976Y-59403654D01*
X146434219Y-59390866D01*
X146452632Y-59379830D01*
X146472038Y-59370651D01*
X146492250Y-59363419D01*
X146513074Y-59358203D01*
X146534309Y-59355053D01*
X146555750Y-59354000D01*
X147068250Y-59354000D01*
X147089691Y-59355053D01*
X147089691Y-59355053D01*
G37*
D14*
X146812000Y-59791500D03*
D13*
G36*
X147089691Y-60930053D02*
X147110926Y-60933203D01*
X147131750Y-60938419D01*
X147151962Y-60945651D01*
X147171368Y-60954830D01*
X147189781Y-60965866D01*
X147207024Y-60978654D01*
X147222930Y-60993070D01*
X147237346Y-61008976D01*
X147250134Y-61026219D01*
X147261170Y-61044632D01*
X147270349Y-61064038D01*
X147277581Y-61084250D01*
X147282797Y-61105074D01*
X147285947Y-61126309D01*
X147287000Y-61147750D01*
X147287000Y-61585250D01*
X147285947Y-61606691D01*
X147282797Y-61627926D01*
X147277581Y-61648750D01*
X147270349Y-61668962D01*
X147261170Y-61688368D01*
X147250134Y-61706781D01*
X147237346Y-61724024D01*
X147222930Y-61739930D01*
X147207024Y-61754346D01*
X147189781Y-61767134D01*
X147171368Y-61778170D01*
X147151962Y-61787349D01*
X147131750Y-61794581D01*
X147110926Y-61799797D01*
X147089691Y-61802947D01*
X147068250Y-61804000D01*
X146555750Y-61804000D01*
X146534309Y-61802947D01*
X146513074Y-61799797D01*
X146492250Y-61794581D01*
X146472038Y-61787349D01*
X146452632Y-61778170D01*
X146434219Y-61767134D01*
X146416976Y-61754346D01*
X146401070Y-61739930D01*
X146386654Y-61724024D01*
X146373866Y-61706781D01*
X146362830Y-61688368D01*
X146353651Y-61668962D01*
X146346419Y-61648750D01*
X146341203Y-61627926D01*
X146338053Y-61606691D01*
X146337000Y-61585250D01*
X146337000Y-61147750D01*
X146338053Y-61126309D01*
X146341203Y-61105074D01*
X146346419Y-61084250D01*
X146353651Y-61064038D01*
X146362830Y-61044632D01*
X146373866Y-61026219D01*
X146386654Y-61008976D01*
X146401070Y-60993070D01*
X146416976Y-60978654D01*
X146434219Y-60965866D01*
X146452632Y-60954830D01*
X146472038Y-60945651D01*
X146492250Y-60938419D01*
X146513074Y-60933203D01*
X146534309Y-60930053D01*
X146555750Y-60929000D01*
X147068250Y-60929000D01*
X147089691Y-60930053D01*
X147089691Y-60930053D01*
G37*
D14*
X146812000Y-61366500D03*
G04 #@! TD*
D13*
G04 #@! TO.C,R6*
G36*
X150645691Y-60930053D02*
X150666926Y-60933203D01*
X150687750Y-60938419D01*
X150707962Y-60945651D01*
X150727368Y-60954830D01*
X150745781Y-60965866D01*
X150763024Y-60978654D01*
X150778930Y-60993070D01*
X150793346Y-61008976D01*
X150806134Y-61026219D01*
X150817170Y-61044632D01*
X150826349Y-61064038D01*
X150833581Y-61084250D01*
X150838797Y-61105074D01*
X150841947Y-61126309D01*
X150843000Y-61147750D01*
X150843000Y-61585250D01*
X150841947Y-61606691D01*
X150838797Y-61627926D01*
X150833581Y-61648750D01*
X150826349Y-61668962D01*
X150817170Y-61688368D01*
X150806134Y-61706781D01*
X150793346Y-61724024D01*
X150778930Y-61739930D01*
X150763024Y-61754346D01*
X150745781Y-61767134D01*
X150727368Y-61778170D01*
X150707962Y-61787349D01*
X150687750Y-61794581D01*
X150666926Y-61799797D01*
X150645691Y-61802947D01*
X150624250Y-61804000D01*
X150111750Y-61804000D01*
X150090309Y-61802947D01*
X150069074Y-61799797D01*
X150048250Y-61794581D01*
X150028038Y-61787349D01*
X150008632Y-61778170D01*
X149990219Y-61767134D01*
X149972976Y-61754346D01*
X149957070Y-61739930D01*
X149942654Y-61724024D01*
X149929866Y-61706781D01*
X149918830Y-61688368D01*
X149909651Y-61668962D01*
X149902419Y-61648750D01*
X149897203Y-61627926D01*
X149894053Y-61606691D01*
X149893000Y-61585250D01*
X149893000Y-61147750D01*
X149894053Y-61126309D01*
X149897203Y-61105074D01*
X149902419Y-61084250D01*
X149909651Y-61064038D01*
X149918830Y-61044632D01*
X149929866Y-61026219D01*
X149942654Y-61008976D01*
X149957070Y-60993070D01*
X149972976Y-60978654D01*
X149990219Y-60965866D01*
X150008632Y-60954830D01*
X150028038Y-60945651D01*
X150048250Y-60938419D01*
X150069074Y-60933203D01*
X150090309Y-60930053D01*
X150111750Y-60929000D01*
X150624250Y-60929000D01*
X150645691Y-60930053D01*
X150645691Y-60930053D01*
G37*
D14*
X150368000Y-61366500D03*
D13*
G36*
X150645691Y-59355053D02*
X150666926Y-59358203D01*
X150687750Y-59363419D01*
X150707962Y-59370651D01*
X150727368Y-59379830D01*
X150745781Y-59390866D01*
X150763024Y-59403654D01*
X150778930Y-59418070D01*
X150793346Y-59433976D01*
X150806134Y-59451219D01*
X150817170Y-59469632D01*
X150826349Y-59489038D01*
X150833581Y-59509250D01*
X150838797Y-59530074D01*
X150841947Y-59551309D01*
X150843000Y-59572750D01*
X150843000Y-60010250D01*
X150841947Y-60031691D01*
X150838797Y-60052926D01*
X150833581Y-60073750D01*
X150826349Y-60093962D01*
X150817170Y-60113368D01*
X150806134Y-60131781D01*
X150793346Y-60149024D01*
X150778930Y-60164930D01*
X150763024Y-60179346D01*
X150745781Y-60192134D01*
X150727368Y-60203170D01*
X150707962Y-60212349D01*
X150687750Y-60219581D01*
X150666926Y-60224797D01*
X150645691Y-60227947D01*
X150624250Y-60229000D01*
X150111750Y-60229000D01*
X150090309Y-60227947D01*
X150069074Y-60224797D01*
X150048250Y-60219581D01*
X150028038Y-60212349D01*
X150008632Y-60203170D01*
X149990219Y-60192134D01*
X149972976Y-60179346D01*
X149957070Y-60164930D01*
X149942654Y-60149024D01*
X149929866Y-60131781D01*
X149918830Y-60113368D01*
X149909651Y-60093962D01*
X149902419Y-60073750D01*
X149897203Y-60052926D01*
X149894053Y-60031691D01*
X149893000Y-60010250D01*
X149893000Y-59572750D01*
X149894053Y-59551309D01*
X149897203Y-59530074D01*
X149902419Y-59509250D01*
X149909651Y-59489038D01*
X149918830Y-59469632D01*
X149929866Y-59451219D01*
X149942654Y-59433976D01*
X149957070Y-59418070D01*
X149972976Y-59403654D01*
X149990219Y-59390866D01*
X150008632Y-59379830D01*
X150028038Y-59370651D01*
X150048250Y-59363419D01*
X150069074Y-59358203D01*
X150090309Y-59355053D01*
X150111750Y-59354000D01*
X150624250Y-59354000D01*
X150645691Y-59355053D01*
X150645691Y-59355053D01*
G37*
D14*
X150368000Y-59791500D03*
G04 #@! TD*
D13*
G04 #@! TO.C,D2*
G36*
X152423691Y-60930053D02*
X152444926Y-60933203D01*
X152465750Y-60938419D01*
X152485962Y-60945651D01*
X152505368Y-60954830D01*
X152523781Y-60965866D01*
X152541024Y-60978654D01*
X152556930Y-60993070D01*
X152571346Y-61008976D01*
X152584134Y-61026219D01*
X152595170Y-61044632D01*
X152604349Y-61064038D01*
X152611581Y-61084250D01*
X152616797Y-61105074D01*
X152619947Y-61126309D01*
X152621000Y-61147750D01*
X152621000Y-61585250D01*
X152619947Y-61606691D01*
X152616797Y-61627926D01*
X152611581Y-61648750D01*
X152604349Y-61668962D01*
X152595170Y-61688368D01*
X152584134Y-61706781D01*
X152571346Y-61724024D01*
X152556930Y-61739930D01*
X152541024Y-61754346D01*
X152523781Y-61767134D01*
X152505368Y-61778170D01*
X152485962Y-61787349D01*
X152465750Y-61794581D01*
X152444926Y-61799797D01*
X152423691Y-61802947D01*
X152402250Y-61804000D01*
X151889750Y-61804000D01*
X151868309Y-61802947D01*
X151847074Y-61799797D01*
X151826250Y-61794581D01*
X151806038Y-61787349D01*
X151786632Y-61778170D01*
X151768219Y-61767134D01*
X151750976Y-61754346D01*
X151735070Y-61739930D01*
X151720654Y-61724024D01*
X151707866Y-61706781D01*
X151696830Y-61688368D01*
X151687651Y-61668962D01*
X151680419Y-61648750D01*
X151675203Y-61627926D01*
X151672053Y-61606691D01*
X151671000Y-61585250D01*
X151671000Y-61147750D01*
X151672053Y-61126309D01*
X151675203Y-61105074D01*
X151680419Y-61084250D01*
X151687651Y-61064038D01*
X151696830Y-61044632D01*
X151707866Y-61026219D01*
X151720654Y-61008976D01*
X151735070Y-60993070D01*
X151750976Y-60978654D01*
X151768219Y-60965866D01*
X151786632Y-60954830D01*
X151806038Y-60945651D01*
X151826250Y-60938419D01*
X151847074Y-60933203D01*
X151868309Y-60930053D01*
X151889750Y-60929000D01*
X152402250Y-60929000D01*
X152423691Y-60930053D01*
X152423691Y-60930053D01*
G37*
D14*
X152146000Y-61366500D03*
D13*
G36*
X152423691Y-59355053D02*
X152444926Y-59358203D01*
X152465750Y-59363419D01*
X152485962Y-59370651D01*
X152505368Y-59379830D01*
X152523781Y-59390866D01*
X152541024Y-59403654D01*
X152556930Y-59418070D01*
X152571346Y-59433976D01*
X152584134Y-59451219D01*
X152595170Y-59469632D01*
X152604349Y-59489038D01*
X152611581Y-59509250D01*
X152616797Y-59530074D01*
X152619947Y-59551309D01*
X152621000Y-59572750D01*
X152621000Y-60010250D01*
X152619947Y-60031691D01*
X152616797Y-60052926D01*
X152611581Y-60073750D01*
X152604349Y-60093962D01*
X152595170Y-60113368D01*
X152584134Y-60131781D01*
X152571346Y-60149024D01*
X152556930Y-60164930D01*
X152541024Y-60179346D01*
X152523781Y-60192134D01*
X152505368Y-60203170D01*
X152485962Y-60212349D01*
X152465750Y-60219581D01*
X152444926Y-60224797D01*
X152423691Y-60227947D01*
X152402250Y-60229000D01*
X151889750Y-60229000D01*
X151868309Y-60227947D01*
X151847074Y-60224797D01*
X151826250Y-60219581D01*
X151806038Y-60212349D01*
X151786632Y-60203170D01*
X151768219Y-60192134D01*
X151750976Y-60179346D01*
X151735070Y-60164930D01*
X151720654Y-60149024D01*
X151707866Y-60131781D01*
X151696830Y-60113368D01*
X151687651Y-60093962D01*
X151680419Y-60073750D01*
X151675203Y-60052926D01*
X151672053Y-60031691D01*
X151671000Y-60010250D01*
X151671000Y-59572750D01*
X151672053Y-59551309D01*
X151675203Y-59530074D01*
X151680419Y-59509250D01*
X151687651Y-59489038D01*
X151696830Y-59469632D01*
X151707866Y-59451219D01*
X151720654Y-59433976D01*
X151735070Y-59418070D01*
X151750976Y-59403654D01*
X151768219Y-59390866D01*
X151786632Y-59379830D01*
X151806038Y-59370651D01*
X151826250Y-59363419D01*
X151847074Y-59358203D01*
X151868309Y-59355053D01*
X151889750Y-59354000D01*
X152402250Y-59354000D01*
X152423691Y-59355053D01*
X152423691Y-59355053D01*
G37*
D14*
X152146000Y-59791500D03*
G04 #@! TD*
D13*
G04 #@! TO.C,R5*
G36*
X148867691Y-59355053D02*
X148888926Y-59358203D01*
X148909750Y-59363419D01*
X148929962Y-59370651D01*
X148949368Y-59379830D01*
X148967781Y-59390866D01*
X148985024Y-59403654D01*
X149000930Y-59418070D01*
X149015346Y-59433976D01*
X149028134Y-59451219D01*
X149039170Y-59469632D01*
X149048349Y-59489038D01*
X149055581Y-59509250D01*
X149060797Y-59530074D01*
X149063947Y-59551309D01*
X149065000Y-59572750D01*
X149065000Y-60010250D01*
X149063947Y-60031691D01*
X149060797Y-60052926D01*
X149055581Y-60073750D01*
X149048349Y-60093962D01*
X149039170Y-60113368D01*
X149028134Y-60131781D01*
X149015346Y-60149024D01*
X149000930Y-60164930D01*
X148985024Y-60179346D01*
X148967781Y-60192134D01*
X148949368Y-60203170D01*
X148929962Y-60212349D01*
X148909750Y-60219581D01*
X148888926Y-60224797D01*
X148867691Y-60227947D01*
X148846250Y-60229000D01*
X148333750Y-60229000D01*
X148312309Y-60227947D01*
X148291074Y-60224797D01*
X148270250Y-60219581D01*
X148250038Y-60212349D01*
X148230632Y-60203170D01*
X148212219Y-60192134D01*
X148194976Y-60179346D01*
X148179070Y-60164930D01*
X148164654Y-60149024D01*
X148151866Y-60131781D01*
X148140830Y-60113368D01*
X148131651Y-60093962D01*
X148124419Y-60073750D01*
X148119203Y-60052926D01*
X148116053Y-60031691D01*
X148115000Y-60010250D01*
X148115000Y-59572750D01*
X148116053Y-59551309D01*
X148119203Y-59530074D01*
X148124419Y-59509250D01*
X148131651Y-59489038D01*
X148140830Y-59469632D01*
X148151866Y-59451219D01*
X148164654Y-59433976D01*
X148179070Y-59418070D01*
X148194976Y-59403654D01*
X148212219Y-59390866D01*
X148230632Y-59379830D01*
X148250038Y-59370651D01*
X148270250Y-59363419D01*
X148291074Y-59358203D01*
X148312309Y-59355053D01*
X148333750Y-59354000D01*
X148846250Y-59354000D01*
X148867691Y-59355053D01*
X148867691Y-59355053D01*
G37*
D14*
X148590000Y-59791500D03*
D13*
G36*
X148867691Y-60930053D02*
X148888926Y-60933203D01*
X148909750Y-60938419D01*
X148929962Y-60945651D01*
X148949368Y-60954830D01*
X148967781Y-60965866D01*
X148985024Y-60978654D01*
X149000930Y-60993070D01*
X149015346Y-61008976D01*
X149028134Y-61026219D01*
X149039170Y-61044632D01*
X149048349Y-61064038D01*
X149055581Y-61084250D01*
X149060797Y-61105074D01*
X149063947Y-61126309D01*
X149065000Y-61147750D01*
X149065000Y-61585250D01*
X149063947Y-61606691D01*
X149060797Y-61627926D01*
X149055581Y-61648750D01*
X149048349Y-61668962D01*
X149039170Y-61688368D01*
X149028134Y-61706781D01*
X149015346Y-61724024D01*
X149000930Y-61739930D01*
X148985024Y-61754346D01*
X148967781Y-61767134D01*
X148949368Y-61778170D01*
X148929962Y-61787349D01*
X148909750Y-61794581D01*
X148888926Y-61799797D01*
X148867691Y-61802947D01*
X148846250Y-61804000D01*
X148333750Y-61804000D01*
X148312309Y-61802947D01*
X148291074Y-61799797D01*
X148270250Y-61794581D01*
X148250038Y-61787349D01*
X148230632Y-61778170D01*
X148212219Y-61767134D01*
X148194976Y-61754346D01*
X148179070Y-61739930D01*
X148164654Y-61724024D01*
X148151866Y-61706781D01*
X148140830Y-61688368D01*
X148131651Y-61668962D01*
X148124419Y-61648750D01*
X148119203Y-61627926D01*
X148116053Y-61606691D01*
X148115000Y-61585250D01*
X148115000Y-61147750D01*
X148116053Y-61126309D01*
X148119203Y-61105074D01*
X148124419Y-61084250D01*
X148131651Y-61064038D01*
X148140830Y-61044632D01*
X148151866Y-61026219D01*
X148164654Y-61008976D01*
X148179070Y-60993070D01*
X148194976Y-60978654D01*
X148212219Y-60965866D01*
X148230632Y-60954830D01*
X148250038Y-60945651D01*
X148270250Y-60938419D01*
X148291074Y-60933203D01*
X148312309Y-60930053D01*
X148333750Y-60929000D01*
X148846250Y-60929000D01*
X148867691Y-60930053D01*
X148867691Y-60930053D01*
G37*
D14*
X148590000Y-61366500D03*
G04 #@! TD*
D15*
G04 #@! TO.C,SW6*
X197988000Y-75590000D03*
X197988000Y-81890000D03*
X194188000Y-75590000D03*
X194188000Y-81890000D03*
G04 #@! TD*
G04 #@! TO.C,SW3*
X190378000Y-91034000D03*
X190378000Y-84734000D03*
X194178000Y-91034000D03*
X194178000Y-84734000D03*
G04 #@! TD*
G04 #@! TO.C,SW4*
X114178000Y-93320000D03*
X114178000Y-87020000D03*
X117978000Y-93320000D03*
X117978000Y-87020000D03*
G04 #@! TD*
D13*
G04 #@! TO.C,J10*
G36*
X172337252Y-87050602D02*
X172349386Y-87052402D01*
X172361286Y-87055382D01*
X172372835Y-87059515D01*
X172383925Y-87064760D01*
X172394446Y-87071066D01*
X172404299Y-87078374D01*
X172413388Y-87086612D01*
X172421626Y-87095701D01*
X172428934Y-87105554D01*
X172435240Y-87116075D01*
X172440485Y-87127165D01*
X172444618Y-87138714D01*
X172447598Y-87150614D01*
X172449398Y-87162748D01*
X172450000Y-87175000D01*
X172450000Y-87425000D01*
X172449398Y-87437252D01*
X172447598Y-87449386D01*
X172444618Y-87461286D01*
X172440485Y-87472835D01*
X172435240Y-87483925D01*
X172428934Y-87494446D01*
X172421626Y-87504299D01*
X172413388Y-87513388D01*
X172404299Y-87521626D01*
X172394446Y-87528934D01*
X172383925Y-87535240D01*
X172372835Y-87540485D01*
X172361286Y-87544618D01*
X172349386Y-87547598D01*
X172337252Y-87549398D01*
X172325000Y-87550000D01*
X170575000Y-87550000D01*
X170562748Y-87549398D01*
X170550614Y-87547598D01*
X170538714Y-87544618D01*
X170527165Y-87540485D01*
X170516075Y-87535240D01*
X170505554Y-87528934D01*
X170495701Y-87521626D01*
X170486612Y-87513388D01*
X170478374Y-87504299D01*
X170471066Y-87494446D01*
X170464760Y-87483925D01*
X170459515Y-87472835D01*
X170455382Y-87461286D01*
X170452402Y-87449386D01*
X170450602Y-87437252D01*
X170450000Y-87425000D01*
X170450000Y-87175000D01*
X170450602Y-87162748D01*
X170452402Y-87150614D01*
X170455382Y-87138714D01*
X170459515Y-87127165D01*
X170464760Y-87116075D01*
X170471066Y-87105554D01*
X170478374Y-87095701D01*
X170486612Y-87086612D01*
X170495701Y-87078374D01*
X170505554Y-87071066D01*
X170516075Y-87064760D01*
X170527165Y-87059515D01*
X170538714Y-87055382D01*
X170550614Y-87052402D01*
X170562748Y-87050602D01*
X170575000Y-87050000D01*
X172325000Y-87050000D01*
X172337252Y-87050602D01*
X172337252Y-87050602D01*
G37*
D16*
X171450000Y-87300000D03*
D13*
G36*
X172337252Y-90250602D02*
X172349386Y-90252402D01*
X172361286Y-90255382D01*
X172372835Y-90259515D01*
X172383925Y-90264760D01*
X172394446Y-90271066D01*
X172404299Y-90278374D01*
X172413388Y-90286612D01*
X172421626Y-90295701D01*
X172428934Y-90305554D01*
X172435240Y-90316075D01*
X172440485Y-90327165D01*
X172444618Y-90338714D01*
X172447598Y-90350614D01*
X172449398Y-90362748D01*
X172450000Y-90375000D01*
X172450000Y-90625000D01*
X172449398Y-90637252D01*
X172447598Y-90649386D01*
X172444618Y-90661286D01*
X172440485Y-90672835D01*
X172435240Y-90683925D01*
X172428934Y-90694446D01*
X172421626Y-90704299D01*
X172413388Y-90713388D01*
X172404299Y-90721626D01*
X172394446Y-90728934D01*
X172383925Y-90735240D01*
X172372835Y-90740485D01*
X172361286Y-90744618D01*
X172349386Y-90747598D01*
X172337252Y-90749398D01*
X172325000Y-90750000D01*
X170575000Y-90750000D01*
X170562748Y-90749398D01*
X170550614Y-90747598D01*
X170538714Y-90744618D01*
X170527165Y-90740485D01*
X170516075Y-90735240D01*
X170505554Y-90728934D01*
X170495701Y-90721626D01*
X170486612Y-90713388D01*
X170478374Y-90704299D01*
X170471066Y-90694446D01*
X170464760Y-90683925D01*
X170459515Y-90672835D01*
X170455382Y-90661286D01*
X170452402Y-90649386D01*
X170450602Y-90637252D01*
X170450000Y-90625000D01*
X170450000Y-90375000D01*
X170450602Y-90362748D01*
X170452402Y-90350614D01*
X170455382Y-90338714D01*
X170459515Y-90327165D01*
X170464760Y-90316075D01*
X170471066Y-90305554D01*
X170478374Y-90295701D01*
X170486612Y-90286612D01*
X170495701Y-90278374D01*
X170505554Y-90271066D01*
X170516075Y-90264760D01*
X170527165Y-90259515D01*
X170538714Y-90255382D01*
X170550614Y-90252402D01*
X170562748Y-90250602D01*
X170575000Y-90250000D01*
X172325000Y-90250000D01*
X172337252Y-90250602D01*
X172337252Y-90250602D01*
G37*
D16*
X171450000Y-90500000D03*
D13*
G36*
X172337252Y-79050602D02*
X172349386Y-79052402D01*
X172361286Y-79055382D01*
X172372835Y-79059515D01*
X172383925Y-79064760D01*
X172394446Y-79071066D01*
X172404299Y-79078374D01*
X172413388Y-79086612D01*
X172421626Y-79095701D01*
X172428934Y-79105554D01*
X172435240Y-79116075D01*
X172440485Y-79127165D01*
X172444618Y-79138714D01*
X172447598Y-79150614D01*
X172449398Y-79162748D01*
X172450000Y-79175000D01*
X172450000Y-79425000D01*
X172449398Y-79437252D01*
X172447598Y-79449386D01*
X172444618Y-79461286D01*
X172440485Y-79472835D01*
X172435240Y-79483925D01*
X172428934Y-79494446D01*
X172421626Y-79504299D01*
X172413388Y-79513388D01*
X172404299Y-79521626D01*
X172394446Y-79528934D01*
X172383925Y-79535240D01*
X172372835Y-79540485D01*
X172361286Y-79544618D01*
X172349386Y-79547598D01*
X172337252Y-79549398D01*
X172325000Y-79550000D01*
X170575000Y-79550000D01*
X170562748Y-79549398D01*
X170550614Y-79547598D01*
X170538714Y-79544618D01*
X170527165Y-79540485D01*
X170516075Y-79535240D01*
X170505554Y-79528934D01*
X170495701Y-79521626D01*
X170486612Y-79513388D01*
X170478374Y-79504299D01*
X170471066Y-79494446D01*
X170464760Y-79483925D01*
X170459515Y-79472835D01*
X170455382Y-79461286D01*
X170452402Y-79449386D01*
X170450602Y-79437252D01*
X170450000Y-79425000D01*
X170450000Y-79175000D01*
X170450602Y-79162748D01*
X170452402Y-79150614D01*
X170455382Y-79138714D01*
X170459515Y-79127165D01*
X170464760Y-79116075D01*
X170471066Y-79105554D01*
X170478374Y-79095701D01*
X170486612Y-79086612D01*
X170495701Y-79078374D01*
X170505554Y-79071066D01*
X170516075Y-79064760D01*
X170527165Y-79059515D01*
X170538714Y-79055382D01*
X170550614Y-79052402D01*
X170562748Y-79050602D01*
X170575000Y-79050000D01*
X172325000Y-79050000D01*
X172337252Y-79050602D01*
X172337252Y-79050602D01*
G37*
D16*
X171450000Y-79300000D03*
D13*
G36*
X172337252Y-83050602D02*
X172349386Y-83052402D01*
X172361286Y-83055382D01*
X172372835Y-83059515D01*
X172383925Y-83064760D01*
X172394446Y-83071066D01*
X172404299Y-83078374D01*
X172413388Y-83086612D01*
X172421626Y-83095701D01*
X172428934Y-83105554D01*
X172435240Y-83116075D01*
X172440485Y-83127165D01*
X172444618Y-83138714D01*
X172447598Y-83150614D01*
X172449398Y-83162748D01*
X172450000Y-83175000D01*
X172450000Y-83425000D01*
X172449398Y-83437252D01*
X172447598Y-83449386D01*
X172444618Y-83461286D01*
X172440485Y-83472835D01*
X172435240Y-83483925D01*
X172428934Y-83494446D01*
X172421626Y-83504299D01*
X172413388Y-83513388D01*
X172404299Y-83521626D01*
X172394446Y-83528934D01*
X172383925Y-83535240D01*
X172372835Y-83540485D01*
X172361286Y-83544618D01*
X172349386Y-83547598D01*
X172337252Y-83549398D01*
X172325000Y-83550000D01*
X170575000Y-83550000D01*
X170562748Y-83549398D01*
X170550614Y-83547598D01*
X170538714Y-83544618D01*
X170527165Y-83540485D01*
X170516075Y-83535240D01*
X170505554Y-83528934D01*
X170495701Y-83521626D01*
X170486612Y-83513388D01*
X170478374Y-83504299D01*
X170471066Y-83494446D01*
X170464760Y-83483925D01*
X170459515Y-83472835D01*
X170455382Y-83461286D01*
X170452402Y-83449386D01*
X170450602Y-83437252D01*
X170450000Y-83425000D01*
X170450000Y-83175000D01*
X170450602Y-83162748D01*
X170452402Y-83150614D01*
X170455382Y-83138714D01*
X170459515Y-83127165D01*
X170464760Y-83116075D01*
X170471066Y-83105554D01*
X170478374Y-83095701D01*
X170486612Y-83086612D01*
X170495701Y-83078374D01*
X170505554Y-83071066D01*
X170516075Y-83064760D01*
X170527165Y-83059515D01*
X170538714Y-83055382D01*
X170550614Y-83052402D01*
X170562748Y-83050602D01*
X170575000Y-83050000D01*
X172325000Y-83050000D01*
X172337252Y-83050602D01*
X172337252Y-83050602D01*
G37*
D16*
X171450000Y-83300000D03*
D13*
G36*
X172337252Y-76650602D02*
X172349386Y-76652402D01*
X172361286Y-76655382D01*
X172372835Y-76659515D01*
X172383925Y-76664760D01*
X172394446Y-76671066D01*
X172404299Y-76678374D01*
X172413388Y-76686612D01*
X172421626Y-76695701D01*
X172428934Y-76705554D01*
X172435240Y-76716075D01*
X172440485Y-76727165D01*
X172444618Y-76738714D01*
X172447598Y-76750614D01*
X172449398Y-76762748D01*
X172450000Y-76775000D01*
X172450000Y-77025000D01*
X172449398Y-77037252D01*
X172447598Y-77049386D01*
X172444618Y-77061286D01*
X172440485Y-77072835D01*
X172435240Y-77083925D01*
X172428934Y-77094446D01*
X172421626Y-77104299D01*
X172413388Y-77113388D01*
X172404299Y-77121626D01*
X172394446Y-77128934D01*
X172383925Y-77135240D01*
X172372835Y-77140485D01*
X172361286Y-77144618D01*
X172349386Y-77147598D01*
X172337252Y-77149398D01*
X172325000Y-77150000D01*
X170575000Y-77150000D01*
X170562748Y-77149398D01*
X170550614Y-77147598D01*
X170538714Y-77144618D01*
X170527165Y-77140485D01*
X170516075Y-77135240D01*
X170505554Y-77128934D01*
X170495701Y-77121626D01*
X170486612Y-77113388D01*
X170478374Y-77104299D01*
X170471066Y-77094446D01*
X170464760Y-77083925D01*
X170459515Y-77072835D01*
X170455382Y-77061286D01*
X170452402Y-77049386D01*
X170450602Y-77037252D01*
X170450000Y-77025000D01*
X170450000Y-76775000D01*
X170450602Y-76762748D01*
X170452402Y-76750614D01*
X170455382Y-76738714D01*
X170459515Y-76727165D01*
X170464760Y-76716075D01*
X170471066Y-76705554D01*
X170478374Y-76695701D01*
X170486612Y-76686612D01*
X170495701Y-76678374D01*
X170505554Y-76671066D01*
X170516075Y-76664760D01*
X170527165Y-76659515D01*
X170538714Y-76655382D01*
X170550614Y-76652402D01*
X170562748Y-76650602D01*
X170575000Y-76650000D01*
X172325000Y-76650000D01*
X172337252Y-76650602D01*
X172337252Y-76650602D01*
G37*
D16*
X171450000Y-76900000D03*
D13*
G36*
X172337252Y-80650602D02*
X172349386Y-80652402D01*
X172361286Y-80655382D01*
X172372835Y-80659515D01*
X172383925Y-80664760D01*
X172394446Y-80671066D01*
X172404299Y-80678374D01*
X172413388Y-80686612D01*
X172421626Y-80695701D01*
X172428934Y-80705554D01*
X172435240Y-80716075D01*
X172440485Y-80727165D01*
X172444618Y-80738714D01*
X172447598Y-80750614D01*
X172449398Y-80762748D01*
X172450000Y-80775000D01*
X172450000Y-81025000D01*
X172449398Y-81037252D01*
X172447598Y-81049386D01*
X172444618Y-81061286D01*
X172440485Y-81072835D01*
X172435240Y-81083925D01*
X172428934Y-81094446D01*
X172421626Y-81104299D01*
X172413388Y-81113388D01*
X172404299Y-81121626D01*
X172394446Y-81128934D01*
X172383925Y-81135240D01*
X172372835Y-81140485D01*
X172361286Y-81144618D01*
X172349386Y-81147598D01*
X172337252Y-81149398D01*
X172325000Y-81150000D01*
X170575000Y-81150000D01*
X170562748Y-81149398D01*
X170550614Y-81147598D01*
X170538714Y-81144618D01*
X170527165Y-81140485D01*
X170516075Y-81135240D01*
X170505554Y-81128934D01*
X170495701Y-81121626D01*
X170486612Y-81113388D01*
X170478374Y-81104299D01*
X170471066Y-81094446D01*
X170464760Y-81083925D01*
X170459515Y-81072835D01*
X170455382Y-81061286D01*
X170452402Y-81049386D01*
X170450602Y-81037252D01*
X170450000Y-81025000D01*
X170450000Y-80775000D01*
X170450602Y-80762748D01*
X170452402Y-80750614D01*
X170455382Y-80738714D01*
X170459515Y-80727165D01*
X170464760Y-80716075D01*
X170471066Y-80705554D01*
X170478374Y-80695701D01*
X170486612Y-80686612D01*
X170495701Y-80678374D01*
X170505554Y-80671066D01*
X170516075Y-80664760D01*
X170527165Y-80659515D01*
X170538714Y-80655382D01*
X170550614Y-80652402D01*
X170562748Y-80650602D01*
X170575000Y-80650000D01*
X172325000Y-80650000D01*
X172337252Y-80650602D01*
X172337252Y-80650602D01*
G37*
D16*
X171450000Y-80900000D03*
D13*
G36*
X172337252Y-84650602D02*
X172349386Y-84652402D01*
X172361286Y-84655382D01*
X172372835Y-84659515D01*
X172383925Y-84664760D01*
X172394446Y-84671066D01*
X172404299Y-84678374D01*
X172413388Y-84686612D01*
X172421626Y-84695701D01*
X172428934Y-84705554D01*
X172435240Y-84716075D01*
X172440485Y-84727165D01*
X172444618Y-84738714D01*
X172447598Y-84750614D01*
X172449398Y-84762748D01*
X172450000Y-84775000D01*
X172450000Y-85025000D01*
X172449398Y-85037252D01*
X172447598Y-85049386D01*
X172444618Y-85061286D01*
X172440485Y-85072835D01*
X172435240Y-85083925D01*
X172428934Y-85094446D01*
X172421626Y-85104299D01*
X172413388Y-85113388D01*
X172404299Y-85121626D01*
X172394446Y-85128934D01*
X172383925Y-85135240D01*
X172372835Y-85140485D01*
X172361286Y-85144618D01*
X172349386Y-85147598D01*
X172337252Y-85149398D01*
X172325000Y-85150000D01*
X170575000Y-85150000D01*
X170562748Y-85149398D01*
X170550614Y-85147598D01*
X170538714Y-85144618D01*
X170527165Y-85140485D01*
X170516075Y-85135240D01*
X170505554Y-85128934D01*
X170495701Y-85121626D01*
X170486612Y-85113388D01*
X170478374Y-85104299D01*
X170471066Y-85094446D01*
X170464760Y-85083925D01*
X170459515Y-85072835D01*
X170455382Y-85061286D01*
X170452402Y-85049386D01*
X170450602Y-85037252D01*
X170450000Y-85025000D01*
X170450000Y-84775000D01*
X170450602Y-84762748D01*
X170452402Y-84750614D01*
X170455382Y-84738714D01*
X170459515Y-84727165D01*
X170464760Y-84716075D01*
X170471066Y-84705554D01*
X170478374Y-84695701D01*
X170486612Y-84686612D01*
X170495701Y-84678374D01*
X170505554Y-84671066D01*
X170516075Y-84664760D01*
X170527165Y-84659515D01*
X170538714Y-84655382D01*
X170550614Y-84652402D01*
X170562748Y-84650602D01*
X170575000Y-84650000D01*
X172325000Y-84650000D01*
X172337252Y-84650602D01*
X172337252Y-84650602D01*
G37*
D16*
X171450000Y-84900000D03*
D13*
G36*
X172337252Y-85450602D02*
X172349386Y-85452402D01*
X172361286Y-85455382D01*
X172372835Y-85459515D01*
X172383925Y-85464760D01*
X172394446Y-85471066D01*
X172404299Y-85478374D01*
X172413388Y-85486612D01*
X172421626Y-85495701D01*
X172428934Y-85505554D01*
X172435240Y-85516075D01*
X172440485Y-85527165D01*
X172444618Y-85538714D01*
X172447598Y-85550614D01*
X172449398Y-85562748D01*
X172450000Y-85575000D01*
X172450000Y-85825000D01*
X172449398Y-85837252D01*
X172447598Y-85849386D01*
X172444618Y-85861286D01*
X172440485Y-85872835D01*
X172435240Y-85883925D01*
X172428934Y-85894446D01*
X172421626Y-85904299D01*
X172413388Y-85913388D01*
X172404299Y-85921626D01*
X172394446Y-85928934D01*
X172383925Y-85935240D01*
X172372835Y-85940485D01*
X172361286Y-85944618D01*
X172349386Y-85947598D01*
X172337252Y-85949398D01*
X172325000Y-85950000D01*
X170575000Y-85950000D01*
X170562748Y-85949398D01*
X170550614Y-85947598D01*
X170538714Y-85944618D01*
X170527165Y-85940485D01*
X170516075Y-85935240D01*
X170505554Y-85928934D01*
X170495701Y-85921626D01*
X170486612Y-85913388D01*
X170478374Y-85904299D01*
X170471066Y-85894446D01*
X170464760Y-85883925D01*
X170459515Y-85872835D01*
X170455382Y-85861286D01*
X170452402Y-85849386D01*
X170450602Y-85837252D01*
X170450000Y-85825000D01*
X170450000Y-85575000D01*
X170450602Y-85562748D01*
X170452402Y-85550614D01*
X170455382Y-85538714D01*
X170459515Y-85527165D01*
X170464760Y-85516075D01*
X170471066Y-85505554D01*
X170478374Y-85495701D01*
X170486612Y-85486612D01*
X170495701Y-85478374D01*
X170505554Y-85471066D01*
X170516075Y-85464760D01*
X170527165Y-85459515D01*
X170538714Y-85455382D01*
X170550614Y-85452402D01*
X170562748Y-85450602D01*
X170575000Y-85450000D01*
X172325000Y-85450000D01*
X172337252Y-85450602D01*
X172337252Y-85450602D01*
G37*
D16*
X171450000Y-85700000D03*
D13*
G36*
X172337252Y-77450602D02*
X172349386Y-77452402D01*
X172361286Y-77455382D01*
X172372835Y-77459515D01*
X172383925Y-77464760D01*
X172394446Y-77471066D01*
X172404299Y-77478374D01*
X172413388Y-77486612D01*
X172421626Y-77495701D01*
X172428934Y-77505554D01*
X172435240Y-77516075D01*
X172440485Y-77527165D01*
X172444618Y-77538714D01*
X172447598Y-77550614D01*
X172449398Y-77562748D01*
X172450000Y-77575000D01*
X172450000Y-77825000D01*
X172449398Y-77837252D01*
X172447598Y-77849386D01*
X172444618Y-77861286D01*
X172440485Y-77872835D01*
X172435240Y-77883925D01*
X172428934Y-77894446D01*
X172421626Y-77904299D01*
X172413388Y-77913388D01*
X172404299Y-77921626D01*
X172394446Y-77928934D01*
X172383925Y-77935240D01*
X172372835Y-77940485D01*
X172361286Y-77944618D01*
X172349386Y-77947598D01*
X172337252Y-77949398D01*
X172325000Y-77950000D01*
X170575000Y-77950000D01*
X170562748Y-77949398D01*
X170550614Y-77947598D01*
X170538714Y-77944618D01*
X170527165Y-77940485D01*
X170516075Y-77935240D01*
X170505554Y-77928934D01*
X170495701Y-77921626D01*
X170486612Y-77913388D01*
X170478374Y-77904299D01*
X170471066Y-77894446D01*
X170464760Y-77883925D01*
X170459515Y-77872835D01*
X170455382Y-77861286D01*
X170452402Y-77849386D01*
X170450602Y-77837252D01*
X170450000Y-77825000D01*
X170450000Y-77575000D01*
X170450602Y-77562748D01*
X170452402Y-77550614D01*
X170455382Y-77538714D01*
X170459515Y-77527165D01*
X170464760Y-77516075D01*
X170471066Y-77505554D01*
X170478374Y-77495701D01*
X170486612Y-77486612D01*
X170495701Y-77478374D01*
X170505554Y-77471066D01*
X170516075Y-77464760D01*
X170527165Y-77459515D01*
X170538714Y-77455382D01*
X170550614Y-77452402D01*
X170562748Y-77450602D01*
X170575000Y-77450000D01*
X172325000Y-77450000D01*
X172337252Y-77450602D01*
X172337252Y-77450602D01*
G37*
D16*
X171450000Y-77700000D03*
D13*
G36*
X172337252Y-81450602D02*
X172349386Y-81452402D01*
X172361286Y-81455382D01*
X172372835Y-81459515D01*
X172383925Y-81464760D01*
X172394446Y-81471066D01*
X172404299Y-81478374D01*
X172413388Y-81486612D01*
X172421626Y-81495701D01*
X172428934Y-81505554D01*
X172435240Y-81516075D01*
X172440485Y-81527165D01*
X172444618Y-81538714D01*
X172447598Y-81550614D01*
X172449398Y-81562748D01*
X172450000Y-81575000D01*
X172450000Y-81825000D01*
X172449398Y-81837252D01*
X172447598Y-81849386D01*
X172444618Y-81861286D01*
X172440485Y-81872835D01*
X172435240Y-81883925D01*
X172428934Y-81894446D01*
X172421626Y-81904299D01*
X172413388Y-81913388D01*
X172404299Y-81921626D01*
X172394446Y-81928934D01*
X172383925Y-81935240D01*
X172372835Y-81940485D01*
X172361286Y-81944618D01*
X172349386Y-81947598D01*
X172337252Y-81949398D01*
X172325000Y-81950000D01*
X170575000Y-81950000D01*
X170562748Y-81949398D01*
X170550614Y-81947598D01*
X170538714Y-81944618D01*
X170527165Y-81940485D01*
X170516075Y-81935240D01*
X170505554Y-81928934D01*
X170495701Y-81921626D01*
X170486612Y-81913388D01*
X170478374Y-81904299D01*
X170471066Y-81894446D01*
X170464760Y-81883925D01*
X170459515Y-81872835D01*
X170455382Y-81861286D01*
X170452402Y-81849386D01*
X170450602Y-81837252D01*
X170450000Y-81825000D01*
X170450000Y-81575000D01*
X170450602Y-81562748D01*
X170452402Y-81550614D01*
X170455382Y-81538714D01*
X170459515Y-81527165D01*
X170464760Y-81516075D01*
X170471066Y-81505554D01*
X170478374Y-81495701D01*
X170486612Y-81486612D01*
X170495701Y-81478374D01*
X170505554Y-81471066D01*
X170516075Y-81464760D01*
X170527165Y-81459515D01*
X170538714Y-81455382D01*
X170550614Y-81452402D01*
X170562748Y-81450602D01*
X170575000Y-81450000D01*
X172325000Y-81450000D01*
X172337252Y-81450602D01*
X172337252Y-81450602D01*
G37*
D16*
X171450000Y-81700000D03*
D13*
G36*
X172337252Y-88650602D02*
X172349386Y-88652402D01*
X172361286Y-88655382D01*
X172372835Y-88659515D01*
X172383925Y-88664760D01*
X172394446Y-88671066D01*
X172404299Y-88678374D01*
X172413388Y-88686612D01*
X172421626Y-88695701D01*
X172428934Y-88705554D01*
X172435240Y-88716075D01*
X172440485Y-88727165D01*
X172444618Y-88738714D01*
X172447598Y-88750614D01*
X172449398Y-88762748D01*
X172450000Y-88775000D01*
X172450000Y-89025000D01*
X172449398Y-89037252D01*
X172447598Y-89049386D01*
X172444618Y-89061286D01*
X172440485Y-89072835D01*
X172435240Y-89083925D01*
X172428934Y-89094446D01*
X172421626Y-89104299D01*
X172413388Y-89113388D01*
X172404299Y-89121626D01*
X172394446Y-89128934D01*
X172383925Y-89135240D01*
X172372835Y-89140485D01*
X172361286Y-89144618D01*
X172349386Y-89147598D01*
X172337252Y-89149398D01*
X172325000Y-89150000D01*
X170575000Y-89150000D01*
X170562748Y-89149398D01*
X170550614Y-89147598D01*
X170538714Y-89144618D01*
X170527165Y-89140485D01*
X170516075Y-89135240D01*
X170505554Y-89128934D01*
X170495701Y-89121626D01*
X170486612Y-89113388D01*
X170478374Y-89104299D01*
X170471066Y-89094446D01*
X170464760Y-89083925D01*
X170459515Y-89072835D01*
X170455382Y-89061286D01*
X170452402Y-89049386D01*
X170450602Y-89037252D01*
X170450000Y-89025000D01*
X170450000Y-88775000D01*
X170450602Y-88762748D01*
X170452402Y-88750614D01*
X170455382Y-88738714D01*
X170459515Y-88727165D01*
X170464760Y-88716075D01*
X170471066Y-88705554D01*
X170478374Y-88695701D01*
X170486612Y-88686612D01*
X170495701Y-88678374D01*
X170505554Y-88671066D01*
X170516075Y-88664760D01*
X170527165Y-88659515D01*
X170538714Y-88655382D01*
X170550614Y-88652402D01*
X170562748Y-88650602D01*
X170575000Y-88650000D01*
X172325000Y-88650000D01*
X172337252Y-88650602D01*
X172337252Y-88650602D01*
G37*
D16*
X171450000Y-88900000D03*
D13*
G36*
X172337252Y-82250602D02*
X172349386Y-82252402D01*
X172361286Y-82255382D01*
X172372835Y-82259515D01*
X172383925Y-82264760D01*
X172394446Y-82271066D01*
X172404299Y-82278374D01*
X172413388Y-82286612D01*
X172421626Y-82295701D01*
X172428934Y-82305554D01*
X172435240Y-82316075D01*
X172440485Y-82327165D01*
X172444618Y-82338714D01*
X172447598Y-82350614D01*
X172449398Y-82362748D01*
X172450000Y-82375000D01*
X172450000Y-82625000D01*
X172449398Y-82637252D01*
X172447598Y-82649386D01*
X172444618Y-82661286D01*
X172440485Y-82672835D01*
X172435240Y-82683925D01*
X172428934Y-82694446D01*
X172421626Y-82704299D01*
X172413388Y-82713388D01*
X172404299Y-82721626D01*
X172394446Y-82728934D01*
X172383925Y-82735240D01*
X172372835Y-82740485D01*
X172361286Y-82744618D01*
X172349386Y-82747598D01*
X172337252Y-82749398D01*
X172325000Y-82750000D01*
X170575000Y-82750000D01*
X170562748Y-82749398D01*
X170550614Y-82747598D01*
X170538714Y-82744618D01*
X170527165Y-82740485D01*
X170516075Y-82735240D01*
X170505554Y-82728934D01*
X170495701Y-82721626D01*
X170486612Y-82713388D01*
X170478374Y-82704299D01*
X170471066Y-82694446D01*
X170464760Y-82683925D01*
X170459515Y-82672835D01*
X170455382Y-82661286D01*
X170452402Y-82649386D01*
X170450602Y-82637252D01*
X170450000Y-82625000D01*
X170450000Y-82375000D01*
X170450602Y-82362748D01*
X170452402Y-82350614D01*
X170455382Y-82338714D01*
X170459515Y-82327165D01*
X170464760Y-82316075D01*
X170471066Y-82305554D01*
X170478374Y-82295701D01*
X170486612Y-82286612D01*
X170495701Y-82278374D01*
X170505554Y-82271066D01*
X170516075Y-82264760D01*
X170527165Y-82259515D01*
X170538714Y-82255382D01*
X170550614Y-82252402D01*
X170562748Y-82250602D01*
X170575000Y-82250000D01*
X172325000Y-82250000D01*
X172337252Y-82250602D01*
X172337252Y-82250602D01*
G37*
D16*
X171450000Y-82500000D03*
D13*
G36*
X172337252Y-89450602D02*
X172349386Y-89452402D01*
X172361286Y-89455382D01*
X172372835Y-89459515D01*
X172383925Y-89464760D01*
X172394446Y-89471066D01*
X172404299Y-89478374D01*
X172413388Y-89486612D01*
X172421626Y-89495701D01*
X172428934Y-89505554D01*
X172435240Y-89516075D01*
X172440485Y-89527165D01*
X172444618Y-89538714D01*
X172447598Y-89550614D01*
X172449398Y-89562748D01*
X172450000Y-89575000D01*
X172450000Y-89825000D01*
X172449398Y-89837252D01*
X172447598Y-89849386D01*
X172444618Y-89861286D01*
X172440485Y-89872835D01*
X172435240Y-89883925D01*
X172428934Y-89894446D01*
X172421626Y-89904299D01*
X172413388Y-89913388D01*
X172404299Y-89921626D01*
X172394446Y-89928934D01*
X172383925Y-89935240D01*
X172372835Y-89940485D01*
X172361286Y-89944618D01*
X172349386Y-89947598D01*
X172337252Y-89949398D01*
X172325000Y-89950000D01*
X170575000Y-89950000D01*
X170562748Y-89949398D01*
X170550614Y-89947598D01*
X170538714Y-89944618D01*
X170527165Y-89940485D01*
X170516075Y-89935240D01*
X170505554Y-89928934D01*
X170495701Y-89921626D01*
X170486612Y-89913388D01*
X170478374Y-89904299D01*
X170471066Y-89894446D01*
X170464760Y-89883925D01*
X170459515Y-89872835D01*
X170455382Y-89861286D01*
X170452402Y-89849386D01*
X170450602Y-89837252D01*
X170450000Y-89825000D01*
X170450000Y-89575000D01*
X170450602Y-89562748D01*
X170452402Y-89550614D01*
X170455382Y-89538714D01*
X170459515Y-89527165D01*
X170464760Y-89516075D01*
X170471066Y-89505554D01*
X170478374Y-89495701D01*
X170486612Y-89486612D01*
X170495701Y-89478374D01*
X170505554Y-89471066D01*
X170516075Y-89464760D01*
X170527165Y-89459515D01*
X170538714Y-89455382D01*
X170550614Y-89452402D01*
X170562748Y-89450602D01*
X170575000Y-89450000D01*
X172325000Y-89450000D01*
X172337252Y-89450602D01*
X172337252Y-89450602D01*
G37*
D16*
X171450000Y-89700000D03*
D13*
G36*
X172337252Y-83850602D02*
X172349386Y-83852402D01*
X172361286Y-83855382D01*
X172372835Y-83859515D01*
X172383925Y-83864760D01*
X172394446Y-83871066D01*
X172404299Y-83878374D01*
X172413388Y-83886612D01*
X172421626Y-83895701D01*
X172428934Y-83905554D01*
X172435240Y-83916075D01*
X172440485Y-83927165D01*
X172444618Y-83938714D01*
X172447598Y-83950614D01*
X172449398Y-83962748D01*
X172450000Y-83975000D01*
X172450000Y-84225000D01*
X172449398Y-84237252D01*
X172447598Y-84249386D01*
X172444618Y-84261286D01*
X172440485Y-84272835D01*
X172435240Y-84283925D01*
X172428934Y-84294446D01*
X172421626Y-84304299D01*
X172413388Y-84313388D01*
X172404299Y-84321626D01*
X172394446Y-84328934D01*
X172383925Y-84335240D01*
X172372835Y-84340485D01*
X172361286Y-84344618D01*
X172349386Y-84347598D01*
X172337252Y-84349398D01*
X172325000Y-84350000D01*
X170575000Y-84350000D01*
X170562748Y-84349398D01*
X170550614Y-84347598D01*
X170538714Y-84344618D01*
X170527165Y-84340485D01*
X170516075Y-84335240D01*
X170505554Y-84328934D01*
X170495701Y-84321626D01*
X170486612Y-84313388D01*
X170478374Y-84304299D01*
X170471066Y-84294446D01*
X170464760Y-84283925D01*
X170459515Y-84272835D01*
X170455382Y-84261286D01*
X170452402Y-84249386D01*
X170450602Y-84237252D01*
X170450000Y-84225000D01*
X170450000Y-83975000D01*
X170450602Y-83962748D01*
X170452402Y-83950614D01*
X170455382Y-83938714D01*
X170459515Y-83927165D01*
X170464760Y-83916075D01*
X170471066Y-83905554D01*
X170478374Y-83895701D01*
X170486612Y-83886612D01*
X170495701Y-83878374D01*
X170505554Y-83871066D01*
X170516075Y-83864760D01*
X170527165Y-83859515D01*
X170538714Y-83855382D01*
X170550614Y-83852402D01*
X170562748Y-83850602D01*
X170575000Y-83850000D01*
X172325000Y-83850000D01*
X172337252Y-83850602D01*
X172337252Y-83850602D01*
G37*
D16*
X171450000Y-84100000D03*
D13*
G36*
X172337252Y-86250602D02*
X172349386Y-86252402D01*
X172361286Y-86255382D01*
X172372835Y-86259515D01*
X172383925Y-86264760D01*
X172394446Y-86271066D01*
X172404299Y-86278374D01*
X172413388Y-86286612D01*
X172421626Y-86295701D01*
X172428934Y-86305554D01*
X172435240Y-86316075D01*
X172440485Y-86327165D01*
X172444618Y-86338714D01*
X172447598Y-86350614D01*
X172449398Y-86362748D01*
X172450000Y-86375000D01*
X172450000Y-86625000D01*
X172449398Y-86637252D01*
X172447598Y-86649386D01*
X172444618Y-86661286D01*
X172440485Y-86672835D01*
X172435240Y-86683925D01*
X172428934Y-86694446D01*
X172421626Y-86704299D01*
X172413388Y-86713388D01*
X172404299Y-86721626D01*
X172394446Y-86728934D01*
X172383925Y-86735240D01*
X172372835Y-86740485D01*
X172361286Y-86744618D01*
X172349386Y-86747598D01*
X172337252Y-86749398D01*
X172325000Y-86750000D01*
X170575000Y-86750000D01*
X170562748Y-86749398D01*
X170550614Y-86747598D01*
X170538714Y-86744618D01*
X170527165Y-86740485D01*
X170516075Y-86735240D01*
X170505554Y-86728934D01*
X170495701Y-86721626D01*
X170486612Y-86713388D01*
X170478374Y-86704299D01*
X170471066Y-86694446D01*
X170464760Y-86683925D01*
X170459515Y-86672835D01*
X170455382Y-86661286D01*
X170452402Y-86649386D01*
X170450602Y-86637252D01*
X170450000Y-86625000D01*
X170450000Y-86375000D01*
X170450602Y-86362748D01*
X170452402Y-86350614D01*
X170455382Y-86338714D01*
X170459515Y-86327165D01*
X170464760Y-86316075D01*
X170471066Y-86305554D01*
X170478374Y-86295701D01*
X170486612Y-86286612D01*
X170495701Y-86278374D01*
X170505554Y-86271066D01*
X170516075Y-86264760D01*
X170527165Y-86259515D01*
X170538714Y-86255382D01*
X170550614Y-86252402D01*
X170562748Y-86250602D01*
X170575000Y-86250000D01*
X172325000Y-86250000D01*
X172337252Y-86250602D01*
X172337252Y-86250602D01*
G37*
D16*
X171450000Y-86500000D03*
D13*
G36*
X172337252Y-87850602D02*
X172349386Y-87852402D01*
X172361286Y-87855382D01*
X172372835Y-87859515D01*
X172383925Y-87864760D01*
X172394446Y-87871066D01*
X172404299Y-87878374D01*
X172413388Y-87886612D01*
X172421626Y-87895701D01*
X172428934Y-87905554D01*
X172435240Y-87916075D01*
X172440485Y-87927165D01*
X172444618Y-87938714D01*
X172447598Y-87950614D01*
X172449398Y-87962748D01*
X172450000Y-87975000D01*
X172450000Y-88225000D01*
X172449398Y-88237252D01*
X172447598Y-88249386D01*
X172444618Y-88261286D01*
X172440485Y-88272835D01*
X172435240Y-88283925D01*
X172428934Y-88294446D01*
X172421626Y-88304299D01*
X172413388Y-88313388D01*
X172404299Y-88321626D01*
X172394446Y-88328934D01*
X172383925Y-88335240D01*
X172372835Y-88340485D01*
X172361286Y-88344618D01*
X172349386Y-88347598D01*
X172337252Y-88349398D01*
X172325000Y-88350000D01*
X170575000Y-88350000D01*
X170562748Y-88349398D01*
X170550614Y-88347598D01*
X170538714Y-88344618D01*
X170527165Y-88340485D01*
X170516075Y-88335240D01*
X170505554Y-88328934D01*
X170495701Y-88321626D01*
X170486612Y-88313388D01*
X170478374Y-88304299D01*
X170471066Y-88294446D01*
X170464760Y-88283925D01*
X170459515Y-88272835D01*
X170455382Y-88261286D01*
X170452402Y-88249386D01*
X170450602Y-88237252D01*
X170450000Y-88225000D01*
X170450000Y-87975000D01*
X170450602Y-87962748D01*
X170452402Y-87950614D01*
X170455382Y-87938714D01*
X170459515Y-87927165D01*
X170464760Y-87916075D01*
X170471066Y-87905554D01*
X170478374Y-87895701D01*
X170486612Y-87886612D01*
X170495701Y-87878374D01*
X170505554Y-87871066D01*
X170516075Y-87864760D01*
X170527165Y-87859515D01*
X170538714Y-87855382D01*
X170550614Y-87852402D01*
X170562748Y-87850602D01*
X170575000Y-87850000D01*
X172325000Y-87850000D01*
X172337252Y-87850602D01*
X172337252Y-87850602D01*
G37*
D16*
X171450000Y-88100000D03*
D13*
G36*
X172337252Y-79850602D02*
X172349386Y-79852402D01*
X172361286Y-79855382D01*
X172372835Y-79859515D01*
X172383925Y-79864760D01*
X172394446Y-79871066D01*
X172404299Y-79878374D01*
X172413388Y-79886612D01*
X172421626Y-79895701D01*
X172428934Y-79905554D01*
X172435240Y-79916075D01*
X172440485Y-79927165D01*
X172444618Y-79938714D01*
X172447598Y-79950614D01*
X172449398Y-79962748D01*
X172450000Y-79975000D01*
X172450000Y-80225000D01*
X172449398Y-80237252D01*
X172447598Y-80249386D01*
X172444618Y-80261286D01*
X172440485Y-80272835D01*
X172435240Y-80283925D01*
X172428934Y-80294446D01*
X172421626Y-80304299D01*
X172413388Y-80313388D01*
X172404299Y-80321626D01*
X172394446Y-80328934D01*
X172383925Y-80335240D01*
X172372835Y-80340485D01*
X172361286Y-80344618D01*
X172349386Y-80347598D01*
X172337252Y-80349398D01*
X172325000Y-80350000D01*
X170575000Y-80350000D01*
X170562748Y-80349398D01*
X170550614Y-80347598D01*
X170538714Y-80344618D01*
X170527165Y-80340485D01*
X170516075Y-80335240D01*
X170505554Y-80328934D01*
X170495701Y-80321626D01*
X170486612Y-80313388D01*
X170478374Y-80304299D01*
X170471066Y-80294446D01*
X170464760Y-80283925D01*
X170459515Y-80272835D01*
X170455382Y-80261286D01*
X170452402Y-80249386D01*
X170450602Y-80237252D01*
X170450000Y-80225000D01*
X170450000Y-79975000D01*
X170450602Y-79962748D01*
X170452402Y-79950614D01*
X170455382Y-79938714D01*
X170459515Y-79927165D01*
X170464760Y-79916075D01*
X170471066Y-79905554D01*
X170478374Y-79895701D01*
X170486612Y-79886612D01*
X170495701Y-79878374D01*
X170505554Y-79871066D01*
X170516075Y-79864760D01*
X170527165Y-79859515D01*
X170538714Y-79855382D01*
X170550614Y-79852402D01*
X170562748Y-79850602D01*
X170575000Y-79850000D01*
X172325000Y-79850000D01*
X172337252Y-79850602D01*
X172337252Y-79850602D01*
G37*
D16*
X171450000Y-80100000D03*
D13*
G36*
X172337252Y-78250602D02*
X172349386Y-78252402D01*
X172361286Y-78255382D01*
X172372835Y-78259515D01*
X172383925Y-78264760D01*
X172394446Y-78271066D01*
X172404299Y-78278374D01*
X172413388Y-78286612D01*
X172421626Y-78295701D01*
X172428934Y-78305554D01*
X172435240Y-78316075D01*
X172440485Y-78327165D01*
X172444618Y-78338714D01*
X172447598Y-78350614D01*
X172449398Y-78362748D01*
X172450000Y-78375000D01*
X172450000Y-78625000D01*
X172449398Y-78637252D01*
X172447598Y-78649386D01*
X172444618Y-78661286D01*
X172440485Y-78672835D01*
X172435240Y-78683925D01*
X172428934Y-78694446D01*
X172421626Y-78704299D01*
X172413388Y-78713388D01*
X172404299Y-78721626D01*
X172394446Y-78728934D01*
X172383925Y-78735240D01*
X172372835Y-78740485D01*
X172361286Y-78744618D01*
X172349386Y-78747598D01*
X172337252Y-78749398D01*
X172325000Y-78750000D01*
X170575000Y-78750000D01*
X170562748Y-78749398D01*
X170550614Y-78747598D01*
X170538714Y-78744618D01*
X170527165Y-78740485D01*
X170516075Y-78735240D01*
X170505554Y-78728934D01*
X170495701Y-78721626D01*
X170486612Y-78713388D01*
X170478374Y-78704299D01*
X170471066Y-78694446D01*
X170464760Y-78683925D01*
X170459515Y-78672835D01*
X170455382Y-78661286D01*
X170452402Y-78649386D01*
X170450602Y-78637252D01*
X170450000Y-78625000D01*
X170450000Y-78375000D01*
X170450602Y-78362748D01*
X170452402Y-78350614D01*
X170455382Y-78338714D01*
X170459515Y-78327165D01*
X170464760Y-78316075D01*
X170471066Y-78305554D01*
X170478374Y-78295701D01*
X170486612Y-78286612D01*
X170495701Y-78278374D01*
X170505554Y-78271066D01*
X170516075Y-78264760D01*
X170527165Y-78259515D01*
X170538714Y-78255382D01*
X170550614Y-78252402D01*
X170562748Y-78250602D01*
X170575000Y-78250000D01*
X172325000Y-78250000D01*
X172337252Y-78250602D01*
X172337252Y-78250602D01*
G37*
D16*
X171450000Y-78500000D03*
G04 #@! TD*
D13*
G04 #@! TO.C,C8*
G36*
X176553691Y-60930053D02*
X176574926Y-60933203D01*
X176595750Y-60938419D01*
X176615962Y-60945651D01*
X176635368Y-60954830D01*
X176653781Y-60965866D01*
X176671024Y-60978654D01*
X176686930Y-60993070D01*
X176701346Y-61008976D01*
X176714134Y-61026219D01*
X176725170Y-61044632D01*
X176734349Y-61064038D01*
X176741581Y-61084250D01*
X176746797Y-61105074D01*
X176749947Y-61126309D01*
X176751000Y-61147750D01*
X176751000Y-61585250D01*
X176749947Y-61606691D01*
X176746797Y-61627926D01*
X176741581Y-61648750D01*
X176734349Y-61668962D01*
X176725170Y-61688368D01*
X176714134Y-61706781D01*
X176701346Y-61724024D01*
X176686930Y-61739930D01*
X176671024Y-61754346D01*
X176653781Y-61767134D01*
X176635368Y-61778170D01*
X176615962Y-61787349D01*
X176595750Y-61794581D01*
X176574926Y-61799797D01*
X176553691Y-61802947D01*
X176532250Y-61804000D01*
X176019750Y-61804000D01*
X175998309Y-61802947D01*
X175977074Y-61799797D01*
X175956250Y-61794581D01*
X175936038Y-61787349D01*
X175916632Y-61778170D01*
X175898219Y-61767134D01*
X175880976Y-61754346D01*
X175865070Y-61739930D01*
X175850654Y-61724024D01*
X175837866Y-61706781D01*
X175826830Y-61688368D01*
X175817651Y-61668962D01*
X175810419Y-61648750D01*
X175805203Y-61627926D01*
X175802053Y-61606691D01*
X175801000Y-61585250D01*
X175801000Y-61147750D01*
X175802053Y-61126309D01*
X175805203Y-61105074D01*
X175810419Y-61084250D01*
X175817651Y-61064038D01*
X175826830Y-61044632D01*
X175837866Y-61026219D01*
X175850654Y-61008976D01*
X175865070Y-60993070D01*
X175880976Y-60978654D01*
X175898219Y-60965866D01*
X175916632Y-60954830D01*
X175936038Y-60945651D01*
X175956250Y-60938419D01*
X175977074Y-60933203D01*
X175998309Y-60930053D01*
X176019750Y-60929000D01*
X176532250Y-60929000D01*
X176553691Y-60930053D01*
X176553691Y-60930053D01*
G37*
D14*
X176276000Y-61366500D03*
D13*
G36*
X176553691Y-59355053D02*
X176574926Y-59358203D01*
X176595750Y-59363419D01*
X176615962Y-59370651D01*
X176635368Y-59379830D01*
X176653781Y-59390866D01*
X176671024Y-59403654D01*
X176686930Y-59418070D01*
X176701346Y-59433976D01*
X176714134Y-59451219D01*
X176725170Y-59469632D01*
X176734349Y-59489038D01*
X176741581Y-59509250D01*
X176746797Y-59530074D01*
X176749947Y-59551309D01*
X176751000Y-59572750D01*
X176751000Y-60010250D01*
X176749947Y-60031691D01*
X176746797Y-60052926D01*
X176741581Y-60073750D01*
X176734349Y-60093962D01*
X176725170Y-60113368D01*
X176714134Y-60131781D01*
X176701346Y-60149024D01*
X176686930Y-60164930D01*
X176671024Y-60179346D01*
X176653781Y-60192134D01*
X176635368Y-60203170D01*
X176615962Y-60212349D01*
X176595750Y-60219581D01*
X176574926Y-60224797D01*
X176553691Y-60227947D01*
X176532250Y-60229000D01*
X176019750Y-60229000D01*
X175998309Y-60227947D01*
X175977074Y-60224797D01*
X175956250Y-60219581D01*
X175936038Y-60212349D01*
X175916632Y-60203170D01*
X175898219Y-60192134D01*
X175880976Y-60179346D01*
X175865070Y-60164930D01*
X175850654Y-60149024D01*
X175837866Y-60131781D01*
X175826830Y-60113368D01*
X175817651Y-60093962D01*
X175810419Y-60073750D01*
X175805203Y-60052926D01*
X175802053Y-60031691D01*
X175801000Y-60010250D01*
X175801000Y-59572750D01*
X175802053Y-59551309D01*
X175805203Y-59530074D01*
X175810419Y-59509250D01*
X175817651Y-59489038D01*
X175826830Y-59469632D01*
X175837866Y-59451219D01*
X175850654Y-59433976D01*
X175865070Y-59418070D01*
X175880976Y-59403654D01*
X175898219Y-59390866D01*
X175916632Y-59379830D01*
X175936038Y-59370651D01*
X175956250Y-59363419D01*
X175977074Y-59358203D01*
X175998309Y-59355053D01*
X176019750Y-59354000D01*
X176532250Y-59354000D01*
X176553691Y-59355053D01*
X176553691Y-59355053D01*
G37*
D14*
X176276000Y-59791500D03*
G04 #@! TD*
D13*
G04 #@! TO.C,R4*
G36*
X174648691Y-60930053D02*
X174669926Y-60933203D01*
X174690750Y-60938419D01*
X174710962Y-60945651D01*
X174730368Y-60954830D01*
X174748781Y-60965866D01*
X174766024Y-60978654D01*
X174781930Y-60993070D01*
X174796346Y-61008976D01*
X174809134Y-61026219D01*
X174820170Y-61044632D01*
X174829349Y-61064038D01*
X174836581Y-61084250D01*
X174841797Y-61105074D01*
X174844947Y-61126309D01*
X174846000Y-61147750D01*
X174846000Y-61585250D01*
X174844947Y-61606691D01*
X174841797Y-61627926D01*
X174836581Y-61648750D01*
X174829349Y-61668962D01*
X174820170Y-61688368D01*
X174809134Y-61706781D01*
X174796346Y-61724024D01*
X174781930Y-61739930D01*
X174766024Y-61754346D01*
X174748781Y-61767134D01*
X174730368Y-61778170D01*
X174710962Y-61787349D01*
X174690750Y-61794581D01*
X174669926Y-61799797D01*
X174648691Y-61802947D01*
X174627250Y-61804000D01*
X174114750Y-61804000D01*
X174093309Y-61802947D01*
X174072074Y-61799797D01*
X174051250Y-61794581D01*
X174031038Y-61787349D01*
X174011632Y-61778170D01*
X173993219Y-61767134D01*
X173975976Y-61754346D01*
X173960070Y-61739930D01*
X173945654Y-61724024D01*
X173932866Y-61706781D01*
X173921830Y-61688368D01*
X173912651Y-61668962D01*
X173905419Y-61648750D01*
X173900203Y-61627926D01*
X173897053Y-61606691D01*
X173896000Y-61585250D01*
X173896000Y-61147750D01*
X173897053Y-61126309D01*
X173900203Y-61105074D01*
X173905419Y-61084250D01*
X173912651Y-61064038D01*
X173921830Y-61044632D01*
X173932866Y-61026219D01*
X173945654Y-61008976D01*
X173960070Y-60993070D01*
X173975976Y-60978654D01*
X173993219Y-60965866D01*
X174011632Y-60954830D01*
X174031038Y-60945651D01*
X174051250Y-60938419D01*
X174072074Y-60933203D01*
X174093309Y-60930053D01*
X174114750Y-60929000D01*
X174627250Y-60929000D01*
X174648691Y-60930053D01*
X174648691Y-60930053D01*
G37*
D14*
X174371000Y-61366500D03*
D13*
G36*
X174648691Y-59355053D02*
X174669926Y-59358203D01*
X174690750Y-59363419D01*
X174710962Y-59370651D01*
X174730368Y-59379830D01*
X174748781Y-59390866D01*
X174766024Y-59403654D01*
X174781930Y-59418070D01*
X174796346Y-59433976D01*
X174809134Y-59451219D01*
X174820170Y-59469632D01*
X174829349Y-59489038D01*
X174836581Y-59509250D01*
X174841797Y-59530074D01*
X174844947Y-59551309D01*
X174846000Y-59572750D01*
X174846000Y-60010250D01*
X174844947Y-60031691D01*
X174841797Y-60052926D01*
X174836581Y-60073750D01*
X174829349Y-60093962D01*
X174820170Y-60113368D01*
X174809134Y-60131781D01*
X174796346Y-60149024D01*
X174781930Y-60164930D01*
X174766024Y-60179346D01*
X174748781Y-60192134D01*
X174730368Y-60203170D01*
X174710962Y-60212349D01*
X174690750Y-60219581D01*
X174669926Y-60224797D01*
X174648691Y-60227947D01*
X174627250Y-60229000D01*
X174114750Y-60229000D01*
X174093309Y-60227947D01*
X174072074Y-60224797D01*
X174051250Y-60219581D01*
X174031038Y-60212349D01*
X174011632Y-60203170D01*
X173993219Y-60192134D01*
X173975976Y-60179346D01*
X173960070Y-60164930D01*
X173945654Y-60149024D01*
X173932866Y-60131781D01*
X173921830Y-60113368D01*
X173912651Y-60093962D01*
X173905419Y-60073750D01*
X173900203Y-60052926D01*
X173897053Y-60031691D01*
X173896000Y-60010250D01*
X173896000Y-59572750D01*
X173897053Y-59551309D01*
X173900203Y-59530074D01*
X173905419Y-59509250D01*
X173912651Y-59489038D01*
X173921830Y-59469632D01*
X173932866Y-59451219D01*
X173945654Y-59433976D01*
X173960070Y-59418070D01*
X173975976Y-59403654D01*
X173993219Y-59390866D01*
X174011632Y-59379830D01*
X174031038Y-59370651D01*
X174051250Y-59363419D01*
X174072074Y-59358203D01*
X174093309Y-59355053D01*
X174114750Y-59354000D01*
X174627250Y-59354000D01*
X174648691Y-59355053D01*
X174648691Y-59355053D01*
G37*
D14*
X174371000Y-59791500D03*
G04 #@! TD*
D15*
G04 #@! TO.C,SW5*
X121036000Y-86906500D03*
X121036000Y-80606500D03*
X124836000Y-86906500D03*
X124836000Y-80606500D03*
G04 #@! TD*
G04 #@! TO.C,SW2*
X107320000Y-86970000D03*
X107320000Y-80670000D03*
X111120000Y-86970000D03*
X111120000Y-80670000D03*
G04 #@! TD*
G04 #@! TO.C,SW1*
X114178000Y-80620000D03*
X114178000Y-74320000D03*
X117978000Y-80620000D03*
X117978000Y-74320000D03*
G04 #@! TD*
M02*
