M48
;DRILL file {KiCad (5.0.1)-3} date 2018-11-05 오후 12:42:33
;FORMAT={-:-/ absolute / metric / decimal}
FMAT,2
METRIC,TZ
T1C0.400
T2C1.000
%
G90
G05
M71
T1
X106.934Y-31.496
X106.934Y-33.02
X107.95Y-33.782
X110.744Y-32.258
X112.268Y-63.5
X113.792Y-24.384
X114.554Y-67.564
X114.554Y-34.544
X115.062Y-29.21
X115.57Y-35.56
X115.824Y-29.972
X116.586Y-30.734
X117.602Y-41.148
X117.856Y-24.384
X122.174Y-134.112
X123.Y-69.
X123.Y-78.
X123.Y-84.5
X124.206Y-28.956
X124.46Y-18.034
X124.46Y-117.602
X124.968Y-36.46
X126.492Y-41.148
X126.746Y-29.718
X127.58Y-79.58
X128.Y-80.5
X128.5Y-67.
X128.5Y-82.5
X128.5Y-83.5
X128.53Y-81.47
X129.286Y-29.718
X130.048Y-31.496
X131.Y-84.5
X131.826Y-41.148
X131.862Y-36.46
X132.334Y-81.026
X133.096Y-18.034
X133.604Y-57.15
X134.436Y-29.718
X135.116Y-81.153
X135.636Y-30.988
X135.636Y-33.528
X135.636Y-75.692
X135.89Y-41.148
X137.922Y-95.504
X137.922Y-131.572
X138.176Y-79.375
X139.192Y-60.706
X140.716Y-70.162
X141.732Y-135.382
X141.986Y-68.961
X143.002Y-36.576
X143.256Y-57.15
X144.145Y-77.089
X145.288Y-120.904
X146.5Y-80.5
X146.685Y-77.851
X146.812Y-82.04
X147.574Y-81.28
X148.336Y-24.892
X148.336Y-57.15
X148.59Y-31.496
X148.964Y-20.32
X149.606Y-40.894
X149.918Y-35.56
X151.552Y-79.506
X153.416Y-75.057
X155.702Y-35.56
X156.718Y-57.404
X158.71Y-107.95
X158.71Y-117.348
X160.02Y-109.22
X160.782Y-120.904
X162.306Y-103.886
X164.846Y-97.028
T2
X156.464Y-20.32
X159.004Y-20.32
X145.288Y-138.938
X147.828Y-138.938
X150.368Y-138.938
X152.908Y-138.938
X155.448Y-138.938
X157.988Y-138.938
X166.878Y-121.92
X166.878Y-124.46
X166.878Y-127.
X166.878Y-129.54
X112.268Y-138.938
X114.808Y-138.938
X117.348Y-138.938
X119.888Y-138.938
X122.428Y-138.938
X124.968Y-138.938
X146.304Y-16.51
X148.844Y-16.51
X151.384Y-16.51
X153.924Y-16.51
X156.464Y-16.51
X159.004Y-16.51
X112.776Y-27.245
X112.776Y-27.245
X115.316Y-27.245
X115.316Y-27.245
X117.856Y-27.245
X117.856Y-27.245
X120.396Y-27.245
X120.396Y-27.245
X122.936Y-27.245
X122.936Y-27.245
X125.476Y-27.245
X125.476Y-27.245
X128.016Y-27.245
X128.016Y-27.245
X130.556Y-27.245
X130.556Y-27.245
X133.096Y-27.245
X133.096Y-27.245
X135.636Y-27.245
X135.636Y-27.245
X138.176Y-27.245
X138.176Y-27.245
X140.716Y-27.245
X140.716Y-27.245
X143.256Y-27.245
X143.256Y-27.245
X145.796Y-27.245
X145.796Y-27.245
X148.336Y-27.245
X148.336Y-27.245
X150.876Y-27.245
X150.876Y-27.245
X153.416Y-27.245
X153.416Y-27.245
X155.956Y-27.245
X155.956Y-27.245
X158.496Y-27.245
X158.496Y-27.245
X112.776Y-20.32
X115.316Y-20.32
X130.556Y-138.938
X133.096Y-138.938
X135.636Y-138.938
X138.176Y-138.938
X112.776Y-16.51
X115.316Y-16.51
X117.856Y-16.51
X120.396Y-16.51
X122.936Y-16.51
X125.476Y-16.51
X166.878Y-108.458
X166.878Y-110.998
X166.878Y-113.538
X166.878Y-116.078
X112.776Y-52.645
X112.776Y-52.645
X115.316Y-52.645
X115.316Y-52.645
X117.856Y-52.645
X117.856Y-52.645
X120.396Y-52.645
X120.396Y-52.645
X122.936Y-52.645
X122.936Y-52.645
X125.476Y-52.645
X125.476Y-52.645
X128.016Y-52.645
X128.016Y-52.645
X130.556Y-52.645
X130.556Y-52.645
X133.096Y-52.645
X133.096Y-52.645
X135.636Y-52.645
X135.636Y-52.645
X138.176Y-52.645
X138.176Y-52.645
X140.716Y-52.645
X140.716Y-52.645
X143.256Y-52.645
X143.256Y-52.645
X145.796Y-52.645
X145.796Y-52.645
X148.336Y-52.645
X148.336Y-52.645
X150.876Y-52.645
X150.876Y-52.645
X153.416Y-52.645
X153.416Y-52.645
X155.956Y-52.645
X155.956Y-52.645
X158.496Y-52.645
X158.496Y-52.645
T0
M30
