G04 #@! TF.GenerationSoftware,KiCad,Pcbnew,(5.0.1)-3*
G04 #@! TF.CreationDate,2018-10-31T18:48:16+09:00*
G04 #@! TF.ProjectId,badge,62616467652E6B696361645F70636200,rev?*
G04 #@! TF.SameCoordinates,Original*
G04 #@! TF.FileFunction,Soldermask,Bot*
G04 #@! TF.FilePolarity,Negative*
%FSLAX46Y46*%
G04 Gerber Fmt 4.6, Leading zero omitted, Abs format (unit mm)*
G04 Created by KiCad (PCBNEW (5.0.1)-3) date 2018-10-31 오후 6:48:16*
%MOMM*%
%LPD*%
G01*
G04 APERTURE LIST*
%ADD10C,0.100000*%
G04 APERTURE END LIST*
D10*
G36*
X196469941Y-103746248D02*
X196469943Y-103746249D01*
X196469944Y-103746249D01*
X197025190Y-103976239D01*
X197025191Y-103976240D01*
X197524902Y-104310136D01*
X197949864Y-104735098D01*
X197949866Y-104735101D01*
X198283761Y-105234810D01*
X198513751Y-105790056D01*
X198631000Y-106379503D01*
X198631000Y-106980497D01*
X198513751Y-107569944D01*
X198283761Y-108125190D01*
X198283760Y-108125191D01*
X197949864Y-108624902D01*
X197524902Y-109049864D01*
X197524899Y-109049866D01*
X197025190Y-109383761D01*
X196469944Y-109613751D01*
X196469943Y-109613751D01*
X196469941Y-109613752D01*
X195880499Y-109731000D01*
X195279501Y-109731000D01*
X194690059Y-109613752D01*
X194690057Y-109613751D01*
X194690056Y-109613751D01*
X194134810Y-109383761D01*
X193635101Y-109049866D01*
X193635098Y-109049864D01*
X193210136Y-108624902D01*
X192876240Y-108125191D01*
X192876239Y-108125190D01*
X192646249Y-107569944D01*
X192529000Y-106980497D01*
X192529000Y-106379503D01*
X192646249Y-105790056D01*
X192876239Y-105234810D01*
X193210134Y-104735101D01*
X193210136Y-104735098D01*
X193635098Y-104310136D01*
X194134809Y-103976240D01*
X194134810Y-103976239D01*
X194690056Y-103746249D01*
X194690057Y-103746249D01*
X194690059Y-103746248D01*
X195279501Y-103629000D01*
X195880499Y-103629000D01*
X196469941Y-103746248D01*
X196469941Y-103746248D01*
G37*
G36*
X107569941Y-103746248D02*
X107569943Y-103746249D01*
X107569944Y-103746249D01*
X108125190Y-103976239D01*
X108125191Y-103976240D01*
X108624902Y-104310136D01*
X109049864Y-104735098D01*
X109049866Y-104735101D01*
X109383761Y-105234810D01*
X109613751Y-105790056D01*
X109731000Y-106379503D01*
X109731000Y-106980497D01*
X109613751Y-107569944D01*
X109383761Y-108125190D01*
X109383760Y-108125191D01*
X109049864Y-108624902D01*
X108624902Y-109049864D01*
X108624899Y-109049866D01*
X108125190Y-109383761D01*
X107569944Y-109613751D01*
X107569943Y-109613751D01*
X107569941Y-109613752D01*
X106980499Y-109731000D01*
X106379501Y-109731000D01*
X105790059Y-109613752D01*
X105790057Y-109613751D01*
X105790056Y-109613751D01*
X105234810Y-109383761D01*
X104735101Y-109049866D01*
X104735098Y-109049864D01*
X104310136Y-108624902D01*
X103976240Y-108125191D01*
X103976239Y-108125190D01*
X103746249Y-107569944D01*
X103629000Y-106980497D01*
X103629000Y-106379503D01*
X103746249Y-105790056D01*
X103976239Y-105234810D01*
X104310134Y-104735101D01*
X104310136Y-104735098D01*
X104735098Y-104310136D01*
X105234809Y-103976240D01*
X105234810Y-103976239D01*
X105790056Y-103746249D01*
X105790057Y-103746249D01*
X105790059Y-103746248D01*
X106379501Y-103629000D01*
X106980499Y-103629000D01*
X107569941Y-103746248D01*
X107569941Y-103746248D01*
G37*
G36*
X118967552Y-64300331D02*
X119049625Y-64334327D01*
X119049626Y-64334328D01*
X119049629Y-64334329D01*
X119123496Y-64383686D01*
X119123500Y-64383689D01*
X119186311Y-64446500D01*
X119186313Y-64446503D01*
X119186314Y-64446504D01*
X119235671Y-64520371D01*
X119235672Y-64520374D01*
X119235673Y-64520375D01*
X119269669Y-64602448D01*
X119287000Y-64689579D01*
X119287000Y-64778421D01*
X119269669Y-64865552D01*
X119235673Y-64947625D01*
X119235671Y-64947629D01*
X119186314Y-65021496D01*
X119186311Y-65021500D01*
X119123500Y-65084311D01*
X119123497Y-65084313D01*
X119123496Y-65084314D01*
X119049629Y-65133671D01*
X119049626Y-65133672D01*
X119049625Y-65133673D01*
X118967552Y-65167669D01*
X118880421Y-65185000D01*
X118791579Y-65185000D01*
X118704448Y-65167669D01*
X118622375Y-65133673D01*
X118622374Y-65133672D01*
X118622371Y-65133671D01*
X118548504Y-65084314D01*
X118548503Y-65084313D01*
X118548500Y-65084311D01*
X118485689Y-65021500D01*
X118485686Y-65021496D01*
X118436329Y-64947629D01*
X118436327Y-64947625D01*
X118402331Y-64865552D01*
X118385000Y-64778421D01*
X118385000Y-64689579D01*
X118402331Y-64602448D01*
X118436327Y-64520375D01*
X118436328Y-64520374D01*
X118436329Y-64520371D01*
X118485686Y-64446504D01*
X118485687Y-64446503D01*
X118485689Y-64446500D01*
X118548500Y-64383689D01*
X118548504Y-64383686D01*
X118622371Y-64334329D01*
X118622374Y-64334328D01*
X118622375Y-64334327D01*
X118704448Y-64300331D01*
X118791579Y-64283000D01*
X118880421Y-64283000D01*
X118967552Y-64300331D01*
X118967552Y-64300331D01*
G37*
G36*
X114467552Y-64300331D02*
X114549625Y-64334327D01*
X114549626Y-64334328D01*
X114549629Y-64334329D01*
X114623496Y-64383686D01*
X114623500Y-64383689D01*
X114686311Y-64446500D01*
X114686313Y-64446503D01*
X114686314Y-64446504D01*
X114735671Y-64520371D01*
X114735672Y-64520374D01*
X114735673Y-64520375D01*
X114769669Y-64602448D01*
X114787000Y-64689579D01*
X114787000Y-64778421D01*
X114769669Y-64865552D01*
X114735673Y-64947625D01*
X114735671Y-64947629D01*
X114686314Y-65021496D01*
X114686311Y-65021500D01*
X114623500Y-65084311D01*
X114623497Y-65084313D01*
X114623496Y-65084314D01*
X114549629Y-65133671D01*
X114549626Y-65133672D01*
X114549625Y-65133673D01*
X114467552Y-65167669D01*
X114380421Y-65185000D01*
X114291579Y-65185000D01*
X114204448Y-65167669D01*
X114122375Y-65133673D01*
X114122374Y-65133672D01*
X114122371Y-65133671D01*
X114048504Y-65084314D01*
X114048503Y-65084313D01*
X114048500Y-65084311D01*
X113985689Y-65021500D01*
X113985686Y-65021496D01*
X113936329Y-64947629D01*
X113936327Y-64947625D01*
X113902331Y-64865552D01*
X113885000Y-64778421D01*
X113885000Y-64689579D01*
X113902331Y-64602448D01*
X113936327Y-64520375D01*
X113936328Y-64520374D01*
X113936329Y-64520371D01*
X113985686Y-64446504D01*
X113985687Y-64446503D01*
X113985689Y-64446500D01*
X114048500Y-64383689D01*
X114048504Y-64383686D01*
X114122371Y-64334329D01*
X114122374Y-64334328D01*
X114122375Y-64334327D01*
X114204448Y-64300331D01*
X114291579Y-64283000D01*
X114380421Y-64283000D01*
X114467552Y-64300331D01*
X114467552Y-64300331D01*
G37*
G36*
X153422336Y-55030394D02*
X153488520Y-55036912D01*
X153601746Y-55071259D01*
X153658360Y-55088432D01*
X153796980Y-55162527D01*
X153814884Y-55172097D01*
X153850622Y-55201427D01*
X153952079Y-55284689D01*
X154035341Y-55386146D01*
X154064671Y-55421884D01*
X154064672Y-55421886D01*
X154148336Y-55578408D01*
X154148336Y-55578409D01*
X154199856Y-55748248D01*
X154217252Y-55924875D01*
X154199856Y-56101502D01*
X154165509Y-56214728D01*
X154148336Y-56271342D01*
X154074241Y-56409962D01*
X154064671Y-56427866D01*
X154035341Y-56463604D01*
X153952079Y-56565061D01*
X153850622Y-56648323D01*
X153814884Y-56677653D01*
X153814882Y-56677654D01*
X153658360Y-56761318D01*
X153601746Y-56778491D01*
X153488520Y-56812838D01*
X153422336Y-56819356D01*
X153356153Y-56825875D01*
X153267633Y-56825875D01*
X153201450Y-56819356D01*
X153135266Y-56812838D01*
X153022040Y-56778491D01*
X152965426Y-56761318D01*
X152808904Y-56677654D01*
X152808902Y-56677653D01*
X152773164Y-56648323D01*
X152671707Y-56565061D01*
X152588445Y-56463604D01*
X152559115Y-56427866D01*
X152549545Y-56409962D01*
X152475450Y-56271342D01*
X152458277Y-56214728D01*
X152423930Y-56101502D01*
X152406534Y-55924875D01*
X152423930Y-55748248D01*
X152475450Y-55578409D01*
X152475450Y-55578408D01*
X152559114Y-55421886D01*
X152559115Y-55421884D01*
X152588445Y-55386146D01*
X152671707Y-55284689D01*
X152773164Y-55201427D01*
X152808902Y-55172097D01*
X152826806Y-55162527D01*
X152965426Y-55088432D01*
X153022040Y-55071259D01*
X153135266Y-55036912D01*
X153201450Y-55030394D01*
X153267633Y-55023875D01*
X153356153Y-55023875D01*
X153422336Y-55030394D01*
X153422336Y-55030394D01*
G37*
G36*
X171202336Y-55030394D02*
X171268520Y-55036912D01*
X171381746Y-55071259D01*
X171438360Y-55088432D01*
X171576980Y-55162527D01*
X171594884Y-55172097D01*
X171630622Y-55201427D01*
X171732079Y-55284689D01*
X171815341Y-55386146D01*
X171844671Y-55421884D01*
X171844672Y-55421886D01*
X171928336Y-55578408D01*
X171928336Y-55578409D01*
X171979856Y-55748248D01*
X171997252Y-55924875D01*
X171979856Y-56101502D01*
X171945509Y-56214728D01*
X171928336Y-56271342D01*
X171854241Y-56409962D01*
X171844671Y-56427866D01*
X171815341Y-56463604D01*
X171732079Y-56565061D01*
X171630622Y-56648323D01*
X171594884Y-56677653D01*
X171594882Y-56677654D01*
X171438360Y-56761318D01*
X171381746Y-56778491D01*
X171268520Y-56812838D01*
X171202336Y-56819356D01*
X171136153Y-56825875D01*
X171047633Y-56825875D01*
X170981450Y-56819356D01*
X170915266Y-56812838D01*
X170802040Y-56778491D01*
X170745426Y-56761318D01*
X170588904Y-56677654D01*
X170588902Y-56677653D01*
X170553164Y-56648323D01*
X170451707Y-56565061D01*
X170368445Y-56463604D01*
X170339115Y-56427866D01*
X170329545Y-56409962D01*
X170255450Y-56271342D01*
X170238277Y-56214728D01*
X170203930Y-56101502D01*
X170186534Y-55924875D01*
X170203930Y-55748248D01*
X170255450Y-55578409D01*
X170255450Y-55578408D01*
X170339114Y-55421886D01*
X170339115Y-55421884D01*
X170368445Y-55386146D01*
X170451707Y-55284689D01*
X170553164Y-55201427D01*
X170588902Y-55172097D01*
X170606806Y-55162527D01*
X170745426Y-55088432D01*
X170802040Y-55071259D01*
X170915266Y-55036912D01*
X170981450Y-55030394D01*
X171047633Y-55023875D01*
X171136153Y-55023875D01*
X171202336Y-55030394D01*
X171202336Y-55030394D01*
G37*
G36*
X166122336Y-55030394D02*
X166188520Y-55036912D01*
X166301746Y-55071259D01*
X166358360Y-55088432D01*
X166496980Y-55162527D01*
X166514884Y-55172097D01*
X166550622Y-55201427D01*
X166652079Y-55284689D01*
X166735341Y-55386146D01*
X166764671Y-55421884D01*
X166764672Y-55421886D01*
X166848336Y-55578408D01*
X166848336Y-55578409D01*
X166899856Y-55748248D01*
X166917252Y-55924875D01*
X166899856Y-56101502D01*
X166865509Y-56214728D01*
X166848336Y-56271342D01*
X166774241Y-56409962D01*
X166764671Y-56427866D01*
X166735341Y-56463604D01*
X166652079Y-56565061D01*
X166550622Y-56648323D01*
X166514884Y-56677653D01*
X166514882Y-56677654D01*
X166358360Y-56761318D01*
X166301746Y-56778491D01*
X166188520Y-56812838D01*
X166122336Y-56819356D01*
X166056153Y-56825875D01*
X165967633Y-56825875D01*
X165901450Y-56819356D01*
X165835266Y-56812838D01*
X165722040Y-56778491D01*
X165665426Y-56761318D01*
X165508904Y-56677654D01*
X165508902Y-56677653D01*
X165473164Y-56648323D01*
X165371707Y-56565061D01*
X165288445Y-56463604D01*
X165259115Y-56427866D01*
X165249545Y-56409962D01*
X165175450Y-56271342D01*
X165158277Y-56214728D01*
X165123930Y-56101502D01*
X165106534Y-55924875D01*
X165123930Y-55748248D01*
X165175450Y-55578409D01*
X165175450Y-55578408D01*
X165259114Y-55421886D01*
X165259115Y-55421884D01*
X165288445Y-55386146D01*
X165371707Y-55284689D01*
X165473164Y-55201427D01*
X165508902Y-55172097D01*
X165526806Y-55162527D01*
X165665426Y-55088432D01*
X165722040Y-55071259D01*
X165835266Y-55036912D01*
X165901450Y-55030394D01*
X165967633Y-55023875D01*
X166056153Y-55023875D01*
X166122336Y-55030394D01*
X166122336Y-55030394D01*
G37*
G36*
X163582336Y-55030394D02*
X163648520Y-55036912D01*
X163761746Y-55071259D01*
X163818360Y-55088432D01*
X163956980Y-55162527D01*
X163974884Y-55172097D01*
X164010622Y-55201427D01*
X164112079Y-55284689D01*
X164195341Y-55386146D01*
X164224671Y-55421884D01*
X164224672Y-55421886D01*
X164308336Y-55578408D01*
X164308336Y-55578409D01*
X164359856Y-55748248D01*
X164377252Y-55924875D01*
X164359856Y-56101502D01*
X164325509Y-56214728D01*
X164308336Y-56271342D01*
X164234241Y-56409962D01*
X164224671Y-56427866D01*
X164195341Y-56463604D01*
X164112079Y-56565061D01*
X164010622Y-56648323D01*
X163974884Y-56677653D01*
X163974882Y-56677654D01*
X163818360Y-56761318D01*
X163761746Y-56778491D01*
X163648520Y-56812838D01*
X163582336Y-56819356D01*
X163516153Y-56825875D01*
X163427633Y-56825875D01*
X163361450Y-56819356D01*
X163295266Y-56812838D01*
X163182040Y-56778491D01*
X163125426Y-56761318D01*
X162968904Y-56677654D01*
X162968902Y-56677653D01*
X162933164Y-56648323D01*
X162831707Y-56565061D01*
X162748445Y-56463604D01*
X162719115Y-56427866D01*
X162709545Y-56409962D01*
X162635450Y-56271342D01*
X162618277Y-56214728D01*
X162583930Y-56101502D01*
X162566534Y-55924875D01*
X162583930Y-55748248D01*
X162635450Y-55578409D01*
X162635450Y-55578408D01*
X162719114Y-55421886D01*
X162719115Y-55421884D01*
X162748445Y-55386146D01*
X162831707Y-55284689D01*
X162933164Y-55201427D01*
X162968902Y-55172097D01*
X162986806Y-55162527D01*
X163125426Y-55088432D01*
X163182040Y-55071259D01*
X163295266Y-55036912D01*
X163361450Y-55030394D01*
X163427633Y-55023875D01*
X163516153Y-55023875D01*
X163582336Y-55030394D01*
X163582336Y-55030394D01*
G37*
G36*
X161042336Y-55030394D02*
X161108520Y-55036912D01*
X161221746Y-55071259D01*
X161278360Y-55088432D01*
X161416980Y-55162527D01*
X161434884Y-55172097D01*
X161470622Y-55201427D01*
X161572079Y-55284689D01*
X161655341Y-55386146D01*
X161684671Y-55421884D01*
X161684672Y-55421886D01*
X161768336Y-55578408D01*
X161768336Y-55578409D01*
X161819856Y-55748248D01*
X161837252Y-55924875D01*
X161819856Y-56101502D01*
X161785509Y-56214728D01*
X161768336Y-56271342D01*
X161694241Y-56409962D01*
X161684671Y-56427866D01*
X161655341Y-56463604D01*
X161572079Y-56565061D01*
X161470622Y-56648323D01*
X161434884Y-56677653D01*
X161434882Y-56677654D01*
X161278360Y-56761318D01*
X161221746Y-56778491D01*
X161108520Y-56812838D01*
X161042336Y-56819356D01*
X160976153Y-56825875D01*
X160887633Y-56825875D01*
X160821450Y-56819356D01*
X160755266Y-56812838D01*
X160642040Y-56778491D01*
X160585426Y-56761318D01*
X160428904Y-56677654D01*
X160428902Y-56677653D01*
X160393164Y-56648323D01*
X160291707Y-56565061D01*
X160208445Y-56463604D01*
X160179115Y-56427866D01*
X160169545Y-56409962D01*
X160095450Y-56271342D01*
X160078277Y-56214728D01*
X160043930Y-56101502D01*
X160026534Y-55924875D01*
X160043930Y-55748248D01*
X160095450Y-55578409D01*
X160095450Y-55578408D01*
X160179114Y-55421886D01*
X160179115Y-55421884D01*
X160208445Y-55386146D01*
X160291707Y-55284689D01*
X160393164Y-55201427D01*
X160428902Y-55172097D01*
X160446806Y-55162527D01*
X160585426Y-55088432D01*
X160642040Y-55071259D01*
X160755266Y-55036912D01*
X160821450Y-55030394D01*
X160887633Y-55023875D01*
X160976153Y-55023875D01*
X161042336Y-55030394D01*
X161042336Y-55030394D01*
G37*
G36*
X158502336Y-55030394D02*
X158568520Y-55036912D01*
X158681746Y-55071259D01*
X158738360Y-55088432D01*
X158876980Y-55162527D01*
X158894884Y-55172097D01*
X158930622Y-55201427D01*
X159032079Y-55284689D01*
X159115341Y-55386146D01*
X159144671Y-55421884D01*
X159144672Y-55421886D01*
X159228336Y-55578408D01*
X159228336Y-55578409D01*
X159279856Y-55748248D01*
X159297252Y-55924875D01*
X159279856Y-56101502D01*
X159245509Y-56214728D01*
X159228336Y-56271342D01*
X159154241Y-56409962D01*
X159144671Y-56427866D01*
X159115341Y-56463604D01*
X159032079Y-56565061D01*
X158930622Y-56648323D01*
X158894884Y-56677653D01*
X158894882Y-56677654D01*
X158738360Y-56761318D01*
X158681746Y-56778491D01*
X158568520Y-56812838D01*
X158502336Y-56819356D01*
X158436153Y-56825875D01*
X158347633Y-56825875D01*
X158281450Y-56819356D01*
X158215266Y-56812838D01*
X158102040Y-56778491D01*
X158045426Y-56761318D01*
X157888904Y-56677654D01*
X157888902Y-56677653D01*
X157853164Y-56648323D01*
X157751707Y-56565061D01*
X157668445Y-56463604D01*
X157639115Y-56427866D01*
X157629545Y-56409962D01*
X157555450Y-56271342D01*
X157538277Y-56214728D01*
X157503930Y-56101502D01*
X157486534Y-55924875D01*
X157503930Y-55748248D01*
X157555450Y-55578409D01*
X157555450Y-55578408D01*
X157639114Y-55421886D01*
X157639115Y-55421884D01*
X157668445Y-55386146D01*
X157751707Y-55284689D01*
X157853164Y-55201427D01*
X157888902Y-55172097D01*
X157906806Y-55162527D01*
X158045426Y-55088432D01*
X158102040Y-55071259D01*
X158215266Y-55036912D01*
X158281450Y-55030394D01*
X158347633Y-55023875D01*
X158436153Y-55023875D01*
X158502336Y-55030394D01*
X158502336Y-55030394D01*
G37*
G36*
X155962336Y-55030394D02*
X156028520Y-55036912D01*
X156141746Y-55071259D01*
X156198360Y-55088432D01*
X156336980Y-55162527D01*
X156354884Y-55172097D01*
X156390622Y-55201427D01*
X156492079Y-55284689D01*
X156575341Y-55386146D01*
X156604671Y-55421884D01*
X156604672Y-55421886D01*
X156688336Y-55578408D01*
X156688336Y-55578409D01*
X156739856Y-55748248D01*
X156757252Y-55924875D01*
X156739856Y-56101502D01*
X156705509Y-56214728D01*
X156688336Y-56271342D01*
X156614241Y-56409962D01*
X156604671Y-56427866D01*
X156575341Y-56463604D01*
X156492079Y-56565061D01*
X156390622Y-56648323D01*
X156354884Y-56677653D01*
X156354882Y-56677654D01*
X156198360Y-56761318D01*
X156141746Y-56778491D01*
X156028520Y-56812838D01*
X155962336Y-56819356D01*
X155896153Y-56825875D01*
X155807633Y-56825875D01*
X155741450Y-56819356D01*
X155675266Y-56812838D01*
X155562040Y-56778491D01*
X155505426Y-56761318D01*
X155348904Y-56677654D01*
X155348902Y-56677653D01*
X155313164Y-56648323D01*
X155211707Y-56565061D01*
X155128445Y-56463604D01*
X155099115Y-56427866D01*
X155089545Y-56409962D01*
X155015450Y-56271342D01*
X154998277Y-56214728D01*
X154963930Y-56101502D01*
X154946534Y-55924875D01*
X154963930Y-55748248D01*
X155015450Y-55578409D01*
X155015450Y-55578408D01*
X155099114Y-55421886D01*
X155099115Y-55421884D01*
X155128445Y-55386146D01*
X155211707Y-55284689D01*
X155313164Y-55201427D01*
X155348902Y-55172097D01*
X155366806Y-55162527D01*
X155505426Y-55088432D01*
X155562040Y-55071259D01*
X155675266Y-55036912D01*
X155741450Y-55030394D01*
X155807633Y-55023875D01*
X155896153Y-55023875D01*
X155962336Y-55030394D01*
X155962336Y-55030394D01*
G37*
G36*
X150882336Y-55030394D02*
X150948520Y-55036912D01*
X151061746Y-55071259D01*
X151118360Y-55088432D01*
X151256980Y-55162527D01*
X151274884Y-55172097D01*
X151310622Y-55201427D01*
X151412079Y-55284689D01*
X151495341Y-55386146D01*
X151524671Y-55421884D01*
X151524672Y-55421886D01*
X151608336Y-55578408D01*
X151608336Y-55578409D01*
X151659856Y-55748248D01*
X151677252Y-55924875D01*
X151659856Y-56101502D01*
X151625509Y-56214728D01*
X151608336Y-56271342D01*
X151534241Y-56409962D01*
X151524671Y-56427866D01*
X151495341Y-56463604D01*
X151412079Y-56565061D01*
X151310622Y-56648323D01*
X151274884Y-56677653D01*
X151274882Y-56677654D01*
X151118360Y-56761318D01*
X151061746Y-56778491D01*
X150948520Y-56812838D01*
X150882336Y-56819356D01*
X150816153Y-56825875D01*
X150727633Y-56825875D01*
X150661450Y-56819356D01*
X150595266Y-56812838D01*
X150482040Y-56778491D01*
X150425426Y-56761318D01*
X150268904Y-56677654D01*
X150268902Y-56677653D01*
X150233164Y-56648323D01*
X150131707Y-56565061D01*
X150048445Y-56463604D01*
X150019115Y-56427866D01*
X150009545Y-56409962D01*
X149935450Y-56271342D01*
X149918277Y-56214728D01*
X149883930Y-56101502D01*
X149866534Y-55924875D01*
X149883930Y-55748248D01*
X149935450Y-55578409D01*
X149935450Y-55578408D01*
X150019114Y-55421886D01*
X150019115Y-55421884D01*
X150048445Y-55386146D01*
X150131707Y-55284689D01*
X150233164Y-55201427D01*
X150268902Y-55172097D01*
X150286806Y-55162527D01*
X150425426Y-55088432D01*
X150482040Y-55071259D01*
X150595266Y-55036912D01*
X150661450Y-55030394D01*
X150727633Y-55023875D01*
X150816153Y-55023875D01*
X150882336Y-55030394D01*
X150882336Y-55030394D01*
G37*
G36*
X168662336Y-55030394D02*
X168728520Y-55036912D01*
X168841746Y-55071259D01*
X168898360Y-55088432D01*
X169036980Y-55162527D01*
X169054884Y-55172097D01*
X169090622Y-55201427D01*
X169192079Y-55284689D01*
X169275341Y-55386146D01*
X169304671Y-55421884D01*
X169304672Y-55421886D01*
X169388336Y-55578408D01*
X169388336Y-55578409D01*
X169439856Y-55748248D01*
X169457252Y-55924875D01*
X169439856Y-56101502D01*
X169405509Y-56214728D01*
X169388336Y-56271342D01*
X169314241Y-56409962D01*
X169304671Y-56427866D01*
X169275341Y-56463604D01*
X169192079Y-56565061D01*
X169090622Y-56648323D01*
X169054884Y-56677653D01*
X169054882Y-56677654D01*
X168898360Y-56761318D01*
X168841746Y-56778491D01*
X168728520Y-56812838D01*
X168662336Y-56819356D01*
X168596153Y-56825875D01*
X168507633Y-56825875D01*
X168441450Y-56819356D01*
X168375266Y-56812838D01*
X168262040Y-56778491D01*
X168205426Y-56761318D01*
X168048904Y-56677654D01*
X168048902Y-56677653D01*
X168013164Y-56648323D01*
X167911707Y-56565061D01*
X167828445Y-56463604D01*
X167799115Y-56427866D01*
X167789545Y-56409962D01*
X167715450Y-56271342D01*
X167698277Y-56214728D01*
X167663930Y-56101502D01*
X167646534Y-55924875D01*
X167663930Y-55748248D01*
X167715450Y-55578409D01*
X167715450Y-55578408D01*
X167799114Y-55421886D01*
X167799115Y-55421884D01*
X167828445Y-55386146D01*
X167911707Y-55284689D01*
X168013164Y-55201427D01*
X168048902Y-55172097D01*
X168066806Y-55162527D01*
X168205426Y-55088432D01*
X168262040Y-55071259D01*
X168375266Y-55036912D01*
X168441450Y-55030394D01*
X168507633Y-55023875D01*
X168596153Y-55023875D01*
X168662336Y-55030394D01*
X168662336Y-55030394D01*
G37*
G36*
X143262336Y-55030394D02*
X143328520Y-55036912D01*
X143441746Y-55071259D01*
X143498360Y-55088432D01*
X143636980Y-55162527D01*
X143654884Y-55172097D01*
X143690622Y-55201427D01*
X143792079Y-55284689D01*
X143875341Y-55386146D01*
X143904671Y-55421884D01*
X143904672Y-55421886D01*
X143988336Y-55578408D01*
X143988336Y-55578409D01*
X144039856Y-55748248D01*
X144057252Y-55924875D01*
X144039856Y-56101502D01*
X144005509Y-56214728D01*
X143988336Y-56271342D01*
X143914241Y-56409962D01*
X143904671Y-56427866D01*
X143875341Y-56463604D01*
X143792079Y-56565061D01*
X143690622Y-56648323D01*
X143654884Y-56677653D01*
X143654882Y-56677654D01*
X143498360Y-56761318D01*
X143441746Y-56778491D01*
X143328520Y-56812838D01*
X143262336Y-56819356D01*
X143196153Y-56825875D01*
X143107633Y-56825875D01*
X143041450Y-56819356D01*
X142975266Y-56812838D01*
X142862040Y-56778491D01*
X142805426Y-56761318D01*
X142648904Y-56677654D01*
X142648902Y-56677653D01*
X142613164Y-56648323D01*
X142511707Y-56565061D01*
X142428445Y-56463604D01*
X142399115Y-56427866D01*
X142389545Y-56409962D01*
X142315450Y-56271342D01*
X142298277Y-56214728D01*
X142263930Y-56101502D01*
X142246534Y-55924875D01*
X142263930Y-55748248D01*
X142315450Y-55578409D01*
X142315450Y-55578408D01*
X142399114Y-55421886D01*
X142399115Y-55421884D01*
X142428445Y-55386146D01*
X142511707Y-55284689D01*
X142613164Y-55201427D01*
X142648902Y-55172097D01*
X142666806Y-55162527D01*
X142805426Y-55088432D01*
X142862040Y-55071259D01*
X142975266Y-55036912D01*
X143041450Y-55030394D01*
X143107633Y-55023875D01*
X143196153Y-55023875D01*
X143262336Y-55030394D01*
X143262336Y-55030394D01*
G37*
G36*
X140722336Y-55030394D02*
X140788520Y-55036912D01*
X140901746Y-55071259D01*
X140958360Y-55088432D01*
X141096980Y-55162527D01*
X141114884Y-55172097D01*
X141150622Y-55201427D01*
X141252079Y-55284689D01*
X141335341Y-55386146D01*
X141364671Y-55421884D01*
X141364672Y-55421886D01*
X141448336Y-55578408D01*
X141448336Y-55578409D01*
X141499856Y-55748248D01*
X141517252Y-55924875D01*
X141499856Y-56101502D01*
X141465509Y-56214728D01*
X141448336Y-56271342D01*
X141374241Y-56409962D01*
X141364671Y-56427866D01*
X141335341Y-56463604D01*
X141252079Y-56565061D01*
X141150622Y-56648323D01*
X141114884Y-56677653D01*
X141114882Y-56677654D01*
X140958360Y-56761318D01*
X140901746Y-56778491D01*
X140788520Y-56812838D01*
X140722336Y-56819356D01*
X140656153Y-56825875D01*
X140567633Y-56825875D01*
X140501450Y-56819356D01*
X140435266Y-56812838D01*
X140322040Y-56778491D01*
X140265426Y-56761318D01*
X140108904Y-56677654D01*
X140108902Y-56677653D01*
X140073164Y-56648323D01*
X139971707Y-56565061D01*
X139888445Y-56463604D01*
X139859115Y-56427866D01*
X139849545Y-56409962D01*
X139775450Y-56271342D01*
X139758277Y-56214728D01*
X139723930Y-56101502D01*
X139706534Y-55924875D01*
X139723930Y-55748248D01*
X139775450Y-55578409D01*
X139775450Y-55578408D01*
X139859114Y-55421886D01*
X139859115Y-55421884D01*
X139888445Y-55386146D01*
X139971707Y-55284689D01*
X140073164Y-55201427D01*
X140108902Y-55172097D01*
X140126806Y-55162527D01*
X140265426Y-55088432D01*
X140322040Y-55071259D01*
X140435266Y-55036912D01*
X140501450Y-55030394D01*
X140567633Y-55023875D01*
X140656153Y-55023875D01*
X140722336Y-55030394D01*
X140722336Y-55030394D01*
G37*
G36*
X148342336Y-55030394D02*
X148408520Y-55036912D01*
X148521746Y-55071259D01*
X148578360Y-55088432D01*
X148716980Y-55162527D01*
X148734884Y-55172097D01*
X148770622Y-55201427D01*
X148872079Y-55284689D01*
X148955341Y-55386146D01*
X148984671Y-55421884D01*
X148984672Y-55421886D01*
X149068336Y-55578408D01*
X149068336Y-55578409D01*
X149119856Y-55748248D01*
X149137252Y-55924875D01*
X149119856Y-56101502D01*
X149085509Y-56214728D01*
X149068336Y-56271342D01*
X148994241Y-56409962D01*
X148984671Y-56427866D01*
X148955341Y-56463604D01*
X148872079Y-56565061D01*
X148770622Y-56648323D01*
X148734884Y-56677653D01*
X148734882Y-56677654D01*
X148578360Y-56761318D01*
X148521746Y-56778491D01*
X148408520Y-56812838D01*
X148342336Y-56819356D01*
X148276153Y-56825875D01*
X148187633Y-56825875D01*
X148121450Y-56819356D01*
X148055266Y-56812838D01*
X147942040Y-56778491D01*
X147885426Y-56761318D01*
X147728904Y-56677654D01*
X147728902Y-56677653D01*
X147693164Y-56648323D01*
X147591707Y-56565061D01*
X147508445Y-56463604D01*
X147479115Y-56427866D01*
X147469545Y-56409962D01*
X147395450Y-56271342D01*
X147378277Y-56214728D01*
X147343930Y-56101502D01*
X147326534Y-55924875D01*
X147343930Y-55748248D01*
X147395450Y-55578409D01*
X147395450Y-55578408D01*
X147479114Y-55421886D01*
X147479115Y-55421884D01*
X147508445Y-55386146D01*
X147591707Y-55284689D01*
X147693164Y-55201427D01*
X147728902Y-55172097D01*
X147746806Y-55162527D01*
X147885426Y-55088432D01*
X147942040Y-55071259D01*
X148055266Y-55036912D01*
X148121450Y-55030394D01*
X148187633Y-55023875D01*
X148276153Y-55023875D01*
X148342336Y-55030394D01*
X148342336Y-55030394D01*
G37*
G36*
X138182336Y-55030394D02*
X138248520Y-55036912D01*
X138361746Y-55071259D01*
X138418360Y-55088432D01*
X138556980Y-55162527D01*
X138574884Y-55172097D01*
X138610622Y-55201427D01*
X138712079Y-55284689D01*
X138795341Y-55386146D01*
X138824671Y-55421884D01*
X138824672Y-55421886D01*
X138908336Y-55578408D01*
X138908336Y-55578409D01*
X138959856Y-55748248D01*
X138977252Y-55924875D01*
X138959856Y-56101502D01*
X138925509Y-56214728D01*
X138908336Y-56271342D01*
X138834241Y-56409962D01*
X138824671Y-56427866D01*
X138795341Y-56463604D01*
X138712079Y-56565061D01*
X138610622Y-56648323D01*
X138574884Y-56677653D01*
X138574882Y-56677654D01*
X138418360Y-56761318D01*
X138361746Y-56778491D01*
X138248520Y-56812838D01*
X138182336Y-56819356D01*
X138116153Y-56825875D01*
X138027633Y-56825875D01*
X137961450Y-56819356D01*
X137895266Y-56812838D01*
X137782040Y-56778491D01*
X137725426Y-56761318D01*
X137568904Y-56677654D01*
X137568902Y-56677653D01*
X137533164Y-56648323D01*
X137431707Y-56565061D01*
X137348445Y-56463604D01*
X137319115Y-56427866D01*
X137309545Y-56409962D01*
X137235450Y-56271342D01*
X137218277Y-56214728D01*
X137183930Y-56101502D01*
X137166534Y-55924875D01*
X137183930Y-55748248D01*
X137235450Y-55578409D01*
X137235450Y-55578408D01*
X137319114Y-55421886D01*
X137319115Y-55421884D01*
X137348445Y-55386146D01*
X137431707Y-55284689D01*
X137533164Y-55201427D01*
X137568902Y-55172097D01*
X137586806Y-55162527D01*
X137725426Y-55088432D01*
X137782040Y-55071259D01*
X137895266Y-55036912D01*
X137961450Y-55030394D01*
X138027633Y-55023875D01*
X138116153Y-55023875D01*
X138182336Y-55030394D01*
X138182336Y-55030394D01*
G37*
G36*
X135642336Y-55030394D02*
X135708520Y-55036912D01*
X135821746Y-55071259D01*
X135878360Y-55088432D01*
X136016980Y-55162527D01*
X136034884Y-55172097D01*
X136070622Y-55201427D01*
X136172079Y-55284689D01*
X136255341Y-55386146D01*
X136284671Y-55421884D01*
X136284672Y-55421886D01*
X136368336Y-55578408D01*
X136368336Y-55578409D01*
X136419856Y-55748248D01*
X136437252Y-55924875D01*
X136419856Y-56101502D01*
X136385509Y-56214728D01*
X136368336Y-56271342D01*
X136294241Y-56409962D01*
X136284671Y-56427866D01*
X136255341Y-56463604D01*
X136172079Y-56565061D01*
X136070622Y-56648323D01*
X136034884Y-56677653D01*
X136034882Y-56677654D01*
X135878360Y-56761318D01*
X135821746Y-56778491D01*
X135708520Y-56812838D01*
X135642336Y-56819356D01*
X135576153Y-56825875D01*
X135487633Y-56825875D01*
X135421450Y-56819356D01*
X135355266Y-56812838D01*
X135242040Y-56778491D01*
X135185426Y-56761318D01*
X135028904Y-56677654D01*
X135028902Y-56677653D01*
X134993164Y-56648323D01*
X134891707Y-56565061D01*
X134808445Y-56463604D01*
X134779115Y-56427866D01*
X134769545Y-56409962D01*
X134695450Y-56271342D01*
X134678277Y-56214728D01*
X134643930Y-56101502D01*
X134626534Y-55924875D01*
X134643930Y-55748248D01*
X134695450Y-55578409D01*
X134695450Y-55578408D01*
X134779114Y-55421886D01*
X134779115Y-55421884D01*
X134808445Y-55386146D01*
X134891707Y-55284689D01*
X134993164Y-55201427D01*
X135028902Y-55172097D01*
X135046806Y-55162527D01*
X135185426Y-55088432D01*
X135242040Y-55071259D01*
X135355266Y-55036912D01*
X135421450Y-55030394D01*
X135487633Y-55023875D01*
X135576153Y-55023875D01*
X135642336Y-55030394D01*
X135642336Y-55030394D01*
G37*
G36*
X133102336Y-55030394D02*
X133168520Y-55036912D01*
X133281746Y-55071259D01*
X133338360Y-55088432D01*
X133476980Y-55162527D01*
X133494884Y-55172097D01*
X133530622Y-55201427D01*
X133632079Y-55284689D01*
X133715341Y-55386146D01*
X133744671Y-55421884D01*
X133744672Y-55421886D01*
X133828336Y-55578408D01*
X133828336Y-55578409D01*
X133879856Y-55748248D01*
X133897252Y-55924875D01*
X133879856Y-56101502D01*
X133845509Y-56214728D01*
X133828336Y-56271342D01*
X133754241Y-56409962D01*
X133744671Y-56427866D01*
X133715341Y-56463604D01*
X133632079Y-56565061D01*
X133530622Y-56648323D01*
X133494884Y-56677653D01*
X133494882Y-56677654D01*
X133338360Y-56761318D01*
X133281746Y-56778491D01*
X133168520Y-56812838D01*
X133102336Y-56819356D01*
X133036153Y-56825875D01*
X132947633Y-56825875D01*
X132881450Y-56819356D01*
X132815266Y-56812838D01*
X132702040Y-56778491D01*
X132645426Y-56761318D01*
X132488904Y-56677654D01*
X132488902Y-56677653D01*
X132453164Y-56648323D01*
X132351707Y-56565061D01*
X132268445Y-56463604D01*
X132239115Y-56427866D01*
X132229545Y-56409962D01*
X132155450Y-56271342D01*
X132138277Y-56214728D01*
X132103930Y-56101502D01*
X132086534Y-55924875D01*
X132103930Y-55748248D01*
X132155450Y-55578409D01*
X132155450Y-55578408D01*
X132239114Y-55421886D01*
X132239115Y-55421884D01*
X132268445Y-55386146D01*
X132351707Y-55284689D01*
X132453164Y-55201427D01*
X132488902Y-55172097D01*
X132506806Y-55162527D01*
X132645426Y-55088432D01*
X132702040Y-55071259D01*
X132815266Y-55036912D01*
X132881450Y-55030394D01*
X132947633Y-55023875D01*
X133036153Y-55023875D01*
X133102336Y-55030394D01*
X133102336Y-55030394D01*
G37*
G36*
X130562336Y-55030394D02*
X130628520Y-55036912D01*
X130741746Y-55071259D01*
X130798360Y-55088432D01*
X130936980Y-55162527D01*
X130954884Y-55172097D01*
X130990622Y-55201427D01*
X131092079Y-55284689D01*
X131175341Y-55386146D01*
X131204671Y-55421884D01*
X131204672Y-55421886D01*
X131288336Y-55578408D01*
X131288336Y-55578409D01*
X131339856Y-55748248D01*
X131357252Y-55924875D01*
X131339856Y-56101502D01*
X131305509Y-56214728D01*
X131288336Y-56271342D01*
X131214241Y-56409962D01*
X131204671Y-56427866D01*
X131175341Y-56463604D01*
X131092079Y-56565061D01*
X130990622Y-56648323D01*
X130954884Y-56677653D01*
X130954882Y-56677654D01*
X130798360Y-56761318D01*
X130741746Y-56778491D01*
X130628520Y-56812838D01*
X130562336Y-56819356D01*
X130496153Y-56825875D01*
X130407633Y-56825875D01*
X130341450Y-56819356D01*
X130275266Y-56812838D01*
X130162040Y-56778491D01*
X130105426Y-56761318D01*
X129948904Y-56677654D01*
X129948902Y-56677653D01*
X129913164Y-56648323D01*
X129811707Y-56565061D01*
X129728445Y-56463604D01*
X129699115Y-56427866D01*
X129689545Y-56409962D01*
X129615450Y-56271342D01*
X129598277Y-56214728D01*
X129563930Y-56101502D01*
X129546534Y-55924875D01*
X129563930Y-55748248D01*
X129615450Y-55578409D01*
X129615450Y-55578408D01*
X129699114Y-55421886D01*
X129699115Y-55421884D01*
X129728445Y-55386146D01*
X129811707Y-55284689D01*
X129913164Y-55201427D01*
X129948902Y-55172097D01*
X129966806Y-55162527D01*
X130105426Y-55088432D01*
X130162040Y-55071259D01*
X130275266Y-55036912D01*
X130341450Y-55030394D01*
X130407633Y-55023875D01*
X130496153Y-55023875D01*
X130562336Y-55030394D01*
X130562336Y-55030394D01*
G37*
G36*
X177072893Y-56825875D02*
X175270893Y-56825875D01*
X175270893Y-55023875D01*
X177072893Y-55023875D01*
X177072893Y-56825875D01*
X177072893Y-56825875D01*
G37*
G36*
X173742336Y-55030394D02*
X173808520Y-55036912D01*
X173921746Y-55071259D01*
X173978360Y-55088432D01*
X174116980Y-55162527D01*
X174134884Y-55172097D01*
X174170622Y-55201427D01*
X174272079Y-55284689D01*
X174355341Y-55386146D01*
X174384671Y-55421884D01*
X174384672Y-55421886D01*
X174468336Y-55578408D01*
X174468336Y-55578409D01*
X174519856Y-55748248D01*
X174537252Y-55924875D01*
X174519856Y-56101502D01*
X174485509Y-56214728D01*
X174468336Y-56271342D01*
X174394241Y-56409962D01*
X174384671Y-56427866D01*
X174355341Y-56463604D01*
X174272079Y-56565061D01*
X174170622Y-56648323D01*
X174134884Y-56677653D01*
X174134882Y-56677654D01*
X173978360Y-56761318D01*
X173921746Y-56778491D01*
X173808520Y-56812838D01*
X173742336Y-56819356D01*
X173676153Y-56825875D01*
X173587633Y-56825875D01*
X173521450Y-56819356D01*
X173455266Y-56812838D01*
X173342040Y-56778491D01*
X173285426Y-56761318D01*
X173128904Y-56677654D01*
X173128902Y-56677653D01*
X173093164Y-56648323D01*
X172991707Y-56565061D01*
X172908445Y-56463604D01*
X172879115Y-56427866D01*
X172869545Y-56409962D01*
X172795450Y-56271342D01*
X172778277Y-56214728D01*
X172743930Y-56101502D01*
X172726534Y-55924875D01*
X172743930Y-55748248D01*
X172795450Y-55578409D01*
X172795450Y-55578408D01*
X172879114Y-55421886D01*
X172879115Y-55421884D01*
X172908445Y-55386146D01*
X172991707Y-55284689D01*
X173093164Y-55201427D01*
X173128902Y-55172097D01*
X173146806Y-55162527D01*
X173285426Y-55088432D01*
X173342040Y-55071259D01*
X173455266Y-55036912D01*
X173521450Y-55030394D01*
X173587633Y-55023875D01*
X173676153Y-55023875D01*
X173742336Y-55030394D01*
X173742336Y-55030394D01*
G37*
G36*
X145802336Y-55030394D02*
X145868520Y-55036912D01*
X145981746Y-55071259D01*
X146038360Y-55088432D01*
X146176980Y-55162527D01*
X146194884Y-55172097D01*
X146230622Y-55201427D01*
X146332079Y-55284689D01*
X146415341Y-55386146D01*
X146444671Y-55421884D01*
X146444672Y-55421886D01*
X146528336Y-55578408D01*
X146528336Y-55578409D01*
X146579856Y-55748248D01*
X146597252Y-55924875D01*
X146579856Y-56101502D01*
X146545509Y-56214728D01*
X146528336Y-56271342D01*
X146454241Y-56409962D01*
X146444671Y-56427866D01*
X146415341Y-56463604D01*
X146332079Y-56565061D01*
X146230622Y-56648323D01*
X146194884Y-56677653D01*
X146194882Y-56677654D01*
X146038360Y-56761318D01*
X145981746Y-56778491D01*
X145868520Y-56812838D01*
X145802336Y-56819356D01*
X145736153Y-56825875D01*
X145647633Y-56825875D01*
X145581450Y-56819356D01*
X145515266Y-56812838D01*
X145402040Y-56778491D01*
X145345426Y-56761318D01*
X145188904Y-56677654D01*
X145188902Y-56677653D01*
X145153164Y-56648323D01*
X145051707Y-56565061D01*
X144968445Y-56463604D01*
X144939115Y-56427866D01*
X144929545Y-56409962D01*
X144855450Y-56271342D01*
X144838277Y-56214728D01*
X144803930Y-56101502D01*
X144786534Y-55924875D01*
X144803930Y-55748248D01*
X144855450Y-55578409D01*
X144855450Y-55578408D01*
X144939114Y-55421886D01*
X144939115Y-55421884D01*
X144968445Y-55386146D01*
X145051707Y-55284689D01*
X145153164Y-55201427D01*
X145188902Y-55172097D01*
X145206806Y-55162527D01*
X145345426Y-55088432D01*
X145402040Y-55071259D01*
X145515266Y-55036912D01*
X145581450Y-55030394D01*
X145647633Y-55023875D01*
X145736153Y-55023875D01*
X145802336Y-55030394D01*
X145802336Y-55030394D01*
G37*
G36*
X120209329Y-33930682D02*
X120619971Y-34012363D01*
X121393604Y-34332812D01*
X122087501Y-34796460D01*
X122089858Y-34798035D01*
X122681965Y-35390142D01*
X122681967Y-35390145D01*
X123147188Y-36086396D01*
X123467637Y-36860029D01*
X123549318Y-37270671D01*
X123631000Y-37681312D01*
X123631000Y-38518688D01*
X123586796Y-38740916D01*
X123467637Y-39339971D01*
X123467636Y-39339973D01*
X123466514Y-39345614D01*
X123464112Y-39370000D01*
X123466514Y-39394386D01*
X123467636Y-39400027D01*
X123467637Y-39400029D01*
X123586796Y-39999084D01*
X123609576Y-40113604D01*
X123631000Y-40221313D01*
X123631000Y-41058687D01*
X123467637Y-41879971D01*
X123147188Y-42653604D01*
X122683540Y-43347501D01*
X122681965Y-43349858D01*
X122089858Y-43941965D01*
X122089855Y-43941967D01*
X121393604Y-44407188D01*
X120619971Y-44727637D01*
X120209329Y-44809318D01*
X119798688Y-44891000D01*
X118961312Y-44891000D01*
X118550671Y-44809318D01*
X118140029Y-44727637D01*
X117366396Y-44407188D01*
X116670145Y-43941967D01*
X116670142Y-43941965D01*
X116078035Y-43349858D01*
X116076460Y-43347501D01*
X115612812Y-42653604D01*
X115292363Y-41879971D01*
X115129000Y-41058687D01*
X115129000Y-40221313D01*
X115150425Y-40113604D01*
X115173204Y-39999084D01*
X115292363Y-39400029D01*
X115292364Y-39400027D01*
X115293486Y-39394386D01*
X115295888Y-39370000D01*
X115293486Y-39345614D01*
X115292364Y-39339973D01*
X115292363Y-39339971D01*
X115173204Y-38740916D01*
X115129000Y-38518688D01*
X115129000Y-37681312D01*
X115210682Y-37270671D01*
X115292363Y-36860029D01*
X115612812Y-36086396D01*
X116078033Y-35390145D01*
X116078035Y-35390142D01*
X116670142Y-34798035D01*
X116672499Y-34796460D01*
X117366396Y-34332812D01*
X118140029Y-34012363D01*
X118550671Y-33930681D01*
X118961312Y-33849000D01*
X119798688Y-33849000D01*
X120209329Y-33930682D01*
X120209329Y-33930682D01*
G37*
G36*
X130562336Y-29630394D02*
X130628520Y-29636912D01*
X130741746Y-29671259D01*
X130798360Y-29688432D01*
X130936980Y-29762527D01*
X130954884Y-29772097D01*
X130990622Y-29801427D01*
X131092079Y-29884689D01*
X131175341Y-29986146D01*
X131204671Y-30021884D01*
X131204672Y-30021886D01*
X131288336Y-30178408D01*
X131288336Y-30178409D01*
X131339856Y-30348248D01*
X131357252Y-30524875D01*
X131339856Y-30701502D01*
X131305509Y-30814728D01*
X131288336Y-30871342D01*
X131214241Y-31009962D01*
X131204671Y-31027866D01*
X131175341Y-31063604D01*
X131092079Y-31165061D01*
X130990622Y-31248323D01*
X130954884Y-31277653D01*
X130954882Y-31277654D01*
X130798360Y-31361318D01*
X130741746Y-31378491D01*
X130628520Y-31412838D01*
X130562335Y-31419357D01*
X130496153Y-31425875D01*
X130407633Y-31425875D01*
X130341451Y-31419357D01*
X130275266Y-31412838D01*
X130162040Y-31378491D01*
X130105426Y-31361318D01*
X129948904Y-31277654D01*
X129948902Y-31277653D01*
X129913164Y-31248323D01*
X129811707Y-31165061D01*
X129728445Y-31063604D01*
X129699115Y-31027866D01*
X129689545Y-31009962D01*
X129615450Y-30871342D01*
X129598277Y-30814728D01*
X129563930Y-30701502D01*
X129546534Y-30524875D01*
X129563930Y-30348248D01*
X129615450Y-30178409D01*
X129615450Y-30178408D01*
X129699114Y-30021886D01*
X129699115Y-30021884D01*
X129728445Y-29986146D01*
X129811707Y-29884689D01*
X129913164Y-29801427D01*
X129948902Y-29772097D01*
X129966806Y-29762527D01*
X130105426Y-29688432D01*
X130162040Y-29671259D01*
X130275266Y-29636912D01*
X130341450Y-29630394D01*
X130407633Y-29623875D01*
X130496153Y-29623875D01*
X130562336Y-29630394D01*
X130562336Y-29630394D01*
G37*
G36*
X133102336Y-29630394D02*
X133168520Y-29636912D01*
X133281746Y-29671259D01*
X133338360Y-29688432D01*
X133476980Y-29762527D01*
X133494884Y-29772097D01*
X133530622Y-29801427D01*
X133632079Y-29884689D01*
X133715341Y-29986146D01*
X133744671Y-30021884D01*
X133744672Y-30021886D01*
X133828336Y-30178408D01*
X133828336Y-30178409D01*
X133879856Y-30348248D01*
X133897252Y-30524875D01*
X133879856Y-30701502D01*
X133845509Y-30814728D01*
X133828336Y-30871342D01*
X133754241Y-31009962D01*
X133744671Y-31027866D01*
X133715341Y-31063604D01*
X133632079Y-31165061D01*
X133530622Y-31248323D01*
X133494884Y-31277653D01*
X133494882Y-31277654D01*
X133338360Y-31361318D01*
X133281746Y-31378491D01*
X133168520Y-31412838D01*
X133102335Y-31419357D01*
X133036153Y-31425875D01*
X132947633Y-31425875D01*
X132881451Y-31419357D01*
X132815266Y-31412838D01*
X132702040Y-31378491D01*
X132645426Y-31361318D01*
X132488904Y-31277654D01*
X132488902Y-31277653D01*
X132453164Y-31248323D01*
X132351707Y-31165061D01*
X132268445Y-31063604D01*
X132239115Y-31027866D01*
X132229545Y-31009962D01*
X132155450Y-30871342D01*
X132138277Y-30814728D01*
X132103930Y-30701502D01*
X132086534Y-30524875D01*
X132103930Y-30348248D01*
X132155450Y-30178409D01*
X132155450Y-30178408D01*
X132239114Y-30021886D01*
X132239115Y-30021884D01*
X132268445Y-29986146D01*
X132351707Y-29884689D01*
X132453164Y-29801427D01*
X132488902Y-29772097D01*
X132506806Y-29762527D01*
X132645426Y-29688432D01*
X132702040Y-29671259D01*
X132815266Y-29636912D01*
X132881450Y-29630394D01*
X132947633Y-29623875D01*
X133036153Y-29623875D01*
X133102336Y-29630394D01*
X133102336Y-29630394D01*
G37*
G36*
X135642336Y-29630394D02*
X135708520Y-29636912D01*
X135821746Y-29671259D01*
X135878360Y-29688432D01*
X136016980Y-29762527D01*
X136034884Y-29772097D01*
X136070622Y-29801427D01*
X136172079Y-29884689D01*
X136255341Y-29986146D01*
X136284671Y-30021884D01*
X136284672Y-30021886D01*
X136368336Y-30178408D01*
X136368336Y-30178409D01*
X136419856Y-30348248D01*
X136437252Y-30524875D01*
X136419856Y-30701502D01*
X136385509Y-30814728D01*
X136368336Y-30871342D01*
X136294241Y-31009962D01*
X136284671Y-31027866D01*
X136255341Y-31063604D01*
X136172079Y-31165061D01*
X136070622Y-31248323D01*
X136034884Y-31277653D01*
X136034882Y-31277654D01*
X135878360Y-31361318D01*
X135821746Y-31378491D01*
X135708520Y-31412838D01*
X135642335Y-31419357D01*
X135576153Y-31425875D01*
X135487633Y-31425875D01*
X135421451Y-31419357D01*
X135355266Y-31412838D01*
X135242040Y-31378491D01*
X135185426Y-31361318D01*
X135028904Y-31277654D01*
X135028902Y-31277653D01*
X134993164Y-31248323D01*
X134891707Y-31165061D01*
X134808445Y-31063604D01*
X134779115Y-31027866D01*
X134769545Y-31009962D01*
X134695450Y-30871342D01*
X134678277Y-30814728D01*
X134643930Y-30701502D01*
X134626534Y-30524875D01*
X134643930Y-30348248D01*
X134695450Y-30178409D01*
X134695450Y-30178408D01*
X134779114Y-30021886D01*
X134779115Y-30021884D01*
X134808445Y-29986146D01*
X134891707Y-29884689D01*
X134993164Y-29801427D01*
X135028902Y-29772097D01*
X135046806Y-29762527D01*
X135185426Y-29688432D01*
X135242040Y-29671259D01*
X135355266Y-29636912D01*
X135421450Y-29630394D01*
X135487633Y-29623875D01*
X135576153Y-29623875D01*
X135642336Y-29630394D01*
X135642336Y-29630394D01*
G37*
G36*
X138182336Y-29630394D02*
X138248520Y-29636912D01*
X138361746Y-29671259D01*
X138418360Y-29688432D01*
X138556980Y-29762527D01*
X138574884Y-29772097D01*
X138610622Y-29801427D01*
X138712079Y-29884689D01*
X138795341Y-29986146D01*
X138824671Y-30021884D01*
X138824672Y-30021886D01*
X138908336Y-30178408D01*
X138908336Y-30178409D01*
X138959856Y-30348248D01*
X138977252Y-30524875D01*
X138959856Y-30701502D01*
X138925509Y-30814728D01*
X138908336Y-30871342D01*
X138834241Y-31009962D01*
X138824671Y-31027866D01*
X138795341Y-31063604D01*
X138712079Y-31165061D01*
X138610622Y-31248323D01*
X138574884Y-31277653D01*
X138574882Y-31277654D01*
X138418360Y-31361318D01*
X138361746Y-31378491D01*
X138248520Y-31412838D01*
X138182335Y-31419357D01*
X138116153Y-31425875D01*
X138027633Y-31425875D01*
X137961451Y-31419357D01*
X137895266Y-31412838D01*
X137782040Y-31378491D01*
X137725426Y-31361318D01*
X137568904Y-31277654D01*
X137568902Y-31277653D01*
X137533164Y-31248323D01*
X137431707Y-31165061D01*
X137348445Y-31063604D01*
X137319115Y-31027866D01*
X137309545Y-31009962D01*
X137235450Y-30871342D01*
X137218277Y-30814728D01*
X137183930Y-30701502D01*
X137166534Y-30524875D01*
X137183930Y-30348248D01*
X137235450Y-30178409D01*
X137235450Y-30178408D01*
X137319114Y-30021886D01*
X137319115Y-30021884D01*
X137348445Y-29986146D01*
X137431707Y-29884689D01*
X137533164Y-29801427D01*
X137568902Y-29772097D01*
X137586806Y-29762527D01*
X137725426Y-29688432D01*
X137782040Y-29671259D01*
X137895266Y-29636912D01*
X137961450Y-29630394D01*
X138027633Y-29623875D01*
X138116153Y-29623875D01*
X138182336Y-29630394D01*
X138182336Y-29630394D01*
G37*
G36*
X140722336Y-29630394D02*
X140788520Y-29636912D01*
X140901746Y-29671259D01*
X140958360Y-29688432D01*
X141096980Y-29762527D01*
X141114884Y-29772097D01*
X141150622Y-29801427D01*
X141252079Y-29884689D01*
X141335341Y-29986146D01*
X141364671Y-30021884D01*
X141364672Y-30021886D01*
X141448336Y-30178408D01*
X141448336Y-30178409D01*
X141499856Y-30348248D01*
X141517252Y-30524875D01*
X141499856Y-30701502D01*
X141465509Y-30814728D01*
X141448336Y-30871342D01*
X141374241Y-31009962D01*
X141364671Y-31027866D01*
X141335341Y-31063604D01*
X141252079Y-31165061D01*
X141150622Y-31248323D01*
X141114884Y-31277653D01*
X141114882Y-31277654D01*
X140958360Y-31361318D01*
X140901746Y-31378491D01*
X140788520Y-31412838D01*
X140722335Y-31419357D01*
X140656153Y-31425875D01*
X140567633Y-31425875D01*
X140501451Y-31419357D01*
X140435266Y-31412838D01*
X140322040Y-31378491D01*
X140265426Y-31361318D01*
X140108904Y-31277654D01*
X140108902Y-31277653D01*
X140073164Y-31248323D01*
X139971707Y-31165061D01*
X139888445Y-31063604D01*
X139859115Y-31027866D01*
X139849545Y-31009962D01*
X139775450Y-30871342D01*
X139758277Y-30814728D01*
X139723930Y-30701502D01*
X139706534Y-30524875D01*
X139723930Y-30348248D01*
X139775450Y-30178409D01*
X139775450Y-30178408D01*
X139859114Y-30021886D01*
X139859115Y-30021884D01*
X139888445Y-29986146D01*
X139971707Y-29884689D01*
X140073164Y-29801427D01*
X140108902Y-29772097D01*
X140126806Y-29762527D01*
X140265426Y-29688432D01*
X140322040Y-29671259D01*
X140435266Y-29636912D01*
X140501450Y-29630394D01*
X140567633Y-29623875D01*
X140656153Y-29623875D01*
X140722336Y-29630394D01*
X140722336Y-29630394D01*
G37*
G36*
X143262336Y-29630394D02*
X143328520Y-29636912D01*
X143441746Y-29671259D01*
X143498360Y-29688432D01*
X143636980Y-29762527D01*
X143654884Y-29772097D01*
X143690622Y-29801427D01*
X143792079Y-29884689D01*
X143875341Y-29986146D01*
X143904671Y-30021884D01*
X143904672Y-30021886D01*
X143988336Y-30178408D01*
X143988336Y-30178409D01*
X144039856Y-30348248D01*
X144057252Y-30524875D01*
X144039856Y-30701502D01*
X144005509Y-30814728D01*
X143988336Y-30871342D01*
X143914241Y-31009962D01*
X143904671Y-31027866D01*
X143875341Y-31063604D01*
X143792079Y-31165061D01*
X143690622Y-31248323D01*
X143654884Y-31277653D01*
X143654882Y-31277654D01*
X143498360Y-31361318D01*
X143441746Y-31378491D01*
X143328520Y-31412838D01*
X143262335Y-31419357D01*
X143196153Y-31425875D01*
X143107633Y-31425875D01*
X143041451Y-31419357D01*
X142975266Y-31412838D01*
X142862040Y-31378491D01*
X142805426Y-31361318D01*
X142648904Y-31277654D01*
X142648902Y-31277653D01*
X142613164Y-31248323D01*
X142511707Y-31165061D01*
X142428445Y-31063604D01*
X142399115Y-31027866D01*
X142389545Y-31009962D01*
X142315450Y-30871342D01*
X142298277Y-30814728D01*
X142263930Y-30701502D01*
X142246534Y-30524875D01*
X142263930Y-30348248D01*
X142315450Y-30178409D01*
X142315450Y-30178408D01*
X142399114Y-30021886D01*
X142399115Y-30021884D01*
X142428445Y-29986146D01*
X142511707Y-29884689D01*
X142613164Y-29801427D01*
X142648902Y-29772097D01*
X142666806Y-29762527D01*
X142805426Y-29688432D01*
X142862040Y-29671259D01*
X142975266Y-29636912D01*
X143041450Y-29630394D01*
X143107633Y-29623875D01*
X143196153Y-29623875D01*
X143262336Y-29630394D01*
X143262336Y-29630394D01*
G37*
G36*
X145802336Y-29630394D02*
X145868520Y-29636912D01*
X145981746Y-29671259D01*
X146038360Y-29688432D01*
X146176980Y-29762527D01*
X146194884Y-29772097D01*
X146230622Y-29801427D01*
X146332079Y-29884689D01*
X146415341Y-29986146D01*
X146444671Y-30021884D01*
X146444672Y-30021886D01*
X146528336Y-30178408D01*
X146528336Y-30178409D01*
X146579856Y-30348248D01*
X146597252Y-30524875D01*
X146579856Y-30701502D01*
X146545509Y-30814728D01*
X146528336Y-30871342D01*
X146454241Y-31009962D01*
X146444671Y-31027866D01*
X146415341Y-31063604D01*
X146332079Y-31165061D01*
X146230622Y-31248323D01*
X146194884Y-31277653D01*
X146194882Y-31277654D01*
X146038360Y-31361318D01*
X145981746Y-31378491D01*
X145868520Y-31412838D01*
X145802335Y-31419357D01*
X145736153Y-31425875D01*
X145647633Y-31425875D01*
X145581451Y-31419357D01*
X145515266Y-31412838D01*
X145402040Y-31378491D01*
X145345426Y-31361318D01*
X145188904Y-31277654D01*
X145188902Y-31277653D01*
X145153164Y-31248323D01*
X145051707Y-31165061D01*
X144968445Y-31063604D01*
X144939115Y-31027866D01*
X144929545Y-31009962D01*
X144855450Y-30871342D01*
X144838277Y-30814728D01*
X144803930Y-30701502D01*
X144786534Y-30524875D01*
X144803930Y-30348248D01*
X144855450Y-30178409D01*
X144855450Y-30178408D01*
X144939114Y-30021886D01*
X144939115Y-30021884D01*
X144968445Y-29986146D01*
X145051707Y-29884689D01*
X145153164Y-29801427D01*
X145188902Y-29772097D01*
X145206806Y-29762527D01*
X145345426Y-29688432D01*
X145402040Y-29671259D01*
X145515266Y-29636912D01*
X145581450Y-29630394D01*
X145647633Y-29623875D01*
X145736153Y-29623875D01*
X145802336Y-29630394D01*
X145802336Y-29630394D01*
G37*
G36*
X148342336Y-29630394D02*
X148408520Y-29636912D01*
X148521746Y-29671259D01*
X148578360Y-29688432D01*
X148716980Y-29762527D01*
X148734884Y-29772097D01*
X148770622Y-29801427D01*
X148872079Y-29884689D01*
X148955341Y-29986146D01*
X148984671Y-30021884D01*
X148984672Y-30021886D01*
X149068336Y-30178408D01*
X149068336Y-30178409D01*
X149119856Y-30348248D01*
X149137252Y-30524875D01*
X149119856Y-30701502D01*
X149085509Y-30814728D01*
X149068336Y-30871342D01*
X148994241Y-31009962D01*
X148984671Y-31027866D01*
X148955341Y-31063604D01*
X148872079Y-31165061D01*
X148770622Y-31248323D01*
X148734884Y-31277653D01*
X148734882Y-31277654D01*
X148578360Y-31361318D01*
X148521746Y-31378491D01*
X148408520Y-31412838D01*
X148342335Y-31419357D01*
X148276153Y-31425875D01*
X148187633Y-31425875D01*
X148121451Y-31419357D01*
X148055266Y-31412838D01*
X147942040Y-31378491D01*
X147885426Y-31361318D01*
X147728904Y-31277654D01*
X147728902Y-31277653D01*
X147693164Y-31248323D01*
X147591707Y-31165061D01*
X147508445Y-31063604D01*
X147479115Y-31027866D01*
X147469545Y-31009962D01*
X147395450Y-30871342D01*
X147378277Y-30814728D01*
X147343930Y-30701502D01*
X147326534Y-30524875D01*
X147343930Y-30348248D01*
X147395450Y-30178409D01*
X147395450Y-30178408D01*
X147479114Y-30021886D01*
X147479115Y-30021884D01*
X147508445Y-29986146D01*
X147591707Y-29884689D01*
X147693164Y-29801427D01*
X147728902Y-29772097D01*
X147746806Y-29762527D01*
X147885426Y-29688432D01*
X147942040Y-29671259D01*
X148055266Y-29636912D01*
X148121450Y-29630394D01*
X148187633Y-29623875D01*
X148276153Y-29623875D01*
X148342336Y-29630394D01*
X148342336Y-29630394D01*
G37*
G36*
X150882336Y-29630394D02*
X150948520Y-29636912D01*
X151061746Y-29671259D01*
X151118360Y-29688432D01*
X151256980Y-29762527D01*
X151274884Y-29772097D01*
X151310622Y-29801427D01*
X151412079Y-29884689D01*
X151495341Y-29986146D01*
X151524671Y-30021884D01*
X151524672Y-30021886D01*
X151608336Y-30178408D01*
X151608336Y-30178409D01*
X151659856Y-30348248D01*
X151677252Y-30524875D01*
X151659856Y-30701502D01*
X151625509Y-30814728D01*
X151608336Y-30871342D01*
X151534241Y-31009962D01*
X151524671Y-31027866D01*
X151495341Y-31063604D01*
X151412079Y-31165061D01*
X151310622Y-31248323D01*
X151274884Y-31277653D01*
X151274882Y-31277654D01*
X151118360Y-31361318D01*
X151061746Y-31378491D01*
X150948520Y-31412838D01*
X150882335Y-31419357D01*
X150816153Y-31425875D01*
X150727633Y-31425875D01*
X150661451Y-31419357D01*
X150595266Y-31412838D01*
X150482040Y-31378491D01*
X150425426Y-31361318D01*
X150268904Y-31277654D01*
X150268902Y-31277653D01*
X150233164Y-31248323D01*
X150131707Y-31165061D01*
X150048445Y-31063604D01*
X150019115Y-31027866D01*
X150009545Y-31009962D01*
X149935450Y-30871342D01*
X149918277Y-30814728D01*
X149883930Y-30701502D01*
X149866534Y-30524875D01*
X149883930Y-30348248D01*
X149935450Y-30178409D01*
X149935450Y-30178408D01*
X150019114Y-30021886D01*
X150019115Y-30021884D01*
X150048445Y-29986146D01*
X150131707Y-29884689D01*
X150233164Y-29801427D01*
X150268902Y-29772097D01*
X150286806Y-29762527D01*
X150425426Y-29688432D01*
X150482040Y-29671259D01*
X150595266Y-29636912D01*
X150661450Y-29630394D01*
X150727633Y-29623875D01*
X150816153Y-29623875D01*
X150882336Y-29630394D01*
X150882336Y-29630394D01*
G37*
G36*
X155962336Y-29630394D02*
X156028520Y-29636912D01*
X156141746Y-29671259D01*
X156198360Y-29688432D01*
X156336980Y-29762527D01*
X156354884Y-29772097D01*
X156390622Y-29801427D01*
X156492079Y-29884689D01*
X156575341Y-29986146D01*
X156604671Y-30021884D01*
X156604672Y-30021886D01*
X156688336Y-30178408D01*
X156688336Y-30178409D01*
X156739856Y-30348248D01*
X156757252Y-30524875D01*
X156739856Y-30701502D01*
X156705509Y-30814728D01*
X156688336Y-30871342D01*
X156614241Y-31009962D01*
X156604671Y-31027866D01*
X156575341Y-31063604D01*
X156492079Y-31165061D01*
X156390622Y-31248323D01*
X156354884Y-31277653D01*
X156354882Y-31277654D01*
X156198360Y-31361318D01*
X156141746Y-31378491D01*
X156028520Y-31412838D01*
X155962335Y-31419357D01*
X155896153Y-31425875D01*
X155807633Y-31425875D01*
X155741451Y-31419357D01*
X155675266Y-31412838D01*
X155562040Y-31378491D01*
X155505426Y-31361318D01*
X155348904Y-31277654D01*
X155348902Y-31277653D01*
X155313164Y-31248323D01*
X155211707Y-31165061D01*
X155128445Y-31063604D01*
X155099115Y-31027866D01*
X155089545Y-31009962D01*
X155015450Y-30871342D01*
X154998277Y-30814728D01*
X154963930Y-30701502D01*
X154946534Y-30524875D01*
X154963930Y-30348248D01*
X155015450Y-30178409D01*
X155015450Y-30178408D01*
X155099114Y-30021886D01*
X155099115Y-30021884D01*
X155128445Y-29986146D01*
X155211707Y-29884689D01*
X155313164Y-29801427D01*
X155348902Y-29772097D01*
X155366806Y-29762527D01*
X155505426Y-29688432D01*
X155562040Y-29671259D01*
X155675266Y-29636912D01*
X155741450Y-29630394D01*
X155807633Y-29623875D01*
X155896153Y-29623875D01*
X155962336Y-29630394D01*
X155962336Y-29630394D01*
G37*
G36*
X158502336Y-29630394D02*
X158568520Y-29636912D01*
X158681746Y-29671259D01*
X158738360Y-29688432D01*
X158876980Y-29762527D01*
X158894884Y-29772097D01*
X158930622Y-29801427D01*
X159032079Y-29884689D01*
X159115341Y-29986146D01*
X159144671Y-30021884D01*
X159144672Y-30021886D01*
X159228336Y-30178408D01*
X159228336Y-30178409D01*
X159279856Y-30348248D01*
X159297252Y-30524875D01*
X159279856Y-30701502D01*
X159245509Y-30814728D01*
X159228336Y-30871342D01*
X159154241Y-31009962D01*
X159144671Y-31027866D01*
X159115341Y-31063604D01*
X159032079Y-31165061D01*
X158930622Y-31248323D01*
X158894884Y-31277653D01*
X158894882Y-31277654D01*
X158738360Y-31361318D01*
X158681746Y-31378491D01*
X158568520Y-31412838D01*
X158502335Y-31419357D01*
X158436153Y-31425875D01*
X158347633Y-31425875D01*
X158281451Y-31419357D01*
X158215266Y-31412838D01*
X158102040Y-31378491D01*
X158045426Y-31361318D01*
X157888904Y-31277654D01*
X157888902Y-31277653D01*
X157853164Y-31248323D01*
X157751707Y-31165061D01*
X157668445Y-31063604D01*
X157639115Y-31027866D01*
X157629545Y-31009962D01*
X157555450Y-30871342D01*
X157538277Y-30814728D01*
X157503930Y-30701502D01*
X157486534Y-30524875D01*
X157503930Y-30348248D01*
X157555450Y-30178409D01*
X157555450Y-30178408D01*
X157639114Y-30021886D01*
X157639115Y-30021884D01*
X157668445Y-29986146D01*
X157751707Y-29884689D01*
X157853164Y-29801427D01*
X157888902Y-29772097D01*
X157906806Y-29762527D01*
X158045426Y-29688432D01*
X158102040Y-29671259D01*
X158215266Y-29636912D01*
X158281450Y-29630394D01*
X158347633Y-29623875D01*
X158436153Y-29623875D01*
X158502336Y-29630394D01*
X158502336Y-29630394D01*
G37*
G36*
X173742336Y-29630394D02*
X173808520Y-29636912D01*
X173921746Y-29671259D01*
X173978360Y-29688432D01*
X174116980Y-29762527D01*
X174134884Y-29772097D01*
X174170622Y-29801427D01*
X174272079Y-29884689D01*
X174355341Y-29986146D01*
X174384671Y-30021884D01*
X174384672Y-30021886D01*
X174468336Y-30178408D01*
X174468336Y-30178409D01*
X174519856Y-30348248D01*
X174537252Y-30524875D01*
X174519856Y-30701502D01*
X174485509Y-30814728D01*
X174468336Y-30871342D01*
X174394241Y-31009962D01*
X174384671Y-31027866D01*
X174355341Y-31063604D01*
X174272079Y-31165061D01*
X174170622Y-31248323D01*
X174134884Y-31277653D01*
X174134882Y-31277654D01*
X173978360Y-31361318D01*
X173921746Y-31378491D01*
X173808520Y-31412838D01*
X173742335Y-31419357D01*
X173676153Y-31425875D01*
X173587633Y-31425875D01*
X173521451Y-31419357D01*
X173455266Y-31412838D01*
X173342040Y-31378491D01*
X173285426Y-31361318D01*
X173128904Y-31277654D01*
X173128902Y-31277653D01*
X173093164Y-31248323D01*
X172991707Y-31165061D01*
X172908445Y-31063604D01*
X172879115Y-31027866D01*
X172869545Y-31009962D01*
X172795450Y-30871342D01*
X172778277Y-30814728D01*
X172743930Y-30701502D01*
X172726534Y-30524875D01*
X172743930Y-30348248D01*
X172795450Y-30178409D01*
X172795450Y-30178408D01*
X172879114Y-30021886D01*
X172879115Y-30021884D01*
X172908445Y-29986146D01*
X172991707Y-29884689D01*
X173093164Y-29801427D01*
X173128902Y-29772097D01*
X173146806Y-29762527D01*
X173285426Y-29688432D01*
X173342040Y-29671259D01*
X173455266Y-29636912D01*
X173521450Y-29630394D01*
X173587633Y-29623875D01*
X173676153Y-29623875D01*
X173742336Y-29630394D01*
X173742336Y-29630394D01*
G37*
G36*
X177072893Y-31425875D02*
X175270893Y-31425875D01*
X175270893Y-29623875D01*
X177072893Y-29623875D01*
X177072893Y-31425875D01*
X177072893Y-31425875D01*
G37*
G36*
X171202336Y-29630394D02*
X171268520Y-29636912D01*
X171381746Y-29671259D01*
X171438360Y-29688432D01*
X171576980Y-29762527D01*
X171594884Y-29772097D01*
X171630622Y-29801427D01*
X171732079Y-29884689D01*
X171815341Y-29986146D01*
X171844671Y-30021884D01*
X171844672Y-30021886D01*
X171928336Y-30178408D01*
X171928336Y-30178409D01*
X171979856Y-30348248D01*
X171997252Y-30524875D01*
X171979856Y-30701502D01*
X171945509Y-30814728D01*
X171928336Y-30871342D01*
X171854241Y-31009962D01*
X171844671Y-31027866D01*
X171815341Y-31063604D01*
X171732079Y-31165061D01*
X171630622Y-31248323D01*
X171594884Y-31277653D01*
X171594882Y-31277654D01*
X171438360Y-31361318D01*
X171381746Y-31378491D01*
X171268520Y-31412838D01*
X171202335Y-31419357D01*
X171136153Y-31425875D01*
X171047633Y-31425875D01*
X170981451Y-31419357D01*
X170915266Y-31412838D01*
X170802040Y-31378491D01*
X170745426Y-31361318D01*
X170588904Y-31277654D01*
X170588902Y-31277653D01*
X170553164Y-31248323D01*
X170451707Y-31165061D01*
X170368445Y-31063604D01*
X170339115Y-31027866D01*
X170329545Y-31009962D01*
X170255450Y-30871342D01*
X170238277Y-30814728D01*
X170203930Y-30701502D01*
X170186534Y-30524875D01*
X170203930Y-30348248D01*
X170255450Y-30178409D01*
X170255450Y-30178408D01*
X170339114Y-30021886D01*
X170339115Y-30021884D01*
X170368445Y-29986146D01*
X170451707Y-29884689D01*
X170553164Y-29801427D01*
X170588902Y-29772097D01*
X170606806Y-29762527D01*
X170745426Y-29688432D01*
X170802040Y-29671259D01*
X170915266Y-29636912D01*
X170981450Y-29630394D01*
X171047633Y-29623875D01*
X171136153Y-29623875D01*
X171202336Y-29630394D01*
X171202336Y-29630394D01*
G37*
G36*
X168662336Y-29630394D02*
X168728520Y-29636912D01*
X168841746Y-29671259D01*
X168898360Y-29688432D01*
X169036980Y-29762527D01*
X169054884Y-29772097D01*
X169090622Y-29801427D01*
X169192079Y-29884689D01*
X169275341Y-29986146D01*
X169304671Y-30021884D01*
X169304672Y-30021886D01*
X169388336Y-30178408D01*
X169388336Y-30178409D01*
X169439856Y-30348248D01*
X169457252Y-30524875D01*
X169439856Y-30701502D01*
X169405509Y-30814728D01*
X169388336Y-30871342D01*
X169314241Y-31009962D01*
X169304671Y-31027866D01*
X169275341Y-31063604D01*
X169192079Y-31165061D01*
X169090622Y-31248323D01*
X169054884Y-31277653D01*
X169054882Y-31277654D01*
X168898360Y-31361318D01*
X168841746Y-31378491D01*
X168728520Y-31412838D01*
X168662335Y-31419357D01*
X168596153Y-31425875D01*
X168507633Y-31425875D01*
X168441451Y-31419357D01*
X168375266Y-31412838D01*
X168262040Y-31378491D01*
X168205426Y-31361318D01*
X168048904Y-31277654D01*
X168048902Y-31277653D01*
X168013164Y-31248323D01*
X167911707Y-31165061D01*
X167828445Y-31063604D01*
X167799115Y-31027866D01*
X167789545Y-31009962D01*
X167715450Y-30871342D01*
X167698277Y-30814728D01*
X167663930Y-30701502D01*
X167646534Y-30524875D01*
X167663930Y-30348248D01*
X167715450Y-30178409D01*
X167715450Y-30178408D01*
X167799114Y-30021886D01*
X167799115Y-30021884D01*
X167828445Y-29986146D01*
X167911707Y-29884689D01*
X168013164Y-29801427D01*
X168048902Y-29772097D01*
X168066806Y-29762527D01*
X168205426Y-29688432D01*
X168262040Y-29671259D01*
X168375266Y-29636912D01*
X168441450Y-29630394D01*
X168507633Y-29623875D01*
X168596153Y-29623875D01*
X168662336Y-29630394D01*
X168662336Y-29630394D01*
G37*
G36*
X166122336Y-29630394D02*
X166188520Y-29636912D01*
X166301746Y-29671259D01*
X166358360Y-29688432D01*
X166496980Y-29762527D01*
X166514884Y-29772097D01*
X166550622Y-29801427D01*
X166652079Y-29884689D01*
X166735341Y-29986146D01*
X166764671Y-30021884D01*
X166764672Y-30021886D01*
X166848336Y-30178408D01*
X166848336Y-30178409D01*
X166899856Y-30348248D01*
X166917252Y-30524875D01*
X166899856Y-30701502D01*
X166865509Y-30814728D01*
X166848336Y-30871342D01*
X166774241Y-31009962D01*
X166764671Y-31027866D01*
X166735341Y-31063604D01*
X166652079Y-31165061D01*
X166550622Y-31248323D01*
X166514884Y-31277653D01*
X166514882Y-31277654D01*
X166358360Y-31361318D01*
X166301746Y-31378491D01*
X166188520Y-31412838D01*
X166122335Y-31419357D01*
X166056153Y-31425875D01*
X165967633Y-31425875D01*
X165901451Y-31419357D01*
X165835266Y-31412838D01*
X165722040Y-31378491D01*
X165665426Y-31361318D01*
X165508904Y-31277654D01*
X165508902Y-31277653D01*
X165473164Y-31248323D01*
X165371707Y-31165061D01*
X165288445Y-31063604D01*
X165259115Y-31027866D01*
X165249545Y-31009962D01*
X165175450Y-30871342D01*
X165158277Y-30814728D01*
X165123930Y-30701502D01*
X165106534Y-30524875D01*
X165123930Y-30348248D01*
X165175450Y-30178409D01*
X165175450Y-30178408D01*
X165259114Y-30021886D01*
X165259115Y-30021884D01*
X165288445Y-29986146D01*
X165371707Y-29884689D01*
X165473164Y-29801427D01*
X165508902Y-29772097D01*
X165526806Y-29762527D01*
X165665426Y-29688432D01*
X165722040Y-29671259D01*
X165835266Y-29636912D01*
X165901450Y-29630394D01*
X165967633Y-29623875D01*
X166056153Y-29623875D01*
X166122336Y-29630394D01*
X166122336Y-29630394D01*
G37*
G36*
X163582336Y-29630394D02*
X163648520Y-29636912D01*
X163761746Y-29671259D01*
X163818360Y-29688432D01*
X163956980Y-29762527D01*
X163974884Y-29772097D01*
X164010622Y-29801427D01*
X164112079Y-29884689D01*
X164195341Y-29986146D01*
X164224671Y-30021884D01*
X164224672Y-30021886D01*
X164308336Y-30178408D01*
X164308336Y-30178409D01*
X164359856Y-30348248D01*
X164377252Y-30524875D01*
X164359856Y-30701502D01*
X164325509Y-30814728D01*
X164308336Y-30871342D01*
X164234241Y-31009962D01*
X164224671Y-31027866D01*
X164195341Y-31063604D01*
X164112079Y-31165061D01*
X164010622Y-31248323D01*
X163974884Y-31277653D01*
X163974882Y-31277654D01*
X163818360Y-31361318D01*
X163761746Y-31378491D01*
X163648520Y-31412838D01*
X163582335Y-31419357D01*
X163516153Y-31425875D01*
X163427633Y-31425875D01*
X163361451Y-31419357D01*
X163295266Y-31412838D01*
X163182040Y-31378491D01*
X163125426Y-31361318D01*
X162968904Y-31277654D01*
X162968902Y-31277653D01*
X162933164Y-31248323D01*
X162831707Y-31165061D01*
X162748445Y-31063604D01*
X162719115Y-31027866D01*
X162709545Y-31009962D01*
X162635450Y-30871342D01*
X162618277Y-30814728D01*
X162583930Y-30701502D01*
X162566534Y-30524875D01*
X162583930Y-30348248D01*
X162635450Y-30178409D01*
X162635450Y-30178408D01*
X162719114Y-30021886D01*
X162719115Y-30021884D01*
X162748445Y-29986146D01*
X162831707Y-29884689D01*
X162933164Y-29801427D01*
X162968902Y-29772097D01*
X162986806Y-29762527D01*
X163125426Y-29688432D01*
X163182040Y-29671259D01*
X163295266Y-29636912D01*
X163361450Y-29630394D01*
X163427633Y-29623875D01*
X163516153Y-29623875D01*
X163582336Y-29630394D01*
X163582336Y-29630394D01*
G37*
G36*
X161042336Y-29630394D02*
X161108520Y-29636912D01*
X161221746Y-29671259D01*
X161278360Y-29688432D01*
X161416980Y-29762527D01*
X161434884Y-29772097D01*
X161470622Y-29801427D01*
X161572079Y-29884689D01*
X161655341Y-29986146D01*
X161684671Y-30021884D01*
X161684672Y-30021886D01*
X161768336Y-30178408D01*
X161768336Y-30178409D01*
X161819856Y-30348248D01*
X161837252Y-30524875D01*
X161819856Y-30701502D01*
X161785509Y-30814728D01*
X161768336Y-30871342D01*
X161694241Y-31009962D01*
X161684671Y-31027866D01*
X161655341Y-31063604D01*
X161572079Y-31165061D01*
X161470622Y-31248323D01*
X161434884Y-31277653D01*
X161434882Y-31277654D01*
X161278360Y-31361318D01*
X161221746Y-31378491D01*
X161108520Y-31412838D01*
X161042335Y-31419357D01*
X160976153Y-31425875D01*
X160887633Y-31425875D01*
X160821451Y-31419357D01*
X160755266Y-31412838D01*
X160642040Y-31378491D01*
X160585426Y-31361318D01*
X160428904Y-31277654D01*
X160428902Y-31277653D01*
X160393164Y-31248323D01*
X160291707Y-31165061D01*
X160208445Y-31063604D01*
X160179115Y-31027866D01*
X160169545Y-31009962D01*
X160095450Y-30871342D01*
X160078277Y-30814728D01*
X160043930Y-30701502D01*
X160026534Y-30524875D01*
X160043930Y-30348248D01*
X160095450Y-30178409D01*
X160095450Y-30178408D01*
X160179114Y-30021886D01*
X160179115Y-30021884D01*
X160208445Y-29986146D01*
X160291707Y-29884689D01*
X160393164Y-29801427D01*
X160428902Y-29772097D01*
X160446806Y-29762527D01*
X160585426Y-29688432D01*
X160642040Y-29671259D01*
X160755266Y-29636912D01*
X160821450Y-29630394D01*
X160887633Y-29623875D01*
X160976153Y-29623875D01*
X161042336Y-29630394D01*
X161042336Y-29630394D01*
G37*
G36*
X153422336Y-29630394D02*
X153488520Y-29636912D01*
X153601746Y-29671259D01*
X153658360Y-29688432D01*
X153796980Y-29762527D01*
X153814884Y-29772097D01*
X153850622Y-29801427D01*
X153952079Y-29884689D01*
X154035341Y-29986146D01*
X154064671Y-30021884D01*
X154064672Y-30021886D01*
X154148336Y-30178408D01*
X154148336Y-30178409D01*
X154199856Y-30348248D01*
X154217252Y-30524875D01*
X154199856Y-30701502D01*
X154165509Y-30814728D01*
X154148336Y-30871342D01*
X154074241Y-31009962D01*
X154064671Y-31027866D01*
X154035341Y-31063604D01*
X153952079Y-31165061D01*
X153850622Y-31248323D01*
X153814884Y-31277653D01*
X153814882Y-31277654D01*
X153658360Y-31361318D01*
X153601746Y-31378491D01*
X153488520Y-31412838D01*
X153422335Y-31419357D01*
X153356153Y-31425875D01*
X153267633Y-31425875D01*
X153201451Y-31419357D01*
X153135266Y-31412838D01*
X153022040Y-31378491D01*
X152965426Y-31361318D01*
X152808904Y-31277654D01*
X152808902Y-31277653D01*
X152773164Y-31248323D01*
X152671707Y-31165061D01*
X152588445Y-31063604D01*
X152559115Y-31027866D01*
X152549545Y-31009962D01*
X152475450Y-30871342D01*
X152458277Y-30814728D01*
X152423930Y-30701502D01*
X152406534Y-30524875D01*
X152423930Y-30348248D01*
X152475450Y-30178409D01*
X152475450Y-30178408D01*
X152559114Y-30021886D01*
X152559115Y-30021884D01*
X152588445Y-29986146D01*
X152671707Y-29884689D01*
X152773164Y-29801427D01*
X152808902Y-29772097D01*
X152826806Y-29762527D01*
X152965426Y-29688432D01*
X153022040Y-29671259D01*
X153135266Y-29636912D01*
X153201450Y-29630394D01*
X153267633Y-29623875D01*
X153356153Y-29623875D01*
X153422336Y-29630394D01*
X153422336Y-29630394D01*
G37*
G36*
X178926442Y-22727518D02*
X178992627Y-22734037D01*
X179105853Y-22768384D01*
X179162467Y-22785557D01*
X179301087Y-22859652D01*
X179318991Y-22869222D01*
X179332186Y-22880051D01*
X179456186Y-22981814D01*
X179526685Y-23067719D01*
X179568778Y-23119009D01*
X179568779Y-23119011D01*
X179652443Y-23275533D01*
X179652443Y-23275534D01*
X179703963Y-23445373D01*
X179721359Y-23622000D01*
X179703963Y-23798627D01*
X179677904Y-23884531D01*
X179652443Y-23968467D01*
X179623173Y-24023226D01*
X179568778Y-24124991D01*
X179552073Y-24145346D01*
X179456186Y-24262186D01*
X179354729Y-24345448D01*
X179318991Y-24374778D01*
X179318989Y-24374779D01*
X179162467Y-24458443D01*
X179105853Y-24475616D01*
X178992627Y-24509963D01*
X178926442Y-24516482D01*
X178860260Y-24523000D01*
X178771740Y-24523000D01*
X178705558Y-24516482D01*
X178639373Y-24509963D01*
X178526147Y-24475616D01*
X178469533Y-24458443D01*
X178313011Y-24374779D01*
X178313009Y-24374778D01*
X178277271Y-24345448D01*
X178175814Y-24262186D01*
X178079927Y-24145346D01*
X178063222Y-24124991D01*
X178008827Y-24023226D01*
X177979557Y-23968467D01*
X177954096Y-23884531D01*
X177928037Y-23798627D01*
X177910641Y-23622000D01*
X177928037Y-23445373D01*
X177979557Y-23275534D01*
X177979557Y-23275533D01*
X178063221Y-23119011D01*
X178063222Y-23119009D01*
X178105315Y-23067719D01*
X178175814Y-22981814D01*
X178299814Y-22880051D01*
X178313009Y-22869222D01*
X178330913Y-22859652D01*
X178469533Y-22785557D01*
X178526147Y-22768384D01*
X178639373Y-22734037D01*
X178705557Y-22727519D01*
X178771740Y-22721000D01*
X178860260Y-22721000D01*
X178926442Y-22727518D01*
X178926442Y-22727518D01*
G37*
G36*
X189086442Y-22727518D02*
X189152627Y-22734037D01*
X189265853Y-22768384D01*
X189322467Y-22785557D01*
X189461087Y-22859652D01*
X189478991Y-22869222D01*
X189492186Y-22880051D01*
X189616186Y-22981814D01*
X189686685Y-23067719D01*
X189728778Y-23119009D01*
X189728779Y-23119011D01*
X189812443Y-23275533D01*
X189812443Y-23275534D01*
X189863963Y-23445373D01*
X189881359Y-23622000D01*
X189863963Y-23798627D01*
X189837904Y-23884531D01*
X189812443Y-23968467D01*
X189783173Y-24023226D01*
X189728778Y-24124991D01*
X189712073Y-24145346D01*
X189616186Y-24262186D01*
X189514729Y-24345448D01*
X189478991Y-24374778D01*
X189478989Y-24374779D01*
X189322467Y-24458443D01*
X189265853Y-24475616D01*
X189152627Y-24509963D01*
X189086442Y-24516482D01*
X189020260Y-24523000D01*
X188931740Y-24523000D01*
X188865558Y-24516482D01*
X188799373Y-24509963D01*
X188686147Y-24475616D01*
X188629533Y-24458443D01*
X188473011Y-24374779D01*
X188473009Y-24374778D01*
X188437271Y-24345448D01*
X188335814Y-24262186D01*
X188239927Y-24145346D01*
X188223222Y-24124991D01*
X188168827Y-24023226D01*
X188139557Y-23968467D01*
X188114096Y-23884531D01*
X188088037Y-23798627D01*
X188070641Y-23622000D01*
X188088037Y-23445373D01*
X188139557Y-23275534D01*
X188139557Y-23275533D01*
X188223221Y-23119011D01*
X188223222Y-23119009D01*
X188265315Y-23067719D01*
X188335814Y-22981814D01*
X188459814Y-22880051D01*
X188473009Y-22869222D01*
X188490913Y-22859652D01*
X188629533Y-22785557D01*
X188686147Y-22768384D01*
X188799373Y-22734037D01*
X188865557Y-22727519D01*
X188931740Y-22721000D01*
X189020260Y-22721000D01*
X189086442Y-22727518D01*
X189086442Y-22727518D01*
G37*
G36*
X186546442Y-22727518D02*
X186612627Y-22734037D01*
X186725853Y-22768384D01*
X186782467Y-22785557D01*
X186921087Y-22859652D01*
X186938991Y-22869222D01*
X186952186Y-22880051D01*
X187076186Y-22981814D01*
X187146685Y-23067719D01*
X187188778Y-23119009D01*
X187188779Y-23119011D01*
X187272443Y-23275533D01*
X187272443Y-23275534D01*
X187323963Y-23445373D01*
X187341359Y-23622000D01*
X187323963Y-23798627D01*
X187297904Y-23884531D01*
X187272443Y-23968467D01*
X187243173Y-24023226D01*
X187188778Y-24124991D01*
X187172073Y-24145346D01*
X187076186Y-24262186D01*
X186974729Y-24345448D01*
X186938991Y-24374778D01*
X186938989Y-24374779D01*
X186782467Y-24458443D01*
X186725853Y-24475616D01*
X186612627Y-24509963D01*
X186546442Y-24516482D01*
X186480260Y-24523000D01*
X186391740Y-24523000D01*
X186325558Y-24516482D01*
X186259373Y-24509963D01*
X186146147Y-24475616D01*
X186089533Y-24458443D01*
X185933011Y-24374779D01*
X185933009Y-24374778D01*
X185897271Y-24345448D01*
X185795814Y-24262186D01*
X185699927Y-24145346D01*
X185683222Y-24124991D01*
X185628827Y-24023226D01*
X185599557Y-23968467D01*
X185574096Y-23884531D01*
X185548037Y-23798627D01*
X185530641Y-23622000D01*
X185548037Y-23445373D01*
X185599557Y-23275534D01*
X185599557Y-23275533D01*
X185683221Y-23119011D01*
X185683222Y-23119009D01*
X185725315Y-23067719D01*
X185795814Y-22981814D01*
X185919814Y-22880051D01*
X185933009Y-22869222D01*
X185950913Y-22859652D01*
X186089533Y-22785557D01*
X186146147Y-22768384D01*
X186259373Y-22734037D01*
X186325557Y-22727519D01*
X186391740Y-22721000D01*
X186480260Y-22721000D01*
X186546442Y-22727518D01*
X186546442Y-22727518D01*
G37*
G36*
X184006442Y-22727518D02*
X184072627Y-22734037D01*
X184185853Y-22768384D01*
X184242467Y-22785557D01*
X184381087Y-22859652D01*
X184398991Y-22869222D01*
X184412186Y-22880051D01*
X184536186Y-22981814D01*
X184606685Y-23067719D01*
X184648778Y-23119009D01*
X184648779Y-23119011D01*
X184732443Y-23275533D01*
X184732443Y-23275534D01*
X184783963Y-23445373D01*
X184801359Y-23622000D01*
X184783963Y-23798627D01*
X184757904Y-23884531D01*
X184732443Y-23968467D01*
X184703173Y-24023226D01*
X184648778Y-24124991D01*
X184632073Y-24145346D01*
X184536186Y-24262186D01*
X184434729Y-24345448D01*
X184398991Y-24374778D01*
X184398989Y-24374779D01*
X184242467Y-24458443D01*
X184185853Y-24475616D01*
X184072627Y-24509963D01*
X184006442Y-24516482D01*
X183940260Y-24523000D01*
X183851740Y-24523000D01*
X183785558Y-24516482D01*
X183719373Y-24509963D01*
X183606147Y-24475616D01*
X183549533Y-24458443D01*
X183393011Y-24374779D01*
X183393009Y-24374778D01*
X183357271Y-24345448D01*
X183255814Y-24262186D01*
X183159927Y-24145346D01*
X183143222Y-24124991D01*
X183088827Y-24023226D01*
X183059557Y-23968467D01*
X183034096Y-23884531D01*
X183008037Y-23798627D01*
X182990641Y-23622000D01*
X183008037Y-23445373D01*
X183059557Y-23275534D01*
X183059557Y-23275533D01*
X183143221Y-23119011D01*
X183143222Y-23119009D01*
X183185315Y-23067719D01*
X183255814Y-22981814D01*
X183379814Y-22880051D01*
X183393009Y-22869222D01*
X183410913Y-22859652D01*
X183549533Y-22785557D01*
X183606147Y-22768384D01*
X183719373Y-22734037D01*
X183785557Y-22727519D01*
X183851740Y-22721000D01*
X183940260Y-22721000D01*
X184006442Y-22727518D01*
X184006442Y-22727518D01*
G37*
G36*
X181466442Y-22727518D02*
X181532627Y-22734037D01*
X181645853Y-22768384D01*
X181702467Y-22785557D01*
X181841087Y-22859652D01*
X181858991Y-22869222D01*
X181872186Y-22880051D01*
X181996186Y-22981814D01*
X182066685Y-23067719D01*
X182108778Y-23119009D01*
X182108779Y-23119011D01*
X182192443Y-23275533D01*
X182192443Y-23275534D01*
X182243963Y-23445373D01*
X182261359Y-23622000D01*
X182243963Y-23798627D01*
X182217904Y-23884531D01*
X182192443Y-23968467D01*
X182163173Y-24023226D01*
X182108778Y-24124991D01*
X182092073Y-24145346D01*
X181996186Y-24262186D01*
X181894729Y-24345448D01*
X181858991Y-24374778D01*
X181858989Y-24374779D01*
X181702467Y-24458443D01*
X181645853Y-24475616D01*
X181532627Y-24509963D01*
X181466442Y-24516482D01*
X181400260Y-24523000D01*
X181311740Y-24523000D01*
X181245558Y-24516482D01*
X181179373Y-24509963D01*
X181066147Y-24475616D01*
X181009533Y-24458443D01*
X180853011Y-24374779D01*
X180853009Y-24374778D01*
X180817271Y-24345448D01*
X180715814Y-24262186D01*
X180619927Y-24145346D01*
X180603222Y-24124991D01*
X180548827Y-24023226D01*
X180519557Y-23968467D01*
X180494096Y-23884531D01*
X180468037Y-23798627D01*
X180450641Y-23622000D01*
X180468037Y-23445373D01*
X180519557Y-23275534D01*
X180519557Y-23275533D01*
X180603221Y-23119011D01*
X180603222Y-23119009D01*
X180645315Y-23067719D01*
X180715814Y-22981814D01*
X180839814Y-22880051D01*
X180853009Y-22869222D01*
X180870913Y-22859652D01*
X181009533Y-22785557D01*
X181066147Y-22768384D01*
X181179373Y-22734037D01*
X181245557Y-22727519D01*
X181311740Y-22721000D01*
X181400260Y-22721000D01*
X181466442Y-22727518D01*
X181466442Y-22727518D01*
G37*
G36*
X177177000Y-24523000D02*
X175375000Y-24523000D01*
X175375000Y-22721000D01*
X177177000Y-22721000D01*
X177177000Y-24523000D01*
X177177000Y-24523000D01*
G37*
G36*
X166122336Y-22488559D02*
X166188520Y-22495077D01*
X166301746Y-22529424D01*
X166358360Y-22546597D01*
X166466051Y-22604160D01*
X166514884Y-22630262D01*
X166550622Y-22659592D01*
X166652079Y-22742854D01*
X166735341Y-22844311D01*
X166764671Y-22880049D01*
X166764672Y-22880051D01*
X166848336Y-23036573D01*
X166848336Y-23036574D01*
X166899856Y-23206413D01*
X166917252Y-23383040D01*
X166899856Y-23559667D01*
X166865509Y-23672893D01*
X166848336Y-23729507D01*
X166811391Y-23798625D01*
X166764671Y-23886031D01*
X166735341Y-23921769D01*
X166652079Y-24023226D01*
X166581937Y-24080789D01*
X166514884Y-24135818D01*
X166514882Y-24135819D01*
X166358360Y-24219483D01*
X166301746Y-24236656D01*
X166188520Y-24271003D01*
X166122336Y-24277521D01*
X166056153Y-24284040D01*
X165967633Y-24284040D01*
X165901451Y-24277522D01*
X165835266Y-24271003D01*
X165722040Y-24236656D01*
X165665426Y-24219483D01*
X165508904Y-24135819D01*
X165508902Y-24135818D01*
X165441849Y-24080789D01*
X165371707Y-24023226D01*
X165288445Y-23921769D01*
X165259115Y-23886031D01*
X165212395Y-23798625D01*
X165175450Y-23729507D01*
X165158277Y-23672893D01*
X165123930Y-23559667D01*
X165106534Y-23383040D01*
X165123930Y-23206413D01*
X165175450Y-23036574D01*
X165175450Y-23036573D01*
X165259114Y-22880051D01*
X165259115Y-22880049D01*
X165288445Y-22844311D01*
X165371707Y-22742854D01*
X165473164Y-22659592D01*
X165508902Y-22630262D01*
X165557735Y-22604160D01*
X165665426Y-22546597D01*
X165722040Y-22529424D01*
X165835266Y-22495077D01*
X165901451Y-22488558D01*
X165967633Y-22482040D01*
X166056153Y-22482040D01*
X166122336Y-22488559D01*
X166122336Y-22488559D01*
G37*
G36*
X171992893Y-24284040D02*
X170190893Y-24284040D01*
X170190893Y-22482040D01*
X171992893Y-22482040D01*
X171992893Y-24284040D01*
X171992893Y-24284040D01*
G37*
G36*
X168662336Y-22488559D02*
X168728520Y-22495077D01*
X168841746Y-22529424D01*
X168898360Y-22546597D01*
X169006051Y-22604160D01*
X169054884Y-22630262D01*
X169090622Y-22659592D01*
X169192079Y-22742854D01*
X169275341Y-22844311D01*
X169304671Y-22880049D01*
X169304672Y-22880051D01*
X169388336Y-23036573D01*
X169388336Y-23036574D01*
X169439856Y-23206413D01*
X169457252Y-23383040D01*
X169439856Y-23559667D01*
X169405509Y-23672893D01*
X169388336Y-23729507D01*
X169351391Y-23798625D01*
X169304671Y-23886031D01*
X169275341Y-23921769D01*
X169192079Y-24023226D01*
X169121937Y-24080789D01*
X169054884Y-24135818D01*
X169054882Y-24135819D01*
X168898360Y-24219483D01*
X168841746Y-24236656D01*
X168728520Y-24271003D01*
X168662336Y-24277521D01*
X168596153Y-24284040D01*
X168507633Y-24284040D01*
X168441451Y-24277522D01*
X168375266Y-24271003D01*
X168262040Y-24236656D01*
X168205426Y-24219483D01*
X168048904Y-24135819D01*
X168048902Y-24135818D01*
X167981849Y-24080789D01*
X167911707Y-24023226D01*
X167828445Y-23921769D01*
X167799115Y-23886031D01*
X167752395Y-23798625D01*
X167715450Y-23729507D01*
X167698277Y-23672893D01*
X167663930Y-23559667D01*
X167646534Y-23383040D01*
X167663930Y-23206413D01*
X167715450Y-23036574D01*
X167715450Y-23036573D01*
X167799114Y-22880051D01*
X167799115Y-22880049D01*
X167828445Y-22844311D01*
X167911707Y-22742854D01*
X168013164Y-22659592D01*
X168048902Y-22630262D01*
X168097735Y-22604160D01*
X168205426Y-22546597D01*
X168262040Y-22529424D01*
X168375266Y-22495077D01*
X168441451Y-22488558D01*
X168507633Y-22482040D01*
X168596153Y-22482040D01*
X168662336Y-22488559D01*
X168662336Y-22488559D01*
G37*
G36*
X163582336Y-22488559D02*
X163648520Y-22495077D01*
X163761746Y-22529424D01*
X163818360Y-22546597D01*
X163926051Y-22604160D01*
X163974884Y-22630262D01*
X164010622Y-22659592D01*
X164112079Y-22742854D01*
X164195341Y-22844311D01*
X164224671Y-22880049D01*
X164224672Y-22880051D01*
X164308336Y-23036573D01*
X164308336Y-23036574D01*
X164359856Y-23206413D01*
X164377252Y-23383040D01*
X164359856Y-23559667D01*
X164325509Y-23672893D01*
X164308336Y-23729507D01*
X164271391Y-23798625D01*
X164224671Y-23886031D01*
X164195341Y-23921769D01*
X164112079Y-24023226D01*
X164041937Y-24080789D01*
X163974884Y-24135818D01*
X163974882Y-24135819D01*
X163818360Y-24219483D01*
X163761746Y-24236656D01*
X163648520Y-24271003D01*
X163582336Y-24277521D01*
X163516153Y-24284040D01*
X163427633Y-24284040D01*
X163361451Y-24277522D01*
X163295266Y-24271003D01*
X163182040Y-24236656D01*
X163125426Y-24219483D01*
X162968904Y-24135819D01*
X162968902Y-24135818D01*
X162901849Y-24080789D01*
X162831707Y-24023226D01*
X162748445Y-23921769D01*
X162719115Y-23886031D01*
X162672395Y-23798625D01*
X162635450Y-23729507D01*
X162618277Y-23672893D01*
X162583930Y-23559667D01*
X162566534Y-23383040D01*
X162583930Y-23206413D01*
X162635450Y-23036574D01*
X162635450Y-23036573D01*
X162719114Y-22880051D01*
X162719115Y-22880049D01*
X162748445Y-22844311D01*
X162831707Y-22742854D01*
X162933164Y-22659592D01*
X162968902Y-22630262D01*
X163017735Y-22604160D01*
X163125426Y-22546597D01*
X163182040Y-22529424D01*
X163295266Y-22495077D01*
X163361451Y-22488558D01*
X163427633Y-22482040D01*
X163516153Y-22482040D01*
X163582336Y-22488559D01*
X163582336Y-22488559D01*
G37*
G36*
X148400958Y-22349864D02*
X148467143Y-22356383D01*
X148580369Y-22390730D01*
X148636983Y-22407903D01*
X148775603Y-22481998D01*
X148793507Y-22491568D01*
X148829245Y-22520898D01*
X148930702Y-22604160D01*
X149013964Y-22705617D01*
X149043294Y-22741355D01*
X149043295Y-22741357D01*
X149126959Y-22897879D01*
X149126959Y-22897880D01*
X149178479Y-23067719D01*
X149195875Y-23244346D01*
X149178479Y-23420973D01*
X149144132Y-23534199D01*
X149126959Y-23590813D01*
X149110289Y-23622000D01*
X149043294Y-23747337D01*
X149013964Y-23783075D01*
X148930702Y-23884532D01*
X148829245Y-23967794D01*
X148793507Y-23997124D01*
X148793505Y-23997125D01*
X148636983Y-24080789D01*
X148580369Y-24097962D01*
X148467143Y-24132309D01*
X148400958Y-24138828D01*
X148334776Y-24145346D01*
X148246256Y-24145346D01*
X148180073Y-24138827D01*
X148113889Y-24132309D01*
X148000663Y-24097962D01*
X147944049Y-24080789D01*
X147787527Y-23997125D01*
X147787525Y-23997124D01*
X147751787Y-23967794D01*
X147650330Y-23884532D01*
X147567068Y-23783075D01*
X147537738Y-23747337D01*
X147470743Y-23622000D01*
X147454073Y-23590813D01*
X147436900Y-23534199D01*
X147402553Y-23420973D01*
X147385157Y-23244346D01*
X147402553Y-23067719D01*
X147454073Y-22897880D01*
X147454073Y-22897879D01*
X147537737Y-22741357D01*
X147537738Y-22741355D01*
X147567068Y-22705617D01*
X147650330Y-22604160D01*
X147751787Y-22520898D01*
X147787525Y-22491568D01*
X147805429Y-22481998D01*
X147944049Y-22407903D01*
X148000663Y-22390730D01*
X148113889Y-22356383D01*
X148180074Y-22349864D01*
X148246256Y-22343346D01*
X148334776Y-22343346D01*
X148400958Y-22349864D01*
X148400958Y-22349864D01*
G37*
G36*
X146651516Y-24145346D02*
X144849516Y-24145346D01*
X144849516Y-22343346D01*
X146651516Y-22343346D01*
X146651516Y-24145346D01*
X146651516Y-24145346D01*
G37*
G36*
X150940958Y-22349864D02*
X151007143Y-22356383D01*
X151120369Y-22390730D01*
X151176983Y-22407903D01*
X151315603Y-22481998D01*
X151333507Y-22491568D01*
X151369245Y-22520898D01*
X151470702Y-22604160D01*
X151553964Y-22705617D01*
X151583294Y-22741355D01*
X151583295Y-22741357D01*
X151666959Y-22897879D01*
X151666959Y-22897880D01*
X151718479Y-23067719D01*
X151735875Y-23244346D01*
X151718479Y-23420973D01*
X151684132Y-23534199D01*
X151666959Y-23590813D01*
X151650289Y-23622000D01*
X151583294Y-23747337D01*
X151553964Y-23783075D01*
X151470702Y-23884532D01*
X151369245Y-23967794D01*
X151333507Y-23997124D01*
X151333505Y-23997125D01*
X151176983Y-24080789D01*
X151120369Y-24097962D01*
X151007143Y-24132309D01*
X150940958Y-24138828D01*
X150874776Y-24145346D01*
X150786256Y-24145346D01*
X150720073Y-24138827D01*
X150653889Y-24132309D01*
X150540663Y-24097962D01*
X150484049Y-24080789D01*
X150327527Y-23997125D01*
X150327525Y-23997124D01*
X150291787Y-23967794D01*
X150190330Y-23884532D01*
X150107068Y-23783075D01*
X150077738Y-23747337D01*
X150010743Y-23622000D01*
X149994073Y-23590813D01*
X149976900Y-23534199D01*
X149942553Y-23420973D01*
X149925157Y-23244346D01*
X149942553Y-23067719D01*
X149994073Y-22897880D01*
X149994073Y-22897879D01*
X150077737Y-22741357D01*
X150077738Y-22741355D01*
X150107068Y-22705617D01*
X150190330Y-22604160D01*
X150291787Y-22520898D01*
X150327525Y-22491568D01*
X150345429Y-22481998D01*
X150484049Y-22407903D01*
X150540663Y-22390730D01*
X150653889Y-22356383D01*
X150720074Y-22349864D01*
X150786256Y-22343346D01*
X150874776Y-22343346D01*
X150940958Y-22349864D01*
X150940958Y-22349864D01*
G37*
G36*
X158560958Y-22349864D02*
X158627143Y-22356383D01*
X158740369Y-22390730D01*
X158796983Y-22407903D01*
X158935603Y-22481998D01*
X158953507Y-22491568D01*
X158989245Y-22520898D01*
X159090702Y-22604160D01*
X159173964Y-22705617D01*
X159203294Y-22741355D01*
X159203295Y-22741357D01*
X159286959Y-22897879D01*
X159286959Y-22897880D01*
X159338479Y-23067719D01*
X159355875Y-23244346D01*
X159338479Y-23420973D01*
X159304132Y-23534199D01*
X159286959Y-23590813D01*
X159270289Y-23622000D01*
X159203294Y-23747337D01*
X159173964Y-23783075D01*
X159090702Y-23884532D01*
X158989245Y-23967794D01*
X158953507Y-23997124D01*
X158953505Y-23997125D01*
X158796983Y-24080789D01*
X158740369Y-24097962D01*
X158627143Y-24132309D01*
X158560958Y-24138828D01*
X158494776Y-24145346D01*
X158406256Y-24145346D01*
X158340073Y-24138827D01*
X158273889Y-24132309D01*
X158160663Y-24097962D01*
X158104049Y-24080789D01*
X157947527Y-23997125D01*
X157947525Y-23997124D01*
X157911787Y-23967794D01*
X157810330Y-23884532D01*
X157727068Y-23783075D01*
X157697738Y-23747337D01*
X157630743Y-23622000D01*
X157614073Y-23590813D01*
X157596900Y-23534199D01*
X157562553Y-23420973D01*
X157545157Y-23244346D01*
X157562553Y-23067719D01*
X157614073Y-22897880D01*
X157614073Y-22897879D01*
X157697737Y-22741357D01*
X157697738Y-22741355D01*
X157727068Y-22705617D01*
X157810330Y-22604160D01*
X157911787Y-22520898D01*
X157947525Y-22491568D01*
X157965429Y-22481998D01*
X158104049Y-22407903D01*
X158160663Y-22390730D01*
X158273889Y-22356383D01*
X158340074Y-22349864D01*
X158406256Y-22343346D01*
X158494776Y-22343346D01*
X158560958Y-22349864D01*
X158560958Y-22349864D01*
G37*
G36*
X153480958Y-22349864D02*
X153547143Y-22356383D01*
X153660369Y-22390730D01*
X153716983Y-22407903D01*
X153855603Y-22481998D01*
X153873507Y-22491568D01*
X153909245Y-22520898D01*
X154010702Y-22604160D01*
X154093964Y-22705617D01*
X154123294Y-22741355D01*
X154123295Y-22741357D01*
X154206959Y-22897879D01*
X154206959Y-22897880D01*
X154258479Y-23067719D01*
X154275875Y-23244346D01*
X154258479Y-23420973D01*
X154224132Y-23534199D01*
X154206959Y-23590813D01*
X154190289Y-23622000D01*
X154123294Y-23747337D01*
X154093964Y-23783075D01*
X154010702Y-23884532D01*
X153909245Y-23967794D01*
X153873507Y-23997124D01*
X153873505Y-23997125D01*
X153716983Y-24080789D01*
X153660369Y-24097962D01*
X153547143Y-24132309D01*
X153480958Y-24138828D01*
X153414776Y-24145346D01*
X153326256Y-24145346D01*
X153260073Y-24138827D01*
X153193889Y-24132309D01*
X153080663Y-24097962D01*
X153024049Y-24080789D01*
X152867527Y-23997125D01*
X152867525Y-23997124D01*
X152831787Y-23967794D01*
X152730330Y-23884532D01*
X152647068Y-23783075D01*
X152617738Y-23747337D01*
X152550743Y-23622000D01*
X152534073Y-23590813D01*
X152516900Y-23534199D01*
X152482553Y-23420973D01*
X152465157Y-23244346D01*
X152482553Y-23067719D01*
X152534073Y-22897880D01*
X152534073Y-22897879D01*
X152617737Y-22741357D01*
X152617738Y-22741355D01*
X152647068Y-22705617D01*
X152730330Y-22604160D01*
X152831787Y-22520898D01*
X152867525Y-22491568D01*
X152885429Y-22481998D01*
X153024049Y-22407903D01*
X153080663Y-22390730D01*
X153193889Y-22356383D01*
X153260074Y-22349864D01*
X153326256Y-22343346D01*
X153414776Y-22343346D01*
X153480958Y-22349864D01*
X153480958Y-22349864D01*
G37*
G36*
X156020958Y-22349864D02*
X156087143Y-22356383D01*
X156200369Y-22390730D01*
X156256983Y-22407903D01*
X156395603Y-22481998D01*
X156413507Y-22491568D01*
X156449245Y-22520898D01*
X156550702Y-22604160D01*
X156633964Y-22705617D01*
X156663294Y-22741355D01*
X156663295Y-22741357D01*
X156746959Y-22897879D01*
X156746959Y-22897880D01*
X156798479Y-23067719D01*
X156815875Y-23244346D01*
X156798479Y-23420973D01*
X156764132Y-23534199D01*
X156746959Y-23590813D01*
X156730289Y-23622000D01*
X156663294Y-23747337D01*
X156633964Y-23783075D01*
X156550702Y-23884532D01*
X156449245Y-23967794D01*
X156413507Y-23997124D01*
X156413505Y-23997125D01*
X156256983Y-24080789D01*
X156200369Y-24097962D01*
X156087143Y-24132309D01*
X156020958Y-24138828D01*
X155954776Y-24145346D01*
X155866256Y-24145346D01*
X155800073Y-24138827D01*
X155733889Y-24132309D01*
X155620663Y-24097962D01*
X155564049Y-24080789D01*
X155407527Y-23997125D01*
X155407525Y-23997124D01*
X155371787Y-23967794D01*
X155270330Y-23884532D01*
X155187068Y-23783075D01*
X155157738Y-23747337D01*
X155090743Y-23622000D01*
X155074073Y-23590813D01*
X155056900Y-23534199D01*
X155022553Y-23420973D01*
X155005157Y-23244346D01*
X155022553Y-23067719D01*
X155074073Y-22897880D01*
X155074073Y-22897879D01*
X155157737Y-22741357D01*
X155157738Y-22741355D01*
X155187068Y-22705617D01*
X155270330Y-22604160D01*
X155371787Y-22520898D01*
X155407525Y-22491568D01*
X155425429Y-22481998D01*
X155564049Y-22407903D01*
X155620663Y-22390730D01*
X155733889Y-22356383D01*
X155800074Y-22349864D01*
X155866256Y-22343346D01*
X155954776Y-22343346D01*
X156020958Y-22349864D01*
X156020958Y-22349864D01*
G37*
G36*
X168662336Y-19948559D02*
X168728520Y-19955077D01*
X168841746Y-19989424D01*
X168898360Y-20006597D01*
X169006051Y-20064160D01*
X169054884Y-20090262D01*
X169090622Y-20119592D01*
X169192079Y-20202854D01*
X169275341Y-20304311D01*
X169304671Y-20340049D01*
X169304672Y-20340051D01*
X169388336Y-20496573D01*
X169388336Y-20496574D01*
X169439856Y-20666413D01*
X169457252Y-20843040D01*
X169439856Y-21019667D01*
X169430408Y-21050812D01*
X169388336Y-21189507D01*
X169314241Y-21328127D01*
X169304671Y-21346031D01*
X169275341Y-21381769D01*
X169192079Y-21483226D01*
X169121937Y-21540789D01*
X169054884Y-21595818D01*
X169054882Y-21595819D01*
X168898360Y-21679483D01*
X168841746Y-21696656D01*
X168728520Y-21731003D01*
X168662335Y-21737522D01*
X168596153Y-21744040D01*
X168507633Y-21744040D01*
X168441451Y-21737522D01*
X168375266Y-21731003D01*
X168262040Y-21696656D01*
X168205426Y-21679483D01*
X168048904Y-21595819D01*
X168048902Y-21595818D01*
X167981849Y-21540789D01*
X167911707Y-21483226D01*
X167828445Y-21381769D01*
X167799115Y-21346031D01*
X167789545Y-21328127D01*
X167715450Y-21189507D01*
X167673378Y-21050812D01*
X167663930Y-21019667D01*
X167646534Y-20843040D01*
X167663930Y-20666413D01*
X167715450Y-20496574D01*
X167715450Y-20496573D01*
X167799114Y-20340051D01*
X167799115Y-20340049D01*
X167828445Y-20304311D01*
X167911707Y-20202854D01*
X168013164Y-20119592D01*
X168048902Y-20090262D01*
X168097735Y-20064160D01*
X168205426Y-20006597D01*
X168262040Y-19989424D01*
X168375266Y-19955077D01*
X168441450Y-19948559D01*
X168507633Y-19942040D01*
X168596153Y-19942040D01*
X168662336Y-19948559D01*
X168662336Y-19948559D01*
G37*
G36*
X166122336Y-19948559D02*
X166188520Y-19955077D01*
X166301746Y-19989424D01*
X166358360Y-20006597D01*
X166466051Y-20064160D01*
X166514884Y-20090262D01*
X166550622Y-20119592D01*
X166652079Y-20202854D01*
X166735341Y-20304311D01*
X166764671Y-20340049D01*
X166764672Y-20340051D01*
X166848336Y-20496573D01*
X166848336Y-20496574D01*
X166899856Y-20666413D01*
X166917252Y-20843040D01*
X166899856Y-21019667D01*
X166890408Y-21050812D01*
X166848336Y-21189507D01*
X166774241Y-21328127D01*
X166764671Y-21346031D01*
X166735341Y-21381769D01*
X166652079Y-21483226D01*
X166581937Y-21540789D01*
X166514884Y-21595818D01*
X166514882Y-21595819D01*
X166358360Y-21679483D01*
X166301746Y-21696656D01*
X166188520Y-21731003D01*
X166122335Y-21737522D01*
X166056153Y-21744040D01*
X165967633Y-21744040D01*
X165901451Y-21737522D01*
X165835266Y-21731003D01*
X165722040Y-21696656D01*
X165665426Y-21679483D01*
X165508904Y-21595819D01*
X165508902Y-21595818D01*
X165441849Y-21540789D01*
X165371707Y-21483226D01*
X165288445Y-21381769D01*
X165259115Y-21346031D01*
X165249545Y-21328127D01*
X165175450Y-21189507D01*
X165133378Y-21050812D01*
X165123930Y-21019667D01*
X165106534Y-20843040D01*
X165123930Y-20666413D01*
X165175450Y-20496574D01*
X165175450Y-20496573D01*
X165259114Y-20340051D01*
X165259115Y-20340049D01*
X165288445Y-20304311D01*
X165371707Y-20202854D01*
X165473164Y-20119592D01*
X165508902Y-20090262D01*
X165557735Y-20064160D01*
X165665426Y-20006597D01*
X165722040Y-19989424D01*
X165835266Y-19955077D01*
X165901450Y-19948559D01*
X165967633Y-19942040D01*
X166056153Y-19942040D01*
X166122336Y-19948559D01*
X166122336Y-19948559D01*
G37*
G36*
X163582336Y-19948559D02*
X163648520Y-19955077D01*
X163761746Y-19989424D01*
X163818360Y-20006597D01*
X163926051Y-20064160D01*
X163974884Y-20090262D01*
X164010622Y-20119592D01*
X164112079Y-20202854D01*
X164195341Y-20304311D01*
X164224671Y-20340049D01*
X164224672Y-20340051D01*
X164308336Y-20496573D01*
X164308336Y-20496574D01*
X164359856Y-20666413D01*
X164377252Y-20843040D01*
X164359856Y-21019667D01*
X164350408Y-21050812D01*
X164308336Y-21189507D01*
X164234241Y-21328127D01*
X164224671Y-21346031D01*
X164195341Y-21381769D01*
X164112079Y-21483226D01*
X164041937Y-21540789D01*
X163974884Y-21595818D01*
X163974882Y-21595819D01*
X163818360Y-21679483D01*
X163761746Y-21696656D01*
X163648520Y-21731003D01*
X163582335Y-21737522D01*
X163516153Y-21744040D01*
X163427633Y-21744040D01*
X163361451Y-21737522D01*
X163295266Y-21731003D01*
X163182040Y-21696656D01*
X163125426Y-21679483D01*
X162968904Y-21595819D01*
X162968902Y-21595818D01*
X162901849Y-21540789D01*
X162831707Y-21483226D01*
X162748445Y-21381769D01*
X162719115Y-21346031D01*
X162709545Y-21328127D01*
X162635450Y-21189507D01*
X162593378Y-21050812D01*
X162583930Y-21019667D01*
X162566534Y-20843040D01*
X162583930Y-20666413D01*
X162635450Y-20496574D01*
X162635450Y-20496573D01*
X162719114Y-20340051D01*
X162719115Y-20340049D01*
X162748445Y-20304311D01*
X162831707Y-20202854D01*
X162933164Y-20119592D01*
X162968902Y-20090262D01*
X163017735Y-20064160D01*
X163125426Y-20006597D01*
X163182040Y-19989424D01*
X163295266Y-19955077D01*
X163361450Y-19948559D01*
X163427633Y-19942040D01*
X163516153Y-19942040D01*
X163582336Y-19948559D01*
X163582336Y-19948559D01*
G37*
G36*
X171992893Y-21744040D02*
X170190893Y-21744040D01*
X170190893Y-19942040D01*
X171992893Y-19942040D01*
X171992893Y-21744040D01*
X171992893Y-21744040D01*
G37*
G36*
X158560958Y-19809864D02*
X158627143Y-19816383D01*
X158740369Y-19850730D01*
X158796983Y-19867903D01*
X158935603Y-19941998D01*
X158953507Y-19951568D01*
X158989245Y-19980898D01*
X159090702Y-20064160D01*
X159161036Y-20149864D01*
X159203294Y-20201355D01*
X159203295Y-20201357D01*
X159286959Y-20357879D01*
X159286959Y-20357880D01*
X159338479Y-20527719D01*
X159355875Y-20704346D01*
X159338479Y-20880973D01*
X159304132Y-20994199D01*
X159286959Y-21050813D01*
X159212864Y-21189433D01*
X159203294Y-21207337D01*
X159173964Y-21243075D01*
X159090702Y-21344532D01*
X158989245Y-21427794D01*
X158953507Y-21457124D01*
X158953505Y-21457125D01*
X158796983Y-21540789D01*
X158740369Y-21557962D01*
X158627143Y-21592309D01*
X158560959Y-21598827D01*
X158494776Y-21605346D01*
X158406256Y-21605346D01*
X158340073Y-21598827D01*
X158273889Y-21592309D01*
X158160663Y-21557962D01*
X158104049Y-21540789D01*
X157947527Y-21457125D01*
X157947525Y-21457124D01*
X157911787Y-21427794D01*
X157810330Y-21344532D01*
X157727068Y-21243075D01*
X157697738Y-21207337D01*
X157688168Y-21189433D01*
X157614073Y-21050813D01*
X157596900Y-20994199D01*
X157562553Y-20880973D01*
X157545157Y-20704346D01*
X157562553Y-20527719D01*
X157614073Y-20357880D01*
X157614073Y-20357879D01*
X157697737Y-20201357D01*
X157697738Y-20201355D01*
X157739996Y-20149864D01*
X157810330Y-20064160D01*
X157911787Y-19980898D01*
X157947525Y-19951568D01*
X157965429Y-19941998D01*
X158104049Y-19867903D01*
X158160663Y-19850730D01*
X158273889Y-19816383D01*
X158340073Y-19809865D01*
X158406256Y-19803346D01*
X158494776Y-19803346D01*
X158560958Y-19809864D01*
X158560958Y-19809864D01*
G37*
G36*
X156020958Y-19809864D02*
X156087143Y-19816383D01*
X156200369Y-19850730D01*
X156256983Y-19867903D01*
X156395603Y-19941998D01*
X156413507Y-19951568D01*
X156449245Y-19980898D01*
X156550702Y-20064160D01*
X156621036Y-20149864D01*
X156663294Y-20201355D01*
X156663295Y-20201357D01*
X156746959Y-20357879D01*
X156746959Y-20357880D01*
X156798479Y-20527719D01*
X156815875Y-20704346D01*
X156798479Y-20880973D01*
X156764132Y-20994199D01*
X156746959Y-21050813D01*
X156672864Y-21189433D01*
X156663294Y-21207337D01*
X156633964Y-21243075D01*
X156550702Y-21344532D01*
X156449245Y-21427794D01*
X156413507Y-21457124D01*
X156413505Y-21457125D01*
X156256983Y-21540789D01*
X156200369Y-21557962D01*
X156087143Y-21592309D01*
X156020959Y-21598827D01*
X155954776Y-21605346D01*
X155866256Y-21605346D01*
X155800073Y-21598827D01*
X155733889Y-21592309D01*
X155620663Y-21557962D01*
X155564049Y-21540789D01*
X155407527Y-21457125D01*
X155407525Y-21457124D01*
X155371787Y-21427794D01*
X155270330Y-21344532D01*
X155187068Y-21243075D01*
X155157738Y-21207337D01*
X155148168Y-21189433D01*
X155074073Y-21050813D01*
X155056900Y-20994199D01*
X155022553Y-20880973D01*
X155005157Y-20704346D01*
X155022553Y-20527719D01*
X155074073Y-20357880D01*
X155074073Y-20357879D01*
X155157737Y-20201357D01*
X155157738Y-20201355D01*
X155199996Y-20149864D01*
X155270330Y-20064160D01*
X155371787Y-19980898D01*
X155407525Y-19951568D01*
X155425429Y-19941998D01*
X155564049Y-19867903D01*
X155620663Y-19850730D01*
X155733889Y-19816383D01*
X155800073Y-19809865D01*
X155866256Y-19803346D01*
X155954776Y-19803346D01*
X156020958Y-19809864D01*
X156020958Y-19809864D01*
G37*
G36*
X153480958Y-19809864D02*
X153547143Y-19816383D01*
X153660369Y-19850730D01*
X153716983Y-19867903D01*
X153855603Y-19941998D01*
X153873507Y-19951568D01*
X153909245Y-19980898D01*
X154010702Y-20064160D01*
X154081036Y-20149864D01*
X154123294Y-20201355D01*
X154123295Y-20201357D01*
X154206959Y-20357879D01*
X154206959Y-20357880D01*
X154258479Y-20527719D01*
X154275875Y-20704346D01*
X154258479Y-20880973D01*
X154224132Y-20994199D01*
X154206959Y-21050813D01*
X154132864Y-21189433D01*
X154123294Y-21207337D01*
X154093964Y-21243075D01*
X154010702Y-21344532D01*
X153909245Y-21427794D01*
X153873507Y-21457124D01*
X153873505Y-21457125D01*
X153716983Y-21540789D01*
X153660369Y-21557962D01*
X153547143Y-21592309D01*
X153480959Y-21598827D01*
X153414776Y-21605346D01*
X153326256Y-21605346D01*
X153260073Y-21598827D01*
X153193889Y-21592309D01*
X153080663Y-21557962D01*
X153024049Y-21540789D01*
X152867527Y-21457125D01*
X152867525Y-21457124D01*
X152831787Y-21427794D01*
X152730330Y-21344532D01*
X152647068Y-21243075D01*
X152617738Y-21207337D01*
X152608168Y-21189433D01*
X152534073Y-21050813D01*
X152516900Y-20994199D01*
X152482553Y-20880973D01*
X152465157Y-20704346D01*
X152482553Y-20527719D01*
X152534073Y-20357880D01*
X152534073Y-20357879D01*
X152617737Y-20201357D01*
X152617738Y-20201355D01*
X152659996Y-20149864D01*
X152730330Y-20064160D01*
X152831787Y-19980898D01*
X152867525Y-19951568D01*
X152885429Y-19941998D01*
X153024049Y-19867903D01*
X153080663Y-19850730D01*
X153193889Y-19816383D01*
X153260073Y-19809865D01*
X153326256Y-19803346D01*
X153414776Y-19803346D01*
X153480958Y-19809864D01*
X153480958Y-19809864D01*
G37*
G36*
X150940958Y-19809864D02*
X151007143Y-19816383D01*
X151120369Y-19850730D01*
X151176983Y-19867903D01*
X151315603Y-19941998D01*
X151333507Y-19951568D01*
X151369245Y-19980898D01*
X151470702Y-20064160D01*
X151541036Y-20149864D01*
X151583294Y-20201355D01*
X151583295Y-20201357D01*
X151666959Y-20357879D01*
X151666959Y-20357880D01*
X151718479Y-20527719D01*
X151735875Y-20704346D01*
X151718479Y-20880973D01*
X151684132Y-20994199D01*
X151666959Y-21050813D01*
X151592864Y-21189433D01*
X151583294Y-21207337D01*
X151553964Y-21243075D01*
X151470702Y-21344532D01*
X151369245Y-21427794D01*
X151333507Y-21457124D01*
X151333505Y-21457125D01*
X151176983Y-21540789D01*
X151120369Y-21557962D01*
X151007143Y-21592309D01*
X150940959Y-21598827D01*
X150874776Y-21605346D01*
X150786256Y-21605346D01*
X150720073Y-21598827D01*
X150653889Y-21592309D01*
X150540663Y-21557962D01*
X150484049Y-21540789D01*
X150327527Y-21457125D01*
X150327525Y-21457124D01*
X150291787Y-21427794D01*
X150190330Y-21344532D01*
X150107068Y-21243075D01*
X150077738Y-21207337D01*
X150068168Y-21189433D01*
X149994073Y-21050813D01*
X149976900Y-20994199D01*
X149942553Y-20880973D01*
X149925157Y-20704346D01*
X149942553Y-20527719D01*
X149994073Y-20357880D01*
X149994073Y-20357879D01*
X150077737Y-20201357D01*
X150077738Y-20201355D01*
X150119996Y-20149864D01*
X150190330Y-20064160D01*
X150291787Y-19980898D01*
X150327525Y-19951568D01*
X150345429Y-19941998D01*
X150484049Y-19867903D01*
X150540663Y-19850730D01*
X150653889Y-19816383D01*
X150720073Y-19809865D01*
X150786256Y-19803346D01*
X150874776Y-19803346D01*
X150940958Y-19809864D01*
X150940958Y-19809864D01*
G37*
G36*
X148400958Y-19809864D02*
X148467143Y-19816383D01*
X148580369Y-19850730D01*
X148636983Y-19867903D01*
X148775603Y-19941998D01*
X148793507Y-19951568D01*
X148829245Y-19980898D01*
X148930702Y-20064160D01*
X149001036Y-20149864D01*
X149043294Y-20201355D01*
X149043295Y-20201357D01*
X149126959Y-20357879D01*
X149126959Y-20357880D01*
X149178479Y-20527719D01*
X149195875Y-20704346D01*
X149178479Y-20880973D01*
X149144132Y-20994199D01*
X149126959Y-21050813D01*
X149052864Y-21189433D01*
X149043294Y-21207337D01*
X149013964Y-21243075D01*
X148930702Y-21344532D01*
X148829245Y-21427794D01*
X148793507Y-21457124D01*
X148793505Y-21457125D01*
X148636983Y-21540789D01*
X148580369Y-21557962D01*
X148467143Y-21592309D01*
X148400959Y-21598827D01*
X148334776Y-21605346D01*
X148246256Y-21605346D01*
X148180073Y-21598827D01*
X148113889Y-21592309D01*
X148000663Y-21557962D01*
X147944049Y-21540789D01*
X147787527Y-21457125D01*
X147787525Y-21457124D01*
X147751787Y-21427794D01*
X147650330Y-21344532D01*
X147567068Y-21243075D01*
X147537738Y-21207337D01*
X147528168Y-21189433D01*
X147454073Y-21050813D01*
X147436900Y-20994199D01*
X147402553Y-20880973D01*
X147385157Y-20704346D01*
X147402553Y-20527719D01*
X147454073Y-20357880D01*
X147454073Y-20357879D01*
X147537737Y-20201357D01*
X147537738Y-20201355D01*
X147579996Y-20149864D01*
X147650330Y-20064160D01*
X147751787Y-19980898D01*
X147787525Y-19951568D01*
X147805429Y-19941998D01*
X147944049Y-19867903D01*
X148000663Y-19850730D01*
X148113889Y-19816383D01*
X148180073Y-19809865D01*
X148246256Y-19803346D01*
X148334776Y-19803346D01*
X148400958Y-19809864D01*
X148400958Y-19809864D01*
G37*
G36*
X146651516Y-21605346D02*
X144849516Y-21605346D01*
X144849516Y-19803346D01*
X146651516Y-19803346D01*
X146651516Y-21605346D01*
X146651516Y-21605346D01*
G37*
G36*
X196469941Y-14846248D02*
X196469943Y-14846249D01*
X196469944Y-14846249D01*
X197025190Y-15076239D01*
X197025191Y-15076240D01*
X197524902Y-15410136D01*
X197949864Y-15835098D01*
X197949866Y-15835101D01*
X198283761Y-16334810D01*
X198513751Y-16890056D01*
X198513752Y-16890059D01*
X198631000Y-17479501D01*
X198631000Y-18080499D01*
X198517817Y-18649507D01*
X198513751Y-18669944D01*
X198283761Y-19225190D01*
X198283760Y-19225191D01*
X197949864Y-19724902D01*
X197524902Y-20149864D01*
X197524899Y-20149866D01*
X197025190Y-20483761D01*
X196469944Y-20713751D01*
X196469943Y-20713751D01*
X196469941Y-20713752D01*
X195880499Y-20831000D01*
X195279501Y-20831000D01*
X194690059Y-20713752D01*
X194690057Y-20713751D01*
X194690056Y-20713751D01*
X194134810Y-20483761D01*
X193635101Y-20149866D01*
X193635098Y-20149864D01*
X193210136Y-19724902D01*
X192876240Y-19225191D01*
X192876239Y-19225190D01*
X192646249Y-18669944D01*
X192642184Y-18649507D01*
X192529000Y-18080499D01*
X192529000Y-17479501D01*
X192646248Y-16890059D01*
X192646249Y-16890056D01*
X192876239Y-16334810D01*
X193210134Y-15835101D01*
X193210136Y-15835098D01*
X193635098Y-15410136D01*
X194134809Y-15076240D01*
X194134810Y-15076239D01*
X194690056Y-14846249D01*
X194690057Y-14846249D01*
X194690059Y-14846248D01*
X195279501Y-14729000D01*
X195880499Y-14729000D01*
X196469941Y-14846248D01*
X196469941Y-14846248D01*
G37*
G36*
X107569941Y-14846248D02*
X107569943Y-14846249D01*
X107569944Y-14846249D01*
X108125190Y-15076239D01*
X108125191Y-15076240D01*
X108624902Y-15410136D01*
X109049864Y-15835098D01*
X109049866Y-15835101D01*
X109383761Y-16334810D01*
X109613751Y-16890056D01*
X109613752Y-16890059D01*
X109731000Y-17479501D01*
X109731000Y-18080499D01*
X109617817Y-18649507D01*
X109613751Y-18669944D01*
X109383761Y-19225190D01*
X109383760Y-19225191D01*
X109049864Y-19724902D01*
X108624902Y-20149864D01*
X108624899Y-20149866D01*
X108125190Y-20483761D01*
X107569944Y-20713751D01*
X107569943Y-20713751D01*
X107569941Y-20713752D01*
X106980499Y-20831000D01*
X106379501Y-20831000D01*
X105790059Y-20713752D01*
X105790057Y-20713751D01*
X105790056Y-20713751D01*
X105234810Y-20483761D01*
X104735101Y-20149866D01*
X104735098Y-20149864D01*
X104310136Y-19724902D01*
X103976240Y-19225191D01*
X103976239Y-19225190D01*
X103746249Y-18669944D01*
X103742184Y-18649507D01*
X103629000Y-18080499D01*
X103629000Y-17479501D01*
X103746248Y-16890059D01*
X103746249Y-16890056D01*
X103976239Y-16334810D01*
X104310134Y-15835101D01*
X104310136Y-15835098D01*
X104735098Y-15410136D01*
X105234809Y-15076240D01*
X105234810Y-15076239D01*
X105790056Y-14846249D01*
X105790057Y-14846249D01*
X105790059Y-14846248D01*
X106379501Y-14729000D01*
X106980499Y-14729000D01*
X107569941Y-14846248D01*
X107569941Y-14846248D01*
G37*
G36*
X168662336Y-17408559D02*
X168728520Y-17415077D01*
X168841746Y-17449424D01*
X168898360Y-17466597D01*
X169006051Y-17524160D01*
X169054884Y-17550262D01*
X169090622Y-17579592D01*
X169192079Y-17662854D01*
X169275341Y-17764311D01*
X169304671Y-17800049D01*
X169304672Y-17800051D01*
X169388336Y-17956573D01*
X169388336Y-17956574D01*
X169439856Y-18126413D01*
X169457252Y-18303040D01*
X169439856Y-18479667D01*
X169430408Y-18510812D01*
X169388336Y-18649507D01*
X169377412Y-18669944D01*
X169304671Y-18806031D01*
X169275341Y-18841769D01*
X169192079Y-18943226D01*
X169121937Y-19000789D01*
X169054884Y-19055818D01*
X169054882Y-19055819D01*
X168898360Y-19139483D01*
X168841746Y-19156656D01*
X168728520Y-19191003D01*
X168662335Y-19197522D01*
X168596153Y-19204040D01*
X168507633Y-19204040D01*
X168441451Y-19197522D01*
X168375266Y-19191003D01*
X168262040Y-19156656D01*
X168205426Y-19139483D01*
X168048904Y-19055819D01*
X168048902Y-19055818D01*
X167981849Y-19000789D01*
X167911707Y-18943226D01*
X167828445Y-18841769D01*
X167799115Y-18806031D01*
X167726374Y-18669944D01*
X167715450Y-18649507D01*
X167673378Y-18510812D01*
X167663930Y-18479667D01*
X167646534Y-18303040D01*
X167663930Y-18126413D01*
X167715450Y-17956574D01*
X167715450Y-17956573D01*
X167799114Y-17800051D01*
X167799115Y-17800049D01*
X167828445Y-17764311D01*
X167911707Y-17662854D01*
X168013164Y-17579592D01*
X168048902Y-17550262D01*
X168097735Y-17524160D01*
X168205426Y-17466597D01*
X168262040Y-17449424D01*
X168375266Y-17415077D01*
X168441451Y-17408558D01*
X168507633Y-17402040D01*
X168596153Y-17402040D01*
X168662336Y-17408559D01*
X168662336Y-17408559D01*
G37*
G36*
X171992893Y-19204040D02*
X170190893Y-19204040D01*
X170190893Y-17402040D01*
X171992893Y-17402040D01*
X171992893Y-19204040D01*
X171992893Y-19204040D01*
G37*
G36*
X166122336Y-17408559D02*
X166188520Y-17415077D01*
X166301746Y-17449424D01*
X166358360Y-17466597D01*
X166466051Y-17524160D01*
X166514884Y-17550262D01*
X166550622Y-17579592D01*
X166652079Y-17662854D01*
X166735341Y-17764311D01*
X166764671Y-17800049D01*
X166764672Y-17800051D01*
X166848336Y-17956573D01*
X166848336Y-17956574D01*
X166899856Y-18126413D01*
X166917252Y-18303040D01*
X166899856Y-18479667D01*
X166890408Y-18510812D01*
X166848336Y-18649507D01*
X166837412Y-18669944D01*
X166764671Y-18806031D01*
X166735341Y-18841769D01*
X166652079Y-18943226D01*
X166581937Y-19000789D01*
X166514884Y-19055818D01*
X166514882Y-19055819D01*
X166358360Y-19139483D01*
X166301746Y-19156656D01*
X166188520Y-19191003D01*
X166122335Y-19197522D01*
X166056153Y-19204040D01*
X165967633Y-19204040D01*
X165901451Y-19197522D01*
X165835266Y-19191003D01*
X165722040Y-19156656D01*
X165665426Y-19139483D01*
X165508904Y-19055819D01*
X165508902Y-19055818D01*
X165441849Y-19000789D01*
X165371707Y-18943226D01*
X165288445Y-18841769D01*
X165259115Y-18806031D01*
X165186374Y-18669944D01*
X165175450Y-18649507D01*
X165133378Y-18510812D01*
X165123930Y-18479667D01*
X165106534Y-18303040D01*
X165123930Y-18126413D01*
X165175450Y-17956574D01*
X165175450Y-17956573D01*
X165259114Y-17800051D01*
X165259115Y-17800049D01*
X165288445Y-17764311D01*
X165371707Y-17662854D01*
X165473164Y-17579592D01*
X165508902Y-17550262D01*
X165557735Y-17524160D01*
X165665426Y-17466597D01*
X165722040Y-17449424D01*
X165835266Y-17415077D01*
X165901451Y-17408558D01*
X165967633Y-17402040D01*
X166056153Y-17402040D01*
X166122336Y-17408559D01*
X166122336Y-17408559D01*
G37*
G36*
X163582336Y-17408559D02*
X163648520Y-17415077D01*
X163761746Y-17449424D01*
X163818360Y-17466597D01*
X163926051Y-17524160D01*
X163974884Y-17550262D01*
X164010622Y-17579592D01*
X164112079Y-17662854D01*
X164195341Y-17764311D01*
X164224671Y-17800049D01*
X164224672Y-17800051D01*
X164308336Y-17956573D01*
X164308336Y-17956574D01*
X164359856Y-18126413D01*
X164377252Y-18303040D01*
X164359856Y-18479667D01*
X164350408Y-18510812D01*
X164308336Y-18649507D01*
X164297412Y-18669944D01*
X164224671Y-18806031D01*
X164195341Y-18841769D01*
X164112079Y-18943226D01*
X164041937Y-19000789D01*
X163974884Y-19055818D01*
X163974882Y-19055819D01*
X163818360Y-19139483D01*
X163761746Y-19156656D01*
X163648520Y-19191003D01*
X163582335Y-19197522D01*
X163516153Y-19204040D01*
X163427633Y-19204040D01*
X163361451Y-19197522D01*
X163295266Y-19191003D01*
X163182040Y-19156656D01*
X163125426Y-19139483D01*
X162968904Y-19055819D01*
X162968902Y-19055818D01*
X162901849Y-19000789D01*
X162831707Y-18943226D01*
X162748445Y-18841769D01*
X162719115Y-18806031D01*
X162646374Y-18669944D01*
X162635450Y-18649507D01*
X162593378Y-18510812D01*
X162583930Y-18479667D01*
X162566534Y-18303040D01*
X162583930Y-18126413D01*
X162635450Y-17956574D01*
X162635450Y-17956573D01*
X162719114Y-17800051D01*
X162719115Y-17800049D01*
X162748445Y-17764311D01*
X162831707Y-17662854D01*
X162933164Y-17579592D01*
X162968902Y-17550262D01*
X163017735Y-17524160D01*
X163125426Y-17466597D01*
X163182040Y-17449424D01*
X163295266Y-17415077D01*
X163361451Y-17408558D01*
X163427633Y-17402040D01*
X163516153Y-17402040D01*
X163582336Y-17408559D01*
X163582336Y-17408559D01*
G37*
G36*
X158560958Y-17269864D02*
X158627143Y-17276383D01*
X158740369Y-17310730D01*
X158796983Y-17327903D01*
X158935603Y-17401998D01*
X158953507Y-17411568D01*
X158989245Y-17440898D01*
X159090702Y-17524160D01*
X159173964Y-17625617D01*
X159203294Y-17661355D01*
X159203295Y-17661357D01*
X159286959Y-17817879D01*
X159286959Y-17817880D01*
X159338479Y-17987719D01*
X159355875Y-18164346D01*
X159338479Y-18340973D01*
X159304132Y-18454199D01*
X159286959Y-18510813D01*
X159212864Y-18649433D01*
X159203294Y-18667337D01*
X159201154Y-18669944D01*
X159090702Y-18804532D01*
X158989245Y-18887794D01*
X158953507Y-18917124D01*
X158953505Y-18917125D01*
X158796983Y-19000789D01*
X158740369Y-19017962D01*
X158627143Y-19052309D01*
X158560959Y-19058827D01*
X158494776Y-19065346D01*
X158406256Y-19065346D01*
X158340074Y-19058828D01*
X158273889Y-19052309D01*
X158160663Y-19017962D01*
X158104049Y-19000789D01*
X157947527Y-18917125D01*
X157947525Y-18917124D01*
X157911787Y-18887794D01*
X157810330Y-18804532D01*
X157699878Y-18669944D01*
X157697738Y-18667337D01*
X157688168Y-18649433D01*
X157614073Y-18510813D01*
X157596900Y-18454199D01*
X157562553Y-18340973D01*
X157545157Y-18164346D01*
X157562553Y-17987719D01*
X157614073Y-17817880D01*
X157614073Y-17817879D01*
X157697737Y-17661357D01*
X157697738Y-17661355D01*
X157727068Y-17625617D01*
X157810330Y-17524160D01*
X157911787Y-17440898D01*
X157947525Y-17411568D01*
X157965429Y-17401998D01*
X158104049Y-17327903D01*
X158160663Y-17310730D01*
X158273889Y-17276383D01*
X158340073Y-17269865D01*
X158406256Y-17263346D01*
X158494776Y-17263346D01*
X158560958Y-17269864D01*
X158560958Y-17269864D01*
G37*
G36*
X156020958Y-17269864D02*
X156087143Y-17276383D01*
X156200369Y-17310730D01*
X156256983Y-17327903D01*
X156395603Y-17401998D01*
X156413507Y-17411568D01*
X156449245Y-17440898D01*
X156550702Y-17524160D01*
X156633964Y-17625617D01*
X156663294Y-17661355D01*
X156663295Y-17661357D01*
X156746959Y-17817879D01*
X156746959Y-17817880D01*
X156798479Y-17987719D01*
X156815875Y-18164346D01*
X156798479Y-18340973D01*
X156764132Y-18454199D01*
X156746959Y-18510813D01*
X156672864Y-18649433D01*
X156663294Y-18667337D01*
X156661154Y-18669944D01*
X156550702Y-18804532D01*
X156449245Y-18887794D01*
X156413507Y-18917124D01*
X156413505Y-18917125D01*
X156256983Y-19000789D01*
X156200369Y-19017962D01*
X156087143Y-19052309D01*
X156020959Y-19058827D01*
X155954776Y-19065346D01*
X155866256Y-19065346D01*
X155800074Y-19058828D01*
X155733889Y-19052309D01*
X155620663Y-19017962D01*
X155564049Y-19000789D01*
X155407527Y-18917125D01*
X155407525Y-18917124D01*
X155371787Y-18887794D01*
X155270330Y-18804532D01*
X155159878Y-18669944D01*
X155157738Y-18667337D01*
X155148168Y-18649433D01*
X155074073Y-18510813D01*
X155056900Y-18454199D01*
X155022553Y-18340973D01*
X155005157Y-18164346D01*
X155022553Y-17987719D01*
X155074073Y-17817880D01*
X155074073Y-17817879D01*
X155157737Y-17661357D01*
X155157738Y-17661355D01*
X155187068Y-17625617D01*
X155270330Y-17524160D01*
X155371787Y-17440898D01*
X155407525Y-17411568D01*
X155425429Y-17401998D01*
X155564049Y-17327903D01*
X155620663Y-17310730D01*
X155733889Y-17276383D01*
X155800073Y-17269865D01*
X155866256Y-17263346D01*
X155954776Y-17263346D01*
X156020958Y-17269864D01*
X156020958Y-17269864D01*
G37*
G36*
X153480958Y-17269864D02*
X153547143Y-17276383D01*
X153660369Y-17310730D01*
X153716983Y-17327903D01*
X153855603Y-17401998D01*
X153873507Y-17411568D01*
X153909245Y-17440898D01*
X154010702Y-17524160D01*
X154093964Y-17625617D01*
X154123294Y-17661355D01*
X154123295Y-17661357D01*
X154206959Y-17817879D01*
X154206959Y-17817880D01*
X154258479Y-17987719D01*
X154275875Y-18164346D01*
X154258479Y-18340973D01*
X154224132Y-18454199D01*
X154206959Y-18510813D01*
X154132864Y-18649433D01*
X154123294Y-18667337D01*
X154121154Y-18669944D01*
X154010702Y-18804532D01*
X153909245Y-18887794D01*
X153873507Y-18917124D01*
X153873505Y-18917125D01*
X153716983Y-19000789D01*
X153660369Y-19017962D01*
X153547143Y-19052309D01*
X153480959Y-19058827D01*
X153414776Y-19065346D01*
X153326256Y-19065346D01*
X153260074Y-19058828D01*
X153193889Y-19052309D01*
X153080663Y-19017962D01*
X153024049Y-19000789D01*
X152867527Y-18917125D01*
X152867525Y-18917124D01*
X152831787Y-18887794D01*
X152730330Y-18804532D01*
X152619878Y-18669944D01*
X152617738Y-18667337D01*
X152608168Y-18649433D01*
X152534073Y-18510813D01*
X152516900Y-18454199D01*
X152482553Y-18340973D01*
X152465157Y-18164346D01*
X152482553Y-17987719D01*
X152534073Y-17817880D01*
X152534073Y-17817879D01*
X152617737Y-17661357D01*
X152617738Y-17661355D01*
X152647068Y-17625617D01*
X152730330Y-17524160D01*
X152831787Y-17440898D01*
X152867525Y-17411568D01*
X152885429Y-17401998D01*
X153024049Y-17327903D01*
X153080663Y-17310730D01*
X153193889Y-17276383D01*
X153260073Y-17269865D01*
X153326256Y-17263346D01*
X153414776Y-17263346D01*
X153480958Y-17269864D01*
X153480958Y-17269864D01*
G37*
G36*
X150940958Y-17269864D02*
X151007143Y-17276383D01*
X151120369Y-17310730D01*
X151176983Y-17327903D01*
X151315603Y-17401998D01*
X151333507Y-17411568D01*
X151369245Y-17440898D01*
X151470702Y-17524160D01*
X151553964Y-17625617D01*
X151583294Y-17661355D01*
X151583295Y-17661357D01*
X151666959Y-17817879D01*
X151666959Y-17817880D01*
X151718479Y-17987719D01*
X151735875Y-18164346D01*
X151718479Y-18340973D01*
X151684132Y-18454199D01*
X151666959Y-18510813D01*
X151592864Y-18649433D01*
X151583294Y-18667337D01*
X151581154Y-18669944D01*
X151470702Y-18804532D01*
X151369245Y-18887794D01*
X151333507Y-18917124D01*
X151333505Y-18917125D01*
X151176983Y-19000789D01*
X151120369Y-19017962D01*
X151007143Y-19052309D01*
X150940959Y-19058827D01*
X150874776Y-19065346D01*
X150786256Y-19065346D01*
X150720074Y-19058828D01*
X150653889Y-19052309D01*
X150540663Y-19017962D01*
X150484049Y-19000789D01*
X150327527Y-18917125D01*
X150327525Y-18917124D01*
X150291787Y-18887794D01*
X150190330Y-18804532D01*
X150079878Y-18669944D01*
X150077738Y-18667337D01*
X150068168Y-18649433D01*
X149994073Y-18510813D01*
X149976900Y-18454199D01*
X149942553Y-18340973D01*
X149925157Y-18164346D01*
X149942553Y-17987719D01*
X149994073Y-17817880D01*
X149994073Y-17817879D01*
X150077737Y-17661357D01*
X150077738Y-17661355D01*
X150107068Y-17625617D01*
X150190330Y-17524160D01*
X150291787Y-17440898D01*
X150327525Y-17411568D01*
X150345429Y-17401998D01*
X150484049Y-17327903D01*
X150540663Y-17310730D01*
X150653889Y-17276383D01*
X150720073Y-17269865D01*
X150786256Y-17263346D01*
X150874776Y-17263346D01*
X150940958Y-17269864D01*
X150940958Y-17269864D01*
G37*
G36*
X148400958Y-17269864D02*
X148467143Y-17276383D01*
X148580369Y-17310730D01*
X148636983Y-17327903D01*
X148775603Y-17401998D01*
X148793507Y-17411568D01*
X148829245Y-17440898D01*
X148930702Y-17524160D01*
X149013964Y-17625617D01*
X149043294Y-17661355D01*
X149043295Y-17661357D01*
X149126959Y-17817879D01*
X149126959Y-17817880D01*
X149178479Y-17987719D01*
X149195875Y-18164346D01*
X149178479Y-18340973D01*
X149144132Y-18454199D01*
X149126959Y-18510813D01*
X149052864Y-18649433D01*
X149043294Y-18667337D01*
X149041154Y-18669944D01*
X148930702Y-18804532D01*
X148829245Y-18887794D01*
X148793507Y-18917124D01*
X148793505Y-18917125D01*
X148636983Y-19000789D01*
X148580369Y-19017962D01*
X148467143Y-19052309D01*
X148400959Y-19058827D01*
X148334776Y-19065346D01*
X148246256Y-19065346D01*
X148180074Y-19058828D01*
X148113889Y-19052309D01*
X148000663Y-19017962D01*
X147944049Y-19000789D01*
X147787527Y-18917125D01*
X147787525Y-18917124D01*
X147751787Y-18887794D01*
X147650330Y-18804532D01*
X147539878Y-18669944D01*
X147537738Y-18667337D01*
X147528168Y-18649433D01*
X147454073Y-18510813D01*
X147436900Y-18454199D01*
X147402553Y-18340973D01*
X147385157Y-18164346D01*
X147402553Y-17987719D01*
X147454073Y-17817880D01*
X147454073Y-17817879D01*
X147537737Y-17661357D01*
X147537738Y-17661355D01*
X147567068Y-17625617D01*
X147650330Y-17524160D01*
X147751787Y-17440898D01*
X147787525Y-17411568D01*
X147805429Y-17401998D01*
X147944049Y-17327903D01*
X148000663Y-17310730D01*
X148113889Y-17276383D01*
X148180073Y-17269865D01*
X148246256Y-17263346D01*
X148334776Y-17263346D01*
X148400958Y-17269864D01*
X148400958Y-17269864D01*
G37*
G36*
X146651516Y-19065346D02*
X144849516Y-19065346D01*
X144849516Y-17263346D01*
X146651516Y-17263346D01*
X146651516Y-19065346D01*
X146651516Y-19065346D01*
G37*
M02*
