G04 #@! TF.GenerationSoftware,KiCad,Pcbnew,(5.0.1)-3*
G04 #@! TF.CreationDate,2018-10-29T21:18:02+09:00*
G04 #@! TF.ProjectId,badge,62616467652E6B696361645F70636200,rev?*
G04 #@! TF.SameCoordinates,Original*
G04 #@! TF.FileFunction,Legend,Top*
G04 #@! TF.FilePolarity,Positive*
%FSLAX46Y46*%
G04 Gerber Fmt 4.6, Leading zero omitted, Abs format (unit mm)*
G04 Created by KiCad (PCBNEW (5.0.1)-3) date 2018-10-29 오후 9:18:02*
%MOMM*%
%LPD*%
G01*
G04 APERTURE LIST*
%ADD10C,0.120000*%
%ADD11C,0.127000*%
%ADD12C,0.150000*%
%ADD13C,0.050000*%
G04 APERTURE END LIST*
D10*
G04 #@! TO.C,J2*
X177501893Y-55924875D02*
X177501893Y-57254875D01*
X177501893Y-57254875D02*
X176171893Y-57254875D01*
X174901893Y-57254875D02*
X129121893Y-57254875D01*
X129121893Y-54594875D02*
X129121893Y-57254875D01*
X174901893Y-54594875D02*
X129121893Y-54594875D01*
X174901893Y-54594875D02*
X174901893Y-57254875D01*
G04 #@! TO.C,J1*
X174901893Y-29194875D02*
X174901893Y-31854875D01*
X174901893Y-29194875D02*
X129121893Y-29194875D01*
X129121893Y-29194875D02*
X129121893Y-31854875D01*
X174901893Y-31854875D02*
X129121893Y-31854875D01*
X177501893Y-31854875D02*
X176171893Y-31854875D01*
X177501893Y-30524875D02*
X177501893Y-31854875D01*
G04 #@! TO.C,J6*
X177953687Y-21545040D02*
X177953687Y-24205040D01*
X177953687Y-21545040D02*
X170273687Y-21545040D01*
X170273687Y-21545040D02*
X170273687Y-24205040D01*
X177953687Y-24205040D02*
X170273687Y-24205040D01*
X180553687Y-24205040D02*
X179223687Y-24205040D01*
X180553687Y-22875040D02*
X180553687Y-24205040D01*
G04 #@! TO.C,J5*
X180553687Y-20335040D02*
X180553687Y-21665040D01*
X180553687Y-21665040D02*
X179223687Y-21665040D01*
X177953687Y-21665040D02*
X170273687Y-21665040D01*
X170273687Y-19005040D02*
X170273687Y-21665040D01*
X177953687Y-19005040D02*
X170273687Y-19005040D01*
X177953687Y-19005040D02*
X177953687Y-21665040D01*
G04 #@! TO.C,J4*
X177953687Y-16465040D02*
X177953687Y-19125040D01*
X177953687Y-16465040D02*
X170273687Y-16465040D01*
X170273687Y-16465040D02*
X170273687Y-19125040D01*
X177953687Y-19125040D02*
X170273687Y-19125040D01*
X180553687Y-19125040D02*
X179223687Y-19125040D01*
X180553687Y-17795040D02*
X180553687Y-19125040D01*
G04 #@! TO.C,J8*
X159728697Y-19011486D02*
X159728697Y-21671486D01*
X159728697Y-19011486D02*
X146968697Y-19011486D01*
X146968697Y-19011486D02*
X146968697Y-21671486D01*
X159728697Y-21671486D02*
X146968697Y-21671486D01*
X162328697Y-21671486D02*
X160998697Y-21671486D01*
X162328697Y-20341486D02*
X162328697Y-21671486D01*
G04 #@! TO.C,J9*
X162328697Y-22881486D02*
X162328697Y-24211486D01*
X162328697Y-24211486D02*
X160998697Y-24211486D01*
X159728697Y-24211486D02*
X146968697Y-24211486D01*
X146968697Y-21551486D02*
X146968697Y-24211486D01*
X159728697Y-21551486D02*
X146968697Y-21551486D01*
X159728697Y-21551486D02*
X159728697Y-24211486D01*
G04 #@! TO.C,J7*
X159728697Y-16471486D02*
X159728697Y-19131486D01*
X159728697Y-16471486D02*
X146968697Y-16471486D01*
X146968697Y-16471486D02*
X146968697Y-19131486D01*
X159728697Y-19131486D02*
X146968697Y-19131486D01*
X162328697Y-19131486D02*
X160998697Y-19131486D01*
X162328697Y-17801486D02*
X162328697Y-19131486D01*
D11*
G04 #@! TO.C,U1*
X129087000Y-29357000D02*
X177487000Y-29357000D01*
X177487000Y-29357000D02*
X177487000Y-57257000D01*
X177487000Y-57257000D02*
X129087000Y-57257000D01*
X129087000Y-57257000D02*
X129087000Y-29357000D01*
D12*
G36*
X176797000Y-29907000D02*
X175397000Y-29907000D01*
X175397000Y-31307000D01*
X176797000Y-31307000D01*
X176797000Y-29907000D01*
G37*
X176797000Y-29907000D02*
X175397000Y-29907000D01*
X175397000Y-31307000D01*
X176797000Y-31307000D01*
X176797000Y-29907000D01*
G36*
X176797000Y-29907000D02*
X175397000Y-29907000D01*
X175397000Y-31307000D01*
X176797000Y-31307000D01*
X176797000Y-29907000D01*
G37*
X176797000Y-29907000D02*
X175397000Y-29907000D01*
X175397000Y-31307000D01*
X176797000Y-31307000D01*
X176797000Y-29907000D01*
X183537000Y-34307000D02*
X177487000Y-34307000D01*
X183537000Y-52307000D02*
X177487000Y-52307000D01*
X183537000Y-34307000D02*
X183537000Y-52307000D01*
D10*
G04 #@! TO.C,C5*
X121955779Y-60196000D02*
X121630221Y-60196000D01*
X121955779Y-61216000D02*
X121630221Y-61216000D01*
G04 #@! TO.C,J10*
X171274000Y-92110000D02*
X170374000Y-92110000D01*
X170450000Y-90500000D02*
X170096447Y-90250000D01*
X170374000Y-76064000D02*
X170074000Y-76064000D01*
X171274000Y-75214000D02*
X170374000Y-75214000D01*
X170074000Y-91260000D02*
X170074000Y-91010000D01*
X170096447Y-90750000D02*
X170450000Y-90500000D01*
X170074000Y-91010000D02*
X169934000Y-91010000D01*
X170374000Y-92110000D02*
X170374000Y-91260000D01*
X170374000Y-75214000D02*
X170374000Y-76064000D01*
X170096447Y-90250000D02*
X170096447Y-90750000D01*
X170074000Y-76064000D02*
X170074000Y-76314000D01*
X170374000Y-91260000D02*
X170074000Y-91260000D01*
X172994000Y-90940000D02*
X172994000Y-76460000D01*
G04 #@! TO.C,C8*
X170686000Y-60741779D02*
X170686000Y-60416221D01*
X171706000Y-60741779D02*
X171706000Y-60416221D01*
G04 #@! TO.C,R4*
X169801000Y-60741779D02*
X169801000Y-60416221D01*
X168781000Y-60741779D02*
X168781000Y-60416221D01*
G04 #@! TO.C,SW6*
X190290000Y-82530000D02*
X190290000Y-80030000D01*
X192040000Y-84030000D02*
X194040000Y-84030000D01*
X195790000Y-82530000D02*
X195790000Y-80030000D01*
X192040000Y-78530000D02*
X194040000Y-78530000D01*
X190740000Y-82980000D02*
X190290000Y-82530000D01*
X190740000Y-79580000D02*
X190290000Y-80030000D01*
X195340000Y-79580000D02*
X195790000Y-80030000D01*
X195340000Y-82980000D02*
X195790000Y-82530000D01*
G04 #@! TO.C,SW5*
X125490000Y-93140000D02*
X125940000Y-92690000D01*
X125490000Y-89740000D02*
X125940000Y-90190000D01*
X120890000Y-89740000D02*
X120440000Y-90190000D01*
X120890000Y-93140000D02*
X120440000Y-92690000D01*
X122190000Y-88690000D02*
X124190000Y-88690000D01*
X125940000Y-92690000D02*
X125940000Y-90190000D01*
X122190000Y-94190000D02*
X124190000Y-94190000D01*
X120440000Y-92690000D02*
X120440000Y-90190000D01*
G04 #@! TO.C,SW4*
X112820000Y-100310000D02*
X112820000Y-97810000D01*
X114570000Y-101810000D02*
X116570000Y-101810000D01*
X118320000Y-100310000D02*
X118320000Y-97810000D01*
X114570000Y-96310000D02*
X116570000Y-96310000D01*
X113270000Y-100760000D02*
X112820000Y-100310000D01*
X113270000Y-97360000D02*
X112820000Y-97810000D01*
X117870000Y-97360000D02*
X118320000Y-97810000D01*
X117870000Y-100760000D02*
X118320000Y-100310000D01*
G04 #@! TO.C,SW3*
X195340000Y-93140000D02*
X195790000Y-92690000D01*
X195340000Y-89740000D02*
X195790000Y-90190000D01*
X190740000Y-89740000D02*
X190290000Y-90190000D01*
X190740000Y-93140000D02*
X190290000Y-92690000D01*
X192040000Y-88690000D02*
X194040000Y-88690000D01*
X195790000Y-92690000D02*
X195790000Y-90190000D01*
X192040000Y-94190000D02*
X194040000Y-94190000D01*
X190290000Y-92690000D02*
X190290000Y-90190000D01*
G04 #@! TO.C,SW2*
X105200000Y-92690000D02*
X105200000Y-90190000D01*
X106950000Y-94190000D02*
X108950000Y-94190000D01*
X110700000Y-92690000D02*
X110700000Y-90190000D01*
X106950000Y-88690000D02*
X108950000Y-88690000D01*
X105650000Y-93140000D02*
X105200000Y-92690000D01*
X105650000Y-89740000D02*
X105200000Y-90190000D01*
X110250000Y-89740000D02*
X110700000Y-90190000D01*
X110250000Y-93140000D02*
X110700000Y-92690000D01*
G04 #@! TO.C,SW1*
X117870000Y-85520000D02*
X118320000Y-85070000D01*
X117870000Y-82120000D02*
X118320000Y-82570000D01*
X113270000Y-82120000D02*
X112820000Y-82570000D01*
X113270000Y-85520000D02*
X112820000Y-85070000D01*
X114570000Y-81070000D02*
X116570000Y-81070000D01*
X118320000Y-85070000D02*
X118320000Y-82570000D01*
X114570000Y-86570000D02*
X116570000Y-86570000D01*
X112820000Y-85070000D02*
X112820000Y-82570000D01*
G04 #@! TO.C,C7*
X171706000Y-35748279D02*
X171706000Y-35422721D01*
X170686000Y-35748279D02*
X170686000Y-35422721D01*
G04 #@! TO.C,C6*
X125765779Y-61216000D02*
X125440221Y-61216000D01*
X125765779Y-60196000D02*
X125440221Y-60196000D01*
G04 #@! TO.C,C4*
X168146000Y-35722779D02*
X168146000Y-35397221D01*
X169166000Y-35722779D02*
X169166000Y-35397221D01*
G04 #@! TO.C,C3*
X113827779Y-60196000D02*
X113502221Y-60196000D01*
X113827779Y-61216000D02*
X113502221Y-61216000D01*
G04 #@! TO.C,C2*
X118018779Y-61216000D02*
X117693221Y-61216000D01*
X118018779Y-60196000D02*
X117693221Y-60196000D01*
G04 #@! TO.C,J2*
D12*
X178394273Y-56258208D02*
X179108559Y-56258208D01*
X179251416Y-56305827D01*
X179346654Y-56401065D01*
X179394273Y-56543922D01*
X179394273Y-56639160D01*
X178489512Y-55829636D02*
X178441893Y-55782017D01*
X178394273Y-55686779D01*
X178394273Y-55448684D01*
X178441893Y-55353446D01*
X178489512Y-55305827D01*
X178584750Y-55258208D01*
X178679988Y-55258208D01*
X178822845Y-55305827D01*
X179394273Y-55877255D01*
X179394273Y-55258208D01*
G04 #@! TO.C,J1*
X178394273Y-30858208D02*
X179108559Y-30858208D01*
X179251416Y-30905827D01*
X179346654Y-31001065D01*
X179394273Y-31143922D01*
X179394273Y-31239160D01*
X179394273Y-29858208D02*
X179394273Y-30429636D01*
X179394273Y-30143922D02*
X178394273Y-30143922D01*
X178537131Y-30239160D01*
X178632369Y-30334398D01*
X178679988Y-30429636D01*
G04 #@! TO.C,J6*
X181446067Y-23208373D02*
X182160353Y-23208373D01*
X182303210Y-23255992D01*
X182398448Y-23351230D01*
X182446067Y-23494087D01*
X182446067Y-23589325D01*
X181446067Y-22303611D02*
X181446067Y-22494087D01*
X181493687Y-22589325D01*
X181541306Y-22636944D01*
X181684163Y-22732182D01*
X181874639Y-22779801D01*
X182255591Y-22779801D01*
X182350829Y-22732182D01*
X182398448Y-22684563D01*
X182446067Y-22589325D01*
X182446067Y-22398849D01*
X182398448Y-22303611D01*
X182350829Y-22255992D01*
X182255591Y-22208373D01*
X182017496Y-22208373D01*
X181922258Y-22255992D01*
X181874639Y-22303611D01*
X181827020Y-22398849D01*
X181827020Y-22589325D01*
X181874639Y-22684563D01*
X181922258Y-22732182D01*
X182017496Y-22779801D01*
G04 #@! TO.C,J5*
X181446067Y-20668373D02*
X182160353Y-20668373D01*
X182303210Y-20715992D01*
X182398448Y-20811230D01*
X182446067Y-20954087D01*
X182446067Y-21049325D01*
X181446067Y-19715992D02*
X181446067Y-20192182D01*
X181922258Y-20239801D01*
X181874639Y-20192182D01*
X181827020Y-20096944D01*
X181827020Y-19858849D01*
X181874639Y-19763611D01*
X181922258Y-19715992D01*
X182017496Y-19668373D01*
X182255591Y-19668373D01*
X182350829Y-19715992D01*
X182398448Y-19763611D01*
X182446067Y-19858849D01*
X182446067Y-20096944D01*
X182398448Y-20192182D01*
X182350829Y-20239801D01*
G04 #@! TO.C,J4*
X181446067Y-18128373D02*
X182160353Y-18128373D01*
X182303210Y-18175992D01*
X182398448Y-18271230D01*
X182446067Y-18414087D01*
X182446067Y-18509325D01*
X181779401Y-17223611D02*
X182446067Y-17223611D01*
X181398448Y-17461706D02*
X182112734Y-17699801D01*
X182112734Y-17080754D01*
G04 #@! TO.C,J8*
X163221077Y-20674819D02*
X163935363Y-20674819D01*
X164078220Y-20722438D01*
X164173458Y-20817676D01*
X164221077Y-20960533D01*
X164221077Y-21055771D01*
X163649649Y-20055771D02*
X163602030Y-20151009D01*
X163554411Y-20198628D01*
X163459173Y-20246247D01*
X163411554Y-20246247D01*
X163316316Y-20198628D01*
X163268697Y-20151009D01*
X163221077Y-20055771D01*
X163221077Y-19865295D01*
X163268697Y-19770057D01*
X163316316Y-19722438D01*
X163411554Y-19674819D01*
X163459173Y-19674819D01*
X163554411Y-19722438D01*
X163602030Y-19770057D01*
X163649649Y-19865295D01*
X163649649Y-20055771D01*
X163697268Y-20151009D01*
X163744887Y-20198628D01*
X163840125Y-20246247D01*
X164030601Y-20246247D01*
X164125839Y-20198628D01*
X164173458Y-20151009D01*
X164221077Y-20055771D01*
X164221077Y-19865295D01*
X164173458Y-19770057D01*
X164125839Y-19722438D01*
X164030601Y-19674819D01*
X163840125Y-19674819D01*
X163744887Y-19722438D01*
X163697268Y-19770057D01*
X163649649Y-19865295D01*
G04 #@! TO.C,J9*
X163221077Y-23214819D02*
X163935363Y-23214819D01*
X164078220Y-23262438D01*
X164173458Y-23357676D01*
X164221077Y-23500533D01*
X164221077Y-23595771D01*
X164221077Y-22691009D02*
X164221077Y-22500533D01*
X164173458Y-22405295D01*
X164125839Y-22357676D01*
X163982982Y-22262438D01*
X163792506Y-22214819D01*
X163411554Y-22214819D01*
X163316316Y-22262438D01*
X163268697Y-22310057D01*
X163221077Y-22405295D01*
X163221077Y-22595771D01*
X163268697Y-22691009D01*
X163316316Y-22738628D01*
X163411554Y-22786247D01*
X163649649Y-22786247D01*
X163744887Y-22738628D01*
X163792506Y-22691009D01*
X163840125Y-22595771D01*
X163840125Y-22405295D01*
X163792506Y-22310057D01*
X163744887Y-22262438D01*
X163649649Y-22214819D01*
G04 #@! TO.C,J7*
X163221077Y-18134819D02*
X163935363Y-18134819D01*
X164078220Y-18182438D01*
X164173458Y-18277676D01*
X164221077Y-18420533D01*
X164221077Y-18515771D01*
X163221077Y-17753866D02*
X163221077Y-17087200D01*
X164221077Y-17515771D01*
G04 #@! TO.C,U1*
D13*
X178235167Y-32604801D02*
X179045006Y-32604801D01*
X179140282Y-32557164D01*
X179187919Y-32509526D01*
X179235557Y-32414251D01*
X179235557Y-32223700D01*
X179187919Y-32128425D01*
X179140282Y-32080788D01*
X179045006Y-32033150D01*
X178235167Y-32033150D01*
X179235557Y-31032760D02*
X179235557Y-31604411D01*
X179235557Y-31318586D02*
X178235167Y-31318586D01*
X178378080Y-31413861D01*
X178473355Y-31509136D01*
X178520993Y-31604411D01*
X147352441Y-42854496D02*
X147686125Y-42854496D01*
X147829132Y-43378855D02*
X147352441Y-43378855D01*
X147352441Y-42377805D01*
X147829132Y-42377805D01*
X148210484Y-43331186D02*
X148353491Y-43378855D01*
X148591836Y-43378855D01*
X148687175Y-43331186D01*
X148734844Y-43283517D01*
X148782513Y-43188179D01*
X148782513Y-43092841D01*
X148734844Y-42997503D01*
X148687175Y-42949834D01*
X148591836Y-42902165D01*
X148401160Y-42854496D01*
X148305822Y-42806827D01*
X148258153Y-42759158D01*
X148210484Y-42663820D01*
X148210484Y-42568482D01*
X148258153Y-42473144D01*
X148305822Y-42425475D01*
X148401160Y-42377805D01*
X148639505Y-42377805D01*
X148782513Y-42425475D01*
X149211534Y-43378855D02*
X149211534Y-42377805D01*
X149592886Y-42377805D01*
X149688225Y-42425475D01*
X149735894Y-42473144D01*
X149783563Y-42568482D01*
X149783563Y-42711489D01*
X149735894Y-42806827D01*
X149688225Y-42854496D01*
X149592886Y-42902165D01*
X149211534Y-42902165D01*
X150117246Y-42377805D02*
X150736944Y-42377805D01*
X150403260Y-42759158D01*
X150546267Y-42759158D01*
X150641605Y-42806827D01*
X150689275Y-42854496D01*
X150736944Y-42949834D01*
X150736944Y-43188179D01*
X150689275Y-43283517D01*
X150641605Y-43331186D01*
X150546267Y-43378855D01*
X150260253Y-43378855D01*
X150164915Y-43331186D01*
X150117246Y-43283517D01*
X151118296Y-42473144D02*
X151165965Y-42425475D01*
X151261303Y-42377805D01*
X151499648Y-42377805D01*
X151594986Y-42425475D01*
X151642655Y-42473144D01*
X151690325Y-42568482D01*
X151690325Y-42663820D01*
X151642655Y-42806827D01*
X151070627Y-43378855D01*
X151690325Y-43378855D01*
X152119346Y-42997503D02*
X152882051Y-42997503D01*
X153358741Y-43378855D02*
X153358741Y-42377805D01*
X153597086Y-42377805D01*
X153740094Y-42425475D01*
X153835432Y-42520813D01*
X153883101Y-42616151D01*
X153930770Y-42806827D01*
X153930770Y-42949834D01*
X153883101Y-43140510D01*
X153835432Y-43235848D01*
X153740094Y-43331186D01*
X153597086Y-43378855D01*
X153358741Y-43378855D01*
X154359791Y-42854496D02*
X154693475Y-42854496D01*
X154836482Y-43378855D02*
X154359791Y-43378855D01*
X154359791Y-42377805D01*
X154836482Y-42377805D01*
X155122496Y-42377805D02*
X155456179Y-43378855D01*
X155789863Y-42377805D01*
X156123546Y-43378855D02*
X156123546Y-42377805D01*
X156695575Y-43378855D02*
X156266553Y-42806827D01*
X156695575Y-42377805D02*
X156123546Y-42949834D01*
X157124596Y-43378855D02*
X157124596Y-42377805D01*
X157458279Y-42377805D02*
X158030308Y-42377805D01*
X157744294Y-43378855D02*
X157744294Y-42377805D01*
X158936020Y-43283517D02*
X158888351Y-43331186D01*
X158745344Y-43378855D01*
X158650005Y-43378855D01*
X158506998Y-43331186D01*
X158411660Y-43235848D01*
X158363991Y-43140510D01*
X158316322Y-42949834D01*
X158316322Y-42806827D01*
X158363991Y-42616151D01*
X158411660Y-42520813D01*
X158506998Y-42425475D01*
X158650005Y-42377805D01*
X158745344Y-42377805D01*
X158888351Y-42425475D01*
X158936020Y-42473144D01*
X159365041Y-42997503D02*
X160127746Y-42997503D01*
X160509098Y-42377805D02*
X161128796Y-42377805D01*
X160795113Y-42759158D01*
X160938120Y-42759158D01*
X161033458Y-42806827D01*
X161081127Y-42854496D01*
X161128796Y-42949834D01*
X161128796Y-43188179D01*
X161081127Y-43283517D01*
X161033458Y-43331186D01*
X160938120Y-43378855D01*
X160652105Y-43378855D01*
X160556767Y-43331186D01*
X160509098Y-43283517D01*
X161510148Y-42473144D02*
X161557817Y-42425475D01*
X161653155Y-42377805D01*
X161891501Y-42377805D01*
X161986839Y-42425475D01*
X162034508Y-42473144D01*
X162082177Y-42568482D01*
X162082177Y-42663820D01*
X162034508Y-42806827D01*
X161462479Y-43378855D01*
X162082177Y-43378855D01*
X162511198Y-43378855D02*
X162511198Y-42377805D01*
X162749544Y-42377805D01*
X162892551Y-42425475D01*
X162987889Y-42520813D01*
X163035558Y-42616151D01*
X163083227Y-42806827D01*
X163083227Y-42949834D01*
X163035558Y-43140510D01*
X162987889Y-43235848D01*
X162892551Y-43331186D01*
X162749544Y-43378855D01*
X162511198Y-43378855D01*
D12*
X170765571Y-49378428D02*
X170765571Y-49045095D01*
X171289380Y-48902238D02*
X171289380Y-49378428D01*
X170289380Y-49378428D01*
X170289380Y-48902238D01*
X171241761Y-48521285D02*
X171289380Y-48378428D01*
X171289380Y-48140333D01*
X171241761Y-48045095D01*
X171194142Y-47997476D01*
X171098904Y-47949857D01*
X171003666Y-47949857D01*
X170908428Y-47997476D01*
X170860809Y-48045095D01*
X170813190Y-48140333D01*
X170765571Y-48330809D01*
X170717952Y-48426047D01*
X170670333Y-48473666D01*
X170575095Y-48521285D01*
X170479857Y-48521285D01*
X170384619Y-48473666D01*
X170337000Y-48426047D01*
X170289380Y-48330809D01*
X170289380Y-48092714D01*
X170337000Y-47949857D01*
X171289380Y-47521285D02*
X170289380Y-47521285D01*
X170289380Y-47140333D01*
X170337000Y-47045095D01*
X170384619Y-46997476D01*
X170479857Y-46949857D01*
X170622714Y-46949857D01*
X170717952Y-46997476D01*
X170765571Y-47045095D01*
X170813190Y-47140333D01*
X170813190Y-47521285D01*
X170908428Y-46521285D02*
X170908428Y-45759380D01*
X170289380Y-45378428D02*
X171289380Y-45140333D01*
X170575095Y-44949857D01*
X171289380Y-44759380D01*
X170289380Y-44521285D01*
X171289380Y-43568904D02*
X170813190Y-43902238D01*
X171289380Y-44140333D02*
X170289380Y-44140333D01*
X170289380Y-43759380D01*
X170337000Y-43664142D01*
X170384619Y-43616523D01*
X170479857Y-43568904D01*
X170622714Y-43568904D01*
X170717952Y-43616523D01*
X170765571Y-43664142D01*
X170813190Y-43759380D01*
X170813190Y-44140333D01*
X170289380Y-42949857D02*
X170289380Y-42759380D01*
X170337000Y-42664142D01*
X170432238Y-42568904D01*
X170622714Y-42521285D01*
X170956047Y-42521285D01*
X171146523Y-42568904D01*
X171241761Y-42664142D01*
X171289380Y-42759380D01*
X171289380Y-42949857D01*
X171241761Y-43045095D01*
X171146523Y-43140333D01*
X170956047Y-43187952D01*
X170622714Y-43187952D01*
X170432238Y-43140333D01*
X170337000Y-43045095D01*
X170289380Y-42949857D01*
X170289380Y-41902238D02*
X170289380Y-41711761D01*
X170337000Y-41616523D01*
X170432238Y-41521285D01*
X170622714Y-41473666D01*
X170956047Y-41473666D01*
X171146523Y-41521285D01*
X171241761Y-41616523D01*
X171289380Y-41711761D01*
X171289380Y-41902238D01*
X171241761Y-41997476D01*
X171146523Y-42092714D01*
X170956047Y-42140333D01*
X170622714Y-42140333D01*
X170432238Y-42092714D01*
X170337000Y-41997476D01*
X170289380Y-41902238D01*
X171289380Y-41045095D02*
X170289380Y-41045095D01*
X171003666Y-40711761D01*
X170289380Y-40378428D01*
X171289380Y-40378428D01*
X170908428Y-39902238D02*
X170908428Y-39140333D01*
X170289380Y-38759380D02*
X170289380Y-38140333D01*
X170670333Y-38473666D01*
X170670333Y-38330809D01*
X170717952Y-38235571D01*
X170765571Y-38187952D01*
X170860809Y-38140333D01*
X171098904Y-38140333D01*
X171194142Y-38187952D01*
X171241761Y-38235571D01*
X171289380Y-38330809D01*
X171289380Y-38616523D01*
X171241761Y-38711761D01*
X171194142Y-38759380D01*
X170384619Y-37759380D02*
X170337000Y-37711761D01*
X170289380Y-37616523D01*
X170289380Y-37378428D01*
X170337000Y-37283190D01*
X170384619Y-37235571D01*
X170479857Y-37187952D01*
X170575095Y-37187952D01*
X170717952Y-37235571D01*
X171289380Y-37807000D01*
X171289380Y-37187952D01*
G04 #@! TO.C,N1*
X124460095Y-62682380D02*
X124460095Y-61682380D01*
X125031523Y-62682380D01*
X125031523Y-61682380D01*
X126031523Y-62682380D02*
X125460095Y-62682380D01*
X125745809Y-62682380D02*
X125745809Y-61682380D01*
X125650571Y-61825238D01*
X125555333Y-61920476D01*
X125460095Y-61968095D01*
G04 #@! TO.C,C5*
X121626333Y-62493142D02*
X121578714Y-62540761D01*
X121435857Y-62588380D01*
X121340619Y-62588380D01*
X121197761Y-62540761D01*
X121102523Y-62445523D01*
X121054904Y-62350285D01*
X121007285Y-62159809D01*
X121007285Y-62016952D01*
X121054904Y-61826476D01*
X121102523Y-61731238D01*
X121197761Y-61636000D01*
X121340619Y-61588380D01*
X121435857Y-61588380D01*
X121578714Y-61636000D01*
X121626333Y-61683619D01*
X122531095Y-61588380D02*
X122054904Y-61588380D01*
X122007285Y-62064571D01*
X122054904Y-62016952D01*
X122150142Y-61969333D01*
X122388238Y-61969333D01*
X122483476Y-62016952D01*
X122531095Y-62064571D01*
X122578714Y-62159809D01*
X122578714Y-62397904D01*
X122531095Y-62493142D01*
X122483476Y-62540761D01*
X122388238Y-62588380D01*
X122150142Y-62588380D01*
X122054904Y-62540761D01*
X122007285Y-62493142D01*
G04 #@! TO.C,H2*
X194818095Y-12232380D02*
X194818095Y-11232380D01*
X194818095Y-11708571D02*
X195389523Y-11708571D01*
X195389523Y-12232380D02*
X195389523Y-11232380D01*
X195818095Y-11327619D02*
X195865714Y-11280000D01*
X195960952Y-11232380D01*
X196199047Y-11232380D01*
X196294285Y-11280000D01*
X196341904Y-11327619D01*
X196389523Y-11422857D01*
X196389523Y-11518095D01*
X196341904Y-11660952D01*
X195770476Y-12232380D01*
X196389523Y-12232380D01*
G04 #@! TO.C,H1*
X105918095Y-12232380D02*
X105918095Y-11232380D01*
X105918095Y-11708571D02*
X106489523Y-11708571D01*
X106489523Y-12232380D02*
X106489523Y-11232380D01*
X107489523Y-12232380D02*
X106918095Y-12232380D01*
X107203809Y-12232380D02*
X107203809Y-11232380D01*
X107108571Y-11375238D01*
X107013333Y-11470476D01*
X106918095Y-11518095D01*
G04 #@! TO.C,J10*
X168242380Y-84725523D02*
X168956666Y-84725523D01*
X169099523Y-84773142D01*
X169194761Y-84868380D01*
X169242380Y-85011238D01*
X169242380Y-85106476D01*
X169242380Y-83725523D02*
X169242380Y-84296952D01*
X169242380Y-84011238D02*
X168242380Y-84011238D01*
X168385238Y-84106476D01*
X168480476Y-84201714D01*
X168528095Y-84296952D01*
X168242380Y-83106476D02*
X168242380Y-83011238D01*
X168290000Y-82916000D01*
X168337619Y-82868380D01*
X168432857Y-82820761D01*
X168623333Y-82773142D01*
X168861428Y-82773142D01*
X169051904Y-82820761D01*
X169147142Y-82868380D01*
X169194761Y-82916000D01*
X169242380Y-83011238D01*
X169242380Y-83106476D01*
X169194761Y-83201714D01*
X169147142Y-83249333D01*
X169051904Y-83296952D01*
X168861428Y-83344571D01*
X168623333Y-83344571D01*
X168432857Y-83296952D01*
X168337619Y-83249333D01*
X168290000Y-83201714D01*
X168242380Y-83106476D01*
G04 #@! TO.C,C8*
X170123142Y-60745666D02*
X170170761Y-60793285D01*
X170218380Y-60936142D01*
X170218380Y-61031380D01*
X170170761Y-61174238D01*
X170075523Y-61269476D01*
X169980285Y-61317095D01*
X169789809Y-61364714D01*
X169646952Y-61364714D01*
X169456476Y-61317095D01*
X169361238Y-61269476D01*
X169266000Y-61174238D01*
X169218380Y-61031380D01*
X169218380Y-60936142D01*
X169266000Y-60793285D01*
X169313619Y-60745666D01*
X169646952Y-60174238D02*
X169599333Y-60269476D01*
X169551714Y-60317095D01*
X169456476Y-60364714D01*
X169408857Y-60364714D01*
X169313619Y-60317095D01*
X169266000Y-60269476D01*
X169218380Y-60174238D01*
X169218380Y-59983761D01*
X169266000Y-59888523D01*
X169313619Y-59840904D01*
X169408857Y-59793285D01*
X169456476Y-59793285D01*
X169551714Y-59840904D01*
X169599333Y-59888523D01*
X169646952Y-59983761D01*
X169646952Y-60174238D01*
X169694571Y-60269476D01*
X169742190Y-60317095D01*
X169837428Y-60364714D01*
X170027904Y-60364714D01*
X170123142Y-60317095D01*
X170170761Y-60269476D01*
X170218380Y-60174238D01*
X170218380Y-59983761D01*
X170170761Y-59888523D01*
X170123142Y-59840904D01*
X170027904Y-59793285D01*
X169837428Y-59793285D01*
X169742190Y-59840904D01*
X169694571Y-59888523D01*
X169646952Y-59983761D01*
G04 #@! TO.C,R4*
X168313380Y-60745666D02*
X167837190Y-61079000D01*
X168313380Y-61317095D02*
X167313380Y-61317095D01*
X167313380Y-60936142D01*
X167361000Y-60840904D01*
X167408619Y-60793285D01*
X167503857Y-60745666D01*
X167646714Y-60745666D01*
X167741952Y-60793285D01*
X167789571Y-60840904D01*
X167837190Y-60936142D01*
X167837190Y-61317095D01*
X167646714Y-59888523D02*
X168313380Y-59888523D01*
X167265761Y-60126619D02*
X167980047Y-60364714D01*
X167980047Y-59745666D01*
G04 #@! TO.C,SW6*
X189694761Y-82613333D02*
X189742380Y-82470476D01*
X189742380Y-82232380D01*
X189694761Y-82137142D01*
X189647142Y-82089523D01*
X189551904Y-82041904D01*
X189456666Y-82041904D01*
X189361428Y-82089523D01*
X189313809Y-82137142D01*
X189266190Y-82232380D01*
X189218571Y-82422857D01*
X189170952Y-82518095D01*
X189123333Y-82565714D01*
X189028095Y-82613333D01*
X188932857Y-82613333D01*
X188837619Y-82565714D01*
X188790000Y-82518095D01*
X188742380Y-82422857D01*
X188742380Y-82184761D01*
X188790000Y-82041904D01*
X188742380Y-81708571D02*
X189742380Y-81470476D01*
X189028095Y-81280000D01*
X189742380Y-81089523D01*
X188742380Y-80851428D01*
X188742380Y-80041904D02*
X188742380Y-80232380D01*
X188790000Y-80327619D01*
X188837619Y-80375238D01*
X188980476Y-80470476D01*
X189170952Y-80518095D01*
X189551904Y-80518095D01*
X189647142Y-80470476D01*
X189694761Y-80422857D01*
X189742380Y-80327619D01*
X189742380Y-80137142D01*
X189694761Y-80041904D01*
X189647142Y-79994285D01*
X189551904Y-79946666D01*
X189313809Y-79946666D01*
X189218571Y-79994285D01*
X189170952Y-80041904D01*
X189123333Y-80137142D01*
X189123333Y-80327619D01*
X189170952Y-80422857D01*
X189218571Y-80470476D01*
X189313809Y-80518095D01*
G04 #@! TO.C,SW5*
X119844761Y-92773333D02*
X119892380Y-92630476D01*
X119892380Y-92392380D01*
X119844761Y-92297142D01*
X119797142Y-92249523D01*
X119701904Y-92201904D01*
X119606666Y-92201904D01*
X119511428Y-92249523D01*
X119463809Y-92297142D01*
X119416190Y-92392380D01*
X119368571Y-92582857D01*
X119320952Y-92678095D01*
X119273333Y-92725714D01*
X119178095Y-92773333D01*
X119082857Y-92773333D01*
X118987619Y-92725714D01*
X118940000Y-92678095D01*
X118892380Y-92582857D01*
X118892380Y-92344761D01*
X118940000Y-92201904D01*
X118892380Y-91868571D02*
X119892380Y-91630476D01*
X119178095Y-91440000D01*
X119892380Y-91249523D01*
X118892380Y-91011428D01*
X118892380Y-90154285D02*
X118892380Y-90630476D01*
X119368571Y-90678095D01*
X119320952Y-90630476D01*
X119273333Y-90535238D01*
X119273333Y-90297142D01*
X119320952Y-90201904D01*
X119368571Y-90154285D01*
X119463809Y-90106666D01*
X119701904Y-90106666D01*
X119797142Y-90154285D01*
X119844761Y-90201904D01*
X119892380Y-90297142D01*
X119892380Y-90535238D01*
X119844761Y-90630476D01*
X119797142Y-90678095D01*
G04 #@! TO.C,SW4*
X112224761Y-100393333D02*
X112272380Y-100250476D01*
X112272380Y-100012380D01*
X112224761Y-99917142D01*
X112177142Y-99869523D01*
X112081904Y-99821904D01*
X111986666Y-99821904D01*
X111891428Y-99869523D01*
X111843809Y-99917142D01*
X111796190Y-100012380D01*
X111748571Y-100202857D01*
X111700952Y-100298095D01*
X111653333Y-100345714D01*
X111558095Y-100393333D01*
X111462857Y-100393333D01*
X111367619Y-100345714D01*
X111320000Y-100298095D01*
X111272380Y-100202857D01*
X111272380Y-99964761D01*
X111320000Y-99821904D01*
X111272380Y-99488571D02*
X112272380Y-99250476D01*
X111558095Y-99060000D01*
X112272380Y-98869523D01*
X111272380Y-98631428D01*
X111605714Y-97821904D02*
X112272380Y-97821904D01*
X111224761Y-98060000D02*
X111939047Y-98298095D01*
X111939047Y-97679047D01*
G04 #@! TO.C,SW3*
X189694761Y-92773333D02*
X189742380Y-92630476D01*
X189742380Y-92392380D01*
X189694761Y-92297142D01*
X189647142Y-92249523D01*
X189551904Y-92201904D01*
X189456666Y-92201904D01*
X189361428Y-92249523D01*
X189313809Y-92297142D01*
X189266190Y-92392380D01*
X189218571Y-92582857D01*
X189170952Y-92678095D01*
X189123333Y-92725714D01*
X189028095Y-92773333D01*
X188932857Y-92773333D01*
X188837619Y-92725714D01*
X188790000Y-92678095D01*
X188742380Y-92582857D01*
X188742380Y-92344761D01*
X188790000Y-92201904D01*
X188742380Y-91868571D02*
X189742380Y-91630476D01*
X189028095Y-91440000D01*
X189742380Y-91249523D01*
X188742380Y-91011428D01*
X188742380Y-90725714D02*
X188742380Y-90106666D01*
X189123333Y-90440000D01*
X189123333Y-90297142D01*
X189170952Y-90201904D01*
X189218571Y-90154285D01*
X189313809Y-90106666D01*
X189551904Y-90106666D01*
X189647142Y-90154285D01*
X189694761Y-90201904D01*
X189742380Y-90297142D01*
X189742380Y-90582857D01*
X189694761Y-90678095D01*
X189647142Y-90725714D01*
G04 #@! TO.C,SW2*
X104604761Y-92773333D02*
X104652380Y-92630476D01*
X104652380Y-92392380D01*
X104604761Y-92297142D01*
X104557142Y-92249523D01*
X104461904Y-92201904D01*
X104366666Y-92201904D01*
X104271428Y-92249523D01*
X104223809Y-92297142D01*
X104176190Y-92392380D01*
X104128571Y-92582857D01*
X104080952Y-92678095D01*
X104033333Y-92725714D01*
X103938095Y-92773333D01*
X103842857Y-92773333D01*
X103747619Y-92725714D01*
X103700000Y-92678095D01*
X103652380Y-92582857D01*
X103652380Y-92344761D01*
X103700000Y-92201904D01*
X103652380Y-91868571D02*
X104652380Y-91630476D01*
X103938095Y-91440000D01*
X104652380Y-91249523D01*
X103652380Y-91011428D01*
X103747619Y-90678095D02*
X103700000Y-90630476D01*
X103652380Y-90535238D01*
X103652380Y-90297142D01*
X103700000Y-90201904D01*
X103747619Y-90154285D01*
X103842857Y-90106666D01*
X103938095Y-90106666D01*
X104080952Y-90154285D01*
X104652380Y-90725714D01*
X104652380Y-90106666D01*
G04 #@! TO.C,SW1*
X112224761Y-85153333D02*
X112272380Y-85010476D01*
X112272380Y-84772380D01*
X112224761Y-84677142D01*
X112177142Y-84629523D01*
X112081904Y-84581904D01*
X111986666Y-84581904D01*
X111891428Y-84629523D01*
X111843809Y-84677142D01*
X111796190Y-84772380D01*
X111748571Y-84962857D01*
X111700952Y-85058095D01*
X111653333Y-85105714D01*
X111558095Y-85153333D01*
X111462857Y-85153333D01*
X111367619Y-85105714D01*
X111320000Y-85058095D01*
X111272380Y-84962857D01*
X111272380Y-84724761D01*
X111320000Y-84581904D01*
X111272380Y-84248571D02*
X112272380Y-84010476D01*
X111558095Y-83820000D01*
X112272380Y-83629523D01*
X111272380Y-83391428D01*
X112272380Y-82486666D02*
X112272380Y-83058095D01*
X112272380Y-82772380D02*
X111272380Y-82772380D01*
X111415238Y-82867619D01*
X111510476Y-82962857D01*
X111558095Y-83058095D01*
G04 #@! TO.C,C7*
X170123142Y-35752166D02*
X170170761Y-35799785D01*
X170218380Y-35942642D01*
X170218380Y-36037880D01*
X170170761Y-36180738D01*
X170075523Y-36275976D01*
X169980285Y-36323595D01*
X169789809Y-36371214D01*
X169646952Y-36371214D01*
X169456476Y-36323595D01*
X169361238Y-36275976D01*
X169266000Y-36180738D01*
X169218380Y-36037880D01*
X169218380Y-35942642D01*
X169266000Y-35799785D01*
X169313619Y-35752166D01*
X169218380Y-35418833D02*
X169218380Y-34752166D01*
X170218380Y-35180738D01*
G04 #@! TO.C,C6*
X125436333Y-62493142D02*
X125388714Y-62540761D01*
X125245857Y-62588380D01*
X125150619Y-62588380D01*
X125007761Y-62540761D01*
X124912523Y-62445523D01*
X124864904Y-62350285D01*
X124817285Y-62159809D01*
X124817285Y-62016952D01*
X124864904Y-61826476D01*
X124912523Y-61731238D01*
X125007761Y-61636000D01*
X125150619Y-61588380D01*
X125245857Y-61588380D01*
X125388714Y-61636000D01*
X125436333Y-61683619D01*
X126293476Y-61588380D02*
X126103000Y-61588380D01*
X126007761Y-61636000D01*
X125960142Y-61683619D01*
X125864904Y-61826476D01*
X125817285Y-62016952D01*
X125817285Y-62397904D01*
X125864904Y-62493142D01*
X125912523Y-62540761D01*
X126007761Y-62588380D01*
X126198238Y-62588380D01*
X126293476Y-62540761D01*
X126341095Y-62493142D01*
X126388714Y-62397904D01*
X126388714Y-62159809D01*
X126341095Y-62064571D01*
X126293476Y-62016952D01*
X126198238Y-61969333D01*
X126007761Y-61969333D01*
X125912523Y-62016952D01*
X125864904Y-62064571D01*
X125817285Y-62159809D01*
G04 #@! TO.C,C4*
X167583142Y-35726666D02*
X167630761Y-35774285D01*
X167678380Y-35917142D01*
X167678380Y-36012380D01*
X167630761Y-36155238D01*
X167535523Y-36250476D01*
X167440285Y-36298095D01*
X167249809Y-36345714D01*
X167106952Y-36345714D01*
X166916476Y-36298095D01*
X166821238Y-36250476D01*
X166726000Y-36155238D01*
X166678380Y-36012380D01*
X166678380Y-35917142D01*
X166726000Y-35774285D01*
X166773619Y-35726666D01*
X167011714Y-34869523D02*
X167678380Y-34869523D01*
X166630761Y-35107619D02*
X167345047Y-35345714D01*
X167345047Y-34726666D01*
G04 #@! TO.C,C3*
X113498333Y-62493142D02*
X113450714Y-62540761D01*
X113307857Y-62588380D01*
X113212619Y-62588380D01*
X113069761Y-62540761D01*
X112974523Y-62445523D01*
X112926904Y-62350285D01*
X112879285Y-62159809D01*
X112879285Y-62016952D01*
X112926904Y-61826476D01*
X112974523Y-61731238D01*
X113069761Y-61636000D01*
X113212619Y-61588380D01*
X113307857Y-61588380D01*
X113450714Y-61636000D01*
X113498333Y-61683619D01*
X113831666Y-61588380D02*
X114450714Y-61588380D01*
X114117380Y-61969333D01*
X114260238Y-61969333D01*
X114355476Y-62016952D01*
X114403095Y-62064571D01*
X114450714Y-62159809D01*
X114450714Y-62397904D01*
X114403095Y-62493142D01*
X114355476Y-62540761D01*
X114260238Y-62588380D01*
X113974523Y-62588380D01*
X113879285Y-62540761D01*
X113831666Y-62493142D01*
G04 #@! TO.C,C2*
X117689333Y-62493142D02*
X117641714Y-62540761D01*
X117498857Y-62588380D01*
X117403619Y-62588380D01*
X117260761Y-62540761D01*
X117165523Y-62445523D01*
X117117904Y-62350285D01*
X117070285Y-62159809D01*
X117070285Y-62016952D01*
X117117904Y-61826476D01*
X117165523Y-61731238D01*
X117260761Y-61636000D01*
X117403619Y-61588380D01*
X117498857Y-61588380D01*
X117641714Y-61636000D01*
X117689333Y-61683619D01*
X118070285Y-61683619D02*
X118117904Y-61636000D01*
X118213142Y-61588380D01*
X118451238Y-61588380D01*
X118546476Y-61636000D01*
X118594095Y-61683619D01*
X118641714Y-61778857D01*
X118641714Y-61874095D01*
X118594095Y-62016952D01*
X118022666Y-62588380D01*
X118641714Y-62588380D01*
G04 #@! TD*
M02*
