M48
;DRILL file {KiCad (5.0.1)-3} date 2018-10-23 오전 12:37:17
;FORMAT={-:-/ absolute / metric / decimal}
FMAT,2
METRIC,TZ
T1C1.040
%
G90
G05
M71
T1
X114.86Y-25.4
X114.86Y-50.8
X117.4Y-25.4
X117.4Y-50.8
X119.94Y-25.4
X119.94Y-50.8
X122.48Y-25.4
X122.48Y-50.8
X125.02Y-25.4
X125.02Y-50.8
X127.56Y-25.4
X127.56Y-50.8
X130.1Y-25.4
X130.1Y-50.8
X132.64Y-25.4
X132.64Y-50.8
X135.18Y-25.4
X135.18Y-50.8
X137.72Y-25.4
X137.72Y-50.8
X140.26Y-25.4
X140.26Y-50.8
X142.8Y-25.4
X142.8Y-50.8
X145.34Y-25.4
X145.34Y-50.8
X147.88Y-25.4
X147.88Y-50.8
X150.42Y-25.4
X150.42Y-50.8
X152.96Y-25.4
X152.96Y-50.8
X155.5Y-25.4
X155.5Y-50.8
X158.04Y-25.4
X158.04Y-50.8
X160.58Y-25.4
X160.58Y-50.8
T0
M30
