G04 #@! TF.GenerationSoftware,KiCad,Pcbnew,(5.0.1)-3*
G04 #@! TF.CreationDate,2018-10-31T08:23:59+09:00*
G04 #@! TF.ProjectId,badge,62616467652E6B696361645F70636200,rev?*
G04 #@! TF.SameCoordinates,Original*
G04 #@! TF.FileFunction,Copper,L2,Bot,Signal*
G04 #@! TF.FilePolarity,Positive*
%FSLAX46Y46*%
G04 Gerber Fmt 4.6, Leading zero omitted, Abs format (unit mm)*
G04 Created by KiCad (PCBNEW (5.0.1)-3) date 2018-10-31 오전 8:23:59*
%MOMM*%
%LPD*%
G01*
G04 APERTURE LIST*
G04 #@! TA.AperFunction,ComponentPad*
%ADD10R,1.700000X1.700000*%
G04 #@! TD*
G04 #@! TA.AperFunction,ComponentPad*
%ADD11O,1.700000X1.700000*%
G04 #@! TD*
G04 #@! TA.AperFunction,ViaPad*
%ADD12C,0.800000*%
G04 #@! TD*
G04 #@! TA.AperFunction,Conductor*
%ADD13C,0.250000*%
G04 #@! TD*
G04 #@! TA.AperFunction,Conductor*
%ADD14C,0.254000*%
G04 #@! TD*
G04 APERTURE END LIST*
D10*
G04 #@! TO.P,J11,1*
G04 #@! TO.N,Net-(C9-Pad1)*
X176276000Y-23622000D03*
D11*
G04 #@! TO.P,J11,2*
G04 #@! TO.N,GND*
X178816000Y-23622000D03*
G04 #@! TO.P,J11,3*
G04 #@! TO.N,/GPIO32*
X181356000Y-23622000D03*
G04 #@! TO.P,J11,4*
G04 #@! TO.N,GND*
X183896000Y-23622000D03*
G04 #@! TO.P,J11,5*
G04 #@! TO.N,/GPIO36*
X186436000Y-23622000D03*
G04 #@! TO.P,J11,6*
G04 #@! TO.N,+3V3*
X188976000Y-23622000D03*
G04 #@! TD*
D10*
G04 #@! TO.P,J1,1*
G04 #@! TO.N,+3V3*
X176171893Y-30524875D03*
D11*
G04 #@! TO.P,J1,2*
G04 #@! TO.N,Net-(J1-Pad2)*
X173631893Y-30524875D03*
G04 #@! TO.P,J1,3*
G04 #@! TO.N,/GPIO36*
X171091893Y-30524875D03*
G04 #@! TO.P,J1,4*
G04 #@! TO.N,/GPIO39*
X168551893Y-30524875D03*
G04 #@! TO.P,J1,5*
G04 #@! TO.N,/GPIO34*
X166011893Y-30524875D03*
G04 #@! TO.P,J1,6*
G04 #@! TO.N,/GPIO35*
X163471893Y-30524875D03*
G04 #@! TO.P,J1,7*
G04 #@! TO.N,/GPIO32*
X160931893Y-30524875D03*
G04 #@! TO.P,J1,8*
G04 #@! TO.N,/GPIO33*
X158391893Y-30524875D03*
G04 #@! TO.P,J1,9*
G04 #@! TO.N,/GPIO25*
X155851893Y-30524875D03*
G04 #@! TO.P,J1,10*
G04 #@! TO.N,/GPIO26*
X153311893Y-30524875D03*
G04 #@! TO.P,J1,11*
G04 #@! TO.N,/GPIO27*
X150771893Y-30524875D03*
G04 #@! TO.P,J1,12*
G04 #@! TO.N,/GPIO14*
X148231893Y-30524875D03*
G04 #@! TO.P,J1,13*
G04 #@! TO.N,/GPIO12*
X145691893Y-30524875D03*
G04 #@! TO.P,J1,14*
G04 #@! TO.N,GND*
X143151893Y-30524875D03*
G04 #@! TO.P,J1,15*
G04 #@! TO.N,/GPIO13*
X140611893Y-30524875D03*
G04 #@! TO.P,J1,16*
G04 #@! TO.N,Net-(J1-Pad16)*
X138071893Y-30524875D03*
G04 #@! TO.P,J1,17*
G04 #@! TO.N,Net-(J1-Pad17)*
X135531893Y-30524875D03*
G04 #@! TO.P,J1,18*
G04 #@! TO.N,Net-(J1-Pad18)*
X132991893Y-30524875D03*
G04 #@! TO.P,J1,19*
G04 #@! TO.N,+5V*
X130451893Y-30524875D03*
G04 #@! TD*
D10*
G04 #@! TO.P,J4,1*
G04 #@! TO.N,+3V3*
X171091893Y-18303040D03*
D11*
G04 #@! TO.P,J4,2*
G04 #@! TO.N,GND*
X168551893Y-18303040D03*
G04 #@! TO.P,J4,3*
G04 #@! TO.N,/GPIO34*
X166011893Y-18303040D03*
G04 #@! TO.P,J4,4*
G04 #@! TO.N,/GPIO35*
X163471893Y-18303040D03*
G04 #@! TD*
G04 #@! TO.P,J6,4*
G04 #@! TO.N,/GPIO35*
X163471893Y-23383040D03*
G04 #@! TO.P,J6,3*
G04 #@! TO.N,/GPIO34*
X166011893Y-23383040D03*
G04 #@! TO.P,J6,2*
G04 #@! TO.N,GND*
X168551893Y-23383040D03*
D10*
G04 #@! TO.P,J6,1*
G04 #@! TO.N,+3V3*
X171091893Y-23383040D03*
G04 #@! TD*
D11*
G04 #@! TO.P,J8,6*
G04 #@! TO.N,/GPIO33*
X158450516Y-20704346D03*
G04 #@! TO.P,J8,5*
G04 #@! TO.N,/GPIO25*
X155910516Y-20704346D03*
G04 #@! TO.P,J8,4*
G04 #@! TO.N,/GPIO26*
X153370516Y-20704346D03*
G04 #@! TO.P,J8,3*
G04 #@! TO.N,/GPIO27*
X150830516Y-20704346D03*
G04 #@! TO.P,J8,2*
G04 #@! TO.N,GND*
X148290516Y-20704346D03*
D10*
G04 #@! TO.P,J8,1*
G04 #@! TO.N,+3V3*
X145750516Y-20704346D03*
G04 #@! TD*
G04 #@! TO.P,J9,1*
G04 #@! TO.N,+3V3*
X145750516Y-18164346D03*
D11*
G04 #@! TO.P,J9,2*
G04 #@! TO.N,GND*
X148290516Y-18164346D03*
G04 #@! TO.P,J9,3*
G04 #@! TO.N,/GPIO27*
X150830516Y-18164346D03*
G04 #@! TO.P,J9,4*
G04 #@! TO.N,/GPIO26*
X153370516Y-18164346D03*
G04 #@! TO.P,J9,5*
G04 #@! TO.N,/GPIO25*
X155910516Y-18164346D03*
G04 #@! TO.P,J9,6*
G04 #@! TO.N,/GPIO33*
X158450516Y-18164346D03*
G04 #@! TD*
D10*
G04 #@! TO.P,J7,1*
G04 #@! TO.N,+3V3*
X145750516Y-23244346D03*
D11*
G04 #@! TO.P,J7,2*
G04 #@! TO.N,GND*
X148290516Y-23244346D03*
G04 #@! TO.P,J7,3*
G04 #@! TO.N,/GPIO27*
X150830516Y-23244346D03*
G04 #@! TO.P,J7,4*
G04 #@! TO.N,/GPIO26*
X153370516Y-23244346D03*
G04 #@! TO.P,J7,5*
G04 #@! TO.N,/GPIO25*
X155910516Y-23244346D03*
G04 #@! TO.P,J7,6*
G04 #@! TO.N,/GPIO33*
X158450516Y-23244346D03*
G04 #@! TD*
G04 #@! TO.P,J5,4*
G04 #@! TO.N,/GPIO35*
X163471893Y-20843040D03*
G04 #@! TO.P,J5,3*
G04 #@! TO.N,/GPIO34*
X166011893Y-20843040D03*
G04 #@! TO.P,J5,2*
G04 #@! TO.N,GND*
X168551893Y-20843040D03*
D10*
G04 #@! TO.P,J5,1*
G04 #@! TO.N,+3V3*
X171091893Y-20843040D03*
G04 #@! TD*
D11*
G04 #@! TO.P,J2,19*
G04 #@! TO.N,Net-(J2-Pad19)*
X130451893Y-55924875D03*
G04 #@! TO.P,J2,18*
G04 #@! TO.N,Net-(J2-Pad18)*
X132991893Y-55924875D03*
G04 #@! TO.P,J2,17*
G04 #@! TO.N,Net-(J2-Pad17)*
X135531893Y-55924875D03*
G04 #@! TO.P,J2,16*
G04 #@! TO.N,/GPIO15*
X138071893Y-55924875D03*
G04 #@! TO.P,J2,15*
G04 #@! TO.N,/GPIO2*
X140611893Y-55924875D03*
G04 #@! TO.P,J2,14*
G04 #@! TO.N,Net-(J2-Pad14)*
X143151893Y-55924875D03*
G04 #@! TO.P,J2,13*
G04 #@! TO.N,/GPIO4*
X145691893Y-55924875D03*
G04 #@! TO.P,J2,12*
G04 #@! TO.N,/GPIO16*
X148231893Y-55924875D03*
G04 #@! TO.P,J2,11*
G04 #@! TO.N,/GPIO17*
X150771893Y-55924875D03*
G04 #@! TO.P,J2,10*
G04 #@! TO.N,/VSPI_CS*
X153311893Y-55924875D03*
G04 #@! TO.P,J2,9*
G04 #@! TO.N,/VSPI_SCK*
X155851893Y-55924875D03*
G04 #@! TO.P,J2,8*
G04 #@! TO.N,/VSPI_MISO*
X158391893Y-55924875D03*
G04 #@! TO.P,J2,7*
G04 #@! TO.N,GND*
X160931893Y-55924875D03*
G04 #@! TO.P,J2,6*
G04 #@! TO.N,/LCD_RST*
X163471893Y-55924875D03*
G04 #@! TO.P,J2,5*
G04 #@! TO.N,Net-(J2-Pad5)*
X166011893Y-55924875D03*
G04 #@! TO.P,J2,4*
G04 #@! TO.N,Net-(J2-Pad4)*
X168551893Y-55924875D03*
G04 #@! TO.P,J2,3*
G04 #@! TO.N,/LCD_DC*
X171091893Y-55924875D03*
G04 #@! TO.P,J2,2*
G04 #@! TO.N,/VSPI_MOSI*
X173631893Y-55924875D03*
D10*
G04 #@! TO.P,J2,1*
G04 #@! TO.N,GND*
X176171893Y-55924875D03*
G04 #@! TD*
D12*
G04 #@! TO.N,/LCD_DC*
X181102000Y-66040000D03*
G04 #@! TO.N,/LCD_RST*
X163576000Y-84709000D03*
G04 #@! TO.N,GND*
X107320000Y-84010500D03*
X114178000Y-89789000D03*
X124841000Y-83629500D03*
X117978000Y-77533500D03*
X194188000Y-87884000D03*
X149606000Y-59791500D03*
X173990000Y-90678000D03*
X122428000Y-68072000D03*
G04 #@! TO.N,/VSPI_SCK*
X155829000Y-75819000D03*
G04 #@! TO.N,/VSPI_MOSI*
X180086000Y-62484000D03*
G04 #@! TD*
D13*
G04 #@! TO.N,/LCD_DC*
X171091893Y-56029893D02*
X171091893Y-55924875D01*
X181102000Y-66040000D02*
X171091893Y-56029893D01*
G04 #@! TO.N,/LCD_RST*
X163576000Y-56028982D02*
X163471893Y-55924875D01*
X163576000Y-84709000D02*
X163576000Y-56028982D01*
G04 #@! TO.N,GND*
X158496000Y-15240000D02*
X158750000Y-15240000D01*
X121793000Y-107696000D02*
X121412000Y-107696000D01*
X175006000Y-107696000D02*
X121793000Y-107696000D01*
X121158000Y-107696000D02*
X121666000Y-107696000D01*
X121666000Y-107696000D02*
X121539000Y-107696000D01*
X121793000Y-107696000D02*
X121666000Y-107696000D01*
X104267000Y-90805000D02*
X121158000Y-107696000D01*
X104267000Y-84010500D02*
X107320000Y-84010500D01*
X104267000Y-84010500D02*
X104267000Y-90805000D01*
X108399500Y-84010500D02*
X114178000Y-89789000D01*
X107320000Y-84010500D02*
X108399500Y-84010500D01*
X114178000Y-89789000D02*
X118681500Y-89789000D01*
X118681500Y-89789000D02*
X124841000Y-83629500D01*
X114876500Y-77533500D02*
X117978000Y-77533500D01*
X108399500Y-84010500D02*
X114876500Y-77533500D01*
X104267000Y-62928500D02*
X104267000Y-84010500D01*
X148183500Y-61214000D02*
X105981500Y-61214000D01*
X105981500Y-61214000D02*
X104267000Y-62928500D01*
X173163018Y-51816000D02*
X176171893Y-54824875D01*
X165040768Y-51816000D02*
X173163018Y-51816000D01*
X160931893Y-55924875D02*
X165040768Y-51816000D01*
X194188000Y-72840982D02*
X194188000Y-87884000D01*
X177271893Y-55924875D02*
X194188000Y-72840982D01*
X176171893Y-55924875D02*
X177271893Y-55924875D01*
X194188000Y-97658000D02*
X194188000Y-87884000D01*
X184150000Y-107696000D02*
X194188000Y-97658000D01*
X160998697Y-15277303D02*
X161036000Y-15240000D01*
X161036000Y-15240000D02*
X158750000Y-15240000D01*
X148183500Y-61214000D02*
X149606000Y-59791500D01*
X175006000Y-91694000D02*
X175006000Y-107696000D01*
X173990000Y-90678000D02*
X175006000Y-91694000D01*
X175006000Y-107696000D02*
X184150000Y-107696000D01*
X168656000Y-22076852D02*
X168656000Y-15240000D01*
X168551893Y-22180959D02*
X168656000Y-22076852D01*
X168551893Y-23383040D02*
X168551893Y-22180959D01*
X175514000Y-15240000D02*
X168656000Y-15240000D01*
X168656000Y-15240000D02*
X161036000Y-15240000D01*
X176058999Y-54711981D02*
X176171893Y-54824875D01*
X179665999Y-22772001D02*
X181356000Y-21082000D01*
X178816000Y-23622000D02*
X179665999Y-22772001D01*
X183896000Y-23622000D02*
X181356000Y-21082000D01*
X181356000Y-21082000D02*
X175514000Y-15240000D01*
X148290516Y-25386252D02*
X148290516Y-18164346D01*
X143151893Y-30524875D02*
X148290516Y-25386252D01*
X151214862Y-15240000D02*
X158750000Y-15240000D01*
X148290516Y-18164346D02*
X151214862Y-15240000D01*
X183896000Y-47100768D02*
X183896000Y-23622000D01*
X176171893Y-54824875D02*
X183896000Y-47100768D01*
X176171893Y-55924875D02*
X176171893Y-54824875D01*
X117978000Y-71956315D02*
X117978000Y-77533500D01*
X121862315Y-68072000D02*
X117978000Y-71956315D01*
X122428000Y-68072000D02*
X121862315Y-68072000D01*
G04 #@! TO.N,/VSPI_SCK*
X155829000Y-55947768D02*
X155851893Y-55924875D01*
X155829000Y-75819000D02*
X155829000Y-55947768D01*
G04 #@! TO.N,/VSPI_MOSI*
X173631893Y-56029893D02*
X173631893Y-55924875D01*
X180086000Y-62484000D02*
X173631893Y-56029893D01*
G04 #@! TO.N,/GPIO32*
X181356000Y-23622000D02*
X178054000Y-26924000D01*
X164532768Y-26924000D02*
X160931893Y-30524875D01*
X178054000Y-26924000D02*
X164532768Y-26924000D01*
G04 #@! TD*
D14*
G04 #@! TO.N,GND*
G36*
X187833000Y-22659692D02*
X187706000Y-22849761D01*
X187506625Y-22551375D01*
X187015418Y-22223161D01*
X186582256Y-22137000D01*
X186289744Y-22137000D01*
X185856582Y-22223161D01*
X185365375Y-22551375D01*
X185152157Y-22870478D01*
X185091183Y-22740642D01*
X184662924Y-22350355D01*
X184252890Y-22180524D01*
X184023000Y-22301845D01*
X184023000Y-23495000D01*
X184043000Y-23495000D01*
X184043000Y-23749000D01*
X184023000Y-23749000D01*
X184023000Y-24942155D01*
X184252890Y-25063476D01*
X184662924Y-24893645D01*
X185091183Y-24503358D01*
X185152157Y-24373522D01*
X185365375Y-24692625D01*
X185856582Y-25020839D01*
X186289744Y-25107000D01*
X186582256Y-25107000D01*
X187015418Y-25020839D01*
X187506625Y-24692625D01*
X187706000Y-24394239D01*
X187905375Y-24692625D01*
X188396582Y-25020839D01*
X188829744Y-25107000D01*
X189122256Y-25107000D01*
X189555418Y-25020839D01*
X190046625Y-24692625D01*
X190370836Y-24207408D01*
X192983204Y-25513592D01*
X193040000Y-25527000D01*
X197993000Y-25527000D01*
X197993000Y-98933000D01*
X193040000Y-98933000D01*
X192991399Y-98942667D01*
X192950197Y-98970197D01*
X187870197Y-104050197D01*
X187842667Y-104091399D01*
X187833000Y-104140000D01*
X187833000Y-109093000D01*
X114427000Y-109093000D01*
X114427000Y-104140000D01*
X114417333Y-104091399D01*
X114389803Y-104050197D01*
X109309803Y-98970197D01*
X109268601Y-98942667D01*
X109220000Y-98933000D01*
X104267000Y-98933000D01*
X104267000Y-64528126D01*
X113301000Y-64528126D01*
X113301000Y-64939874D01*
X113458569Y-65320280D01*
X113749720Y-65611431D01*
X114130126Y-65769000D01*
X114541874Y-65769000D01*
X114922280Y-65611431D01*
X115213431Y-65320280D01*
X115371000Y-64939874D01*
X115371000Y-64528126D01*
X117801000Y-64528126D01*
X117801000Y-64939874D01*
X117958569Y-65320280D01*
X118249720Y-65611431D01*
X118630126Y-65769000D01*
X119041874Y-65769000D01*
X119422280Y-65611431D01*
X119713431Y-65320280D01*
X119871000Y-64939874D01*
X119871000Y-64528126D01*
X119713431Y-64147720D01*
X119422280Y-63856569D01*
X119041874Y-63699000D01*
X118630126Y-63699000D01*
X118249720Y-63856569D01*
X117958569Y-64147720D01*
X117801000Y-64528126D01*
X115371000Y-64528126D01*
X115213431Y-64147720D01*
X114922280Y-63856569D01*
X114541874Y-63699000D01*
X114130126Y-63699000D01*
X113749720Y-63856569D01*
X113458569Y-64147720D01*
X113301000Y-64528126D01*
X104267000Y-64528126D01*
X104267000Y-55924875D01*
X128937801Y-55924875D01*
X129053054Y-56504293D01*
X129381268Y-56995500D01*
X129872475Y-57323714D01*
X130305637Y-57409875D01*
X130598149Y-57409875D01*
X131031311Y-57323714D01*
X131522518Y-56995500D01*
X131721893Y-56697114D01*
X131921268Y-56995500D01*
X132412475Y-57323714D01*
X132845637Y-57409875D01*
X133138149Y-57409875D01*
X133571311Y-57323714D01*
X134062518Y-56995500D01*
X134261893Y-56697114D01*
X134461268Y-56995500D01*
X134952475Y-57323714D01*
X135385637Y-57409875D01*
X135678149Y-57409875D01*
X136111311Y-57323714D01*
X136602518Y-56995500D01*
X136801893Y-56697114D01*
X137001268Y-56995500D01*
X137492475Y-57323714D01*
X137925637Y-57409875D01*
X138218149Y-57409875D01*
X138651311Y-57323714D01*
X139142518Y-56995500D01*
X139341893Y-56697114D01*
X139541268Y-56995500D01*
X140032475Y-57323714D01*
X140465637Y-57409875D01*
X140758149Y-57409875D01*
X141191311Y-57323714D01*
X141682518Y-56995500D01*
X141881893Y-56697114D01*
X142081268Y-56995500D01*
X142572475Y-57323714D01*
X143005637Y-57409875D01*
X143298149Y-57409875D01*
X143731311Y-57323714D01*
X144222518Y-56995500D01*
X144421893Y-56697114D01*
X144621268Y-56995500D01*
X145112475Y-57323714D01*
X145545637Y-57409875D01*
X145838149Y-57409875D01*
X146271311Y-57323714D01*
X146762518Y-56995500D01*
X146961893Y-56697114D01*
X147161268Y-56995500D01*
X147652475Y-57323714D01*
X148085637Y-57409875D01*
X148378149Y-57409875D01*
X148811311Y-57323714D01*
X149302518Y-56995500D01*
X149501893Y-56697114D01*
X149701268Y-56995500D01*
X150192475Y-57323714D01*
X150625637Y-57409875D01*
X150918149Y-57409875D01*
X151351311Y-57323714D01*
X151842518Y-56995500D01*
X152041893Y-56697114D01*
X152241268Y-56995500D01*
X152732475Y-57323714D01*
X153165637Y-57409875D01*
X153458149Y-57409875D01*
X153891311Y-57323714D01*
X154382518Y-56995500D01*
X154581893Y-56697114D01*
X154781268Y-56995500D01*
X155069001Y-57187757D01*
X155069000Y-75115289D01*
X154951569Y-75232720D01*
X154794000Y-75613126D01*
X154794000Y-76024874D01*
X154951569Y-76405280D01*
X155242720Y-76696431D01*
X155623126Y-76854000D01*
X156034874Y-76854000D01*
X156415280Y-76696431D01*
X156706431Y-76405280D01*
X156864000Y-76024874D01*
X156864000Y-75613126D01*
X156706431Y-75232720D01*
X156589000Y-75115289D01*
X156589000Y-57218350D01*
X156922518Y-56995500D01*
X157121893Y-56697114D01*
X157321268Y-56995500D01*
X157812475Y-57323714D01*
X158245637Y-57409875D01*
X158538149Y-57409875D01*
X158971311Y-57323714D01*
X159462518Y-56995500D01*
X159675736Y-56676397D01*
X159736710Y-56806233D01*
X160164969Y-57196520D01*
X160575003Y-57366351D01*
X160804893Y-57245030D01*
X160804893Y-56051875D01*
X160784893Y-56051875D01*
X160784893Y-55797875D01*
X160804893Y-55797875D01*
X160804893Y-54604720D01*
X161058893Y-54604720D01*
X161058893Y-55797875D01*
X161078893Y-55797875D01*
X161078893Y-56051875D01*
X161058893Y-56051875D01*
X161058893Y-57245030D01*
X161288783Y-57366351D01*
X161698817Y-57196520D01*
X162127076Y-56806233D01*
X162188050Y-56676397D01*
X162401268Y-56995500D01*
X162816001Y-57272616D01*
X162816000Y-84005289D01*
X162698569Y-84122720D01*
X162541000Y-84503126D01*
X162541000Y-84914874D01*
X162698569Y-85295280D01*
X162989720Y-85586431D01*
X163370126Y-85744000D01*
X163781874Y-85744000D01*
X164162280Y-85586431D01*
X164453431Y-85295280D01*
X164611000Y-84914874D01*
X164611000Y-84503126D01*
X164453431Y-84122720D01*
X164336000Y-84005289D01*
X164336000Y-57133491D01*
X164542518Y-56995500D01*
X164741893Y-56697114D01*
X164941268Y-56995500D01*
X165432475Y-57323714D01*
X165865637Y-57409875D01*
X166158149Y-57409875D01*
X166591311Y-57323714D01*
X167082518Y-56995500D01*
X167281893Y-56697114D01*
X167481268Y-56995500D01*
X167972475Y-57323714D01*
X168405637Y-57409875D01*
X168698149Y-57409875D01*
X169131311Y-57323714D01*
X169622518Y-56995500D01*
X169821893Y-56697114D01*
X170021268Y-56995500D01*
X170512475Y-57323714D01*
X170945637Y-57409875D01*
X171238149Y-57409875D01*
X171370707Y-57383508D01*
X180067000Y-66079802D01*
X180067000Y-66245874D01*
X180224569Y-66626280D01*
X180515720Y-66917431D01*
X180896126Y-67075000D01*
X181307874Y-67075000D01*
X181688280Y-66917431D01*
X181979431Y-66626280D01*
X182137000Y-66245874D01*
X182137000Y-65834126D01*
X181979431Y-65453720D01*
X181688280Y-65162569D01*
X181307874Y-65005000D01*
X181141802Y-65005000D01*
X173546676Y-57409875D01*
X173778149Y-57409875D01*
X173910707Y-57383508D01*
X179051000Y-62523802D01*
X179051000Y-62689874D01*
X179208569Y-63070280D01*
X179499720Y-63361431D01*
X179880126Y-63519000D01*
X180291874Y-63519000D01*
X180672280Y-63361431D01*
X180963431Y-63070280D01*
X181121000Y-62689874D01*
X181121000Y-62278126D01*
X180963431Y-61897720D01*
X180672280Y-61606569D01*
X180291874Y-61449000D01*
X180125802Y-61449000D01*
X175986410Y-57309608D01*
X176044893Y-57251125D01*
X176044893Y-56051875D01*
X176298893Y-56051875D01*
X176298893Y-57251125D01*
X176457643Y-57409875D01*
X177148203Y-57409875D01*
X177381592Y-57313202D01*
X177560220Y-57134573D01*
X177656893Y-56901184D01*
X177656893Y-56210625D01*
X177498143Y-56051875D01*
X176298893Y-56051875D01*
X176044893Y-56051875D01*
X176024893Y-56051875D01*
X176024893Y-55797875D01*
X176044893Y-55797875D01*
X176044893Y-54598625D01*
X176298893Y-54598625D01*
X176298893Y-55797875D01*
X177498143Y-55797875D01*
X177656893Y-55639125D01*
X177656893Y-54948566D01*
X177560220Y-54715177D01*
X177381592Y-54536548D01*
X177148203Y-54439875D01*
X176457643Y-54439875D01*
X176298893Y-54598625D01*
X176044893Y-54598625D01*
X175886143Y-54439875D01*
X175195583Y-54439875D01*
X174962194Y-54536548D01*
X174783566Y-54715177D01*
X174716989Y-54875908D01*
X174702518Y-54854250D01*
X174211311Y-54526036D01*
X173778149Y-54439875D01*
X173485637Y-54439875D01*
X173052475Y-54526036D01*
X172561268Y-54854250D01*
X172361893Y-55152636D01*
X172162518Y-54854250D01*
X171671311Y-54526036D01*
X171238149Y-54439875D01*
X170945637Y-54439875D01*
X170512475Y-54526036D01*
X170021268Y-54854250D01*
X169821893Y-55152636D01*
X169622518Y-54854250D01*
X169131311Y-54526036D01*
X168698149Y-54439875D01*
X168405637Y-54439875D01*
X167972475Y-54526036D01*
X167481268Y-54854250D01*
X167281893Y-55152636D01*
X167082518Y-54854250D01*
X166591311Y-54526036D01*
X166158149Y-54439875D01*
X165865637Y-54439875D01*
X165432475Y-54526036D01*
X164941268Y-54854250D01*
X164741893Y-55152636D01*
X164542518Y-54854250D01*
X164051311Y-54526036D01*
X163618149Y-54439875D01*
X163325637Y-54439875D01*
X162892475Y-54526036D01*
X162401268Y-54854250D01*
X162188050Y-55173353D01*
X162127076Y-55043517D01*
X161698817Y-54653230D01*
X161288783Y-54483399D01*
X161058893Y-54604720D01*
X160804893Y-54604720D01*
X160575003Y-54483399D01*
X160164969Y-54653230D01*
X159736710Y-55043517D01*
X159675736Y-55173353D01*
X159462518Y-54854250D01*
X158971311Y-54526036D01*
X158538149Y-54439875D01*
X158245637Y-54439875D01*
X157812475Y-54526036D01*
X157321268Y-54854250D01*
X157121893Y-55152636D01*
X156922518Y-54854250D01*
X156431311Y-54526036D01*
X155998149Y-54439875D01*
X155705637Y-54439875D01*
X155272475Y-54526036D01*
X154781268Y-54854250D01*
X154581893Y-55152636D01*
X154382518Y-54854250D01*
X153891311Y-54526036D01*
X153458149Y-54439875D01*
X153165637Y-54439875D01*
X152732475Y-54526036D01*
X152241268Y-54854250D01*
X152041893Y-55152636D01*
X151842518Y-54854250D01*
X151351311Y-54526036D01*
X150918149Y-54439875D01*
X150625637Y-54439875D01*
X150192475Y-54526036D01*
X149701268Y-54854250D01*
X149501893Y-55152636D01*
X149302518Y-54854250D01*
X148811311Y-54526036D01*
X148378149Y-54439875D01*
X148085637Y-54439875D01*
X147652475Y-54526036D01*
X147161268Y-54854250D01*
X146961893Y-55152636D01*
X146762518Y-54854250D01*
X146271311Y-54526036D01*
X145838149Y-54439875D01*
X145545637Y-54439875D01*
X145112475Y-54526036D01*
X144621268Y-54854250D01*
X144421893Y-55152636D01*
X144222518Y-54854250D01*
X143731311Y-54526036D01*
X143298149Y-54439875D01*
X143005637Y-54439875D01*
X142572475Y-54526036D01*
X142081268Y-54854250D01*
X141881893Y-55152636D01*
X141682518Y-54854250D01*
X141191311Y-54526036D01*
X140758149Y-54439875D01*
X140465637Y-54439875D01*
X140032475Y-54526036D01*
X139541268Y-54854250D01*
X139341893Y-55152636D01*
X139142518Y-54854250D01*
X138651311Y-54526036D01*
X138218149Y-54439875D01*
X137925637Y-54439875D01*
X137492475Y-54526036D01*
X137001268Y-54854250D01*
X136801893Y-55152636D01*
X136602518Y-54854250D01*
X136111311Y-54526036D01*
X135678149Y-54439875D01*
X135385637Y-54439875D01*
X134952475Y-54526036D01*
X134461268Y-54854250D01*
X134261893Y-55152636D01*
X134062518Y-54854250D01*
X133571311Y-54526036D01*
X133138149Y-54439875D01*
X132845637Y-54439875D01*
X132412475Y-54526036D01*
X131921268Y-54854250D01*
X131721893Y-55152636D01*
X131522518Y-54854250D01*
X131031311Y-54526036D01*
X130598149Y-54439875D01*
X130305637Y-54439875D01*
X129872475Y-54526036D01*
X129381268Y-54854250D01*
X129053054Y-55345457D01*
X128937801Y-55924875D01*
X104267000Y-55924875D01*
X104267000Y-37138259D01*
X114545000Y-37138259D01*
X114545000Y-39061741D01*
X114672685Y-39370000D01*
X114545000Y-39678259D01*
X114545000Y-41601741D01*
X115281085Y-43378807D01*
X116641193Y-44738915D01*
X118418259Y-45475000D01*
X120341741Y-45475000D01*
X122118807Y-44738915D01*
X123478915Y-43378807D01*
X124215000Y-41601741D01*
X124215000Y-39678259D01*
X124087315Y-39370000D01*
X124215000Y-39061741D01*
X124215000Y-37138259D01*
X123478915Y-35361193D01*
X122118807Y-34001085D01*
X120341741Y-33265000D01*
X118418259Y-33265000D01*
X116641193Y-34001085D01*
X115281085Y-35361193D01*
X114545000Y-37138259D01*
X104267000Y-37138259D01*
X104267000Y-30524875D01*
X128937801Y-30524875D01*
X129053054Y-31104293D01*
X129381268Y-31595500D01*
X129872475Y-31923714D01*
X130305637Y-32009875D01*
X130598149Y-32009875D01*
X131031311Y-31923714D01*
X131522518Y-31595500D01*
X131721893Y-31297114D01*
X131921268Y-31595500D01*
X132412475Y-31923714D01*
X132845637Y-32009875D01*
X133138149Y-32009875D01*
X133571311Y-31923714D01*
X134062518Y-31595500D01*
X134261893Y-31297114D01*
X134461268Y-31595500D01*
X134952475Y-31923714D01*
X135385637Y-32009875D01*
X135678149Y-32009875D01*
X136111311Y-31923714D01*
X136602518Y-31595500D01*
X136801893Y-31297114D01*
X137001268Y-31595500D01*
X137492475Y-31923714D01*
X137925637Y-32009875D01*
X138218149Y-32009875D01*
X138651311Y-31923714D01*
X139142518Y-31595500D01*
X139341893Y-31297114D01*
X139541268Y-31595500D01*
X140032475Y-31923714D01*
X140465637Y-32009875D01*
X140758149Y-32009875D01*
X141191311Y-31923714D01*
X141682518Y-31595500D01*
X141895736Y-31276397D01*
X141956710Y-31406233D01*
X142384969Y-31796520D01*
X142795003Y-31966351D01*
X143024893Y-31845030D01*
X143024893Y-30651875D01*
X143004893Y-30651875D01*
X143004893Y-30397875D01*
X143024893Y-30397875D01*
X143024893Y-29204720D01*
X143278893Y-29204720D01*
X143278893Y-30397875D01*
X143298893Y-30397875D01*
X143298893Y-30651875D01*
X143278893Y-30651875D01*
X143278893Y-31845030D01*
X143508783Y-31966351D01*
X143918817Y-31796520D01*
X144347076Y-31406233D01*
X144408050Y-31276397D01*
X144621268Y-31595500D01*
X145112475Y-31923714D01*
X145545637Y-32009875D01*
X145838149Y-32009875D01*
X146271311Y-31923714D01*
X146762518Y-31595500D01*
X146961893Y-31297114D01*
X147161268Y-31595500D01*
X147652475Y-31923714D01*
X148085637Y-32009875D01*
X148378149Y-32009875D01*
X148811311Y-31923714D01*
X149302518Y-31595500D01*
X149501893Y-31297114D01*
X149701268Y-31595500D01*
X150192475Y-31923714D01*
X150625637Y-32009875D01*
X150918149Y-32009875D01*
X151351311Y-31923714D01*
X151842518Y-31595500D01*
X152041893Y-31297114D01*
X152241268Y-31595500D01*
X152732475Y-31923714D01*
X153165637Y-32009875D01*
X153458149Y-32009875D01*
X153891311Y-31923714D01*
X154382518Y-31595500D01*
X154581893Y-31297114D01*
X154781268Y-31595500D01*
X155272475Y-31923714D01*
X155705637Y-32009875D01*
X155998149Y-32009875D01*
X156431311Y-31923714D01*
X156922518Y-31595500D01*
X157121893Y-31297114D01*
X157321268Y-31595500D01*
X157812475Y-31923714D01*
X158245637Y-32009875D01*
X158538149Y-32009875D01*
X158971311Y-31923714D01*
X159462518Y-31595500D01*
X159661893Y-31297114D01*
X159861268Y-31595500D01*
X160352475Y-31923714D01*
X160785637Y-32009875D01*
X161078149Y-32009875D01*
X161511311Y-31923714D01*
X162002518Y-31595500D01*
X162201893Y-31297114D01*
X162401268Y-31595500D01*
X162892475Y-31923714D01*
X163325637Y-32009875D01*
X163618149Y-32009875D01*
X164051311Y-31923714D01*
X164542518Y-31595500D01*
X164741893Y-31297114D01*
X164941268Y-31595500D01*
X165432475Y-31923714D01*
X165865637Y-32009875D01*
X166158149Y-32009875D01*
X166591311Y-31923714D01*
X167082518Y-31595500D01*
X167281893Y-31297114D01*
X167481268Y-31595500D01*
X167972475Y-31923714D01*
X168405637Y-32009875D01*
X168698149Y-32009875D01*
X169131311Y-31923714D01*
X169622518Y-31595500D01*
X169821893Y-31297114D01*
X170021268Y-31595500D01*
X170512475Y-31923714D01*
X170945637Y-32009875D01*
X171238149Y-32009875D01*
X171671311Y-31923714D01*
X172162518Y-31595500D01*
X172361893Y-31297114D01*
X172561268Y-31595500D01*
X173052475Y-31923714D01*
X173485637Y-32009875D01*
X173778149Y-32009875D01*
X174211311Y-31923714D01*
X174702518Y-31595500D01*
X174714709Y-31577256D01*
X174723736Y-31622640D01*
X174864084Y-31832684D01*
X175074128Y-31973032D01*
X175321893Y-32022315D01*
X177021893Y-32022315D01*
X177269658Y-31973032D01*
X177479702Y-31832684D01*
X177620050Y-31622640D01*
X177669333Y-31374875D01*
X177669333Y-29674875D01*
X177620050Y-29427110D01*
X177479702Y-29217066D01*
X177269658Y-29076718D01*
X177021893Y-29027435D01*
X175321893Y-29027435D01*
X175074128Y-29076718D01*
X174864084Y-29217066D01*
X174723736Y-29427110D01*
X174714709Y-29472494D01*
X174702518Y-29454250D01*
X174211311Y-29126036D01*
X173778149Y-29039875D01*
X173485637Y-29039875D01*
X173052475Y-29126036D01*
X172561268Y-29454250D01*
X172361893Y-29752636D01*
X172162518Y-29454250D01*
X171671311Y-29126036D01*
X171238149Y-29039875D01*
X170945637Y-29039875D01*
X170512475Y-29126036D01*
X170021268Y-29454250D01*
X169821893Y-29752636D01*
X169622518Y-29454250D01*
X169131311Y-29126036D01*
X168698149Y-29039875D01*
X168405637Y-29039875D01*
X167972475Y-29126036D01*
X167481268Y-29454250D01*
X167281893Y-29752636D01*
X167082518Y-29454250D01*
X166591311Y-29126036D01*
X166158149Y-29039875D01*
X165865637Y-29039875D01*
X165432475Y-29126036D01*
X164941268Y-29454250D01*
X164741893Y-29752636D01*
X164542518Y-29454250D01*
X164051311Y-29126036D01*
X163618149Y-29039875D01*
X163491695Y-29039875D01*
X164847570Y-27684000D01*
X177979153Y-27684000D01*
X178054000Y-27698888D01*
X178128847Y-27684000D01*
X178128852Y-27684000D01*
X178350537Y-27639904D01*
X178601929Y-27471929D01*
X178644331Y-27408470D01*
X180989592Y-25063209D01*
X181209744Y-25107000D01*
X181502256Y-25107000D01*
X181935418Y-25020839D01*
X182426625Y-24692625D01*
X182639843Y-24373522D01*
X182700817Y-24503358D01*
X183129076Y-24893645D01*
X183539110Y-25063476D01*
X183769000Y-24942155D01*
X183769000Y-23749000D01*
X183749000Y-23749000D01*
X183749000Y-23495000D01*
X183769000Y-23495000D01*
X183769000Y-22301845D01*
X183539110Y-22180524D01*
X183129076Y-22350355D01*
X182700817Y-22740642D01*
X182639843Y-22870478D01*
X182426625Y-22551375D01*
X181935418Y-22223161D01*
X181502256Y-22137000D01*
X181209744Y-22137000D01*
X180776582Y-22223161D01*
X180285375Y-22551375D01*
X180072157Y-22870478D01*
X180011183Y-22740642D01*
X179582924Y-22350355D01*
X179172890Y-22180524D01*
X178943000Y-22301845D01*
X178943000Y-23495000D01*
X178963000Y-23495000D01*
X178963000Y-23749000D01*
X178943000Y-23749000D01*
X178943000Y-23769000D01*
X178689000Y-23769000D01*
X178689000Y-23749000D01*
X178669000Y-23749000D01*
X178669000Y-23495000D01*
X178689000Y-23495000D01*
X178689000Y-22301845D01*
X178459110Y-22180524D01*
X178049076Y-22350355D01*
X177744739Y-22627708D01*
X177724157Y-22524235D01*
X177583809Y-22314191D01*
X177373765Y-22173843D01*
X177126000Y-22124560D01*
X175426000Y-22124560D01*
X175178235Y-22173843D01*
X174968191Y-22314191D01*
X174827843Y-22524235D01*
X174778560Y-22772000D01*
X174778560Y-24472000D01*
X174827843Y-24719765D01*
X174968191Y-24929809D01*
X175178235Y-25070157D01*
X175426000Y-25119440D01*
X177126000Y-25119440D01*
X177373765Y-25070157D01*
X177583809Y-24929809D01*
X177724157Y-24719765D01*
X177744739Y-24616292D01*
X178049076Y-24893645D01*
X178459110Y-25063476D01*
X178688998Y-24942156D01*
X178688998Y-25107000D01*
X178796199Y-25107000D01*
X177739199Y-26164000D01*
X164607614Y-26164000D01*
X164532767Y-26149112D01*
X164457920Y-26164000D01*
X164457916Y-26164000D01*
X164236231Y-26208096D01*
X163984839Y-26376071D01*
X163942439Y-26439527D01*
X161298301Y-29083666D01*
X161078149Y-29039875D01*
X160785637Y-29039875D01*
X160352475Y-29126036D01*
X159861268Y-29454250D01*
X159661893Y-29752636D01*
X159462518Y-29454250D01*
X158971311Y-29126036D01*
X158538149Y-29039875D01*
X158245637Y-29039875D01*
X157812475Y-29126036D01*
X157321268Y-29454250D01*
X157121893Y-29752636D01*
X156922518Y-29454250D01*
X156431311Y-29126036D01*
X155998149Y-29039875D01*
X155705637Y-29039875D01*
X155272475Y-29126036D01*
X154781268Y-29454250D01*
X154581893Y-29752636D01*
X154382518Y-29454250D01*
X153891311Y-29126036D01*
X153458149Y-29039875D01*
X153165637Y-29039875D01*
X152732475Y-29126036D01*
X152241268Y-29454250D01*
X152041893Y-29752636D01*
X151842518Y-29454250D01*
X151351311Y-29126036D01*
X150918149Y-29039875D01*
X150625637Y-29039875D01*
X150192475Y-29126036D01*
X149701268Y-29454250D01*
X149501893Y-29752636D01*
X149302518Y-29454250D01*
X148811311Y-29126036D01*
X148378149Y-29039875D01*
X148085637Y-29039875D01*
X147652475Y-29126036D01*
X147161268Y-29454250D01*
X146961893Y-29752636D01*
X146762518Y-29454250D01*
X146271311Y-29126036D01*
X145838149Y-29039875D01*
X145545637Y-29039875D01*
X145112475Y-29126036D01*
X144621268Y-29454250D01*
X144408050Y-29773353D01*
X144347076Y-29643517D01*
X143918817Y-29253230D01*
X143508783Y-29083399D01*
X143278893Y-29204720D01*
X143024893Y-29204720D01*
X142795003Y-29083399D01*
X142384969Y-29253230D01*
X141956710Y-29643517D01*
X141895736Y-29773353D01*
X141682518Y-29454250D01*
X141191311Y-29126036D01*
X140758149Y-29039875D01*
X140465637Y-29039875D01*
X140032475Y-29126036D01*
X139541268Y-29454250D01*
X139341893Y-29752636D01*
X139142518Y-29454250D01*
X138651311Y-29126036D01*
X138218149Y-29039875D01*
X137925637Y-29039875D01*
X137492475Y-29126036D01*
X137001268Y-29454250D01*
X136801893Y-29752636D01*
X136602518Y-29454250D01*
X136111311Y-29126036D01*
X135678149Y-29039875D01*
X135385637Y-29039875D01*
X134952475Y-29126036D01*
X134461268Y-29454250D01*
X134261893Y-29752636D01*
X134062518Y-29454250D01*
X133571311Y-29126036D01*
X133138149Y-29039875D01*
X132845637Y-29039875D01*
X132412475Y-29126036D01*
X131921268Y-29454250D01*
X131721893Y-29752636D01*
X131522518Y-29454250D01*
X131031311Y-29126036D01*
X130598149Y-29039875D01*
X130305637Y-29039875D01*
X129872475Y-29126036D01*
X129381268Y-29454250D01*
X129053054Y-29945457D01*
X128937801Y-30524875D01*
X104267000Y-30524875D01*
X104267000Y-25527000D01*
X109220000Y-25527000D01*
X109268601Y-25517333D01*
X109309803Y-25489803D01*
X114389803Y-20409803D01*
X114417333Y-20368601D01*
X114427000Y-20320000D01*
X114427000Y-17314346D01*
X144253076Y-17314346D01*
X144253076Y-19014346D01*
X144302359Y-19262111D01*
X144417444Y-19434346D01*
X144302359Y-19606581D01*
X144253076Y-19854346D01*
X144253076Y-21554346D01*
X144302359Y-21802111D01*
X144417444Y-21974346D01*
X144302359Y-22146581D01*
X144253076Y-22394346D01*
X144253076Y-24094346D01*
X144302359Y-24342111D01*
X144442707Y-24552155D01*
X144652751Y-24692503D01*
X144900516Y-24741786D01*
X146600516Y-24741786D01*
X146848281Y-24692503D01*
X147058325Y-24552155D01*
X147198673Y-24342111D01*
X147219255Y-24238638D01*
X147523592Y-24515991D01*
X147933626Y-24685822D01*
X148163516Y-24564501D01*
X148163516Y-23371346D01*
X148143516Y-23371346D01*
X148143516Y-23117346D01*
X148163516Y-23117346D01*
X148163516Y-20831346D01*
X148143516Y-20831346D01*
X148143516Y-20577346D01*
X148163516Y-20577346D01*
X148163516Y-18291346D01*
X148143516Y-18291346D01*
X148143516Y-18037346D01*
X148163516Y-18037346D01*
X148163516Y-16844191D01*
X148417516Y-16844191D01*
X148417516Y-18037346D01*
X148437516Y-18037346D01*
X148437516Y-18291346D01*
X148417516Y-18291346D01*
X148417516Y-20577346D01*
X148437516Y-20577346D01*
X148437516Y-20831346D01*
X148417516Y-20831346D01*
X148417516Y-23117346D01*
X148437516Y-23117346D01*
X148437516Y-23371346D01*
X148417516Y-23371346D01*
X148417516Y-24564501D01*
X148647406Y-24685822D01*
X149057440Y-24515991D01*
X149485699Y-24125704D01*
X149546673Y-23995868D01*
X149759891Y-24314971D01*
X150251098Y-24643185D01*
X150684260Y-24729346D01*
X150976772Y-24729346D01*
X151409934Y-24643185D01*
X151901141Y-24314971D01*
X152100516Y-24016585D01*
X152299891Y-24314971D01*
X152791098Y-24643185D01*
X153224260Y-24729346D01*
X153516772Y-24729346D01*
X153949934Y-24643185D01*
X154441141Y-24314971D01*
X154640516Y-24016585D01*
X154839891Y-24314971D01*
X155331098Y-24643185D01*
X155764260Y-24729346D01*
X156056772Y-24729346D01*
X156489934Y-24643185D01*
X156981141Y-24314971D01*
X157180516Y-24016585D01*
X157379891Y-24314971D01*
X157871098Y-24643185D01*
X158304260Y-24729346D01*
X158596772Y-24729346D01*
X159029934Y-24643185D01*
X159521141Y-24314971D01*
X159849355Y-23823764D01*
X159964608Y-23244346D01*
X159849355Y-22664928D01*
X159521141Y-22173721D01*
X159222755Y-21974346D01*
X159521141Y-21774971D01*
X159849355Y-21283764D01*
X159964608Y-20704346D01*
X159849355Y-20124928D01*
X159521141Y-19633721D01*
X159222755Y-19434346D01*
X159521141Y-19234971D01*
X159849355Y-18743764D01*
X159937020Y-18303040D01*
X161957801Y-18303040D01*
X162073054Y-18882458D01*
X162401268Y-19373665D01*
X162699654Y-19573040D01*
X162401268Y-19772415D01*
X162073054Y-20263622D01*
X161957801Y-20843040D01*
X162073054Y-21422458D01*
X162401268Y-21913665D01*
X162699654Y-22113040D01*
X162401268Y-22312415D01*
X162073054Y-22803622D01*
X161957801Y-23383040D01*
X162073054Y-23962458D01*
X162401268Y-24453665D01*
X162892475Y-24781879D01*
X163325637Y-24868040D01*
X163618149Y-24868040D01*
X164051311Y-24781879D01*
X164542518Y-24453665D01*
X164741893Y-24155279D01*
X164941268Y-24453665D01*
X165432475Y-24781879D01*
X165865637Y-24868040D01*
X166158149Y-24868040D01*
X166591311Y-24781879D01*
X167082518Y-24453665D01*
X167295736Y-24134562D01*
X167356710Y-24264398D01*
X167784969Y-24654685D01*
X168195003Y-24824516D01*
X168424893Y-24703195D01*
X168424893Y-23510040D01*
X168404893Y-23510040D01*
X168404893Y-23256040D01*
X168424893Y-23256040D01*
X168424893Y-20970040D01*
X168404893Y-20970040D01*
X168404893Y-20716040D01*
X168424893Y-20716040D01*
X168424893Y-18430040D01*
X168404893Y-18430040D01*
X168404893Y-18176040D01*
X168424893Y-18176040D01*
X168424893Y-16982885D01*
X168678893Y-16982885D01*
X168678893Y-18176040D01*
X168698893Y-18176040D01*
X168698893Y-18430040D01*
X168678893Y-18430040D01*
X168678893Y-20716040D01*
X168698893Y-20716040D01*
X168698893Y-20970040D01*
X168678893Y-20970040D01*
X168678893Y-23256040D01*
X168698893Y-23256040D01*
X168698893Y-23510040D01*
X168678893Y-23510040D01*
X168678893Y-24703195D01*
X168908783Y-24824516D01*
X169318817Y-24654685D01*
X169623154Y-24377332D01*
X169643736Y-24480805D01*
X169784084Y-24690849D01*
X169994128Y-24831197D01*
X170241893Y-24880480D01*
X171941893Y-24880480D01*
X172189658Y-24831197D01*
X172399702Y-24690849D01*
X172540050Y-24480805D01*
X172589333Y-24233040D01*
X172589333Y-22533040D01*
X172540050Y-22285275D01*
X172424965Y-22113040D01*
X172540050Y-21940805D01*
X172589333Y-21693040D01*
X172589333Y-19993040D01*
X172540050Y-19745275D01*
X172424965Y-19573040D01*
X172540050Y-19400805D01*
X172589333Y-19153040D01*
X172589333Y-17453040D01*
X172540050Y-17205275D01*
X172399702Y-16995231D01*
X172189658Y-16854883D01*
X171941893Y-16805600D01*
X170241893Y-16805600D01*
X169994128Y-16854883D01*
X169784084Y-16995231D01*
X169643736Y-17205275D01*
X169623154Y-17308748D01*
X169318817Y-17031395D01*
X168908783Y-16861564D01*
X168678893Y-16982885D01*
X168424893Y-16982885D01*
X168195003Y-16861564D01*
X167784969Y-17031395D01*
X167356710Y-17421682D01*
X167295736Y-17551518D01*
X167082518Y-17232415D01*
X166591311Y-16904201D01*
X166158149Y-16818040D01*
X165865637Y-16818040D01*
X165432475Y-16904201D01*
X164941268Y-17232415D01*
X164741893Y-17530801D01*
X164542518Y-17232415D01*
X164051311Y-16904201D01*
X163618149Y-16818040D01*
X163325637Y-16818040D01*
X162892475Y-16904201D01*
X162401268Y-17232415D01*
X162073054Y-17723622D01*
X161957801Y-18303040D01*
X159937020Y-18303040D01*
X159964608Y-18164346D01*
X159849355Y-17584928D01*
X159521141Y-17093721D01*
X159029934Y-16765507D01*
X158596772Y-16679346D01*
X158304260Y-16679346D01*
X157871098Y-16765507D01*
X157379891Y-17093721D01*
X157180516Y-17392107D01*
X156981141Y-17093721D01*
X156489934Y-16765507D01*
X156056772Y-16679346D01*
X155764260Y-16679346D01*
X155331098Y-16765507D01*
X154839891Y-17093721D01*
X154640516Y-17392107D01*
X154441141Y-17093721D01*
X153949934Y-16765507D01*
X153516772Y-16679346D01*
X153224260Y-16679346D01*
X152791098Y-16765507D01*
X152299891Y-17093721D01*
X152100516Y-17392107D01*
X151901141Y-17093721D01*
X151409934Y-16765507D01*
X150976772Y-16679346D01*
X150684260Y-16679346D01*
X150251098Y-16765507D01*
X149759891Y-17093721D01*
X149546673Y-17412824D01*
X149485699Y-17282988D01*
X149057440Y-16892701D01*
X148647406Y-16722870D01*
X148417516Y-16844191D01*
X148163516Y-16844191D01*
X147933626Y-16722870D01*
X147523592Y-16892701D01*
X147219255Y-17170054D01*
X147198673Y-17066581D01*
X147058325Y-16856537D01*
X146848281Y-16716189D01*
X146600516Y-16666906D01*
X144900516Y-16666906D01*
X144652751Y-16716189D01*
X144442707Y-16856537D01*
X144302359Y-17066581D01*
X144253076Y-17314346D01*
X114427000Y-17314346D01*
X114427000Y-15367000D01*
X187833000Y-15367000D01*
X187833000Y-22659692D01*
X187833000Y-22659692D01*
G37*
X187833000Y-22659692D02*
X187706000Y-22849761D01*
X187506625Y-22551375D01*
X187015418Y-22223161D01*
X186582256Y-22137000D01*
X186289744Y-22137000D01*
X185856582Y-22223161D01*
X185365375Y-22551375D01*
X185152157Y-22870478D01*
X185091183Y-22740642D01*
X184662924Y-22350355D01*
X184252890Y-22180524D01*
X184023000Y-22301845D01*
X184023000Y-23495000D01*
X184043000Y-23495000D01*
X184043000Y-23749000D01*
X184023000Y-23749000D01*
X184023000Y-24942155D01*
X184252890Y-25063476D01*
X184662924Y-24893645D01*
X185091183Y-24503358D01*
X185152157Y-24373522D01*
X185365375Y-24692625D01*
X185856582Y-25020839D01*
X186289744Y-25107000D01*
X186582256Y-25107000D01*
X187015418Y-25020839D01*
X187506625Y-24692625D01*
X187706000Y-24394239D01*
X187905375Y-24692625D01*
X188396582Y-25020839D01*
X188829744Y-25107000D01*
X189122256Y-25107000D01*
X189555418Y-25020839D01*
X190046625Y-24692625D01*
X190370836Y-24207408D01*
X192983204Y-25513592D01*
X193040000Y-25527000D01*
X197993000Y-25527000D01*
X197993000Y-98933000D01*
X193040000Y-98933000D01*
X192991399Y-98942667D01*
X192950197Y-98970197D01*
X187870197Y-104050197D01*
X187842667Y-104091399D01*
X187833000Y-104140000D01*
X187833000Y-109093000D01*
X114427000Y-109093000D01*
X114427000Y-104140000D01*
X114417333Y-104091399D01*
X114389803Y-104050197D01*
X109309803Y-98970197D01*
X109268601Y-98942667D01*
X109220000Y-98933000D01*
X104267000Y-98933000D01*
X104267000Y-64528126D01*
X113301000Y-64528126D01*
X113301000Y-64939874D01*
X113458569Y-65320280D01*
X113749720Y-65611431D01*
X114130126Y-65769000D01*
X114541874Y-65769000D01*
X114922280Y-65611431D01*
X115213431Y-65320280D01*
X115371000Y-64939874D01*
X115371000Y-64528126D01*
X117801000Y-64528126D01*
X117801000Y-64939874D01*
X117958569Y-65320280D01*
X118249720Y-65611431D01*
X118630126Y-65769000D01*
X119041874Y-65769000D01*
X119422280Y-65611431D01*
X119713431Y-65320280D01*
X119871000Y-64939874D01*
X119871000Y-64528126D01*
X119713431Y-64147720D01*
X119422280Y-63856569D01*
X119041874Y-63699000D01*
X118630126Y-63699000D01*
X118249720Y-63856569D01*
X117958569Y-64147720D01*
X117801000Y-64528126D01*
X115371000Y-64528126D01*
X115213431Y-64147720D01*
X114922280Y-63856569D01*
X114541874Y-63699000D01*
X114130126Y-63699000D01*
X113749720Y-63856569D01*
X113458569Y-64147720D01*
X113301000Y-64528126D01*
X104267000Y-64528126D01*
X104267000Y-55924875D01*
X128937801Y-55924875D01*
X129053054Y-56504293D01*
X129381268Y-56995500D01*
X129872475Y-57323714D01*
X130305637Y-57409875D01*
X130598149Y-57409875D01*
X131031311Y-57323714D01*
X131522518Y-56995500D01*
X131721893Y-56697114D01*
X131921268Y-56995500D01*
X132412475Y-57323714D01*
X132845637Y-57409875D01*
X133138149Y-57409875D01*
X133571311Y-57323714D01*
X134062518Y-56995500D01*
X134261893Y-56697114D01*
X134461268Y-56995500D01*
X134952475Y-57323714D01*
X135385637Y-57409875D01*
X135678149Y-57409875D01*
X136111311Y-57323714D01*
X136602518Y-56995500D01*
X136801893Y-56697114D01*
X137001268Y-56995500D01*
X137492475Y-57323714D01*
X137925637Y-57409875D01*
X138218149Y-57409875D01*
X138651311Y-57323714D01*
X139142518Y-56995500D01*
X139341893Y-56697114D01*
X139541268Y-56995500D01*
X140032475Y-57323714D01*
X140465637Y-57409875D01*
X140758149Y-57409875D01*
X141191311Y-57323714D01*
X141682518Y-56995500D01*
X141881893Y-56697114D01*
X142081268Y-56995500D01*
X142572475Y-57323714D01*
X143005637Y-57409875D01*
X143298149Y-57409875D01*
X143731311Y-57323714D01*
X144222518Y-56995500D01*
X144421893Y-56697114D01*
X144621268Y-56995500D01*
X145112475Y-57323714D01*
X145545637Y-57409875D01*
X145838149Y-57409875D01*
X146271311Y-57323714D01*
X146762518Y-56995500D01*
X146961893Y-56697114D01*
X147161268Y-56995500D01*
X147652475Y-57323714D01*
X148085637Y-57409875D01*
X148378149Y-57409875D01*
X148811311Y-57323714D01*
X149302518Y-56995500D01*
X149501893Y-56697114D01*
X149701268Y-56995500D01*
X150192475Y-57323714D01*
X150625637Y-57409875D01*
X150918149Y-57409875D01*
X151351311Y-57323714D01*
X151842518Y-56995500D01*
X152041893Y-56697114D01*
X152241268Y-56995500D01*
X152732475Y-57323714D01*
X153165637Y-57409875D01*
X153458149Y-57409875D01*
X153891311Y-57323714D01*
X154382518Y-56995500D01*
X154581893Y-56697114D01*
X154781268Y-56995500D01*
X155069001Y-57187757D01*
X155069000Y-75115289D01*
X154951569Y-75232720D01*
X154794000Y-75613126D01*
X154794000Y-76024874D01*
X154951569Y-76405280D01*
X155242720Y-76696431D01*
X155623126Y-76854000D01*
X156034874Y-76854000D01*
X156415280Y-76696431D01*
X156706431Y-76405280D01*
X156864000Y-76024874D01*
X156864000Y-75613126D01*
X156706431Y-75232720D01*
X156589000Y-75115289D01*
X156589000Y-57218350D01*
X156922518Y-56995500D01*
X157121893Y-56697114D01*
X157321268Y-56995500D01*
X157812475Y-57323714D01*
X158245637Y-57409875D01*
X158538149Y-57409875D01*
X158971311Y-57323714D01*
X159462518Y-56995500D01*
X159675736Y-56676397D01*
X159736710Y-56806233D01*
X160164969Y-57196520D01*
X160575003Y-57366351D01*
X160804893Y-57245030D01*
X160804893Y-56051875D01*
X160784893Y-56051875D01*
X160784893Y-55797875D01*
X160804893Y-55797875D01*
X160804893Y-54604720D01*
X161058893Y-54604720D01*
X161058893Y-55797875D01*
X161078893Y-55797875D01*
X161078893Y-56051875D01*
X161058893Y-56051875D01*
X161058893Y-57245030D01*
X161288783Y-57366351D01*
X161698817Y-57196520D01*
X162127076Y-56806233D01*
X162188050Y-56676397D01*
X162401268Y-56995500D01*
X162816001Y-57272616D01*
X162816000Y-84005289D01*
X162698569Y-84122720D01*
X162541000Y-84503126D01*
X162541000Y-84914874D01*
X162698569Y-85295280D01*
X162989720Y-85586431D01*
X163370126Y-85744000D01*
X163781874Y-85744000D01*
X164162280Y-85586431D01*
X164453431Y-85295280D01*
X164611000Y-84914874D01*
X164611000Y-84503126D01*
X164453431Y-84122720D01*
X164336000Y-84005289D01*
X164336000Y-57133491D01*
X164542518Y-56995500D01*
X164741893Y-56697114D01*
X164941268Y-56995500D01*
X165432475Y-57323714D01*
X165865637Y-57409875D01*
X166158149Y-57409875D01*
X166591311Y-57323714D01*
X167082518Y-56995500D01*
X167281893Y-56697114D01*
X167481268Y-56995500D01*
X167972475Y-57323714D01*
X168405637Y-57409875D01*
X168698149Y-57409875D01*
X169131311Y-57323714D01*
X169622518Y-56995500D01*
X169821893Y-56697114D01*
X170021268Y-56995500D01*
X170512475Y-57323714D01*
X170945637Y-57409875D01*
X171238149Y-57409875D01*
X171370707Y-57383508D01*
X180067000Y-66079802D01*
X180067000Y-66245874D01*
X180224569Y-66626280D01*
X180515720Y-66917431D01*
X180896126Y-67075000D01*
X181307874Y-67075000D01*
X181688280Y-66917431D01*
X181979431Y-66626280D01*
X182137000Y-66245874D01*
X182137000Y-65834126D01*
X181979431Y-65453720D01*
X181688280Y-65162569D01*
X181307874Y-65005000D01*
X181141802Y-65005000D01*
X173546676Y-57409875D01*
X173778149Y-57409875D01*
X173910707Y-57383508D01*
X179051000Y-62523802D01*
X179051000Y-62689874D01*
X179208569Y-63070280D01*
X179499720Y-63361431D01*
X179880126Y-63519000D01*
X180291874Y-63519000D01*
X180672280Y-63361431D01*
X180963431Y-63070280D01*
X181121000Y-62689874D01*
X181121000Y-62278126D01*
X180963431Y-61897720D01*
X180672280Y-61606569D01*
X180291874Y-61449000D01*
X180125802Y-61449000D01*
X175986410Y-57309608D01*
X176044893Y-57251125D01*
X176044893Y-56051875D01*
X176298893Y-56051875D01*
X176298893Y-57251125D01*
X176457643Y-57409875D01*
X177148203Y-57409875D01*
X177381592Y-57313202D01*
X177560220Y-57134573D01*
X177656893Y-56901184D01*
X177656893Y-56210625D01*
X177498143Y-56051875D01*
X176298893Y-56051875D01*
X176044893Y-56051875D01*
X176024893Y-56051875D01*
X176024893Y-55797875D01*
X176044893Y-55797875D01*
X176044893Y-54598625D01*
X176298893Y-54598625D01*
X176298893Y-55797875D01*
X177498143Y-55797875D01*
X177656893Y-55639125D01*
X177656893Y-54948566D01*
X177560220Y-54715177D01*
X177381592Y-54536548D01*
X177148203Y-54439875D01*
X176457643Y-54439875D01*
X176298893Y-54598625D01*
X176044893Y-54598625D01*
X175886143Y-54439875D01*
X175195583Y-54439875D01*
X174962194Y-54536548D01*
X174783566Y-54715177D01*
X174716989Y-54875908D01*
X174702518Y-54854250D01*
X174211311Y-54526036D01*
X173778149Y-54439875D01*
X173485637Y-54439875D01*
X173052475Y-54526036D01*
X172561268Y-54854250D01*
X172361893Y-55152636D01*
X172162518Y-54854250D01*
X171671311Y-54526036D01*
X171238149Y-54439875D01*
X170945637Y-54439875D01*
X170512475Y-54526036D01*
X170021268Y-54854250D01*
X169821893Y-55152636D01*
X169622518Y-54854250D01*
X169131311Y-54526036D01*
X168698149Y-54439875D01*
X168405637Y-54439875D01*
X167972475Y-54526036D01*
X167481268Y-54854250D01*
X167281893Y-55152636D01*
X167082518Y-54854250D01*
X166591311Y-54526036D01*
X166158149Y-54439875D01*
X165865637Y-54439875D01*
X165432475Y-54526036D01*
X164941268Y-54854250D01*
X164741893Y-55152636D01*
X164542518Y-54854250D01*
X164051311Y-54526036D01*
X163618149Y-54439875D01*
X163325637Y-54439875D01*
X162892475Y-54526036D01*
X162401268Y-54854250D01*
X162188050Y-55173353D01*
X162127076Y-55043517D01*
X161698817Y-54653230D01*
X161288783Y-54483399D01*
X161058893Y-54604720D01*
X160804893Y-54604720D01*
X160575003Y-54483399D01*
X160164969Y-54653230D01*
X159736710Y-55043517D01*
X159675736Y-55173353D01*
X159462518Y-54854250D01*
X158971311Y-54526036D01*
X158538149Y-54439875D01*
X158245637Y-54439875D01*
X157812475Y-54526036D01*
X157321268Y-54854250D01*
X157121893Y-55152636D01*
X156922518Y-54854250D01*
X156431311Y-54526036D01*
X155998149Y-54439875D01*
X155705637Y-54439875D01*
X155272475Y-54526036D01*
X154781268Y-54854250D01*
X154581893Y-55152636D01*
X154382518Y-54854250D01*
X153891311Y-54526036D01*
X153458149Y-54439875D01*
X153165637Y-54439875D01*
X152732475Y-54526036D01*
X152241268Y-54854250D01*
X152041893Y-55152636D01*
X151842518Y-54854250D01*
X151351311Y-54526036D01*
X150918149Y-54439875D01*
X150625637Y-54439875D01*
X150192475Y-54526036D01*
X149701268Y-54854250D01*
X149501893Y-55152636D01*
X149302518Y-54854250D01*
X148811311Y-54526036D01*
X148378149Y-54439875D01*
X148085637Y-54439875D01*
X147652475Y-54526036D01*
X147161268Y-54854250D01*
X146961893Y-55152636D01*
X146762518Y-54854250D01*
X146271311Y-54526036D01*
X145838149Y-54439875D01*
X145545637Y-54439875D01*
X145112475Y-54526036D01*
X144621268Y-54854250D01*
X144421893Y-55152636D01*
X144222518Y-54854250D01*
X143731311Y-54526036D01*
X143298149Y-54439875D01*
X143005637Y-54439875D01*
X142572475Y-54526036D01*
X142081268Y-54854250D01*
X141881893Y-55152636D01*
X141682518Y-54854250D01*
X141191311Y-54526036D01*
X140758149Y-54439875D01*
X140465637Y-54439875D01*
X140032475Y-54526036D01*
X139541268Y-54854250D01*
X139341893Y-55152636D01*
X139142518Y-54854250D01*
X138651311Y-54526036D01*
X138218149Y-54439875D01*
X137925637Y-54439875D01*
X137492475Y-54526036D01*
X137001268Y-54854250D01*
X136801893Y-55152636D01*
X136602518Y-54854250D01*
X136111311Y-54526036D01*
X135678149Y-54439875D01*
X135385637Y-54439875D01*
X134952475Y-54526036D01*
X134461268Y-54854250D01*
X134261893Y-55152636D01*
X134062518Y-54854250D01*
X133571311Y-54526036D01*
X133138149Y-54439875D01*
X132845637Y-54439875D01*
X132412475Y-54526036D01*
X131921268Y-54854250D01*
X131721893Y-55152636D01*
X131522518Y-54854250D01*
X131031311Y-54526036D01*
X130598149Y-54439875D01*
X130305637Y-54439875D01*
X129872475Y-54526036D01*
X129381268Y-54854250D01*
X129053054Y-55345457D01*
X128937801Y-55924875D01*
X104267000Y-55924875D01*
X104267000Y-37138259D01*
X114545000Y-37138259D01*
X114545000Y-39061741D01*
X114672685Y-39370000D01*
X114545000Y-39678259D01*
X114545000Y-41601741D01*
X115281085Y-43378807D01*
X116641193Y-44738915D01*
X118418259Y-45475000D01*
X120341741Y-45475000D01*
X122118807Y-44738915D01*
X123478915Y-43378807D01*
X124215000Y-41601741D01*
X124215000Y-39678259D01*
X124087315Y-39370000D01*
X124215000Y-39061741D01*
X124215000Y-37138259D01*
X123478915Y-35361193D01*
X122118807Y-34001085D01*
X120341741Y-33265000D01*
X118418259Y-33265000D01*
X116641193Y-34001085D01*
X115281085Y-35361193D01*
X114545000Y-37138259D01*
X104267000Y-37138259D01*
X104267000Y-30524875D01*
X128937801Y-30524875D01*
X129053054Y-31104293D01*
X129381268Y-31595500D01*
X129872475Y-31923714D01*
X130305637Y-32009875D01*
X130598149Y-32009875D01*
X131031311Y-31923714D01*
X131522518Y-31595500D01*
X131721893Y-31297114D01*
X131921268Y-31595500D01*
X132412475Y-31923714D01*
X132845637Y-32009875D01*
X133138149Y-32009875D01*
X133571311Y-31923714D01*
X134062518Y-31595500D01*
X134261893Y-31297114D01*
X134461268Y-31595500D01*
X134952475Y-31923714D01*
X135385637Y-32009875D01*
X135678149Y-32009875D01*
X136111311Y-31923714D01*
X136602518Y-31595500D01*
X136801893Y-31297114D01*
X137001268Y-31595500D01*
X137492475Y-31923714D01*
X137925637Y-32009875D01*
X138218149Y-32009875D01*
X138651311Y-31923714D01*
X139142518Y-31595500D01*
X139341893Y-31297114D01*
X139541268Y-31595500D01*
X140032475Y-31923714D01*
X140465637Y-32009875D01*
X140758149Y-32009875D01*
X141191311Y-31923714D01*
X141682518Y-31595500D01*
X141895736Y-31276397D01*
X141956710Y-31406233D01*
X142384969Y-31796520D01*
X142795003Y-31966351D01*
X143024893Y-31845030D01*
X143024893Y-30651875D01*
X143004893Y-30651875D01*
X143004893Y-30397875D01*
X143024893Y-30397875D01*
X143024893Y-29204720D01*
X143278893Y-29204720D01*
X143278893Y-30397875D01*
X143298893Y-30397875D01*
X143298893Y-30651875D01*
X143278893Y-30651875D01*
X143278893Y-31845030D01*
X143508783Y-31966351D01*
X143918817Y-31796520D01*
X144347076Y-31406233D01*
X144408050Y-31276397D01*
X144621268Y-31595500D01*
X145112475Y-31923714D01*
X145545637Y-32009875D01*
X145838149Y-32009875D01*
X146271311Y-31923714D01*
X146762518Y-31595500D01*
X146961893Y-31297114D01*
X147161268Y-31595500D01*
X147652475Y-31923714D01*
X148085637Y-32009875D01*
X148378149Y-32009875D01*
X148811311Y-31923714D01*
X149302518Y-31595500D01*
X149501893Y-31297114D01*
X149701268Y-31595500D01*
X150192475Y-31923714D01*
X150625637Y-32009875D01*
X150918149Y-32009875D01*
X151351311Y-31923714D01*
X151842518Y-31595500D01*
X152041893Y-31297114D01*
X152241268Y-31595500D01*
X152732475Y-31923714D01*
X153165637Y-32009875D01*
X153458149Y-32009875D01*
X153891311Y-31923714D01*
X154382518Y-31595500D01*
X154581893Y-31297114D01*
X154781268Y-31595500D01*
X155272475Y-31923714D01*
X155705637Y-32009875D01*
X155998149Y-32009875D01*
X156431311Y-31923714D01*
X156922518Y-31595500D01*
X157121893Y-31297114D01*
X157321268Y-31595500D01*
X157812475Y-31923714D01*
X158245637Y-32009875D01*
X158538149Y-32009875D01*
X158971311Y-31923714D01*
X159462518Y-31595500D01*
X159661893Y-31297114D01*
X159861268Y-31595500D01*
X160352475Y-31923714D01*
X160785637Y-32009875D01*
X161078149Y-32009875D01*
X161511311Y-31923714D01*
X162002518Y-31595500D01*
X162201893Y-31297114D01*
X162401268Y-31595500D01*
X162892475Y-31923714D01*
X163325637Y-32009875D01*
X163618149Y-32009875D01*
X164051311Y-31923714D01*
X164542518Y-31595500D01*
X164741893Y-31297114D01*
X164941268Y-31595500D01*
X165432475Y-31923714D01*
X165865637Y-32009875D01*
X166158149Y-32009875D01*
X166591311Y-31923714D01*
X167082518Y-31595500D01*
X167281893Y-31297114D01*
X167481268Y-31595500D01*
X167972475Y-31923714D01*
X168405637Y-32009875D01*
X168698149Y-32009875D01*
X169131311Y-31923714D01*
X169622518Y-31595500D01*
X169821893Y-31297114D01*
X170021268Y-31595500D01*
X170512475Y-31923714D01*
X170945637Y-32009875D01*
X171238149Y-32009875D01*
X171671311Y-31923714D01*
X172162518Y-31595500D01*
X172361893Y-31297114D01*
X172561268Y-31595500D01*
X173052475Y-31923714D01*
X173485637Y-32009875D01*
X173778149Y-32009875D01*
X174211311Y-31923714D01*
X174702518Y-31595500D01*
X174714709Y-31577256D01*
X174723736Y-31622640D01*
X174864084Y-31832684D01*
X175074128Y-31973032D01*
X175321893Y-32022315D01*
X177021893Y-32022315D01*
X177269658Y-31973032D01*
X177479702Y-31832684D01*
X177620050Y-31622640D01*
X177669333Y-31374875D01*
X177669333Y-29674875D01*
X177620050Y-29427110D01*
X177479702Y-29217066D01*
X177269658Y-29076718D01*
X177021893Y-29027435D01*
X175321893Y-29027435D01*
X175074128Y-29076718D01*
X174864084Y-29217066D01*
X174723736Y-29427110D01*
X174714709Y-29472494D01*
X174702518Y-29454250D01*
X174211311Y-29126036D01*
X173778149Y-29039875D01*
X173485637Y-29039875D01*
X173052475Y-29126036D01*
X172561268Y-29454250D01*
X172361893Y-29752636D01*
X172162518Y-29454250D01*
X171671311Y-29126036D01*
X171238149Y-29039875D01*
X170945637Y-29039875D01*
X170512475Y-29126036D01*
X170021268Y-29454250D01*
X169821893Y-29752636D01*
X169622518Y-29454250D01*
X169131311Y-29126036D01*
X168698149Y-29039875D01*
X168405637Y-29039875D01*
X167972475Y-29126036D01*
X167481268Y-29454250D01*
X167281893Y-29752636D01*
X167082518Y-29454250D01*
X166591311Y-29126036D01*
X166158149Y-29039875D01*
X165865637Y-29039875D01*
X165432475Y-29126036D01*
X164941268Y-29454250D01*
X164741893Y-29752636D01*
X164542518Y-29454250D01*
X164051311Y-29126036D01*
X163618149Y-29039875D01*
X163491695Y-29039875D01*
X164847570Y-27684000D01*
X177979153Y-27684000D01*
X178054000Y-27698888D01*
X178128847Y-27684000D01*
X178128852Y-27684000D01*
X178350537Y-27639904D01*
X178601929Y-27471929D01*
X178644331Y-27408470D01*
X180989592Y-25063209D01*
X181209744Y-25107000D01*
X181502256Y-25107000D01*
X181935418Y-25020839D01*
X182426625Y-24692625D01*
X182639843Y-24373522D01*
X182700817Y-24503358D01*
X183129076Y-24893645D01*
X183539110Y-25063476D01*
X183769000Y-24942155D01*
X183769000Y-23749000D01*
X183749000Y-23749000D01*
X183749000Y-23495000D01*
X183769000Y-23495000D01*
X183769000Y-22301845D01*
X183539110Y-22180524D01*
X183129076Y-22350355D01*
X182700817Y-22740642D01*
X182639843Y-22870478D01*
X182426625Y-22551375D01*
X181935418Y-22223161D01*
X181502256Y-22137000D01*
X181209744Y-22137000D01*
X180776582Y-22223161D01*
X180285375Y-22551375D01*
X180072157Y-22870478D01*
X180011183Y-22740642D01*
X179582924Y-22350355D01*
X179172890Y-22180524D01*
X178943000Y-22301845D01*
X178943000Y-23495000D01*
X178963000Y-23495000D01*
X178963000Y-23749000D01*
X178943000Y-23749000D01*
X178943000Y-23769000D01*
X178689000Y-23769000D01*
X178689000Y-23749000D01*
X178669000Y-23749000D01*
X178669000Y-23495000D01*
X178689000Y-23495000D01*
X178689000Y-22301845D01*
X178459110Y-22180524D01*
X178049076Y-22350355D01*
X177744739Y-22627708D01*
X177724157Y-22524235D01*
X177583809Y-22314191D01*
X177373765Y-22173843D01*
X177126000Y-22124560D01*
X175426000Y-22124560D01*
X175178235Y-22173843D01*
X174968191Y-22314191D01*
X174827843Y-22524235D01*
X174778560Y-22772000D01*
X174778560Y-24472000D01*
X174827843Y-24719765D01*
X174968191Y-24929809D01*
X175178235Y-25070157D01*
X175426000Y-25119440D01*
X177126000Y-25119440D01*
X177373765Y-25070157D01*
X177583809Y-24929809D01*
X177724157Y-24719765D01*
X177744739Y-24616292D01*
X178049076Y-24893645D01*
X178459110Y-25063476D01*
X178688998Y-24942156D01*
X178688998Y-25107000D01*
X178796199Y-25107000D01*
X177739199Y-26164000D01*
X164607614Y-26164000D01*
X164532767Y-26149112D01*
X164457920Y-26164000D01*
X164457916Y-26164000D01*
X164236231Y-26208096D01*
X163984839Y-26376071D01*
X163942439Y-26439527D01*
X161298301Y-29083666D01*
X161078149Y-29039875D01*
X160785637Y-29039875D01*
X160352475Y-29126036D01*
X159861268Y-29454250D01*
X159661893Y-29752636D01*
X159462518Y-29454250D01*
X158971311Y-29126036D01*
X158538149Y-29039875D01*
X158245637Y-29039875D01*
X157812475Y-29126036D01*
X157321268Y-29454250D01*
X157121893Y-29752636D01*
X156922518Y-29454250D01*
X156431311Y-29126036D01*
X155998149Y-29039875D01*
X155705637Y-29039875D01*
X155272475Y-29126036D01*
X154781268Y-29454250D01*
X154581893Y-29752636D01*
X154382518Y-29454250D01*
X153891311Y-29126036D01*
X153458149Y-29039875D01*
X153165637Y-29039875D01*
X152732475Y-29126036D01*
X152241268Y-29454250D01*
X152041893Y-29752636D01*
X151842518Y-29454250D01*
X151351311Y-29126036D01*
X150918149Y-29039875D01*
X150625637Y-29039875D01*
X150192475Y-29126036D01*
X149701268Y-29454250D01*
X149501893Y-29752636D01*
X149302518Y-29454250D01*
X148811311Y-29126036D01*
X148378149Y-29039875D01*
X148085637Y-29039875D01*
X147652475Y-29126036D01*
X147161268Y-29454250D01*
X146961893Y-29752636D01*
X146762518Y-29454250D01*
X146271311Y-29126036D01*
X145838149Y-29039875D01*
X145545637Y-29039875D01*
X145112475Y-29126036D01*
X144621268Y-29454250D01*
X144408050Y-29773353D01*
X144347076Y-29643517D01*
X143918817Y-29253230D01*
X143508783Y-29083399D01*
X143278893Y-29204720D01*
X143024893Y-29204720D01*
X142795003Y-29083399D01*
X142384969Y-29253230D01*
X141956710Y-29643517D01*
X141895736Y-29773353D01*
X141682518Y-29454250D01*
X141191311Y-29126036D01*
X140758149Y-29039875D01*
X140465637Y-29039875D01*
X140032475Y-29126036D01*
X139541268Y-29454250D01*
X139341893Y-29752636D01*
X139142518Y-29454250D01*
X138651311Y-29126036D01*
X138218149Y-29039875D01*
X137925637Y-29039875D01*
X137492475Y-29126036D01*
X137001268Y-29454250D01*
X136801893Y-29752636D01*
X136602518Y-29454250D01*
X136111311Y-29126036D01*
X135678149Y-29039875D01*
X135385637Y-29039875D01*
X134952475Y-29126036D01*
X134461268Y-29454250D01*
X134261893Y-29752636D01*
X134062518Y-29454250D01*
X133571311Y-29126036D01*
X133138149Y-29039875D01*
X132845637Y-29039875D01*
X132412475Y-29126036D01*
X131921268Y-29454250D01*
X131721893Y-29752636D01*
X131522518Y-29454250D01*
X131031311Y-29126036D01*
X130598149Y-29039875D01*
X130305637Y-29039875D01*
X129872475Y-29126036D01*
X129381268Y-29454250D01*
X129053054Y-29945457D01*
X128937801Y-30524875D01*
X104267000Y-30524875D01*
X104267000Y-25527000D01*
X109220000Y-25527000D01*
X109268601Y-25517333D01*
X109309803Y-25489803D01*
X114389803Y-20409803D01*
X114417333Y-20368601D01*
X114427000Y-20320000D01*
X114427000Y-17314346D01*
X144253076Y-17314346D01*
X144253076Y-19014346D01*
X144302359Y-19262111D01*
X144417444Y-19434346D01*
X144302359Y-19606581D01*
X144253076Y-19854346D01*
X144253076Y-21554346D01*
X144302359Y-21802111D01*
X144417444Y-21974346D01*
X144302359Y-22146581D01*
X144253076Y-22394346D01*
X144253076Y-24094346D01*
X144302359Y-24342111D01*
X144442707Y-24552155D01*
X144652751Y-24692503D01*
X144900516Y-24741786D01*
X146600516Y-24741786D01*
X146848281Y-24692503D01*
X147058325Y-24552155D01*
X147198673Y-24342111D01*
X147219255Y-24238638D01*
X147523592Y-24515991D01*
X147933626Y-24685822D01*
X148163516Y-24564501D01*
X148163516Y-23371346D01*
X148143516Y-23371346D01*
X148143516Y-23117346D01*
X148163516Y-23117346D01*
X148163516Y-20831346D01*
X148143516Y-20831346D01*
X148143516Y-20577346D01*
X148163516Y-20577346D01*
X148163516Y-18291346D01*
X148143516Y-18291346D01*
X148143516Y-18037346D01*
X148163516Y-18037346D01*
X148163516Y-16844191D01*
X148417516Y-16844191D01*
X148417516Y-18037346D01*
X148437516Y-18037346D01*
X148437516Y-18291346D01*
X148417516Y-18291346D01*
X148417516Y-20577346D01*
X148437516Y-20577346D01*
X148437516Y-20831346D01*
X148417516Y-20831346D01*
X148417516Y-23117346D01*
X148437516Y-23117346D01*
X148437516Y-23371346D01*
X148417516Y-23371346D01*
X148417516Y-24564501D01*
X148647406Y-24685822D01*
X149057440Y-24515991D01*
X149485699Y-24125704D01*
X149546673Y-23995868D01*
X149759891Y-24314971D01*
X150251098Y-24643185D01*
X150684260Y-24729346D01*
X150976772Y-24729346D01*
X151409934Y-24643185D01*
X151901141Y-24314971D01*
X152100516Y-24016585D01*
X152299891Y-24314971D01*
X152791098Y-24643185D01*
X153224260Y-24729346D01*
X153516772Y-24729346D01*
X153949934Y-24643185D01*
X154441141Y-24314971D01*
X154640516Y-24016585D01*
X154839891Y-24314971D01*
X155331098Y-24643185D01*
X155764260Y-24729346D01*
X156056772Y-24729346D01*
X156489934Y-24643185D01*
X156981141Y-24314971D01*
X157180516Y-24016585D01*
X157379891Y-24314971D01*
X157871098Y-24643185D01*
X158304260Y-24729346D01*
X158596772Y-24729346D01*
X159029934Y-24643185D01*
X159521141Y-24314971D01*
X159849355Y-23823764D01*
X159964608Y-23244346D01*
X159849355Y-22664928D01*
X159521141Y-22173721D01*
X159222755Y-21974346D01*
X159521141Y-21774971D01*
X159849355Y-21283764D01*
X159964608Y-20704346D01*
X159849355Y-20124928D01*
X159521141Y-19633721D01*
X159222755Y-19434346D01*
X159521141Y-19234971D01*
X159849355Y-18743764D01*
X159937020Y-18303040D01*
X161957801Y-18303040D01*
X162073054Y-18882458D01*
X162401268Y-19373665D01*
X162699654Y-19573040D01*
X162401268Y-19772415D01*
X162073054Y-20263622D01*
X161957801Y-20843040D01*
X162073054Y-21422458D01*
X162401268Y-21913665D01*
X162699654Y-22113040D01*
X162401268Y-22312415D01*
X162073054Y-22803622D01*
X161957801Y-23383040D01*
X162073054Y-23962458D01*
X162401268Y-24453665D01*
X162892475Y-24781879D01*
X163325637Y-24868040D01*
X163618149Y-24868040D01*
X164051311Y-24781879D01*
X164542518Y-24453665D01*
X164741893Y-24155279D01*
X164941268Y-24453665D01*
X165432475Y-24781879D01*
X165865637Y-24868040D01*
X166158149Y-24868040D01*
X166591311Y-24781879D01*
X167082518Y-24453665D01*
X167295736Y-24134562D01*
X167356710Y-24264398D01*
X167784969Y-24654685D01*
X168195003Y-24824516D01*
X168424893Y-24703195D01*
X168424893Y-23510040D01*
X168404893Y-23510040D01*
X168404893Y-23256040D01*
X168424893Y-23256040D01*
X168424893Y-20970040D01*
X168404893Y-20970040D01*
X168404893Y-20716040D01*
X168424893Y-20716040D01*
X168424893Y-18430040D01*
X168404893Y-18430040D01*
X168404893Y-18176040D01*
X168424893Y-18176040D01*
X168424893Y-16982885D01*
X168678893Y-16982885D01*
X168678893Y-18176040D01*
X168698893Y-18176040D01*
X168698893Y-18430040D01*
X168678893Y-18430040D01*
X168678893Y-20716040D01*
X168698893Y-20716040D01*
X168698893Y-20970040D01*
X168678893Y-20970040D01*
X168678893Y-23256040D01*
X168698893Y-23256040D01*
X168698893Y-23510040D01*
X168678893Y-23510040D01*
X168678893Y-24703195D01*
X168908783Y-24824516D01*
X169318817Y-24654685D01*
X169623154Y-24377332D01*
X169643736Y-24480805D01*
X169784084Y-24690849D01*
X169994128Y-24831197D01*
X170241893Y-24880480D01*
X171941893Y-24880480D01*
X172189658Y-24831197D01*
X172399702Y-24690849D01*
X172540050Y-24480805D01*
X172589333Y-24233040D01*
X172589333Y-22533040D01*
X172540050Y-22285275D01*
X172424965Y-22113040D01*
X172540050Y-21940805D01*
X172589333Y-21693040D01*
X172589333Y-19993040D01*
X172540050Y-19745275D01*
X172424965Y-19573040D01*
X172540050Y-19400805D01*
X172589333Y-19153040D01*
X172589333Y-17453040D01*
X172540050Y-17205275D01*
X172399702Y-16995231D01*
X172189658Y-16854883D01*
X171941893Y-16805600D01*
X170241893Y-16805600D01*
X169994128Y-16854883D01*
X169784084Y-16995231D01*
X169643736Y-17205275D01*
X169623154Y-17308748D01*
X169318817Y-17031395D01*
X168908783Y-16861564D01*
X168678893Y-16982885D01*
X168424893Y-16982885D01*
X168195003Y-16861564D01*
X167784969Y-17031395D01*
X167356710Y-17421682D01*
X167295736Y-17551518D01*
X167082518Y-17232415D01*
X166591311Y-16904201D01*
X166158149Y-16818040D01*
X165865637Y-16818040D01*
X165432475Y-16904201D01*
X164941268Y-17232415D01*
X164741893Y-17530801D01*
X164542518Y-17232415D01*
X164051311Y-16904201D01*
X163618149Y-16818040D01*
X163325637Y-16818040D01*
X162892475Y-16904201D01*
X162401268Y-17232415D01*
X162073054Y-17723622D01*
X161957801Y-18303040D01*
X159937020Y-18303040D01*
X159964608Y-18164346D01*
X159849355Y-17584928D01*
X159521141Y-17093721D01*
X159029934Y-16765507D01*
X158596772Y-16679346D01*
X158304260Y-16679346D01*
X157871098Y-16765507D01*
X157379891Y-17093721D01*
X157180516Y-17392107D01*
X156981141Y-17093721D01*
X156489934Y-16765507D01*
X156056772Y-16679346D01*
X155764260Y-16679346D01*
X155331098Y-16765507D01*
X154839891Y-17093721D01*
X154640516Y-17392107D01*
X154441141Y-17093721D01*
X153949934Y-16765507D01*
X153516772Y-16679346D01*
X153224260Y-16679346D01*
X152791098Y-16765507D01*
X152299891Y-17093721D01*
X152100516Y-17392107D01*
X151901141Y-17093721D01*
X151409934Y-16765507D01*
X150976772Y-16679346D01*
X150684260Y-16679346D01*
X150251098Y-16765507D01*
X149759891Y-17093721D01*
X149546673Y-17412824D01*
X149485699Y-17282988D01*
X149057440Y-16892701D01*
X148647406Y-16722870D01*
X148417516Y-16844191D01*
X148163516Y-16844191D01*
X147933626Y-16722870D01*
X147523592Y-16892701D01*
X147219255Y-17170054D01*
X147198673Y-17066581D01*
X147058325Y-16856537D01*
X146848281Y-16716189D01*
X146600516Y-16666906D01*
X144900516Y-16666906D01*
X144652751Y-16716189D01*
X144442707Y-16856537D01*
X144302359Y-17066581D01*
X144253076Y-17314346D01*
X114427000Y-17314346D01*
X114427000Y-15367000D01*
X187833000Y-15367000D01*
X187833000Y-22659692D01*
G04 #@! TD*
M02*
