G04 #@! TF.GenerationSoftware,KiCad,Pcbnew,(5.0.1)-3*
G04 #@! TF.CreationDate,2018-11-05T00:22:11+09:00*
G04 #@! TF.ProjectId,badge,62616467652E6B696361645F70636200,rev?*
G04 #@! TF.SameCoordinates,Original*
G04 #@! TF.FileFunction,Copper,L1,Top,Signal*
G04 #@! TF.FilePolarity,Positive*
%FSLAX46Y46*%
G04 Gerber Fmt 4.6, Leading zero omitted, Abs format (unit mm)*
G04 Created by KiCad (PCBNEW (5.0.1)-3) date 2018-11-05 오전 12:22:11*
%MOMM*%
%LPD*%
G01*
G04 APERTURE LIST*
G04 #@! TA.AperFunction,Conductor*
%ADD10C,0.100000*%
G04 #@! TD*
G04 #@! TA.AperFunction,SMDPad,CuDef*
%ADD11C,0.975000*%
G04 #@! TD*
G04 #@! TA.AperFunction,SMDPad,CuDef*
%ADD12C,0.500000*%
G04 #@! TD*
G04 #@! TA.AperFunction,SMDPad,CuDef*
%ADD13R,2.200000X1.800000*%
G04 #@! TD*
G04 #@! TA.AperFunction,SMDPad,CuDef*
%ADD14R,1.300000X0.300000*%
G04 #@! TD*
G04 #@! TA.AperFunction,ViaPad*
%ADD15O,1.400000X1.700000*%
G04 #@! TD*
G04 #@! TA.AperFunction,ViaPad*
%ADD16R,1.400000X1.700000*%
G04 #@! TD*
G04 #@! TA.AperFunction,SMDPad,CuDef*
%ADD17R,1.000000X1.900000*%
G04 #@! TD*
G04 #@! TA.AperFunction,ComponentPad*
%ADD18R,1.700000X1.700000*%
G04 #@! TD*
G04 #@! TA.AperFunction,ComponentPad*
%ADD19O,1.700000X1.700000*%
G04 #@! TD*
G04 #@! TA.AperFunction,SMDPad,CuDef*
%ADD20R,1.000000X1.500000*%
G04 #@! TD*
G04 #@! TA.AperFunction,SMDPad,CuDef*
%ADD21R,1.400000X1.300000*%
G04 #@! TD*
G04 #@! TA.AperFunction,SMDPad,CuDef*
%ADD22R,1.500000X1.400000*%
G04 #@! TD*
G04 #@! TA.AperFunction,ComponentPad*
%ADD23C,1.700000*%
G04 #@! TD*
G04 #@! TA.AperFunction,SMDPad,CuDef*
%ADD24R,0.800000X0.900000*%
G04 #@! TD*
G04 #@! TA.AperFunction,ViaPad*
%ADD25C,0.800000*%
G04 #@! TD*
G04 #@! TA.AperFunction,Conductor*
%ADD26C,0.400000*%
G04 #@! TD*
G04 #@! TA.AperFunction,Conductor*
%ADD27C,0.300000*%
G04 #@! TD*
G04 #@! TA.AperFunction,Conductor*
%ADD28C,0.254000*%
G04 #@! TD*
G04 APERTURE END LIST*
D10*
G04 #@! TO.N,+3V3*
G04 #@! TO.C,R7*
G36*
X146403142Y-39059174D02*
X146426803Y-39062684D01*
X146450007Y-39068496D01*
X146472529Y-39076554D01*
X146494153Y-39086782D01*
X146514670Y-39099079D01*
X146533883Y-39113329D01*
X146551607Y-39129393D01*
X146567671Y-39147117D01*
X146581921Y-39166330D01*
X146594218Y-39186847D01*
X146604446Y-39208471D01*
X146612504Y-39230993D01*
X146618316Y-39254197D01*
X146621826Y-39277858D01*
X146623000Y-39301750D01*
X146623000Y-39789250D01*
X146621826Y-39813142D01*
X146618316Y-39836803D01*
X146612504Y-39860007D01*
X146604446Y-39882529D01*
X146594218Y-39904153D01*
X146581921Y-39924670D01*
X146567671Y-39943883D01*
X146551607Y-39961607D01*
X146533883Y-39977671D01*
X146514670Y-39991921D01*
X146494153Y-40004218D01*
X146472529Y-40014446D01*
X146450007Y-40022504D01*
X146426803Y-40028316D01*
X146403142Y-40031826D01*
X146379250Y-40033000D01*
X145466750Y-40033000D01*
X145442858Y-40031826D01*
X145419197Y-40028316D01*
X145395993Y-40022504D01*
X145373471Y-40014446D01*
X145351847Y-40004218D01*
X145331330Y-39991921D01*
X145312117Y-39977671D01*
X145294393Y-39961607D01*
X145278329Y-39943883D01*
X145264079Y-39924670D01*
X145251782Y-39904153D01*
X145241554Y-39882529D01*
X145233496Y-39860007D01*
X145227684Y-39836803D01*
X145224174Y-39813142D01*
X145223000Y-39789250D01*
X145223000Y-39301750D01*
X145224174Y-39277858D01*
X145227684Y-39254197D01*
X145233496Y-39230993D01*
X145241554Y-39208471D01*
X145251782Y-39186847D01*
X145264079Y-39166330D01*
X145278329Y-39147117D01*
X145294393Y-39129393D01*
X145312117Y-39113329D01*
X145331330Y-39099079D01*
X145351847Y-39086782D01*
X145373471Y-39076554D01*
X145395993Y-39068496D01*
X145419197Y-39062684D01*
X145442858Y-39059174D01*
X145466750Y-39058000D01*
X146379250Y-39058000D01*
X146403142Y-39059174D01*
X146403142Y-39059174D01*
G37*
D11*
G04 #@! TD*
G04 #@! TO.P,R7,2*
G04 #@! TO.N,+3V3*
X145923000Y-39545500D03*
D10*
G04 #@! TO.N,Net-(J11-Pad1)*
G04 #@! TO.C,R7*
G36*
X146403142Y-37184174D02*
X146426803Y-37187684D01*
X146450007Y-37193496D01*
X146472529Y-37201554D01*
X146494153Y-37211782D01*
X146514670Y-37224079D01*
X146533883Y-37238329D01*
X146551607Y-37254393D01*
X146567671Y-37272117D01*
X146581921Y-37291330D01*
X146594218Y-37311847D01*
X146604446Y-37333471D01*
X146612504Y-37355993D01*
X146618316Y-37379197D01*
X146621826Y-37402858D01*
X146623000Y-37426750D01*
X146623000Y-37914250D01*
X146621826Y-37938142D01*
X146618316Y-37961803D01*
X146612504Y-37985007D01*
X146604446Y-38007529D01*
X146594218Y-38029153D01*
X146581921Y-38049670D01*
X146567671Y-38068883D01*
X146551607Y-38086607D01*
X146533883Y-38102671D01*
X146514670Y-38116921D01*
X146494153Y-38129218D01*
X146472529Y-38139446D01*
X146450007Y-38147504D01*
X146426803Y-38153316D01*
X146403142Y-38156826D01*
X146379250Y-38158000D01*
X145466750Y-38158000D01*
X145442858Y-38156826D01*
X145419197Y-38153316D01*
X145395993Y-38147504D01*
X145373471Y-38139446D01*
X145351847Y-38129218D01*
X145331330Y-38116921D01*
X145312117Y-38102671D01*
X145294393Y-38086607D01*
X145278329Y-38068883D01*
X145264079Y-38049670D01*
X145251782Y-38029153D01*
X145241554Y-38007529D01*
X145233496Y-37985007D01*
X145227684Y-37961803D01*
X145224174Y-37938142D01*
X145223000Y-37914250D01*
X145223000Y-37426750D01*
X145224174Y-37402858D01*
X145227684Y-37379197D01*
X145233496Y-37355993D01*
X145241554Y-37333471D01*
X145251782Y-37311847D01*
X145264079Y-37291330D01*
X145278329Y-37272117D01*
X145294393Y-37254393D01*
X145312117Y-37238329D01*
X145331330Y-37224079D01*
X145351847Y-37211782D01*
X145373471Y-37201554D01*
X145395993Y-37193496D01*
X145419197Y-37187684D01*
X145442858Y-37184174D01*
X145466750Y-37183000D01*
X146379250Y-37183000D01*
X146403142Y-37184174D01*
X146403142Y-37184174D01*
G37*
D11*
G04 #@! TD*
G04 #@! TO.P,R7,1*
G04 #@! TO.N,Net-(J11-Pad1)*
X145923000Y-37670500D03*
D10*
G04 #@! TO.N,+3V3*
G04 #@! TO.C,C8*
G36*
X143863142Y-39059174D02*
X143886803Y-39062684D01*
X143910007Y-39068496D01*
X143932529Y-39076554D01*
X143954153Y-39086782D01*
X143974670Y-39099079D01*
X143993883Y-39113329D01*
X144011607Y-39129393D01*
X144027671Y-39147117D01*
X144041921Y-39166330D01*
X144054218Y-39186847D01*
X144064446Y-39208471D01*
X144072504Y-39230993D01*
X144078316Y-39254197D01*
X144081826Y-39277858D01*
X144083000Y-39301750D01*
X144083000Y-39789250D01*
X144081826Y-39813142D01*
X144078316Y-39836803D01*
X144072504Y-39860007D01*
X144064446Y-39882529D01*
X144054218Y-39904153D01*
X144041921Y-39924670D01*
X144027671Y-39943883D01*
X144011607Y-39961607D01*
X143993883Y-39977671D01*
X143974670Y-39991921D01*
X143954153Y-40004218D01*
X143932529Y-40014446D01*
X143910007Y-40022504D01*
X143886803Y-40028316D01*
X143863142Y-40031826D01*
X143839250Y-40033000D01*
X142926750Y-40033000D01*
X142902858Y-40031826D01*
X142879197Y-40028316D01*
X142855993Y-40022504D01*
X142833471Y-40014446D01*
X142811847Y-40004218D01*
X142791330Y-39991921D01*
X142772117Y-39977671D01*
X142754393Y-39961607D01*
X142738329Y-39943883D01*
X142724079Y-39924670D01*
X142711782Y-39904153D01*
X142701554Y-39882529D01*
X142693496Y-39860007D01*
X142687684Y-39836803D01*
X142684174Y-39813142D01*
X142683000Y-39789250D01*
X142683000Y-39301750D01*
X142684174Y-39277858D01*
X142687684Y-39254197D01*
X142693496Y-39230993D01*
X142701554Y-39208471D01*
X142711782Y-39186847D01*
X142724079Y-39166330D01*
X142738329Y-39147117D01*
X142754393Y-39129393D01*
X142772117Y-39113329D01*
X142791330Y-39099079D01*
X142811847Y-39086782D01*
X142833471Y-39076554D01*
X142855993Y-39068496D01*
X142879197Y-39062684D01*
X142902858Y-39059174D01*
X142926750Y-39058000D01*
X143839250Y-39058000D01*
X143863142Y-39059174D01*
X143863142Y-39059174D01*
G37*
D11*
G04 #@! TD*
G04 #@! TO.P,C8,1*
G04 #@! TO.N,+3V3*
X143383000Y-39545500D03*
D10*
G04 #@! TO.N,GND*
G04 #@! TO.C,C8*
G36*
X143863142Y-37184174D02*
X143886803Y-37187684D01*
X143910007Y-37193496D01*
X143932529Y-37201554D01*
X143954153Y-37211782D01*
X143974670Y-37224079D01*
X143993883Y-37238329D01*
X144011607Y-37254393D01*
X144027671Y-37272117D01*
X144041921Y-37291330D01*
X144054218Y-37311847D01*
X144064446Y-37333471D01*
X144072504Y-37355993D01*
X144078316Y-37379197D01*
X144081826Y-37402858D01*
X144083000Y-37426750D01*
X144083000Y-37914250D01*
X144081826Y-37938142D01*
X144078316Y-37961803D01*
X144072504Y-37985007D01*
X144064446Y-38007529D01*
X144054218Y-38029153D01*
X144041921Y-38049670D01*
X144027671Y-38068883D01*
X144011607Y-38086607D01*
X143993883Y-38102671D01*
X143974670Y-38116921D01*
X143954153Y-38129218D01*
X143932529Y-38139446D01*
X143910007Y-38147504D01*
X143886803Y-38153316D01*
X143863142Y-38156826D01*
X143839250Y-38158000D01*
X142926750Y-38158000D01*
X142902858Y-38156826D01*
X142879197Y-38153316D01*
X142855993Y-38147504D01*
X142833471Y-38139446D01*
X142811847Y-38129218D01*
X142791330Y-38116921D01*
X142772117Y-38102671D01*
X142754393Y-38086607D01*
X142738329Y-38068883D01*
X142724079Y-38049670D01*
X142711782Y-38029153D01*
X142701554Y-38007529D01*
X142693496Y-37985007D01*
X142687684Y-37961803D01*
X142684174Y-37938142D01*
X142683000Y-37914250D01*
X142683000Y-37426750D01*
X142684174Y-37402858D01*
X142687684Y-37379197D01*
X142693496Y-37355993D01*
X142701554Y-37333471D01*
X142711782Y-37311847D01*
X142724079Y-37291330D01*
X142738329Y-37272117D01*
X142754393Y-37254393D01*
X142772117Y-37238329D01*
X142791330Y-37224079D01*
X142811847Y-37211782D01*
X142833471Y-37201554D01*
X142855993Y-37193496D01*
X142879197Y-37187684D01*
X142902858Y-37184174D01*
X142926750Y-37183000D01*
X143839250Y-37183000D01*
X143863142Y-37184174D01*
X143863142Y-37184174D01*
G37*
D11*
G04 #@! TD*
G04 #@! TO.P,C8,2*
G04 #@! TO.N,GND*
X143383000Y-37670500D03*
D10*
G04 #@! TO.N,Net-(DS1-Pad11)*
G04 #@! TO.C,R4*
G36*
X141323142Y-39059174D02*
X141346803Y-39062684D01*
X141370007Y-39068496D01*
X141392529Y-39076554D01*
X141414153Y-39086782D01*
X141434670Y-39099079D01*
X141453883Y-39113329D01*
X141471607Y-39129393D01*
X141487671Y-39147117D01*
X141501921Y-39166330D01*
X141514218Y-39186847D01*
X141524446Y-39208471D01*
X141532504Y-39230993D01*
X141538316Y-39254197D01*
X141541826Y-39277858D01*
X141543000Y-39301750D01*
X141543000Y-39789250D01*
X141541826Y-39813142D01*
X141538316Y-39836803D01*
X141532504Y-39860007D01*
X141524446Y-39882529D01*
X141514218Y-39904153D01*
X141501921Y-39924670D01*
X141487671Y-39943883D01*
X141471607Y-39961607D01*
X141453883Y-39977671D01*
X141434670Y-39991921D01*
X141414153Y-40004218D01*
X141392529Y-40014446D01*
X141370007Y-40022504D01*
X141346803Y-40028316D01*
X141323142Y-40031826D01*
X141299250Y-40033000D01*
X140386750Y-40033000D01*
X140362858Y-40031826D01*
X140339197Y-40028316D01*
X140315993Y-40022504D01*
X140293471Y-40014446D01*
X140271847Y-40004218D01*
X140251330Y-39991921D01*
X140232117Y-39977671D01*
X140214393Y-39961607D01*
X140198329Y-39943883D01*
X140184079Y-39924670D01*
X140171782Y-39904153D01*
X140161554Y-39882529D01*
X140153496Y-39860007D01*
X140147684Y-39836803D01*
X140144174Y-39813142D01*
X140143000Y-39789250D01*
X140143000Y-39301750D01*
X140144174Y-39277858D01*
X140147684Y-39254197D01*
X140153496Y-39230993D01*
X140161554Y-39208471D01*
X140171782Y-39186847D01*
X140184079Y-39166330D01*
X140198329Y-39147117D01*
X140214393Y-39129393D01*
X140232117Y-39113329D01*
X140251330Y-39099079D01*
X140271847Y-39086782D01*
X140293471Y-39076554D01*
X140315993Y-39068496D01*
X140339197Y-39062684D01*
X140362858Y-39059174D01*
X140386750Y-39058000D01*
X141299250Y-39058000D01*
X141323142Y-39059174D01*
X141323142Y-39059174D01*
G37*
D11*
G04 #@! TD*
G04 #@! TO.P,R4,1*
G04 #@! TO.N,Net-(DS1-Pad11)*
X140843000Y-39545500D03*
D10*
G04 #@! TO.N,GND*
G04 #@! TO.C,R4*
G36*
X141323142Y-37184174D02*
X141346803Y-37187684D01*
X141370007Y-37193496D01*
X141392529Y-37201554D01*
X141414153Y-37211782D01*
X141434670Y-37224079D01*
X141453883Y-37238329D01*
X141471607Y-37254393D01*
X141487671Y-37272117D01*
X141501921Y-37291330D01*
X141514218Y-37311847D01*
X141524446Y-37333471D01*
X141532504Y-37355993D01*
X141538316Y-37379197D01*
X141541826Y-37402858D01*
X141543000Y-37426750D01*
X141543000Y-37914250D01*
X141541826Y-37938142D01*
X141538316Y-37961803D01*
X141532504Y-37985007D01*
X141524446Y-38007529D01*
X141514218Y-38029153D01*
X141501921Y-38049670D01*
X141487671Y-38068883D01*
X141471607Y-38086607D01*
X141453883Y-38102671D01*
X141434670Y-38116921D01*
X141414153Y-38129218D01*
X141392529Y-38139446D01*
X141370007Y-38147504D01*
X141346803Y-38153316D01*
X141323142Y-38156826D01*
X141299250Y-38158000D01*
X140386750Y-38158000D01*
X140362858Y-38156826D01*
X140339197Y-38153316D01*
X140315993Y-38147504D01*
X140293471Y-38139446D01*
X140271847Y-38129218D01*
X140251330Y-38116921D01*
X140232117Y-38102671D01*
X140214393Y-38086607D01*
X140198329Y-38068883D01*
X140184079Y-38049670D01*
X140171782Y-38029153D01*
X140161554Y-38007529D01*
X140153496Y-37985007D01*
X140147684Y-37961803D01*
X140144174Y-37938142D01*
X140143000Y-37914250D01*
X140143000Y-37426750D01*
X140144174Y-37402858D01*
X140147684Y-37379197D01*
X140153496Y-37355993D01*
X140161554Y-37333471D01*
X140171782Y-37311847D01*
X140184079Y-37291330D01*
X140198329Y-37272117D01*
X140214393Y-37254393D01*
X140232117Y-37238329D01*
X140251330Y-37224079D01*
X140271847Y-37211782D01*
X140293471Y-37201554D01*
X140315993Y-37193496D01*
X140339197Y-37187684D01*
X140362858Y-37184174D01*
X140386750Y-37183000D01*
X141299250Y-37183000D01*
X141323142Y-37184174D01*
X141323142Y-37184174D01*
G37*
D11*
G04 #@! TD*
G04 #@! TO.P,R4,2*
G04 #@! TO.N,GND*
X140843000Y-37670500D03*
D10*
G04 #@! TO.N,/VSPI_CS*
G04 #@! TO.C,DS1*
G36*
X150493252Y-79391002D02*
X150505386Y-79392802D01*
X150517286Y-79395782D01*
X150528835Y-79399915D01*
X150539925Y-79405160D01*
X150550446Y-79411466D01*
X150560299Y-79418774D01*
X150569388Y-79427012D01*
X150577626Y-79436101D01*
X150584934Y-79445954D01*
X150591240Y-79456475D01*
X150596485Y-79467565D01*
X150600618Y-79479114D01*
X150603598Y-79491014D01*
X150605398Y-79503148D01*
X150606000Y-79515400D01*
X150606000Y-79765400D01*
X150605398Y-79777652D01*
X150603598Y-79789786D01*
X150600618Y-79801686D01*
X150596485Y-79813235D01*
X150591240Y-79824325D01*
X150584934Y-79834846D01*
X150577626Y-79844699D01*
X150569388Y-79853788D01*
X150560299Y-79862026D01*
X150550446Y-79869334D01*
X150539925Y-79875640D01*
X150528835Y-79880885D01*
X150517286Y-79885018D01*
X150505386Y-79887998D01*
X150493252Y-79889798D01*
X150481000Y-79890400D01*
X148731000Y-79890400D01*
X148718748Y-79889798D01*
X148706614Y-79887998D01*
X148694714Y-79885018D01*
X148683165Y-79880885D01*
X148672075Y-79875640D01*
X148661554Y-79869334D01*
X148651701Y-79862026D01*
X148642612Y-79853788D01*
X148634374Y-79844699D01*
X148627066Y-79834846D01*
X148620760Y-79824325D01*
X148615515Y-79813235D01*
X148611382Y-79801686D01*
X148608402Y-79789786D01*
X148606602Y-79777652D01*
X148606000Y-79765400D01*
X148606000Y-79515400D01*
X148606602Y-79503148D01*
X148608402Y-79491014D01*
X148611382Y-79479114D01*
X148615515Y-79467565D01*
X148620760Y-79456475D01*
X148627066Y-79445954D01*
X148634374Y-79436101D01*
X148642612Y-79427012D01*
X148651701Y-79418774D01*
X148661554Y-79411466D01*
X148672075Y-79405160D01*
X148683165Y-79399915D01*
X148694714Y-79395782D01*
X148706614Y-79392802D01*
X148718748Y-79391002D01*
X148731000Y-79390400D01*
X150481000Y-79390400D01*
X150493252Y-79391002D01*
X150493252Y-79391002D01*
G37*
D12*
G04 #@! TD*
G04 #@! TO.P,DS1,5*
G04 #@! TO.N,/VSPI_CS*
X149606000Y-79640400D03*
D10*
G04 #@! TO.N,GND*
G04 #@! TO.C,DS1*
G36*
X150493252Y-82591002D02*
X150505386Y-82592802D01*
X150517286Y-82595782D01*
X150528835Y-82599915D01*
X150539925Y-82605160D01*
X150550446Y-82611466D01*
X150560299Y-82618774D01*
X150569388Y-82627012D01*
X150577626Y-82636101D01*
X150584934Y-82645954D01*
X150591240Y-82656475D01*
X150596485Y-82667565D01*
X150600618Y-82679114D01*
X150603598Y-82691014D01*
X150605398Y-82703148D01*
X150606000Y-82715400D01*
X150606000Y-82965400D01*
X150605398Y-82977652D01*
X150603598Y-82989786D01*
X150600618Y-83001686D01*
X150596485Y-83013235D01*
X150591240Y-83024325D01*
X150584934Y-83034846D01*
X150577626Y-83044699D01*
X150569388Y-83053788D01*
X150560299Y-83062026D01*
X150550446Y-83069334D01*
X150539925Y-83075640D01*
X150528835Y-83080885D01*
X150517286Y-83085018D01*
X150505386Y-83087998D01*
X150493252Y-83089798D01*
X150481000Y-83090400D01*
X148731000Y-83090400D01*
X148718748Y-83089798D01*
X148706614Y-83087998D01*
X148694714Y-83085018D01*
X148683165Y-83080885D01*
X148672075Y-83075640D01*
X148661554Y-83069334D01*
X148651701Y-83062026D01*
X148642612Y-83053788D01*
X148634374Y-83044699D01*
X148627066Y-83034846D01*
X148620760Y-83024325D01*
X148615515Y-83013235D01*
X148611382Y-83001686D01*
X148608402Y-82989786D01*
X148606602Y-82977652D01*
X148606000Y-82965400D01*
X148606000Y-82715400D01*
X148606602Y-82703148D01*
X148608402Y-82691014D01*
X148611382Y-82679114D01*
X148615515Y-82667565D01*
X148620760Y-82656475D01*
X148627066Y-82645954D01*
X148634374Y-82636101D01*
X148642612Y-82627012D01*
X148651701Y-82618774D01*
X148661554Y-82611466D01*
X148672075Y-82605160D01*
X148683165Y-82599915D01*
X148694714Y-82595782D01*
X148706614Y-82592802D01*
X148718748Y-82591002D01*
X148731000Y-82590400D01*
X150481000Y-82590400D01*
X150493252Y-82591002D01*
X150493252Y-82591002D01*
G37*
D12*
G04 #@! TD*
G04 #@! TO.P,DS1,1*
G04 #@! TO.N,GND*
X149606000Y-82840400D03*
D10*
G04 #@! TO.N,Net-(DS1-Pad15)*
G04 #@! TO.C,DS1*
G36*
X150493252Y-71391002D02*
X150505386Y-71392802D01*
X150517286Y-71395782D01*
X150528835Y-71399915D01*
X150539925Y-71405160D01*
X150550446Y-71411466D01*
X150560299Y-71418774D01*
X150569388Y-71427012D01*
X150577626Y-71436101D01*
X150584934Y-71445954D01*
X150591240Y-71456475D01*
X150596485Y-71467565D01*
X150600618Y-71479114D01*
X150603598Y-71491014D01*
X150605398Y-71503148D01*
X150606000Y-71515400D01*
X150606000Y-71765400D01*
X150605398Y-71777652D01*
X150603598Y-71789786D01*
X150600618Y-71801686D01*
X150596485Y-71813235D01*
X150591240Y-71824325D01*
X150584934Y-71834846D01*
X150577626Y-71844699D01*
X150569388Y-71853788D01*
X150560299Y-71862026D01*
X150550446Y-71869334D01*
X150539925Y-71875640D01*
X150528835Y-71880885D01*
X150517286Y-71885018D01*
X150505386Y-71887998D01*
X150493252Y-71889798D01*
X150481000Y-71890400D01*
X148731000Y-71890400D01*
X148718748Y-71889798D01*
X148706614Y-71887998D01*
X148694714Y-71885018D01*
X148683165Y-71880885D01*
X148672075Y-71875640D01*
X148661554Y-71869334D01*
X148651701Y-71862026D01*
X148642612Y-71853788D01*
X148634374Y-71844699D01*
X148627066Y-71834846D01*
X148620760Y-71824325D01*
X148615515Y-71813235D01*
X148611382Y-71801686D01*
X148608402Y-71789786D01*
X148606602Y-71777652D01*
X148606000Y-71765400D01*
X148606000Y-71515400D01*
X148606602Y-71503148D01*
X148608402Y-71491014D01*
X148611382Y-71479114D01*
X148615515Y-71467565D01*
X148620760Y-71456475D01*
X148627066Y-71445954D01*
X148634374Y-71436101D01*
X148642612Y-71427012D01*
X148651701Y-71418774D01*
X148661554Y-71411466D01*
X148672075Y-71405160D01*
X148683165Y-71399915D01*
X148694714Y-71395782D01*
X148706614Y-71392802D01*
X148718748Y-71391002D01*
X148731000Y-71390400D01*
X150481000Y-71390400D01*
X150493252Y-71391002D01*
X150493252Y-71391002D01*
G37*
D12*
G04 #@! TD*
G04 #@! TO.P,DS1,15*
G04 #@! TO.N,Net-(DS1-Pad15)*
X149606000Y-71640400D03*
D10*
G04 #@! TO.N,+3V3*
G04 #@! TO.C,DS1*
G36*
X150493252Y-75391002D02*
X150505386Y-75392802D01*
X150517286Y-75395782D01*
X150528835Y-75399915D01*
X150539925Y-75405160D01*
X150550446Y-75411466D01*
X150560299Y-75418774D01*
X150569388Y-75427012D01*
X150577626Y-75436101D01*
X150584934Y-75445954D01*
X150591240Y-75456475D01*
X150596485Y-75467565D01*
X150600618Y-75479114D01*
X150603598Y-75491014D01*
X150605398Y-75503148D01*
X150606000Y-75515400D01*
X150606000Y-75765400D01*
X150605398Y-75777652D01*
X150603598Y-75789786D01*
X150600618Y-75801686D01*
X150596485Y-75813235D01*
X150591240Y-75824325D01*
X150584934Y-75834846D01*
X150577626Y-75844699D01*
X150569388Y-75853788D01*
X150560299Y-75862026D01*
X150550446Y-75869334D01*
X150539925Y-75875640D01*
X150528835Y-75880885D01*
X150517286Y-75885018D01*
X150505386Y-75887998D01*
X150493252Y-75889798D01*
X150481000Y-75890400D01*
X148731000Y-75890400D01*
X148718748Y-75889798D01*
X148706614Y-75887998D01*
X148694714Y-75885018D01*
X148683165Y-75880885D01*
X148672075Y-75875640D01*
X148661554Y-75869334D01*
X148651701Y-75862026D01*
X148642612Y-75853788D01*
X148634374Y-75844699D01*
X148627066Y-75834846D01*
X148620760Y-75824325D01*
X148615515Y-75813235D01*
X148611382Y-75801686D01*
X148608402Y-75789786D01*
X148606602Y-75777652D01*
X148606000Y-75765400D01*
X148606000Y-75515400D01*
X148606602Y-75503148D01*
X148608402Y-75491014D01*
X148611382Y-75479114D01*
X148615515Y-75467565D01*
X148620760Y-75456475D01*
X148627066Y-75445954D01*
X148634374Y-75436101D01*
X148642612Y-75427012D01*
X148651701Y-75418774D01*
X148661554Y-75411466D01*
X148672075Y-75405160D01*
X148683165Y-75399915D01*
X148694714Y-75395782D01*
X148706614Y-75392802D01*
X148718748Y-75391002D01*
X148731000Y-75390400D01*
X150481000Y-75390400D01*
X150493252Y-75391002D01*
X150493252Y-75391002D01*
G37*
D12*
G04 #@! TD*
G04 #@! TO.P,DS1,10*
G04 #@! TO.N,+3V3*
X149606000Y-75640400D03*
D10*
G04 #@! TO.N,Net-(DS1-Pad18)*
G04 #@! TO.C,DS1*
G36*
X150493252Y-68991002D02*
X150505386Y-68992802D01*
X150517286Y-68995782D01*
X150528835Y-68999915D01*
X150539925Y-69005160D01*
X150550446Y-69011466D01*
X150560299Y-69018774D01*
X150569388Y-69027012D01*
X150577626Y-69036101D01*
X150584934Y-69045954D01*
X150591240Y-69056475D01*
X150596485Y-69067565D01*
X150600618Y-69079114D01*
X150603598Y-69091014D01*
X150605398Y-69103148D01*
X150606000Y-69115400D01*
X150606000Y-69365400D01*
X150605398Y-69377652D01*
X150603598Y-69389786D01*
X150600618Y-69401686D01*
X150596485Y-69413235D01*
X150591240Y-69424325D01*
X150584934Y-69434846D01*
X150577626Y-69444699D01*
X150569388Y-69453788D01*
X150560299Y-69462026D01*
X150550446Y-69469334D01*
X150539925Y-69475640D01*
X150528835Y-69480885D01*
X150517286Y-69485018D01*
X150505386Y-69487998D01*
X150493252Y-69489798D01*
X150481000Y-69490400D01*
X148731000Y-69490400D01*
X148718748Y-69489798D01*
X148706614Y-69487998D01*
X148694714Y-69485018D01*
X148683165Y-69480885D01*
X148672075Y-69475640D01*
X148661554Y-69469334D01*
X148651701Y-69462026D01*
X148642612Y-69453788D01*
X148634374Y-69444699D01*
X148627066Y-69434846D01*
X148620760Y-69424325D01*
X148615515Y-69413235D01*
X148611382Y-69401686D01*
X148608402Y-69389786D01*
X148606602Y-69377652D01*
X148606000Y-69365400D01*
X148606000Y-69115400D01*
X148606602Y-69103148D01*
X148608402Y-69091014D01*
X148611382Y-69079114D01*
X148615515Y-69067565D01*
X148620760Y-69056475D01*
X148627066Y-69045954D01*
X148634374Y-69036101D01*
X148642612Y-69027012D01*
X148651701Y-69018774D01*
X148661554Y-69011466D01*
X148672075Y-69005160D01*
X148683165Y-68999915D01*
X148694714Y-68995782D01*
X148706614Y-68992802D01*
X148718748Y-68991002D01*
X148731000Y-68990400D01*
X150481000Y-68990400D01*
X150493252Y-68991002D01*
X150493252Y-68991002D01*
G37*
D12*
G04 #@! TD*
G04 #@! TO.P,DS1,18*
G04 #@! TO.N,Net-(DS1-Pad18)*
X149606000Y-69240400D03*
D10*
G04 #@! TO.N,Net-(DS1-Pad11)*
G04 #@! TO.C,DS1*
G36*
X150493252Y-72991002D02*
X150505386Y-72992802D01*
X150517286Y-72995782D01*
X150528835Y-72999915D01*
X150539925Y-73005160D01*
X150550446Y-73011466D01*
X150560299Y-73018774D01*
X150569388Y-73027012D01*
X150577626Y-73036101D01*
X150584934Y-73045954D01*
X150591240Y-73056475D01*
X150596485Y-73067565D01*
X150600618Y-73079114D01*
X150603598Y-73091014D01*
X150605398Y-73103148D01*
X150606000Y-73115400D01*
X150606000Y-73365400D01*
X150605398Y-73377652D01*
X150603598Y-73389786D01*
X150600618Y-73401686D01*
X150596485Y-73413235D01*
X150591240Y-73424325D01*
X150584934Y-73434846D01*
X150577626Y-73444699D01*
X150569388Y-73453788D01*
X150560299Y-73462026D01*
X150550446Y-73469334D01*
X150539925Y-73475640D01*
X150528835Y-73480885D01*
X150517286Y-73485018D01*
X150505386Y-73487998D01*
X150493252Y-73489798D01*
X150481000Y-73490400D01*
X148731000Y-73490400D01*
X148718748Y-73489798D01*
X148706614Y-73487998D01*
X148694714Y-73485018D01*
X148683165Y-73480885D01*
X148672075Y-73475640D01*
X148661554Y-73469334D01*
X148651701Y-73462026D01*
X148642612Y-73453788D01*
X148634374Y-73444699D01*
X148627066Y-73434846D01*
X148620760Y-73424325D01*
X148615515Y-73413235D01*
X148611382Y-73401686D01*
X148608402Y-73389786D01*
X148606602Y-73377652D01*
X148606000Y-73365400D01*
X148606000Y-73115400D01*
X148606602Y-73103148D01*
X148608402Y-73091014D01*
X148611382Y-73079114D01*
X148615515Y-73067565D01*
X148620760Y-73056475D01*
X148627066Y-73045954D01*
X148634374Y-73036101D01*
X148642612Y-73027012D01*
X148651701Y-73018774D01*
X148661554Y-73011466D01*
X148672075Y-73005160D01*
X148683165Y-72999915D01*
X148694714Y-72995782D01*
X148706614Y-72992802D01*
X148718748Y-72991002D01*
X148731000Y-72990400D01*
X150481000Y-72990400D01*
X150493252Y-72991002D01*
X150493252Y-72991002D01*
G37*
D12*
G04 #@! TD*
G04 #@! TO.P,DS1,13*
G04 #@! TO.N,Net-(DS1-Pad11)*
X149606000Y-73240400D03*
D10*
G04 #@! TO.N,Net-(DS1-Pad8)*
G04 #@! TO.C,DS1*
G36*
X150493252Y-76991002D02*
X150505386Y-76992802D01*
X150517286Y-76995782D01*
X150528835Y-76999915D01*
X150539925Y-77005160D01*
X150550446Y-77011466D01*
X150560299Y-77018774D01*
X150569388Y-77027012D01*
X150577626Y-77036101D01*
X150584934Y-77045954D01*
X150591240Y-77056475D01*
X150596485Y-77067565D01*
X150600618Y-77079114D01*
X150603598Y-77091014D01*
X150605398Y-77103148D01*
X150606000Y-77115400D01*
X150606000Y-77365400D01*
X150605398Y-77377652D01*
X150603598Y-77389786D01*
X150600618Y-77401686D01*
X150596485Y-77413235D01*
X150591240Y-77424325D01*
X150584934Y-77434846D01*
X150577626Y-77444699D01*
X150569388Y-77453788D01*
X150560299Y-77462026D01*
X150550446Y-77469334D01*
X150539925Y-77475640D01*
X150528835Y-77480885D01*
X150517286Y-77485018D01*
X150505386Y-77487998D01*
X150493252Y-77489798D01*
X150481000Y-77490400D01*
X148731000Y-77490400D01*
X148718748Y-77489798D01*
X148706614Y-77487998D01*
X148694714Y-77485018D01*
X148683165Y-77480885D01*
X148672075Y-77475640D01*
X148661554Y-77469334D01*
X148651701Y-77462026D01*
X148642612Y-77453788D01*
X148634374Y-77444699D01*
X148627066Y-77434846D01*
X148620760Y-77424325D01*
X148615515Y-77413235D01*
X148611382Y-77401686D01*
X148608402Y-77389786D01*
X148606602Y-77377652D01*
X148606000Y-77365400D01*
X148606000Y-77115400D01*
X148606602Y-77103148D01*
X148608402Y-77091014D01*
X148611382Y-77079114D01*
X148615515Y-77067565D01*
X148620760Y-77056475D01*
X148627066Y-77045954D01*
X148634374Y-77036101D01*
X148642612Y-77027012D01*
X148651701Y-77018774D01*
X148661554Y-77011466D01*
X148672075Y-77005160D01*
X148683165Y-76999915D01*
X148694714Y-76995782D01*
X148706614Y-76992802D01*
X148718748Y-76991002D01*
X148731000Y-76990400D01*
X150481000Y-76990400D01*
X150493252Y-76991002D01*
X150493252Y-76991002D01*
G37*
D12*
G04 #@! TD*
G04 #@! TO.P,DS1,8*
G04 #@! TO.N,Net-(DS1-Pad8)*
X149606000Y-77240400D03*
D10*
G04 #@! TO.N,/VSPI_MISO*
G04 #@! TO.C,DS1*
G36*
X150493252Y-77791002D02*
X150505386Y-77792802D01*
X150517286Y-77795782D01*
X150528835Y-77799915D01*
X150539925Y-77805160D01*
X150550446Y-77811466D01*
X150560299Y-77818774D01*
X150569388Y-77827012D01*
X150577626Y-77836101D01*
X150584934Y-77845954D01*
X150591240Y-77856475D01*
X150596485Y-77867565D01*
X150600618Y-77879114D01*
X150603598Y-77891014D01*
X150605398Y-77903148D01*
X150606000Y-77915400D01*
X150606000Y-78165400D01*
X150605398Y-78177652D01*
X150603598Y-78189786D01*
X150600618Y-78201686D01*
X150596485Y-78213235D01*
X150591240Y-78224325D01*
X150584934Y-78234846D01*
X150577626Y-78244699D01*
X150569388Y-78253788D01*
X150560299Y-78262026D01*
X150550446Y-78269334D01*
X150539925Y-78275640D01*
X150528835Y-78280885D01*
X150517286Y-78285018D01*
X150505386Y-78287998D01*
X150493252Y-78289798D01*
X150481000Y-78290400D01*
X148731000Y-78290400D01*
X148718748Y-78289798D01*
X148706614Y-78287998D01*
X148694714Y-78285018D01*
X148683165Y-78280885D01*
X148672075Y-78275640D01*
X148661554Y-78269334D01*
X148651701Y-78262026D01*
X148642612Y-78253788D01*
X148634374Y-78244699D01*
X148627066Y-78234846D01*
X148620760Y-78224325D01*
X148615515Y-78213235D01*
X148611382Y-78201686D01*
X148608402Y-78189786D01*
X148606602Y-78177652D01*
X148606000Y-78165400D01*
X148606000Y-77915400D01*
X148606602Y-77903148D01*
X148608402Y-77891014D01*
X148611382Y-77879114D01*
X148615515Y-77867565D01*
X148620760Y-77856475D01*
X148627066Y-77845954D01*
X148634374Y-77836101D01*
X148642612Y-77827012D01*
X148651701Y-77818774D01*
X148661554Y-77811466D01*
X148672075Y-77805160D01*
X148683165Y-77799915D01*
X148694714Y-77795782D01*
X148706614Y-77792802D01*
X148718748Y-77791002D01*
X148731000Y-77790400D01*
X150481000Y-77790400D01*
X150493252Y-77791002D01*
X150493252Y-77791002D01*
G37*
D12*
G04 #@! TD*
G04 #@! TO.P,DS1,7*
G04 #@! TO.N,/VSPI_MISO*
X149606000Y-78040400D03*
D10*
G04 #@! TO.N,Net-(DS1-Pad17)*
G04 #@! TO.C,DS1*
G36*
X150493252Y-69791002D02*
X150505386Y-69792802D01*
X150517286Y-69795782D01*
X150528835Y-69799915D01*
X150539925Y-69805160D01*
X150550446Y-69811466D01*
X150560299Y-69818774D01*
X150569388Y-69827012D01*
X150577626Y-69836101D01*
X150584934Y-69845954D01*
X150591240Y-69856475D01*
X150596485Y-69867565D01*
X150600618Y-69879114D01*
X150603598Y-69891014D01*
X150605398Y-69903148D01*
X150606000Y-69915400D01*
X150606000Y-70165400D01*
X150605398Y-70177652D01*
X150603598Y-70189786D01*
X150600618Y-70201686D01*
X150596485Y-70213235D01*
X150591240Y-70224325D01*
X150584934Y-70234846D01*
X150577626Y-70244699D01*
X150569388Y-70253788D01*
X150560299Y-70262026D01*
X150550446Y-70269334D01*
X150539925Y-70275640D01*
X150528835Y-70280885D01*
X150517286Y-70285018D01*
X150505386Y-70287998D01*
X150493252Y-70289798D01*
X150481000Y-70290400D01*
X148731000Y-70290400D01*
X148718748Y-70289798D01*
X148706614Y-70287998D01*
X148694714Y-70285018D01*
X148683165Y-70280885D01*
X148672075Y-70275640D01*
X148661554Y-70269334D01*
X148651701Y-70262026D01*
X148642612Y-70253788D01*
X148634374Y-70244699D01*
X148627066Y-70234846D01*
X148620760Y-70224325D01*
X148615515Y-70213235D01*
X148611382Y-70201686D01*
X148608402Y-70189786D01*
X148606602Y-70177652D01*
X148606000Y-70165400D01*
X148606000Y-69915400D01*
X148606602Y-69903148D01*
X148608402Y-69891014D01*
X148611382Y-69879114D01*
X148615515Y-69867565D01*
X148620760Y-69856475D01*
X148627066Y-69845954D01*
X148634374Y-69836101D01*
X148642612Y-69827012D01*
X148651701Y-69818774D01*
X148661554Y-69811466D01*
X148672075Y-69805160D01*
X148683165Y-69799915D01*
X148694714Y-69795782D01*
X148706614Y-69792802D01*
X148718748Y-69791002D01*
X148731000Y-69790400D01*
X150481000Y-69790400D01*
X150493252Y-69791002D01*
X150493252Y-69791002D01*
G37*
D12*
G04 #@! TD*
G04 #@! TO.P,DS1,17*
G04 #@! TO.N,Net-(DS1-Pad17)*
X149606000Y-70040400D03*
D10*
G04 #@! TO.N,Net-(DS1-Pad11)*
G04 #@! TO.C,DS1*
G36*
X150493252Y-73791002D02*
X150505386Y-73792802D01*
X150517286Y-73795782D01*
X150528835Y-73799915D01*
X150539925Y-73805160D01*
X150550446Y-73811466D01*
X150560299Y-73818774D01*
X150569388Y-73827012D01*
X150577626Y-73836101D01*
X150584934Y-73845954D01*
X150591240Y-73856475D01*
X150596485Y-73867565D01*
X150600618Y-73879114D01*
X150603598Y-73891014D01*
X150605398Y-73903148D01*
X150606000Y-73915400D01*
X150606000Y-74165400D01*
X150605398Y-74177652D01*
X150603598Y-74189786D01*
X150600618Y-74201686D01*
X150596485Y-74213235D01*
X150591240Y-74224325D01*
X150584934Y-74234846D01*
X150577626Y-74244699D01*
X150569388Y-74253788D01*
X150560299Y-74262026D01*
X150550446Y-74269334D01*
X150539925Y-74275640D01*
X150528835Y-74280885D01*
X150517286Y-74285018D01*
X150505386Y-74287998D01*
X150493252Y-74289798D01*
X150481000Y-74290400D01*
X148731000Y-74290400D01*
X148718748Y-74289798D01*
X148706614Y-74287998D01*
X148694714Y-74285018D01*
X148683165Y-74280885D01*
X148672075Y-74275640D01*
X148661554Y-74269334D01*
X148651701Y-74262026D01*
X148642612Y-74253788D01*
X148634374Y-74244699D01*
X148627066Y-74234846D01*
X148620760Y-74224325D01*
X148615515Y-74213235D01*
X148611382Y-74201686D01*
X148608402Y-74189786D01*
X148606602Y-74177652D01*
X148606000Y-74165400D01*
X148606000Y-73915400D01*
X148606602Y-73903148D01*
X148608402Y-73891014D01*
X148611382Y-73879114D01*
X148615515Y-73867565D01*
X148620760Y-73856475D01*
X148627066Y-73845954D01*
X148634374Y-73836101D01*
X148642612Y-73827012D01*
X148651701Y-73818774D01*
X148661554Y-73811466D01*
X148672075Y-73805160D01*
X148683165Y-73799915D01*
X148694714Y-73795782D01*
X148706614Y-73792802D01*
X148718748Y-73791002D01*
X148731000Y-73790400D01*
X150481000Y-73790400D01*
X150493252Y-73791002D01*
X150493252Y-73791002D01*
G37*
D12*
G04 #@! TD*
G04 #@! TO.P,DS1,12*
G04 #@! TO.N,Net-(DS1-Pad11)*
X149606000Y-74040400D03*
D10*
G04 #@! TO.N,/VSPI_SCK*
G04 #@! TO.C,DS1*
G36*
X150493252Y-80991002D02*
X150505386Y-80992802D01*
X150517286Y-80995782D01*
X150528835Y-80999915D01*
X150539925Y-81005160D01*
X150550446Y-81011466D01*
X150560299Y-81018774D01*
X150569388Y-81027012D01*
X150577626Y-81036101D01*
X150584934Y-81045954D01*
X150591240Y-81056475D01*
X150596485Y-81067565D01*
X150600618Y-81079114D01*
X150603598Y-81091014D01*
X150605398Y-81103148D01*
X150606000Y-81115400D01*
X150606000Y-81365400D01*
X150605398Y-81377652D01*
X150603598Y-81389786D01*
X150600618Y-81401686D01*
X150596485Y-81413235D01*
X150591240Y-81424325D01*
X150584934Y-81434846D01*
X150577626Y-81444699D01*
X150569388Y-81453788D01*
X150560299Y-81462026D01*
X150550446Y-81469334D01*
X150539925Y-81475640D01*
X150528835Y-81480885D01*
X150517286Y-81485018D01*
X150505386Y-81487998D01*
X150493252Y-81489798D01*
X150481000Y-81490400D01*
X148731000Y-81490400D01*
X148718748Y-81489798D01*
X148706614Y-81487998D01*
X148694714Y-81485018D01*
X148683165Y-81480885D01*
X148672075Y-81475640D01*
X148661554Y-81469334D01*
X148651701Y-81462026D01*
X148642612Y-81453788D01*
X148634374Y-81444699D01*
X148627066Y-81434846D01*
X148620760Y-81424325D01*
X148615515Y-81413235D01*
X148611382Y-81401686D01*
X148608402Y-81389786D01*
X148606602Y-81377652D01*
X148606000Y-81365400D01*
X148606000Y-81115400D01*
X148606602Y-81103148D01*
X148608402Y-81091014D01*
X148611382Y-81079114D01*
X148615515Y-81067565D01*
X148620760Y-81056475D01*
X148627066Y-81045954D01*
X148634374Y-81036101D01*
X148642612Y-81027012D01*
X148651701Y-81018774D01*
X148661554Y-81011466D01*
X148672075Y-81005160D01*
X148683165Y-80999915D01*
X148694714Y-80995782D01*
X148706614Y-80992802D01*
X148718748Y-80991002D01*
X148731000Y-80990400D01*
X150481000Y-80990400D01*
X150493252Y-80991002D01*
X150493252Y-80991002D01*
G37*
D12*
G04 #@! TD*
G04 #@! TO.P,DS1,3*
G04 #@! TO.N,/VSPI_SCK*
X149606000Y-81240400D03*
D10*
G04 #@! TO.N,Net-(DS1-Pad11)*
G04 #@! TO.C,DS1*
G36*
X150493252Y-74591002D02*
X150505386Y-74592802D01*
X150517286Y-74595782D01*
X150528835Y-74599915D01*
X150539925Y-74605160D01*
X150550446Y-74611466D01*
X150560299Y-74618774D01*
X150569388Y-74627012D01*
X150577626Y-74636101D01*
X150584934Y-74645954D01*
X150591240Y-74656475D01*
X150596485Y-74667565D01*
X150600618Y-74679114D01*
X150603598Y-74691014D01*
X150605398Y-74703148D01*
X150606000Y-74715400D01*
X150606000Y-74965400D01*
X150605398Y-74977652D01*
X150603598Y-74989786D01*
X150600618Y-75001686D01*
X150596485Y-75013235D01*
X150591240Y-75024325D01*
X150584934Y-75034846D01*
X150577626Y-75044699D01*
X150569388Y-75053788D01*
X150560299Y-75062026D01*
X150550446Y-75069334D01*
X150539925Y-75075640D01*
X150528835Y-75080885D01*
X150517286Y-75085018D01*
X150505386Y-75087998D01*
X150493252Y-75089798D01*
X150481000Y-75090400D01*
X148731000Y-75090400D01*
X148718748Y-75089798D01*
X148706614Y-75087998D01*
X148694714Y-75085018D01*
X148683165Y-75080885D01*
X148672075Y-75075640D01*
X148661554Y-75069334D01*
X148651701Y-75062026D01*
X148642612Y-75053788D01*
X148634374Y-75044699D01*
X148627066Y-75034846D01*
X148620760Y-75024325D01*
X148615515Y-75013235D01*
X148611382Y-75001686D01*
X148608402Y-74989786D01*
X148606602Y-74977652D01*
X148606000Y-74965400D01*
X148606000Y-74715400D01*
X148606602Y-74703148D01*
X148608402Y-74691014D01*
X148611382Y-74679114D01*
X148615515Y-74667565D01*
X148620760Y-74656475D01*
X148627066Y-74645954D01*
X148634374Y-74636101D01*
X148642612Y-74627012D01*
X148651701Y-74618774D01*
X148661554Y-74611466D01*
X148672075Y-74605160D01*
X148683165Y-74599915D01*
X148694714Y-74595782D01*
X148706614Y-74592802D01*
X148718748Y-74591002D01*
X148731000Y-74590400D01*
X150481000Y-74590400D01*
X150493252Y-74591002D01*
X150493252Y-74591002D01*
G37*
D12*
G04 #@! TD*
G04 #@! TO.P,DS1,11*
G04 #@! TO.N,Net-(DS1-Pad11)*
X149606000Y-74840400D03*
D10*
G04 #@! TO.N,/LCD_RST*
G04 #@! TO.C,DS1*
G36*
X150493252Y-81791002D02*
X150505386Y-81792802D01*
X150517286Y-81795782D01*
X150528835Y-81799915D01*
X150539925Y-81805160D01*
X150550446Y-81811466D01*
X150560299Y-81818774D01*
X150569388Y-81827012D01*
X150577626Y-81836101D01*
X150584934Y-81845954D01*
X150591240Y-81856475D01*
X150596485Y-81867565D01*
X150600618Y-81879114D01*
X150603598Y-81891014D01*
X150605398Y-81903148D01*
X150606000Y-81915400D01*
X150606000Y-82165400D01*
X150605398Y-82177652D01*
X150603598Y-82189786D01*
X150600618Y-82201686D01*
X150596485Y-82213235D01*
X150591240Y-82224325D01*
X150584934Y-82234846D01*
X150577626Y-82244699D01*
X150569388Y-82253788D01*
X150560299Y-82262026D01*
X150550446Y-82269334D01*
X150539925Y-82275640D01*
X150528835Y-82280885D01*
X150517286Y-82285018D01*
X150505386Y-82287998D01*
X150493252Y-82289798D01*
X150481000Y-82290400D01*
X148731000Y-82290400D01*
X148718748Y-82289798D01*
X148706614Y-82287998D01*
X148694714Y-82285018D01*
X148683165Y-82280885D01*
X148672075Y-82275640D01*
X148661554Y-82269334D01*
X148651701Y-82262026D01*
X148642612Y-82253788D01*
X148634374Y-82244699D01*
X148627066Y-82234846D01*
X148620760Y-82224325D01*
X148615515Y-82213235D01*
X148611382Y-82201686D01*
X148608402Y-82189786D01*
X148606602Y-82177652D01*
X148606000Y-82165400D01*
X148606000Y-81915400D01*
X148606602Y-81903148D01*
X148608402Y-81891014D01*
X148611382Y-81879114D01*
X148615515Y-81867565D01*
X148620760Y-81856475D01*
X148627066Y-81845954D01*
X148634374Y-81836101D01*
X148642612Y-81827012D01*
X148651701Y-81818774D01*
X148661554Y-81811466D01*
X148672075Y-81805160D01*
X148683165Y-81799915D01*
X148694714Y-81795782D01*
X148706614Y-81792802D01*
X148718748Y-81791002D01*
X148731000Y-81790400D01*
X150481000Y-81790400D01*
X150493252Y-81791002D01*
X150493252Y-81791002D01*
G37*
D12*
G04 #@! TD*
G04 #@! TO.P,DS1,2*
G04 #@! TO.N,/LCD_RST*
X149606000Y-82040400D03*
D10*
G04 #@! TO.N,+3V3*
G04 #@! TO.C,DS1*
G36*
X150493252Y-76191002D02*
X150505386Y-76192802D01*
X150517286Y-76195782D01*
X150528835Y-76199915D01*
X150539925Y-76205160D01*
X150550446Y-76211466D01*
X150560299Y-76218774D01*
X150569388Y-76227012D01*
X150577626Y-76236101D01*
X150584934Y-76245954D01*
X150591240Y-76256475D01*
X150596485Y-76267565D01*
X150600618Y-76279114D01*
X150603598Y-76291014D01*
X150605398Y-76303148D01*
X150606000Y-76315400D01*
X150606000Y-76565400D01*
X150605398Y-76577652D01*
X150603598Y-76589786D01*
X150600618Y-76601686D01*
X150596485Y-76613235D01*
X150591240Y-76624325D01*
X150584934Y-76634846D01*
X150577626Y-76644699D01*
X150569388Y-76653788D01*
X150560299Y-76662026D01*
X150550446Y-76669334D01*
X150539925Y-76675640D01*
X150528835Y-76680885D01*
X150517286Y-76685018D01*
X150505386Y-76687998D01*
X150493252Y-76689798D01*
X150481000Y-76690400D01*
X148731000Y-76690400D01*
X148718748Y-76689798D01*
X148706614Y-76687998D01*
X148694714Y-76685018D01*
X148683165Y-76680885D01*
X148672075Y-76675640D01*
X148661554Y-76669334D01*
X148651701Y-76662026D01*
X148642612Y-76653788D01*
X148634374Y-76644699D01*
X148627066Y-76634846D01*
X148620760Y-76624325D01*
X148615515Y-76613235D01*
X148611382Y-76601686D01*
X148608402Y-76589786D01*
X148606602Y-76577652D01*
X148606000Y-76565400D01*
X148606000Y-76315400D01*
X148606602Y-76303148D01*
X148608402Y-76291014D01*
X148611382Y-76279114D01*
X148615515Y-76267565D01*
X148620760Y-76256475D01*
X148627066Y-76245954D01*
X148634374Y-76236101D01*
X148642612Y-76227012D01*
X148651701Y-76218774D01*
X148661554Y-76211466D01*
X148672075Y-76205160D01*
X148683165Y-76199915D01*
X148694714Y-76195782D01*
X148706614Y-76192802D01*
X148718748Y-76191002D01*
X148731000Y-76190400D01*
X150481000Y-76190400D01*
X150493252Y-76191002D01*
X150493252Y-76191002D01*
G37*
D12*
G04 #@! TD*
G04 #@! TO.P,DS1,9*
G04 #@! TO.N,+3V3*
X149606000Y-76440400D03*
D10*
G04 #@! TO.N,/VSPI_MOSI*
G04 #@! TO.C,DS1*
G36*
X150493252Y-78591002D02*
X150505386Y-78592802D01*
X150517286Y-78595782D01*
X150528835Y-78599915D01*
X150539925Y-78605160D01*
X150550446Y-78611466D01*
X150560299Y-78618774D01*
X150569388Y-78627012D01*
X150577626Y-78636101D01*
X150584934Y-78645954D01*
X150591240Y-78656475D01*
X150596485Y-78667565D01*
X150600618Y-78679114D01*
X150603598Y-78691014D01*
X150605398Y-78703148D01*
X150606000Y-78715400D01*
X150606000Y-78965400D01*
X150605398Y-78977652D01*
X150603598Y-78989786D01*
X150600618Y-79001686D01*
X150596485Y-79013235D01*
X150591240Y-79024325D01*
X150584934Y-79034846D01*
X150577626Y-79044699D01*
X150569388Y-79053788D01*
X150560299Y-79062026D01*
X150550446Y-79069334D01*
X150539925Y-79075640D01*
X150528835Y-79080885D01*
X150517286Y-79085018D01*
X150505386Y-79087998D01*
X150493252Y-79089798D01*
X150481000Y-79090400D01*
X148731000Y-79090400D01*
X148718748Y-79089798D01*
X148706614Y-79087998D01*
X148694714Y-79085018D01*
X148683165Y-79080885D01*
X148672075Y-79075640D01*
X148661554Y-79069334D01*
X148651701Y-79062026D01*
X148642612Y-79053788D01*
X148634374Y-79044699D01*
X148627066Y-79034846D01*
X148620760Y-79024325D01*
X148615515Y-79013235D01*
X148611382Y-79001686D01*
X148608402Y-78989786D01*
X148606602Y-78977652D01*
X148606000Y-78965400D01*
X148606000Y-78715400D01*
X148606602Y-78703148D01*
X148608402Y-78691014D01*
X148611382Y-78679114D01*
X148615515Y-78667565D01*
X148620760Y-78656475D01*
X148627066Y-78645954D01*
X148634374Y-78636101D01*
X148642612Y-78627012D01*
X148651701Y-78618774D01*
X148661554Y-78611466D01*
X148672075Y-78605160D01*
X148683165Y-78599915D01*
X148694714Y-78595782D01*
X148706614Y-78592802D01*
X148718748Y-78591002D01*
X148731000Y-78590400D01*
X150481000Y-78590400D01*
X150493252Y-78591002D01*
X150493252Y-78591002D01*
G37*
D12*
G04 #@! TD*
G04 #@! TO.P,DS1,6*
G04 #@! TO.N,/VSPI_MOSI*
X149606000Y-78840400D03*
D10*
G04 #@! TO.N,/LCD_DC*
G04 #@! TO.C,DS1*
G36*
X150493252Y-80191002D02*
X150505386Y-80192802D01*
X150517286Y-80195782D01*
X150528835Y-80199915D01*
X150539925Y-80205160D01*
X150550446Y-80211466D01*
X150560299Y-80218774D01*
X150569388Y-80227012D01*
X150577626Y-80236101D01*
X150584934Y-80245954D01*
X150591240Y-80256475D01*
X150596485Y-80267565D01*
X150600618Y-80279114D01*
X150603598Y-80291014D01*
X150605398Y-80303148D01*
X150606000Y-80315400D01*
X150606000Y-80565400D01*
X150605398Y-80577652D01*
X150603598Y-80589786D01*
X150600618Y-80601686D01*
X150596485Y-80613235D01*
X150591240Y-80624325D01*
X150584934Y-80634846D01*
X150577626Y-80644699D01*
X150569388Y-80653788D01*
X150560299Y-80662026D01*
X150550446Y-80669334D01*
X150539925Y-80675640D01*
X150528835Y-80680885D01*
X150517286Y-80685018D01*
X150505386Y-80687998D01*
X150493252Y-80689798D01*
X150481000Y-80690400D01*
X148731000Y-80690400D01*
X148718748Y-80689798D01*
X148706614Y-80687998D01*
X148694714Y-80685018D01*
X148683165Y-80680885D01*
X148672075Y-80675640D01*
X148661554Y-80669334D01*
X148651701Y-80662026D01*
X148642612Y-80653788D01*
X148634374Y-80644699D01*
X148627066Y-80634846D01*
X148620760Y-80624325D01*
X148615515Y-80613235D01*
X148611382Y-80601686D01*
X148608402Y-80589786D01*
X148606602Y-80577652D01*
X148606000Y-80565400D01*
X148606000Y-80315400D01*
X148606602Y-80303148D01*
X148608402Y-80291014D01*
X148611382Y-80279114D01*
X148615515Y-80267565D01*
X148620760Y-80256475D01*
X148627066Y-80245954D01*
X148634374Y-80236101D01*
X148642612Y-80227012D01*
X148651701Y-80218774D01*
X148661554Y-80211466D01*
X148672075Y-80205160D01*
X148683165Y-80199915D01*
X148694714Y-80195782D01*
X148706614Y-80192802D01*
X148718748Y-80191002D01*
X148731000Y-80190400D01*
X150481000Y-80190400D01*
X150493252Y-80191002D01*
X150493252Y-80191002D01*
G37*
D12*
G04 #@! TD*
G04 #@! TO.P,DS1,4*
G04 #@! TO.N,/LCD_DC*
X149606000Y-80440400D03*
D10*
G04 #@! TO.N,Net-(DS1-Pad11)*
G04 #@! TO.C,DS1*
G36*
X150493252Y-72191002D02*
X150505386Y-72192802D01*
X150517286Y-72195782D01*
X150528835Y-72199915D01*
X150539925Y-72205160D01*
X150550446Y-72211466D01*
X150560299Y-72218774D01*
X150569388Y-72227012D01*
X150577626Y-72236101D01*
X150584934Y-72245954D01*
X150591240Y-72256475D01*
X150596485Y-72267565D01*
X150600618Y-72279114D01*
X150603598Y-72291014D01*
X150605398Y-72303148D01*
X150606000Y-72315400D01*
X150606000Y-72565400D01*
X150605398Y-72577652D01*
X150603598Y-72589786D01*
X150600618Y-72601686D01*
X150596485Y-72613235D01*
X150591240Y-72624325D01*
X150584934Y-72634846D01*
X150577626Y-72644699D01*
X150569388Y-72653788D01*
X150560299Y-72662026D01*
X150550446Y-72669334D01*
X150539925Y-72675640D01*
X150528835Y-72680885D01*
X150517286Y-72685018D01*
X150505386Y-72687998D01*
X150493252Y-72689798D01*
X150481000Y-72690400D01*
X148731000Y-72690400D01*
X148718748Y-72689798D01*
X148706614Y-72687998D01*
X148694714Y-72685018D01*
X148683165Y-72680885D01*
X148672075Y-72675640D01*
X148661554Y-72669334D01*
X148651701Y-72662026D01*
X148642612Y-72653788D01*
X148634374Y-72644699D01*
X148627066Y-72634846D01*
X148620760Y-72624325D01*
X148615515Y-72613235D01*
X148611382Y-72601686D01*
X148608402Y-72589786D01*
X148606602Y-72577652D01*
X148606000Y-72565400D01*
X148606000Y-72315400D01*
X148606602Y-72303148D01*
X148608402Y-72291014D01*
X148611382Y-72279114D01*
X148615515Y-72267565D01*
X148620760Y-72256475D01*
X148627066Y-72245954D01*
X148634374Y-72236101D01*
X148642612Y-72227012D01*
X148651701Y-72218774D01*
X148661554Y-72211466D01*
X148672075Y-72205160D01*
X148683165Y-72199915D01*
X148694714Y-72195782D01*
X148706614Y-72192802D01*
X148718748Y-72191002D01*
X148731000Y-72190400D01*
X150481000Y-72190400D01*
X150493252Y-72191002D01*
X150493252Y-72191002D01*
G37*
D12*
G04 #@! TD*
G04 #@! TO.P,DS1,14*
G04 #@! TO.N,Net-(DS1-Pad11)*
X149606000Y-72440400D03*
D10*
G04 #@! TO.N,Net-(DS1-Pad16)*
G04 #@! TO.C,DS1*
G36*
X150493252Y-70591002D02*
X150505386Y-70592802D01*
X150517286Y-70595782D01*
X150528835Y-70599915D01*
X150539925Y-70605160D01*
X150550446Y-70611466D01*
X150560299Y-70618774D01*
X150569388Y-70627012D01*
X150577626Y-70636101D01*
X150584934Y-70645954D01*
X150591240Y-70656475D01*
X150596485Y-70667565D01*
X150600618Y-70679114D01*
X150603598Y-70691014D01*
X150605398Y-70703148D01*
X150606000Y-70715400D01*
X150606000Y-70965400D01*
X150605398Y-70977652D01*
X150603598Y-70989786D01*
X150600618Y-71001686D01*
X150596485Y-71013235D01*
X150591240Y-71024325D01*
X150584934Y-71034846D01*
X150577626Y-71044699D01*
X150569388Y-71053788D01*
X150560299Y-71062026D01*
X150550446Y-71069334D01*
X150539925Y-71075640D01*
X150528835Y-71080885D01*
X150517286Y-71085018D01*
X150505386Y-71087998D01*
X150493252Y-71089798D01*
X150481000Y-71090400D01*
X148731000Y-71090400D01*
X148718748Y-71089798D01*
X148706614Y-71087998D01*
X148694714Y-71085018D01*
X148683165Y-71080885D01*
X148672075Y-71075640D01*
X148661554Y-71069334D01*
X148651701Y-71062026D01*
X148642612Y-71053788D01*
X148634374Y-71044699D01*
X148627066Y-71034846D01*
X148620760Y-71024325D01*
X148615515Y-71013235D01*
X148611382Y-71001686D01*
X148608402Y-70989786D01*
X148606602Y-70977652D01*
X148606000Y-70965400D01*
X148606000Y-70715400D01*
X148606602Y-70703148D01*
X148608402Y-70691014D01*
X148611382Y-70679114D01*
X148615515Y-70667565D01*
X148620760Y-70656475D01*
X148627066Y-70645954D01*
X148634374Y-70636101D01*
X148642612Y-70627012D01*
X148651701Y-70618774D01*
X148661554Y-70611466D01*
X148672075Y-70605160D01*
X148683165Y-70599915D01*
X148694714Y-70595782D01*
X148706614Y-70592802D01*
X148718748Y-70591002D01*
X148731000Y-70590400D01*
X150481000Y-70590400D01*
X150493252Y-70591002D01*
X150493252Y-70591002D01*
G37*
D12*
G04 #@! TD*
G04 #@! TO.P,DS1,16*
G04 #@! TO.N,Net-(DS1-Pad16)*
X149606000Y-70840400D03*
D13*
G04 #@! TO.P,DS2,MP*
G04 #@! TO.N,N/C*
X126114000Y-65058000D03*
X126114000Y-88358000D03*
D14*
G04 #@! TO.P,DS2,1*
G04 #@! TO.N,Net-(DS2-Pad1)*
X122864000Y-86458000D03*
G04 #@! TO.P,DS2,2*
G04 #@! TO.N,Net-(DS2-Pad2)*
X122864000Y-85958000D03*
G04 #@! TO.P,DS2,3*
G04 #@! TO.N,Net-(DS2-Pad3)*
X122864000Y-85458000D03*
G04 #@! TO.P,DS2,4*
G04 #@! TO.N,Net-(DS2-Pad4)*
X122864000Y-84958000D03*
G04 #@! TO.P,DS2,5*
G04 #@! TO.N,GND*
X122864000Y-84458000D03*
G04 #@! TO.P,DS2,6*
G04 #@! TO.N,+3V3*
X122864000Y-83958000D03*
G04 #@! TO.P,DS2,7*
X122864000Y-83458000D03*
G04 #@! TO.P,DS2,8*
G04 #@! TO.N,Net-(DS2-Pad8)*
X122864000Y-82958000D03*
G04 #@! TO.P,DS2,9*
G04 #@! TO.N,/VSPI_CS*
X122864000Y-82458000D03*
G04 #@! TO.P,DS2,10*
G04 #@! TO.N,/VSPI_SCK*
X122864000Y-81958000D03*
G04 #@! TO.P,DS2,11*
G04 #@! TO.N,/LCD_DC*
X122864000Y-81458000D03*
G04 #@! TO.P,DS2,12*
G04 #@! TO.N,+3V3*
X122864000Y-80958000D03*
G04 #@! TO.P,DS2,13*
G04 #@! TO.N,/VSPI_MOSI*
X122864000Y-80458000D03*
G04 #@! TO.P,DS2,14*
G04 #@! TO.N,/VSPI_MISO*
X122864000Y-79958000D03*
G04 #@! TO.P,DS2,15*
G04 #@! TO.N,/LCD_RST*
X122864000Y-79458000D03*
G04 #@! TO.P,DS2,16*
G04 #@! TO.N,GND*
X122864000Y-78958000D03*
G04 #@! TO.P,DS2,17*
X122864000Y-78458000D03*
G04 #@! TO.P,DS2,18*
X122864000Y-77958000D03*
G04 #@! TO.P,DS2,19*
X122864000Y-77458000D03*
G04 #@! TO.P,DS2,20*
X122864000Y-76958000D03*
G04 #@! TO.P,DS2,21*
X122864000Y-76458000D03*
G04 #@! TO.P,DS2,22*
X122864000Y-75958000D03*
G04 #@! TO.P,DS2,23*
X122864000Y-75458000D03*
G04 #@! TO.P,DS2,24*
X122864000Y-74958000D03*
G04 #@! TO.P,DS2,25*
X122864000Y-74458000D03*
G04 #@! TO.P,DS2,26*
X122864000Y-73958000D03*
G04 #@! TO.P,DS2,27*
X122864000Y-73458000D03*
G04 #@! TO.P,DS2,28*
X122864000Y-72958000D03*
G04 #@! TO.P,DS2,29*
X122864000Y-72458000D03*
G04 #@! TO.P,DS2,30*
X122864000Y-71958000D03*
G04 #@! TO.P,DS2,31*
X122864000Y-71458000D03*
G04 #@! TO.P,DS2,32*
X122864000Y-70958000D03*
G04 #@! TO.P,DS2,33*
G04 #@! TO.N,+3V3*
X122864000Y-70458000D03*
G04 #@! TO.P,DS2,34*
G04 #@! TO.N,GND*
X122864000Y-69958000D03*
G04 #@! TO.P,DS2,35*
X122864000Y-69458000D03*
G04 #@! TO.P,DS2,36*
X122864000Y-68958000D03*
G04 #@! TO.P,DS2,37*
X122864000Y-68458000D03*
G04 #@! TO.P,DS2,38*
X122864000Y-67958000D03*
G04 #@! TO.P,DS2,39*
G04 #@! TO.N,+3V3*
X122864000Y-67458000D03*
G04 #@! TO.P,DS2,40*
X122864000Y-66958000D03*
G04 #@! TD*
D15*
G04 #@! TO.N,+5V*
G04 #@! TO.C,J1*
X112776000Y-27244918D03*
G04 #@! TO.N,Net-(J1-Pad18)*
X115316000Y-27244918D03*
G04 #@! TO.N,Net-(J1-Pad17)*
X117856000Y-27244918D03*
G04 #@! TO.N,Net-(J1-Pad16)*
X120396000Y-27244918D03*
G04 #@! TO.N,/GPIO13*
X122936000Y-27244918D03*
G04 #@! TO.N,GND*
X125476000Y-27244918D03*
G04 #@! TO.N,/GPIO12*
X128016000Y-27244918D03*
G04 #@! TO.N,/GPIO14*
X130556000Y-27244918D03*
G04 #@! TO.N,/GPIO27*
X133096000Y-27244918D03*
G04 #@! TO.N,/GPIO26*
X135636000Y-27244918D03*
G04 #@! TO.N,/GPIO25*
X138176000Y-27244918D03*
G04 #@! TO.N,/GPIO33*
X140716000Y-27244918D03*
G04 #@! TO.N,/GPIO32*
X143256000Y-27244918D03*
G04 #@! TO.N,/GPIO35*
X145796000Y-27244918D03*
G04 #@! TO.N,/GPIO34*
X148336000Y-27244918D03*
G04 #@! TO.N,/GPIO39*
X150876000Y-27244918D03*
G04 #@! TO.N,/GPIO36*
X153416000Y-27244918D03*
G04 #@! TO.N,Net-(J1-Pad2)*
X155956000Y-27244918D03*
D16*
G04 #@! TO.N,+3V3*
X158496000Y-27244918D03*
G04 #@! TD*
D15*
G04 #@! TO.N,Net-(J2-Pad19)*
G04 #@! TO.C,J2*
X112776000Y-52644918D03*
G04 #@! TO.N,Net-(J2-Pad18)*
X115316000Y-52644918D03*
G04 #@! TO.N,Net-(J2-Pad17)*
X117856000Y-52644918D03*
G04 #@! TO.N,/GPIO15*
X120396000Y-52644918D03*
G04 #@! TO.N,/GPIO2*
X122936000Y-52644918D03*
G04 #@! TO.N,Net-(J2-Pad14)*
X125476000Y-52644918D03*
G04 #@! TO.N,/GPIO4*
X128016000Y-52644918D03*
G04 #@! TO.N,/GPIO16*
X130556000Y-52644918D03*
G04 #@! TO.N,/GPIO17*
X133096000Y-52644918D03*
G04 #@! TO.N,/VSPI_CS*
X135636000Y-52644918D03*
G04 #@! TO.N,/VSPI_SCK*
X138176000Y-52644918D03*
G04 #@! TO.N,/VSPI_MISO*
X140716000Y-52644918D03*
G04 #@! TO.N,GND*
X143256000Y-52644918D03*
G04 #@! TO.N,/LCD_RST*
X145796000Y-52644918D03*
G04 #@! TO.N,Net-(J2-Pad5)*
X148336000Y-52644918D03*
G04 #@! TO.N,Net-(J2-Pad4)*
X150876000Y-52644918D03*
G04 #@! TO.N,/LCD_DC*
X153416000Y-52644918D03*
G04 #@! TO.N,/VSPI_MOSI*
X155956000Y-52644918D03*
D16*
G04 #@! TO.N,GND*
X158496000Y-52644918D03*
G04 #@! TD*
D17*
G04 #@! TO.P,J12,19*
G04 #@! TO.N,+5V*
X112776000Y-28917083D03*
G04 #@! TO.P,J12,17*
G04 #@! TO.N,Net-(J12-Pad17)*
X117856000Y-28917083D03*
G04 #@! TO.P,J12,15*
G04 #@! TO.N,/GPIO13*
X122936000Y-28917083D03*
G04 #@! TO.P,J12,13*
G04 #@! TO.N,/GPIO12*
X128016000Y-28917083D03*
G04 #@! TO.P,J12,11*
G04 #@! TO.N,/GPIO27*
X133096000Y-28917083D03*
G04 #@! TO.P,J12,9*
G04 #@! TO.N,/GPIO25*
X138176000Y-28917083D03*
G04 #@! TO.P,J12,7*
G04 #@! TO.N,/GPIO32*
X143256000Y-28917083D03*
G04 #@! TO.P,J12,5*
G04 #@! TO.N,/GPIO34*
X148336000Y-28917083D03*
G04 #@! TO.P,J12,3*
G04 #@! TO.N,/GPIO36*
X153416000Y-28917083D03*
G04 #@! TO.P,J12,1*
G04 #@! TO.N,+3V3*
X158496000Y-28917083D03*
G04 #@! TO.P,J12,18*
G04 #@! TO.N,Net-(J12-Pad18)*
X115316000Y-25617083D03*
G04 #@! TO.P,J12,16*
G04 #@! TO.N,Net-(J12-Pad16)*
X120396000Y-25617083D03*
G04 #@! TO.P,J12,14*
G04 #@! TO.N,GND*
X125476000Y-25617083D03*
G04 #@! TO.P,J12,12*
G04 #@! TO.N,/GPIO14*
X130556000Y-25617083D03*
G04 #@! TO.P,J12,10*
G04 #@! TO.N,/GPIO26*
X135636000Y-25617083D03*
G04 #@! TO.P,J12,8*
G04 #@! TO.N,/GPIO33*
X140716000Y-25617083D03*
G04 #@! TO.P,J12,6*
G04 #@! TO.N,/GPIO35*
X145796000Y-25617083D03*
G04 #@! TO.P,J12,4*
G04 #@! TO.N,/GPIO39*
X150876000Y-25617083D03*
G04 #@! TO.P,J12,2*
G04 #@! TO.N,Net-(J12-Pad2)*
X155956000Y-25617083D03*
G04 #@! TD*
D18*
G04 #@! TO.P,J11,1*
G04 #@! TO.N,Net-(J11-Pad1)*
X146304000Y-16510000D03*
D19*
G04 #@! TO.P,J11,2*
G04 #@! TO.N,GND*
X148844000Y-16510000D03*
G04 #@! TO.P,J11,3*
G04 #@! TO.N,/GPIO32*
X151384000Y-16510000D03*
G04 #@! TO.P,J11,4*
G04 #@! TO.N,GND*
X153924000Y-16510000D03*
G04 #@! TO.P,J11,5*
G04 #@! TO.N,/GPIO36*
X156464000Y-16510000D03*
G04 #@! TO.P,J11,6*
G04 #@! TO.N,+3V3*
X159004000Y-16510000D03*
G04 #@! TD*
D18*
G04 #@! TO.P,J14,1*
G04 #@! TO.N,GND*
X159004000Y-20320000D03*
D19*
G04 #@! TO.P,J14,2*
G04 #@! TO.N,Net-(J11-Pad1)*
X156464000Y-20320000D03*
G04 #@! TD*
D18*
G04 #@! TO.P,J10,1*
G04 #@! TO.N,Net-(J10-Pad1)*
X115316000Y-20320000D03*
D19*
G04 #@! TO.P,J10,2*
G04 #@! TO.N,+5V*
X112776000Y-20320000D03*
G04 #@! TD*
D20*
G04 #@! TO.P,SW3,2*
G04 #@! TO.N,GND*
X145375000Y-123070000D03*
G04 #@! TO.P,SW3,1*
G04 #@! TO.N,/GPIO4*
X140375000Y-108070000D03*
G04 #@! TO.P,SW3,2*
G04 #@! TO.N,GND*
X145375000Y-108070000D03*
G04 #@! TO.P,SW3,1*
G04 #@! TO.N,/GPIO4*
X140375000Y-123070000D03*
G04 #@! TD*
G04 #@! TO.P,SW6,2*
G04 #@! TO.N,GND*
X158710000Y-120530000D03*
G04 #@! TO.P,SW6,1*
G04 #@! TO.N,/GPIO2*
X153710000Y-105530000D03*
G04 #@! TO.P,SW6,2*
G04 #@! TO.N,GND*
X158710000Y-105530000D03*
G04 #@! TO.P,SW6,1*
G04 #@! TO.N,/GPIO2*
X153710000Y-120530000D03*
G04 #@! TD*
D21*
G04 #@! TO.P,SW7,2*
G04 #@! TO.N,/GPIO13*
X114850000Y-114750000D03*
G04 #@! TO.P,SW7,5*
G04 #@! TO.N,/GPIO14*
X126450000Y-114750000D03*
D22*
G04 #@! TO.P,SW7,6*
G04 #@! TO.N,/GPIO32*
X126450000Y-111050000D03*
G04 #@! TO.P,SW7,1*
G04 #@! TO.N,/GPIO15*
X114850000Y-111050000D03*
G04 #@! TO.P,SW7,3*
G04 #@! TO.N,/GPIO12*
X114850000Y-117550000D03*
G04 #@! TO.P,SW7,4*
G04 #@! TO.N,GND*
X126450000Y-117550000D03*
G04 #@! TD*
D10*
G04 #@! TO.N,/GPIO36*
G04 #@! TO.C,C3*
G36*
X153896142Y-37184174D02*
X153919803Y-37187684D01*
X153943007Y-37193496D01*
X153965529Y-37201554D01*
X153987153Y-37211782D01*
X154007670Y-37224079D01*
X154026883Y-37238329D01*
X154044607Y-37254393D01*
X154060671Y-37272117D01*
X154074921Y-37291330D01*
X154087218Y-37311847D01*
X154097446Y-37333471D01*
X154105504Y-37355993D01*
X154111316Y-37379197D01*
X154114826Y-37402858D01*
X154116000Y-37426750D01*
X154116000Y-37914250D01*
X154114826Y-37938142D01*
X154111316Y-37961803D01*
X154105504Y-37985007D01*
X154097446Y-38007529D01*
X154087218Y-38029153D01*
X154074921Y-38049670D01*
X154060671Y-38068883D01*
X154044607Y-38086607D01*
X154026883Y-38102671D01*
X154007670Y-38116921D01*
X153987153Y-38129218D01*
X153965529Y-38139446D01*
X153943007Y-38147504D01*
X153919803Y-38153316D01*
X153896142Y-38156826D01*
X153872250Y-38158000D01*
X152959750Y-38158000D01*
X152935858Y-38156826D01*
X152912197Y-38153316D01*
X152888993Y-38147504D01*
X152866471Y-38139446D01*
X152844847Y-38129218D01*
X152824330Y-38116921D01*
X152805117Y-38102671D01*
X152787393Y-38086607D01*
X152771329Y-38068883D01*
X152757079Y-38049670D01*
X152744782Y-38029153D01*
X152734554Y-38007529D01*
X152726496Y-37985007D01*
X152720684Y-37961803D01*
X152717174Y-37938142D01*
X152716000Y-37914250D01*
X152716000Y-37426750D01*
X152717174Y-37402858D01*
X152720684Y-37379197D01*
X152726496Y-37355993D01*
X152734554Y-37333471D01*
X152744782Y-37311847D01*
X152757079Y-37291330D01*
X152771329Y-37272117D01*
X152787393Y-37254393D01*
X152805117Y-37238329D01*
X152824330Y-37224079D01*
X152844847Y-37211782D01*
X152866471Y-37201554D01*
X152888993Y-37193496D01*
X152912197Y-37187684D01*
X152935858Y-37184174D01*
X152959750Y-37183000D01*
X153872250Y-37183000D01*
X153896142Y-37184174D01*
X153896142Y-37184174D01*
G37*
D11*
G04 #@! TD*
G04 #@! TO.P,C3,2*
G04 #@! TO.N,/GPIO36*
X153416000Y-37670500D03*
D10*
G04 #@! TO.N,Net-(C3-Pad1)*
G04 #@! TO.C,C3*
G36*
X153896142Y-39059174D02*
X153919803Y-39062684D01*
X153943007Y-39068496D01*
X153965529Y-39076554D01*
X153987153Y-39086782D01*
X154007670Y-39099079D01*
X154026883Y-39113329D01*
X154044607Y-39129393D01*
X154060671Y-39147117D01*
X154074921Y-39166330D01*
X154087218Y-39186847D01*
X154097446Y-39208471D01*
X154105504Y-39230993D01*
X154111316Y-39254197D01*
X154114826Y-39277858D01*
X154116000Y-39301750D01*
X154116000Y-39789250D01*
X154114826Y-39813142D01*
X154111316Y-39836803D01*
X154105504Y-39860007D01*
X154097446Y-39882529D01*
X154087218Y-39904153D01*
X154074921Y-39924670D01*
X154060671Y-39943883D01*
X154044607Y-39961607D01*
X154026883Y-39977671D01*
X154007670Y-39991921D01*
X153987153Y-40004218D01*
X153965529Y-40014446D01*
X153943007Y-40022504D01*
X153919803Y-40028316D01*
X153896142Y-40031826D01*
X153872250Y-40033000D01*
X152959750Y-40033000D01*
X152935858Y-40031826D01*
X152912197Y-40028316D01*
X152888993Y-40022504D01*
X152866471Y-40014446D01*
X152844847Y-40004218D01*
X152824330Y-39991921D01*
X152805117Y-39977671D01*
X152787393Y-39961607D01*
X152771329Y-39943883D01*
X152757079Y-39924670D01*
X152744782Y-39904153D01*
X152734554Y-39882529D01*
X152726496Y-39860007D01*
X152720684Y-39836803D01*
X152717174Y-39813142D01*
X152716000Y-39789250D01*
X152716000Y-39301750D01*
X152717174Y-39277858D01*
X152720684Y-39254197D01*
X152726496Y-39230993D01*
X152734554Y-39208471D01*
X152744782Y-39186847D01*
X152757079Y-39166330D01*
X152771329Y-39147117D01*
X152787393Y-39129393D01*
X152805117Y-39113329D01*
X152824330Y-39099079D01*
X152844847Y-39086782D01*
X152866471Y-39076554D01*
X152888993Y-39068496D01*
X152912197Y-39062684D01*
X152935858Y-39059174D01*
X152959750Y-39058000D01*
X153872250Y-39058000D01*
X153896142Y-39059174D01*
X153896142Y-39059174D01*
G37*
D11*
G04 #@! TD*
G04 #@! TO.P,C3,1*
G04 #@! TO.N,Net-(C3-Pad1)*
X153416000Y-39545500D03*
D10*
G04 #@! TO.N,Net-(C2-Pad1)*
G04 #@! TO.C,C2*
G36*
X151356142Y-39059174D02*
X151379803Y-39062684D01*
X151403007Y-39068496D01*
X151425529Y-39076554D01*
X151447153Y-39086782D01*
X151467670Y-39099079D01*
X151486883Y-39113329D01*
X151504607Y-39129393D01*
X151520671Y-39147117D01*
X151534921Y-39166330D01*
X151547218Y-39186847D01*
X151557446Y-39208471D01*
X151565504Y-39230993D01*
X151571316Y-39254197D01*
X151574826Y-39277858D01*
X151576000Y-39301750D01*
X151576000Y-39789250D01*
X151574826Y-39813142D01*
X151571316Y-39836803D01*
X151565504Y-39860007D01*
X151557446Y-39882529D01*
X151547218Y-39904153D01*
X151534921Y-39924670D01*
X151520671Y-39943883D01*
X151504607Y-39961607D01*
X151486883Y-39977671D01*
X151467670Y-39991921D01*
X151447153Y-40004218D01*
X151425529Y-40014446D01*
X151403007Y-40022504D01*
X151379803Y-40028316D01*
X151356142Y-40031826D01*
X151332250Y-40033000D01*
X150419750Y-40033000D01*
X150395858Y-40031826D01*
X150372197Y-40028316D01*
X150348993Y-40022504D01*
X150326471Y-40014446D01*
X150304847Y-40004218D01*
X150284330Y-39991921D01*
X150265117Y-39977671D01*
X150247393Y-39961607D01*
X150231329Y-39943883D01*
X150217079Y-39924670D01*
X150204782Y-39904153D01*
X150194554Y-39882529D01*
X150186496Y-39860007D01*
X150180684Y-39836803D01*
X150177174Y-39813142D01*
X150176000Y-39789250D01*
X150176000Y-39301750D01*
X150177174Y-39277858D01*
X150180684Y-39254197D01*
X150186496Y-39230993D01*
X150194554Y-39208471D01*
X150204782Y-39186847D01*
X150217079Y-39166330D01*
X150231329Y-39147117D01*
X150247393Y-39129393D01*
X150265117Y-39113329D01*
X150284330Y-39099079D01*
X150304847Y-39086782D01*
X150326471Y-39076554D01*
X150348993Y-39068496D01*
X150372197Y-39062684D01*
X150395858Y-39059174D01*
X150419750Y-39058000D01*
X151332250Y-39058000D01*
X151356142Y-39059174D01*
X151356142Y-39059174D01*
G37*
D11*
G04 #@! TD*
G04 #@! TO.P,C2,1*
G04 #@! TO.N,Net-(C2-Pad1)*
X150876000Y-39545500D03*
D10*
G04 #@! TO.N,/GPIO39*
G04 #@! TO.C,C2*
G36*
X151356142Y-37184174D02*
X151379803Y-37187684D01*
X151403007Y-37193496D01*
X151425529Y-37201554D01*
X151447153Y-37211782D01*
X151467670Y-37224079D01*
X151486883Y-37238329D01*
X151504607Y-37254393D01*
X151520671Y-37272117D01*
X151534921Y-37291330D01*
X151547218Y-37311847D01*
X151557446Y-37333471D01*
X151565504Y-37355993D01*
X151571316Y-37379197D01*
X151574826Y-37402858D01*
X151576000Y-37426750D01*
X151576000Y-37914250D01*
X151574826Y-37938142D01*
X151571316Y-37961803D01*
X151565504Y-37985007D01*
X151557446Y-38007529D01*
X151547218Y-38029153D01*
X151534921Y-38049670D01*
X151520671Y-38068883D01*
X151504607Y-38086607D01*
X151486883Y-38102671D01*
X151467670Y-38116921D01*
X151447153Y-38129218D01*
X151425529Y-38139446D01*
X151403007Y-38147504D01*
X151379803Y-38153316D01*
X151356142Y-38156826D01*
X151332250Y-38158000D01*
X150419750Y-38158000D01*
X150395858Y-38156826D01*
X150372197Y-38153316D01*
X150348993Y-38147504D01*
X150326471Y-38139446D01*
X150304847Y-38129218D01*
X150284330Y-38116921D01*
X150265117Y-38102671D01*
X150247393Y-38086607D01*
X150231329Y-38068883D01*
X150217079Y-38049670D01*
X150204782Y-38029153D01*
X150194554Y-38007529D01*
X150186496Y-37985007D01*
X150180684Y-37961803D01*
X150177174Y-37938142D01*
X150176000Y-37914250D01*
X150176000Y-37426750D01*
X150177174Y-37402858D01*
X150180684Y-37379197D01*
X150186496Y-37355993D01*
X150194554Y-37333471D01*
X150204782Y-37311847D01*
X150217079Y-37291330D01*
X150231329Y-37272117D01*
X150247393Y-37254393D01*
X150265117Y-37238329D01*
X150284330Y-37224079D01*
X150304847Y-37211782D01*
X150326471Y-37201554D01*
X150348993Y-37193496D01*
X150372197Y-37187684D01*
X150395858Y-37184174D01*
X150419750Y-37183000D01*
X151332250Y-37183000D01*
X151356142Y-37184174D01*
X151356142Y-37184174D01*
G37*
D11*
G04 #@! TD*
G04 #@! TO.P,C2,2*
G04 #@! TO.N,/GPIO39*
X150876000Y-37670500D03*
D10*
G04 #@! TO.N,Net-(D2-Pad2)*
G04 #@! TO.C,D2*
G36*
X138873142Y-15303174D02*
X138896803Y-15306684D01*
X138920007Y-15312496D01*
X138942529Y-15320554D01*
X138964153Y-15330782D01*
X138984670Y-15343079D01*
X139003883Y-15357329D01*
X139021607Y-15373393D01*
X139037671Y-15391117D01*
X139051921Y-15410330D01*
X139064218Y-15430847D01*
X139074446Y-15452471D01*
X139082504Y-15474993D01*
X139088316Y-15498197D01*
X139091826Y-15521858D01*
X139093000Y-15545750D01*
X139093000Y-16458250D01*
X139091826Y-16482142D01*
X139088316Y-16505803D01*
X139082504Y-16529007D01*
X139074446Y-16551529D01*
X139064218Y-16573153D01*
X139051921Y-16593670D01*
X139037671Y-16612883D01*
X139021607Y-16630607D01*
X139003883Y-16646671D01*
X138984670Y-16660921D01*
X138964153Y-16673218D01*
X138942529Y-16683446D01*
X138920007Y-16691504D01*
X138896803Y-16697316D01*
X138873142Y-16700826D01*
X138849250Y-16702000D01*
X138361750Y-16702000D01*
X138337858Y-16700826D01*
X138314197Y-16697316D01*
X138290993Y-16691504D01*
X138268471Y-16683446D01*
X138246847Y-16673218D01*
X138226330Y-16660921D01*
X138207117Y-16646671D01*
X138189393Y-16630607D01*
X138173329Y-16612883D01*
X138159079Y-16593670D01*
X138146782Y-16573153D01*
X138136554Y-16551529D01*
X138128496Y-16529007D01*
X138122684Y-16505803D01*
X138119174Y-16482142D01*
X138118000Y-16458250D01*
X138118000Y-15545750D01*
X138119174Y-15521858D01*
X138122684Y-15498197D01*
X138128496Y-15474993D01*
X138136554Y-15452471D01*
X138146782Y-15430847D01*
X138159079Y-15410330D01*
X138173329Y-15391117D01*
X138189393Y-15373393D01*
X138207117Y-15357329D01*
X138226330Y-15343079D01*
X138246847Y-15330782D01*
X138268471Y-15320554D01*
X138290993Y-15312496D01*
X138314197Y-15306684D01*
X138337858Y-15303174D01*
X138361750Y-15302000D01*
X138849250Y-15302000D01*
X138873142Y-15303174D01*
X138873142Y-15303174D01*
G37*
D11*
G04 #@! TD*
G04 #@! TO.P,D2,2*
G04 #@! TO.N,Net-(D2-Pad2)*
X138605500Y-16002000D03*
D10*
G04 #@! TO.N,GND*
G04 #@! TO.C,D2*
G36*
X136998142Y-15303174D02*
X137021803Y-15306684D01*
X137045007Y-15312496D01*
X137067529Y-15320554D01*
X137089153Y-15330782D01*
X137109670Y-15343079D01*
X137128883Y-15357329D01*
X137146607Y-15373393D01*
X137162671Y-15391117D01*
X137176921Y-15410330D01*
X137189218Y-15430847D01*
X137199446Y-15452471D01*
X137207504Y-15474993D01*
X137213316Y-15498197D01*
X137216826Y-15521858D01*
X137218000Y-15545750D01*
X137218000Y-16458250D01*
X137216826Y-16482142D01*
X137213316Y-16505803D01*
X137207504Y-16529007D01*
X137199446Y-16551529D01*
X137189218Y-16573153D01*
X137176921Y-16593670D01*
X137162671Y-16612883D01*
X137146607Y-16630607D01*
X137128883Y-16646671D01*
X137109670Y-16660921D01*
X137089153Y-16673218D01*
X137067529Y-16683446D01*
X137045007Y-16691504D01*
X137021803Y-16697316D01*
X136998142Y-16700826D01*
X136974250Y-16702000D01*
X136486750Y-16702000D01*
X136462858Y-16700826D01*
X136439197Y-16697316D01*
X136415993Y-16691504D01*
X136393471Y-16683446D01*
X136371847Y-16673218D01*
X136351330Y-16660921D01*
X136332117Y-16646671D01*
X136314393Y-16630607D01*
X136298329Y-16612883D01*
X136284079Y-16593670D01*
X136271782Y-16573153D01*
X136261554Y-16551529D01*
X136253496Y-16529007D01*
X136247684Y-16505803D01*
X136244174Y-16482142D01*
X136243000Y-16458250D01*
X136243000Y-15545750D01*
X136244174Y-15521858D01*
X136247684Y-15498197D01*
X136253496Y-15474993D01*
X136261554Y-15452471D01*
X136271782Y-15430847D01*
X136284079Y-15410330D01*
X136298329Y-15391117D01*
X136314393Y-15373393D01*
X136332117Y-15357329D01*
X136351330Y-15343079D01*
X136371847Y-15330782D01*
X136393471Y-15320554D01*
X136415993Y-15312496D01*
X136439197Y-15306684D01*
X136462858Y-15303174D01*
X136486750Y-15302000D01*
X136974250Y-15302000D01*
X136998142Y-15303174D01*
X136998142Y-15303174D01*
G37*
D11*
G04 #@! TD*
G04 #@! TO.P,D2,1*
G04 #@! TO.N,GND*
X136730500Y-16002000D03*
D10*
G04 #@! TO.N,GND*
G04 #@! TO.C,D1*
G36*
X135317142Y-15303174D02*
X135340803Y-15306684D01*
X135364007Y-15312496D01*
X135386529Y-15320554D01*
X135408153Y-15330782D01*
X135428670Y-15343079D01*
X135447883Y-15357329D01*
X135465607Y-15373393D01*
X135481671Y-15391117D01*
X135495921Y-15410330D01*
X135508218Y-15430847D01*
X135518446Y-15452471D01*
X135526504Y-15474993D01*
X135532316Y-15498197D01*
X135535826Y-15521858D01*
X135537000Y-15545750D01*
X135537000Y-16458250D01*
X135535826Y-16482142D01*
X135532316Y-16505803D01*
X135526504Y-16529007D01*
X135518446Y-16551529D01*
X135508218Y-16573153D01*
X135495921Y-16593670D01*
X135481671Y-16612883D01*
X135465607Y-16630607D01*
X135447883Y-16646671D01*
X135428670Y-16660921D01*
X135408153Y-16673218D01*
X135386529Y-16683446D01*
X135364007Y-16691504D01*
X135340803Y-16697316D01*
X135317142Y-16700826D01*
X135293250Y-16702000D01*
X134805750Y-16702000D01*
X134781858Y-16700826D01*
X134758197Y-16697316D01*
X134734993Y-16691504D01*
X134712471Y-16683446D01*
X134690847Y-16673218D01*
X134670330Y-16660921D01*
X134651117Y-16646671D01*
X134633393Y-16630607D01*
X134617329Y-16612883D01*
X134603079Y-16593670D01*
X134590782Y-16573153D01*
X134580554Y-16551529D01*
X134572496Y-16529007D01*
X134566684Y-16505803D01*
X134563174Y-16482142D01*
X134562000Y-16458250D01*
X134562000Y-15545750D01*
X134563174Y-15521858D01*
X134566684Y-15498197D01*
X134572496Y-15474993D01*
X134580554Y-15452471D01*
X134590782Y-15430847D01*
X134603079Y-15410330D01*
X134617329Y-15391117D01*
X134633393Y-15373393D01*
X134651117Y-15357329D01*
X134670330Y-15343079D01*
X134690847Y-15330782D01*
X134712471Y-15320554D01*
X134734993Y-15312496D01*
X134758197Y-15306684D01*
X134781858Y-15303174D01*
X134805750Y-15302000D01*
X135293250Y-15302000D01*
X135317142Y-15303174D01*
X135317142Y-15303174D01*
G37*
D11*
G04 #@! TD*
G04 #@! TO.P,D1,1*
G04 #@! TO.N,GND*
X135049500Y-16002000D03*
D10*
G04 #@! TO.N,Net-(D1-Pad2)*
G04 #@! TO.C,D1*
G36*
X133442142Y-15303174D02*
X133465803Y-15306684D01*
X133489007Y-15312496D01*
X133511529Y-15320554D01*
X133533153Y-15330782D01*
X133553670Y-15343079D01*
X133572883Y-15357329D01*
X133590607Y-15373393D01*
X133606671Y-15391117D01*
X133620921Y-15410330D01*
X133633218Y-15430847D01*
X133643446Y-15452471D01*
X133651504Y-15474993D01*
X133657316Y-15498197D01*
X133660826Y-15521858D01*
X133662000Y-15545750D01*
X133662000Y-16458250D01*
X133660826Y-16482142D01*
X133657316Y-16505803D01*
X133651504Y-16529007D01*
X133643446Y-16551529D01*
X133633218Y-16573153D01*
X133620921Y-16593670D01*
X133606671Y-16612883D01*
X133590607Y-16630607D01*
X133572883Y-16646671D01*
X133553670Y-16660921D01*
X133533153Y-16673218D01*
X133511529Y-16683446D01*
X133489007Y-16691504D01*
X133465803Y-16697316D01*
X133442142Y-16700826D01*
X133418250Y-16702000D01*
X132930750Y-16702000D01*
X132906858Y-16700826D01*
X132883197Y-16697316D01*
X132859993Y-16691504D01*
X132837471Y-16683446D01*
X132815847Y-16673218D01*
X132795330Y-16660921D01*
X132776117Y-16646671D01*
X132758393Y-16630607D01*
X132742329Y-16612883D01*
X132728079Y-16593670D01*
X132715782Y-16573153D01*
X132705554Y-16551529D01*
X132697496Y-16529007D01*
X132691684Y-16505803D01*
X132688174Y-16482142D01*
X132687000Y-16458250D01*
X132687000Y-15545750D01*
X132688174Y-15521858D01*
X132691684Y-15498197D01*
X132697496Y-15474993D01*
X132705554Y-15452471D01*
X132715782Y-15430847D01*
X132728079Y-15410330D01*
X132742329Y-15391117D01*
X132758393Y-15373393D01*
X132776117Y-15357329D01*
X132795330Y-15343079D01*
X132815847Y-15330782D01*
X132837471Y-15320554D01*
X132859993Y-15312496D01*
X132883197Y-15306684D01*
X132906858Y-15303174D01*
X132930750Y-15302000D01*
X133418250Y-15302000D01*
X133442142Y-15303174D01*
X133442142Y-15303174D01*
G37*
D11*
G04 #@! TD*
G04 #@! TO.P,D1,2*
G04 #@! TO.N,Net-(D1-Pad2)*
X133174500Y-16002000D03*
D10*
G04 #@! TO.N,Net-(Q1-Pad3)*
G04 #@! TO.C,R9*
G36*
X121892142Y-39059174D02*
X121915803Y-39062684D01*
X121939007Y-39068496D01*
X121961529Y-39076554D01*
X121983153Y-39086782D01*
X122003670Y-39099079D01*
X122022883Y-39113329D01*
X122040607Y-39129393D01*
X122056671Y-39147117D01*
X122070921Y-39166330D01*
X122083218Y-39186847D01*
X122093446Y-39208471D01*
X122101504Y-39230993D01*
X122107316Y-39254197D01*
X122110826Y-39277858D01*
X122112000Y-39301750D01*
X122112000Y-39789250D01*
X122110826Y-39813142D01*
X122107316Y-39836803D01*
X122101504Y-39860007D01*
X122093446Y-39882529D01*
X122083218Y-39904153D01*
X122070921Y-39924670D01*
X122056671Y-39943883D01*
X122040607Y-39961607D01*
X122022883Y-39977671D01*
X122003670Y-39991921D01*
X121983153Y-40004218D01*
X121961529Y-40014446D01*
X121939007Y-40022504D01*
X121915803Y-40028316D01*
X121892142Y-40031826D01*
X121868250Y-40033000D01*
X120955750Y-40033000D01*
X120931858Y-40031826D01*
X120908197Y-40028316D01*
X120884993Y-40022504D01*
X120862471Y-40014446D01*
X120840847Y-40004218D01*
X120820330Y-39991921D01*
X120801117Y-39977671D01*
X120783393Y-39961607D01*
X120767329Y-39943883D01*
X120753079Y-39924670D01*
X120740782Y-39904153D01*
X120730554Y-39882529D01*
X120722496Y-39860007D01*
X120716684Y-39836803D01*
X120713174Y-39813142D01*
X120712000Y-39789250D01*
X120712000Y-39301750D01*
X120713174Y-39277858D01*
X120716684Y-39254197D01*
X120722496Y-39230993D01*
X120730554Y-39208471D01*
X120740782Y-39186847D01*
X120753079Y-39166330D01*
X120767329Y-39147117D01*
X120783393Y-39129393D01*
X120801117Y-39113329D01*
X120820330Y-39099079D01*
X120840847Y-39086782D01*
X120862471Y-39076554D01*
X120884993Y-39068496D01*
X120908197Y-39062684D01*
X120931858Y-39059174D01*
X120955750Y-39058000D01*
X121868250Y-39058000D01*
X121892142Y-39059174D01*
X121892142Y-39059174D01*
G37*
D11*
G04 #@! TD*
G04 #@! TO.P,R9,1*
G04 #@! TO.N,Net-(Q1-Pad3)*
X121412000Y-39545500D03*
D10*
G04 #@! TO.N,Net-(J10-Pad1)*
G04 #@! TO.C,R9*
G36*
X121892142Y-37184174D02*
X121915803Y-37187684D01*
X121939007Y-37193496D01*
X121961529Y-37201554D01*
X121983153Y-37211782D01*
X122003670Y-37224079D01*
X122022883Y-37238329D01*
X122040607Y-37254393D01*
X122056671Y-37272117D01*
X122070921Y-37291330D01*
X122083218Y-37311847D01*
X122093446Y-37333471D01*
X122101504Y-37355993D01*
X122107316Y-37379197D01*
X122110826Y-37402858D01*
X122112000Y-37426750D01*
X122112000Y-37914250D01*
X122110826Y-37938142D01*
X122107316Y-37961803D01*
X122101504Y-37985007D01*
X122093446Y-38007529D01*
X122083218Y-38029153D01*
X122070921Y-38049670D01*
X122056671Y-38068883D01*
X122040607Y-38086607D01*
X122022883Y-38102671D01*
X122003670Y-38116921D01*
X121983153Y-38129218D01*
X121961529Y-38139446D01*
X121939007Y-38147504D01*
X121915803Y-38153316D01*
X121892142Y-38156826D01*
X121868250Y-38158000D01*
X120955750Y-38158000D01*
X120931858Y-38156826D01*
X120908197Y-38153316D01*
X120884993Y-38147504D01*
X120862471Y-38139446D01*
X120840847Y-38129218D01*
X120820330Y-38116921D01*
X120801117Y-38102671D01*
X120783393Y-38086607D01*
X120767329Y-38068883D01*
X120753079Y-38049670D01*
X120740782Y-38029153D01*
X120730554Y-38007529D01*
X120722496Y-37985007D01*
X120716684Y-37961803D01*
X120713174Y-37938142D01*
X120712000Y-37914250D01*
X120712000Y-37426750D01*
X120713174Y-37402858D01*
X120716684Y-37379197D01*
X120722496Y-37355993D01*
X120730554Y-37333471D01*
X120740782Y-37311847D01*
X120753079Y-37291330D01*
X120767329Y-37272117D01*
X120783393Y-37254393D01*
X120801117Y-37238329D01*
X120820330Y-37224079D01*
X120840847Y-37211782D01*
X120862471Y-37201554D01*
X120884993Y-37193496D01*
X120908197Y-37187684D01*
X120931858Y-37184174D01*
X120955750Y-37183000D01*
X121868250Y-37183000D01*
X121892142Y-37184174D01*
X121892142Y-37184174D01*
G37*
D11*
G04 #@! TD*
G04 #@! TO.P,R9,2*
G04 #@! TO.N,Net-(J10-Pad1)*
X121412000Y-37670500D03*
D10*
G04 #@! TO.N,/GPIO16*
G04 #@! TO.C,R8*
G36*
X128496142Y-39059174D02*
X128519803Y-39062684D01*
X128543007Y-39068496D01*
X128565529Y-39076554D01*
X128587153Y-39086782D01*
X128607670Y-39099079D01*
X128626883Y-39113329D01*
X128644607Y-39129393D01*
X128660671Y-39147117D01*
X128674921Y-39166330D01*
X128687218Y-39186847D01*
X128697446Y-39208471D01*
X128705504Y-39230993D01*
X128711316Y-39254197D01*
X128714826Y-39277858D01*
X128716000Y-39301750D01*
X128716000Y-39789250D01*
X128714826Y-39813142D01*
X128711316Y-39836803D01*
X128705504Y-39860007D01*
X128697446Y-39882529D01*
X128687218Y-39904153D01*
X128674921Y-39924670D01*
X128660671Y-39943883D01*
X128644607Y-39961607D01*
X128626883Y-39977671D01*
X128607670Y-39991921D01*
X128587153Y-40004218D01*
X128565529Y-40014446D01*
X128543007Y-40022504D01*
X128519803Y-40028316D01*
X128496142Y-40031826D01*
X128472250Y-40033000D01*
X127559750Y-40033000D01*
X127535858Y-40031826D01*
X127512197Y-40028316D01*
X127488993Y-40022504D01*
X127466471Y-40014446D01*
X127444847Y-40004218D01*
X127424330Y-39991921D01*
X127405117Y-39977671D01*
X127387393Y-39961607D01*
X127371329Y-39943883D01*
X127357079Y-39924670D01*
X127344782Y-39904153D01*
X127334554Y-39882529D01*
X127326496Y-39860007D01*
X127320684Y-39836803D01*
X127317174Y-39813142D01*
X127316000Y-39789250D01*
X127316000Y-39301750D01*
X127317174Y-39277858D01*
X127320684Y-39254197D01*
X127326496Y-39230993D01*
X127334554Y-39208471D01*
X127344782Y-39186847D01*
X127357079Y-39166330D01*
X127371329Y-39147117D01*
X127387393Y-39129393D01*
X127405117Y-39113329D01*
X127424330Y-39099079D01*
X127444847Y-39086782D01*
X127466471Y-39076554D01*
X127488993Y-39068496D01*
X127512197Y-39062684D01*
X127535858Y-39059174D01*
X127559750Y-39058000D01*
X128472250Y-39058000D01*
X128496142Y-39059174D01*
X128496142Y-39059174D01*
G37*
D11*
G04 #@! TD*
G04 #@! TO.P,R8,2*
G04 #@! TO.N,/GPIO16*
X128016000Y-39545500D03*
D10*
G04 #@! TO.N,Net-(Q1-Pad1)*
G04 #@! TO.C,R8*
G36*
X128496142Y-37184174D02*
X128519803Y-37187684D01*
X128543007Y-37193496D01*
X128565529Y-37201554D01*
X128587153Y-37211782D01*
X128607670Y-37224079D01*
X128626883Y-37238329D01*
X128644607Y-37254393D01*
X128660671Y-37272117D01*
X128674921Y-37291330D01*
X128687218Y-37311847D01*
X128697446Y-37333471D01*
X128705504Y-37355993D01*
X128711316Y-37379197D01*
X128714826Y-37402858D01*
X128716000Y-37426750D01*
X128716000Y-37914250D01*
X128714826Y-37938142D01*
X128711316Y-37961803D01*
X128705504Y-37985007D01*
X128697446Y-38007529D01*
X128687218Y-38029153D01*
X128674921Y-38049670D01*
X128660671Y-38068883D01*
X128644607Y-38086607D01*
X128626883Y-38102671D01*
X128607670Y-38116921D01*
X128587153Y-38129218D01*
X128565529Y-38139446D01*
X128543007Y-38147504D01*
X128519803Y-38153316D01*
X128496142Y-38156826D01*
X128472250Y-38158000D01*
X127559750Y-38158000D01*
X127535858Y-38156826D01*
X127512197Y-38153316D01*
X127488993Y-38147504D01*
X127466471Y-38139446D01*
X127444847Y-38129218D01*
X127424330Y-38116921D01*
X127405117Y-38102671D01*
X127387393Y-38086607D01*
X127371329Y-38068883D01*
X127357079Y-38049670D01*
X127344782Y-38029153D01*
X127334554Y-38007529D01*
X127326496Y-37985007D01*
X127320684Y-37961803D01*
X127317174Y-37938142D01*
X127316000Y-37914250D01*
X127316000Y-37426750D01*
X127317174Y-37402858D01*
X127320684Y-37379197D01*
X127326496Y-37355993D01*
X127334554Y-37333471D01*
X127344782Y-37311847D01*
X127357079Y-37291330D01*
X127371329Y-37272117D01*
X127387393Y-37254393D01*
X127405117Y-37238329D01*
X127424330Y-37224079D01*
X127444847Y-37211782D01*
X127466471Y-37201554D01*
X127488993Y-37193496D01*
X127512197Y-37187684D01*
X127535858Y-37184174D01*
X127559750Y-37183000D01*
X128472250Y-37183000D01*
X128496142Y-37184174D01*
X128496142Y-37184174D01*
G37*
D11*
G04 #@! TD*
G04 #@! TO.P,R8,1*
G04 #@! TO.N,Net-(Q1-Pad1)*
X128016000Y-37670500D03*
D10*
G04 #@! TO.N,/GPIO16*
G04 #@! TO.C,R5*
G36*
X131036142Y-39059174D02*
X131059803Y-39062684D01*
X131083007Y-39068496D01*
X131105529Y-39076554D01*
X131127153Y-39086782D01*
X131147670Y-39099079D01*
X131166883Y-39113329D01*
X131184607Y-39129393D01*
X131200671Y-39147117D01*
X131214921Y-39166330D01*
X131227218Y-39186847D01*
X131237446Y-39208471D01*
X131245504Y-39230993D01*
X131251316Y-39254197D01*
X131254826Y-39277858D01*
X131256000Y-39301750D01*
X131256000Y-39789250D01*
X131254826Y-39813142D01*
X131251316Y-39836803D01*
X131245504Y-39860007D01*
X131237446Y-39882529D01*
X131227218Y-39904153D01*
X131214921Y-39924670D01*
X131200671Y-39943883D01*
X131184607Y-39961607D01*
X131166883Y-39977671D01*
X131147670Y-39991921D01*
X131127153Y-40004218D01*
X131105529Y-40014446D01*
X131083007Y-40022504D01*
X131059803Y-40028316D01*
X131036142Y-40031826D01*
X131012250Y-40033000D01*
X130099750Y-40033000D01*
X130075858Y-40031826D01*
X130052197Y-40028316D01*
X130028993Y-40022504D01*
X130006471Y-40014446D01*
X129984847Y-40004218D01*
X129964330Y-39991921D01*
X129945117Y-39977671D01*
X129927393Y-39961607D01*
X129911329Y-39943883D01*
X129897079Y-39924670D01*
X129884782Y-39904153D01*
X129874554Y-39882529D01*
X129866496Y-39860007D01*
X129860684Y-39836803D01*
X129857174Y-39813142D01*
X129856000Y-39789250D01*
X129856000Y-39301750D01*
X129857174Y-39277858D01*
X129860684Y-39254197D01*
X129866496Y-39230993D01*
X129874554Y-39208471D01*
X129884782Y-39186847D01*
X129897079Y-39166330D01*
X129911329Y-39147117D01*
X129927393Y-39129393D01*
X129945117Y-39113329D01*
X129964330Y-39099079D01*
X129984847Y-39086782D01*
X130006471Y-39076554D01*
X130028993Y-39068496D01*
X130052197Y-39062684D01*
X130075858Y-39059174D01*
X130099750Y-39058000D01*
X131012250Y-39058000D01*
X131036142Y-39059174D01*
X131036142Y-39059174D01*
G37*
D11*
G04 #@! TD*
G04 #@! TO.P,R5,2*
G04 #@! TO.N,/GPIO16*
X130556000Y-39545500D03*
D10*
G04 #@! TO.N,Net-(D1-Pad2)*
G04 #@! TO.C,R5*
G36*
X131036142Y-37184174D02*
X131059803Y-37187684D01*
X131083007Y-37193496D01*
X131105529Y-37201554D01*
X131127153Y-37211782D01*
X131147670Y-37224079D01*
X131166883Y-37238329D01*
X131184607Y-37254393D01*
X131200671Y-37272117D01*
X131214921Y-37291330D01*
X131227218Y-37311847D01*
X131237446Y-37333471D01*
X131245504Y-37355993D01*
X131251316Y-37379197D01*
X131254826Y-37402858D01*
X131256000Y-37426750D01*
X131256000Y-37914250D01*
X131254826Y-37938142D01*
X131251316Y-37961803D01*
X131245504Y-37985007D01*
X131237446Y-38007529D01*
X131227218Y-38029153D01*
X131214921Y-38049670D01*
X131200671Y-38068883D01*
X131184607Y-38086607D01*
X131166883Y-38102671D01*
X131147670Y-38116921D01*
X131127153Y-38129218D01*
X131105529Y-38139446D01*
X131083007Y-38147504D01*
X131059803Y-38153316D01*
X131036142Y-38156826D01*
X131012250Y-38158000D01*
X130099750Y-38158000D01*
X130075858Y-38156826D01*
X130052197Y-38153316D01*
X130028993Y-38147504D01*
X130006471Y-38139446D01*
X129984847Y-38129218D01*
X129964330Y-38116921D01*
X129945117Y-38102671D01*
X129927393Y-38086607D01*
X129911329Y-38068883D01*
X129897079Y-38049670D01*
X129884782Y-38029153D01*
X129874554Y-38007529D01*
X129866496Y-37985007D01*
X129860684Y-37961803D01*
X129857174Y-37938142D01*
X129856000Y-37914250D01*
X129856000Y-37426750D01*
X129857174Y-37402858D01*
X129860684Y-37379197D01*
X129866496Y-37355993D01*
X129874554Y-37333471D01*
X129884782Y-37311847D01*
X129897079Y-37291330D01*
X129911329Y-37272117D01*
X129927393Y-37254393D01*
X129945117Y-37238329D01*
X129964330Y-37224079D01*
X129984847Y-37211782D01*
X130006471Y-37201554D01*
X130028993Y-37193496D01*
X130052197Y-37187684D01*
X130075858Y-37184174D01*
X130099750Y-37183000D01*
X131012250Y-37183000D01*
X131036142Y-37184174D01*
X131036142Y-37184174D01*
G37*
D11*
G04 #@! TD*
G04 #@! TO.P,R5,1*
G04 #@! TO.N,Net-(D1-Pad2)*
X130556000Y-37670500D03*
D10*
G04 #@! TO.N,Net-(D2-Pad2)*
G04 #@! TO.C,R6*
G36*
X133576142Y-37184174D02*
X133599803Y-37187684D01*
X133623007Y-37193496D01*
X133645529Y-37201554D01*
X133667153Y-37211782D01*
X133687670Y-37224079D01*
X133706883Y-37238329D01*
X133724607Y-37254393D01*
X133740671Y-37272117D01*
X133754921Y-37291330D01*
X133767218Y-37311847D01*
X133777446Y-37333471D01*
X133785504Y-37355993D01*
X133791316Y-37379197D01*
X133794826Y-37402858D01*
X133796000Y-37426750D01*
X133796000Y-37914250D01*
X133794826Y-37938142D01*
X133791316Y-37961803D01*
X133785504Y-37985007D01*
X133777446Y-38007529D01*
X133767218Y-38029153D01*
X133754921Y-38049670D01*
X133740671Y-38068883D01*
X133724607Y-38086607D01*
X133706883Y-38102671D01*
X133687670Y-38116921D01*
X133667153Y-38129218D01*
X133645529Y-38139446D01*
X133623007Y-38147504D01*
X133599803Y-38153316D01*
X133576142Y-38156826D01*
X133552250Y-38158000D01*
X132639750Y-38158000D01*
X132615858Y-38156826D01*
X132592197Y-38153316D01*
X132568993Y-38147504D01*
X132546471Y-38139446D01*
X132524847Y-38129218D01*
X132504330Y-38116921D01*
X132485117Y-38102671D01*
X132467393Y-38086607D01*
X132451329Y-38068883D01*
X132437079Y-38049670D01*
X132424782Y-38029153D01*
X132414554Y-38007529D01*
X132406496Y-37985007D01*
X132400684Y-37961803D01*
X132397174Y-37938142D01*
X132396000Y-37914250D01*
X132396000Y-37426750D01*
X132397174Y-37402858D01*
X132400684Y-37379197D01*
X132406496Y-37355993D01*
X132414554Y-37333471D01*
X132424782Y-37311847D01*
X132437079Y-37291330D01*
X132451329Y-37272117D01*
X132467393Y-37254393D01*
X132485117Y-37238329D01*
X132504330Y-37224079D01*
X132524847Y-37211782D01*
X132546471Y-37201554D01*
X132568993Y-37193496D01*
X132592197Y-37187684D01*
X132615858Y-37184174D01*
X132639750Y-37183000D01*
X133552250Y-37183000D01*
X133576142Y-37184174D01*
X133576142Y-37184174D01*
G37*
D11*
G04 #@! TD*
G04 #@! TO.P,R6,1*
G04 #@! TO.N,Net-(D2-Pad2)*
X133096000Y-37670500D03*
D10*
G04 #@! TO.N,/GPIO17*
G04 #@! TO.C,R6*
G36*
X133576142Y-39059174D02*
X133599803Y-39062684D01*
X133623007Y-39068496D01*
X133645529Y-39076554D01*
X133667153Y-39086782D01*
X133687670Y-39099079D01*
X133706883Y-39113329D01*
X133724607Y-39129393D01*
X133740671Y-39147117D01*
X133754921Y-39166330D01*
X133767218Y-39186847D01*
X133777446Y-39208471D01*
X133785504Y-39230993D01*
X133791316Y-39254197D01*
X133794826Y-39277858D01*
X133796000Y-39301750D01*
X133796000Y-39789250D01*
X133794826Y-39813142D01*
X133791316Y-39836803D01*
X133785504Y-39860007D01*
X133777446Y-39882529D01*
X133767218Y-39904153D01*
X133754921Y-39924670D01*
X133740671Y-39943883D01*
X133724607Y-39961607D01*
X133706883Y-39977671D01*
X133687670Y-39991921D01*
X133667153Y-40004218D01*
X133645529Y-40014446D01*
X133623007Y-40022504D01*
X133599803Y-40028316D01*
X133576142Y-40031826D01*
X133552250Y-40033000D01*
X132639750Y-40033000D01*
X132615858Y-40031826D01*
X132592197Y-40028316D01*
X132568993Y-40022504D01*
X132546471Y-40014446D01*
X132524847Y-40004218D01*
X132504330Y-39991921D01*
X132485117Y-39977671D01*
X132467393Y-39961607D01*
X132451329Y-39943883D01*
X132437079Y-39924670D01*
X132424782Y-39904153D01*
X132414554Y-39882529D01*
X132406496Y-39860007D01*
X132400684Y-39836803D01*
X132397174Y-39813142D01*
X132396000Y-39789250D01*
X132396000Y-39301750D01*
X132397174Y-39277858D01*
X132400684Y-39254197D01*
X132406496Y-39230993D01*
X132414554Y-39208471D01*
X132424782Y-39186847D01*
X132437079Y-39166330D01*
X132451329Y-39147117D01*
X132467393Y-39129393D01*
X132485117Y-39113329D01*
X132504330Y-39099079D01*
X132524847Y-39086782D01*
X132546471Y-39076554D01*
X132568993Y-39068496D01*
X132592197Y-39062684D01*
X132615858Y-39059174D01*
X132639750Y-39058000D01*
X133552250Y-39058000D01*
X133576142Y-39059174D01*
X133576142Y-39059174D01*
G37*
D11*
G04 #@! TD*
G04 #@! TO.P,R6,2*
G04 #@! TO.N,/GPIO17*
X133096000Y-39545500D03*
D19*
G04 #@! TO.P,J8,6*
G04 #@! TO.N,/GPIO26*
X124968000Y-138938000D03*
G04 #@! TO.P,J8,5*
G04 #@! TO.N,/GPIO33*
X122428000Y-138938000D03*
G04 #@! TO.P,J8,4*
G04 #@! TO.N,GND*
X119888000Y-138938000D03*
D23*
G04 #@! TO.P,J8,3*
G04 #@! TO.N,+3V3*
X117348000Y-138938000D03*
D19*
G04 #@! TO.P,J8,2*
G04 #@! TO.N,/GPIO25*
X114808000Y-138938000D03*
D23*
G04 #@! TO.P,J8,1*
G04 #@! TO.N,/GPIO27*
X112268000Y-138938000D03*
G04 #@! TD*
G04 #@! TO.P,J7,1*
G04 #@! TO.N,+3V3*
X145288000Y-138938000D03*
D19*
G04 #@! TO.P,J7,2*
G04 #@! TO.N,GND*
X147828000Y-138938000D03*
G04 #@! TO.P,J7,3*
G04 #@! TO.N,/GPIO26*
X150368000Y-138938000D03*
G04 #@! TO.P,J7,4*
G04 #@! TO.N,/GPIO25*
X152908000Y-138938000D03*
G04 #@! TO.P,J7,5*
G04 #@! TO.N,/GPIO33*
X155448000Y-138938000D03*
G04 #@! TO.P,J7,6*
G04 #@! TO.N,/GPIO27*
X157988000Y-138938000D03*
G04 #@! TD*
D23*
G04 #@! TO.P,J4,1*
G04 #@! TO.N,+3V3*
X130556000Y-138938000D03*
D19*
G04 #@! TO.P,J4,2*
G04 #@! TO.N,GND*
X133096000Y-138938000D03*
G04 #@! TO.P,J4,3*
G04 #@! TO.N,/GPIO34*
X135636000Y-138938000D03*
G04 #@! TO.P,J4,4*
G04 #@! TO.N,/GPIO35*
X138176000Y-138938000D03*
G04 #@! TD*
D23*
G04 #@! TO.P,J5,1*
G04 #@! TO.N,+3V3*
X166878000Y-130048000D03*
D19*
G04 #@! TO.P,J5,2*
G04 #@! TO.N,GND*
X166878000Y-127508000D03*
G04 #@! TO.P,J5,3*
G04 #@! TO.N,/GPIO39*
X166878000Y-124968000D03*
G04 #@! TO.P,J5,4*
G04 #@! TO.N,/GPIO36*
X166878000Y-122428000D03*
G04 #@! TD*
G04 #@! TO.P,J6,4*
G04 #@! TO.N,Net-(C3-Pad1)*
X166878000Y-108458000D03*
G04 #@! TO.P,J6,3*
G04 #@! TO.N,GND*
X166878000Y-110998000D03*
D23*
G04 #@! TO.P,J6,2*
G04 #@! TO.N,+3V3*
X166878000Y-113538000D03*
G04 #@! TO.P,J6,1*
G04 #@! TO.N,Net-(C2-Pad1)*
X166878000Y-116078000D03*
G04 #@! TD*
G04 #@! TO.P,J9,1*
G04 #@! TO.N,+3V3*
X125476000Y-16510000D03*
D19*
G04 #@! TO.P,J9,2*
G04 #@! TO.N,GND*
X122936000Y-16510000D03*
D23*
G04 #@! TO.P,J9,3*
G04 #@! TO.N,/GPIO14*
X120396000Y-16510000D03*
D19*
G04 #@! TO.P,J9,4*
G04 #@! TO.N,/GPIO12*
X117856000Y-16510000D03*
D23*
G04 #@! TO.P,J9,5*
G04 #@! TO.N,/GPIO13*
X115316000Y-16510000D03*
D19*
G04 #@! TO.P,J9,6*
G04 #@! TO.N,/GPIO15*
X112776000Y-16510000D03*
G04 #@! TD*
D24*
G04 #@! TO.P,Q1,1*
G04 #@! TO.N,Net-(Q1-Pad1)*
X125664000Y-37608000D03*
G04 #@! TO.P,Q1,2*
G04 #@! TO.N,GND*
X123764000Y-37608000D03*
G04 #@! TO.P,Q1,3*
G04 #@! TO.N,Net-(Q1-Pad3)*
X124714000Y-39608000D03*
G04 #@! TD*
D17*
G04 #@! TO.P,J13,18*
G04 #@! TO.N,Net-(J13-Pad18)*
X115316000Y-54290683D03*
G04 #@! TO.P,J13,16*
G04 #@! TO.N,/GPIO15*
X120396000Y-54290683D03*
G04 #@! TO.P,J13,14*
G04 #@! TO.N,Net-(J13-Pad14)*
X125476000Y-54290683D03*
G04 #@! TO.P,J13,12*
G04 #@! TO.N,/GPIO16*
X130556000Y-54290683D03*
G04 #@! TO.P,J13,10*
G04 #@! TO.N,/VSPI_CS*
X135636000Y-54290683D03*
G04 #@! TO.P,J13,8*
G04 #@! TO.N,/VSPI_MISO*
X140716000Y-54290683D03*
G04 #@! TO.P,J13,6*
G04 #@! TO.N,/LCD_RST*
X145796000Y-54290683D03*
G04 #@! TO.P,J13,4*
G04 #@! TO.N,Net-(J13-Pad4)*
X150876000Y-54290683D03*
G04 #@! TO.P,J13,2*
G04 #@! TO.N,/VSPI_MOSI*
X155956000Y-54290683D03*
G04 #@! TO.P,J13,19*
G04 #@! TO.N,Net-(J13-Pad19)*
X112776000Y-50990683D03*
G04 #@! TO.P,J13,17*
G04 #@! TO.N,Net-(J13-Pad17)*
X117856000Y-50990683D03*
G04 #@! TO.P,J13,15*
G04 #@! TO.N,/GPIO2*
X122936000Y-50990683D03*
G04 #@! TO.P,J13,13*
G04 #@! TO.N,/GPIO4*
X128016000Y-50990683D03*
G04 #@! TO.P,J13,11*
G04 #@! TO.N,/GPIO17*
X133096000Y-50990683D03*
G04 #@! TO.P,J13,9*
G04 #@! TO.N,/VSPI_SCK*
X138176000Y-50990683D03*
G04 #@! TO.P,J13,7*
G04 #@! TO.N,GND*
X143256000Y-50990683D03*
G04 #@! TO.P,J13,5*
G04 #@! TO.N,Net-(J13-Pad5)*
X148336000Y-50990683D03*
G04 #@! TO.P,J13,3*
G04 #@! TO.N,/LCD_DC*
X153416000Y-50990683D03*
G04 #@! TO.P,J13,1*
G04 #@! TO.N,GND*
X158496000Y-50990683D03*
G04 #@! TD*
D25*
G04 #@! TO.N,+3V3*
X149987000Y-35941006D03*
X111251994Y-35941006D03*
X125730000Y-66929000D03*
X141985996Y-68961000D03*
X122682000Y-63500000D03*
X108204000Y-60198000D03*
G04 #@! TO.N,/LCD_DC*
X151551889Y-79505983D03*
X126746000Y-81026000D03*
X153416000Y-75056994D03*
G04 #@! TO.N,/LCD_RST*
X156718000Y-61468000D03*
X146812000Y-82040400D03*
X130302000Y-82042000D03*
X145923001Y-60452000D03*
G04 #@! TO.N,GND*
X120523000Y-84455000D03*
G04 #@! TO.N,/GPIO26*
X113284000Y-31242000D03*
G04 #@! TO.N,/GPIO25*
X108966000Y-32258000D03*
G04 #@! TO.N,/GPIO27*
X109474000Y-30226000D03*
G04 #@! TO.N,/VSPI_SCK*
X147574000Y-81280000D03*
X127889004Y-81407000D03*
X138176000Y-79375000D03*
G04 #@! TO.N,/VSPI_CS*
X135636000Y-75692000D03*
X128651000Y-82181000D03*
X144145000Y-77088998D03*
X134365996Y-81153000D03*
G04 #@! TO.N,/VSPI_MISO*
X140716000Y-70161627D03*
X125730001Y-79457337D03*
G04 #@! TO.N,/VSPI_MOSI*
X125730000Y-80518000D03*
X146685000Y-77851000D03*
G04 #@! TO.N,/GPIO12*
X116332000Y-29464006D03*
G04 #@! TO.N,/GPIO13*
X121412000Y-28701998D03*
G04 #@! TO.N,/GPIO33*
X109474000Y-33528000D03*
G04 #@! TD*
D26*
G04 #@! TO.N,+3V3*
X149606000Y-76440400D02*
X149606000Y-75640400D01*
D27*
X158496000Y-26094918D02*
X158496000Y-27244918D01*
D26*
X160204001Y-24386917D02*
X158496000Y-26094918D01*
D27*
X160204001Y-18912082D02*
X160204001Y-24386917D01*
D26*
X159004000Y-17712081D02*
X160204001Y-18912082D01*
X159004000Y-16510000D02*
X159004000Y-17712081D01*
X156464000Y-13970000D02*
X159004000Y-16510000D01*
X125476000Y-16510000D02*
X128016000Y-13970000D01*
X128016000Y-13970000D02*
X156464000Y-13970000D01*
X143383000Y-39545500D02*
X145923000Y-39545500D01*
X149986994Y-35941006D02*
X149987000Y-35941006D01*
X145923000Y-39545500D02*
X146382500Y-39545500D01*
X146382500Y-39545500D02*
X149986994Y-35941006D01*
D27*
X125701000Y-66958000D02*
X125730000Y-66929000D01*
X148506000Y-75640400D02*
X141985996Y-69120396D01*
X141985996Y-69120396D02*
X141985996Y-68961000D01*
X149606000Y-75640400D02*
X148506000Y-75640400D01*
X122864000Y-67458000D02*
X122864000Y-66958000D01*
X120496000Y-70458000D02*
X122864000Y-70458000D01*
X120582000Y-80958000D02*
X122864000Y-80958000D01*
X122864000Y-66958000D02*
X122864000Y-63682000D01*
X122864000Y-63682000D02*
X122682000Y-63500000D01*
X108204000Y-61468000D02*
X108204000Y-60198000D01*
X122364000Y-66958000D02*
X120496000Y-68826000D01*
X120496000Y-68826000D02*
X120496000Y-70458000D01*
X120496000Y-70458000D02*
X120126022Y-70827978D01*
X121914000Y-83458000D02*
X120582000Y-82126000D01*
X120126022Y-70827978D02*
X120126022Y-80502022D01*
X120582000Y-82126000D02*
X120582000Y-80958000D01*
X122864000Y-83458000D02*
X121914000Y-83458000D01*
X122864000Y-66958000D02*
X122364000Y-66958000D01*
X120126022Y-80502022D02*
X120582000Y-80958000D01*
X109220000Y-37973000D02*
X111251994Y-35941006D01*
X108204000Y-60198000D02*
X109220000Y-59182000D01*
X109220000Y-59182000D02*
X109220000Y-37973000D01*
G04 #@! TO.N,+5V*
X112776000Y-27244918D02*
X112776000Y-28917083D01*
X112776000Y-21522081D02*
X112776000Y-27244918D01*
X112776000Y-20320000D02*
X112776000Y-21522081D01*
G04 #@! TO.N,/LCD_DC*
X153416000Y-52644918D02*
X153416000Y-50990683D01*
X149606000Y-80440400D02*
X150617472Y-80440400D01*
X150617472Y-80440400D02*
X151551889Y-79505983D01*
X126314000Y-81458000D02*
X126346001Y-81425999D01*
X126346001Y-81425999D02*
X126746000Y-81026000D01*
X122864000Y-81458000D02*
X126314000Y-81458000D01*
X153416000Y-52644918D02*
X153416000Y-75056994D01*
G04 #@! TO.N,/LCD_RST*
X145796000Y-52644918D02*
X145796000Y-54290683D01*
X156718000Y-61468000D02*
X157480000Y-62230000D01*
X150706000Y-82040400D02*
X149606000Y-82040400D01*
X157480000Y-75266400D02*
X150706000Y-82040400D01*
X157480000Y-62230000D02*
X157480000Y-75266400D01*
X149606000Y-82040400D02*
X146812000Y-82040400D01*
X123814000Y-79458000D02*
X122864000Y-79458000D01*
X124619336Y-79458000D02*
X123814000Y-79458000D01*
X125370000Y-78707336D02*
X124619336Y-79458000D01*
X126967336Y-78707336D02*
X125370000Y-78707336D01*
X130302000Y-82042000D02*
X126967336Y-78707336D01*
X145796000Y-54290683D02*
X145796000Y-60324999D01*
X145796000Y-60324999D02*
X145923001Y-60452000D01*
G04 #@! TO.N,GND*
X122864000Y-84458000D02*
X120526000Y-84458000D01*
X120526000Y-84458000D02*
X120523000Y-84455000D01*
X140843000Y-37670500D02*
X143383000Y-37670500D01*
X122864000Y-67958000D02*
X122864000Y-69958000D01*
X122864000Y-70958000D02*
X122864000Y-78958000D01*
X124830000Y-69458000D02*
X122864000Y-69458000D01*
X125476000Y-70104000D02*
X124830000Y-69458000D01*
X125476000Y-73152000D02*
X125476000Y-70104000D01*
X122864000Y-73958000D02*
X124670000Y-73958000D01*
X124670000Y-73958000D02*
X125476000Y-73152000D01*
G04 #@! TO.N,/GPIO35*
X145796000Y-27244918D02*
X145796000Y-25617083D01*
G04 #@! TO.N,/GPIO34*
X148336000Y-27244918D02*
X148336000Y-28917083D01*
G04 #@! TO.N,/GPIO26*
X135636000Y-27244918D02*
X135636000Y-25617083D01*
X109266890Y-127246010D02*
X107453999Y-125433119D01*
X124968000Y-139700000D02*
X112514010Y-127246010D01*
X112884001Y-31641999D02*
X113284000Y-31242000D01*
X107453999Y-37072001D02*
X112884001Y-31641999D01*
X112514010Y-127246010D02*
X109266890Y-127246010D01*
X107453999Y-125433119D02*
X107453999Y-37072001D01*
X118563120Y-133295120D02*
X116277120Y-133295120D01*
X122428000Y-137160000D02*
X118563120Y-133295120D01*
G04 #@! TO.N,/GPIO14*
X130556000Y-27244918D02*
X130556000Y-25617083D01*
X129503083Y-25617083D02*
X130556000Y-25617083D01*
X120396000Y-16510000D02*
X129503083Y-25617083D01*
X125349999Y-112699999D02*
X126450000Y-113800000D01*
X131052001Y-104367997D02*
X125349999Y-110069999D01*
X131052001Y-81681999D02*
X131052001Y-104367997D01*
X126450000Y-113800000D02*
X126450000Y-114750000D01*
X129355999Y-79985997D02*
X131052001Y-81681999D01*
X129355999Y-50250680D02*
X129355999Y-79985997D01*
X126965990Y-39055804D02*
X126965990Y-47860671D01*
X127313804Y-38707990D02*
X126965990Y-39055804D01*
X125349999Y-110069999D02*
X125349999Y-112699999D01*
X128718196Y-38707990D02*
X127313804Y-38707990D01*
X129066010Y-38360176D02*
X128718196Y-38707990D01*
X129066010Y-35779990D02*
X129066010Y-38360176D01*
X126965990Y-47860671D02*
X129355999Y-50250680D01*
X130556000Y-34290000D02*
X129066010Y-35779990D01*
X130556000Y-27244918D02*
X130556000Y-34290000D01*
G04 #@! TO.N,/GPIO25*
X138176000Y-27244918D02*
X138176000Y-28917083D01*
X105664000Y-35560000D02*
X108566001Y-32657999D01*
X105664000Y-126238000D02*
X105664000Y-35560000D01*
X108566001Y-32657999D02*
X108966000Y-32258000D01*
X114808000Y-135382000D02*
X105664000Y-126238000D01*
X114808000Y-137160000D02*
X114808000Y-132842000D01*
G04 #@! TO.N,/GPIO27*
X133096000Y-27244918D02*
X133096000Y-28917083D01*
X104902000Y-126492000D02*
X104902000Y-34798000D01*
X109074001Y-30625999D02*
X109474000Y-30226000D01*
X104902000Y-34798000D02*
X109074001Y-30625999D01*
X112268000Y-133858000D02*
X104902000Y-126492000D01*
X112268000Y-139700000D02*
X112268000Y-133858000D01*
G04 #@! TO.N,/VSPI_SCK*
X138176000Y-52644918D02*
X138176000Y-50990683D01*
X149606000Y-81240400D02*
X147613600Y-81240400D01*
X147613600Y-81240400D02*
X147574000Y-81280000D01*
X127489005Y-81806999D02*
X127889004Y-81407000D01*
X127338004Y-81958000D02*
X127489005Y-81806999D01*
X122864000Y-81958000D02*
X127338004Y-81958000D01*
X138176000Y-52644918D02*
X138176000Y-79375000D01*
G04 #@! TO.N,/VSPI_CS*
X135636000Y-54290683D02*
X135636000Y-75692000D01*
X122864000Y-82458000D02*
X128374000Y-82458000D01*
X128374000Y-82458000D02*
X128651000Y-82181000D01*
X135636000Y-79883000D02*
X135636000Y-75692000D01*
X146696402Y-79640400D02*
X144544999Y-77488997D01*
X144544999Y-77488997D02*
X144145000Y-77088998D01*
X149606000Y-79640400D02*
X146696402Y-79640400D01*
X134765995Y-80753001D02*
X134365996Y-81153000D01*
X135635996Y-79883000D02*
X134765995Y-80753001D01*
X135636000Y-79883000D02*
X135635996Y-79883000D01*
G04 #@! TO.N,/VSPI_MISO*
X140716000Y-70250400D02*
X140716000Y-70161627D01*
X148506000Y-78040400D02*
X140716000Y-70250400D01*
X149606000Y-78040400D02*
X148506000Y-78040400D01*
X140716000Y-54290683D02*
X140716000Y-70161627D01*
X125330002Y-79857336D02*
X125730001Y-79457337D01*
X125229338Y-79958000D02*
X125330002Y-79857336D01*
X122864000Y-79958000D02*
X125229338Y-79958000D01*
G04 #@! TO.N,/VSPI_MOSI*
X150706000Y-78840400D02*
X149606000Y-78840400D01*
X155956000Y-54290683D02*
X155956000Y-73590400D01*
X155956000Y-73590400D02*
X150706000Y-78840400D01*
X155956000Y-52644918D02*
X155956000Y-54290683D01*
X122864000Y-80458000D02*
X125670000Y-80458000D01*
X125670000Y-80458000D02*
X125730000Y-80518000D01*
X147084999Y-78250999D02*
X146685000Y-77851000D01*
X147674400Y-78840400D02*
X147084999Y-78250999D01*
X149606000Y-78840400D02*
X147674400Y-78840400D01*
G04 #@! TO.N,/GPIO39*
X150876000Y-25617083D02*
X150876000Y-27244918D01*
X150876000Y-27244918D02*
X150876000Y-37670500D01*
X164250001Y-124118001D02*
X165100000Y-124968000D01*
X160147000Y-120015000D02*
X164250001Y-124118001D01*
X161417000Y-49403000D02*
X161417000Y-120777000D01*
X151926010Y-39912010D02*
X161417000Y-49403000D01*
X150876000Y-37670500D02*
X151926010Y-38720510D01*
X151926010Y-38720510D02*
X151926010Y-39912010D01*
G04 #@! TO.N,/GPIO36*
X153416000Y-27244918D02*
X153416000Y-28917083D01*
X153416000Y-19558000D02*
X153416000Y-27244918D01*
X156464000Y-16510000D02*
X153416000Y-19558000D01*
X153416000Y-28917083D02*
X153416000Y-37670500D01*
G04 #@! TO.N,/GPIO12*
X128016000Y-28917083D02*
X128016000Y-27244918D01*
X128016000Y-26042837D02*
X128016000Y-27244918D01*
X120515163Y-18542000D02*
X128016000Y-26042837D01*
X117856000Y-16510000D02*
X119888000Y-18542000D01*
X119888000Y-18542000D02*
X120515163Y-18542000D01*
X114800000Y-117550000D02*
X113249989Y-115999989D01*
X114850000Y-117550000D02*
X114800000Y-117550000D01*
X114115999Y-53220919D02*
X114115999Y-31680007D01*
X113249989Y-115999989D02*
X113249989Y-54086929D01*
X115932001Y-29864005D02*
X116332000Y-29464006D01*
X114115999Y-31680007D02*
X115932001Y-29864005D01*
X113249989Y-54086929D02*
X114115999Y-53220919D01*
G04 #@! TO.N,/GPIO13*
X122936000Y-27244918D02*
X122936000Y-28917083D01*
X122936000Y-24130000D02*
X122936000Y-27244918D01*
X115316000Y-16510000D02*
X122936000Y-24130000D01*
X121012001Y-29101997D02*
X121412000Y-28701998D01*
X113749999Y-110069999D02*
X116516001Y-107303997D01*
X116516001Y-107303997D02*
X116516001Y-33597997D01*
X116516001Y-33597997D02*
X121012001Y-29101997D01*
X113749999Y-112699999D02*
X113749999Y-110069999D01*
X114850000Y-114750000D02*
X114850000Y-113800000D01*
X114850000Y-113800000D02*
X113749999Y-112699999D01*
G04 #@! TO.N,/GPIO15*
X120396000Y-56134000D02*
X120396000Y-52644918D01*
X117856000Y-58674000D02*
X120396000Y-56134000D01*
X114850000Y-111050000D02*
X117856000Y-108044000D01*
X117856000Y-108044000D02*
X117856000Y-58674000D01*
G04 #@! TO.N,/GPIO4*
X128016000Y-50990683D02*
X128016000Y-52644918D01*
G04 #@! TO.N,/GPIO32*
X143256000Y-24638000D02*
X143256000Y-27244918D01*
X151384000Y-16510000D02*
X143256000Y-24638000D01*
X143256000Y-30167083D02*
X143256000Y-28917083D01*
X139515999Y-33907084D02*
X143256000Y-30167083D01*
X139515999Y-96984001D02*
X139515999Y-33907084D01*
X126450000Y-110050000D02*
X139515999Y-96984001D01*
X126450000Y-111050000D02*
X126450000Y-110050000D01*
G04 #@! TO.N,/GPIO16*
X130556000Y-52644918D02*
X130556000Y-54290683D01*
X130556000Y-52644918D02*
X130556000Y-39545500D01*
X128524000Y-39545500D02*
X130556000Y-39545500D01*
G04 #@! TO.N,/GPIO17*
X133096000Y-52644918D02*
X133096000Y-50990683D01*
X133096000Y-40133000D02*
X133096000Y-50990683D01*
X133096000Y-39545500D02*
X133096000Y-40133000D01*
G04 #@! TO.N,/GPIO2*
X122936000Y-52644918D02*
X122936000Y-50990683D01*
G04 #@! TO.N,/GPIO33*
X109474000Y-126746000D02*
X109474000Y-120015000D01*
X109474000Y-69879000D02*
X109474000Y-120015000D01*
X109474000Y-120015000D02*
X109474000Y-120904000D01*
X129667000Y-134112000D02*
X129794000Y-134239000D01*
X129667000Y-130937000D02*
X129667000Y-134112000D01*
X109474000Y-126746000D02*
X125476000Y-126746000D01*
X125476000Y-126746000D02*
X129667000Y-130937000D01*
X128270000Y-133096000D02*
X128270000Y-137160000D01*
X129667000Y-134239000D02*
X128270000Y-135636000D01*
X154940000Y-139700000D02*
X149479000Y-134239000D01*
X149479000Y-134239000D02*
X129667000Y-134239000D01*
X129794000Y-130810000D02*
X166370000Y-130810000D01*
X129667000Y-130937000D02*
X129794000Y-130810000D01*
X140716000Y-27244918D02*
X140716000Y-25617083D01*
X106426000Y-36576000D02*
X109074001Y-33927999D01*
X106426000Y-125984000D02*
X106426000Y-36576000D01*
X109074001Y-33927999D02*
X109474000Y-33528000D01*
X116277120Y-135835120D02*
X106426000Y-125984000D01*
G04 #@! TO.N,Net-(DS1-Pad11)*
X149606000Y-74840400D02*
X149606000Y-72440400D01*
X148506000Y-72440400D02*
X149606000Y-72440400D01*
X144595999Y-68530399D02*
X148506000Y-72440400D01*
X140843000Y-40824001D02*
X144595999Y-44577000D01*
X140843000Y-39545500D02*
X140843000Y-40824001D01*
X144595999Y-44577000D02*
X144595999Y-68530399D01*
G04 #@! TO.N,Net-(C3-Pad1)*
X161163000Y-104521000D02*
X165100000Y-108458000D01*
X153416000Y-39545500D02*
X162433000Y-48562500D01*
X162433000Y-48562500D02*
X162433000Y-105283000D01*
G04 #@! TO.N,Net-(J10-Pad1)*
X124136001Y-24622881D02*
X124136001Y-29797084D01*
X116516001Y-17002881D02*
X124136001Y-24622881D01*
X115316000Y-19170000D02*
X114115999Y-17969999D01*
X115316000Y-20320000D02*
X115316000Y-19170000D01*
X115892001Y-15309999D02*
X116516001Y-15933999D01*
X114115999Y-15933999D02*
X114739999Y-15309999D01*
X114739999Y-15309999D02*
X115892001Y-15309999D01*
X116516001Y-15933999D02*
X116516001Y-17002881D01*
X121596001Y-32337084D02*
X121596001Y-37670500D01*
X114115999Y-17969999D02*
X114115999Y-15933999D01*
X124136001Y-29797084D02*
X121596001Y-32337084D01*
G04 #@! TO.N,Net-(Q1-Pad1)*
X127953500Y-37608000D02*
X128016000Y-37670500D01*
X125664000Y-37608000D02*
X127953500Y-37608000D01*
G04 #@! TO.N,Net-(Q1-Pad3)*
X124651500Y-39545500D02*
X124714000Y-39608000D01*
X121412000Y-39545500D02*
X124651500Y-39545500D01*
G04 #@! TO.N,Net-(D1-Pad2)*
X131112237Y-37114263D02*
X130556000Y-37670500D01*
X131112237Y-29415763D02*
X131112237Y-37114263D01*
X131756001Y-28771999D02*
X131112237Y-29415763D01*
X133174500Y-16002000D02*
X131756001Y-17420499D01*
X131756001Y-17420499D02*
X131756001Y-28771999D01*
G04 #@! TO.N,Net-(D2-Pad2)*
X138605500Y-16002000D02*
X136906000Y-17701500D01*
X136906000Y-17701500D02*
X136906000Y-33860500D01*
X136906000Y-33860500D02*
X133652237Y-37114263D01*
X133652237Y-37114263D02*
X133096000Y-37670500D01*
G04 #@! TD*
D28*
G04 #@! TO.N,GND*
G36*
X128882000Y-131262158D02*
X128882001Y-132598962D01*
X128835953Y-132530047D01*
X128576291Y-132356546D01*
X128270000Y-132295621D01*
X127963708Y-132356546D01*
X127704047Y-132530047D01*
X127530546Y-132789709D01*
X127485000Y-133018685D01*
X127485001Y-135558685D01*
X127469622Y-135636000D01*
X127485001Y-135713315D01*
X127485001Y-137237316D01*
X127530547Y-137466292D01*
X127704048Y-137725953D01*
X127963709Y-137899454D01*
X128270000Y-137960379D01*
X128576292Y-137899454D01*
X128835953Y-137725953D01*
X129009454Y-137466292D01*
X129055000Y-137237316D01*
X129055000Y-135961157D01*
X129992158Y-135024000D01*
X149153843Y-135024000D01*
X151933194Y-137803351D01*
X151837375Y-137867375D01*
X151638000Y-138165761D01*
X151438625Y-137867375D01*
X150947418Y-137539161D01*
X150514256Y-137453000D01*
X150221744Y-137453000D01*
X149788582Y-137539161D01*
X149297375Y-137867375D01*
X149084157Y-138186478D01*
X149023183Y-138056642D01*
X148594924Y-137666355D01*
X148184890Y-137496524D01*
X147955000Y-137617845D01*
X147955000Y-138811000D01*
X147975000Y-138811000D01*
X147975000Y-139065000D01*
X147955000Y-139065000D01*
X147955000Y-139085000D01*
X147701000Y-139085000D01*
X147701000Y-139065000D01*
X147681000Y-139065000D01*
X147681000Y-138811000D01*
X147701000Y-138811000D01*
X147701000Y-137617845D01*
X147471110Y-137496524D01*
X147061076Y-137666355D01*
X146632817Y-138056642D01*
X146578335Y-138172653D01*
X146546922Y-138096815D01*
X146129185Y-137679078D01*
X145583385Y-137453000D01*
X144992615Y-137453000D01*
X144446815Y-137679078D01*
X144029078Y-138096815D01*
X143803000Y-138642615D01*
X143803000Y-139233385D01*
X143943673Y-139573000D01*
X139537700Y-139573000D01*
X139574839Y-139517418D01*
X139690092Y-138938000D01*
X139574839Y-138358582D01*
X139246625Y-137867375D01*
X138755418Y-137539161D01*
X138322256Y-137453000D01*
X138029744Y-137453000D01*
X137596582Y-137539161D01*
X137105375Y-137867375D01*
X136906000Y-138165761D01*
X136706625Y-137867375D01*
X136215418Y-137539161D01*
X135782256Y-137453000D01*
X135489744Y-137453000D01*
X135056582Y-137539161D01*
X134565375Y-137867375D01*
X134352157Y-138186478D01*
X134291183Y-138056642D01*
X133862924Y-137666355D01*
X133452890Y-137496524D01*
X133223000Y-137617845D01*
X133223000Y-138811000D01*
X133243000Y-138811000D01*
X133243000Y-139065000D01*
X133223000Y-139065000D01*
X133223000Y-139085000D01*
X132969000Y-139085000D01*
X132969000Y-139065000D01*
X132949000Y-139065000D01*
X132949000Y-138811000D01*
X132969000Y-138811000D01*
X132969000Y-137617845D01*
X132739110Y-137496524D01*
X132329076Y-137666355D01*
X131900817Y-138056642D01*
X131846335Y-138172653D01*
X131814922Y-138096815D01*
X131397185Y-137679078D01*
X130851385Y-137453000D01*
X130260615Y-137453000D01*
X129714815Y-137679078D01*
X129297078Y-138096815D01*
X129071000Y-138642615D01*
X129071000Y-139233385D01*
X129211673Y-139573000D01*
X126329700Y-139573000D01*
X126366839Y-139517418D01*
X126482092Y-138938000D01*
X126366839Y-138358582D01*
X126038625Y-137867375D01*
X125547418Y-137539161D01*
X125114256Y-137453000D01*
X124821744Y-137453000D01*
X124388582Y-137539161D01*
X124106080Y-137727923D01*
X119172869Y-132794712D01*
X119129073Y-132729167D01*
X119063528Y-132685371D01*
X113909157Y-127531000D01*
X125150843Y-127531000D01*
X128882000Y-131262158D01*
X128882000Y-131262158D01*
G37*
X128882000Y-131262158D02*
X128882001Y-132598962D01*
X128835953Y-132530047D01*
X128576291Y-132356546D01*
X128270000Y-132295621D01*
X127963708Y-132356546D01*
X127704047Y-132530047D01*
X127530546Y-132789709D01*
X127485000Y-133018685D01*
X127485001Y-135558685D01*
X127469622Y-135636000D01*
X127485001Y-135713315D01*
X127485001Y-137237316D01*
X127530547Y-137466292D01*
X127704048Y-137725953D01*
X127963709Y-137899454D01*
X128270000Y-137960379D01*
X128576292Y-137899454D01*
X128835953Y-137725953D01*
X129009454Y-137466292D01*
X129055000Y-137237316D01*
X129055000Y-135961157D01*
X129992158Y-135024000D01*
X149153843Y-135024000D01*
X151933194Y-137803351D01*
X151837375Y-137867375D01*
X151638000Y-138165761D01*
X151438625Y-137867375D01*
X150947418Y-137539161D01*
X150514256Y-137453000D01*
X150221744Y-137453000D01*
X149788582Y-137539161D01*
X149297375Y-137867375D01*
X149084157Y-138186478D01*
X149023183Y-138056642D01*
X148594924Y-137666355D01*
X148184890Y-137496524D01*
X147955000Y-137617845D01*
X147955000Y-138811000D01*
X147975000Y-138811000D01*
X147975000Y-139065000D01*
X147955000Y-139065000D01*
X147955000Y-139085000D01*
X147701000Y-139085000D01*
X147701000Y-139065000D01*
X147681000Y-139065000D01*
X147681000Y-138811000D01*
X147701000Y-138811000D01*
X147701000Y-137617845D01*
X147471110Y-137496524D01*
X147061076Y-137666355D01*
X146632817Y-138056642D01*
X146578335Y-138172653D01*
X146546922Y-138096815D01*
X146129185Y-137679078D01*
X145583385Y-137453000D01*
X144992615Y-137453000D01*
X144446815Y-137679078D01*
X144029078Y-138096815D01*
X143803000Y-138642615D01*
X143803000Y-139233385D01*
X143943673Y-139573000D01*
X139537700Y-139573000D01*
X139574839Y-139517418D01*
X139690092Y-138938000D01*
X139574839Y-138358582D01*
X139246625Y-137867375D01*
X138755418Y-137539161D01*
X138322256Y-137453000D01*
X138029744Y-137453000D01*
X137596582Y-137539161D01*
X137105375Y-137867375D01*
X136906000Y-138165761D01*
X136706625Y-137867375D01*
X136215418Y-137539161D01*
X135782256Y-137453000D01*
X135489744Y-137453000D01*
X135056582Y-137539161D01*
X134565375Y-137867375D01*
X134352157Y-138186478D01*
X134291183Y-138056642D01*
X133862924Y-137666355D01*
X133452890Y-137496524D01*
X133223000Y-137617845D01*
X133223000Y-138811000D01*
X133243000Y-138811000D01*
X133243000Y-139065000D01*
X133223000Y-139065000D01*
X133223000Y-139085000D01*
X132969000Y-139085000D01*
X132969000Y-139065000D01*
X132949000Y-139065000D01*
X132949000Y-138811000D01*
X132969000Y-138811000D01*
X132969000Y-137617845D01*
X132739110Y-137496524D01*
X132329076Y-137666355D01*
X131900817Y-138056642D01*
X131846335Y-138172653D01*
X131814922Y-138096815D01*
X131397185Y-137679078D01*
X130851385Y-137453000D01*
X130260615Y-137453000D01*
X129714815Y-137679078D01*
X129297078Y-138096815D01*
X129071000Y-138642615D01*
X129071000Y-139233385D01*
X129211673Y-139573000D01*
X126329700Y-139573000D01*
X126366839Y-139517418D01*
X126482092Y-138938000D01*
X126366839Y-138358582D01*
X126038625Y-137867375D01*
X125547418Y-137539161D01*
X125114256Y-137453000D01*
X124821744Y-137453000D01*
X124388582Y-137539161D01*
X124106080Y-137727923D01*
X119172869Y-132794712D01*
X119129073Y-132729167D01*
X119063528Y-132685371D01*
X113909157Y-127531000D01*
X125150843Y-127531000D01*
X128882000Y-131262158D01*
G36*
X115711167Y-133861073D02*
X115970828Y-134034574D01*
X116199804Y-134080120D01*
X118237963Y-134080120D01*
X121757718Y-137599875D01*
X121357375Y-137867375D01*
X121144157Y-138186478D01*
X121083183Y-138056642D01*
X120654924Y-137666355D01*
X120244890Y-137496524D01*
X120015000Y-137617845D01*
X120015000Y-138811000D01*
X120035000Y-138811000D01*
X120035000Y-139065000D01*
X120015000Y-139065000D01*
X120015000Y-139085000D01*
X119761000Y-139085000D01*
X119761000Y-139065000D01*
X119741000Y-139065000D01*
X119741000Y-138811000D01*
X119761000Y-138811000D01*
X119761000Y-137617845D01*
X119531110Y-137496524D01*
X119121076Y-137666355D01*
X118692817Y-138056642D01*
X118638335Y-138172653D01*
X118606922Y-138096815D01*
X118189185Y-137679078D01*
X117643385Y-137453000D01*
X117052615Y-137453000D01*
X116506815Y-137679078D01*
X116089078Y-138096815D01*
X116067209Y-138149611D01*
X115878625Y-137867375D01*
X115464396Y-137590596D01*
X115547454Y-137466292D01*
X115593000Y-137237316D01*
X115593000Y-136261157D01*
X115776712Y-136444869D01*
X115970828Y-136574574D01*
X116277120Y-136635498D01*
X116583412Y-136574574D01*
X116843073Y-136401073D01*
X117016574Y-136141412D01*
X117077498Y-135835120D01*
X117016574Y-135528828D01*
X116886869Y-135334712D01*
X115593000Y-134040843D01*
X115593000Y-133684225D01*
X115711167Y-133861073D01*
X115711167Y-133861073D01*
G37*
X115711167Y-133861073D02*
X115970828Y-134034574D01*
X116199804Y-134080120D01*
X118237963Y-134080120D01*
X121757718Y-137599875D01*
X121357375Y-137867375D01*
X121144157Y-138186478D01*
X121083183Y-138056642D01*
X120654924Y-137666355D01*
X120244890Y-137496524D01*
X120015000Y-137617845D01*
X120015000Y-138811000D01*
X120035000Y-138811000D01*
X120035000Y-139065000D01*
X120015000Y-139065000D01*
X120015000Y-139085000D01*
X119761000Y-139085000D01*
X119761000Y-139065000D01*
X119741000Y-139065000D01*
X119741000Y-138811000D01*
X119761000Y-138811000D01*
X119761000Y-137617845D01*
X119531110Y-137496524D01*
X119121076Y-137666355D01*
X118692817Y-138056642D01*
X118638335Y-138172653D01*
X118606922Y-138096815D01*
X118189185Y-137679078D01*
X117643385Y-137453000D01*
X117052615Y-137453000D01*
X116506815Y-137679078D01*
X116089078Y-138096815D01*
X116067209Y-138149611D01*
X115878625Y-137867375D01*
X115464396Y-137590596D01*
X115547454Y-137466292D01*
X115593000Y-137237316D01*
X115593000Y-136261157D01*
X115776712Y-136444869D01*
X115970828Y-136574574D01*
X116277120Y-136635498D01*
X116583412Y-136574574D01*
X116843073Y-136401073D01*
X117016574Y-136141412D01*
X117077498Y-135835120D01*
X117016574Y-135528828D01*
X116886869Y-135334712D01*
X115593000Y-134040843D01*
X115593000Y-133684225D01*
X115711167Y-133861073D01*
G36*
X149528560Y-37914250D02*
X149596398Y-38255294D01*
X149789584Y-38544416D01*
X149884744Y-38608000D01*
X149789584Y-38671584D01*
X149596398Y-38960706D01*
X149528560Y-39301750D01*
X149528560Y-39789250D01*
X149596398Y-40130294D01*
X149789584Y-40419416D01*
X150078706Y-40612602D01*
X150419750Y-40680440D01*
X151332250Y-40680440D01*
X151542468Y-40638625D01*
X159893000Y-48989157D01*
X159893000Y-58420000D01*
X159902667Y-58468601D01*
X159930197Y-58509803D01*
X159971399Y-58537333D01*
X160020000Y-58547000D01*
X160632000Y-58547000D01*
X160632001Y-103931692D01*
X160597047Y-103955047D01*
X160423546Y-104214709D01*
X160362622Y-104521000D01*
X160423546Y-104827291D01*
X160553251Y-105021408D01*
X160632001Y-105100158D01*
X160632001Y-119394956D01*
X160453291Y-119275546D01*
X160147000Y-119214622D01*
X159840709Y-119275546D01*
X159698555Y-119370530D01*
X159569699Y-119241673D01*
X159336310Y-119145000D01*
X158995750Y-119145000D01*
X158837000Y-119303750D01*
X158837000Y-120403000D01*
X158857000Y-120403000D01*
X158857000Y-120657000D01*
X158837000Y-120657000D01*
X158837000Y-121756250D01*
X158995750Y-121915000D01*
X159336310Y-121915000D01*
X159569699Y-121818327D01*
X159748327Y-121639698D01*
X159845000Y-121406309D01*
X159845000Y-120823157D01*
X163640252Y-124618409D01*
X164599591Y-125577749D01*
X164793708Y-125707454D01*
X165099999Y-125768378D01*
X165406291Y-125707454D01*
X165530596Y-125624396D01*
X165807375Y-126038625D01*
X166126478Y-126251843D01*
X165996642Y-126312817D01*
X165606355Y-126741076D01*
X165436524Y-127151110D01*
X165557845Y-127381000D01*
X166751000Y-127381000D01*
X166751000Y-127361000D01*
X167005000Y-127361000D01*
X167005000Y-127381000D01*
X167025000Y-127381000D01*
X167025000Y-127635000D01*
X167005000Y-127635000D01*
X167005000Y-127655000D01*
X166751000Y-127655000D01*
X166751000Y-127635000D01*
X165557845Y-127635000D01*
X165436524Y-127864890D01*
X165606355Y-128274924D01*
X165996642Y-128703183D01*
X166112653Y-128757665D01*
X166036815Y-128789078D01*
X165619078Y-129206815D01*
X165393000Y-129752615D01*
X165393000Y-130025000D01*
X129871311Y-130025000D01*
X129863630Y-130023472D01*
X126085749Y-126245592D01*
X126041953Y-126180047D01*
X125782292Y-126006546D01*
X125553316Y-125961000D01*
X125553312Y-125961000D01*
X125476000Y-125945622D01*
X125398688Y-125961000D01*
X110259000Y-125961000D01*
X110259000Y-122320000D01*
X139227560Y-122320000D01*
X139227560Y-123820000D01*
X139276843Y-124067765D01*
X139417191Y-124277809D01*
X139627235Y-124418157D01*
X139875000Y-124467440D01*
X140875000Y-124467440D01*
X141122765Y-124418157D01*
X141332809Y-124277809D01*
X141473157Y-124067765D01*
X141522440Y-123820000D01*
X141522440Y-123355750D01*
X144240000Y-123355750D01*
X144240000Y-123946309D01*
X144336673Y-124179698D01*
X144515301Y-124358327D01*
X144748690Y-124455000D01*
X145089250Y-124455000D01*
X145248000Y-124296250D01*
X145248000Y-123197000D01*
X145502000Y-123197000D01*
X145502000Y-124296250D01*
X145660750Y-124455000D01*
X146001310Y-124455000D01*
X146234699Y-124358327D01*
X146413327Y-124179698D01*
X146510000Y-123946309D01*
X146510000Y-123355750D01*
X146351250Y-123197000D01*
X145502000Y-123197000D01*
X145248000Y-123197000D01*
X144398750Y-123197000D01*
X144240000Y-123355750D01*
X141522440Y-123355750D01*
X141522440Y-122320000D01*
X141497316Y-122193691D01*
X144240000Y-122193691D01*
X144240000Y-122784250D01*
X144398750Y-122943000D01*
X145248000Y-122943000D01*
X145248000Y-121843750D01*
X145502000Y-121843750D01*
X145502000Y-122943000D01*
X146351250Y-122943000D01*
X146510000Y-122784250D01*
X146510000Y-122193691D01*
X146413327Y-121960302D01*
X146234699Y-121781673D01*
X146001310Y-121685000D01*
X145660750Y-121685000D01*
X145502000Y-121843750D01*
X145248000Y-121843750D01*
X145089250Y-121685000D01*
X144748690Y-121685000D01*
X144515301Y-121781673D01*
X144336673Y-121960302D01*
X144240000Y-122193691D01*
X141497316Y-122193691D01*
X141473157Y-122072235D01*
X141332809Y-121862191D01*
X141122765Y-121721843D01*
X140875000Y-121672560D01*
X139875000Y-121672560D01*
X139627235Y-121721843D01*
X139417191Y-121862191D01*
X139276843Y-122072235D01*
X139227560Y-122320000D01*
X110259000Y-122320000D01*
X110259000Y-119780000D01*
X152562560Y-119780000D01*
X152562560Y-121280000D01*
X152611843Y-121527765D01*
X152752191Y-121737809D01*
X152962235Y-121878157D01*
X153210000Y-121927440D01*
X154210000Y-121927440D01*
X154457765Y-121878157D01*
X154667809Y-121737809D01*
X154808157Y-121527765D01*
X154857440Y-121280000D01*
X154857440Y-120815750D01*
X157575000Y-120815750D01*
X157575000Y-121406309D01*
X157671673Y-121639698D01*
X157850301Y-121818327D01*
X158083690Y-121915000D01*
X158424250Y-121915000D01*
X158583000Y-121756250D01*
X158583000Y-120657000D01*
X157733750Y-120657000D01*
X157575000Y-120815750D01*
X154857440Y-120815750D01*
X154857440Y-119780000D01*
X154832316Y-119653691D01*
X157575000Y-119653691D01*
X157575000Y-120244250D01*
X157733750Y-120403000D01*
X158583000Y-120403000D01*
X158583000Y-119303750D01*
X158424250Y-119145000D01*
X158083690Y-119145000D01*
X157850301Y-119241673D01*
X157671673Y-119420302D01*
X157575000Y-119653691D01*
X154832316Y-119653691D01*
X154808157Y-119532235D01*
X154667809Y-119322191D01*
X154457765Y-119181843D01*
X154210000Y-119132560D01*
X153210000Y-119132560D01*
X152962235Y-119181843D01*
X152752191Y-119322191D01*
X152611843Y-119532235D01*
X152562560Y-119780000D01*
X110259000Y-119780000D01*
X110259000Y-69801684D01*
X110213454Y-69572708D01*
X110039953Y-69313047D01*
X109780291Y-69139546D01*
X109474000Y-69078621D01*
X109167708Y-69139546D01*
X108908047Y-69313047D01*
X108734546Y-69572709D01*
X108689000Y-69801685D01*
X108689001Y-119937680D01*
X108689000Y-119937685D01*
X108689001Y-120515408D01*
X108689000Y-125557963D01*
X108238999Y-125107962D01*
X108238999Y-62261417D01*
X108510291Y-62207454D01*
X108769953Y-62033953D01*
X108943454Y-61774292D01*
X108989000Y-61545316D01*
X108989000Y-60876711D01*
X109081431Y-60784280D01*
X109239000Y-60403874D01*
X109239000Y-60273157D01*
X109720411Y-59791747D01*
X109785953Y-59747953D01*
X109829747Y-59682411D01*
X109829749Y-59682409D01*
X109959454Y-59488292D01*
X109974340Y-59413454D01*
X110005000Y-59259316D01*
X110005000Y-59259312D01*
X110020378Y-59182000D01*
X110005000Y-59104688D01*
X110005000Y-58547000D01*
X111760000Y-58547000D01*
X111808601Y-58537333D01*
X111849803Y-58509803D01*
X111877333Y-58468601D01*
X111887000Y-58420000D01*
X111887000Y-53806497D01*
X112255109Y-54052460D01*
X112450485Y-54091323D01*
X112464990Y-54164246D01*
X112464989Y-115922677D01*
X112449611Y-115999989D01*
X112464989Y-116077301D01*
X112464989Y-116077304D01*
X112510535Y-116306280D01*
X112684036Y-116565942D01*
X112749581Y-116609738D01*
X113452560Y-117312717D01*
X113452560Y-118250000D01*
X113501843Y-118497765D01*
X113642191Y-118707809D01*
X113852235Y-118848157D01*
X114100000Y-118897440D01*
X115600000Y-118897440D01*
X115847765Y-118848157D01*
X116057809Y-118707809D01*
X116198157Y-118497765D01*
X116247440Y-118250000D01*
X116247440Y-117835750D01*
X125065000Y-117835750D01*
X125065000Y-118376309D01*
X125161673Y-118609698D01*
X125340301Y-118788327D01*
X125573690Y-118885000D01*
X126164250Y-118885000D01*
X126323000Y-118726250D01*
X126323000Y-117677000D01*
X126577000Y-117677000D01*
X126577000Y-118726250D01*
X126735750Y-118885000D01*
X127326310Y-118885000D01*
X127559699Y-118788327D01*
X127738327Y-118609698D01*
X127835000Y-118376309D01*
X127835000Y-117835750D01*
X127676250Y-117677000D01*
X126577000Y-117677000D01*
X126323000Y-117677000D01*
X125223750Y-117677000D01*
X125065000Y-117835750D01*
X116247440Y-117835750D01*
X116247440Y-116850000D01*
X116198157Y-116602235D01*
X116057809Y-116392191D01*
X115985876Y-116344126D01*
X117365000Y-116344126D01*
X117365000Y-116755874D01*
X117522569Y-117136280D01*
X117813720Y-117427431D01*
X118194126Y-117585000D01*
X118605874Y-117585000D01*
X118986280Y-117427431D01*
X119277431Y-117136280D01*
X119435000Y-116755874D01*
X119435000Y-116344126D01*
X121865000Y-116344126D01*
X121865000Y-116755874D01*
X122022569Y-117136280D01*
X122313720Y-117427431D01*
X122694126Y-117585000D01*
X123105874Y-117585000D01*
X123486280Y-117427431D01*
X123777431Y-117136280D01*
X123935000Y-116755874D01*
X123935000Y-116723691D01*
X125065000Y-116723691D01*
X125065000Y-117264250D01*
X125223750Y-117423000D01*
X126323000Y-117423000D01*
X126323000Y-116373750D01*
X126577000Y-116373750D01*
X126577000Y-117423000D01*
X127676250Y-117423000D01*
X127835000Y-117264250D01*
X127835000Y-116723691D01*
X127738327Y-116490302D01*
X127559699Y-116311673D01*
X127326310Y-116215000D01*
X126735750Y-116215000D01*
X126577000Y-116373750D01*
X126323000Y-116373750D01*
X126164250Y-116215000D01*
X125573690Y-116215000D01*
X125340301Y-116311673D01*
X125161673Y-116490302D01*
X125065000Y-116723691D01*
X123935000Y-116723691D01*
X123935000Y-116344126D01*
X123777431Y-115963720D01*
X123486280Y-115672569D01*
X123105874Y-115515000D01*
X122694126Y-115515000D01*
X122313720Y-115672569D01*
X122022569Y-115963720D01*
X121865000Y-116344126D01*
X119435000Y-116344126D01*
X119277431Y-115963720D01*
X118986280Y-115672569D01*
X118605874Y-115515000D01*
X118194126Y-115515000D01*
X117813720Y-115672569D01*
X117522569Y-115963720D01*
X117365000Y-116344126D01*
X115985876Y-116344126D01*
X115847765Y-116251843D01*
X115600000Y-116202560D01*
X114562717Y-116202560D01*
X114407597Y-116047440D01*
X115550000Y-116047440D01*
X115797765Y-115998157D01*
X116007809Y-115857809D01*
X116148157Y-115647765D01*
X116197440Y-115400000D01*
X116197440Y-114100000D01*
X116148157Y-113852235D01*
X116007809Y-113642191D01*
X115797765Y-113501843D01*
X115563793Y-113455304D01*
X115544711Y-113426746D01*
X115459749Y-113299591D01*
X115459747Y-113299589D01*
X115415953Y-113234047D01*
X115350411Y-113190253D01*
X114557597Y-112397440D01*
X115600000Y-112397440D01*
X115847765Y-112348157D01*
X116057809Y-112207809D01*
X116198157Y-111997765D01*
X116247440Y-111750000D01*
X116247440Y-110762717D01*
X118356411Y-108653747D01*
X118421953Y-108609953D01*
X118465747Y-108544411D01*
X118465749Y-108544409D01*
X118595454Y-108350292D01*
X118595454Y-108350291D01*
X118641000Y-108121316D01*
X118641000Y-108121312D01*
X118656378Y-108044000D01*
X118641000Y-107966688D01*
X118641000Y-87458000D01*
X124366560Y-87458000D01*
X124366560Y-89258000D01*
X124415843Y-89505765D01*
X124556191Y-89715809D01*
X124766235Y-89856157D01*
X125014000Y-89905440D01*
X127214000Y-89905440D01*
X127461765Y-89856157D01*
X127671809Y-89715809D01*
X127812157Y-89505765D01*
X127861440Y-89258000D01*
X127861440Y-87458000D01*
X127812157Y-87210235D01*
X127671809Y-87000191D01*
X127461765Y-86859843D01*
X127214000Y-86810560D01*
X125014000Y-86810560D01*
X124766235Y-86859843D01*
X124556191Y-87000191D01*
X124415843Y-87210235D01*
X124366560Y-87458000D01*
X118641000Y-87458000D01*
X118641000Y-58999157D01*
X120896411Y-56743747D01*
X120961953Y-56699953D01*
X121005747Y-56634411D01*
X121005749Y-56634409D01*
X121135453Y-56440293D01*
X121135454Y-56440292D01*
X121181000Y-56211316D01*
X121181000Y-56211312D01*
X121196378Y-56134001D01*
X121181000Y-56056690D01*
X121181000Y-55813960D01*
X121353809Y-55698492D01*
X121494157Y-55488448D01*
X121543440Y-55240683D01*
X121543440Y-53480588D01*
X121653542Y-53315809D01*
X121666000Y-53253178D01*
X121678458Y-53315808D01*
X121973519Y-53757398D01*
X122415109Y-54052460D01*
X122936000Y-54156072D01*
X123456890Y-54052460D01*
X123898480Y-53757399D01*
X124193542Y-53315809D01*
X124206000Y-53253178D01*
X124218458Y-53315808D01*
X124328560Y-53480587D01*
X124328560Y-55240683D01*
X124377843Y-55488448D01*
X124518191Y-55698492D01*
X124728235Y-55838840D01*
X124976000Y-55888123D01*
X125976000Y-55888123D01*
X126223765Y-55838840D01*
X126433809Y-55698492D01*
X126574157Y-55488448D01*
X126623440Y-55240683D01*
X126623440Y-53480588D01*
X126733542Y-53315809D01*
X126746000Y-53253178D01*
X126758458Y-53315808D01*
X127053519Y-53757398D01*
X127495109Y-54052460D01*
X128016000Y-54156072D01*
X128536890Y-54052460D01*
X128570999Y-54029669D01*
X128571000Y-79200843D01*
X127577085Y-78206928D01*
X127533289Y-78141383D01*
X127273628Y-77967882D01*
X127044652Y-77922336D01*
X127044648Y-77922336D01*
X126967336Y-77906958D01*
X126890024Y-77922336D01*
X125447310Y-77922336D01*
X125369999Y-77906958D01*
X125292688Y-77922336D01*
X125292684Y-77922336D01*
X125063708Y-77967882D01*
X124966253Y-78033000D01*
X124869591Y-78097587D01*
X124869589Y-78097589D01*
X124804047Y-78141383D01*
X124760253Y-78206925D01*
X124294179Y-78673000D01*
X124145400Y-78673000D01*
X124056344Y-78458000D01*
X124149000Y-78234309D01*
X124149000Y-78181691D01*
X124056344Y-77958000D01*
X124149000Y-77734309D01*
X124149000Y-77681691D01*
X124056344Y-77458000D01*
X124149000Y-77234309D01*
X124149000Y-77181691D01*
X124056344Y-76958000D01*
X124149000Y-76734309D01*
X124149000Y-76681691D01*
X124056344Y-76458000D01*
X124149000Y-76234309D01*
X124149000Y-76181691D01*
X124056344Y-75958000D01*
X124149000Y-75734309D01*
X124149000Y-75681691D01*
X124056344Y-75458000D01*
X124149000Y-75234309D01*
X124149000Y-75181691D01*
X124056344Y-74958000D01*
X124149000Y-74734309D01*
X124149000Y-74681691D01*
X124056344Y-74458000D01*
X124149000Y-74234309D01*
X124149000Y-74181691D01*
X124056344Y-73958000D01*
X124149000Y-73734309D01*
X124149000Y-73681691D01*
X124056344Y-73458000D01*
X124149000Y-73234309D01*
X124149000Y-73181691D01*
X124056344Y-72958000D01*
X124149000Y-72734309D01*
X124149000Y-72681691D01*
X124056344Y-72458000D01*
X124149000Y-72234309D01*
X124149000Y-72181691D01*
X124056344Y-71958000D01*
X124149000Y-71734309D01*
X124149000Y-71681691D01*
X124056344Y-71458000D01*
X124149000Y-71234309D01*
X124149000Y-71181691D01*
X124052327Y-70948302D01*
X124051127Y-70947102D01*
X124112157Y-70855765D01*
X124135664Y-70737586D01*
X124149000Y-70724250D01*
X124149000Y-70681691D01*
X124147502Y-70678074D01*
X124161440Y-70608000D01*
X124161440Y-70308000D01*
X124147502Y-70237926D01*
X124149000Y-70234309D01*
X124149000Y-70191750D01*
X124135664Y-70178414D01*
X124112157Y-70060235D01*
X124051127Y-69968898D01*
X124052327Y-69967698D01*
X124149000Y-69734309D01*
X124149000Y-69681691D01*
X124056344Y-69458000D01*
X124149000Y-69234309D01*
X124149000Y-69181691D01*
X124056344Y-68958000D01*
X124149000Y-68734309D01*
X124149000Y-68681691D01*
X124056344Y-68458000D01*
X124149000Y-68234309D01*
X124149000Y-68181691D01*
X124052327Y-67948302D01*
X124051127Y-67947102D01*
X124112157Y-67855765D01*
X124135664Y-67737586D01*
X124149000Y-67724250D01*
X124149000Y-67681691D01*
X124147502Y-67678074D01*
X124161440Y-67608000D01*
X124161440Y-67308000D01*
X124141549Y-67208000D01*
X124161440Y-67108000D01*
X124161440Y-66808000D01*
X124112157Y-66560235D01*
X123971809Y-66350191D01*
X123761765Y-66209843D01*
X123649000Y-66187413D01*
X123649000Y-64158000D01*
X124366560Y-64158000D01*
X124366560Y-65958000D01*
X124415843Y-66205765D01*
X124556191Y-66415809D01*
X124764610Y-66555071D01*
X124695000Y-66723126D01*
X124695000Y-67134874D01*
X124852569Y-67515280D01*
X125143720Y-67806431D01*
X125524126Y-67964000D01*
X125935874Y-67964000D01*
X126316280Y-67806431D01*
X126607431Y-67515280D01*
X126765000Y-67134874D01*
X126765000Y-66723126D01*
X126716253Y-66605440D01*
X127214000Y-66605440D01*
X127461765Y-66556157D01*
X127671809Y-66415809D01*
X127812157Y-66205765D01*
X127861440Y-65958000D01*
X127861440Y-64158000D01*
X127812157Y-63910235D01*
X127671809Y-63700191D01*
X127461765Y-63559843D01*
X127214000Y-63510560D01*
X125014000Y-63510560D01*
X124766235Y-63559843D01*
X124556191Y-63700191D01*
X124415843Y-63910235D01*
X124366560Y-64158000D01*
X123649000Y-64158000D01*
X123649000Y-63870041D01*
X123717000Y-63705874D01*
X123717000Y-63294126D01*
X123559431Y-62913720D01*
X123268280Y-62622569D01*
X122887874Y-62465000D01*
X122476126Y-62465000D01*
X122095720Y-62622569D01*
X121804569Y-62913720D01*
X121647000Y-63294126D01*
X121647000Y-63705874D01*
X121804569Y-64086280D01*
X122079001Y-64360712D01*
X122079000Y-66187413D01*
X121966235Y-66209843D01*
X121756191Y-66350191D01*
X121615843Y-66560235D01*
X121606963Y-66604879D01*
X119995592Y-68216251D01*
X119930047Y-68260047D01*
X119886251Y-68325592D01*
X119804259Y-68448302D01*
X119756546Y-68519709D01*
X119711000Y-68748685D01*
X119711000Y-68748688D01*
X119695622Y-68826000D01*
X119711000Y-68903312D01*
X119711001Y-70132842D01*
X119625614Y-70218229D01*
X119560069Y-70262025D01*
X119516273Y-70327570D01*
X119513480Y-70331750D01*
X119386568Y-70521687D01*
X119341022Y-70750663D01*
X119341022Y-70750666D01*
X119325644Y-70827978D01*
X119341022Y-70905290D01*
X119341023Y-80424705D01*
X119325644Y-80502022D01*
X119386568Y-80808313D01*
X119516273Y-81002430D01*
X119516276Y-81002433D01*
X119560070Y-81067975D01*
X119625612Y-81111769D01*
X119797001Y-81283158D01*
X119797000Y-82048688D01*
X119781622Y-82126000D01*
X119797000Y-82203312D01*
X119797000Y-82203315D01*
X119842546Y-82432291D01*
X120016047Y-82691953D01*
X120081592Y-82735749D01*
X121304253Y-83958411D01*
X121348047Y-84023953D01*
X121413589Y-84067747D01*
X121413591Y-84067749D01*
X121473831Y-84108000D01*
X121580109Y-84179013D01*
X121579000Y-84181691D01*
X121579000Y-84224250D01*
X121592336Y-84237586D01*
X121615843Y-84355765D01*
X121684155Y-84458000D01*
X121615843Y-84560235D01*
X121592336Y-84678414D01*
X121579000Y-84691750D01*
X121579000Y-84734309D01*
X121580498Y-84737926D01*
X121566560Y-84808000D01*
X121566560Y-85108000D01*
X121586451Y-85208000D01*
X121566560Y-85308000D01*
X121566560Y-85608000D01*
X121586451Y-85708000D01*
X121566560Y-85808000D01*
X121566560Y-86108000D01*
X121586451Y-86208000D01*
X121566560Y-86308000D01*
X121566560Y-86608000D01*
X121615843Y-86855765D01*
X121756191Y-87065809D01*
X121966235Y-87206157D01*
X122214000Y-87255440D01*
X123514000Y-87255440D01*
X123761765Y-87206157D01*
X123971809Y-87065809D01*
X124112157Y-86855765D01*
X124161440Y-86608000D01*
X124161440Y-86308000D01*
X124141549Y-86208000D01*
X124161440Y-86108000D01*
X124161440Y-85808000D01*
X124141549Y-85708000D01*
X124161440Y-85608000D01*
X124161440Y-85308000D01*
X124141549Y-85208000D01*
X124161440Y-85108000D01*
X124161440Y-84808000D01*
X124147502Y-84737926D01*
X124149000Y-84734309D01*
X124149000Y-84691750D01*
X124135664Y-84678414D01*
X124112157Y-84560235D01*
X124043845Y-84458000D01*
X124112157Y-84355765D01*
X124135664Y-84237586D01*
X124149000Y-84224250D01*
X124149000Y-84181691D01*
X124147502Y-84178074D01*
X124161440Y-84108000D01*
X124161440Y-83808000D01*
X124141549Y-83708000D01*
X124161440Y-83608000D01*
X124161440Y-83308000D01*
X124148511Y-83243000D01*
X128296688Y-83243000D01*
X128374000Y-83258378D01*
X128451312Y-83243000D01*
X128451316Y-83243000D01*
X128587055Y-83216000D01*
X128856874Y-83216000D01*
X129237280Y-83058431D01*
X129528431Y-82767280D01*
X129538723Y-82742434D01*
X129715720Y-82919431D01*
X130096126Y-83077000D01*
X130267001Y-83077000D01*
X130267002Y-104042839D01*
X124849591Y-109460250D01*
X124784046Y-109504046D01*
X124610545Y-109763708D01*
X124564999Y-109992684D01*
X124564999Y-109992687D01*
X124549621Y-110069999D01*
X124564999Y-110147311D01*
X124565000Y-112622682D01*
X124549621Y-112699999D01*
X124610545Y-113006290D01*
X124740250Y-113200407D01*
X124740253Y-113200410D01*
X124784047Y-113265952D01*
X124849589Y-113309746D01*
X125248068Y-113708225D01*
X125151843Y-113852235D01*
X125102560Y-114100000D01*
X125102560Y-115400000D01*
X125151843Y-115647765D01*
X125292191Y-115857809D01*
X125502235Y-115998157D01*
X125750000Y-116047440D01*
X127150000Y-116047440D01*
X127397765Y-115998157D01*
X127607809Y-115857809D01*
X127748157Y-115647765D01*
X127797440Y-115400000D01*
X127797440Y-114100000D01*
X127748157Y-113852235D01*
X127607809Y-113642191D01*
X127397765Y-113501843D01*
X127163793Y-113455304D01*
X127144711Y-113426746D01*
X127059749Y-113299591D01*
X127059747Y-113299589D01*
X127015953Y-113234047D01*
X126950411Y-113190253D01*
X126157597Y-112397440D01*
X127200000Y-112397440D01*
X127447765Y-112348157D01*
X127657809Y-112207809D01*
X127798157Y-111997765D01*
X127847440Y-111750000D01*
X127847440Y-110350000D01*
X127798157Y-110102235D01*
X127681905Y-109928252D01*
X130290157Y-107320000D01*
X139227560Y-107320000D01*
X139227560Y-108820000D01*
X139276843Y-109067765D01*
X139417191Y-109277809D01*
X139627235Y-109418157D01*
X139875000Y-109467440D01*
X140875000Y-109467440D01*
X141122765Y-109418157D01*
X141332809Y-109277809D01*
X141473157Y-109067765D01*
X141522440Y-108820000D01*
X141522440Y-108355750D01*
X144240000Y-108355750D01*
X144240000Y-108946309D01*
X144336673Y-109179698D01*
X144515301Y-109358327D01*
X144748690Y-109455000D01*
X145089250Y-109455000D01*
X145248000Y-109296250D01*
X145248000Y-108197000D01*
X145502000Y-108197000D01*
X145502000Y-109296250D01*
X145660750Y-109455000D01*
X146001310Y-109455000D01*
X146234699Y-109358327D01*
X146413327Y-109179698D01*
X146510000Y-108946309D01*
X146510000Y-108355750D01*
X146351250Y-108197000D01*
X145502000Y-108197000D01*
X145248000Y-108197000D01*
X144398750Y-108197000D01*
X144240000Y-108355750D01*
X141522440Y-108355750D01*
X141522440Y-107320000D01*
X141497316Y-107193691D01*
X144240000Y-107193691D01*
X144240000Y-107784250D01*
X144398750Y-107943000D01*
X145248000Y-107943000D01*
X145248000Y-106843750D01*
X145502000Y-106843750D01*
X145502000Y-107943000D01*
X146351250Y-107943000D01*
X146510000Y-107784250D01*
X146510000Y-107193691D01*
X146413327Y-106960302D01*
X146234699Y-106781673D01*
X146001310Y-106685000D01*
X145660750Y-106685000D01*
X145502000Y-106843750D01*
X145248000Y-106843750D01*
X145089250Y-106685000D01*
X144748690Y-106685000D01*
X144515301Y-106781673D01*
X144336673Y-106960302D01*
X144240000Y-107193691D01*
X141497316Y-107193691D01*
X141473157Y-107072235D01*
X141332809Y-106862191D01*
X141122765Y-106721843D01*
X140875000Y-106672560D01*
X139875000Y-106672560D01*
X139627235Y-106721843D01*
X139417191Y-106862191D01*
X139276843Y-107072235D01*
X139227560Y-107320000D01*
X130290157Y-107320000D01*
X132830157Y-104780000D01*
X152562560Y-104780000D01*
X152562560Y-106280000D01*
X152611843Y-106527765D01*
X152752191Y-106737809D01*
X152962235Y-106878157D01*
X153210000Y-106927440D01*
X154210000Y-106927440D01*
X154457765Y-106878157D01*
X154667809Y-106737809D01*
X154808157Y-106527765D01*
X154857440Y-106280000D01*
X154857440Y-105815750D01*
X157575000Y-105815750D01*
X157575000Y-106406309D01*
X157671673Y-106639698D01*
X157850301Y-106818327D01*
X158083690Y-106915000D01*
X158424250Y-106915000D01*
X158583000Y-106756250D01*
X158583000Y-105657000D01*
X158837000Y-105657000D01*
X158837000Y-106756250D01*
X158995750Y-106915000D01*
X159336310Y-106915000D01*
X159569699Y-106818327D01*
X159748327Y-106639698D01*
X159845000Y-106406309D01*
X159845000Y-105815750D01*
X159686250Y-105657000D01*
X158837000Y-105657000D01*
X158583000Y-105657000D01*
X157733750Y-105657000D01*
X157575000Y-105815750D01*
X154857440Y-105815750D01*
X154857440Y-104780000D01*
X154832316Y-104653691D01*
X157575000Y-104653691D01*
X157575000Y-105244250D01*
X157733750Y-105403000D01*
X158583000Y-105403000D01*
X158583000Y-104303750D01*
X158837000Y-104303750D01*
X158837000Y-105403000D01*
X159686250Y-105403000D01*
X159845000Y-105244250D01*
X159845000Y-104653691D01*
X159748327Y-104420302D01*
X159569699Y-104241673D01*
X159336310Y-104145000D01*
X158995750Y-104145000D01*
X158837000Y-104303750D01*
X158583000Y-104303750D01*
X158424250Y-104145000D01*
X158083690Y-104145000D01*
X157850301Y-104241673D01*
X157671673Y-104420302D01*
X157575000Y-104653691D01*
X154832316Y-104653691D01*
X154808157Y-104532235D01*
X154667809Y-104322191D01*
X154457765Y-104181843D01*
X154210000Y-104132560D01*
X153210000Y-104132560D01*
X152962235Y-104181843D01*
X152752191Y-104322191D01*
X152611843Y-104532235D01*
X152562560Y-104780000D01*
X132830157Y-104780000D01*
X140016410Y-97593748D01*
X140081952Y-97549954D01*
X140125746Y-97484412D01*
X140125748Y-97484410D01*
X140255453Y-97290293D01*
X140255453Y-97290292D01*
X140300999Y-97061317D01*
X140300999Y-97061313D01*
X140316377Y-96984001D01*
X140300999Y-96906689D01*
X140300999Y-83124150D01*
X147971000Y-83124150D01*
X147971000Y-83216709D01*
X148067673Y-83450098D01*
X148246301Y-83628727D01*
X148479690Y-83725400D01*
X149320250Y-83725400D01*
X149479000Y-83566650D01*
X149479000Y-82965400D01*
X149733000Y-82965400D01*
X149733000Y-83566650D01*
X149891750Y-83725400D01*
X150732310Y-83725400D01*
X150965699Y-83628727D01*
X151144327Y-83450098D01*
X151241000Y-83216709D01*
X151241000Y-83124150D01*
X151082250Y-82965400D01*
X149733000Y-82965400D01*
X149479000Y-82965400D01*
X148129750Y-82965400D01*
X147971000Y-83124150D01*
X140300999Y-83124150D01*
X140300999Y-71110004D01*
X140510126Y-71196627D01*
X140552070Y-71196627D01*
X146261561Y-76906118D01*
X146098720Y-76973569D01*
X145807569Y-77264720D01*
X145697239Y-77531080D01*
X145180000Y-77013841D01*
X145180000Y-76883124D01*
X145022431Y-76502718D01*
X144731280Y-76211567D01*
X144350874Y-76053998D01*
X143939126Y-76053998D01*
X143558720Y-76211567D01*
X143267569Y-76502718D01*
X143110000Y-76883124D01*
X143110000Y-77294872D01*
X143267569Y-77675278D01*
X143558720Y-77966429D01*
X143939126Y-78123998D01*
X144069843Y-78123998D01*
X146086655Y-80140811D01*
X146130449Y-80206353D01*
X146195991Y-80250147D01*
X146195993Y-80250149D01*
X146293648Y-80315400D01*
X146390110Y-80379854D01*
X146619086Y-80425400D01*
X146619090Y-80425400D01*
X146696401Y-80440778D01*
X146773712Y-80425400D01*
X146964889Y-80425400D01*
X146696569Y-80693720D01*
X146559461Y-81024729D01*
X146225720Y-81162969D01*
X145934569Y-81454120D01*
X145777000Y-81834526D01*
X145777000Y-82246274D01*
X145934569Y-82626680D01*
X146225720Y-82917831D01*
X146606126Y-83075400D01*
X147017874Y-83075400D01*
X147398280Y-82917831D01*
X147490711Y-82825400D01*
X148355119Y-82825400D01*
X148435400Y-82879042D01*
X148731000Y-82937840D01*
X150481000Y-82937840D01*
X150776600Y-82879042D01*
X150888064Y-82804564D01*
X151012292Y-82779854D01*
X151271953Y-82606353D01*
X151315749Y-82540808D01*
X157980408Y-75876149D01*
X158045953Y-75832353D01*
X158219454Y-75572692D01*
X158265000Y-75343716D01*
X158265000Y-75343712D01*
X158280378Y-75266400D01*
X158265000Y-75189088D01*
X158265000Y-62307312D01*
X158280378Y-62230000D01*
X158265000Y-62152688D01*
X158265000Y-62152684D01*
X158219454Y-61923708D01*
X158045953Y-61664047D01*
X157980408Y-61620251D01*
X157753000Y-61392843D01*
X157753000Y-61262126D01*
X157595431Y-60881720D01*
X157304280Y-60590569D01*
X156923874Y-60433000D01*
X156741000Y-60433000D01*
X156741000Y-55813960D01*
X156913809Y-55698492D01*
X157054157Y-55488448D01*
X157103440Y-55240683D01*
X157103440Y-53480588D01*
X157161000Y-53394443D01*
X157161000Y-53621227D01*
X157257673Y-53854616D01*
X157436301Y-54033245D01*
X157669690Y-54129918D01*
X158210250Y-54129918D01*
X158369000Y-53971168D01*
X158369000Y-53779918D01*
X158623000Y-53779918D01*
X158623000Y-53971168D01*
X158781750Y-54129918D01*
X159322310Y-54129918D01*
X159555699Y-54033245D01*
X159734327Y-53854616D01*
X159831000Y-53621227D01*
X159831000Y-52930668D01*
X159672250Y-52771918D01*
X159631000Y-52771918D01*
X159631000Y-52517918D01*
X159672250Y-52517918D01*
X159831000Y-52359168D01*
X159831000Y-51668609D01*
X159734327Y-51435220D01*
X159631000Y-51331892D01*
X159631000Y-51276433D01*
X159472250Y-51117683D01*
X158623000Y-51117683D01*
X158623000Y-51137683D01*
X158369000Y-51137683D01*
X158369000Y-51117683D01*
X157519750Y-51117683D01*
X157361000Y-51276433D01*
X157361000Y-51331892D01*
X157257673Y-51435220D01*
X157161000Y-51668609D01*
X157161000Y-51895393D01*
X156918481Y-51532437D01*
X156476891Y-51237376D01*
X155956000Y-51133764D01*
X155435110Y-51237376D01*
X154993520Y-51532437D01*
X154698458Y-51974027D01*
X154686000Y-52036658D01*
X154673542Y-51974028D01*
X154563440Y-51809248D01*
X154563440Y-50040683D01*
X154538316Y-49914374D01*
X157361000Y-49914374D01*
X157361000Y-50704933D01*
X157519750Y-50863683D01*
X158369000Y-50863683D01*
X158369000Y-49564433D01*
X158623000Y-49564433D01*
X158623000Y-50863683D01*
X159472250Y-50863683D01*
X159631000Y-50704933D01*
X159631000Y-49914374D01*
X159534327Y-49680985D01*
X159355699Y-49502356D01*
X159122310Y-49405683D01*
X158781750Y-49405683D01*
X158623000Y-49564433D01*
X158369000Y-49564433D01*
X158210250Y-49405683D01*
X157869690Y-49405683D01*
X157636301Y-49502356D01*
X157457673Y-49680985D01*
X157361000Y-49914374D01*
X154538316Y-49914374D01*
X154514157Y-49792918D01*
X154373809Y-49582874D01*
X154163765Y-49442526D01*
X153916000Y-49393243D01*
X152916000Y-49393243D01*
X152668235Y-49442526D01*
X152458191Y-49582874D01*
X152317843Y-49792918D01*
X152268560Y-50040683D01*
X152268560Y-51809248D01*
X152158458Y-51974027D01*
X152146000Y-52036658D01*
X152133542Y-51974028D01*
X151838481Y-51532437D01*
X151396891Y-51237376D01*
X150876000Y-51133764D01*
X150355110Y-51237376D01*
X149913520Y-51532437D01*
X149618458Y-51974027D01*
X149606000Y-52036658D01*
X149593542Y-51974028D01*
X149483440Y-51809248D01*
X149483440Y-50040683D01*
X149434157Y-49792918D01*
X149293809Y-49582874D01*
X149083765Y-49442526D01*
X148836000Y-49393243D01*
X147836000Y-49393243D01*
X147588235Y-49442526D01*
X147378191Y-49582874D01*
X147237843Y-49792918D01*
X147188560Y-50040683D01*
X147188560Y-51809248D01*
X147078458Y-51974027D01*
X147066000Y-52036658D01*
X147053542Y-51974028D01*
X146758481Y-51532437D01*
X146316891Y-51237376D01*
X145796000Y-51133764D01*
X145380999Y-51216313D01*
X145380999Y-44654311D01*
X145396377Y-44576999D01*
X145380999Y-44499685D01*
X145380999Y-44499684D01*
X145335453Y-44270708D01*
X145205748Y-44076591D01*
X145205746Y-44076589D01*
X145161952Y-44011047D01*
X145096410Y-43967253D01*
X141701117Y-40571961D01*
X141929416Y-40419416D01*
X142113000Y-40144664D01*
X142296584Y-40419416D01*
X142585706Y-40612602D01*
X142926750Y-40680440D01*
X143839250Y-40680440D01*
X144180294Y-40612602D01*
X144469416Y-40419416D01*
X144495419Y-40380500D01*
X144810581Y-40380500D01*
X144836584Y-40419416D01*
X145125706Y-40612602D01*
X145466750Y-40680440D01*
X146379250Y-40680440D01*
X146720294Y-40612602D01*
X147009416Y-40419416D01*
X147202602Y-40130294D01*
X147258229Y-39850638D01*
X149528560Y-37580308D01*
X149528560Y-37914250D01*
X149528560Y-37914250D01*
G37*
X149528560Y-37914250D02*
X149596398Y-38255294D01*
X149789584Y-38544416D01*
X149884744Y-38608000D01*
X149789584Y-38671584D01*
X149596398Y-38960706D01*
X149528560Y-39301750D01*
X149528560Y-39789250D01*
X149596398Y-40130294D01*
X149789584Y-40419416D01*
X150078706Y-40612602D01*
X150419750Y-40680440D01*
X151332250Y-40680440D01*
X151542468Y-40638625D01*
X159893000Y-48989157D01*
X159893000Y-58420000D01*
X159902667Y-58468601D01*
X159930197Y-58509803D01*
X159971399Y-58537333D01*
X160020000Y-58547000D01*
X160632000Y-58547000D01*
X160632001Y-103931692D01*
X160597047Y-103955047D01*
X160423546Y-104214709D01*
X160362622Y-104521000D01*
X160423546Y-104827291D01*
X160553251Y-105021408D01*
X160632001Y-105100158D01*
X160632001Y-119394956D01*
X160453291Y-119275546D01*
X160147000Y-119214622D01*
X159840709Y-119275546D01*
X159698555Y-119370530D01*
X159569699Y-119241673D01*
X159336310Y-119145000D01*
X158995750Y-119145000D01*
X158837000Y-119303750D01*
X158837000Y-120403000D01*
X158857000Y-120403000D01*
X158857000Y-120657000D01*
X158837000Y-120657000D01*
X158837000Y-121756250D01*
X158995750Y-121915000D01*
X159336310Y-121915000D01*
X159569699Y-121818327D01*
X159748327Y-121639698D01*
X159845000Y-121406309D01*
X159845000Y-120823157D01*
X163640252Y-124618409D01*
X164599591Y-125577749D01*
X164793708Y-125707454D01*
X165099999Y-125768378D01*
X165406291Y-125707454D01*
X165530596Y-125624396D01*
X165807375Y-126038625D01*
X166126478Y-126251843D01*
X165996642Y-126312817D01*
X165606355Y-126741076D01*
X165436524Y-127151110D01*
X165557845Y-127381000D01*
X166751000Y-127381000D01*
X166751000Y-127361000D01*
X167005000Y-127361000D01*
X167005000Y-127381000D01*
X167025000Y-127381000D01*
X167025000Y-127635000D01*
X167005000Y-127635000D01*
X167005000Y-127655000D01*
X166751000Y-127655000D01*
X166751000Y-127635000D01*
X165557845Y-127635000D01*
X165436524Y-127864890D01*
X165606355Y-128274924D01*
X165996642Y-128703183D01*
X166112653Y-128757665D01*
X166036815Y-128789078D01*
X165619078Y-129206815D01*
X165393000Y-129752615D01*
X165393000Y-130025000D01*
X129871311Y-130025000D01*
X129863630Y-130023472D01*
X126085749Y-126245592D01*
X126041953Y-126180047D01*
X125782292Y-126006546D01*
X125553316Y-125961000D01*
X125553312Y-125961000D01*
X125476000Y-125945622D01*
X125398688Y-125961000D01*
X110259000Y-125961000D01*
X110259000Y-122320000D01*
X139227560Y-122320000D01*
X139227560Y-123820000D01*
X139276843Y-124067765D01*
X139417191Y-124277809D01*
X139627235Y-124418157D01*
X139875000Y-124467440D01*
X140875000Y-124467440D01*
X141122765Y-124418157D01*
X141332809Y-124277809D01*
X141473157Y-124067765D01*
X141522440Y-123820000D01*
X141522440Y-123355750D01*
X144240000Y-123355750D01*
X144240000Y-123946309D01*
X144336673Y-124179698D01*
X144515301Y-124358327D01*
X144748690Y-124455000D01*
X145089250Y-124455000D01*
X145248000Y-124296250D01*
X145248000Y-123197000D01*
X145502000Y-123197000D01*
X145502000Y-124296250D01*
X145660750Y-124455000D01*
X146001310Y-124455000D01*
X146234699Y-124358327D01*
X146413327Y-124179698D01*
X146510000Y-123946309D01*
X146510000Y-123355750D01*
X146351250Y-123197000D01*
X145502000Y-123197000D01*
X145248000Y-123197000D01*
X144398750Y-123197000D01*
X144240000Y-123355750D01*
X141522440Y-123355750D01*
X141522440Y-122320000D01*
X141497316Y-122193691D01*
X144240000Y-122193691D01*
X144240000Y-122784250D01*
X144398750Y-122943000D01*
X145248000Y-122943000D01*
X145248000Y-121843750D01*
X145502000Y-121843750D01*
X145502000Y-122943000D01*
X146351250Y-122943000D01*
X146510000Y-122784250D01*
X146510000Y-122193691D01*
X146413327Y-121960302D01*
X146234699Y-121781673D01*
X146001310Y-121685000D01*
X145660750Y-121685000D01*
X145502000Y-121843750D01*
X145248000Y-121843750D01*
X145089250Y-121685000D01*
X144748690Y-121685000D01*
X144515301Y-121781673D01*
X144336673Y-121960302D01*
X144240000Y-122193691D01*
X141497316Y-122193691D01*
X141473157Y-122072235D01*
X141332809Y-121862191D01*
X141122765Y-121721843D01*
X140875000Y-121672560D01*
X139875000Y-121672560D01*
X139627235Y-121721843D01*
X139417191Y-121862191D01*
X139276843Y-122072235D01*
X139227560Y-122320000D01*
X110259000Y-122320000D01*
X110259000Y-119780000D01*
X152562560Y-119780000D01*
X152562560Y-121280000D01*
X152611843Y-121527765D01*
X152752191Y-121737809D01*
X152962235Y-121878157D01*
X153210000Y-121927440D01*
X154210000Y-121927440D01*
X154457765Y-121878157D01*
X154667809Y-121737809D01*
X154808157Y-121527765D01*
X154857440Y-121280000D01*
X154857440Y-120815750D01*
X157575000Y-120815750D01*
X157575000Y-121406309D01*
X157671673Y-121639698D01*
X157850301Y-121818327D01*
X158083690Y-121915000D01*
X158424250Y-121915000D01*
X158583000Y-121756250D01*
X158583000Y-120657000D01*
X157733750Y-120657000D01*
X157575000Y-120815750D01*
X154857440Y-120815750D01*
X154857440Y-119780000D01*
X154832316Y-119653691D01*
X157575000Y-119653691D01*
X157575000Y-120244250D01*
X157733750Y-120403000D01*
X158583000Y-120403000D01*
X158583000Y-119303750D01*
X158424250Y-119145000D01*
X158083690Y-119145000D01*
X157850301Y-119241673D01*
X157671673Y-119420302D01*
X157575000Y-119653691D01*
X154832316Y-119653691D01*
X154808157Y-119532235D01*
X154667809Y-119322191D01*
X154457765Y-119181843D01*
X154210000Y-119132560D01*
X153210000Y-119132560D01*
X152962235Y-119181843D01*
X152752191Y-119322191D01*
X152611843Y-119532235D01*
X152562560Y-119780000D01*
X110259000Y-119780000D01*
X110259000Y-69801684D01*
X110213454Y-69572708D01*
X110039953Y-69313047D01*
X109780291Y-69139546D01*
X109474000Y-69078621D01*
X109167708Y-69139546D01*
X108908047Y-69313047D01*
X108734546Y-69572709D01*
X108689000Y-69801685D01*
X108689001Y-119937680D01*
X108689000Y-119937685D01*
X108689001Y-120515408D01*
X108689000Y-125557963D01*
X108238999Y-125107962D01*
X108238999Y-62261417D01*
X108510291Y-62207454D01*
X108769953Y-62033953D01*
X108943454Y-61774292D01*
X108989000Y-61545316D01*
X108989000Y-60876711D01*
X109081431Y-60784280D01*
X109239000Y-60403874D01*
X109239000Y-60273157D01*
X109720411Y-59791747D01*
X109785953Y-59747953D01*
X109829747Y-59682411D01*
X109829749Y-59682409D01*
X109959454Y-59488292D01*
X109974340Y-59413454D01*
X110005000Y-59259316D01*
X110005000Y-59259312D01*
X110020378Y-59182000D01*
X110005000Y-59104688D01*
X110005000Y-58547000D01*
X111760000Y-58547000D01*
X111808601Y-58537333D01*
X111849803Y-58509803D01*
X111877333Y-58468601D01*
X111887000Y-58420000D01*
X111887000Y-53806497D01*
X112255109Y-54052460D01*
X112450485Y-54091323D01*
X112464990Y-54164246D01*
X112464989Y-115922677D01*
X112449611Y-115999989D01*
X112464989Y-116077301D01*
X112464989Y-116077304D01*
X112510535Y-116306280D01*
X112684036Y-116565942D01*
X112749581Y-116609738D01*
X113452560Y-117312717D01*
X113452560Y-118250000D01*
X113501843Y-118497765D01*
X113642191Y-118707809D01*
X113852235Y-118848157D01*
X114100000Y-118897440D01*
X115600000Y-118897440D01*
X115847765Y-118848157D01*
X116057809Y-118707809D01*
X116198157Y-118497765D01*
X116247440Y-118250000D01*
X116247440Y-117835750D01*
X125065000Y-117835750D01*
X125065000Y-118376309D01*
X125161673Y-118609698D01*
X125340301Y-118788327D01*
X125573690Y-118885000D01*
X126164250Y-118885000D01*
X126323000Y-118726250D01*
X126323000Y-117677000D01*
X126577000Y-117677000D01*
X126577000Y-118726250D01*
X126735750Y-118885000D01*
X127326310Y-118885000D01*
X127559699Y-118788327D01*
X127738327Y-118609698D01*
X127835000Y-118376309D01*
X127835000Y-117835750D01*
X127676250Y-117677000D01*
X126577000Y-117677000D01*
X126323000Y-117677000D01*
X125223750Y-117677000D01*
X125065000Y-117835750D01*
X116247440Y-117835750D01*
X116247440Y-116850000D01*
X116198157Y-116602235D01*
X116057809Y-116392191D01*
X115985876Y-116344126D01*
X117365000Y-116344126D01*
X117365000Y-116755874D01*
X117522569Y-117136280D01*
X117813720Y-117427431D01*
X118194126Y-117585000D01*
X118605874Y-117585000D01*
X118986280Y-117427431D01*
X119277431Y-117136280D01*
X119435000Y-116755874D01*
X119435000Y-116344126D01*
X121865000Y-116344126D01*
X121865000Y-116755874D01*
X122022569Y-117136280D01*
X122313720Y-117427431D01*
X122694126Y-117585000D01*
X123105874Y-117585000D01*
X123486280Y-117427431D01*
X123777431Y-117136280D01*
X123935000Y-116755874D01*
X123935000Y-116723691D01*
X125065000Y-116723691D01*
X125065000Y-117264250D01*
X125223750Y-117423000D01*
X126323000Y-117423000D01*
X126323000Y-116373750D01*
X126577000Y-116373750D01*
X126577000Y-117423000D01*
X127676250Y-117423000D01*
X127835000Y-117264250D01*
X127835000Y-116723691D01*
X127738327Y-116490302D01*
X127559699Y-116311673D01*
X127326310Y-116215000D01*
X126735750Y-116215000D01*
X126577000Y-116373750D01*
X126323000Y-116373750D01*
X126164250Y-116215000D01*
X125573690Y-116215000D01*
X125340301Y-116311673D01*
X125161673Y-116490302D01*
X125065000Y-116723691D01*
X123935000Y-116723691D01*
X123935000Y-116344126D01*
X123777431Y-115963720D01*
X123486280Y-115672569D01*
X123105874Y-115515000D01*
X122694126Y-115515000D01*
X122313720Y-115672569D01*
X122022569Y-115963720D01*
X121865000Y-116344126D01*
X119435000Y-116344126D01*
X119277431Y-115963720D01*
X118986280Y-115672569D01*
X118605874Y-115515000D01*
X118194126Y-115515000D01*
X117813720Y-115672569D01*
X117522569Y-115963720D01*
X117365000Y-116344126D01*
X115985876Y-116344126D01*
X115847765Y-116251843D01*
X115600000Y-116202560D01*
X114562717Y-116202560D01*
X114407597Y-116047440D01*
X115550000Y-116047440D01*
X115797765Y-115998157D01*
X116007809Y-115857809D01*
X116148157Y-115647765D01*
X116197440Y-115400000D01*
X116197440Y-114100000D01*
X116148157Y-113852235D01*
X116007809Y-113642191D01*
X115797765Y-113501843D01*
X115563793Y-113455304D01*
X115544711Y-113426746D01*
X115459749Y-113299591D01*
X115459747Y-113299589D01*
X115415953Y-113234047D01*
X115350411Y-113190253D01*
X114557597Y-112397440D01*
X115600000Y-112397440D01*
X115847765Y-112348157D01*
X116057809Y-112207809D01*
X116198157Y-111997765D01*
X116247440Y-111750000D01*
X116247440Y-110762717D01*
X118356411Y-108653747D01*
X118421953Y-108609953D01*
X118465747Y-108544411D01*
X118465749Y-108544409D01*
X118595454Y-108350292D01*
X118595454Y-108350291D01*
X118641000Y-108121316D01*
X118641000Y-108121312D01*
X118656378Y-108044000D01*
X118641000Y-107966688D01*
X118641000Y-87458000D01*
X124366560Y-87458000D01*
X124366560Y-89258000D01*
X124415843Y-89505765D01*
X124556191Y-89715809D01*
X124766235Y-89856157D01*
X125014000Y-89905440D01*
X127214000Y-89905440D01*
X127461765Y-89856157D01*
X127671809Y-89715809D01*
X127812157Y-89505765D01*
X127861440Y-89258000D01*
X127861440Y-87458000D01*
X127812157Y-87210235D01*
X127671809Y-87000191D01*
X127461765Y-86859843D01*
X127214000Y-86810560D01*
X125014000Y-86810560D01*
X124766235Y-86859843D01*
X124556191Y-87000191D01*
X124415843Y-87210235D01*
X124366560Y-87458000D01*
X118641000Y-87458000D01*
X118641000Y-58999157D01*
X120896411Y-56743747D01*
X120961953Y-56699953D01*
X121005747Y-56634411D01*
X121005749Y-56634409D01*
X121135453Y-56440293D01*
X121135454Y-56440292D01*
X121181000Y-56211316D01*
X121181000Y-56211312D01*
X121196378Y-56134001D01*
X121181000Y-56056690D01*
X121181000Y-55813960D01*
X121353809Y-55698492D01*
X121494157Y-55488448D01*
X121543440Y-55240683D01*
X121543440Y-53480588D01*
X121653542Y-53315809D01*
X121666000Y-53253178D01*
X121678458Y-53315808D01*
X121973519Y-53757398D01*
X122415109Y-54052460D01*
X122936000Y-54156072D01*
X123456890Y-54052460D01*
X123898480Y-53757399D01*
X124193542Y-53315809D01*
X124206000Y-53253178D01*
X124218458Y-53315808D01*
X124328560Y-53480587D01*
X124328560Y-55240683D01*
X124377843Y-55488448D01*
X124518191Y-55698492D01*
X124728235Y-55838840D01*
X124976000Y-55888123D01*
X125976000Y-55888123D01*
X126223765Y-55838840D01*
X126433809Y-55698492D01*
X126574157Y-55488448D01*
X126623440Y-55240683D01*
X126623440Y-53480588D01*
X126733542Y-53315809D01*
X126746000Y-53253178D01*
X126758458Y-53315808D01*
X127053519Y-53757398D01*
X127495109Y-54052460D01*
X128016000Y-54156072D01*
X128536890Y-54052460D01*
X128570999Y-54029669D01*
X128571000Y-79200843D01*
X127577085Y-78206928D01*
X127533289Y-78141383D01*
X127273628Y-77967882D01*
X127044652Y-77922336D01*
X127044648Y-77922336D01*
X126967336Y-77906958D01*
X126890024Y-77922336D01*
X125447310Y-77922336D01*
X125369999Y-77906958D01*
X125292688Y-77922336D01*
X125292684Y-77922336D01*
X125063708Y-77967882D01*
X124966253Y-78033000D01*
X124869591Y-78097587D01*
X124869589Y-78097589D01*
X124804047Y-78141383D01*
X124760253Y-78206925D01*
X124294179Y-78673000D01*
X124145400Y-78673000D01*
X124056344Y-78458000D01*
X124149000Y-78234309D01*
X124149000Y-78181691D01*
X124056344Y-77958000D01*
X124149000Y-77734309D01*
X124149000Y-77681691D01*
X124056344Y-77458000D01*
X124149000Y-77234309D01*
X124149000Y-77181691D01*
X124056344Y-76958000D01*
X124149000Y-76734309D01*
X124149000Y-76681691D01*
X124056344Y-76458000D01*
X124149000Y-76234309D01*
X124149000Y-76181691D01*
X124056344Y-75958000D01*
X124149000Y-75734309D01*
X124149000Y-75681691D01*
X124056344Y-75458000D01*
X124149000Y-75234309D01*
X124149000Y-75181691D01*
X124056344Y-74958000D01*
X124149000Y-74734309D01*
X124149000Y-74681691D01*
X124056344Y-74458000D01*
X124149000Y-74234309D01*
X124149000Y-74181691D01*
X124056344Y-73958000D01*
X124149000Y-73734309D01*
X124149000Y-73681691D01*
X124056344Y-73458000D01*
X124149000Y-73234309D01*
X124149000Y-73181691D01*
X124056344Y-72958000D01*
X124149000Y-72734309D01*
X124149000Y-72681691D01*
X124056344Y-72458000D01*
X124149000Y-72234309D01*
X124149000Y-72181691D01*
X124056344Y-71958000D01*
X124149000Y-71734309D01*
X124149000Y-71681691D01*
X124056344Y-71458000D01*
X124149000Y-71234309D01*
X124149000Y-71181691D01*
X124052327Y-70948302D01*
X124051127Y-70947102D01*
X124112157Y-70855765D01*
X124135664Y-70737586D01*
X124149000Y-70724250D01*
X124149000Y-70681691D01*
X124147502Y-70678074D01*
X124161440Y-70608000D01*
X124161440Y-70308000D01*
X124147502Y-70237926D01*
X124149000Y-70234309D01*
X124149000Y-70191750D01*
X124135664Y-70178414D01*
X124112157Y-70060235D01*
X124051127Y-69968898D01*
X124052327Y-69967698D01*
X124149000Y-69734309D01*
X124149000Y-69681691D01*
X124056344Y-69458000D01*
X124149000Y-69234309D01*
X124149000Y-69181691D01*
X124056344Y-68958000D01*
X124149000Y-68734309D01*
X124149000Y-68681691D01*
X124056344Y-68458000D01*
X124149000Y-68234309D01*
X124149000Y-68181691D01*
X124052327Y-67948302D01*
X124051127Y-67947102D01*
X124112157Y-67855765D01*
X124135664Y-67737586D01*
X124149000Y-67724250D01*
X124149000Y-67681691D01*
X124147502Y-67678074D01*
X124161440Y-67608000D01*
X124161440Y-67308000D01*
X124141549Y-67208000D01*
X124161440Y-67108000D01*
X124161440Y-66808000D01*
X124112157Y-66560235D01*
X123971809Y-66350191D01*
X123761765Y-66209843D01*
X123649000Y-66187413D01*
X123649000Y-64158000D01*
X124366560Y-64158000D01*
X124366560Y-65958000D01*
X124415843Y-66205765D01*
X124556191Y-66415809D01*
X124764610Y-66555071D01*
X124695000Y-66723126D01*
X124695000Y-67134874D01*
X124852569Y-67515280D01*
X125143720Y-67806431D01*
X125524126Y-67964000D01*
X125935874Y-67964000D01*
X126316280Y-67806431D01*
X126607431Y-67515280D01*
X126765000Y-67134874D01*
X126765000Y-66723126D01*
X126716253Y-66605440D01*
X127214000Y-66605440D01*
X127461765Y-66556157D01*
X127671809Y-66415809D01*
X127812157Y-66205765D01*
X127861440Y-65958000D01*
X127861440Y-64158000D01*
X127812157Y-63910235D01*
X127671809Y-63700191D01*
X127461765Y-63559843D01*
X127214000Y-63510560D01*
X125014000Y-63510560D01*
X124766235Y-63559843D01*
X124556191Y-63700191D01*
X124415843Y-63910235D01*
X124366560Y-64158000D01*
X123649000Y-64158000D01*
X123649000Y-63870041D01*
X123717000Y-63705874D01*
X123717000Y-63294126D01*
X123559431Y-62913720D01*
X123268280Y-62622569D01*
X122887874Y-62465000D01*
X122476126Y-62465000D01*
X122095720Y-62622569D01*
X121804569Y-62913720D01*
X121647000Y-63294126D01*
X121647000Y-63705874D01*
X121804569Y-64086280D01*
X122079001Y-64360712D01*
X122079000Y-66187413D01*
X121966235Y-66209843D01*
X121756191Y-66350191D01*
X121615843Y-66560235D01*
X121606963Y-66604879D01*
X119995592Y-68216251D01*
X119930047Y-68260047D01*
X119886251Y-68325592D01*
X119804259Y-68448302D01*
X119756546Y-68519709D01*
X119711000Y-68748685D01*
X119711000Y-68748688D01*
X119695622Y-68826000D01*
X119711000Y-68903312D01*
X119711001Y-70132842D01*
X119625614Y-70218229D01*
X119560069Y-70262025D01*
X119516273Y-70327570D01*
X119513480Y-70331750D01*
X119386568Y-70521687D01*
X119341022Y-70750663D01*
X119341022Y-70750666D01*
X119325644Y-70827978D01*
X119341022Y-70905290D01*
X119341023Y-80424705D01*
X119325644Y-80502022D01*
X119386568Y-80808313D01*
X119516273Y-81002430D01*
X119516276Y-81002433D01*
X119560070Y-81067975D01*
X119625612Y-81111769D01*
X119797001Y-81283158D01*
X119797000Y-82048688D01*
X119781622Y-82126000D01*
X119797000Y-82203312D01*
X119797000Y-82203315D01*
X119842546Y-82432291D01*
X120016047Y-82691953D01*
X120081592Y-82735749D01*
X121304253Y-83958411D01*
X121348047Y-84023953D01*
X121413589Y-84067747D01*
X121413591Y-84067749D01*
X121473831Y-84108000D01*
X121580109Y-84179013D01*
X121579000Y-84181691D01*
X121579000Y-84224250D01*
X121592336Y-84237586D01*
X121615843Y-84355765D01*
X121684155Y-84458000D01*
X121615843Y-84560235D01*
X121592336Y-84678414D01*
X121579000Y-84691750D01*
X121579000Y-84734309D01*
X121580498Y-84737926D01*
X121566560Y-84808000D01*
X121566560Y-85108000D01*
X121586451Y-85208000D01*
X121566560Y-85308000D01*
X121566560Y-85608000D01*
X121586451Y-85708000D01*
X121566560Y-85808000D01*
X121566560Y-86108000D01*
X121586451Y-86208000D01*
X121566560Y-86308000D01*
X121566560Y-86608000D01*
X121615843Y-86855765D01*
X121756191Y-87065809D01*
X121966235Y-87206157D01*
X122214000Y-87255440D01*
X123514000Y-87255440D01*
X123761765Y-87206157D01*
X123971809Y-87065809D01*
X124112157Y-86855765D01*
X124161440Y-86608000D01*
X124161440Y-86308000D01*
X124141549Y-86208000D01*
X124161440Y-86108000D01*
X124161440Y-85808000D01*
X124141549Y-85708000D01*
X124161440Y-85608000D01*
X124161440Y-85308000D01*
X124141549Y-85208000D01*
X124161440Y-85108000D01*
X124161440Y-84808000D01*
X124147502Y-84737926D01*
X124149000Y-84734309D01*
X124149000Y-84691750D01*
X124135664Y-84678414D01*
X124112157Y-84560235D01*
X124043845Y-84458000D01*
X124112157Y-84355765D01*
X124135664Y-84237586D01*
X124149000Y-84224250D01*
X124149000Y-84181691D01*
X124147502Y-84178074D01*
X124161440Y-84108000D01*
X124161440Y-83808000D01*
X124141549Y-83708000D01*
X124161440Y-83608000D01*
X124161440Y-83308000D01*
X124148511Y-83243000D01*
X128296688Y-83243000D01*
X128374000Y-83258378D01*
X128451312Y-83243000D01*
X128451316Y-83243000D01*
X128587055Y-83216000D01*
X128856874Y-83216000D01*
X129237280Y-83058431D01*
X129528431Y-82767280D01*
X129538723Y-82742434D01*
X129715720Y-82919431D01*
X130096126Y-83077000D01*
X130267001Y-83077000D01*
X130267002Y-104042839D01*
X124849591Y-109460250D01*
X124784046Y-109504046D01*
X124610545Y-109763708D01*
X124564999Y-109992684D01*
X124564999Y-109992687D01*
X124549621Y-110069999D01*
X124564999Y-110147311D01*
X124565000Y-112622682D01*
X124549621Y-112699999D01*
X124610545Y-113006290D01*
X124740250Y-113200407D01*
X124740253Y-113200410D01*
X124784047Y-113265952D01*
X124849589Y-113309746D01*
X125248068Y-113708225D01*
X125151843Y-113852235D01*
X125102560Y-114100000D01*
X125102560Y-115400000D01*
X125151843Y-115647765D01*
X125292191Y-115857809D01*
X125502235Y-115998157D01*
X125750000Y-116047440D01*
X127150000Y-116047440D01*
X127397765Y-115998157D01*
X127607809Y-115857809D01*
X127748157Y-115647765D01*
X127797440Y-115400000D01*
X127797440Y-114100000D01*
X127748157Y-113852235D01*
X127607809Y-113642191D01*
X127397765Y-113501843D01*
X127163793Y-113455304D01*
X127144711Y-113426746D01*
X127059749Y-113299591D01*
X127059747Y-113299589D01*
X127015953Y-113234047D01*
X126950411Y-113190253D01*
X126157597Y-112397440D01*
X127200000Y-112397440D01*
X127447765Y-112348157D01*
X127657809Y-112207809D01*
X127798157Y-111997765D01*
X127847440Y-111750000D01*
X127847440Y-110350000D01*
X127798157Y-110102235D01*
X127681905Y-109928252D01*
X130290157Y-107320000D01*
X139227560Y-107320000D01*
X139227560Y-108820000D01*
X139276843Y-109067765D01*
X139417191Y-109277809D01*
X139627235Y-109418157D01*
X139875000Y-109467440D01*
X140875000Y-109467440D01*
X141122765Y-109418157D01*
X141332809Y-109277809D01*
X141473157Y-109067765D01*
X141522440Y-108820000D01*
X141522440Y-108355750D01*
X144240000Y-108355750D01*
X144240000Y-108946309D01*
X144336673Y-109179698D01*
X144515301Y-109358327D01*
X144748690Y-109455000D01*
X145089250Y-109455000D01*
X145248000Y-109296250D01*
X145248000Y-108197000D01*
X145502000Y-108197000D01*
X145502000Y-109296250D01*
X145660750Y-109455000D01*
X146001310Y-109455000D01*
X146234699Y-109358327D01*
X146413327Y-109179698D01*
X146510000Y-108946309D01*
X146510000Y-108355750D01*
X146351250Y-108197000D01*
X145502000Y-108197000D01*
X145248000Y-108197000D01*
X144398750Y-108197000D01*
X144240000Y-108355750D01*
X141522440Y-108355750D01*
X141522440Y-107320000D01*
X141497316Y-107193691D01*
X144240000Y-107193691D01*
X144240000Y-107784250D01*
X144398750Y-107943000D01*
X145248000Y-107943000D01*
X145248000Y-106843750D01*
X145502000Y-106843750D01*
X145502000Y-107943000D01*
X146351250Y-107943000D01*
X146510000Y-107784250D01*
X146510000Y-107193691D01*
X146413327Y-106960302D01*
X146234699Y-106781673D01*
X146001310Y-106685000D01*
X145660750Y-106685000D01*
X145502000Y-106843750D01*
X145248000Y-106843750D01*
X145089250Y-106685000D01*
X144748690Y-106685000D01*
X144515301Y-106781673D01*
X144336673Y-106960302D01*
X144240000Y-107193691D01*
X141497316Y-107193691D01*
X141473157Y-107072235D01*
X141332809Y-106862191D01*
X141122765Y-106721843D01*
X140875000Y-106672560D01*
X139875000Y-106672560D01*
X139627235Y-106721843D01*
X139417191Y-106862191D01*
X139276843Y-107072235D01*
X139227560Y-107320000D01*
X130290157Y-107320000D01*
X132830157Y-104780000D01*
X152562560Y-104780000D01*
X152562560Y-106280000D01*
X152611843Y-106527765D01*
X152752191Y-106737809D01*
X152962235Y-106878157D01*
X153210000Y-106927440D01*
X154210000Y-106927440D01*
X154457765Y-106878157D01*
X154667809Y-106737809D01*
X154808157Y-106527765D01*
X154857440Y-106280000D01*
X154857440Y-105815750D01*
X157575000Y-105815750D01*
X157575000Y-106406309D01*
X157671673Y-106639698D01*
X157850301Y-106818327D01*
X158083690Y-106915000D01*
X158424250Y-106915000D01*
X158583000Y-106756250D01*
X158583000Y-105657000D01*
X158837000Y-105657000D01*
X158837000Y-106756250D01*
X158995750Y-106915000D01*
X159336310Y-106915000D01*
X159569699Y-106818327D01*
X159748327Y-106639698D01*
X159845000Y-106406309D01*
X159845000Y-105815750D01*
X159686250Y-105657000D01*
X158837000Y-105657000D01*
X158583000Y-105657000D01*
X157733750Y-105657000D01*
X157575000Y-105815750D01*
X154857440Y-105815750D01*
X154857440Y-104780000D01*
X154832316Y-104653691D01*
X157575000Y-104653691D01*
X157575000Y-105244250D01*
X157733750Y-105403000D01*
X158583000Y-105403000D01*
X158583000Y-104303750D01*
X158837000Y-104303750D01*
X158837000Y-105403000D01*
X159686250Y-105403000D01*
X159845000Y-105244250D01*
X159845000Y-104653691D01*
X159748327Y-104420302D01*
X159569699Y-104241673D01*
X159336310Y-104145000D01*
X158995750Y-104145000D01*
X158837000Y-104303750D01*
X158583000Y-104303750D01*
X158424250Y-104145000D01*
X158083690Y-104145000D01*
X157850301Y-104241673D01*
X157671673Y-104420302D01*
X157575000Y-104653691D01*
X154832316Y-104653691D01*
X154808157Y-104532235D01*
X154667809Y-104322191D01*
X154457765Y-104181843D01*
X154210000Y-104132560D01*
X153210000Y-104132560D01*
X152962235Y-104181843D01*
X152752191Y-104322191D01*
X152611843Y-104532235D01*
X152562560Y-104780000D01*
X132830157Y-104780000D01*
X140016410Y-97593748D01*
X140081952Y-97549954D01*
X140125746Y-97484412D01*
X140125748Y-97484410D01*
X140255453Y-97290293D01*
X140255453Y-97290292D01*
X140300999Y-97061317D01*
X140300999Y-97061313D01*
X140316377Y-96984001D01*
X140300999Y-96906689D01*
X140300999Y-83124150D01*
X147971000Y-83124150D01*
X147971000Y-83216709D01*
X148067673Y-83450098D01*
X148246301Y-83628727D01*
X148479690Y-83725400D01*
X149320250Y-83725400D01*
X149479000Y-83566650D01*
X149479000Y-82965400D01*
X149733000Y-82965400D01*
X149733000Y-83566650D01*
X149891750Y-83725400D01*
X150732310Y-83725400D01*
X150965699Y-83628727D01*
X151144327Y-83450098D01*
X151241000Y-83216709D01*
X151241000Y-83124150D01*
X151082250Y-82965400D01*
X149733000Y-82965400D01*
X149479000Y-82965400D01*
X148129750Y-82965400D01*
X147971000Y-83124150D01*
X140300999Y-83124150D01*
X140300999Y-71110004D01*
X140510126Y-71196627D01*
X140552070Y-71196627D01*
X146261561Y-76906118D01*
X146098720Y-76973569D01*
X145807569Y-77264720D01*
X145697239Y-77531080D01*
X145180000Y-77013841D01*
X145180000Y-76883124D01*
X145022431Y-76502718D01*
X144731280Y-76211567D01*
X144350874Y-76053998D01*
X143939126Y-76053998D01*
X143558720Y-76211567D01*
X143267569Y-76502718D01*
X143110000Y-76883124D01*
X143110000Y-77294872D01*
X143267569Y-77675278D01*
X143558720Y-77966429D01*
X143939126Y-78123998D01*
X144069843Y-78123998D01*
X146086655Y-80140811D01*
X146130449Y-80206353D01*
X146195991Y-80250147D01*
X146195993Y-80250149D01*
X146293648Y-80315400D01*
X146390110Y-80379854D01*
X146619086Y-80425400D01*
X146619090Y-80425400D01*
X146696401Y-80440778D01*
X146773712Y-80425400D01*
X146964889Y-80425400D01*
X146696569Y-80693720D01*
X146559461Y-81024729D01*
X146225720Y-81162969D01*
X145934569Y-81454120D01*
X145777000Y-81834526D01*
X145777000Y-82246274D01*
X145934569Y-82626680D01*
X146225720Y-82917831D01*
X146606126Y-83075400D01*
X147017874Y-83075400D01*
X147398280Y-82917831D01*
X147490711Y-82825400D01*
X148355119Y-82825400D01*
X148435400Y-82879042D01*
X148731000Y-82937840D01*
X150481000Y-82937840D01*
X150776600Y-82879042D01*
X150888064Y-82804564D01*
X151012292Y-82779854D01*
X151271953Y-82606353D01*
X151315749Y-82540808D01*
X157980408Y-75876149D01*
X158045953Y-75832353D01*
X158219454Y-75572692D01*
X158265000Y-75343716D01*
X158265000Y-75343712D01*
X158280378Y-75266400D01*
X158265000Y-75189088D01*
X158265000Y-62307312D01*
X158280378Y-62230000D01*
X158265000Y-62152688D01*
X158265000Y-62152684D01*
X158219454Y-61923708D01*
X158045953Y-61664047D01*
X157980408Y-61620251D01*
X157753000Y-61392843D01*
X157753000Y-61262126D01*
X157595431Y-60881720D01*
X157304280Y-60590569D01*
X156923874Y-60433000D01*
X156741000Y-60433000D01*
X156741000Y-55813960D01*
X156913809Y-55698492D01*
X157054157Y-55488448D01*
X157103440Y-55240683D01*
X157103440Y-53480588D01*
X157161000Y-53394443D01*
X157161000Y-53621227D01*
X157257673Y-53854616D01*
X157436301Y-54033245D01*
X157669690Y-54129918D01*
X158210250Y-54129918D01*
X158369000Y-53971168D01*
X158369000Y-53779918D01*
X158623000Y-53779918D01*
X158623000Y-53971168D01*
X158781750Y-54129918D01*
X159322310Y-54129918D01*
X159555699Y-54033245D01*
X159734327Y-53854616D01*
X159831000Y-53621227D01*
X159831000Y-52930668D01*
X159672250Y-52771918D01*
X159631000Y-52771918D01*
X159631000Y-52517918D01*
X159672250Y-52517918D01*
X159831000Y-52359168D01*
X159831000Y-51668609D01*
X159734327Y-51435220D01*
X159631000Y-51331892D01*
X159631000Y-51276433D01*
X159472250Y-51117683D01*
X158623000Y-51117683D01*
X158623000Y-51137683D01*
X158369000Y-51137683D01*
X158369000Y-51117683D01*
X157519750Y-51117683D01*
X157361000Y-51276433D01*
X157361000Y-51331892D01*
X157257673Y-51435220D01*
X157161000Y-51668609D01*
X157161000Y-51895393D01*
X156918481Y-51532437D01*
X156476891Y-51237376D01*
X155956000Y-51133764D01*
X155435110Y-51237376D01*
X154993520Y-51532437D01*
X154698458Y-51974027D01*
X154686000Y-52036658D01*
X154673542Y-51974028D01*
X154563440Y-51809248D01*
X154563440Y-50040683D01*
X154538316Y-49914374D01*
X157361000Y-49914374D01*
X157361000Y-50704933D01*
X157519750Y-50863683D01*
X158369000Y-50863683D01*
X158369000Y-49564433D01*
X158623000Y-49564433D01*
X158623000Y-50863683D01*
X159472250Y-50863683D01*
X159631000Y-50704933D01*
X159631000Y-49914374D01*
X159534327Y-49680985D01*
X159355699Y-49502356D01*
X159122310Y-49405683D01*
X158781750Y-49405683D01*
X158623000Y-49564433D01*
X158369000Y-49564433D01*
X158210250Y-49405683D01*
X157869690Y-49405683D01*
X157636301Y-49502356D01*
X157457673Y-49680985D01*
X157361000Y-49914374D01*
X154538316Y-49914374D01*
X154514157Y-49792918D01*
X154373809Y-49582874D01*
X154163765Y-49442526D01*
X153916000Y-49393243D01*
X152916000Y-49393243D01*
X152668235Y-49442526D01*
X152458191Y-49582874D01*
X152317843Y-49792918D01*
X152268560Y-50040683D01*
X152268560Y-51809248D01*
X152158458Y-51974027D01*
X152146000Y-52036658D01*
X152133542Y-51974028D01*
X151838481Y-51532437D01*
X151396891Y-51237376D01*
X150876000Y-51133764D01*
X150355110Y-51237376D01*
X149913520Y-51532437D01*
X149618458Y-51974027D01*
X149606000Y-52036658D01*
X149593542Y-51974028D01*
X149483440Y-51809248D01*
X149483440Y-50040683D01*
X149434157Y-49792918D01*
X149293809Y-49582874D01*
X149083765Y-49442526D01*
X148836000Y-49393243D01*
X147836000Y-49393243D01*
X147588235Y-49442526D01*
X147378191Y-49582874D01*
X147237843Y-49792918D01*
X147188560Y-50040683D01*
X147188560Y-51809248D01*
X147078458Y-51974027D01*
X147066000Y-52036658D01*
X147053542Y-51974028D01*
X146758481Y-51532437D01*
X146316891Y-51237376D01*
X145796000Y-51133764D01*
X145380999Y-51216313D01*
X145380999Y-44654311D01*
X145396377Y-44576999D01*
X145380999Y-44499685D01*
X145380999Y-44499684D01*
X145335453Y-44270708D01*
X145205748Y-44076591D01*
X145205746Y-44076589D01*
X145161952Y-44011047D01*
X145096410Y-43967253D01*
X141701117Y-40571961D01*
X141929416Y-40419416D01*
X142113000Y-40144664D01*
X142296584Y-40419416D01*
X142585706Y-40612602D01*
X142926750Y-40680440D01*
X143839250Y-40680440D01*
X144180294Y-40612602D01*
X144469416Y-40419416D01*
X144495419Y-40380500D01*
X144810581Y-40380500D01*
X144836584Y-40419416D01*
X145125706Y-40612602D01*
X145466750Y-40680440D01*
X146379250Y-40680440D01*
X146720294Y-40612602D01*
X147009416Y-40419416D01*
X147202602Y-40130294D01*
X147258229Y-39850638D01*
X149528560Y-37580308D01*
X149528560Y-37914250D01*
G36*
X164599591Y-109067749D02*
X164793708Y-109197454D01*
X165100000Y-109258378D01*
X165406291Y-109197454D01*
X165530596Y-109114396D01*
X165807375Y-109528625D01*
X166126478Y-109741843D01*
X165996642Y-109802817D01*
X165606355Y-110231076D01*
X165436524Y-110641110D01*
X165557845Y-110871000D01*
X166751000Y-110871000D01*
X166751000Y-110851000D01*
X167005000Y-110851000D01*
X167005000Y-110871000D01*
X167025000Y-110871000D01*
X167025000Y-111125000D01*
X167005000Y-111125000D01*
X167005000Y-111145000D01*
X166751000Y-111145000D01*
X166751000Y-111125000D01*
X165557845Y-111125000D01*
X165436524Y-111354890D01*
X165606355Y-111764924D01*
X165996642Y-112193183D01*
X166112653Y-112247665D01*
X166036815Y-112279078D01*
X165619078Y-112696815D01*
X165393000Y-113242615D01*
X165393000Y-113833385D01*
X165619078Y-114379185D01*
X166036815Y-114796922D01*
X166063560Y-114808000D01*
X166036815Y-114819078D01*
X165619078Y-115236815D01*
X165393000Y-115782615D01*
X165393000Y-116373385D01*
X165619078Y-116919185D01*
X166036815Y-117336922D01*
X166582615Y-117563000D01*
X167173385Y-117563000D01*
X167513000Y-117422327D01*
X167513000Y-121066300D01*
X167457418Y-121029161D01*
X167024256Y-120943000D01*
X166731744Y-120943000D01*
X166298582Y-121029161D01*
X165807375Y-121357375D01*
X165479161Y-121848582D01*
X165363908Y-122428000D01*
X165479161Y-123007418D01*
X165807375Y-123498625D01*
X166105761Y-123698000D01*
X165807375Y-123897375D01*
X165539875Y-124297717D01*
X164750409Y-123508252D01*
X162184492Y-120942335D01*
X162202000Y-120854316D01*
X162202000Y-106670157D01*
X164599591Y-109067749D01*
X164599591Y-109067749D01*
G37*
X164599591Y-109067749D02*
X164793708Y-109197454D01*
X165100000Y-109258378D01*
X165406291Y-109197454D01*
X165530596Y-109114396D01*
X165807375Y-109528625D01*
X166126478Y-109741843D01*
X165996642Y-109802817D01*
X165606355Y-110231076D01*
X165436524Y-110641110D01*
X165557845Y-110871000D01*
X166751000Y-110871000D01*
X166751000Y-110851000D01*
X167005000Y-110851000D01*
X167005000Y-110871000D01*
X167025000Y-110871000D01*
X167025000Y-111125000D01*
X167005000Y-111125000D01*
X167005000Y-111145000D01*
X166751000Y-111145000D01*
X166751000Y-111125000D01*
X165557845Y-111125000D01*
X165436524Y-111354890D01*
X165606355Y-111764924D01*
X165996642Y-112193183D01*
X166112653Y-112247665D01*
X166036815Y-112279078D01*
X165619078Y-112696815D01*
X165393000Y-113242615D01*
X165393000Y-113833385D01*
X165619078Y-114379185D01*
X166036815Y-114796922D01*
X166063560Y-114808000D01*
X166036815Y-114819078D01*
X165619078Y-115236815D01*
X165393000Y-115782615D01*
X165393000Y-116373385D01*
X165619078Y-116919185D01*
X166036815Y-117336922D01*
X166582615Y-117563000D01*
X167173385Y-117563000D01*
X167513000Y-117422327D01*
X167513000Y-121066300D01*
X167457418Y-121029161D01*
X167024256Y-120943000D01*
X166731744Y-120943000D01*
X166298582Y-121029161D01*
X165807375Y-121357375D01*
X165479161Y-121848582D01*
X165363908Y-122428000D01*
X165479161Y-123007418D01*
X165807375Y-123498625D01*
X166105761Y-123698000D01*
X165807375Y-123897375D01*
X165539875Y-124297717D01*
X164750409Y-123508252D01*
X162184492Y-120942335D01*
X162202000Y-120854316D01*
X162202000Y-106670157D01*
X164599591Y-109067749D01*
G36*
X122991000Y-78105000D02*
X122737000Y-78105000D01*
X122737000Y-71811000D01*
X122991000Y-71811000D01*
X122991000Y-78105000D01*
X122991000Y-78105000D01*
G37*
X122991000Y-78105000D02*
X122737000Y-78105000D01*
X122737000Y-71811000D01*
X122991000Y-71811000D01*
X122991000Y-78105000D01*
G36*
X122991000Y-69105000D02*
X122737000Y-69105000D01*
X122737000Y-68811000D01*
X122991000Y-68811000D01*
X122991000Y-69105000D01*
X122991000Y-69105000D01*
G37*
X122991000Y-69105000D02*
X122737000Y-69105000D01*
X122737000Y-68811000D01*
X122991000Y-68811000D01*
X122991000Y-69105000D01*
G36*
X140342590Y-41433748D02*
X143810999Y-44902158D01*
X143810999Y-49405683D01*
X143541750Y-49405683D01*
X143383000Y-49564433D01*
X143383000Y-50863683D01*
X143403000Y-50863683D01*
X143403000Y-51117683D01*
X143383000Y-51117683D01*
X143383000Y-51137683D01*
X143129000Y-51137683D01*
X143129000Y-51117683D01*
X142279750Y-51117683D01*
X142121000Y-51276433D01*
X142121000Y-51798255D01*
X142104777Y-51816423D01*
X142001164Y-52112895D01*
X141973542Y-51974028D01*
X141678481Y-51532437D01*
X141236891Y-51237376D01*
X140716000Y-51133764D01*
X140300999Y-51216313D01*
X140300999Y-49914374D01*
X142121000Y-49914374D01*
X142121000Y-50704933D01*
X142279750Y-50863683D01*
X143129000Y-50863683D01*
X143129000Y-49564433D01*
X142970250Y-49405683D01*
X142629690Y-49405683D01*
X142396301Y-49502356D01*
X142217673Y-49680985D01*
X142121000Y-49914374D01*
X140300999Y-49914374D01*
X140300999Y-41405958D01*
X140342590Y-41433748D01*
X140342590Y-41433748D01*
G37*
X140342590Y-41433748D02*
X143810999Y-44902158D01*
X143810999Y-49405683D01*
X143541750Y-49405683D01*
X143383000Y-49564433D01*
X143383000Y-50863683D01*
X143403000Y-50863683D01*
X143403000Y-51117683D01*
X143383000Y-51117683D01*
X143383000Y-51137683D01*
X143129000Y-51137683D01*
X143129000Y-51117683D01*
X142279750Y-51117683D01*
X142121000Y-51276433D01*
X142121000Y-51798255D01*
X142104777Y-51816423D01*
X142001164Y-52112895D01*
X141973542Y-51974028D01*
X141678481Y-51532437D01*
X141236891Y-51237376D01*
X140716000Y-51133764D01*
X140300999Y-51216313D01*
X140300999Y-49914374D01*
X142121000Y-49914374D01*
X142121000Y-50704933D01*
X142279750Y-50863683D01*
X143129000Y-50863683D01*
X143129000Y-49564433D01*
X142970250Y-49405683D01*
X142629690Y-49405683D01*
X142396301Y-49502356D01*
X142217673Y-49680985D01*
X142121000Y-49914374D01*
X140300999Y-49914374D01*
X140300999Y-41405958D01*
X140342590Y-41433748D01*
G36*
X126758458Y-27915808D02*
X126868560Y-28080587D01*
X126868560Y-29867083D01*
X126917843Y-30114848D01*
X127058191Y-30324892D01*
X127268235Y-30465240D01*
X127516000Y-30514523D01*
X128516000Y-30514523D01*
X128763765Y-30465240D01*
X128973809Y-30324892D01*
X129114157Y-30114848D01*
X129163440Y-29867083D01*
X129163440Y-28080588D01*
X129273542Y-27915809D01*
X129286000Y-27853178D01*
X129298458Y-27915808D01*
X129593519Y-28357398D01*
X129771000Y-28475988D01*
X129771001Y-33964841D01*
X128565602Y-35170241D01*
X128500057Y-35214037D01*
X128326556Y-35473699D01*
X128281010Y-35702675D01*
X128281010Y-35702678D01*
X128265632Y-35779990D01*
X128281010Y-35857302D01*
X128281010Y-36535560D01*
X127559750Y-36535560D01*
X127218706Y-36603398D01*
X126929584Y-36796584D01*
X126911933Y-36823000D01*
X126603868Y-36823000D01*
X126521809Y-36700191D01*
X126311765Y-36559843D01*
X126064000Y-36510560D01*
X125264000Y-36510560D01*
X125016235Y-36559843D01*
X124806191Y-36700191D01*
X124716987Y-36833694D01*
X124702327Y-36798302D01*
X124523699Y-36619673D01*
X124290310Y-36523000D01*
X124049750Y-36523000D01*
X123891000Y-36681750D01*
X123891000Y-37481000D01*
X123911000Y-37481000D01*
X123911000Y-37735000D01*
X123891000Y-37735000D01*
X123891000Y-38534250D01*
X123976531Y-38619781D01*
X123856191Y-38700191D01*
X123815894Y-38760500D01*
X122557828Y-38760500D01*
X122498416Y-38671584D01*
X122403256Y-38608000D01*
X122498416Y-38544416D01*
X122691602Y-38255294D01*
X122729000Y-38067282D01*
X122729000Y-38184309D01*
X122825673Y-38417698D01*
X123004301Y-38596327D01*
X123237690Y-38693000D01*
X123478250Y-38693000D01*
X123637000Y-38534250D01*
X123637000Y-37735000D01*
X123617000Y-37735000D01*
X123617000Y-37481000D01*
X123637000Y-37481000D01*
X123637000Y-36681750D01*
X123478250Y-36523000D01*
X123237690Y-36523000D01*
X123004301Y-36619673D01*
X122825673Y-36798302D01*
X122729000Y-37031691D01*
X122729000Y-37273718D01*
X122691602Y-37085706D01*
X122498416Y-36796584D01*
X122381001Y-36718129D01*
X122381001Y-32662241D01*
X124636412Y-30406831D01*
X124701954Y-30363037D01*
X124745748Y-30297495D01*
X124745750Y-30297493D01*
X124860611Y-30125591D01*
X124875455Y-30103376D01*
X124921001Y-29874400D01*
X124921001Y-29874396D01*
X124936379Y-29797085D01*
X124921001Y-29719774D01*
X124921001Y-28581506D01*
X125142671Y-28687634D01*
X125349000Y-28564292D01*
X125349000Y-28379918D01*
X125603000Y-28379918D01*
X125603000Y-28564292D01*
X125809329Y-28687634D01*
X126279943Y-28462320D01*
X126627223Y-28073413D01*
X126730836Y-27776941D01*
X126758458Y-27915808D01*
X126758458Y-27915808D01*
G37*
X126758458Y-27915808D02*
X126868560Y-28080587D01*
X126868560Y-29867083D01*
X126917843Y-30114848D01*
X127058191Y-30324892D01*
X127268235Y-30465240D01*
X127516000Y-30514523D01*
X128516000Y-30514523D01*
X128763765Y-30465240D01*
X128973809Y-30324892D01*
X129114157Y-30114848D01*
X129163440Y-29867083D01*
X129163440Y-28080588D01*
X129273542Y-27915809D01*
X129286000Y-27853178D01*
X129298458Y-27915808D01*
X129593519Y-28357398D01*
X129771000Y-28475988D01*
X129771001Y-33964841D01*
X128565602Y-35170241D01*
X128500057Y-35214037D01*
X128326556Y-35473699D01*
X128281010Y-35702675D01*
X128281010Y-35702678D01*
X128265632Y-35779990D01*
X128281010Y-35857302D01*
X128281010Y-36535560D01*
X127559750Y-36535560D01*
X127218706Y-36603398D01*
X126929584Y-36796584D01*
X126911933Y-36823000D01*
X126603868Y-36823000D01*
X126521809Y-36700191D01*
X126311765Y-36559843D01*
X126064000Y-36510560D01*
X125264000Y-36510560D01*
X125016235Y-36559843D01*
X124806191Y-36700191D01*
X124716987Y-36833694D01*
X124702327Y-36798302D01*
X124523699Y-36619673D01*
X124290310Y-36523000D01*
X124049750Y-36523000D01*
X123891000Y-36681750D01*
X123891000Y-37481000D01*
X123911000Y-37481000D01*
X123911000Y-37735000D01*
X123891000Y-37735000D01*
X123891000Y-38534250D01*
X123976531Y-38619781D01*
X123856191Y-38700191D01*
X123815894Y-38760500D01*
X122557828Y-38760500D01*
X122498416Y-38671584D01*
X122403256Y-38608000D01*
X122498416Y-38544416D01*
X122691602Y-38255294D01*
X122729000Y-38067282D01*
X122729000Y-38184309D01*
X122825673Y-38417698D01*
X123004301Y-38596327D01*
X123237690Y-38693000D01*
X123478250Y-38693000D01*
X123637000Y-38534250D01*
X123637000Y-37735000D01*
X123617000Y-37735000D01*
X123617000Y-37481000D01*
X123637000Y-37481000D01*
X123637000Y-36681750D01*
X123478250Y-36523000D01*
X123237690Y-36523000D01*
X123004301Y-36619673D01*
X122825673Y-36798302D01*
X122729000Y-37031691D01*
X122729000Y-37273718D01*
X122691602Y-37085706D01*
X122498416Y-36796584D01*
X122381001Y-36718129D01*
X122381001Y-32662241D01*
X124636412Y-30406831D01*
X124701954Y-30363037D01*
X124745748Y-30297495D01*
X124745750Y-30297493D01*
X124860611Y-30125591D01*
X124875455Y-30103376D01*
X124921001Y-29874400D01*
X124921001Y-29874396D01*
X124936379Y-29797085D01*
X124921001Y-29719774D01*
X124921001Y-28581506D01*
X125142671Y-28687634D01*
X125349000Y-28564292D01*
X125349000Y-28379918D01*
X125603000Y-28379918D01*
X125603000Y-28564292D01*
X125809329Y-28687634D01*
X126279943Y-28462320D01*
X126627223Y-28073413D01*
X126730836Y-27776941D01*
X126758458Y-27915808D01*
G36*
X149618458Y-27915808D02*
X149913519Y-28357398D01*
X150091000Y-28475987D01*
X150091001Y-34906006D01*
X149781126Y-34906006D01*
X149400720Y-35063575D01*
X149109569Y-35354726D01*
X148952000Y-35735132D01*
X148952000Y-35795131D01*
X147270440Y-37476692D01*
X147270440Y-37426750D01*
X147202602Y-37085706D01*
X147009416Y-36796584D01*
X146720294Y-36603398D01*
X146379250Y-36535560D01*
X145466750Y-36535560D01*
X145125706Y-36603398D01*
X144836584Y-36796584D01*
X144696870Y-37005679D01*
X144621327Y-36823302D01*
X144442699Y-36644673D01*
X144209310Y-36548000D01*
X143668750Y-36548000D01*
X143510000Y-36706750D01*
X143510000Y-37543500D01*
X143530000Y-37543500D01*
X143530000Y-37797500D01*
X143510000Y-37797500D01*
X143510000Y-37817500D01*
X143256000Y-37817500D01*
X143256000Y-37797500D01*
X142206750Y-37797500D01*
X142113000Y-37891250D01*
X142019250Y-37797500D01*
X140970000Y-37797500D01*
X140970000Y-37817500D01*
X140716000Y-37817500D01*
X140716000Y-37797500D01*
X140696000Y-37797500D01*
X140696000Y-37543500D01*
X140716000Y-37543500D01*
X140716000Y-36706750D01*
X140970000Y-36706750D01*
X140970000Y-37543500D01*
X142019250Y-37543500D01*
X142113000Y-37449750D01*
X142206750Y-37543500D01*
X143256000Y-37543500D01*
X143256000Y-36706750D01*
X143097250Y-36548000D01*
X142556690Y-36548000D01*
X142323301Y-36644673D01*
X142144673Y-36823302D01*
X142113000Y-36899767D01*
X142081327Y-36823302D01*
X141902699Y-36644673D01*
X141669310Y-36548000D01*
X141128750Y-36548000D01*
X140970000Y-36706750D01*
X140716000Y-36706750D01*
X140557250Y-36548000D01*
X140300999Y-36548000D01*
X140300999Y-34232241D01*
X143756411Y-30776830D01*
X143821953Y-30733036D01*
X143865747Y-30667494D01*
X143865749Y-30667492D01*
X143915885Y-30592458D01*
X143995454Y-30473375D01*
X143996796Y-30466626D01*
X144003765Y-30465240D01*
X144213809Y-30324892D01*
X144354157Y-30114848D01*
X144403440Y-29867083D01*
X144403440Y-28080588D01*
X144513542Y-27915809D01*
X144526000Y-27853178D01*
X144538458Y-27915808D01*
X144833519Y-28357398D01*
X145275109Y-28652460D01*
X145796000Y-28756072D01*
X146316890Y-28652460D01*
X146758480Y-28357399D01*
X147053542Y-27915809D01*
X147066000Y-27853178D01*
X147078458Y-27915808D01*
X147188560Y-28080587D01*
X147188560Y-29867083D01*
X147237843Y-30114848D01*
X147378191Y-30324892D01*
X147588235Y-30465240D01*
X147836000Y-30514523D01*
X148836000Y-30514523D01*
X149083765Y-30465240D01*
X149293809Y-30324892D01*
X149434157Y-30114848D01*
X149483440Y-29867083D01*
X149483440Y-28080588D01*
X149593542Y-27915809D01*
X149606000Y-27853178D01*
X149618458Y-27915808D01*
X149618458Y-27915808D01*
G37*
X149618458Y-27915808D02*
X149913519Y-28357398D01*
X150091000Y-28475987D01*
X150091001Y-34906006D01*
X149781126Y-34906006D01*
X149400720Y-35063575D01*
X149109569Y-35354726D01*
X148952000Y-35735132D01*
X148952000Y-35795131D01*
X147270440Y-37476692D01*
X147270440Y-37426750D01*
X147202602Y-37085706D01*
X147009416Y-36796584D01*
X146720294Y-36603398D01*
X146379250Y-36535560D01*
X145466750Y-36535560D01*
X145125706Y-36603398D01*
X144836584Y-36796584D01*
X144696870Y-37005679D01*
X144621327Y-36823302D01*
X144442699Y-36644673D01*
X144209310Y-36548000D01*
X143668750Y-36548000D01*
X143510000Y-36706750D01*
X143510000Y-37543500D01*
X143530000Y-37543500D01*
X143530000Y-37797500D01*
X143510000Y-37797500D01*
X143510000Y-37817500D01*
X143256000Y-37817500D01*
X143256000Y-37797500D01*
X142206750Y-37797500D01*
X142113000Y-37891250D01*
X142019250Y-37797500D01*
X140970000Y-37797500D01*
X140970000Y-37817500D01*
X140716000Y-37817500D01*
X140716000Y-37797500D01*
X140696000Y-37797500D01*
X140696000Y-37543500D01*
X140716000Y-37543500D01*
X140716000Y-36706750D01*
X140970000Y-36706750D01*
X140970000Y-37543500D01*
X142019250Y-37543500D01*
X142113000Y-37449750D01*
X142206750Y-37543500D01*
X143256000Y-37543500D01*
X143256000Y-36706750D01*
X143097250Y-36548000D01*
X142556690Y-36548000D01*
X142323301Y-36644673D01*
X142144673Y-36823302D01*
X142113000Y-36899767D01*
X142081327Y-36823302D01*
X141902699Y-36644673D01*
X141669310Y-36548000D01*
X141128750Y-36548000D01*
X140970000Y-36706750D01*
X140716000Y-36706750D01*
X140557250Y-36548000D01*
X140300999Y-36548000D01*
X140300999Y-34232241D01*
X143756411Y-30776830D01*
X143821953Y-30733036D01*
X143865747Y-30667494D01*
X143865749Y-30667492D01*
X143915885Y-30592458D01*
X143995454Y-30473375D01*
X143996796Y-30466626D01*
X144003765Y-30465240D01*
X144213809Y-30324892D01*
X144354157Y-30114848D01*
X144403440Y-29867083D01*
X144403440Y-28080588D01*
X144513542Y-27915809D01*
X144526000Y-27853178D01*
X144538458Y-27915808D01*
X144833519Y-28357398D01*
X145275109Y-28652460D01*
X145796000Y-28756072D01*
X146316890Y-28652460D01*
X146758480Y-28357399D01*
X147053542Y-27915809D01*
X147066000Y-27853178D01*
X147078458Y-27915808D01*
X147188560Y-28080587D01*
X147188560Y-29867083D01*
X147237843Y-30114848D01*
X147378191Y-30324892D01*
X147588235Y-30465240D01*
X147836000Y-30514523D01*
X148836000Y-30514523D01*
X149083765Y-30465240D01*
X149293809Y-30324892D01*
X149434157Y-30114848D01*
X149483440Y-29867083D01*
X149483440Y-28080588D01*
X149593542Y-27915809D01*
X149606000Y-27853178D01*
X149618458Y-27915808D01*
G36*
X135176500Y-15875000D02*
X136603500Y-15875000D01*
X136603500Y-15855000D01*
X136857500Y-15855000D01*
X136857500Y-15875000D01*
X136877500Y-15875000D01*
X136877500Y-16129000D01*
X136857500Y-16129000D01*
X136857500Y-16149000D01*
X136603500Y-16149000D01*
X136603500Y-16129000D01*
X135176500Y-16129000D01*
X135176500Y-17178250D01*
X135335250Y-17337000D01*
X135663309Y-17337000D01*
X135890000Y-17243101D01*
X136116691Y-17337000D01*
X136205440Y-17337000D01*
X136166546Y-17395209D01*
X136121000Y-17624185D01*
X136121000Y-17624188D01*
X136105622Y-17701500D01*
X136121000Y-17778812D01*
X136121000Y-24019643D01*
X135136000Y-24019643D01*
X134888235Y-24068926D01*
X134678191Y-24209274D01*
X134537843Y-24419318D01*
X134488560Y-24667083D01*
X134488560Y-26409248D01*
X134378458Y-26574027D01*
X134366000Y-26636658D01*
X134353542Y-26574028D01*
X134058481Y-26132437D01*
X133616891Y-25837376D01*
X133096000Y-25733764D01*
X132575110Y-25837376D01*
X132541001Y-25860167D01*
X132541001Y-17745656D01*
X132937217Y-17349440D01*
X133418250Y-17349440D01*
X133759294Y-17281602D01*
X134048416Y-17088416D01*
X134049207Y-17087233D01*
X134202302Y-17240327D01*
X134435691Y-17337000D01*
X134763750Y-17337000D01*
X134922500Y-17178250D01*
X134922500Y-16129000D01*
X134902500Y-16129000D01*
X134902500Y-15875000D01*
X134922500Y-15875000D01*
X134922500Y-15855000D01*
X135176500Y-15855000D01*
X135176500Y-15875000D01*
X135176500Y-15875000D01*
G37*
X135176500Y-15875000D02*
X136603500Y-15875000D01*
X136603500Y-15855000D01*
X136857500Y-15855000D01*
X136857500Y-15875000D01*
X136877500Y-15875000D01*
X136877500Y-16129000D01*
X136857500Y-16129000D01*
X136857500Y-16149000D01*
X136603500Y-16149000D01*
X136603500Y-16129000D01*
X135176500Y-16129000D01*
X135176500Y-17178250D01*
X135335250Y-17337000D01*
X135663309Y-17337000D01*
X135890000Y-17243101D01*
X136116691Y-17337000D01*
X136205440Y-17337000D01*
X136166546Y-17395209D01*
X136121000Y-17624185D01*
X136121000Y-17624188D01*
X136105622Y-17701500D01*
X136121000Y-17778812D01*
X136121000Y-24019643D01*
X135136000Y-24019643D01*
X134888235Y-24068926D01*
X134678191Y-24209274D01*
X134537843Y-24419318D01*
X134488560Y-24667083D01*
X134488560Y-26409248D01*
X134378458Y-26574027D01*
X134366000Y-26636658D01*
X134353542Y-26574028D01*
X134058481Y-26132437D01*
X133616891Y-25837376D01*
X133096000Y-25733764D01*
X132575110Y-25837376D01*
X132541001Y-25860167D01*
X132541001Y-17745656D01*
X132937217Y-17349440D01*
X133418250Y-17349440D01*
X133759294Y-17281602D01*
X134048416Y-17088416D01*
X134049207Y-17087233D01*
X134202302Y-17240327D01*
X134435691Y-17337000D01*
X134763750Y-17337000D01*
X134922500Y-17178250D01*
X134922500Y-16129000D01*
X134902500Y-16129000D01*
X134902500Y-15875000D01*
X134922500Y-15875000D01*
X134922500Y-15855000D01*
X135176500Y-15855000D01*
X135176500Y-15875000D01*
G36*
X157933375Y-17580625D02*
X158156096Y-17729443D01*
X158217448Y-18037881D01*
X158278267Y-18128903D01*
X158402000Y-18314082D01*
X158471718Y-18360666D01*
X158946051Y-18835000D01*
X158876998Y-18835000D01*
X158876998Y-18993748D01*
X158718250Y-18835000D01*
X158027690Y-18835000D01*
X157794301Y-18931673D01*
X157615673Y-19110302D01*
X157549096Y-19271033D01*
X157534625Y-19249375D01*
X157043418Y-18921161D01*
X156610256Y-18835000D01*
X156317744Y-18835000D01*
X155884582Y-18921161D01*
X155393375Y-19249375D01*
X155065161Y-19740582D01*
X154949908Y-20320000D01*
X155065161Y-20899418D01*
X155393375Y-21390625D01*
X155884582Y-21718839D01*
X156317744Y-21805000D01*
X156610256Y-21805000D01*
X157043418Y-21718839D01*
X157534625Y-21390625D01*
X157549096Y-21368967D01*
X157615673Y-21529698D01*
X157794301Y-21708327D01*
X158027690Y-21805000D01*
X158718250Y-21805000D01*
X158877000Y-21646250D01*
X158877000Y-20447000D01*
X158857000Y-20447000D01*
X158857000Y-20193000D01*
X158877000Y-20193000D01*
X158877000Y-20173000D01*
X159131000Y-20173000D01*
X159131000Y-20193000D01*
X159151000Y-20193000D01*
X159151000Y-20447000D01*
X159131000Y-20447000D01*
X159131000Y-21646250D01*
X159289750Y-21805000D01*
X159419002Y-21805000D01*
X159419002Y-23991048D01*
X157847416Y-25562635D01*
X157712857Y-25764016D01*
X157548235Y-25796761D01*
X157338191Y-25937109D01*
X157197843Y-26147153D01*
X157148560Y-26394918D01*
X157148560Y-26476775D01*
X157103440Y-26409248D01*
X157103440Y-24667083D01*
X157054157Y-24419318D01*
X156913809Y-24209274D01*
X156703765Y-24068926D01*
X156456000Y-24019643D01*
X155456000Y-24019643D01*
X155208235Y-24068926D01*
X154998191Y-24209274D01*
X154857843Y-24419318D01*
X154808560Y-24667083D01*
X154808560Y-26409248D01*
X154698458Y-26574027D01*
X154686000Y-26636658D01*
X154673542Y-26574028D01*
X154378481Y-26132437D01*
X154201000Y-26013848D01*
X154201000Y-19883157D01*
X156127083Y-17957075D01*
X156317744Y-17995000D01*
X156610256Y-17995000D01*
X157043418Y-17908839D01*
X157534625Y-17580625D01*
X157734000Y-17282239D01*
X157933375Y-17580625D01*
X157933375Y-17580625D01*
G37*
X157933375Y-17580625D02*
X158156096Y-17729443D01*
X158217448Y-18037881D01*
X158278267Y-18128903D01*
X158402000Y-18314082D01*
X158471718Y-18360666D01*
X158946051Y-18835000D01*
X158876998Y-18835000D01*
X158876998Y-18993748D01*
X158718250Y-18835000D01*
X158027690Y-18835000D01*
X157794301Y-18931673D01*
X157615673Y-19110302D01*
X157549096Y-19271033D01*
X157534625Y-19249375D01*
X157043418Y-18921161D01*
X156610256Y-18835000D01*
X156317744Y-18835000D01*
X155884582Y-18921161D01*
X155393375Y-19249375D01*
X155065161Y-19740582D01*
X154949908Y-20320000D01*
X155065161Y-20899418D01*
X155393375Y-21390625D01*
X155884582Y-21718839D01*
X156317744Y-21805000D01*
X156610256Y-21805000D01*
X157043418Y-21718839D01*
X157534625Y-21390625D01*
X157549096Y-21368967D01*
X157615673Y-21529698D01*
X157794301Y-21708327D01*
X158027690Y-21805000D01*
X158718250Y-21805000D01*
X158877000Y-21646250D01*
X158877000Y-20447000D01*
X158857000Y-20447000D01*
X158857000Y-20193000D01*
X158877000Y-20193000D01*
X158877000Y-20173000D01*
X159131000Y-20173000D01*
X159131000Y-20193000D01*
X159151000Y-20193000D01*
X159151000Y-20447000D01*
X159131000Y-20447000D01*
X159131000Y-21646250D01*
X159289750Y-21805000D01*
X159419002Y-21805000D01*
X159419002Y-23991048D01*
X157847416Y-25562635D01*
X157712857Y-25764016D01*
X157548235Y-25796761D01*
X157338191Y-25937109D01*
X157197843Y-26147153D01*
X157148560Y-26394918D01*
X157148560Y-26476775D01*
X157103440Y-26409248D01*
X157103440Y-24667083D01*
X157054157Y-24419318D01*
X156913809Y-24209274D01*
X156703765Y-24068926D01*
X156456000Y-24019643D01*
X155456000Y-24019643D01*
X155208235Y-24068926D01*
X154998191Y-24209274D01*
X154857843Y-24419318D01*
X154808560Y-24667083D01*
X154808560Y-26409248D01*
X154698458Y-26574027D01*
X154686000Y-26636658D01*
X154673542Y-26574028D01*
X154378481Y-26132437D01*
X154201000Y-26013848D01*
X154201000Y-19883157D01*
X156127083Y-17957075D01*
X156317744Y-17995000D01*
X156610256Y-17995000D01*
X157043418Y-17908839D01*
X157534625Y-17580625D01*
X157734000Y-17282239D01*
X157933375Y-17580625D01*
G36*
X125603000Y-25490083D02*
X125623000Y-25490083D01*
X125623000Y-25744083D01*
X125603000Y-25744083D01*
X125603000Y-25764083D01*
X125349000Y-25764083D01*
X125349000Y-25744083D01*
X125329000Y-25744083D01*
X125329000Y-25490083D01*
X125349000Y-25490083D01*
X125349000Y-25470083D01*
X125603000Y-25470083D01*
X125603000Y-25490083D01*
X125603000Y-25490083D01*
G37*
X125603000Y-25490083D02*
X125623000Y-25490083D01*
X125623000Y-25744083D01*
X125603000Y-25744083D01*
X125603000Y-25764083D01*
X125349000Y-25764083D01*
X125349000Y-25744083D01*
X125329000Y-25744083D01*
X125329000Y-25490083D01*
X125349000Y-25490083D01*
X125349000Y-25470083D01*
X125603000Y-25470083D01*
X125603000Y-25490083D01*
G36*
X154051000Y-16383000D02*
X154071000Y-16383000D01*
X154071000Y-16637000D01*
X154051000Y-16637000D01*
X154051000Y-16657000D01*
X153797000Y-16657000D01*
X153797000Y-16637000D01*
X153777000Y-16637000D01*
X153777000Y-16383000D01*
X153797000Y-16383000D01*
X153797000Y-16363000D01*
X154051000Y-16363000D01*
X154051000Y-16383000D01*
X154051000Y-16383000D01*
G37*
X154051000Y-16383000D02*
X154071000Y-16383000D01*
X154071000Y-16637000D01*
X154051000Y-16637000D01*
X154051000Y-16657000D01*
X153797000Y-16657000D01*
X153797000Y-16637000D01*
X153777000Y-16637000D01*
X153777000Y-16383000D01*
X153797000Y-16383000D01*
X153797000Y-16363000D01*
X154051000Y-16363000D01*
X154051000Y-16383000D01*
G36*
X148971000Y-16383000D02*
X148991000Y-16383000D01*
X148991000Y-16637000D01*
X148971000Y-16637000D01*
X148971000Y-16657000D01*
X148717000Y-16657000D01*
X148717000Y-16637000D01*
X148697000Y-16637000D01*
X148697000Y-16383000D01*
X148717000Y-16383000D01*
X148717000Y-16363000D01*
X148971000Y-16363000D01*
X148971000Y-16383000D01*
X148971000Y-16383000D01*
G37*
X148971000Y-16383000D02*
X148991000Y-16383000D01*
X148991000Y-16637000D01*
X148971000Y-16637000D01*
X148971000Y-16657000D01*
X148717000Y-16657000D01*
X148717000Y-16637000D01*
X148697000Y-16637000D01*
X148697000Y-16383000D01*
X148717000Y-16383000D01*
X148717000Y-16363000D01*
X148971000Y-16363000D01*
X148971000Y-16383000D01*
G36*
X123063000Y-16383000D02*
X123083000Y-16383000D01*
X123083000Y-16637000D01*
X123063000Y-16637000D01*
X123063000Y-16657000D01*
X122809000Y-16657000D01*
X122809000Y-16637000D01*
X122789000Y-16637000D01*
X122789000Y-16383000D01*
X122809000Y-16383000D01*
X122809000Y-16363000D01*
X123063000Y-16363000D01*
X123063000Y-16383000D01*
X123063000Y-16383000D01*
G37*
X123063000Y-16383000D02*
X123083000Y-16383000D01*
X123083000Y-16637000D01*
X123063000Y-16637000D01*
X123063000Y-16657000D01*
X122809000Y-16657000D01*
X122809000Y-16637000D01*
X122789000Y-16637000D01*
X122789000Y-16383000D01*
X122809000Y-16383000D01*
X122809000Y-16363000D01*
X123063000Y-16363000D01*
X123063000Y-16383000D01*
G04 #@! TD*
M02*
