G04 #@! TF.GenerationSoftware,KiCad,Pcbnew,(5.0.1)-3*
G04 #@! TF.CreationDate,2018-10-23T00:57:20+09:00*
G04 #@! TF.ProjectId,badge,62616467652E6B696361645F70636200,rev?*
G04 #@! TF.SameCoordinates,Original*
G04 #@! TF.FileFunction,Legend,Top*
G04 #@! TF.FilePolarity,Positive*
%FSLAX46Y46*%
G04 Gerber Fmt 4.6, Leading zero omitted, Abs format (unit mm)*
G04 Created by KiCad (PCBNEW (5.0.1)-3) date 2018-10-23 오전 12:57:20*
%MOMM*%
%LPD*%
G01*
G04 APERTURE LIST*
%ADD10C,0.127000*%
%ADD11C,0.120000*%
%ADD12C,0.050000*%
%ADD13C,0.150000*%
G04 APERTURE END LIST*
D10*
G04 #@! TO.C,U1*
X161870000Y-52050000D02*
X107470000Y-52050000D01*
X107470000Y-52050000D02*
X107470000Y-24150000D01*
X107470000Y-24150000D02*
X161870000Y-24150000D01*
X161870000Y-24150000D02*
X161870000Y-52050000D01*
D11*
G04 #@! TO.C,J1*
X194340000Y-68580000D02*
X194340000Y-67090000D01*
X194340000Y-67090000D02*
X193000000Y-67090000D01*
X194340000Y-88900000D02*
X194340000Y-90390000D01*
X194340000Y-90390000D02*
X193000000Y-90390000D01*
X190280000Y-67090000D02*
X188540000Y-67090000D01*
X188540000Y-67090000D02*
X188540000Y-90390000D01*
X188540000Y-90390000D02*
X190280000Y-90390000D01*
X194340000Y-68580000D02*
X195540000Y-68580000D01*
G04 #@! TO.C,U1*
D12*
X105626167Y-50326601D02*
X106436006Y-50326601D01*
X106531282Y-50278964D01*
X106578919Y-50231326D01*
X106626557Y-50136051D01*
X106626557Y-49945500D01*
X106578919Y-49850225D01*
X106531282Y-49802588D01*
X106436006Y-49754950D01*
X105626167Y-49754950D01*
X106626557Y-48754560D02*
X106626557Y-49326211D01*
X106626557Y-49040386D02*
X105626167Y-49040386D01*
X105769080Y-49135661D01*
X105864355Y-49230936D01*
X105911993Y-49326211D01*
X162842996Y-56777858D02*
X162842996Y-56444175D01*
X163367355Y-56301167D02*
X163367355Y-56777858D01*
X162366305Y-56777858D01*
X162366305Y-56301167D01*
X163319686Y-55919815D02*
X163367355Y-55776808D01*
X163367355Y-55538463D01*
X163319686Y-55443125D01*
X163272017Y-55395455D01*
X163176679Y-55347786D01*
X163081341Y-55347786D01*
X162986003Y-55395455D01*
X162938334Y-55443125D01*
X162890665Y-55538463D01*
X162842996Y-55729139D01*
X162795327Y-55824477D01*
X162747658Y-55872146D01*
X162652320Y-55919815D01*
X162556982Y-55919815D01*
X162461644Y-55872146D01*
X162413975Y-55824477D01*
X162366305Y-55729139D01*
X162366305Y-55490794D01*
X162413975Y-55347786D01*
X163367355Y-54918765D02*
X162366305Y-54918765D01*
X162366305Y-54537413D01*
X162413975Y-54442075D01*
X162461644Y-54394405D01*
X162556982Y-54346736D01*
X162699989Y-54346736D01*
X162795327Y-54394405D01*
X162842996Y-54442075D01*
X162890665Y-54537413D01*
X162890665Y-54918765D01*
X162366305Y-54013053D02*
X162366305Y-53393355D01*
X162747658Y-53727039D01*
X162747658Y-53584032D01*
X162795327Y-53488694D01*
X162842996Y-53441025D01*
X162938334Y-53393355D01*
X163176679Y-53393355D01*
X163272017Y-53441025D01*
X163319686Y-53488694D01*
X163367355Y-53584032D01*
X163367355Y-53870046D01*
X163319686Y-53965384D01*
X163272017Y-54013053D01*
X162461644Y-53012003D02*
X162413975Y-52964334D01*
X162366305Y-52868996D01*
X162366305Y-52630651D01*
X162413975Y-52535313D01*
X162461644Y-52487644D01*
X162556982Y-52439975D01*
X162652320Y-52439975D01*
X162795327Y-52487644D01*
X163367355Y-53059672D01*
X163367355Y-52439975D01*
X162986003Y-52010953D02*
X162986003Y-51248248D01*
X163367355Y-50771558D02*
X162366305Y-50771558D01*
X162366305Y-50533213D01*
X162413975Y-50390205D01*
X162509313Y-50294867D01*
X162604651Y-50247198D01*
X162795327Y-50199529D01*
X162938334Y-50199529D01*
X163129010Y-50247198D01*
X163224348Y-50294867D01*
X163319686Y-50390205D01*
X163367355Y-50533213D01*
X163367355Y-50771558D01*
X162842996Y-49770508D02*
X162842996Y-49436825D01*
X163367355Y-49293817D02*
X163367355Y-49770508D01*
X162366305Y-49770508D01*
X162366305Y-49293817D01*
X162366305Y-49007803D02*
X163367355Y-48674120D01*
X162366305Y-48340436D01*
X163367355Y-48006753D02*
X162366305Y-48006753D01*
X163367355Y-47434725D02*
X162795327Y-47863746D01*
X162366305Y-47434725D02*
X162938334Y-48006753D01*
X163367355Y-47005703D02*
X162366305Y-47005703D01*
X162366305Y-46672020D02*
X162366305Y-46099991D01*
X163367355Y-46386005D02*
X162366305Y-46386005D01*
X163272017Y-45194279D02*
X163319686Y-45241948D01*
X163367355Y-45384955D01*
X163367355Y-45480294D01*
X163319686Y-45623301D01*
X163224348Y-45718639D01*
X163129010Y-45766308D01*
X162938334Y-45813977D01*
X162795327Y-45813977D01*
X162604651Y-45766308D01*
X162509313Y-45718639D01*
X162413975Y-45623301D01*
X162366305Y-45480294D01*
X162366305Y-45384955D01*
X162413975Y-45241948D01*
X162461644Y-45194279D01*
X162986003Y-44765258D02*
X162986003Y-44002553D01*
X162366305Y-43621201D02*
X162366305Y-43001503D01*
X162747658Y-43335186D01*
X162747658Y-43192179D01*
X162795327Y-43096841D01*
X162842996Y-43049172D01*
X162938334Y-43001503D01*
X163176679Y-43001503D01*
X163272017Y-43049172D01*
X163319686Y-43096841D01*
X163367355Y-43192179D01*
X163367355Y-43478194D01*
X163319686Y-43573532D01*
X163272017Y-43621201D01*
X162461644Y-42620151D02*
X162413975Y-42572482D01*
X162366305Y-42477144D01*
X162366305Y-42238798D01*
X162413975Y-42143460D01*
X162461644Y-42095791D01*
X162556982Y-42048122D01*
X162652320Y-42048122D01*
X162795327Y-42095791D01*
X163367355Y-42667820D01*
X163367355Y-42048122D01*
X163367355Y-41619101D02*
X162366305Y-41619101D01*
X162366305Y-41380755D01*
X162413975Y-41237748D01*
X162509313Y-41142410D01*
X162604651Y-41094741D01*
X162795327Y-41047072D01*
X162938334Y-41047072D01*
X163129010Y-41094741D01*
X163224348Y-41142410D01*
X163319686Y-41237748D01*
X163367355Y-41380755D01*
X163367355Y-41619101D01*
G04 #@! TO.C,J1*
D13*
X196192380Y-79073333D02*
X196906666Y-79073333D01*
X197049523Y-79120952D01*
X197144761Y-79216190D01*
X197192380Y-79359047D01*
X197192380Y-79454285D01*
X197192380Y-78073333D02*
X197192380Y-78644761D01*
X197192380Y-78359047D02*
X196192380Y-78359047D01*
X196335238Y-78454285D01*
X196430476Y-78549523D01*
X196478095Y-78644761D01*
G04 #@! TD*
M02*
