M48
;DRILL file {KiCad (5.0.1)-3} date 2018-10-29 오후 9:17:48
;FORMAT={-:-/ absolute / metric / decimal}
FMAT,2
METRIC,TZ
T1C0.400
T2C1.000
%
G90
G05
M71
T1
X113.03Y-62.611
X116.713Y-62.611
X119.126Y-105.283
X120.777Y-62.611
X125.603Y-62.611
X130.937Y-40.132
X137.541Y-46.609
X155.829Y-72.898
X155.829Y-75.819
X163.576Y-77.47
X163.576Y-84.709
X165.1Y-59.944
X167.259Y-91.694
X173.228Y-38.354
X173.609Y-59.944
X174.498Y-62.103
X175.768Y-62.103
X180.34Y-51.308
X180.594Y-44.958
X183.388Y-54.356
X184.15Y-48.514
X194.818Y-99.822
X196.596Y-76.454
T2
X171.604Y-22.875
X174.144Y-22.875
X176.684Y-22.875
X179.224Y-22.875
X171.604Y-17.795
X174.144Y-17.795
X176.684Y-17.795
X179.224Y-17.795
X171.604Y-20.335
X174.144Y-20.335
X176.684Y-20.335
X179.224Y-20.335
X148.299Y-17.801
X150.839Y-17.801
X153.379Y-17.801
X155.919Y-17.801
X158.459Y-17.801
X160.999Y-17.801
X130.452Y-55.925
X132.992Y-55.925
X135.532Y-55.925
X138.072Y-55.925
X140.612Y-55.925
X143.152Y-55.925
X145.692Y-55.925
X148.232Y-55.925
X150.772Y-55.925
X153.312Y-55.925
X155.852Y-55.925
X158.392Y-55.925
X160.932Y-55.925
X163.472Y-55.925
X166.012Y-55.925
X168.552Y-55.925
X171.092Y-55.925
X173.632Y-55.925
X176.172Y-55.925
X148.299Y-20.341
X150.839Y-20.341
X153.379Y-20.341
X155.919Y-20.341
X158.459Y-20.341
X160.999Y-20.341
X130.452Y-30.525
X132.992Y-30.525
X135.532Y-30.525
X138.072Y-30.525
X140.612Y-30.525
X143.152Y-30.525
X145.692Y-30.525
X148.232Y-30.525
X150.772Y-30.525
X153.312Y-30.525
X155.852Y-30.525
X158.392Y-30.525
X160.932Y-30.525
X163.472Y-30.525
X166.012Y-30.525
X168.552Y-30.525
X171.092Y-30.525
X173.632Y-30.525
X176.172Y-30.525
X148.299Y-22.881
X150.839Y-22.881
X153.379Y-22.881
X155.919Y-22.881
X158.459Y-22.881
X160.999Y-22.881
T0
M30
