G04 #@! TF.GenerationSoftware,KiCad,Pcbnew,(5.0.1)-3*
G04 #@! TF.CreationDate,2018-11-05T12:52:08+09:00*
G04 #@! TF.ProjectId,badge,62616467652E6B696361645F70636200,rev?*
G04 #@! TF.SameCoordinates,Original*
G04 #@! TF.FileFunction,Soldermask,Top*
G04 #@! TF.FilePolarity,Negative*
%FSLAX46Y46*%
G04 Gerber Fmt 4.6, Leading zero omitted, Abs format (unit mm)*
G04 Created by KiCad (PCBNEW (5.0.1)-3) date 2018-11-05 오후 12:52:08*
%MOMM*%
%LPD*%
G01*
G04 APERTURE LIST*
%ADD10C,0.100000*%
G04 APERTURE END LIST*
D10*
G36*
X165989941Y-134226248D02*
X165989943Y-134226249D01*
X165989944Y-134226249D01*
X166545190Y-134456239D01*
X166545191Y-134456240D01*
X167044902Y-134790136D01*
X167469864Y-135215098D01*
X167469866Y-135215101D01*
X167803761Y-135714810D01*
X168033751Y-136270056D01*
X168151000Y-136859503D01*
X168151000Y-137460497D01*
X168033751Y-138049944D01*
X167803761Y-138605190D01*
X167474367Y-139098162D01*
X167469864Y-139104902D01*
X167044902Y-139529864D01*
X167044899Y-139529866D01*
X166545190Y-139863761D01*
X165989944Y-140093751D01*
X165989943Y-140093751D01*
X165989941Y-140093752D01*
X165400499Y-140211000D01*
X164799501Y-140211000D01*
X164210059Y-140093752D01*
X164210057Y-140093751D01*
X164210056Y-140093751D01*
X163654810Y-139863761D01*
X163155101Y-139529866D01*
X163155098Y-139529864D01*
X162730136Y-139104902D01*
X162725633Y-139098162D01*
X162396239Y-138605190D01*
X162166249Y-138049944D01*
X162049000Y-137460497D01*
X162049000Y-136859503D01*
X162166249Y-136270056D01*
X162396239Y-135714810D01*
X162730134Y-135215101D01*
X162730136Y-135215098D01*
X163155098Y-134790136D01*
X163654809Y-134456240D01*
X163654810Y-134456239D01*
X164210056Y-134226249D01*
X164210057Y-134226249D01*
X164210059Y-134226248D01*
X164799501Y-134109000D01*
X165400499Y-134109000D01*
X165989941Y-134226248D01*
X165989941Y-134226248D01*
G37*
G36*
X107569941Y-134226248D02*
X107569943Y-134226249D01*
X107569944Y-134226249D01*
X108125190Y-134456239D01*
X108125191Y-134456240D01*
X108624902Y-134790136D01*
X109049864Y-135215098D01*
X109049866Y-135215101D01*
X109383761Y-135714810D01*
X109613751Y-136270056D01*
X109731000Y-136859503D01*
X109731000Y-137460497D01*
X109613751Y-138049944D01*
X109383761Y-138605190D01*
X109054367Y-139098162D01*
X109049864Y-139104902D01*
X108624902Y-139529864D01*
X108624899Y-139529866D01*
X108125190Y-139863761D01*
X107569944Y-140093751D01*
X107569943Y-140093751D01*
X107569941Y-140093752D01*
X106980499Y-140211000D01*
X106379501Y-140211000D01*
X105790059Y-140093752D01*
X105790057Y-140093751D01*
X105790056Y-140093751D01*
X105234810Y-139863761D01*
X104735101Y-139529866D01*
X104735098Y-139529864D01*
X104310136Y-139104902D01*
X104305633Y-139098162D01*
X103976239Y-138605190D01*
X103746249Y-138049944D01*
X103629000Y-137460497D01*
X103629000Y-136859503D01*
X103746249Y-136270056D01*
X103976239Y-135714810D01*
X104310134Y-135215101D01*
X104310136Y-135215098D01*
X104735098Y-134790136D01*
X105234809Y-134456240D01*
X105234810Y-134456239D01*
X105790056Y-134226249D01*
X105790057Y-134226249D01*
X105790059Y-134226248D01*
X106379501Y-134109000D01*
X106980499Y-134109000D01*
X107569941Y-134226248D01*
X107569941Y-134226248D01*
G37*
G36*
X117610812Y-138071624D02*
X117774784Y-138139544D01*
X117922354Y-138238147D01*
X118047853Y-138363646D01*
X118146456Y-138511216D01*
X118214376Y-138675188D01*
X118249000Y-138849259D01*
X118249000Y-139026741D01*
X118214376Y-139200812D01*
X118146456Y-139364784D01*
X118047853Y-139512354D01*
X117922354Y-139637853D01*
X117774784Y-139736456D01*
X117610812Y-139804376D01*
X117436741Y-139839000D01*
X117259259Y-139839000D01*
X117085188Y-139804376D01*
X116921216Y-139736456D01*
X116773646Y-139637853D01*
X116648147Y-139512354D01*
X116549544Y-139364784D01*
X116481624Y-139200812D01*
X116447000Y-139026741D01*
X116447000Y-138849259D01*
X116481624Y-138675188D01*
X116549544Y-138511216D01*
X116648147Y-138363646D01*
X116773646Y-138238147D01*
X116921216Y-138139544D01*
X117085188Y-138071624D01*
X117259259Y-138037000D01*
X117436741Y-138037000D01*
X117610812Y-138071624D01*
X117610812Y-138071624D01*
G37*
G36*
X133206442Y-138043518D02*
X133272627Y-138050037D01*
X133385853Y-138084384D01*
X133442467Y-138101557D01*
X133581087Y-138175652D01*
X133598991Y-138185222D01*
X133634729Y-138214552D01*
X133736186Y-138297814D01*
X133819448Y-138399271D01*
X133848778Y-138435009D01*
X133848779Y-138435011D01*
X133932443Y-138591533D01*
X133936586Y-138605191D01*
X133983963Y-138761373D01*
X134001359Y-138938000D01*
X133983963Y-139114627D01*
X133957819Y-139200812D01*
X133932443Y-139284467D01*
X133889513Y-139364782D01*
X133848778Y-139440991D01*
X133819448Y-139476729D01*
X133736186Y-139578186D01*
X133663480Y-139637853D01*
X133598991Y-139690778D01*
X133598989Y-139690779D01*
X133442467Y-139774443D01*
X133385853Y-139791616D01*
X133272627Y-139825963D01*
X133206443Y-139832481D01*
X133140260Y-139839000D01*
X133051740Y-139839000D01*
X132985557Y-139832481D01*
X132919373Y-139825963D01*
X132806147Y-139791616D01*
X132749533Y-139774443D01*
X132593011Y-139690779D01*
X132593009Y-139690778D01*
X132528520Y-139637853D01*
X132455814Y-139578186D01*
X132372552Y-139476729D01*
X132343222Y-139440991D01*
X132302487Y-139364782D01*
X132259557Y-139284467D01*
X132234181Y-139200812D01*
X132208037Y-139114627D01*
X132190641Y-138938000D01*
X132208037Y-138761373D01*
X132255414Y-138605191D01*
X132259557Y-138591533D01*
X132343221Y-138435011D01*
X132343222Y-138435009D01*
X132372552Y-138399271D01*
X132455814Y-138297814D01*
X132557271Y-138214552D01*
X132593009Y-138185222D01*
X132610913Y-138175652D01*
X132749533Y-138101557D01*
X132806147Y-138084384D01*
X132919373Y-138050037D01*
X132985558Y-138043518D01*
X133051740Y-138037000D01*
X133140260Y-138037000D01*
X133206442Y-138043518D01*
X133206442Y-138043518D01*
G37*
G36*
X135746442Y-138043518D02*
X135812627Y-138050037D01*
X135925853Y-138084384D01*
X135982467Y-138101557D01*
X136121087Y-138175652D01*
X136138991Y-138185222D01*
X136174729Y-138214552D01*
X136276186Y-138297814D01*
X136359448Y-138399271D01*
X136388778Y-138435009D01*
X136388779Y-138435011D01*
X136472443Y-138591533D01*
X136476586Y-138605191D01*
X136523963Y-138761373D01*
X136541359Y-138938000D01*
X136523963Y-139114627D01*
X136497819Y-139200812D01*
X136472443Y-139284467D01*
X136429513Y-139364782D01*
X136388778Y-139440991D01*
X136359448Y-139476729D01*
X136276186Y-139578186D01*
X136203480Y-139637853D01*
X136138991Y-139690778D01*
X136138989Y-139690779D01*
X135982467Y-139774443D01*
X135925853Y-139791616D01*
X135812627Y-139825963D01*
X135746443Y-139832481D01*
X135680260Y-139839000D01*
X135591740Y-139839000D01*
X135525557Y-139832481D01*
X135459373Y-139825963D01*
X135346147Y-139791616D01*
X135289533Y-139774443D01*
X135133011Y-139690779D01*
X135133009Y-139690778D01*
X135068520Y-139637853D01*
X134995814Y-139578186D01*
X134912552Y-139476729D01*
X134883222Y-139440991D01*
X134842487Y-139364782D01*
X134799557Y-139284467D01*
X134774181Y-139200812D01*
X134748037Y-139114627D01*
X134730641Y-138938000D01*
X134748037Y-138761373D01*
X134795414Y-138605191D01*
X134799557Y-138591533D01*
X134883221Y-138435011D01*
X134883222Y-138435009D01*
X134912552Y-138399271D01*
X134995814Y-138297814D01*
X135097271Y-138214552D01*
X135133009Y-138185222D01*
X135150913Y-138175652D01*
X135289533Y-138101557D01*
X135346147Y-138084384D01*
X135459373Y-138050037D01*
X135525558Y-138043518D01*
X135591740Y-138037000D01*
X135680260Y-138037000D01*
X135746442Y-138043518D01*
X135746442Y-138043518D01*
G37*
G36*
X138286442Y-138043518D02*
X138352627Y-138050037D01*
X138465853Y-138084384D01*
X138522467Y-138101557D01*
X138661087Y-138175652D01*
X138678991Y-138185222D01*
X138714729Y-138214552D01*
X138816186Y-138297814D01*
X138899448Y-138399271D01*
X138928778Y-138435009D01*
X138928779Y-138435011D01*
X139012443Y-138591533D01*
X139016586Y-138605191D01*
X139063963Y-138761373D01*
X139081359Y-138938000D01*
X139063963Y-139114627D01*
X139037819Y-139200812D01*
X139012443Y-139284467D01*
X138969513Y-139364782D01*
X138928778Y-139440991D01*
X138899448Y-139476729D01*
X138816186Y-139578186D01*
X138743480Y-139637853D01*
X138678991Y-139690778D01*
X138678989Y-139690779D01*
X138522467Y-139774443D01*
X138465853Y-139791616D01*
X138352627Y-139825963D01*
X138286443Y-139832481D01*
X138220260Y-139839000D01*
X138131740Y-139839000D01*
X138065557Y-139832481D01*
X137999373Y-139825963D01*
X137886147Y-139791616D01*
X137829533Y-139774443D01*
X137673011Y-139690779D01*
X137673009Y-139690778D01*
X137608520Y-139637853D01*
X137535814Y-139578186D01*
X137452552Y-139476729D01*
X137423222Y-139440991D01*
X137382487Y-139364782D01*
X137339557Y-139284467D01*
X137314181Y-139200812D01*
X137288037Y-139114627D01*
X137270641Y-138938000D01*
X137288037Y-138761373D01*
X137335414Y-138605191D01*
X137339557Y-138591533D01*
X137423221Y-138435011D01*
X137423222Y-138435009D01*
X137452552Y-138399271D01*
X137535814Y-138297814D01*
X137637271Y-138214552D01*
X137673009Y-138185222D01*
X137690913Y-138175652D01*
X137829533Y-138101557D01*
X137886147Y-138084384D01*
X137999373Y-138050037D01*
X138065558Y-138043518D01*
X138131740Y-138037000D01*
X138220260Y-138037000D01*
X138286442Y-138043518D01*
X138286442Y-138043518D01*
G37*
G36*
X125078442Y-138043518D02*
X125144627Y-138050037D01*
X125257853Y-138084384D01*
X125314467Y-138101557D01*
X125453087Y-138175652D01*
X125470991Y-138185222D01*
X125506729Y-138214552D01*
X125608186Y-138297814D01*
X125691448Y-138399271D01*
X125720778Y-138435009D01*
X125720779Y-138435011D01*
X125804443Y-138591533D01*
X125808586Y-138605191D01*
X125855963Y-138761373D01*
X125873359Y-138938000D01*
X125855963Y-139114627D01*
X125829819Y-139200812D01*
X125804443Y-139284467D01*
X125761513Y-139364782D01*
X125720778Y-139440991D01*
X125691448Y-139476729D01*
X125608186Y-139578186D01*
X125535480Y-139637853D01*
X125470991Y-139690778D01*
X125470989Y-139690779D01*
X125314467Y-139774443D01*
X125257853Y-139791616D01*
X125144627Y-139825963D01*
X125078443Y-139832481D01*
X125012260Y-139839000D01*
X124923740Y-139839000D01*
X124857557Y-139832481D01*
X124791373Y-139825963D01*
X124678147Y-139791616D01*
X124621533Y-139774443D01*
X124465011Y-139690779D01*
X124465009Y-139690778D01*
X124400520Y-139637853D01*
X124327814Y-139578186D01*
X124244552Y-139476729D01*
X124215222Y-139440991D01*
X124174487Y-139364782D01*
X124131557Y-139284467D01*
X124106181Y-139200812D01*
X124080037Y-139114627D01*
X124062641Y-138938000D01*
X124080037Y-138761373D01*
X124127414Y-138605191D01*
X124131557Y-138591533D01*
X124215221Y-138435011D01*
X124215222Y-138435009D01*
X124244552Y-138399271D01*
X124327814Y-138297814D01*
X124429271Y-138214552D01*
X124465009Y-138185222D01*
X124482913Y-138175652D01*
X124621533Y-138101557D01*
X124678147Y-138084384D01*
X124791373Y-138050037D01*
X124857558Y-138043518D01*
X124923740Y-138037000D01*
X125012260Y-138037000D01*
X125078442Y-138043518D01*
X125078442Y-138043518D01*
G37*
G36*
X122538442Y-138043518D02*
X122604627Y-138050037D01*
X122717853Y-138084384D01*
X122774467Y-138101557D01*
X122913087Y-138175652D01*
X122930991Y-138185222D01*
X122966729Y-138214552D01*
X123068186Y-138297814D01*
X123151448Y-138399271D01*
X123180778Y-138435009D01*
X123180779Y-138435011D01*
X123264443Y-138591533D01*
X123268586Y-138605191D01*
X123315963Y-138761373D01*
X123333359Y-138938000D01*
X123315963Y-139114627D01*
X123289819Y-139200812D01*
X123264443Y-139284467D01*
X123221513Y-139364782D01*
X123180778Y-139440991D01*
X123151448Y-139476729D01*
X123068186Y-139578186D01*
X122995480Y-139637853D01*
X122930991Y-139690778D01*
X122930989Y-139690779D01*
X122774467Y-139774443D01*
X122717853Y-139791616D01*
X122604627Y-139825963D01*
X122538443Y-139832481D01*
X122472260Y-139839000D01*
X122383740Y-139839000D01*
X122317557Y-139832481D01*
X122251373Y-139825963D01*
X122138147Y-139791616D01*
X122081533Y-139774443D01*
X121925011Y-139690779D01*
X121925009Y-139690778D01*
X121860520Y-139637853D01*
X121787814Y-139578186D01*
X121704552Y-139476729D01*
X121675222Y-139440991D01*
X121634487Y-139364782D01*
X121591557Y-139284467D01*
X121566181Y-139200812D01*
X121540037Y-139114627D01*
X121522641Y-138938000D01*
X121540037Y-138761373D01*
X121587414Y-138605191D01*
X121591557Y-138591533D01*
X121675221Y-138435011D01*
X121675222Y-138435009D01*
X121704552Y-138399271D01*
X121787814Y-138297814D01*
X121889271Y-138214552D01*
X121925009Y-138185222D01*
X121942913Y-138175652D01*
X122081533Y-138101557D01*
X122138147Y-138084384D01*
X122251373Y-138050037D01*
X122317558Y-138043518D01*
X122383740Y-138037000D01*
X122472260Y-138037000D01*
X122538442Y-138043518D01*
X122538442Y-138043518D01*
G37*
G36*
X119998442Y-138043518D02*
X120064627Y-138050037D01*
X120177853Y-138084384D01*
X120234467Y-138101557D01*
X120373087Y-138175652D01*
X120390991Y-138185222D01*
X120426729Y-138214552D01*
X120528186Y-138297814D01*
X120611448Y-138399271D01*
X120640778Y-138435009D01*
X120640779Y-138435011D01*
X120724443Y-138591533D01*
X120728586Y-138605191D01*
X120775963Y-138761373D01*
X120793359Y-138938000D01*
X120775963Y-139114627D01*
X120749819Y-139200812D01*
X120724443Y-139284467D01*
X120681513Y-139364782D01*
X120640778Y-139440991D01*
X120611448Y-139476729D01*
X120528186Y-139578186D01*
X120455480Y-139637853D01*
X120390991Y-139690778D01*
X120390989Y-139690779D01*
X120234467Y-139774443D01*
X120177853Y-139791616D01*
X120064627Y-139825963D01*
X119998443Y-139832481D01*
X119932260Y-139839000D01*
X119843740Y-139839000D01*
X119777557Y-139832481D01*
X119711373Y-139825963D01*
X119598147Y-139791616D01*
X119541533Y-139774443D01*
X119385011Y-139690779D01*
X119385009Y-139690778D01*
X119320520Y-139637853D01*
X119247814Y-139578186D01*
X119164552Y-139476729D01*
X119135222Y-139440991D01*
X119094487Y-139364782D01*
X119051557Y-139284467D01*
X119026181Y-139200812D01*
X119000037Y-139114627D01*
X118982641Y-138938000D01*
X119000037Y-138761373D01*
X119047414Y-138605191D01*
X119051557Y-138591533D01*
X119135221Y-138435011D01*
X119135222Y-138435009D01*
X119164552Y-138399271D01*
X119247814Y-138297814D01*
X119349271Y-138214552D01*
X119385009Y-138185222D01*
X119402913Y-138175652D01*
X119541533Y-138101557D01*
X119598147Y-138084384D01*
X119711373Y-138050037D01*
X119777558Y-138043518D01*
X119843740Y-138037000D01*
X119932260Y-138037000D01*
X119998442Y-138043518D01*
X119998442Y-138043518D01*
G37*
G36*
X114918442Y-138043518D02*
X114984627Y-138050037D01*
X115097853Y-138084384D01*
X115154467Y-138101557D01*
X115293087Y-138175652D01*
X115310991Y-138185222D01*
X115346729Y-138214552D01*
X115448186Y-138297814D01*
X115531448Y-138399271D01*
X115560778Y-138435009D01*
X115560779Y-138435011D01*
X115644443Y-138591533D01*
X115648586Y-138605191D01*
X115695963Y-138761373D01*
X115713359Y-138938000D01*
X115695963Y-139114627D01*
X115669819Y-139200812D01*
X115644443Y-139284467D01*
X115601513Y-139364782D01*
X115560778Y-139440991D01*
X115531448Y-139476729D01*
X115448186Y-139578186D01*
X115375480Y-139637853D01*
X115310991Y-139690778D01*
X115310989Y-139690779D01*
X115154467Y-139774443D01*
X115097853Y-139791616D01*
X114984627Y-139825963D01*
X114918443Y-139832481D01*
X114852260Y-139839000D01*
X114763740Y-139839000D01*
X114697557Y-139832481D01*
X114631373Y-139825963D01*
X114518147Y-139791616D01*
X114461533Y-139774443D01*
X114305011Y-139690779D01*
X114305009Y-139690778D01*
X114240520Y-139637853D01*
X114167814Y-139578186D01*
X114084552Y-139476729D01*
X114055222Y-139440991D01*
X114014487Y-139364782D01*
X113971557Y-139284467D01*
X113946181Y-139200812D01*
X113920037Y-139114627D01*
X113902641Y-138938000D01*
X113920037Y-138761373D01*
X113967414Y-138605191D01*
X113971557Y-138591533D01*
X114055221Y-138435011D01*
X114055222Y-138435009D01*
X114084552Y-138399271D01*
X114167814Y-138297814D01*
X114269271Y-138214552D01*
X114305009Y-138185222D01*
X114322913Y-138175652D01*
X114461533Y-138101557D01*
X114518147Y-138084384D01*
X114631373Y-138050037D01*
X114697558Y-138043518D01*
X114763740Y-138037000D01*
X114852260Y-138037000D01*
X114918442Y-138043518D01*
X114918442Y-138043518D01*
G37*
G36*
X145550812Y-138071624D02*
X145714784Y-138139544D01*
X145862354Y-138238147D01*
X145987853Y-138363646D01*
X146086456Y-138511216D01*
X146154376Y-138675188D01*
X146189000Y-138849259D01*
X146189000Y-139026741D01*
X146154376Y-139200812D01*
X146086456Y-139364784D01*
X145987853Y-139512354D01*
X145862354Y-139637853D01*
X145714784Y-139736456D01*
X145550812Y-139804376D01*
X145376741Y-139839000D01*
X145199259Y-139839000D01*
X145025188Y-139804376D01*
X144861216Y-139736456D01*
X144713646Y-139637853D01*
X144588147Y-139512354D01*
X144489544Y-139364784D01*
X144421624Y-139200812D01*
X144387000Y-139026741D01*
X144387000Y-138849259D01*
X144421624Y-138675188D01*
X144489544Y-138511216D01*
X144588147Y-138363646D01*
X144713646Y-138238147D01*
X144861216Y-138139544D01*
X145025188Y-138071624D01*
X145199259Y-138037000D01*
X145376741Y-138037000D01*
X145550812Y-138071624D01*
X145550812Y-138071624D01*
G37*
G36*
X147938442Y-138043518D02*
X148004627Y-138050037D01*
X148117853Y-138084384D01*
X148174467Y-138101557D01*
X148313087Y-138175652D01*
X148330991Y-138185222D01*
X148366729Y-138214552D01*
X148468186Y-138297814D01*
X148551448Y-138399271D01*
X148580778Y-138435009D01*
X148580779Y-138435011D01*
X148664443Y-138591533D01*
X148668586Y-138605191D01*
X148715963Y-138761373D01*
X148733359Y-138938000D01*
X148715963Y-139114627D01*
X148689819Y-139200812D01*
X148664443Y-139284467D01*
X148621513Y-139364782D01*
X148580778Y-139440991D01*
X148551448Y-139476729D01*
X148468186Y-139578186D01*
X148395480Y-139637853D01*
X148330991Y-139690778D01*
X148330989Y-139690779D01*
X148174467Y-139774443D01*
X148117853Y-139791616D01*
X148004627Y-139825963D01*
X147938443Y-139832481D01*
X147872260Y-139839000D01*
X147783740Y-139839000D01*
X147717557Y-139832481D01*
X147651373Y-139825963D01*
X147538147Y-139791616D01*
X147481533Y-139774443D01*
X147325011Y-139690779D01*
X147325009Y-139690778D01*
X147260520Y-139637853D01*
X147187814Y-139578186D01*
X147104552Y-139476729D01*
X147075222Y-139440991D01*
X147034487Y-139364782D01*
X146991557Y-139284467D01*
X146966181Y-139200812D01*
X146940037Y-139114627D01*
X146922641Y-138938000D01*
X146940037Y-138761373D01*
X146987414Y-138605191D01*
X146991557Y-138591533D01*
X147075221Y-138435011D01*
X147075222Y-138435009D01*
X147104552Y-138399271D01*
X147187814Y-138297814D01*
X147289271Y-138214552D01*
X147325009Y-138185222D01*
X147342913Y-138175652D01*
X147481533Y-138101557D01*
X147538147Y-138084384D01*
X147651373Y-138050037D01*
X147717558Y-138043518D01*
X147783740Y-138037000D01*
X147872260Y-138037000D01*
X147938442Y-138043518D01*
X147938442Y-138043518D01*
G37*
G36*
X150478442Y-138043518D02*
X150544627Y-138050037D01*
X150657853Y-138084384D01*
X150714467Y-138101557D01*
X150853087Y-138175652D01*
X150870991Y-138185222D01*
X150906729Y-138214552D01*
X151008186Y-138297814D01*
X151091448Y-138399271D01*
X151120778Y-138435009D01*
X151120779Y-138435011D01*
X151204443Y-138591533D01*
X151208586Y-138605191D01*
X151255963Y-138761373D01*
X151273359Y-138938000D01*
X151255963Y-139114627D01*
X151229819Y-139200812D01*
X151204443Y-139284467D01*
X151161513Y-139364782D01*
X151120778Y-139440991D01*
X151091448Y-139476729D01*
X151008186Y-139578186D01*
X150935480Y-139637853D01*
X150870991Y-139690778D01*
X150870989Y-139690779D01*
X150714467Y-139774443D01*
X150657853Y-139791616D01*
X150544627Y-139825963D01*
X150478443Y-139832481D01*
X150412260Y-139839000D01*
X150323740Y-139839000D01*
X150257557Y-139832481D01*
X150191373Y-139825963D01*
X150078147Y-139791616D01*
X150021533Y-139774443D01*
X149865011Y-139690779D01*
X149865009Y-139690778D01*
X149800520Y-139637853D01*
X149727814Y-139578186D01*
X149644552Y-139476729D01*
X149615222Y-139440991D01*
X149574487Y-139364782D01*
X149531557Y-139284467D01*
X149506181Y-139200812D01*
X149480037Y-139114627D01*
X149462641Y-138938000D01*
X149480037Y-138761373D01*
X149527414Y-138605191D01*
X149531557Y-138591533D01*
X149615221Y-138435011D01*
X149615222Y-138435009D01*
X149644552Y-138399271D01*
X149727814Y-138297814D01*
X149829271Y-138214552D01*
X149865009Y-138185222D01*
X149882913Y-138175652D01*
X150021533Y-138101557D01*
X150078147Y-138084384D01*
X150191373Y-138050037D01*
X150257558Y-138043518D01*
X150323740Y-138037000D01*
X150412260Y-138037000D01*
X150478442Y-138043518D01*
X150478442Y-138043518D01*
G37*
G36*
X153018442Y-138043518D02*
X153084627Y-138050037D01*
X153197853Y-138084384D01*
X153254467Y-138101557D01*
X153393087Y-138175652D01*
X153410991Y-138185222D01*
X153446729Y-138214552D01*
X153548186Y-138297814D01*
X153631448Y-138399271D01*
X153660778Y-138435009D01*
X153660779Y-138435011D01*
X153744443Y-138591533D01*
X153748586Y-138605191D01*
X153795963Y-138761373D01*
X153813359Y-138938000D01*
X153795963Y-139114627D01*
X153769819Y-139200812D01*
X153744443Y-139284467D01*
X153701513Y-139364782D01*
X153660778Y-139440991D01*
X153631448Y-139476729D01*
X153548186Y-139578186D01*
X153475480Y-139637853D01*
X153410991Y-139690778D01*
X153410989Y-139690779D01*
X153254467Y-139774443D01*
X153197853Y-139791616D01*
X153084627Y-139825963D01*
X153018443Y-139832481D01*
X152952260Y-139839000D01*
X152863740Y-139839000D01*
X152797557Y-139832481D01*
X152731373Y-139825963D01*
X152618147Y-139791616D01*
X152561533Y-139774443D01*
X152405011Y-139690779D01*
X152405009Y-139690778D01*
X152340520Y-139637853D01*
X152267814Y-139578186D01*
X152184552Y-139476729D01*
X152155222Y-139440991D01*
X152114487Y-139364782D01*
X152071557Y-139284467D01*
X152046181Y-139200812D01*
X152020037Y-139114627D01*
X152002641Y-138938000D01*
X152020037Y-138761373D01*
X152067414Y-138605191D01*
X152071557Y-138591533D01*
X152155221Y-138435011D01*
X152155222Y-138435009D01*
X152184552Y-138399271D01*
X152267814Y-138297814D01*
X152369271Y-138214552D01*
X152405009Y-138185222D01*
X152422913Y-138175652D01*
X152561533Y-138101557D01*
X152618147Y-138084384D01*
X152731373Y-138050037D01*
X152797558Y-138043518D01*
X152863740Y-138037000D01*
X152952260Y-138037000D01*
X153018442Y-138043518D01*
X153018442Y-138043518D01*
G37*
G36*
X155558442Y-138043518D02*
X155624627Y-138050037D01*
X155737853Y-138084384D01*
X155794467Y-138101557D01*
X155933087Y-138175652D01*
X155950991Y-138185222D01*
X155986729Y-138214552D01*
X156088186Y-138297814D01*
X156171448Y-138399271D01*
X156200778Y-138435009D01*
X156200779Y-138435011D01*
X156284443Y-138591533D01*
X156288586Y-138605191D01*
X156335963Y-138761373D01*
X156353359Y-138938000D01*
X156335963Y-139114627D01*
X156309819Y-139200812D01*
X156284443Y-139284467D01*
X156241513Y-139364782D01*
X156200778Y-139440991D01*
X156171448Y-139476729D01*
X156088186Y-139578186D01*
X156015480Y-139637853D01*
X155950991Y-139690778D01*
X155950989Y-139690779D01*
X155794467Y-139774443D01*
X155737853Y-139791616D01*
X155624627Y-139825963D01*
X155558443Y-139832481D01*
X155492260Y-139839000D01*
X155403740Y-139839000D01*
X155337557Y-139832481D01*
X155271373Y-139825963D01*
X155158147Y-139791616D01*
X155101533Y-139774443D01*
X154945011Y-139690779D01*
X154945009Y-139690778D01*
X154880520Y-139637853D01*
X154807814Y-139578186D01*
X154724552Y-139476729D01*
X154695222Y-139440991D01*
X154654487Y-139364782D01*
X154611557Y-139284467D01*
X154586181Y-139200812D01*
X154560037Y-139114627D01*
X154542641Y-138938000D01*
X154560037Y-138761373D01*
X154607414Y-138605191D01*
X154611557Y-138591533D01*
X154695221Y-138435011D01*
X154695222Y-138435009D01*
X154724552Y-138399271D01*
X154807814Y-138297814D01*
X154909271Y-138214552D01*
X154945009Y-138185222D01*
X154962913Y-138175652D01*
X155101533Y-138101557D01*
X155158147Y-138084384D01*
X155271373Y-138050037D01*
X155337558Y-138043518D01*
X155403740Y-138037000D01*
X155492260Y-138037000D01*
X155558442Y-138043518D01*
X155558442Y-138043518D01*
G37*
G36*
X158098442Y-138043518D02*
X158164627Y-138050037D01*
X158277853Y-138084384D01*
X158334467Y-138101557D01*
X158473087Y-138175652D01*
X158490991Y-138185222D01*
X158526729Y-138214552D01*
X158628186Y-138297814D01*
X158711448Y-138399271D01*
X158740778Y-138435009D01*
X158740779Y-138435011D01*
X158824443Y-138591533D01*
X158828586Y-138605191D01*
X158875963Y-138761373D01*
X158893359Y-138938000D01*
X158875963Y-139114627D01*
X158849819Y-139200812D01*
X158824443Y-139284467D01*
X158781513Y-139364782D01*
X158740778Y-139440991D01*
X158711448Y-139476729D01*
X158628186Y-139578186D01*
X158555480Y-139637853D01*
X158490991Y-139690778D01*
X158490989Y-139690779D01*
X158334467Y-139774443D01*
X158277853Y-139791616D01*
X158164627Y-139825963D01*
X158098443Y-139832481D01*
X158032260Y-139839000D01*
X157943740Y-139839000D01*
X157877557Y-139832481D01*
X157811373Y-139825963D01*
X157698147Y-139791616D01*
X157641533Y-139774443D01*
X157485011Y-139690779D01*
X157485009Y-139690778D01*
X157420520Y-139637853D01*
X157347814Y-139578186D01*
X157264552Y-139476729D01*
X157235222Y-139440991D01*
X157194487Y-139364782D01*
X157151557Y-139284467D01*
X157126181Y-139200812D01*
X157100037Y-139114627D01*
X157082641Y-138938000D01*
X157100037Y-138761373D01*
X157147414Y-138605191D01*
X157151557Y-138591533D01*
X157235221Y-138435011D01*
X157235222Y-138435009D01*
X157264552Y-138399271D01*
X157347814Y-138297814D01*
X157449271Y-138214552D01*
X157485009Y-138185222D01*
X157502913Y-138175652D01*
X157641533Y-138101557D01*
X157698147Y-138084384D01*
X157811373Y-138050037D01*
X157877558Y-138043518D01*
X157943740Y-138037000D01*
X158032260Y-138037000D01*
X158098442Y-138043518D01*
X158098442Y-138043518D01*
G37*
G36*
X112530812Y-138071624D02*
X112694784Y-138139544D01*
X112842354Y-138238147D01*
X112967853Y-138363646D01*
X113066456Y-138511216D01*
X113134376Y-138675188D01*
X113169000Y-138849259D01*
X113169000Y-139026741D01*
X113134376Y-139200812D01*
X113066456Y-139364784D01*
X112967853Y-139512354D01*
X112842354Y-139637853D01*
X112694784Y-139736456D01*
X112530812Y-139804376D01*
X112356741Y-139839000D01*
X112179259Y-139839000D01*
X112005188Y-139804376D01*
X111841216Y-139736456D01*
X111693646Y-139637853D01*
X111568147Y-139512354D01*
X111469544Y-139364784D01*
X111401624Y-139200812D01*
X111367000Y-139026741D01*
X111367000Y-138849259D01*
X111401624Y-138675188D01*
X111469544Y-138511216D01*
X111568147Y-138363646D01*
X111693646Y-138238147D01*
X111841216Y-138139544D01*
X112005188Y-138071624D01*
X112179259Y-138037000D01*
X112356741Y-138037000D01*
X112530812Y-138071624D01*
X112530812Y-138071624D01*
G37*
G36*
X130818812Y-138071624D02*
X130982784Y-138139544D01*
X131130354Y-138238147D01*
X131255853Y-138363646D01*
X131354456Y-138511216D01*
X131422376Y-138675188D01*
X131457000Y-138849259D01*
X131457000Y-139026741D01*
X131422376Y-139200812D01*
X131354456Y-139364784D01*
X131255853Y-139512354D01*
X131130354Y-139637853D01*
X130982784Y-139736456D01*
X130818812Y-139804376D01*
X130644741Y-139839000D01*
X130467259Y-139839000D01*
X130293188Y-139804376D01*
X130129216Y-139736456D01*
X129981646Y-139637853D01*
X129856147Y-139512354D01*
X129757544Y-139364784D01*
X129689624Y-139200812D01*
X129655000Y-139026741D01*
X129655000Y-138849259D01*
X129689624Y-138675188D01*
X129757544Y-138511216D01*
X129856147Y-138363646D01*
X129981646Y-138238147D01*
X130129216Y-138139544D01*
X130293188Y-138071624D01*
X130467259Y-138037000D01*
X130644741Y-138037000D01*
X130818812Y-138071624D01*
X130818812Y-138071624D01*
G37*
G36*
X166988443Y-128645519D02*
X167054627Y-128652037D01*
X167167853Y-128686384D01*
X167224467Y-128703557D01*
X167363087Y-128777652D01*
X167380991Y-128787222D01*
X167416729Y-128816552D01*
X167518186Y-128899814D01*
X167601448Y-129001271D01*
X167630778Y-129037009D01*
X167630779Y-129037011D01*
X167714443Y-129193533D01*
X167714443Y-129193534D01*
X167765963Y-129363373D01*
X167783359Y-129540000D01*
X167765963Y-129716627D01*
X167731616Y-129829853D01*
X167714443Y-129886467D01*
X167640348Y-130025087D01*
X167630778Y-130042991D01*
X167601448Y-130078729D01*
X167518186Y-130180186D01*
X167416729Y-130263448D01*
X167380991Y-130292778D01*
X167380989Y-130292779D01*
X167224467Y-130376443D01*
X167167853Y-130393616D01*
X167054627Y-130427963D01*
X166988443Y-130434481D01*
X166922260Y-130441000D01*
X166833740Y-130441000D01*
X166767557Y-130434481D01*
X166701373Y-130427963D01*
X166588147Y-130393616D01*
X166531533Y-130376443D01*
X166375011Y-130292779D01*
X166375009Y-130292778D01*
X166339271Y-130263448D01*
X166237814Y-130180186D01*
X166154552Y-130078729D01*
X166125222Y-130042991D01*
X166115652Y-130025087D01*
X166041557Y-129886467D01*
X166024384Y-129829853D01*
X165990037Y-129716627D01*
X165972641Y-129540000D01*
X165990037Y-129363373D01*
X166041557Y-129193534D01*
X166041557Y-129193533D01*
X166125221Y-129037011D01*
X166125222Y-129037009D01*
X166154552Y-129001271D01*
X166237814Y-128899814D01*
X166339271Y-128816552D01*
X166375009Y-128787222D01*
X166392913Y-128777652D01*
X166531533Y-128703557D01*
X166588147Y-128686384D01*
X166701373Y-128652037D01*
X166767557Y-128645519D01*
X166833740Y-128639000D01*
X166922260Y-128639000D01*
X166988443Y-128645519D01*
X166988443Y-128645519D01*
G37*
G36*
X166988443Y-126105519D02*
X167054627Y-126112037D01*
X167167853Y-126146384D01*
X167224467Y-126163557D01*
X167363087Y-126237652D01*
X167380991Y-126247222D01*
X167416729Y-126276552D01*
X167518186Y-126359814D01*
X167601448Y-126461271D01*
X167630778Y-126497009D01*
X167630779Y-126497011D01*
X167714443Y-126653533D01*
X167714443Y-126653534D01*
X167765963Y-126823373D01*
X167783359Y-127000000D01*
X167765963Y-127176627D01*
X167731616Y-127289853D01*
X167714443Y-127346467D01*
X167640348Y-127485087D01*
X167630778Y-127502991D01*
X167601448Y-127538729D01*
X167518186Y-127640186D01*
X167416729Y-127723448D01*
X167380991Y-127752778D01*
X167380989Y-127752779D01*
X167224467Y-127836443D01*
X167167853Y-127853616D01*
X167054627Y-127887963D01*
X166988442Y-127894482D01*
X166922260Y-127901000D01*
X166833740Y-127901000D01*
X166767558Y-127894482D01*
X166701373Y-127887963D01*
X166588147Y-127853616D01*
X166531533Y-127836443D01*
X166375011Y-127752779D01*
X166375009Y-127752778D01*
X166339271Y-127723448D01*
X166237814Y-127640186D01*
X166154552Y-127538729D01*
X166125222Y-127502991D01*
X166115652Y-127485087D01*
X166041557Y-127346467D01*
X166024384Y-127289853D01*
X165990037Y-127176627D01*
X165972641Y-127000000D01*
X165990037Y-126823373D01*
X166041557Y-126653534D01*
X166041557Y-126653533D01*
X166125221Y-126497011D01*
X166125222Y-126497009D01*
X166154552Y-126461271D01*
X166237814Y-126359814D01*
X166339271Y-126276552D01*
X166375009Y-126247222D01*
X166392913Y-126237652D01*
X166531533Y-126163557D01*
X166588147Y-126146384D01*
X166701373Y-126112037D01*
X166767557Y-126105519D01*
X166833740Y-126099000D01*
X166922260Y-126099000D01*
X166988443Y-126105519D01*
X166988443Y-126105519D01*
G37*
G36*
X166988442Y-123565518D02*
X167054627Y-123572037D01*
X167167853Y-123606384D01*
X167224467Y-123623557D01*
X167363087Y-123697652D01*
X167380991Y-123707222D01*
X167416729Y-123736552D01*
X167518186Y-123819814D01*
X167601448Y-123921271D01*
X167630778Y-123957009D01*
X167630779Y-123957011D01*
X167714443Y-124113533D01*
X167714443Y-124113534D01*
X167765963Y-124283373D01*
X167783359Y-124460000D01*
X167765963Y-124636627D01*
X167731616Y-124749853D01*
X167714443Y-124806467D01*
X167640348Y-124945087D01*
X167630778Y-124962991D01*
X167601448Y-124998729D01*
X167518186Y-125100186D01*
X167416729Y-125183448D01*
X167380991Y-125212778D01*
X167380989Y-125212779D01*
X167224467Y-125296443D01*
X167167853Y-125313616D01*
X167054627Y-125347963D01*
X166988442Y-125354482D01*
X166922260Y-125361000D01*
X166833740Y-125361000D01*
X166767558Y-125354482D01*
X166701373Y-125347963D01*
X166588147Y-125313616D01*
X166531533Y-125296443D01*
X166375011Y-125212779D01*
X166375009Y-125212778D01*
X166339271Y-125183448D01*
X166237814Y-125100186D01*
X166154552Y-124998729D01*
X166125222Y-124962991D01*
X166115652Y-124945087D01*
X166041557Y-124806467D01*
X166024384Y-124749853D01*
X165990037Y-124636627D01*
X165972641Y-124460000D01*
X165990037Y-124283373D01*
X166041557Y-124113534D01*
X166041557Y-124113533D01*
X166125221Y-123957011D01*
X166125222Y-123957009D01*
X166154552Y-123921271D01*
X166237814Y-123819814D01*
X166339271Y-123736552D01*
X166375009Y-123707222D01*
X166392913Y-123697652D01*
X166531533Y-123623557D01*
X166588147Y-123606384D01*
X166701373Y-123572037D01*
X166767558Y-123565518D01*
X166833740Y-123559000D01*
X166922260Y-123559000D01*
X166988442Y-123565518D01*
X166988442Y-123565518D01*
G37*
G36*
X140926000Y-123871000D02*
X139824000Y-123871000D01*
X139824000Y-122269000D01*
X140926000Y-122269000D01*
X140926000Y-123871000D01*
X140926000Y-123871000D01*
G37*
G36*
X145926000Y-123871000D02*
X144824000Y-123871000D01*
X144824000Y-122269000D01*
X145926000Y-122269000D01*
X145926000Y-123871000D01*
X145926000Y-123871000D01*
G37*
G36*
X167140812Y-121053624D02*
X167304784Y-121121544D01*
X167452354Y-121220147D01*
X167577853Y-121345646D01*
X167676456Y-121493216D01*
X167744376Y-121657188D01*
X167779000Y-121831259D01*
X167779000Y-122008741D01*
X167744376Y-122182812D01*
X167676456Y-122346784D01*
X167577853Y-122494354D01*
X167452354Y-122619853D01*
X167304784Y-122718456D01*
X167140812Y-122786376D01*
X166966741Y-122821000D01*
X166789259Y-122821000D01*
X166615188Y-122786376D01*
X166451216Y-122718456D01*
X166303646Y-122619853D01*
X166178147Y-122494354D01*
X166079544Y-122346784D01*
X166011624Y-122182812D01*
X165977000Y-122008741D01*
X165977000Y-121831259D01*
X166011624Y-121657188D01*
X166079544Y-121493216D01*
X166178147Y-121345646D01*
X166303646Y-121220147D01*
X166451216Y-121121544D01*
X166615188Y-121053624D01*
X166789259Y-121019000D01*
X166966741Y-121019000D01*
X167140812Y-121053624D01*
X167140812Y-121053624D01*
G37*
G36*
X159261000Y-121331000D02*
X158159000Y-121331000D01*
X158159000Y-119729000D01*
X159261000Y-119729000D01*
X159261000Y-121331000D01*
X159261000Y-121331000D01*
G37*
G36*
X154261000Y-121331000D02*
X153159000Y-121331000D01*
X153159000Y-119729000D01*
X154261000Y-119729000D01*
X154261000Y-121331000D01*
X154261000Y-121331000D01*
G37*
G36*
X127251000Y-118301000D02*
X125649000Y-118301000D01*
X125649000Y-116799000D01*
X127251000Y-116799000D01*
X127251000Y-118301000D01*
X127251000Y-118301000D01*
G37*
G36*
X115651000Y-118301000D02*
X114049000Y-118301000D01*
X114049000Y-116799000D01*
X115651000Y-116799000D01*
X115651000Y-118301000D01*
X115651000Y-118301000D01*
G37*
G36*
X123031552Y-116116331D02*
X123113625Y-116150327D01*
X123113626Y-116150328D01*
X123113629Y-116150329D01*
X123187496Y-116199686D01*
X123187500Y-116199689D01*
X123250311Y-116262500D01*
X123250313Y-116262503D01*
X123250314Y-116262504D01*
X123299671Y-116336371D01*
X123299672Y-116336374D01*
X123299673Y-116336375D01*
X123333669Y-116418448D01*
X123351000Y-116505579D01*
X123351000Y-116594421D01*
X123333669Y-116681552D01*
X123299673Y-116763625D01*
X123299671Y-116763629D01*
X123250314Y-116837496D01*
X123250311Y-116837500D01*
X123187500Y-116900311D01*
X123187497Y-116900313D01*
X123187496Y-116900314D01*
X123113629Y-116949671D01*
X123113626Y-116949672D01*
X123113625Y-116949673D01*
X123031552Y-116983669D01*
X122944421Y-117001000D01*
X122855579Y-117001000D01*
X122768448Y-116983669D01*
X122686375Y-116949673D01*
X122686374Y-116949672D01*
X122686371Y-116949671D01*
X122612504Y-116900314D01*
X122612503Y-116900313D01*
X122612500Y-116900311D01*
X122549689Y-116837500D01*
X122549686Y-116837496D01*
X122500329Y-116763629D01*
X122500327Y-116763625D01*
X122466331Y-116681552D01*
X122449000Y-116594421D01*
X122449000Y-116505579D01*
X122466331Y-116418448D01*
X122500327Y-116336375D01*
X122500328Y-116336374D01*
X122500329Y-116336371D01*
X122549686Y-116262504D01*
X122549687Y-116262503D01*
X122549689Y-116262500D01*
X122612500Y-116199689D01*
X122612504Y-116199686D01*
X122686371Y-116150329D01*
X122686374Y-116150328D01*
X122686375Y-116150327D01*
X122768448Y-116116331D01*
X122855579Y-116099000D01*
X122944421Y-116099000D01*
X123031552Y-116116331D01*
X123031552Y-116116331D01*
G37*
G36*
X118531552Y-116116331D02*
X118613625Y-116150327D01*
X118613626Y-116150328D01*
X118613629Y-116150329D01*
X118687496Y-116199686D01*
X118687500Y-116199689D01*
X118750311Y-116262500D01*
X118750313Y-116262503D01*
X118750314Y-116262504D01*
X118799671Y-116336371D01*
X118799672Y-116336374D01*
X118799673Y-116336375D01*
X118833669Y-116418448D01*
X118851000Y-116505579D01*
X118851000Y-116594421D01*
X118833669Y-116681552D01*
X118799673Y-116763625D01*
X118799671Y-116763629D01*
X118750314Y-116837496D01*
X118750311Y-116837500D01*
X118687500Y-116900311D01*
X118687497Y-116900313D01*
X118687496Y-116900314D01*
X118613629Y-116949671D01*
X118613626Y-116949672D01*
X118613625Y-116949673D01*
X118531552Y-116983669D01*
X118444421Y-117001000D01*
X118355579Y-117001000D01*
X118268448Y-116983669D01*
X118186375Y-116949673D01*
X118186374Y-116949672D01*
X118186371Y-116949671D01*
X118112504Y-116900314D01*
X118112503Y-116900313D01*
X118112500Y-116900311D01*
X118049689Y-116837500D01*
X118049686Y-116837496D01*
X118000329Y-116763629D01*
X118000327Y-116763625D01*
X117966331Y-116681552D01*
X117949000Y-116594421D01*
X117949000Y-116505579D01*
X117966331Y-116418448D01*
X118000327Y-116336375D01*
X118000328Y-116336374D01*
X118000329Y-116336371D01*
X118049686Y-116262504D01*
X118049687Y-116262503D01*
X118049689Y-116262500D01*
X118112500Y-116199689D01*
X118112504Y-116199686D01*
X118186371Y-116150329D01*
X118186374Y-116150328D01*
X118186375Y-116150327D01*
X118268448Y-116116331D01*
X118355579Y-116099000D01*
X118444421Y-116099000D01*
X118531552Y-116116331D01*
X118531552Y-116116331D01*
G37*
G36*
X167140812Y-115211624D02*
X167304784Y-115279544D01*
X167452354Y-115378147D01*
X167577853Y-115503646D01*
X167676456Y-115651216D01*
X167744376Y-115815188D01*
X167779000Y-115989259D01*
X167779000Y-116166741D01*
X167744376Y-116340812D01*
X167676456Y-116504784D01*
X167577853Y-116652354D01*
X167452354Y-116777853D01*
X167304784Y-116876456D01*
X167140812Y-116944376D01*
X166966741Y-116979000D01*
X166789259Y-116979000D01*
X166615188Y-116944376D01*
X166451216Y-116876456D01*
X166303646Y-116777853D01*
X166178147Y-116652354D01*
X166079544Y-116504784D01*
X166011624Y-116340812D01*
X165977000Y-116166741D01*
X165977000Y-115989259D01*
X166011624Y-115815188D01*
X166079544Y-115651216D01*
X166178147Y-115503646D01*
X166303646Y-115378147D01*
X166451216Y-115279544D01*
X166615188Y-115211624D01*
X166789259Y-115177000D01*
X166966741Y-115177000D01*
X167140812Y-115211624D01*
X167140812Y-115211624D01*
G37*
G36*
X115601000Y-115451000D02*
X114099000Y-115451000D01*
X114099000Y-114049000D01*
X115601000Y-114049000D01*
X115601000Y-115451000D01*
X115601000Y-115451000D01*
G37*
G36*
X127201000Y-115451000D02*
X125699000Y-115451000D01*
X125699000Y-114049000D01*
X127201000Y-114049000D01*
X127201000Y-115451000D01*
X127201000Y-115451000D01*
G37*
G36*
X167140812Y-112671624D02*
X167304784Y-112739544D01*
X167452354Y-112838147D01*
X167577853Y-112963646D01*
X167676456Y-113111216D01*
X167744376Y-113275188D01*
X167779000Y-113449259D01*
X167779000Y-113626741D01*
X167744376Y-113800812D01*
X167676456Y-113964784D01*
X167577853Y-114112354D01*
X167452354Y-114237853D01*
X167304784Y-114336456D01*
X167140812Y-114404376D01*
X166966741Y-114439000D01*
X166789259Y-114439000D01*
X166615188Y-114404376D01*
X166451216Y-114336456D01*
X166303646Y-114237853D01*
X166178147Y-114112354D01*
X166079544Y-113964784D01*
X166011624Y-113800812D01*
X165977000Y-113626741D01*
X165977000Y-113449259D01*
X166011624Y-113275188D01*
X166079544Y-113111216D01*
X166178147Y-112963646D01*
X166303646Y-112838147D01*
X166451216Y-112739544D01*
X166615188Y-112671624D01*
X166789259Y-112637000D01*
X166966741Y-112637000D01*
X167140812Y-112671624D01*
X167140812Y-112671624D01*
G37*
G36*
X166988443Y-110103519D02*
X167054627Y-110110037D01*
X167167853Y-110144384D01*
X167224467Y-110161557D01*
X167363087Y-110235652D01*
X167380991Y-110245222D01*
X167416729Y-110274552D01*
X167518186Y-110357814D01*
X167601448Y-110459271D01*
X167630778Y-110495009D01*
X167630779Y-110495011D01*
X167714443Y-110651533D01*
X167714443Y-110651534D01*
X167765963Y-110821373D01*
X167783359Y-110998000D01*
X167765963Y-111174627D01*
X167731616Y-111287853D01*
X167714443Y-111344467D01*
X167640348Y-111483087D01*
X167630778Y-111500991D01*
X167601448Y-111536729D01*
X167518186Y-111638186D01*
X167416729Y-111721448D01*
X167380991Y-111750778D01*
X167380989Y-111750779D01*
X167224467Y-111834443D01*
X167167853Y-111851616D01*
X167054627Y-111885963D01*
X166988442Y-111892482D01*
X166922260Y-111899000D01*
X166833740Y-111899000D01*
X166767558Y-111892482D01*
X166701373Y-111885963D01*
X166588147Y-111851616D01*
X166531533Y-111834443D01*
X166375011Y-111750779D01*
X166375009Y-111750778D01*
X166339271Y-111721448D01*
X166237814Y-111638186D01*
X166154552Y-111536729D01*
X166125222Y-111500991D01*
X166115652Y-111483087D01*
X166041557Y-111344467D01*
X166024384Y-111287853D01*
X165990037Y-111174627D01*
X165972641Y-110998000D01*
X165990037Y-110821373D01*
X166041557Y-110651534D01*
X166041557Y-110651533D01*
X166125221Y-110495011D01*
X166125222Y-110495009D01*
X166154552Y-110459271D01*
X166237814Y-110357814D01*
X166339271Y-110274552D01*
X166375009Y-110245222D01*
X166392913Y-110235652D01*
X166531533Y-110161557D01*
X166588147Y-110144384D01*
X166701373Y-110110037D01*
X166767557Y-110103519D01*
X166833740Y-110097000D01*
X166922260Y-110097000D01*
X166988443Y-110103519D01*
X166988443Y-110103519D01*
G37*
G36*
X115651000Y-111801000D02*
X114049000Y-111801000D01*
X114049000Y-110299000D01*
X115651000Y-110299000D01*
X115651000Y-111801000D01*
X115651000Y-111801000D01*
G37*
G36*
X127251000Y-111801000D02*
X125649000Y-111801000D01*
X125649000Y-110299000D01*
X127251000Y-110299000D01*
X127251000Y-111801000D01*
X127251000Y-111801000D01*
G37*
G36*
X166988443Y-107563519D02*
X167054627Y-107570037D01*
X167167853Y-107604384D01*
X167224467Y-107621557D01*
X167363087Y-107695652D01*
X167380991Y-107705222D01*
X167416729Y-107734552D01*
X167518186Y-107817814D01*
X167601448Y-107919271D01*
X167630778Y-107955009D01*
X167630779Y-107955011D01*
X167714443Y-108111533D01*
X167714443Y-108111534D01*
X167765963Y-108281373D01*
X167783359Y-108458000D01*
X167765963Y-108634627D01*
X167731616Y-108747853D01*
X167714443Y-108804467D01*
X167678880Y-108871000D01*
X167630778Y-108960991D01*
X167601448Y-108996729D01*
X167518186Y-109098186D01*
X167416729Y-109181448D01*
X167380991Y-109210778D01*
X167380989Y-109210779D01*
X167224467Y-109294443D01*
X167167853Y-109311616D01*
X167054627Y-109345963D01*
X166988443Y-109352481D01*
X166922260Y-109359000D01*
X166833740Y-109359000D01*
X166767557Y-109352481D01*
X166701373Y-109345963D01*
X166588147Y-109311616D01*
X166531533Y-109294443D01*
X166375011Y-109210779D01*
X166375009Y-109210778D01*
X166339271Y-109181448D01*
X166237814Y-109098186D01*
X166154552Y-108996729D01*
X166125222Y-108960991D01*
X166077120Y-108871000D01*
X166041557Y-108804467D01*
X166024384Y-108747853D01*
X165990037Y-108634627D01*
X165972641Y-108458000D01*
X165990037Y-108281373D01*
X166041557Y-108111534D01*
X166041557Y-108111533D01*
X166125221Y-107955011D01*
X166125222Y-107955009D01*
X166154552Y-107919271D01*
X166237814Y-107817814D01*
X166339271Y-107734552D01*
X166375009Y-107705222D01*
X166392913Y-107695652D01*
X166531533Y-107621557D01*
X166588147Y-107604384D01*
X166701373Y-107570037D01*
X166767557Y-107563519D01*
X166833740Y-107557000D01*
X166922260Y-107557000D01*
X166988443Y-107563519D01*
X166988443Y-107563519D01*
G37*
G36*
X145926000Y-108871000D02*
X144824000Y-108871000D01*
X144824000Y-107269000D01*
X145926000Y-107269000D01*
X145926000Y-108871000D01*
X145926000Y-108871000D01*
G37*
G36*
X140926000Y-108871000D02*
X139824000Y-108871000D01*
X139824000Y-107269000D01*
X140926000Y-107269000D01*
X140926000Y-108871000D01*
X140926000Y-108871000D01*
G37*
G36*
X154261000Y-106331000D02*
X153159000Y-106331000D01*
X153159000Y-104729000D01*
X154261000Y-104729000D01*
X154261000Y-106331000D01*
X154261000Y-106331000D01*
G37*
G36*
X159261000Y-106331000D02*
X158159000Y-106331000D01*
X158159000Y-104729000D01*
X159261000Y-104729000D01*
X159261000Y-106331000D01*
X159261000Y-106331000D01*
G37*
G36*
X129751000Y-88751000D02*
X128149000Y-88751000D01*
X128149000Y-87249000D01*
X129751000Y-87249000D01*
X129751000Y-88751000D01*
X129751000Y-88751000D01*
G37*
G36*
X126351000Y-86701000D02*
X125349000Y-86701000D01*
X125349000Y-66799000D01*
X126351000Y-66799000D01*
X126351000Y-86701000D01*
X126351000Y-86701000D01*
G37*
G36*
X150586048Y-68941684D02*
X150602446Y-68946658D01*
X150617552Y-68954733D01*
X150630797Y-68965603D01*
X150641667Y-68978848D01*
X150649742Y-68993954D01*
X150654716Y-69010352D01*
X150657000Y-69033541D01*
X150657000Y-69447259D01*
X150654716Y-69470448D01*
X150649742Y-69486846D01*
X150641667Y-69501952D01*
X150630797Y-69515197D01*
X150617552Y-69526067D01*
X150609895Y-69530160D01*
X150589521Y-69543774D01*
X150572194Y-69561101D01*
X150558580Y-69581475D01*
X150549202Y-69604114D01*
X150544422Y-69628148D01*
X150544422Y-69652652D01*
X150549202Y-69676686D01*
X150558580Y-69699325D01*
X150572194Y-69719699D01*
X150589521Y-69737026D01*
X150609895Y-69750640D01*
X150617552Y-69754733D01*
X150630797Y-69765603D01*
X150641667Y-69778848D01*
X150649742Y-69793954D01*
X150654716Y-69810352D01*
X150657000Y-69833541D01*
X150657000Y-70247259D01*
X150654716Y-70270448D01*
X150649742Y-70286846D01*
X150641667Y-70301952D01*
X150630797Y-70315197D01*
X150617552Y-70326067D01*
X150609895Y-70330160D01*
X150589521Y-70343774D01*
X150572194Y-70361101D01*
X150558580Y-70381475D01*
X150549202Y-70404114D01*
X150544422Y-70428148D01*
X150544422Y-70452652D01*
X150549202Y-70476686D01*
X150558580Y-70499325D01*
X150572194Y-70519699D01*
X150589521Y-70537026D01*
X150609895Y-70550640D01*
X150617552Y-70554733D01*
X150630797Y-70565603D01*
X150641667Y-70578848D01*
X150649742Y-70593954D01*
X150654716Y-70610352D01*
X150657000Y-70633541D01*
X150657000Y-71047259D01*
X150654716Y-71070448D01*
X150649742Y-71086846D01*
X150641667Y-71101952D01*
X150630797Y-71115197D01*
X150617552Y-71126067D01*
X150609895Y-71130160D01*
X150589521Y-71143774D01*
X150572194Y-71161101D01*
X150558580Y-71181475D01*
X150549202Y-71204114D01*
X150544422Y-71228148D01*
X150544422Y-71252652D01*
X150549202Y-71276686D01*
X150558580Y-71299325D01*
X150572194Y-71319699D01*
X150589521Y-71337026D01*
X150609895Y-71350640D01*
X150617552Y-71354733D01*
X150630797Y-71365603D01*
X150641667Y-71378848D01*
X150649742Y-71393954D01*
X150654716Y-71410352D01*
X150657000Y-71433541D01*
X150657000Y-71847259D01*
X150654716Y-71870448D01*
X150649742Y-71886846D01*
X150641667Y-71901952D01*
X150630797Y-71915197D01*
X150617552Y-71926067D01*
X150609895Y-71930160D01*
X150589521Y-71943774D01*
X150572194Y-71961101D01*
X150558580Y-71981475D01*
X150549202Y-72004114D01*
X150544422Y-72028148D01*
X150544422Y-72052652D01*
X150549202Y-72076686D01*
X150558580Y-72099325D01*
X150572194Y-72119699D01*
X150589521Y-72137026D01*
X150609895Y-72150640D01*
X150617552Y-72154733D01*
X150630797Y-72165603D01*
X150641667Y-72178848D01*
X150649742Y-72193954D01*
X150654716Y-72210352D01*
X150657000Y-72233541D01*
X150657000Y-72647259D01*
X150654716Y-72670448D01*
X150649742Y-72686846D01*
X150641667Y-72701952D01*
X150630797Y-72715197D01*
X150617552Y-72726067D01*
X150609895Y-72730160D01*
X150589521Y-72743774D01*
X150572194Y-72761101D01*
X150558580Y-72781475D01*
X150549202Y-72804114D01*
X150544422Y-72828148D01*
X150544422Y-72852652D01*
X150549202Y-72876686D01*
X150558580Y-72899325D01*
X150572194Y-72919699D01*
X150589521Y-72937026D01*
X150609895Y-72950640D01*
X150617552Y-72954733D01*
X150630797Y-72965603D01*
X150641667Y-72978848D01*
X150649742Y-72993954D01*
X150654716Y-73010352D01*
X150657000Y-73033541D01*
X150657000Y-73447259D01*
X150654716Y-73470448D01*
X150649742Y-73486846D01*
X150641667Y-73501952D01*
X150630797Y-73515197D01*
X150617552Y-73526067D01*
X150609895Y-73530160D01*
X150589521Y-73543774D01*
X150572194Y-73561101D01*
X150558580Y-73581475D01*
X150549202Y-73604114D01*
X150544422Y-73628148D01*
X150544422Y-73652652D01*
X150549202Y-73676686D01*
X150558580Y-73699325D01*
X150572194Y-73719699D01*
X150589521Y-73737026D01*
X150609895Y-73750640D01*
X150617552Y-73754733D01*
X150630797Y-73765603D01*
X150641667Y-73778848D01*
X150649742Y-73793954D01*
X150654716Y-73810352D01*
X150657000Y-73833541D01*
X150657000Y-74247259D01*
X150654716Y-74270448D01*
X150649742Y-74286846D01*
X150641667Y-74301952D01*
X150630797Y-74315197D01*
X150617552Y-74326067D01*
X150609895Y-74330160D01*
X150589521Y-74343774D01*
X150572194Y-74361101D01*
X150558580Y-74381475D01*
X150549202Y-74404114D01*
X150544422Y-74428148D01*
X150544422Y-74452652D01*
X150549202Y-74476686D01*
X150558580Y-74499325D01*
X150572194Y-74519699D01*
X150589521Y-74537026D01*
X150609895Y-74550640D01*
X150617552Y-74554733D01*
X150630797Y-74565603D01*
X150641667Y-74578848D01*
X150649742Y-74593954D01*
X150654716Y-74610352D01*
X150657000Y-74633541D01*
X150657000Y-75047259D01*
X150654716Y-75070448D01*
X150649742Y-75086846D01*
X150641667Y-75101952D01*
X150630797Y-75115197D01*
X150617552Y-75126067D01*
X150609895Y-75130160D01*
X150589521Y-75143774D01*
X150572194Y-75161101D01*
X150558580Y-75181475D01*
X150549202Y-75204114D01*
X150544422Y-75228148D01*
X150544422Y-75252652D01*
X150549202Y-75276686D01*
X150558580Y-75299325D01*
X150572194Y-75319699D01*
X150589521Y-75337026D01*
X150609895Y-75350640D01*
X150617552Y-75354733D01*
X150630797Y-75365603D01*
X150641667Y-75378848D01*
X150649742Y-75393954D01*
X150654716Y-75410352D01*
X150657000Y-75433541D01*
X150657000Y-75847259D01*
X150654716Y-75870448D01*
X150649742Y-75886846D01*
X150641667Y-75901952D01*
X150630797Y-75915197D01*
X150617552Y-75926067D01*
X150609895Y-75930160D01*
X150589521Y-75943774D01*
X150572194Y-75961101D01*
X150558580Y-75981475D01*
X150549202Y-76004114D01*
X150544422Y-76028148D01*
X150544422Y-76052652D01*
X150549202Y-76076686D01*
X150558580Y-76099325D01*
X150572194Y-76119699D01*
X150589521Y-76137026D01*
X150609895Y-76150640D01*
X150617552Y-76154733D01*
X150630797Y-76165603D01*
X150641667Y-76178848D01*
X150649742Y-76193954D01*
X150654716Y-76210352D01*
X150657000Y-76233541D01*
X150657000Y-76647259D01*
X150654716Y-76670448D01*
X150649742Y-76686846D01*
X150641667Y-76701952D01*
X150630797Y-76715197D01*
X150617552Y-76726067D01*
X150609895Y-76730160D01*
X150589521Y-76743774D01*
X150572194Y-76761101D01*
X150558580Y-76781475D01*
X150549202Y-76804114D01*
X150544422Y-76828148D01*
X150544422Y-76852652D01*
X150549202Y-76876686D01*
X150558580Y-76899325D01*
X150572194Y-76919699D01*
X150589521Y-76937026D01*
X150609895Y-76950640D01*
X150617552Y-76954733D01*
X150630797Y-76965603D01*
X150641667Y-76978848D01*
X150649742Y-76993954D01*
X150654716Y-77010352D01*
X150657000Y-77033541D01*
X150657000Y-77447259D01*
X150654716Y-77470448D01*
X150649742Y-77486846D01*
X150641667Y-77501952D01*
X150630797Y-77515197D01*
X150617552Y-77526067D01*
X150609895Y-77530160D01*
X150589521Y-77543774D01*
X150572194Y-77561101D01*
X150558580Y-77581475D01*
X150549202Y-77604114D01*
X150544422Y-77628148D01*
X150544422Y-77652652D01*
X150549202Y-77676686D01*
X150558580Y-77699325D01*
X150572194Y-77719699D01*
X150589521Y-77737026D01*
X150609895Y-77750640D01*
X150617552Y-77754733D01*
X150630797Y-77765603D01*
X150641667Y-77778848D01*
X150649742Y-77793954D01*
X150654716Y-77810352D01*
X150657000Y-77833541D01*
X150657000Y-78247259D01*
X150654716Y-78270448D01*
X150649742Y-78286846D01*
X150641667Y-78301952D01*
X150630797Y-78315197D01*
X150617552Y-78326067D01*
X150609895Y-78330160D01*
X150589521Y-78343774D01*
X150572194Y-78361101D01*
X150558580Y-78381475D01*
X150549202Y-78404114D01*
X150544422Y-78428148D01*
X150544422Y-78452652D01*
X150549202Y-78476686D01*
X150558580Y-78499325D01*
X150572194Y-78519699D01*
X150589521Y-78537026D01*
X150609895Y-78550640D01*
X150617552Y-78554733D01*
X150630797Y-78565603D01*
X150641667Y-78578848D01*
X150649742Y-78593954D01*
X150654716Y-78610352D01*
X150657000Y-78633541D01*
X150657000Y-79047259D01*
X150654716Y-79070448D01*
X150649742Y-79086846D01*
X150641667Y-79101952D01*
X150630797Y-79115197D01*
X150617552Y-79126067D01*
X150609895Y-79130160D01*
X150589521Y-79143774D01*
X150572194Y-79161101D01*
X150558580Y-79181475D01*
X150549202Y-79204114D01*
X150544422Y-79228148D01*
X150544422Y-79252652D01*
X150549202Y-79276686D01*
X150558580Y-79299325D01*
X150572194Y-79319699D01*
X150589521Y-79337026D01*
X150609895Y-79350640D01*
X150617552Y-79354733D01*
X150630797Y-79365603D01*
X150641667Y-79378848D01*
X150649742Y-79393954D01*
X150654716Y-79410352D01*
X150657000Y-79433541D01*
X150657000Y-79847259D01*
X150654716Y-79870448D01*
X150649742Y-79886846D01*
X150641667Y-79901952D01*
X150630797Y-79915197D01*
X150617552Y-79926067D01*
X150609895Y-79930160D01*
X150589521Y-79943774D01*
X150572194Y-79961101D01*
X150558580Y-79981475D01*
X150549202Y-80004114D01*
X150544422Y-80028148D01*
X150544422Y-80052652D01*
X150549202Y-80076686D01*
X150558580Y-80099325D01*
X150572194Y-80119699D01*
X150589521Y-80137026D01*
X150609895Y-80150640D01*
X150617552Y-80154733D01*
X150630797Y-80165603D01*
X150641667Y-80178848D01*
X150649742Y-80193954D01*
X150654716Y-80210352D01*
X150657000Y-80233541D01*
X150657000Y-80647259D01*
X150654716Y-80670448D01*
X150649742Y-80686846D01*
X150641667Y-80701952D01*
X150630797Y-80715197D01*
X150617552Y-80726067D01*
X150609895Y-80730160D01*
X150589521Y-80743774D01*
X150572194Y-80761101D01*
X150558580Y-80781475D01*
X150549202Y-80804114D01*
X150544422Y-80828148D01*
X150544422Y-80852652D01*
X150549202Y-80876686D01*
X150558580Y-80899325D01*
X150572194Y-80919699D01*
X150589521Y-80937026D01*
X150609895Y-80950640D01*
X150617552Y-80954733D01*
X150630797Y-80965603D01*
X150641667Y-80978848D01*
X150649742Y-80993954D01*
X150654716Y-81010352D01*
X150657000Y-81033541D01*
X150657000Y-81447259D01*
X150654716Y-81470448D01*
X150649742Y-81486846D01*
X150641667Y-81501952D01*
X150630797Y-81515197D01*
X150617552Y-81526067D01*
X150609895Y-81530160D01*
X150589521Y-81543774D01*
X150572194Y-81561101D01*
X150558580Y-81581475D01*
X150549202Y-81604114D01*
X150544422Y-81628148D01*
X150544422Y-81652652D01*
X150549202Y-81676686D01*
X150558580Y-81699325D01*
X150572194Y-81719699D01*
X150589521Y-81737026D01*
X150609895Y-81750640D01*
X150617552Y-81754733D01*
X150630797Y-81765603D01*
X150641667Y-81778848D01*
X150649742Y-81793954D01*
X150654716Y-81810352D01*
X150657000Y-81833541D01*
X150657000Y-82247259D01*
X150654716Y-82270448D01*
X150649742Y-82286846D01*
X150641667Y-82301952D01*
X150630797Y-82315197D01*
X150617552Y-82326067D01*
X150609895Y-82330160D01*
X150589521Y-82343774D01*
X150572194Y-82361101D01*
X150558580Y-82381475D01*
X150549202Y-82404114D01*
X150544422Y-82428148D01*
X150544422Y-82452652D01*
X150549202Y-82476686D01*
X150558580Y-82499325D01*
X150572194Y-82519699D01*
X150589521Y-82537026D01*
X150609895Y-82550640D01*
X150617552Y-82554733D01*
X150630797Y-82565603D01*
X150641667Y-82578848D01*
X150649742Y-82593954D01*
X150654716Y-82610352D01*
X150657000Y-82633541D01*
X150657000Y-83047259D01*
X150654716Y-83070448D01*
X150649742Y-83086846D01*
X150641667Y-83101952D01*
X150630797Y-83115197D01*
X150617552Y-83126067D01*
X150602446Y-83134142D01*
X150586048Y-83139116D01*
X150562859Y-83141400D01*
X148649141Y-83141400D01*
X148625952Y-83139116D01*
X148609554Y-83134142D01*
X148594448Y-83126067D01*
X148581203Y-83115197D01*
X148570333Y-83101952D01*
X148562258Y-83086846D01*
X148557284Y-83070448D01*
X148555000Y-83047259D01*
X148555000Y-82633541D01*
X148557284Y-82610352D01*
X148562258Y-82593954D01*
X148570333Y-82578848D01*
X148581203Y-82565603D01*
X148594448Y-82554733D01*
X148602105Y-82550640D01*
X148622479Y-82537026D01*
X148639806Y-82519699D01*
X148653420Y-82499325D01*
X148662798Y-82476686D01*
X148667578Y-82452652D01*
X148667578Y-82428148D01*
X148662798Y-82404114D01*
X148653420Y-82381475D01*
X148639806Y-82361101D01*
X148622479Y-82343774D01*
X148602105Y-82330160D01*
X148594448Y-82326067D01*
X148581203Y-82315197D01*
X148570333Y-82301952D01*
X148562258Y-82286846D01*
X148557284Y-82270448D01*
X148555000Y-82247259D01*
X148555000Y-81833541D01*
X148557284Y-81810352D01*
X148562258Y-81793954D01*
X148570333Y-81778848D01*
X148581203Y-81765603D01*
X148594448Y-81754733D01*
X148602105Y-81750640D01*
X148622479Y-81737026D01*
X148639806Y-81719699D01*
X148653420Y-81699325D01*
X148662798Y-81676686D01*
X148667578Y-81652652D01*
X148667578Y-81628148D01*
X148662798Y-81604114D01*
X148653420Y-81581475D01*
X148639806Y-81561101D01*
X148622479Y-81543774D01*
X148602105Y-81530160D01*
X148594448Y-81526067D01*
X148581203Y-81515197D01*
X148570333Y-81501952D01*
X148562258Y-81486846D01*
X148557284Y-81470448D01*
X148555000Y-81447259D01*
X148555000Y-81033541D01*
X148557284Y-81010352D01*
X148562258Y-80993954D01*
X148570333Y-80978848D01*
X148581203Y-80965603D01*
X148594448Y-80954733D01*
X148602105Y-80950640D01*
X148622479Y-80937026D01*
X148639806Y-80919699D01*
X148653420Y-80899325D01*
X148662798Y-80876686D01*
X148667578Y-80852652D01*
X148667578Y-80828148D01*
X148662798Y-80804114D01*
X148653420Y-80781475D01*
X148639806Y-80761101D01*
X148622479Y-80743774D01*
X148602105Y-80730160D01*
X148594448Y-80726067D01*
X148581203Y-80715197D01*
X148570333Y-80701952D01*
X148562258Y-80686846D01*
X148557284Y-80670448D01*
X148555000Y-80647259D01*
X148555000Y-80233541D01*
X148557284Y-80210352D01*
X148562258Y-80193954D01*
X148570333Y-80178848D01*
X148581203Y-80165603D01*
X148594448Y-80154733D01*
X148602105Y-80150640D01*
X148622479Y-80137026D01*
X148639806Y-80119699D01*
X148653420Y-80099325D01*
X148662798Y-80076686D01*
X148667578Y-80052652D01*
X148667578Y-80028148D01*
X148662798Y-80004114D01*
X148653420Y-79981475D01*
X148639806Y-79961101D01*
X148622479Y-79943774D01*
X148602105Y-79930160D01*
X148594448Y-79926067D01*
X148581203Y-79915197D01*
X148570333Y-79901952D01*
X148562258Y-79886846D01*
X148557284Y-79870448D01*
X148555000Y-79847259D01*
X148555000Y-79433541D01*
X148557284Y-79410352D01*
X148562258Y-79393954D01*
X148570333Y-79378848D01*
X148581203Y-79365603D01*
X148594448Y-79354733D01*
X148602105Y-79350640D01*
X148622479Y-79337026D01*
X148639806Y-79319699D01*
X148653420Y-79299325D01*
X148662798Y-79276686D01*
X148667578Y-79252652D01*
X148667578Y-79228148D01*
X148662798Y-79204114D01*
X148653420Y-79181475D01*
X148639806Y-79161101D01*
X148622479Y-79143774D01*
X148602105Y-79130160D01*
X148594448Y-79126067D01*
X148581203Y-79115197D01*
X148570333Y-79101952D01*
X148562258Y-79086846D01*
X148557284Y-79070448D01*
X148555000Y-79047259D01*
X148555000Y-78633541D01*
X148557284Y-78610352D01*
X148562258Y-78593954D01*
X148570333Y-78578848D01*
X148581203Y-78565603D01*
X148594448Y-78554733D01*
X148602105Y-78550640D01*
X148622479Y-78537026D01*
X148639806Y-78519699D01*
X148653420Y-78499325D01*
X148662798Y-78476686D01*
X148667578Y-78452652D01*
X148667578Y-78428148D01*
X148662798Y-78404114D01*
X148653420Y-78381475D01*
X148639806Y-78361101D01*
X148622479Y-78343774D01*
X148602105Y-78330160D01*
X148594448Y-78326067D01*
X148581203Y-78315197D01*
X148570333Y-78301952D01*
X148562258Y-78286846D01*
X148557284Y-78270448D01*
X148555000Y-78247259D01*
X148555000Y-77833541D01*
X148557284Y-77810352D01*
X148562258Y-77793954D01*
X148570333Y-77778848D01*
X148581203Y-77765603D01*
X148594448Y-77754733D01*
X148602105Y-77750640D01*
X148622479Y-77737026D01*
X148639806Y-77719699D01*
X148653420Y-77699325D01*
X148662798Y-77676686D01*
X148667578Y-77652652D01*
X148667578Y-77628148D01*
X148662798Y-77604114D01*
X148653420Y-77581475D01*
X148639806Y-77561101D01*
X148622479Y-77543774D01*
X148602105Y-77530160D01*
X148594448Y-77526067D01*
X148581203Y-77515197D01*
X148570333Y-77501952D01*
X148562258Y-77486846D01*
X148557284Y-77470448D01*
X148555000Y-77447259D01*
X148555000Y-77033541D01*
X148557284Y-77010352D01*
X148562258Y-76993954D01*
X148570333Y-76978848D01*
X148581203Y-76965603D01*
X148594448Y-76954733D01*
X148602105Y-76950640D01*
X148622479Y-76937026D01*
X148639806Y-76919699D01*
X148653420Y-76899325D01*
X148662798Y-76876686D01*
X148667578Y-76852652D01*
X148667578Y-76828148D01*
X148662798Y-76804114D01*
X148653420Y-76781475D01*
X148639806Y-76761101D01*
X148622479Y-76743774D01*
X148602105Y-76730160D01*
X148594448Y-76726067D01*
X148581203Y-76715197D01*
X148570333Y-76701952D01*
X148562258Y-76686846D01*
X148557284Y-76670448D01*
X148555000Y-76647259D01*
X148555000Y-76233541D01*
X148557284Y-76210352D01*
X148562258Y-76193954D01*
X148570333Y-76178848D01*
X148581203Y-76165603D01*
X148594448Y-76154733D01*
X148602105Y-76150640D01*
X148622479Y-76137026D01*
X148639806Y-76119699D01*
X148653420Y-76099325D01*
X148662798Y-76076686D01*
X148667578Y-76052652D01*
X148667578Y-76028148D01*
X148662798Y-76004114D01*
X148653420Y-75981475D01*
X148639806Y-75961101D01*
X148622479Y-75943774D01*
X148602105Y-75930160D01*
X148594448Y-75926067D01*
X148581203Y-75915197D01*
X148570333Y-75901952D01*
X148562258Y-75886846D01*
X148557284Y-75870448D01*
X148555000Y-75847259D01*
X148555000Y-75433541D01*
X148557284Y-75410352D01*
X148562258Y-75393954D01*
X148570333Y-75378848D01*
X148581203Y-75365603D01*
X148594448Y-75354733D01*
X148602105Y-75350640D01*
X148622479Y-75337026D01*
X148639806Y-75319699D01*
X148653420Y-75299325D01*
X148662798Y-75276686D01*
X148667578Y-75252652D01*
X148667578Y-75228148D01*
X148662798Y-75204114D01*
X148653420Y-75181475D01*
X148639806Y-75161101D01*
X148622479Y-75143774D01*
X148602105Y-75130160D01*
X148594448Y-75126067D01*
X148581203Y-75115197D01*
X148570333Y-75101952D01*
X148562258Y-75086846D01*
X148557284Y-75070448D01*
X148555000Y-75047259D01*
X148555000Y-74633541D01*
X148557284Y-74610352D01*
X148562258Y-74593954D01*
X148570333Y-74578848D01*
X148581203Y-74565603D01*
X148594448Y-74554733D01*
X148602105Y-74550640D01*
X148622479Y-74537026D01*
X148639806Y-74519699D01*
X148653420Y-74499325D01*
X148662798Y-74476686D01*
X148667578Y-74452652D01*
X148667578Y-74428148D01*
X148662798Y-74404114D01*
X148653420Y-74381475D01*
X148639806Y-74361101D01*
X148622479Y-74343774D01*
X148602105Y-74330160D01*
X148594448Y-74326067D01*
X148581203Y-74315197D01*
X148570333Y-74301952D01*
X148562258Y-74286846D01*
X148557284Y-74270448D01*
X148555000Y-74247259D01*
X148555000Y-73833541D01*
X148557284Y-73810352D01*
X148562258Y-73793954D01*
X148570333Y-73778848D01*
X148581203Y-73765603D01*
X148594448Y-73754733D01*
X148602105Y-73750640D01*
X148622479Y-73737026D01*
X148639806Y-73719699D01*
X148653420Y-73699325D01*
X148662798Y-73676686D01*
X148667578Y-73652652D01*
X148667578Y-73628148D01*
X148662798Y-73604114D01*
X148653420Y-73581475D01*
X148639806Y-73561101D01*
X148622479Y-73543774D01*
X148602105Y-73530160D01*
X148594448Y-73526067D01*
X148581203Y-73515197D01*
X148570333Y-73501952D01*
X148562258Y-73486846D01*
X148557284Y-73470448D01*
X148555000Y-73447259D01*
X148555000Y-73033541D01*
X148557284Y-73010352D01*
X148562258Y-72993954D01*
X148570333Y-72978848D01*
X148581203Y-72965603D01*
X148594448Y-72954733D01*
X148602105Y-72950640D01*
X148622479Y-72937026D01*
X148639806Y-72919699D01*
X148653420Y-72899325D01*
X148662798Y-72876686D01*
X148667578Y-72852652D01*
X148667578Y-72828148D01*
X148662798Y-72804114D01*
X148653420Y-72781475D01*
X148639806Y-72761101D01*
X148622479Y-72743774D01*
X148602105Y-72730160D01*
X148594448Y-72726067D01*
X148581203Y-72715197D01*
X148570333Y-72701952D01*
X148562258Y-72686846D01*
X148557284Y-72670448D01*
X148555000Y-72647259D01*
X148555000Y-72233541D01*
X148557284Y-72210352D01*
X148562258Y-72193954D01*
X148570333Y-72178848D01*
X148581203Y-72165603D01*
X148594448Y-72154733D01*
X148602105Y-72150640D01*
X148622479Y-72137026D01*
X148639806Y-72119699D01*
X148653420Y-72099325D01*
X148662798Y-72076686D01*
X148667578Y-72052652D01*
X148667578Y-72028148D01*
X148662798Y-72004114D01*
X148653420Y-71981475D01*
X148639806Y-71961101D01*
X148622479Y-71943774D01*
X148602105Y-71930160D01*
X148594448Y-71926067D01*
X148581203Y-71915197D01*
X148570333Y-71901952D01*
X148562258Y-71886846D01*
X148557284Y-71870448D01*
X148555000Y-71847259D01*
X148555000Y-71433541D01*
X148557284Y-71410352D01*
X148562258Y-71393954D01*
X148570333Y-71378848D01*
X148581203Y-71365603D01*
X148594448Y-71354733D01*
X148602105Y-71350640D01*
X148622479Y-71337026D01*
X148639806Y-71319699D01*
X148653420Y-71299325D01*
X148662798Y-71276686D01*
X148667578Y-71252652D01*
X148667578Y-71228148D01*
X148662798Y-71204114D01*
X148653420Y-71181475D01*
X148639806Y-71161101D01*
X148622479Y-71143774D01*
X148602105Y-71130160D01*
X148594448Y-71126067D01*
X148581203Y-71115197D01*
X148570333Y-71101952D01*
X148562258Y-71086846D01*
X148557284Y-71070448D01*
X148555000Y-71047259D01*
X148555000Y-70633541D01*
X148557284Y-70610352D01*
X148562258Y-70593954D01*
X148570333Y-70578848D01*
X148581203Y-70565603D01*
X148594448Y-70554733D01*
X148602105Y-70550640D01*
X148622479Y-70537026D01*
X148639806Y-70519699D01*
X148653420Y-70499325D01*
X148662798Y-70476686D01*
X148667578Y-70452652D01*
X148667578Y-70428148D01*
X148662798Y-70404114D01*
X148653420Y-70381475D01*
X148639806Y-70361101D01*
X148622479Y-70343774D01*
X148602105Y-70330160D01*
X148594448Y-70326067D01*
X148581203Y-70315197D01*
X148570333Y-70301952D01*
X148562258Y-70286846D01*
X148557284Y-70270448D01*
X148555000Y-70247259D01*
X148555000Y-69833541D01*
X148557284Y-69810352D01*
X148562258Y-69793954D01*
X148570333Y-69778848D01*
X148581203Y-69765603D01*
X148594448Y-69754733D01*
X148602105Y-69750640D01*
X148622479Y-69737026D01*
X148639806Y-69719699D01*
X148653420Y-69699325D01*
X148662798Y-69676686D01*
X148667578Y-69652652D01*
X148667578Y-69628148D01*
X148662798Y-69604114D01*
X148653420Y-69581475D01*
X148639806Y-69561101D01*
X148622479Y-69543774D01*
X148602105Y-69530160D01*
X148594448Y-69526067D01*
X148581203Y-69515197D01*
X148570333Y-69501952D01*
X148562258Y-69486846D01*
X148557284Y-69470448D01*
X148555000Y-69447259D01*
X148555000Y-69033541D01*
X148557284Y-69010352D01*
X148562258Y-68993954D01*
X148570333Y-68978848D01*
X148581203Y-68965603D01*
X148594448Y-68954733D01*
X148609554Y-68946658D01*
X148625952Y-68941684D01*
X148649141Y-68939400D01*
X150562859Y-68939400D01*
X150586048Y-68941684D01*
X150586048Y-68941684D01*
G37*
G36*
X129751000Y-66251000D02*
X128149000Y-66251000D01*
X128149000Y-64749000D01*
X129751000Y-64749000D01*
X129751000Y-66251000D01*
X129751000Y-66251000D01*
G37*
G36*
X115867000Y-55291683D02*
X114765000Y-55291683D01*
X114765000Y-53289683D01*
X115867000Y-53289683D01*
X115867000Y-55291683D01*
X115867000Y-55291683D01*
G37*
G36*
X136187000Y-55291683D02*
X135085000Y-55291683D01*
X135085000Y-53289683D01*
X136187000Y-53289683D01*
X136187000Y-55291683D01*
X136187000Y-55291683D01*
G37*
G36*
X131107000Y-55291683D02*
X130005000Y-55291683D01*
X130005000Y-53289683D01*
X131107000Y-53289683D01*
X131107000Y-55291683D01*
X131107000Y-55291683D01*
G37*
G36*
X126027000Y-55291683D02*
X124925000Y-55291683D01*
X124925000Y-53289683D01*
X126027000Y-53289683D01*
X126027000Y-55291683D01*
X126027000Y-55291683D01*
G37*
G36*
X120947000Y-55291683D02*
X119845000Y-55291683D01*
X119845000Y-53289683D01*
X120947000Y-53289683D01*
X120947000Y-55291683D01*
X120947000Y-55291683D01*
G37*
G36*
X141267000Y-55291683D02*
X140165000Y-55291683D01*
X140165000Y-53289683D01*
X141267000Y-53289683D01*
X141267000Y-55291683D01*
X141267000Y-55291683D01*
G37*
G36*
X146347000Y-55291683D02*
X145245000Y-55291683D01*
X145245000Y-53289683D01*
X146347000Y-53289683D01*
X146347000Y-55291683D01*
X146347000Y-55291683D01*
G37*
G36*
X151427000Y-55291683D02*
X150325000Y-55291683D01*
X150325000Y-53289683D01*
X151427000Y-53289683D01*
X151427000Y-55291683D01*
X151427000Y-55291683D01*
G37*
G36*
X156507000Y-55291683D02*
X155405000Y-55291683D01*
X155405000Y-53289683D01*
X156507000Y-53289683D01*
X156507000Y-55291683D01*
X156507000Y-55291683D01*
G37*
G36*
X133647000Y-51991683D02*
X132545000Y-51991683D01*
X132545000Y-49989683D01*
X133647000Y-49989683D01*
X133647000Y-51991683D01*
X133647000Y-51991683D01*
G37*
G36*
X143807000Y-51991683D02*
X142705000Y-51991683D01*
X142705000Y-49989683D01*
X143807000Y-49989683D01*
X143807000Y-51991683D01*
X143807000Y-51991683D01*
G37*
G36*
X153967000Y-51991683D02*
X152865000Y-51991683D01*
X152865000Y-49989683D01*
X153967000Y-49989683D01*
X153967000Y-51991683D01*
X153967000Y-51991683D01*
G37*
G36*
X159047000Y-51991683D02*
X157945000Y-51991683D01*
X157945000Y-49989683D01*
X159047000Y-49989683D01*
X159047000Y-51991683D01*
X159047000Y-51991683D01*
G37*
G36*
X138727000Y-51991683D02*
X137625000Y-51991683D01*
X137625000Y-49989683D01*
X138727000Y-49989683D01*
X138727000Y-51991683D01*
X138727000Y-51991683D01*
G37*
G36*
X123487000Y-51991683D02*
X122385000Y-51991683D01*
X122385000Y-49989683D01*
X123487000Y-49989683D01*
X123487000Y-51991683D01*
X123487000Y-51991683D01*
G37*
G36*
X148887000Y-51991683D02*
X147785000Y-51991683D01*
X147785000Y-49989683D01*
X148887000Y-49989683D01*
X148887000Y-51991683D01*
X148887000Y-51991683D01*
G37*
G36*
X113327000Y-51991683D02*
X112225000Y-51991683D01*
X112225000Y-49989683D01*
X113327000Y-49989683D01*
X113327000Y-51991683D01*
X113327000Y-51991683D01*
G37*
G36*
X118407000Y-51991683D02*
X117305000Y-51991683D01*
X117305000Y-49989683D01*
X118407000Y-49989683D01*
X118407000Y-51991683D01*
X118407000Y-51991683D01*
G37*
G36*
X128567000Y-51991683D02*
X127465000Y-51991683D01*
X127465000Y-49989683D01*
X128567000Y-49989683D01*
X128567000Y-51991683D01*
X128567000Y-51991683D01*
G37*
G36*
X125165000Y-40109000D02*
X124263000Y-40109000D01*
X124263000Y-39107000D01*
X125165000Y-39107000D01*
X125165000Y-40109000D01*
X125165000Y-40109000D01*
G37*
G36*
X151460466Y-39011565D02*
X151499137Y-39023296D01*
X151534779Y-39042348D01*
X151566017Y-39067983D01*
X151591652Y-39099221D01*
X151610704Y-39134863D01*
X151622435Y-39173534D01*
X151627000Y-39219888D01*
X151627000Y-39871112D01*
X151622435Y-39917466D01*
X151610704Y-39956137D01*
X151591652Y-39991779D01*
X151566017Y-40023017D01*
X151534779Y-40048652D01*
X151499137Y-40067704D01*
X151460466Y-40079435D01*
X151414112Y-40084000D01*
X150337888Y-40084000D01*
X150291534Y-40079435D01*
X150252863Y-40067704D01*
X150217221Y-40048652D01*
X150185983Y-40023017D01*
X150160348Y-39991779D01*
X150141296Y-39956137D01*
X150129565Y-39917466D01*
X150125000Y-39871112D01*
X150125000Y-39219888D01*
X150129565Y-39173534D01*
X150141296Y-39134863D01*
X150160348Y-39099221D01*
X150185983Y-39067983D01*
X150217221Y-39042348D01*
X150252863Y-39023296D01*
X150291534Y-39011565D01*
X150337888Y-39007000D01*
X151414112Y-39007000D01*
X151460466Y-39011565D01*
X151460466Y-39011565D01*
G37*
G36*
X121996466Y-39011565D02*
X122035137Y-39023296D01*
X122070779Y-39042348D01*
X122102017Y-39067983D01*
X122127652Y-39099221D01*
X122146704Y-39134863D01*
X122158435Y-39173534D01*
X122163000Y-39219888D01*
X122163000Y-39871112D01*
X122158435Y-39917466D01*
X122146704Y-39956137D01*
X122127652Y-39991779D01*
X122102017Y-40023017D01*
X122070779Y-40048652D01*
X122035137Y-40067704D01*
X121996466Y-40079435D01*
X121950112Y-40084000D01*
X120873888Y-40084000D01*
X120827534Y-40079435D01*
X120788863Y-40067704D01*
X120753221Y-40048652D01*
X120721983Y-40023017D01*
X120696348Y-39991779D01*
X120677296Y-39956137D01*
X120665565Y-39917466D01*
X120661000Y-39871112D01*
X120661000Y-39219888D01*
X120665565Y-39173534D01*
X120677296Y-39134863D01*
X120696348Y-39099221D01*
X120721983Y-39067983D01*
X120753221Y-39042348D01*
X120788863Y-39023296D01*
X120827534Y-39011565D01*
X120873888Y-39007000D01*
X121950112Y-39007000D01*
X121996466Y-39011565D01*
X121996466Y-39011565D01*
G37*
G36*
X128600466Y-39011565D02*
X128639137Y-39023296D01*
X128674779Y-39042348D01*
X128706017Y-39067983D01*
X128731652Y-39099221D01*
X128750704Y-39134863D01*
X128762435Y-39173534D01*
X128767000Y-39219888D01*
X128767000Y-39871112D01*
X128762435Y-39917466D01*
X128750704Y-39956137D01*
X128731652Y-39991779D01*
X128706017Y-40023017D01*
X128674779Y-40048652D01*
X128639137Y-40067704D01*
X128600466Y-40079435D01*
X128554112Y-40084000D01*
X127477888Y-40084000D01*
X127431534Y-40079435D01*
X127392863Y-40067704D01*
X127357221Y-40048652D01*
X127325983Y-40023017D01*
X127300348Y-39991779D01*
X127281296Y-39956137D01*
X127269565Y-39917466D01*
X127265000Y-39871112D01*
X127265000Y-39219888D01*
X127269565Y-39173534D01*
X127281296Y-39134863D01*
X127300348Y-39099221D01*
X127325983Y-39067983D01*
X127357221Y-39042348D01*
X127392863Y-39023296D01*
X127431534Y-39011565D01*
X127477888Y-39007000D01*
X128554112Y-39007000D01*
X128600466Y-39011565D01*
X128600466Y-39011565D01*
G37*
G36*
X131140466Y-39011565D02*
X131179137Y-39023296D01*
X131214779Y-39042348D01*
X131246017Y-39067983D01*
X131271652Y-39099221D01*
X131290704Y-39134863D01*
X131302435Y-39173534D01*
X131307000Y-39219888D01*
X131307000Y-39871112D01*
X131302435Y-39917466D01*
X131290704Y-39956137D01*
X131271652Y-39991779D01*
X131246017Y-40023017D01*
X131214779Y-40048652D01*
X131179137Y-40067704D01*
X131140466Y-40079435D01*
X131094112Y-40084000D01*
X130017888Y-40084000D01*
X129971534Y-40079435D01*
X129932863Y-40067704D01*
X129897221Y-40048652D01*
X129865983Y-40023017D01*
X129840348Y-39991779D01*
X129821296Y-39956137D01*
X129809565Y-39917466D01*
X129805000Y-39871112D01*
X129805000Y-39219888D01*
X129809565Y-39173534D01*
X129821296Y-39134863D01*
X129840348Y-39099221D01*
X129865983Y-39067983D01*
X129897221Y-39042348D01*
X129932863Y-39023296D01*
X129971534Y-39011565D01*
X130017888Y-39007000D01*
X131094112Y-39007000D01*
X131140466Y-39011565D01*
X131140466Y-39011565D01*
G37*
G36*
X155270466Y-39011565D02*
X155309137Y-39023296D01*
X155344779Y-39042348D01*
X155376017Y-39067983D01*
X155401652Y-39099221D01*
X155420704Y-39134863D01*
X155432435Y-39173534D01*
X155437000Y-39219888D01*
X155437000Y-39871112D01*
X155432435Y-39917466D01*
X155420704Y-39956137D01*
X155401652Y-39991779D01*
X155376017Y-40023017D01*
X155344779Y-40048652D01*
X155309137Y-40067704D01*
X155270466Y-40079435D01*
X155224112Y-40084000D01*
X154147888Y-40084000D01*
X154101534Y-40079435D01*
X154062863Y-40067704D01*
X154027221Y-40048652D01*
X153995983Y-40023017D01*
X153970348Y-39991779D01*
X153951296Y-39956137D01*
X153939565Y-39917466D01*
X153935000Y-39871112D01*
X153935000Y-39219888D01*
X153939565Y-39173534D01*
X153951296Y-39134863D01*
X153970348Y-39099221D01*
X153995983Y-39067983D01*
X154027221Y-39042348D01*
X154062863Y-39023296D01*
X154101534Y-39011565D01*
X154147888Y-39007000D01*
X155224112Y-39007000D01*
X155270466Y-39011565D01*
X155270466Y-39011565D01*
G37*
G36*
X146507466Y-39011565D02*
X146546137Y-39023296D01*
X146581779Y-39042348D01*
X146613017Y-39067983D01*
X146638652Y-39099221D01*
X146657704Y-39134863D01*
X146669435Y-39173534D01*
X146674000Y-39219888D01*
X146674000Y-39871112D01*
X146669435Y-39917466D01*
X146657704Y-39956137D01*
X146638652Y-39991779D01*
X146613017Y-40023017D01*
X146581779Y-40048652D01*
X146546137Y-40067704D01*
X146507466Y-40079435D01*
X146461112Y-40084000D01*
X145384888Y-40084000D01*
X145338534Y-40079435D01*
X145299863Y-40067704D01*
X145264221Y-40048652D01*
X145232983Y-40023017D01*
X145207348Y-39991779D01*
X145188296Y-39956137D01*
X145176565Y-39917466D01*
X145172000Y-39871112D01*
X145172000Y-39219888D01*
X145176565Y-39173534D01*
X145188296Y-39134863D01*
X145207348Y-39099221D01*
X145232983Y-39067983D01*
X145264221Y-39042348D01*
X145299863Y-39023296D01*
X145338534Y-39011565D01*
X145384888Y-39007000D01*
X146461112Y-39007000D01*
X146507466Y-39011565D01*
X146507466Y-39011565D01*
G37*
G36*
X143967466Y-39011565D02*
X144006137Y-39023296D01*
X144041779Y-39042348D01*
X144073017Y-39067983D01*
X144098652Y-39099221D01*
X144117704Y-39134863D01*
X144129435Y-39173534D01*
X144134000Y-39219888D01*
X144134000Y-39871112D01*
X144129435Y-39917466D01*
X144117704Y-39956137D01*
X144098652Y-39991779D01*
X144073017Y-40023017D01*
X144041779Y-40048652D01*
X144006137Y-40067704D01*
X143967466Y-40079435D01*
X143921112Y-40084000D01*
X142844888Y-40084000D01*
X142798534Y-40079435D01*
X142759863Y-40067704D01*
X142724221Y-40048652D01*
X142692983Y-40023017D01*
X142667348Y-39991779D01*
X142648296Y-39956137D01*
X142636565Y-39917466D01*
X142632000Y-39871112D01*
X142632000Y-39219888D01*
X142636565Y-39173534D01*
X142648296Y-39134863D01*
X142667348Y-39099221D01*
X142692983Y-39067983D01*
X142724221Y-39042348D01*
X142759863Y-39023296D01*
X142798534Y-39011565D01*
X142844888Y-39007000D01*
X143921112Y-39007000D01*
X143967466Y-39011565D01*
X143967466Y-39011565D01*
G37*
G36*
X141427466Y-39011565D02*
X141466137Y-39023296D01*
X141501779Y-39042348D01*
X141533017Y-39067983D01*
X141558652Y-39099221D01*
X141577704Y-39134863D01*
X141589435Y-39173534D01*
X141594000Y-39219888D01*
X141594000Y-39871112D01*
X141589435Y-39917466D01*
X141577704Y-39956137D01*
X141558652Y-39991779D01*
X141533017Y-40023017D01*
X141501779Y-40048652D01*
X141466137Y-40067704D01*
X141427466Y-40079435D01*
X141381112Y-40084000D01*
X140304888Y-40084000D01*
X140258534Y-40079435D01*
X140219863Y-40067704D01*
X140184221Y-40048652D01*
X140152983Y-40023017D01*
X140127348Y-39991779D01*
X140108296Y-39956137D01*
X140096565Y-39917466D01*
X140092000Y-39871112D01*
X140092000Y-39219888D01*
X140096565Y-39173534D01*
X140108296Y-39134863D01*
X140127348Y-39099221D01*
X140152983Y-39067983D01*
X140184221Y-39042348D01*
X140219863Y-39023296D01*
X140258534Y-39011565D01*
X140304888Y-39007000D01*
X141381112Y-39007000D01*
X141427466Y-39011565D01*
X141427466Y-39011565D01*
G37*
G36*
X133680466Y-39011565D02*
X133719137Y-39023296D01*
X133754779Y-39042348D01*
X133786017Y-39067983D01*
X133811652Y-39099221D01*
X133830704Y-39134863D01*
X133842435Y-39173534D01*
X133847000Y-39219888D01*
X133847000Y-39871112D01*
X133842435Y-39917466D01*
X133830704Y-39956137D01*
X133811652Y-39991779D01*
X133786017Y-40023017D01*
X133754779Y-40048652D01*
X133719137Y-40067704D01*
X133680466Y-40079435D01*
X133634112Y-40084000D01*
X132557888Y-40084000D01*
X132511534Y-40079435D01*
X132472863Y-40067704D01*
X132437221Y-40048652D01*
X132405983Y-40023017D01*
X132380348Y-39991779D01*
X132361296Y-39956137D01*
X132349565Y-39917466D01*
X132345000Y-39871112D01*
X132345000Y-39219888D01*
X132349565Y-39173534D01*
X132361296Y-39134863D01*
X132380348Y-39099221D01*
X132405983Y-39067983D01*
X132437221Y-39042348D01*
X132472863Y-39023296D01*
X132511534Y-39011565D01*
X132557888Y-39007000D01*
X133634112Y-39007000D01*
X133680466Y-39011565D01*
X133680466Y-39011565D01*
G37*
G36*
X143967466Y-37136565D02*
X144006137Y-37148296D01*
X144041779Y-37167348D01*
X144073017Y-37192983D01*
X144098652Y-37224221D01*
X144117704Y-37259863D01*
X144129435Y-37298534D01*
X144134000Y-37344888D01*
X144134000Y-37996112D01*
X144129435Y-38042466D01*
X144117704Y-38081137D01*
X144098652Y-38116779D01*
X144073017Y-38148017D01*
X144041779Y-38173652D01*
X144006137Y-38192704D01*
X143967466Y-38204435D01*
X143921112Y-38209000D01*
X142844888Y-38209000D01*
X142798534Y-38204435D01*
X142759863Y-38192704D01*
X142724221Y-38173652D01*
X142692983Y-38148017D01*
X142667348Y-38116779D01*
X142648296Y-38081137D01*
X142636565Y-38042466D01*
X142632000Y-37996112D01*
X142632000Y-37344888D01*
X142636565Y-37298534D01*
X142648296Y-37259863D01*
X142667348Y-37224221D01*
X142692983Y-37192983D01*
X142724221Y-37167348D01*
X142759863Y-37148296D01*
X142798534Y-37136565D01*
X142844888Y-37132000D01*
X143921112Y-37132000D01*
X143967466Y-37136565D01*
X143967466Y-37136565D01*
G37*
G36*
X141427466Y-37136565D02*
X141466137Y-37148296D01*
X141501779Y-37167348D01*
X141533017Y-37192983D01*
X141558652Y-37224221D01*
X141577704Y-37259863D01*
X141589435Y-37298534D01*
X141594000Y-37344888D01*
X141594000Y-37996112D01*
X141589435Y-38042466D01*
X141577704Y-38081137D01*
X141558652Y-38116779D01*
X141533017Y-38148017D01*
X141501779Y-38173652D01*
X141466137Y-38192704D01*
X141427466Y-38204435D01*
X141381112Y-38209000D01*
X140304888Y-38209000D01*
X140258534Y-38204435D01*
X140219863Y-38192704D01*
X140184221Y-38173652D01*
X140152983Y-38148017D01*
X140127348Y-38116779D01*
X140108296Y-38081137D01*
X140096565Y-38042466D01*
X140092000Y-37996112D01*
X140092000Y-37344888D01*
X140096565Y-37298534D01*
X140108296Y-37259863D01*
X140127348Y-37224221D01*
X140152983Y-37192983D01*
X140184221Y-37167348D01*
X140219863Y-37148296D01*
X140258534Y-37136565D01*
X140304888Y-37132000D01*
X141381112Y-37132000D01*
X141427466Y-37136565D01*
X141427466Y-37136565D01*
G37*
G36*
X133680466Y-37136565D02*
X133719137Y-37148296D01*
X133754779Y-37167348D01*
X133786017Y-37192983D01*
X133811652Y-37224221D01*
X133830704Y-37259863D01*
X133842435Y-37298534D01*
X133847000Y-37344888D01*
X133847000Y-37996112D01*
X133842435Y-38042466D01*
X133830704Y-38081137D01*
X133811652Y-38116779D01*
X133786017Y-38148017D01*
X133754779Y-38173652D01*
X133719137Y-38192704D01*
X133680466Y-38204435D01*
X133634112Y-38209000D01*
X132557888Y-38209000D01*
X132511534Y-38204435D01*
X132472863Y-38192704D01*
X132437221Y-38173652D01*
X132405983Y-38148017D01*
X132380348Y-38116779D01*
X132361296Y-38081137D01*
X132349565Y-38042466D01*
X132345000Y-37996112D01*
X132345000Y-37344888D01*
X132349565Y-37298534D01*
X132361296Y-37259863D01*
X132380348Y-37224221D01*
X132405983Y-37192983D01*
X132437221Y-37167348D01*
X132472863Y-37148296D01*
X132511534Y-37136565D01*
X132557888Y-37132000D01*
X133634112Y-37132000D01*
X133680466Y-37136565D01*
X133680466Y-37136565D01*
G37*
G36*
X131140466Y-37136565D02*
X131179137Y-37148296D01*
X131214779Y-37167348D01*
X131246017Y-37192983D01*
X131271652Y-37224221D01*
X131290704Y-37259863D01*
X131302435Y-37298534D01*
X131307000Y-37344888D01*
X131307000Y-37996112D01*
X131302435Y-38042466D01*
X131290704Y-38081137D01*
X131271652Y-38116779D01*
X131246017Y-38148017D01*
X131214779Y-38173652D01*
X131179137Y-38192704D01*
X131140466Y-38204435D01*
X131094112Y-38209000D01*
X130017888Y-38209000D01*
X129971534Y-38204435D01*
X129932863Y-38192704D01*
X129897221Y-38173652D01*
X129865983Y-38148017D01*
X129840348Y-38116779D01*
X129821296Y-38081137D01*
X129809565Y-38042466D01*
X129805000Y-37996112D01*
X129805000Y-37344888D01*
X129809565Y-37298534D01*
X129821296Y-37259863D01*
X129840348Y-37224221D01*
X129865983Y-37192983D01*
X129897221Y-37167348D01*
X129932863Y-37148296D01*
X129971534Y-37136565D01*
X130017888Y-37132000D01*
X131094112Y-37132000D01*
X131140466Y-37136565D01*
X131140466Y-37136565D01*
G37*
G36*
X128600466Y-37136565D02*
X128639137Y-37148296D01*
X128674779Y-37167348D01*
X128706017Y-37192983D01*
X128731652Y-37224221D01*
X128750704Y-37259863D01*
X128762435Y-37298534D01*
X128767000Y-37344888D01*
X128767000Y-37996112D01*
X128762435Y-38042466D01*
X128750704Y-38081137D01*
X128731652Y-38116779D01*
X128706017Y-38148017D01*
X128674779Y-38173652D01*
X128639137Y-38192704D01*
X128600466Y-38204435D01*
X128554112Y-38209000D01*
X127477888Y-38209000D01*
X127431534Y-38204435D01*
X127392863Y-38192704D01*
X127357221Y-38173652D01*
X127325983Y-38148017D01*
X127300348Y-38116779D01*
X127281296Y-38081137D01*
X127269565Y-38042466D01*
X127265000Y-37996112D01*
X127265000Y-37344888D01*
X127269565Y-37298534D01*
X127281296Y-37259863D01*
X127300348Y-37224221D01*
X127325983Y-37192983D01*
X127357221Y-37167348D01*
X127392863Y-37148296D01*
X127431534Y-37136565D01*
X127477888Y-37132000D01*
X128554112Y-37132000D01*
X128600466Y-37136565D01*
X128600466Y-37136565D01*
G37*
G36*
X121996466Y-37136565D02*
X122035137Y-37148296D01*
X122070779Y-37167348D01*
X122102017Y-37192983D01*
X122127652Y-37224221D01*
X122146704Y-37259863D01*
X122158435Y-37298534D01*
X122163000Y-37344888D01*
X122163000Y-37996112D01*
X122158435Y-38042466D01*
X122146704Y-38081137D01*
X122127652Y-38116779D01*
X122102017Y-38148017D01*
X122070779Y-38173652D01*
X122035137Y-38192704D01*
X121996466Y-38204435D01*
X121950112Y-38209000D01*
X120873888Y-38209000D01*
X120827534Y-38204435D01*
X120788863Y-38192704D01*
X120753221Y-38173652D01*
X120721983Y-38148017D01*
X120696348Y-38116779D01*
X120677296Y-38081137D01*
X120665565Y-38042466D01*
X120661000Y-37996112D01*
X120661000Y-37344888D01*
X120665565Y-37298534D01*
X120677296Y-37259863D01*
X120696348Y-37224221D01*
X120721983Y-37192983D01*
X120753221Y-37167348D01*
X120788863Y-37148296D01*
X120827534Y-37136565D01*
X120873888Y-37132000D01*
X121950112Y-37132000D01*
X121996466Y-37136565D01*
X121996466Y-37136565D01*
G37*
G36*
X155270466Y-37136565D02*
X155309137Y-37148296D01*
X155344779Y-37167348D01*
X155376017Y-37192983D01*
X155401652Y-37224221D01*
X155420704Y-37259863D01*
X155432435Y-37298534D01*
X155437000Y-37344888D01*
X155437000Y-37996112D01*
X155432435Y-38042466D01*
X155420704Y-38081137D01*
X155401652Y-38116779D01*
X155376017Y-38148017D01*
X155344779Y-38173652D01*
X155309137Y-38192704D01*
X155270466Y-38204435D01*
X155224112Y-38209000D01*
X154147888Y-38209000D01*
X154101534Y-38204435D01*
X154062863Y-38192704D01*
X154027221Y-38173652D01*
X153995983Y-38148017D01*
X153970348Y-38116779D01*
X153951296Y-38081137D01*
X153939565Y-38042466D01*
X153935000Y-37996112D01*
X153935000Y-37344888D01*
X153939565Y-37298534D01*
X153951296Y-37259863D01*
X153970348Y-37224221D01*
X153995983Y-37192983D01*
X154027221Y-37167348D01*
X154062863Y-37148296D01*
X154101534Y-37136565D01*
X154147888Y-37132000D01*
X155224112Y-37132000D01*
X155270466Y-37136565D01*
X155270466Y-37136565D01*
G37*
G36*
X151460466Y-37136565D02*
X151499137Y-37148296D01*
X151534779Y-37167348D01*
X151566017Y-37192983D01*
X151591652Y-37224221D01*
X151610704Y-37259863D01*
X151622435Y-37298534D01*
X151627000Y-37344888D01*
X151627000Y-37996112D01*
X151622435Y-38042466D01*
X151610704Y-38081137D01*
X151591652Y-38116779D01*
X151566017Y-38148017D01*
X151534779Y-38173652D01*
X151499137Y-38192704D01*
X151460466Y-38204435D01*
X151414112Y-38209000D01*
X150337888Y-38209000D01*
X150291534Y-38204435D01*
X150252863Y-38192704D01*
X150217221Y-38173652D01*
X150185983Y-38148017D01*
X150160348Y-38116779D01*
X150141296Y-38081137D01*
X150129565Y-38042466D01*
X150125000Y-37996112D01*
X150125000Y-37344888D01*
X150129565Y-37298534D01*
X150141296Y-37259863D01*
X150160348Y-37224221D01*
X150185983Y-37192983D01*
X150217221Y-37167348D01*
X150252863Y-37148296D01*
X150291534Y-37136565D01*
X150337888Y-37132000D01*
X151414112Y-37132000D01*
X151460466Y-37136565D01*
X151460466Y-37136565D01*
G37*
G36*
X146507466Y-37136565D02*
X146546137Y-37148296D01*
X146581779Y-37167348D01*
X146613017Y-37192983D01*
X146638652Y-37224221D01*
X146657704Y-37259863D01*
X146669435Y-37298534D01*
X146674000Y-37344888D01*
X146674000Y-37996112D01*
X146669435Y-38042466D01*
X146657704Y-38081137D01*
X146638652Y-38116779D01*
X146613017Y-38148017D01*
X146581779Y-38173652D01*
X146546137Y-38192704D01*
X146507466Y-38204435D01*
X146461112Y-38209000D01*
X145384888Y-38209000D01*
X145338534Y-38204435D01*
X145299863Y-38192704D01*
X145264221Y-38173652D01*
X145232983Y-38148017D01*
X145207348Y-38116779D01*
X145188296Y-38081137D01*
X145176565Y-38042466D01*
X145172000Y-37996112D01*
X145172000Y-37344888D01*
X145176565Y-37298534D01*
X145188296Y-37259863D01*
X145207348Y-37224221D01*
X145232983Y-37192983D01*
X145264221Y-37167348D01*
X145299863Y-37148296D01*
X145338534Y-37136565D01*
X145384888Y-37132000D01*
X146461112Y-37132000D01*
X146507466Y-37136565D01*
X146507466Y-37136565D01*
G37*
G36*
X126115000Y-38109000D02*
X125213000Y-38109000D01*
X125213000Y-37107000D01*
X126115000Y-37107000D01*
X126115000Y-38109000D01*
X126115000Y-38109000D01*
G37*
G36*
X124215000Y-38109000D02*
X123313000Y-38109000D01*
X123313000Y-37107000D01*
X124215000Y-37107000D01*
X124215000Y-38109000D01*
X124215000Y-38109000D01*
G37*
G36*
X133647000Y-29918083D02*
X132545000Y-29918083D01*
X132545000Y-27916083D01*
X133647000Y-27916083D01*
X133647000Y-29918083D01*
X133647000Y-29918083D01*
G37*
G36*
X138727000Y-29918083D02*
X137625000Y-29918083D01*
X137625000Y-27916083D01*
X138727000Y-27916083D01*
X138727000Y-29918083D01*
X138727000Y-29918083D01*
G37*
G36*
X143807000Y-29918083D02*
X142705000Y-29918083D01*
X142705000Y-27916083D01*
X143807000Y-27916083D01*
X143807000Y-29918083D01*
X143807000Y-29918083D01*
G37*
G36*
X148887000Y-29918083D02*
X147785000Y-29918083D01*
X147785000Y-27916083D01*
X148887000Y-27916083D01*
X148887000Y-29918083D01*
X148887000Y-29918083D01*
G37*
G36*
X153967000Y-29918083D02*
X152865000Y-29918083D01*
X152865000Y-27916083D01*
X153967000Y-27916083D01*
X153967000Y-29918083D01*
X153967000Y-29918083D01*
G37*
G36*
X128567000Y-29918083D02*
X127465000Y-29918083D01*
X127465000Y-27916083D01*
X128567000Y-27916083D01*
X128567000Y-29918083D01*
X128567000Y-29918083D01*
G37*
G36*
X159047000Y-29918083D02*
X157945000Y-29918083D01*
X157945000Y-27916083D01*
X159047000Y-27916083D01*
X159047000Y-29918083D01*
X159047000Y-29918083D01*
G37*
G36*
X118407000Y-29918083D02*
X117305000Y-29918083D01*
X117305000Y-27916083D01*
X118407000Y-27916083D01*
X118407000Y-29918083D01*
X118407000Y-29918083D01*
G37*
G36*
X123487000Y-29918083D02*
X122385000Y-29918083D01*
X122385000Y-27916083D01*
X123487000Y-27916083D01*
X123487000Y-29918083D01*
X123487000Y-29918083D01*
G37*
G36*
X113327000Y-29918083D02*
X112225000Y-29918083D01*
X112225000Y-27916083D01*
X113327000Y-27916083D01*
X113327000Y-29918083D01*
X113327000Y-29918083D01*
G37*
G36*
X120947000Y-26618083D02*
X119845000Y-26618083D01*
X119845000Y-24616083D01*
X120947000Y-24616083D01*
X120947000Y-26618083D01*
X120947000Y-26618083D01*
G37*
G36*
X156507000Y-26618083D02*
X155405000Y-26618083D01*
X155405000Y-24616083D01*
X156507000Y-24616083D01*
X156507000Y-26618083D01*
X156507000Y-26618083D01*
G37*
G36*
X151427000Y-26618083D02*
X150325000Y-26618083D01*
X150325000Y-24616083D01*
X151427000Y-24616083D01*
X151427000Y-26618083D01*
X151427000Y-26618083D01*
G37*
G36*
X146347000Y-26618083D02*
X145245000Y-26618083D01*
X145245000Y-24616083D01*
X146347000Y-24616083D01*
X146347000Y-26618083D01*
X146347000Y-26618083D01*
G37*
G36*
X141267000Y-26618083D02*
X140165000Y-26618083D01*
X140165000Y-24616083D01*
X141267000Y-24616083D01*
X141267000Y-26618083D01*
X141267000Y-26618083D01*
G37*
G36*
X136187000Y-26618083D02*
X135085000Y-26618083D01*
X135085000Y-24616083D01*
X136187000Y-24616083D01*
X136187000Y-26618083D01*
X136187000Y-26618083D01*
G37*
G36*
X131107000Y-26618083D02*
X130005000Y-26618083D01*
X130005000Y-24616083D01*
X131107000Y-24616083D01*
X131107000Y-26618083D01*
X131107000Y-26618083D01*
G37*
G36*
X126027000Y-26618083D02*
X124925000Y-26618083D01*
X124925000Y-24616083D01*
X126027000Y-24616083D01*
X126027000Y-26618083D01*
X126027000Y-26618083D01*
G37*
G36*
X115867000Y-26618083D02*
X114765000Y-26618083D01*
X114765000Y-24616083D01*
X115867000Y-24616083D01*
X115867000Y-26618083D01*
X115867000Y-26618083D01*
G37*
G36*
X112886443Y-19425519D02*
X112952627Y-19432037D01*
X113065853Y-19466384D01*
X113122467Y-19483557D01*
X113261087Y-19557652D01*
X113278991Y-19567222D01*
X113314729Y-19596552D01*
X113416186Y-19679814D01*
X113499448Y-19781271D01*
X113528778Y-19817009D01*
X113528779Y-19817011D01*
X113612443Y-19973533D01*
X113612443Y-19973534D01*
X113663963Y-20143373D01*
X113681359Y-20320000D01*
X113663963Y-20496627D01*
X113629616Y-20609853D01*
X113612443Y-20666467D01*
X113587168Y-20713752D01*
X113528778Y-20822991D01*
X113522205Y-20831000D01*
X113416186Y-20960186D01*
X113314729Y-21043448D01*
X113278991Y-21072778D01*
X113278989Y-21072779D01*
X113122467Y-21156443D01*
X113065853Y-21173616D01*
X112952627Y-21207963D01*
X112886442Y-21214482D01*
X112820260Y-21221000D01*
X112731740Y-21221000D01*
X112665558Y-21214482D01*
X112599373Y-21207963D01*
X112486147Y-21173616D01*
X112429533Y-21156443D01*
X112273011Y-21072779D01*
X112273009Y-21072778D01*
X112237271Y-21043448D01*
X112135814Y-20960186D01*
X112029795Y-20831000D01*
X112023222Y-20822991D01*
X111964832Y-20713752D01*
X111939557Y-20666467D01*
X111922384Y-20609853D01*
X111888037Y-20496627D01*
X111870641Y-20320000D01*
X111888037Y-20143373D01*
X111939557Y-19973534D01*
X111939557Y-19973533D01*
X112023221Y-19817011D01*
X112023222Y-19817009D01*
X112052552Y-19781271D01*
X112135814Y-19679814D01*
X112237271Y-19596552D01*
X112273009Y-19567222D01*
X112290913Y-19557652D01*
X112429533Y-19483557D01*
X112486147Y-19466384D01*
X112599373Y-19432037D01*
X112665558Y-19425518D01*
X112731740Y-19419000D01*
X112820260Y-19419000D01*
X112886443Y-19425519D01*
X112886443Y-19425519D01*
G37*
G36*
X116217000Y-21221000D02*
X114415000Y-21221000D01*
X114415000Y-19419000D01*
X116217000Y-19419000D01*
X116217000Y-21221000D01*
X116217000Y-21221000D01*
G37*
G36*
X156574443Y-19425519D02*
X156640627Y-19432037D01*
X156753853Y-19466384D01*
X156810467Y-19483557D01*
X156949087Y-19557652D01*
X156966991Y-19567222D01*
X157002729Y-19596552D01*
X157104186Y-19679814D01*
X157187448Y-19781271D01*
X157216778Y-19817009D01*
X157216779Y-19817011D01*
X157300443Y-19973533D01*
X157300443Y-19973534D01*
X157351963Y-20143373D01*
X157369359Y-20320000D01*
X157351963Y-20496627D01*
X157317616Y-20609853D01*
X157300443Y-20666467D01*
X157275168Y-20713752D01*
X157216778Y-20822991D01*
X157210205Y-20831000D01*
X157104186Y-20960186D01*
X157002729Y-21043448D01*
X156966991Y-21072778D01*
X156966989Y-21072779D01*
X156810467Y-21156443D01*
X156753853Y-21173616D01*
X156640627Y-21207963D01*
X156574442Y-21214482D01*
X156508260Y-21221000D01*
X156419740Y-21221000D01*
X156353558Y-21214482D01*
X156287373Y-21207963D01*
X156174147Y-21173616D01*
X156117533Y-21156443D01*
X155961011Y-21072779D01*
X155961009Y-21072778D01*
X155925271Y-21043448D01*
X155823814Y-20960186D01*
X155717795Y-20831000D01*
X155711222Y-20822991D01*
X155652832Y-20713752D01*
X155627557Y-20666467D01*
X155610384Y-20609853D01*
X155576037Y-20496627D01*
X155558641Y-20320000D01*
X155576037Y-20143373D01*
X155627557Y-19973534D01*
X155627557Y-19973533D01*
X155711221Y-19817011D01*
X155711222Y-19817009D01*
X155740552Y-19781271D01*
X155823814Y-19679814D01*
X155925271Y-19596552D01*
X155961009Y-19567222D01*
X155978913Y-19557652D01*
X156117533Y-19483557D01*
X156174147Y-19466384D01*
X156287373Y-19432037D01*
X156353558Y-19425518D01*
X156419740Y-19419000D01*
X156508260Y-19419000D01*
X156574443Y-19425519D01*
X156574443Y-19425519D01*
G37*
G36*
X159905000Y-21221000D02*
X158103000Y-21221000D01*
X158103000Y-19419000D01*
X159905000Y-19419000D01*
X159905000Y-21221000D01*
X159905000Y-21221000D01*
G37*
G36*
X165989941Y-14846248D02*
X165989943Y-14846249D01*
X165989944Y-14846249D01*
X166545190Y-15076239D01*
X166545191Y-15076240D01*
X167044902Y-15410136D01*
X167469864Y-15835098D01*
X167469866Y-15835101D01*
X167803761Y-16334810D01*
X168019838Y-16856467D01*
X168033752Y-16890059D01*
X168130487Y-17376376D01*
X168151000Y-17479503D01*
X168151000Y-18080497D01*
X168033751Y-18669944D01*
X167803761Y-19225190D01*
X167575223Y-19567221D01*
X167469864Y-19724902D01*
X167044902Y-20149864D01*
X167044899Y-20149866D01*
X166545190Y-20483761D01*
X165989944Y-20713751D01*
X165989943Y-20713751D01*
X165989941Y-20713752D01*
X165400499Y-20831000D01*
X164799501Y-20831000D01*
X164210059Y-20713752D01*
X164210057Y-20713751D01*
X164210056Y-20713751D01*
X163654810Y-20483761D01*
X163155101Y-20149866D01*
X163155098Y-20149864D01*
X162730136Y-19724902D01*
X162624777Y-19567221D01*
X162396239Y-19225190D01*
X162166249Y-18669944D01*
X162049000Y-18080497D01*
X162049000Y-17479503D01*
X162069513Y-17376376D01*
X162166248Y-16890059D01*
X162180162Y-16856467D01*
X162396239Y-16334810D01*
X162730134Y-15835101D01*
X162730136Y-15835098D01*
X163155098Y-15410136D01*
X163654809Y-15076240D01*
X163654810Y-15076239D01*
X164210056Y-14846249D01*
X164210057Y-14846249D01*
X164210059Y-14846248D01*
X164799501Y-14729000D01*
X165400499Y-14729000D01*
X165989941Y-14846248D01*
X165989941Y-14846248D01*
G37*
G36*
X107569941Y-14846248D02*
X107569943Y-14846249D01*
X107569944Y-14846249D01*
X108125190Y-15076239D01*
X108125191Y-15076240D01*
X108624902Y-15410136D01*
X109049864Y-15835098D01*
X109049866Y-15835101D01*
X109383761Y-16334810D01*
X109599838Y-16856467D01*
X109613752Y-16890059D01*
X109710487Y-17376376D01*
X109731000Y-17479503D01*
X109731000Y-18080497D01*
X109613751Y-18669944D01*
X109383761Y-19225190D01*
X109155223Y-19567221D01*
X109049864Y-19724902D01*
X108624902Y-20149864D01*
X108624899Y-20149866D01*
X108125190Y-20483761D01*
X107569944Y-20713751D01*
X107569943Y-20713751D01*
X107569941Y-20713752D01*
X106980499Y-20831000D01*
X106379501Y-20831000D01*
X105790059Y-20713752D01*
X105790057Y-20713751D01*
X105790056Y-20713751D01*
X105234810Y-20483761D01*
X104735101Y-20149866D01*
X104735098Y-20149864D01*
X104310136Y-19724902D01*
X104204777Y-19567221D01*
X103976239Y-19225190D01*
X103746249Y-18669944D01*
X103629000Y-18080497D01*
X103629000Y-17479503D01*
X103649513Y-17376376D01*
X103746248Y-16890059D01*
X103760162Y-16856467D01*
X103976239Y-16334810D01*
X104310134Y-15835101D01*
X104310136Y-15835098D01*
X104735098Y-15410136D01*
X105234809Y-15076240D01*
X105234810Y-15076239D01*
X105790056Y-14846249D01*
X105790057Y-14846249D01*
X105790059Y-14846248D01*
X106379501Y-14729000D01*
X106980499Y-14729000D01*
X107569941Y-14846248D01*
X107569941Y-14846248D01*
G37*
G36*
X156574442Y-15615518D02*
X156640627Y-15622037D01*
X156753853Y-15656384D01*
X156810467Y-15673557D01*
X156893403Y-15717888D01*
X156966991Y-15757222D01*
X157002729Y-15786552D01*
X157104186Y-15869814D01*
X157187448Y-15971271D01*
X157216778Y-16007009D01*
X157216779Y-16007011D01*
X157300443Y-16163533D01*
X157300443Y-16163534D01*
X157351963Y-16333373D01*
X157369359Y-16510000D01*
X157351963Y-16686627D01*
X157336455Y-16737750D01*
X157300443Y-16856467D01*
X157288325Y-16879137D01*
X157216778Y-17012991D01*
X157187448Y-17048729D01*
X157104186Y-17150186D01*
X157031480Y-17209853D01*
X156966991Y-17262778D01*
X156966989Y-17262779D01*
X156810467Y-17346443D01*
X156753853Y-17363616D01*
X156640627Y-17397963D01*
X156574443Y-17404481D01*
X156508260Y-17411000D01*
X156419740Y-17411000D01*
X156353558Y-17404482D01*
X156287373Y-17397963D01*
X156174147Y-17363616D01*
X156117533Y-17346443D01*
X155961011Y-17262779D01*
X155961009Y-17262778D01*
X155896520Y-17209853D01*
X155823814Y-17150186D01*
X155740552Y-17048729D01*
X155711222Y-17012991D01*
X155639675Y-16879137D01*
X155627557Y-16856467D01*
X155591545Y-16737750D01*
X155576037Y-16686627D01*
X155558641Y-16510000D01*
X155576037Y-16333373D01*
X155627557Y-16163534D01*
X155627557Y-16163533D01*
X155711221Y-16007011D01*
X155711222Y-16007009D01*
X155740552Y-15971271D01*
X155823814Y-15869814D01*
X155925271Y-15786552D01*
X155961009Y-15757222D01*
X156034597Y-15717888D01*
X156117533Y-15673557D01*
X156174147Y-15656384D01*
X156287373Y-15622037D01*
X156353558Y-15615518D01*
X156419740Y-15609000D01*
X156508260Y-15609000D01*
X156574442Y-15615518D01*
X156574442Y-15615518D01*
G37*
G36*
X159114442Y-15615518D02*
X159180627Y-15622037D01*
X159293853Y-15656384D01*
X159350467Y-15673557D01*
X159433403Y-15717888D01*
X159506991Y-15757222D01*
X159542729Y-15786552D01*
X159644186Y-15869814D01*
X159727448Y-15971271D01*
X159756778Y-16007009D01*
X159756779Y-16007011D01*
X159840443Y-16163533D01*
X159840443Y-16163534D01*
X159891963Y-16333373D01*
X159909359Y-16510000D01*
X159891963Y-16686627D01*
X159876455Y-16737750D01*
X159840443Y-16856467D01*
X159828325Y-16879137D01*
X159756778Y-17012991D01*
X159727448Y-17048729D01*
X159644186Y-17150186D01*
X159571480Y-17209853D01*
X159506991Y-17262778D01*
X159506989Y-17262779D01*
X159350467Y-17346443D01*
X159293853Y-17363616D01*
X159180627Y-17397963D01*
X159114443Y-17404481D01*
X159048260Y-17411000D01*
X158959740Y-17411000D01*
X158893558Y-17404482D01*
X158827373Y-17397963D01*
X158714147Y-17363616D01*
X158657533Y-17346443D01*
X158501011Y-17262779D01*
X158501009Y-17262778D01*
X158436520Y-17209853D01*
X158363814Y-17150186D01*
X158280552Y-17048729D01*
X158251222Y-17012991D01*
X158179675Y-16879137D01*
X158167557Y-16856467D01*
X158131545Y-16737750D01*
X158116037Y-16686627D01*
X158098641Y-16510000D01*
X158116037Y-16333373D01*
X158167557Y-16163534D01*
X158167557Y-16163533D01*
X158251221Y-16007011D01*
X158251222Y-16007009D01*
X158280552Y-15971271D01*
X158363814Y-15869814D01*
X158465271Y-15786552D01*
X158501009Y-15757222D01*
X158574597Y-15717888D01*
X158657533Y-15673557D01*
X158714147Y-15656384D01*
X158827373Y-15622037D01*
X158893558Y-15615518D01*
X158959740Y-15609000D01*
X159048260Y-15609000D01*
X159114442Y-15615518D01*
X159114442Y-15615518D01*
G37*
G36*
X154034442Y-15615518D02*
X154100627Y-15622037D01*
X154213853Y-15656384D01*
X154270467Y-15673557D01*
X154353403Y-15717888D01*
X154426991Y-15757222D01*
X154462729Y-15786552D01*
X154564186Y-15869814D01*
X154647448Y-15971271D01*
X154676778Y-16007009D01*
X154676779Y-16007011D01*
X154760443Y-16163533D01*
X154760443Y-16163534D01*
X154811963Y-16333373D01*
X154829359Y-16510000D01*
X154811963Y-16686627D01*
X154796455Y-16737750D01*
X154760443Y-16856467D01*
X154748325Y-16879137D01*
X154676778Y-17012991D01*
X154647448Y-17048729D01*
X154564186Y-17150186D01*
X154491480Y-17209853D01*
X154426991Y-17262778D01*
X154426989Y-17262779D01*
X154270467Y-17346443D01*
X154213853Y-17363616D01*
X154100627Y-17397963D01*
X154034443Y-17404481D01*
X153968260Y-17411000D01*
X153879740Y-17411000D01*
X153813558Y-17404482D01*
X153747373Y-17397963D01*
X153634147Y-17363616D01*
X153577533Y-17346443D01*
X153421011Y-17262779D01*
X153421009Y-17262778D01*
X153356520Y-17209853D01*
X153283814Y-17150186D01*
X153200552Y-17048729D01*
X153171222Y-17012991D01*
X153099675Y-16879137D01*
X153087557Y-16856467D01*
X153051545Y-16737750D01*
X153036037Y-16686627D01*
X153018641Y-16510000D01*
X153036037Y-16333373D01*
X153087557Y-16163534D01*
X153087557Y-16163533D01*
X153171221Y-16007011D01*
X153171222Y-16007009D01*
X153200552Y-15971271D01*
X153283814Y-15869814D01*
X153385271Y-15786552D01*
X153421009Y-15757222D01*
X153494597Y-15717888D01*
X153577533Y-15673557D01*
X153634147Y-15656384D01*
X153747373Y-15622037D01*
X153813558Y-15615518D01*
X153879740Y-15609000D01*
X153968260Y-15609000D01*
X154034442Y-15615518D01*
X154034442Y-15615518D01*
G37*
G36*
X151494442Y-15615518D02*
X151560627Y-15622037D01*
X151673853Y-15656384D01*
X151730467Y-15673557D01*
X151813403Y-15717888D01*
X151886991Y-15757222D01*
X151922729Y-15786552D01*
X152024186Y-15869814D01*
X152107448Y-15971271D01*
X152136778Y-16007009D01*
X152136779Y-16007011D01*
X152220443Y-16163533D01*
X152220443Y-16163534D01*
X152271963Y-16333373D01*
X152289359Y-16510000D01*
X152271963Y-16686627D01*
X152256455Y-16737750D01*
X152220443Y-16856467D01*
X152208325Y-16879137D01*
X152136778Y-17012991D01*
X152107448Y-17048729D01*
X152024186Y-17150186D01*
X151951480Y-17209853D01*
X151886991Y-17262778D01*
X151886989Y-17262779D01*
X151730467Y-17346443D01*
X151673853Y-17363616D01*
X151560627Y-17397963D01*
X151494443Y-17404481D01*
X151428260Y-17411000D01*
X151339740Y-17411000D01*
X151273558Y-17404482D01*
X151207373Y-17397963D01*
X151094147Y-17363616D01*
X151037533Y-17346443D01*
X150881011Y-17262779D01*
X150881009Y-17262778D01*
X150816520Y-17209853D01*
X150743814Y-17150186D01*
X150660552Y-17048729D01*
X150631222Y-17012991D01*
X150559675Y-16879137D01*
X150547557Y-16856467D01*
X150511545Y-16737750D01*
X150496037Y-16686627D01*
X150478641Y-16510000D01*
X150496037Y-16333373D01*
X150547557Y-16163534D01*
X150547557Y-16163533D01*
X150631221Y-16007011D01*
X150631222Y-16007009D01*
X150660552Y-15971271D01*
X150743814Y-15869814D01*
X150845271Y-15786552D01*
X150881009Y-15757222D01*
X150954597Y-15717888D01*
X151037533Y-15673557D01*
X151094147Y-15656384D01*
X151207373Y-15622037D01*
X151273558Y-15615518D01*
X151339740Y-15609000D01*
X151428260Y-15609000D01*
X151494442Y-15615518D01*
X151494442Y-15615518D01*
G37*
G36*
X148954442Y-15615518D02*
X149020627Y-15622037D01*
X149133853Y-15656384D01*
X149190467Y-15673557D01*
X149273403Y-15717888D01*
X149346991Y-15757222D01*
X149382729Y-15786552D01*
X149484186Y-15869814D01*
X149567448Y-15971271D01*
X149596778Y-16007009D01*
X149596779Y-16007011D01*
X149680443Y-16163533D01*
X149680443Y-16163534D01*
X149731963Y-16333373D01*
X149749359Y-16510000D01*
X149731963Y-16686627D01*
X149716455Y-16737750D01*
X149680443Y-16856467D01*
X149668325Y-16879137D01*
X149596778Y-17012991D01*
X149567448Y-17048729D01*
X149484186Y-17150186D01*
X149411480Y-17209853D01*
X149346991Y-17262778D01*
X149346989Y-17262779D01*
X149190467Y-17346443D01*
X149133853Y-17363616D01*
X149020627Y-17397963D01*
X148954443Y-17404481D01*
X148888260Y-17411000D01*
X148799740Y-17411000D01*
X148733558Y-17404482D01*
X148667373Y-17397963D01*
X148554147Y-17363616D01*
X148497533Y-17346443D01*
X148341011Y-17262779D01*
X148341009Y-17262778D01*
X148276520Y-17209853D01*
X148203814Y-17150186D01*
X148120552Y-17048729D01*
X148091222Y-17012991D01*
X148019675Y-16879137D01*
X148007557Y-16856467D01*
X147971545Y-16737750D01*
X147956037Y-16686627D01*
X147938641Y-16510000D01*
X147956037Y-16333373D01*
X148007557Y-16163534D01*
X148007557Y-16163533D01*
X148091221Y-16007011D01*
X148091222Y-16007009D01*
X148120552Y-15971271D01*
X148203814Y-15869814D01*
X148305271Y-15786552D01*
X148341009Y-15757222D01*
X148414597Y-15717888D01*
X148497533Y-15673557D01*
X148554147Y-15656384D01*
X148667373Y-15622037D01*
X148733558Y-15615518D01*
X148799740Y-15609000D01*
X148888260Y-15609000D01*
X148954442Y-15615518D01*
X148954442Y-15615518D01*
G37*
G36*
X147205000Y-17411000D02*
X145403000Y-17411000D01*
X145403000Y-15609000D01*
X147205000Y-15609000D01*
X147205000Y-17411000D01*
X147205000Y-17411000D01*
G37*
G36*
X125738812Y-15643624D02*
X125902784Y-15711544D01*
X126050354Y-15810147D01*
X126175853Y-15935646D01*
X126274456Y-16083216D01*
X126342376Y-16247188D01*
X126377000Y-16421259D01*
X126377000Y-16598741D01*
X126342376Y-16772812D01*
X126274456Y-16936784D01*
X126175853Y-17084354D01*
X126050354Y-17209853D01*
X125902784Y-17308456D01*
X125738812Y-17376376D01*
X125564741Y-17411000D01*
X125387259Y-17411000D01*
X125213188Y-17376376D01*
X125049216Y-17308456D01*
X124901646Y-17209853D01*
X124776147Y-17084354D01*
X124677544Y-16936784D01*
X124609624Y-16772812D01*
X124575000Y-16598741D01*
X124575000Y-16421259D01*
X124609624Y-16247188D01*
X124677544Y-16083216D01*
X124776147Y-15935646D01*
X124901646Y-15810147D01*
X125049216Y-15711544D01*
X125213188Y-15643624D01*
X125387259Y-15609000D01*
X125564741Y-15609000D01*
X125738812Y-15643624D01*
X125738812Y-15643624D01*
G37*
G36*
X123046442Y-15615518D02*
X123112627Y-15622037D01*
X123225853Y-15656384D01*
X123282467Y-15673557D01*
X123365403Y-15717888D01*
X123438991Y-15757222D01*
X123474729Y-15786552D01*
X123576186Y-15869814D01*
X123659448Y-15971271D01*
X123688778Y-16007009D01*
X123688779Y-16007011D01*
X123772443Y-16163533D01*
X123772443Y-16163534D01*
X123823963Y-16333373D01*
X123841359Y-16510000D01*
X123823963Y-16686627D01*
X123808455Y-16737750D01*
X123772443Y-16856467D01*
X123760325Y-16879137D01*
X123688778Y-17012991D01*
X123659448Y-17048729D01*
X123576186Y-17150186D01*
X123503480Y-17209853D01*
X123438991Y-17262778D01*
X123438989Y-17262779D01*
X123282467Y-17346443D01*
X123225853Y-17363616D01*
X123112627Y-17397963D01*
X123046443Y-17404481D01*
X122980260Y-17411000D01*
X122891740Y-17411000D01*
X122825558Y-17404482D01*
X122759373Y-17397963D01*
X122646147Y-17363616D01*
X122589533Y-17346443D01*
X122433011Y-17262779D01*
X122433009Y-17262778D01*
X122368520Y-17209853D01*
X122295814Y-17150186D01*
X122212552Y-17048729D01*
X122183222Y-17012991D01*
X122111675Y-16879137D01*
X122099557Y-16856467D01*
X122063545Y-16737750D01*
X122048037Y-16686627D01*
X122030641Y-16510000D01*
X122048037Y-16333373D01*
X122099557Y-16163534D01*
X122099557Y-16163533D01*
X122183221Y-16007011D01*
X122183222Y-16007009D01*
X122212552Y-15971271D01*
X122295814Y-15869814D01*
X122397271Y-15786552D01*
X122433009Y-15757222D01*
X122506597Y-15717888D01*
X122589533Y-15673557D01*
X122646147Y-15656384D01*
X122759373Y-15622037D01*
X122825558Y-15615518D01*
X122891740Y-15609000D01*
X122980260Y-15609000D01*
X123046442Y-15615518D01*
X123046442Y-15615518D01*
G37*
G36*
X112886442Y-15615518D02*
X112952627Y-15622037D01*
X113065853Y-15656384D01*
X113122467Y-15673557D01*
X113205403Y-15717888D01*
X113278991Y-15757222D01*
X113314729Y-15786552D01*
X113416186Y-15869814D01*
X113499448Y-15971271D01*
X113528778Y-16007009D01*
X113528779Y-16007011D01*
X113612443Y-16163533D01*
X113612443Y-16163534D01*
X113663963Y-16333373D01*
X113681359Y-16510000D01*
X113663963Y-16686627D01*
X113648455Y-16737750D01*
X113612443Y-16856467D01*
X113600325Y-16879137D01*
X113528778Y-17012991D01*
X113499448Y-17048729D01*
X113416186Y-17150186D01*
X113343480Y-17209853D01*
X113278991Y-17262778D01*
X113278989Y-17262779D01*
X113122467Y-17346443D01*
X113065853Y-17363616D01*
X112952627Y-17397963D01*
X112886443Y-17404481D01*
X112820260Y-17411000D01*
X112731740Y-17411000D01*
X112665558Y-17404482D01*
X112599373Y-17397963D01*
X112486147Y-17363616D01*
X112429533Y-17346443D01*
X112273011Y-17262779D01*
X112273009Y-17262778D01*
X112208520Y-17209853D01*
X112135814Y-17150186D01*
X112052552Y-17048729D01*
X112023222Y-17012991D01*
X111951675Y-16879137D01*
X111939557Y-16856467D01*
X111903545Y-16737750D01*
X111888037Y-16686627D01*
X111870641Y-16510000D01*
X111888037Y-16333373D01*
X111939557Y-16163534D01*
X111939557Y-16163533D01*
X112023221Y-16007011D01*
X112023222Y-16007009D01*
X112052552Y-15971271D01*
X112135814Y-15869814D01*
X112237271Y-15786552D01*
X112273009Y-15757222D01*
X112346597Y-15717888D01*
X112429533Y-15673557D01*
X112486147Y-15656384D01*
X112599373Y-15622037D01*
X112665558Y-15615518D01*
X112731740Y-15609000D01*
X112820260Y-15609000D01*
X112886442Y-15615518D01*
X112886442Y-15615518D01*
G37*
G36*
X115578812Y-15643624D02*
X115742784Y-15711544D01*
X115890354Y-15810147D01*
X116015853Y-15935646D01*
X116114456Y-16083216D01*
X116182376Y-16247188D01*
X116217000Y-16421259D01*
X116217000Y-16598741D01*
X116182376Y-16772812D01*
X116114456Y-16936784D01*
X116015853Y-17084354D01*
X115890354Y-17209853D01*
X115742784Y-17308456D01*
X115578812Y-17376376D01*
X115404741Y-17411000D01*
X115227259Y-17411000D01*
X115053188Y-17376376D01*
X114889216Y-17308456D01*
X114741646Y-17209853D01*
X114616147Y-17084354D01*
X114517544Y-16936784D01*
X114449624Y-16772812D01*
X114415000Y-16598741D01*
X114415000Y-16421259D01*
X114449624Y-16247188D01*
X114517544Y-16083216D01*
X114616147Y-15935646D01*
X114741646Y-15810147D01*
X114889216Y-15711544D01*
X115053188Y-15643624D01*
X115227259Y-15609000D01*
X115404741Y-15609000D01*
X115578812Y-15643624D01*
X115578812Y-15643624D01*
G37*
G36*
X117966442Y-15615518D02*
X118032627Y-15622037D01*
X118145853Y-15656384D01*
X118202467Y-15673557D01*
X118285403Y-15717888D01*
X118358991Y-15757222D01*
X118394729Y-15786552D01*
X118496186Y-15869814D01*
X118579448Y-15971271D01*
X118608778Y-16007009D01*
X118608779Y-16007011D01*
X118692443Y-16163533D01*
X118692443Y-16163534D01*
X118743963Y-16333373D01*
X118761359Y-16510000D01*
X118743963Y-16686627D01*
X118728455Y-16737750D01*
X118692443Y-16856467D01*
X118680325Y-16879137D01*
X118608778Y-17012991D01*
X118579448Y-17048729D01*
X118496186Y-17150186D01*
X118423480Y-17209853D01*
X118358991Y-17262778D01*
X118358989Y-17262779D01*
X118202467Y-17346443D01*
X118145853Y-17363616D01*
X118032627Y-17397963D01*
X117966443Y-17404481D01*
X117900260Y-17411000D01*
X117811740Y-17411000D01*
X117745558Y-17404482D01*
X117679373Y-17397963D01*
X117566147Y-17363616D01*
X117509533Y-17346443D01*
X117353011Y-17262779D01*
X117353009Y-17262778D01*
X117288520Y-17209853D01*
X117215814Y-17150186D01*
X117132552Y-17048729D01*
X117103222Y-17012991D01*
X117031675Y-16879137D01*
X117019557Y-16856467D01*
X116983545Y-16737750D01*
X116968037Y-16686627D01*
X116950641Y-16510000D01*
X116968037Y-16333373D01*
X117019557Y-16163534D01*
X117019557Y-16163533D01*
X117103221Y-16007011D01*
X117103222Y-16007009D01*
X117132552Y-15971271D01*
X117215814Y-15869814D01*
X117317271Y-15786552D01*
X117353009Y-15757222D01*
X117426597Y-15717888D01*
X117509533Y-15673557D01*
X117566147Y-15656384D01*
X117679373Y-15622037D01*
X117745558Y-15615518D01*
X117811740Y-15609000D01*
X117900260Y-15609000D01*
X117966442Y-15615518D01*
X117966442Y-15615518D01*
G37*
G36*
X120658812Y-15643624D02*
X120822784Y-15711544D01*
X120970354Y-15810147D01*
X121095853Y-15935646D01*
X121194456Y-16083216D01*
X121262376Y-16247188D01*
X121297000Y-16421259D01*
X121297000Y-16598741D01*
X121262376Y-16772812D01*
X121194456Y-16936784D01*
X121095853Y-17084354D01*
X120970354Y-17209853D01*
X120822784Y-17308456D01*
X120658812Y-17376376D01*
X120484741Y-17411000D01*
X120307259Y-17411000D01*
X120133188Y-17376376D01*
X119969216Y-17308456D01*
X119821646Y-17209853D01*
X119696147Y-17084354D01*
X119597544Y-16936784D01*
X119529624Y-16772812D01*
X119495000Y-16598741D01*
X119495000Y-16421259D01*
X119529624Y-16247188D01*
X119597544Y-16083216D01*
X119696147Y-15935646D01*
X119821646Y-15810147D01*
X119969216Y-15711544D01*
X120133188Y-15643624D01*
X120307259Y-15609000D01*
X120484741Y-15609000D01*
X120658812Y-15643624D01*
X120658812Y-15643624D01*
G37*
G36*
X135421466Y-15509565D02*
X135460137Y-15521296D01*
X135495779Y-15540348D01*
X135527017Y-15565983D01*
X135552652Y-15597221D01*
X135571704Y-15632863D01*
X135583435Y-15671534D01*
X135588000Y-15717888D01*
X135588000Y-16794112D01*
X135583435Y-16840466D01*
X135571704Y-16879137D01*
X135552652Y-16914779D01*
X135527017Y-16946017D01*
X135495779Y-16971652D01*
X135460137Y-16990704D01*
X135421466Y-17002435D01*
X135375112Y-17007000D01*
X134723888Y-17007000D01*
X134677534Y-17002435D01*
X134638863Y-16990704D01*
X134603221Y-16971652D01*
X134571983Y-16946017D01*
X134546348Y-16914779D01*
X134527296Y-16879137D01*
X134515565Y-16840466D01*
X134511000Y-16794112D01*
X134511000Y-15717888D01*
X134515565Y-15671534D01*
X134527296Y-15632863D01*
X134546348Y-15597221D01*
X134571983Y-15565983D01*
X134603221Y-15540348D01*
X134638863Y-15521296D01*
X134677534Y-15509565D01*
X134723888Y-15505000D01*
X135375112Y-15505000D01*
X135421466Y-15509565D01*
X135421466Y-15509565D01*
G37*
G36*
X138977466Y-15509565D02*
X139016137Y-15521296D01*
X139051779Y-15540348D01*
X139083017Y-15565983D01*
X139108652Y-15597221D01*
X139127704Y-15632863D01*
X139139435Y-15671534D01*
X139144000Y-15717888D01*
X139144000Y-16794112D01*
X139139435Y-16840466D01*
X139127704Y-16879137D01*
X139108652Y-16914779D01*
X139083017Y-16946017D01*
X139051779Y-16971652D01*
X139016137Y-16990704D01*
X138977466Y-17002435D01*
X138931112Y-17007000D01*
X138279888Y-17007000D01*
X138233534Y-17002435D01*
X138194863Y-16990704D01*
X138159221Y-16971652D01*
X138127983Y-16946017D01*
X138102348Y-16914779D01*
X138083296Y-16879137D01*
X138071565Y-16840466D01*
X138067000Y-16794112D01*
X138067000Y-15717888D01*
X138071565Y-15671534D01*
X138083296Y-15632863D01*
X138102348Y-15597221D01*
X138127983Y-15565983D01*
X138159221Y-15540348D01*
X138194863Y-15521296D01*
X138233534Y-15509565D01*
X138279888Y-15505000D01*
X138931112Y-15505000D01*
X138977466Y-15509565D01*
X138977466Y-15509565D01*
G37*
G36*
X137102466Y-15509565D02*
X137141137Y-15521296D01*
X137176779Y-15540348D01*
X137208017Y-15565983D01*
X137233652Y-15597221D01*
X137252704Y-15632863D01*
X137264435Y-15671534D01*
X137269000Y-15717888D01*
X137269000Y-16794112D01*
X137264435Y-16840466D01*
X137252704Y-16879137D01*
X137233652Y-16914779D01*
X137208017Y-16946017D01*
X137176779Y-16971652D01*
X137141137Y-16990704D01*
X137102466Y-17002435D01*
X137056112Y-17007000D01*
X136404888Y-17007000D01*
X136358534Y-17002435D01*
X136319863Y-16990704D01*
X136284221Y-16971652D01*
X136252983Y-16946017D01*
X136227348Y-16914779D01*
X136208296Y-16879137D01*
X136196565Y-16840466D01*
X136192000Y-16794112D01*
X136192000Y-15717888D01*
X136196565Y-15671534D01*
X136208296Y-15632863D01*
X136227348Y-15597221D01*
X136252983Y-15565983D01*
X136284221Y-15540348D01*
X136319863Y-15521296D01*
X136358534Y-15509565D01*
X136404888Y-15505000D01*
X137056112Y-15505000D01*
X137102466Y-15509565D01*
X137102466Y-15509565D01*
G37*
G36*
X133546466Y-15509565D02*
X133585137Y-15521296D01*
X133620779Y-15540348D01*
X133652017Y-15565983D01*
X133677652Y-15597221D01*
X133696704Y-15632863D01*
X133708435Y-15671534D01*
X133713000Y-15717888D01*
X133713000Y-16794112D01*
X133708435Y-16840466D01*
X133696704Y-16879137D01*
X133677652Y-16914779D01*
X133652017Y-16946017D01*
X133620779Y-16971652D01*
X133585137Y-16990704D01*
X133546466Y-17002435D01*
X133500112Y-17007000D01*
X132848888Y-17007000D01*
X132802534Y-17002435D01*
X132763863Y-16990704D01*
X132728221Y-16971652D01*
X132696983Y-16946017D01*
X132671348Y-16914779D01*
X132652296Y-16879137D01*
X132640565Y-16840466D01*
X132636000Y-16794112D01*
X132636000Y-15717888D01*
X132640565Y-15671534D01*
X132652296Y-15632863D01*
X132671348Y-15597221D01*
X132696983Y-15565983D01*
X132728221Y-15540348D01*
X132763863Y-15521296D01*
X132802534Y-15509565D01*
X132848888Y-15505000D01*
X133500112Y-15505000D01*
X133546466Y-15509565D01*
X133546466Y-15509565D01*
G37*
M02*
