G04 #@! TF.GenerationSoftware,KiCad,Pcbnew,(5.0.1)-3*
G04 #@! TF.CreationDate,2018-10-30T03:44:56+09:00*
G04 #@! TF.ProjectId,badge,62616467652E6B696361645F70636200,rev?*
G04 #@! TF.SameCoordinates,Original*
G04 #@! TF.FileFunction,Legend,Top*
G04 #@! TF.FilePolarity,Positive*
%FSLAX46Y46*%
G04 Gerber Fmt 4.6, Leading zero omitted, Abs format (unit mm)*
G04 Created by KiCad (PCBNEW (5.0.1)-3) date 2018-10-30 오전 3:44:56*
%MOMM*%
%LPD*%
G01*
G04 APERTURE LIST*
%ADD10C,0.150000*%
%ADD11C,0.127000*%
%ADD12C,0.120000*%
%ADD13C,0.050000*%
G04 APERTURE END LIST*
D10*
G04 #@! TO.C,U1*
X183537000Y-34307000D02*
X183537000Y-52307000D01*
X183537000Y-52307000D02*
X177487000Y-52307000D01*
X183537000Y-34307000D02*
X177487000Y-34307000D01*
G36*
X176797000Y-29907000D02*
X175397000Y-29907000D01*
X175397000Y-31307000D01*
X176797000Y-31307000D01*
X176797000Y-29907000D01*
G37*
X176797000Y-29907000D02*
X175397000Y-29907000D01*
X175397000Y-31307000D01*
X176797000Y-31307000D01*
X176797000Y-29907000D01*
G36*
X176797000Y-29907000D02*
X175397000Y-29907000D01*
X175397000Y-31307000D01*
X176797000Y-31307000D01*
X176797000Y-29907000D01*
G37*
X176797000Y-29907000D02*
X175397000Y-29907000D01*
X175397000Y-31307000D01*
X176797000Y-31307000D01*
X176797000Y-29907000D01*
D11*
X129087000Y-57257000D02*
X129087000Y-29357000D01*
X177487000Y-57257000D02*
X129087000Y-57257000D01*
X177487000Y-29357000D02*
X177487000Y-57257000D01*
X129087000Y-29357000D02*
X177487000Y-29357000D01*
D12*
G04 #@! TO.C,SW6*
X193338000Y-79990000D02*
X193338000Y-77490000D01*
X195088000Y-81490000D02*
X197088000Y-81490000D01*
X198838000Y-79990000D02*
X198838000Y-77490000D01*
X195088000Y-75990000D02*
X197088000Y-75990000D01*
X193788000Y-80440000D02*
X193338000Y-79990000D01*
X193788000Y-77040000D02*
X193338000Y-77490000D01*
X198388000Y-77040000D02*
X198838000Y-77490000D01*
X198388000Y-80440000D02*
X198838000Y-79990000D01*
G04 #@! TO.C,D2*
X149887000Y-58967000D02*
X149887000Y-61252000D01*
X151357000Y-58967000D02*
X149887000Y-58967000D01*
X151357000Y-61252000D02*
X151357000Y-58967000D01*
G04 #@! TO.C,D1*
X149579000Y-61252000D02*
X149579000Y-58967000D01*
X149579000Y-58967000D02*
X148109000Y-58967000D01*
X148109000Y-58967000D02*
X148109000Y-61252000D01*
G04 #@! TO.C,R5*
X146556000Y-60289221D02*
X146556000Y-60614779D01*
X147576000Y-60289221D02*
X147576000Y-60614779D01*
G04 #@! TO.C,R6*
X145798000Y-60289221D02*
X145798000Y-60614779D01*
X144778000Y-60289221D02*
X144778000Y-60614779D01*
G04 #@! TO.C,SW4*
X118828000Y-88920000D02*
X118828000Y-91420000D01*
X117078000Y-87420000D02*
X115078000Y-87420000D01*
X113328000Y-88920000D02*
X113328000Y-91420000D01*
X117078000Y-92920000D02*
X115078000Y-92920000D01*
X118378000Y-88470000D02*
X118828000Y-88920000D01*
X118378000Y-91870000D02*
X118828000Y-91420000D01*
X113778000Y-91870000D02*
X113328000Y-91420000D01*
X113778000Y-88470000D02*
X113328000Y-88920000D01*
G04 #@! TO.C,J1*
X174901893Y-29194875D02*
X174901893Y-31854875D01*
X174901893Y-29194875D02*
X129121893Y-29194875D01*
X129121893Y-29194875D02*
X129121893Y-31854875D01*
X174901893Y-31854875D02*
X129121893Y-31854875D01*
X177501893Y-31854875D02*
X176171893Y-31854875D01*
X177501893Y-30524875D02*
X177501893Y-31854875D01*
G04 #@! TO.C,J4*
X177953687Y-16465040D02*
X177953687Y-19125040D01*
X177953687Y-16465040D02*
X170273687Y-16465040D01*
X170273687Y-16465040D02*
X170273687Y-19125040D01*
X177953687Y-19125040D02*
X170273687Y-19125040D01*
X180553687Y-19125040D02*
X179223687Y-19125040D01*
X180553687Y-17795040D02*
X180553687Y-19125040D01*
G04 #@! TO.C,J6*
X180553687Y-22875040D02*
X180553687Y-24205040D01*
X180553687Y-24205040D02*
X179223687Y-24205040D01*
X177953687Y-24205040D02*
X170273687Y-24205040D01*
X170273687Y-21545040D02*
X170273687Y-24205040D01*
X177953687Y-21545040D02*
X170273687Y-21545040D01*
X177953687Y-21545040D02*
X177953687Y-24205040D01*
G04 #@! TO.C,J8*
X162328697Y-20341486D02*
X162328697Y-21671486D01*
X162328697Y-21671486D02*
X160998697Y-21671486D01*
X159728697Y-21671486D02*
X146968697Y-21671486D01*
X146968697Y-19011486D02*
X146968697Y-21671486D01*
X159728697Y-19011486D02*
X146968697Y-19011486D01*
X159728697Y-19011486D02*
X159728697Y-21671486D01*
G04 #@! TO.C,J9*
X159728697Y-21551486D02*
X159728697Y-24211486D01*
X159728697Y-21551486D02*
X146968697Y-21551486D01*
X146968697Y-21551486D02*
X146968697Y-24211486D01*
X159728697Y-24211486D02*
X146968697Y-24211486D01*
X162328697Y-24211486D02*
X160998697Y-24211486D01*
X162328697Y-22881486D02*
X162328697Y-24211486D01*
G04 #@! TO.C,J7*
X159728697Y-16471486D02*
X159728697Y-19131486D01*
X159728697Y-16471486D02*
X146968697Y-16471486D01*
X146968697Y-16471486D02*
X146968697Y-19131486D01*
X159728697Y-19131486D02*
X146968697Y-19131486D01*
X162328697Y-19131486D02*
X160998697Y-19131486D01*
X162328697Y-17801486D02*
X162328697Y-19131486D01*
G04 #@! TO.C,J5*
X180553687Y-20335040D02*
X180553687Y-21665040D01*
X180553687Y-21665040D02*
X179223687Y-21665040D01*
X177953687Y-21665040D02*
X170273687Y-21665040D01*
X170273687Y-19005040D02*
X170273687Y-21665040D01*
X177953687Y-19005040D02*
X170273687Y-19005040D01*
X177953687Y-19005040D02*
X177953687Y-21665040D01*
G04 #@! TO.C,J2*
X177501893Y-55924875D02*
X177501893Y-57254875D01*
X177501893Y-57254875D02*
X176171893Y-57254875D01*
X174901893Y-57254875D02*
X129121893Y-57254875D01*
X129121893Y-54594875D02*
X129121893Y-57254875D01*
X174901893Y-54594875D02*
X129121893Y-54594875D01*
X174901893Y-54594875D02*
X174901893Y-57254875D01*
G04 #@! TO.C,C5*
X147699000Y-35016221D02*
X147699000Y-35341779D01*
X148719000Y-35016221D02*
X148719000Y-35341779D01*
G04 #@! TO.C,J10*
X171274000Y-92110000D02*
X170374000Y-92110000D01*
X170450000Y-90500000D02*
X170096447Y-90250000D01*
X170374000Y-76064000D02*
X170074000Y-76064000D01*
X171274000Y-75214000D02*
X170374000Y-75214000D01*
X170074000Y-91260000D02*
X170074000Y-91010000D01*
X170096447Y-90750000D02*
X170450000Y-90500000D01*
X170074000Y-91010000D02*
X169934000Y-91010000D01*
X170374000Y-92110000D02*
X170374000Y-91260000D01*
X170374000Y-75214000D02*
X170374000Y-76064000D01*
X170096447Y-90250000D02*
X170096447Y-90750000D01*
X170074000Y-76064000D02*
X170074000Y-76314000D01*
X170374000Y-91260000D02*
X170074000Y-91260000D01*
X172994000Y-90940000D02*
X172994000Y-76460000D01*
G04 #@! TO.C,C8*
X170686000Y-60741779D02*
X170686000Y-60416221D01*
X171706000Y-60741779D02*
X171706000Y-60416221D01*
G04 #@! TO.C,R4*
X169801000Y-60741779D02*
X169801000Y-60416221D01*
X168781000Y-60741779D02*
X168781000Y-60416221D01*
G04 #@! TO.C,SW5*
X125236000Y-85456500D02*
X125686000Y-85006500D01*
X125236000Y-82056500D02*
X125686000Y-82506500D01*
X120636000Y-82056500D02*
X120186000Y-82506500D01*
X120636000Y-85456500D02*
X120186000Y-85006500D01*
X121936000Y-81006500D02*
X123936000Y-81006500D01*
X125686000Y-85006500D02*
X125686000Y-82506500D01*
X121936000Y-86506500D02*
X123936000Y-86506500D01*
X120186000Y-85006500D02*
X120186000Y-82506500D01*
G04 #@! TO.C,SW3*
X194578000Y-89584000D02*
X195028000Y-89134000D01*
X194578000Y-86184000D02*
X195028000Y-86634000D01*
X189978000Y-86184000D02*
X189528000Y-86634000D01*
X189978000Y-89584000D02*
X189528000Y-89134000D01*
X191278000Y-85134000D02*
X193278000Y-85134000D01*
X195028000Y-89134000D02*
X195028000Y-86634000D01*
X191278000Y-90634000D02*
X193278000Y-90634000D01*
X189528000Y-89134000D02*
X189528000Y-86634000D01*
G04 #@! TO.C,SW2*
X111970000Y-82570000D02*
X111970000Y-85070000D01*
X110220000Y-81070000D02*
X108220000Y-81070000D01*
X106470000Y-82570000D02*
X106470000Y-85070000D01*
X110220000Y-86570000D02*
X108220000Y-86570000D01*
X111520000Y-82120000D02*
X111970000Y-82570000D01*
X111520000Y-85520000D02*
X111970000Y-85070000D01*
X106920000Y-85520000D02*
X106470000Y-85070000D01*
X106920000Y-82120000D02*
X106470000Y-82570000D01*
G04 #@! TO.C,SW1*
X118378000Y-79170000D02*
X118828000Y-78720000D01*
X118378000Y-75770000D02*
X118828000Y-76220000D01*
X113778000Y-75770000D02*
X113328000Y-76220000D01*
X113778000Y-79170000D02*
X113328000Y-78720000D01*
X115078000Y-74720000D02*
X117078000Y-74720000D01*
X118828000Y-78720000D02*
X118828000Y-76220000D01*
X115078000Y-80220000D02*
X117078000Y-80220000D01*
X113328000Y-78720000D02*
X113328000Y-76220000D01*
G04 #@! TO.C,C7*
X171706000Y-35468779D02*
X171706000Y-35143221D01*
X170686000Y-35468779D02*
X170686000Y-35143221D01*
G04 #@! TO.C,C6*
X137666000Y-60614779D02*
X137666000Y-60289221D01*
X138686000Y-60614779D02*
X138686000Y-60289221D01*
G04 #@! TO.C,C4*
X168146000Y-35468779D02*
X168146000Y-35143221D01*
X169166000Y-35468779D02*
X169166000Y-35143221D01*
G04 #@! TO.C,C3*
X141099000Y-35341779D02*
X141099000Y-35016221D01*
X140079000Y-35341779D02*
X140079000Y-35016221D01*
G04 #@! TO.C,C2*
X145159000Y-35341779D02*
X145159000Y-35016221D01*
X146179000Y-35341779D02*
X146179000Y-35016221D01*
G04 #@! TO.C,U1*
D13*
X178235167Y-32604801D02*
X179045006Y-32604801D01*
X179140282Y-32557164D01*
X179187919Y-32509526D01*
X179235557Y-32414251D01*
X179235557Y-32223700D01*
X179187919Y-32128425D01*
X179140282Y-32080788D01*
X179045006Y-32033150D01*
X178235167Y-32033150D01*
X179235557Y-31032760D02*
X179235557Y-31604411D01*
X179235557Y-31318586D02*
X178235167Y-31318586D01*
X178378080Y-31413861D01*
X178473355Y-31509136D01*
X178520993Y-31604411D01*
X147352441Y-42854496D02*
X147686125Y-42854496D01*
X147829132Y-43378855D02*
X147352441Y-43378855D01*
X147352441Y-42377805D01*
X147829132Y-42377805D01*
X148210484Y-43331186D02*
X148353491Y-43378855D01*
X148591836Y-43378855D01*
X148687175Y-43331186D01*
X148734844Y-43283517D01*
X148782513Y-43188179D01*
X148782513Y-43092841D01*
X148734844Y-42997503D01*
X148687175Y-42949834D01*
X148591836Y-42902165D01*
X148401160Y-42854496D01*
X148305822Y-42806827D01*
X148258153Y-42759158D01*
X148210484Y-42663820D01*
X148210484Y-42568482D01*
X148258153Y-42473144D01*
X148305822Y-42425475D01*
X148401160Y-42377805D01*
X148639505Y-42377805D01*
X148782513Y-42425475D01*
X149211534Y-43378855D02*
X149211534Y-42377805D01*
X149592886Y-42377805D01*
X149688225Y-42425475D01*
X149735894Y-42473144D01*
X149783563Y-42568482D01*
X149783563Y-42711489D01*
X149735894Y-42806827D01*
X149688225Y-42854496D01*
X149592886Y-42902165D01*
X149211534Y-42902165D01*
X150117246Y-42377805D02*
X150736944Y-42377805D01*
X150403260Y-42759158D01*
X150546267Y-42759158D01*
X150641605Y-42806827D01*
X150689275Y-42854496D01*
X150736944Y-42949834D01*
X150736944Y-43188179D01*
X150689275Y-43283517D01*
X150641605Y-43331186D01*
X150546267Y-43378855D01*
X150260253Y-43378855D01*
X150164915Y-43331186D01*
X150117246Y-43283517D01*
X151118296Y-42473144D02*
X151165965Y-42425475D01*
X151261303Y-42377805D01*
X151499648Y-42377805D01*
X151594986Y-42425475D01*
X151642655Y-42473144D01*
X151690325Y-42568482D01*
X151690325Y-42663820D01*
X151642655Y-42806827D01*
X151070627Y-43378855D01*
X151690325Y-43378855D01*
X152119346Y-42997503D02*
X152882051Y-42997503D01*
X153358741Y-43378855D02*
X153358741Y-42377805D01*
X153597086Y-42377805D01*
X153740094Y-42425475D01*
X153835432Y-42520813D01*
X153883101Y-42616151D01*
X153930770Y-42806827D01*
X153930770Y-42949834D01*
X153883101Y-43140510D01*
X153835432Y-43235848D01*
X153740094Y-43331186D01*
X153597086Y-43378855D01*
X153358741Y-43378855D01*
X154359791Y-42854496D02*
X154693475Y-42854496D01*
X154836482Y-43378855D02*
X154359791Y-43378855D01*
X154359791Y-42377805D01*
X154836482Y-42377805D01*
X155122496Y-42377805D02*
X155456179Y-43378855D01*
X155789863Y-42377805D01*
X156123546Y-43378855D02*
X156123546Y-42377805D01*
X156695575Y-43378855D02*
X156266553Y-42806827D01*
X156695575Y-42377805D02*
X156123546Y-42949834D01*
X157124596Y-43378855D02*
X157124596Y-42377805D01*
X157458279Y-42377805D02*
X158030308Y-42377805D01*
X157744294Y-43378855D02*
X157744294Y-42377805D01*
X158936020Y-43283517D02*
X158888351Y-43331186D01*
X158745344Y-43378855D01*
X158650005Y-43378855D01*
X158506998Y-43331186D01*
X158411660Y-43235848D01*
X158363991Y-43140510D01*
X158316322Y-42949834D01*
X158316322Y-42806827D01*
X158363991Y-42616151D01*
X158411660Y-42520813D01*
X158506998Y-42425475D01*
X158650005Y-42377805D01*
X158745344Y-42377805D01*
X158888351Y-42425475D01*
X158936020Y-42473144D01*
X159365041Y-42997503D02*
X160127746Y-42997503D01*
X160509098Y-42377805D02*
X161128796Y-42377805D01*
X160795113Y-42759158D01*
X160938120Y-42759158D01*
X161033458Y-42806827D01*
X161081127Y-42854496D01*
X161128796Y-42949834D01*
X161128796Y-43188179D01*
X161081127Y-43283517D01*
X161033458Y-43331186D01*
X160938120Y-43378855D01*
X160652105Y-43378855D01*
X160556767Y-43331186D01*
X160509098Y-43283517D01*
X161510148Y-42473144D02*
X161557817Y-42425475D01*
X161653155Y-42377805D01*
X161891501Y-42377805D01*
X161986839Y-42425475D01*
X162034508Y-42473144D01*
X162082177Y-42568482D01*
X162082177Y-42663820D01*
X162034508Y-42806827D01*
X161462479Y-43378855D01*
X162082177Y-43378855D01*
X162511198Y-43378855D02*
X162511198Y-42377805D01*
X162749544Y-42377805D01*
X162892551Y-42425475D01*
X162987889Y-42520813D01*
X163035558Y-42616151D01*
X163083227Y-42806827D01*
X163083227Y-42949834D01*
X163035558Y-43140510D01*
X162987889Y-43235848D01*
X162892551Y-43331186D01*
X162749544Y-43378855D01*
X162511198Y-43378855D01*
D10*
X166044571Y-49251428D02*
X166044571Y-48918095D01*
X166568380Y-48775238D02*
X166568380Y-49251428D01*
X165568380Y-49251428D01*
X165568380Y-48775238D01*
X166520761Y-48394285D02*
X166568380Y-48251428D01*
X166568380Y-48013333D01*
X166520761Y-47918095D01*
X166473142Y-47870476D01*
X166377904Y-47822857D01*
X166282666Y-47822857D01*
X166187428Y-47870476D01*
X166139809Y-47918095D01*
X166092190Y-48013333D01*
X166044571Y-48203809D01*
X165996952Y-48299047D01*
X165949333Y-48346666D01*
X165854095Y-48394285D01*
X165758857Y-48394285D01*
X165663619Y-48346666D01*
X165616000Y-48299047D01*
X165568380Y-48203809D01*
X165568380Y-47965714D01*
X165616000Y-47822857D01*
X166568380Y-47394285D02*
X165568380Y-47394285D01*
X165568380Y-47013333D01*
X165616000Y-46918095D01*
X165663619Y-46870476D01*
X165758857Y-46822857D01*
X165901714Y-46822857D01*
X165996952Y-46870476D01*
X166044571Y-46918095D01*
X166092190Y-47013333D01*
X166092190Y-47394285D01*
X166187428Y-46394285D02*
X166187428Y-45632380D01*
X165568380Y-45251428D02*
X166568380Y-45013333D01*
X165854095Y-44822857D01*
X166568380Y-44632380D01*
X165568380Y-44394285D01*
X166568380Y-43441904D02*
X166092190Y-43775238D01*
X166568380Y-44013333D02*
X165568380Y-44013333D01*
X165568380Y-43632380D01*
X165616000Y-43537142D01*
X165663619Y-43489523D01*
X165758857Y-43441904D01*
X165901714Y-43441904D01*
X165996952Y-43489523D01*
X166044571Y-43537142D01*
X166092190Y-43632380D01*
X166092190Y-44013333D01*
X165568380Y-42822857D02*
X165568380Y-42632380D01*
X165616000Y-42537142D01*
X165711238Y-42441904D01*
X165901714Y-42394285D01*
X166235047Y-42394285D01*
X166425523Y-42441904D01*
X166520761Y-42537142D01*
X166568380Y-42632380D01*
X166568380Y-42822857D01*
X166520761Y-42918095D01*
X166425523Y-43013333D01*
X166235047Y-43060952D01*
X165901714Y-43060952D01*
X165711238Y-43013333D01*
X165616000Y-42918095D01*
X165568380Y-42822857D01*
X165568380Y-41775238D02*
X165568380Y-41584761D01*
X165616000Y-41489523D01*
X165711238Y-41394285D01*
X165901714Y-41346666D01*
X166235047Y-41346666D01*
X166425523Y-41394285D01*
X166520761Y-41489523D01*
X166568380Y-41584761D01*
X166568380Y-41775238D01*
X166520761Y-41870476D01*
X166425523Y-41965714D01*
X166235047Y-42013333D01*
X165901714Y-42013333D01*
X165711238Y-41965714D01*
X165616000Y-41870476D01*
X165568380Y-41775238D01*
X166568380Y-40918095D02*
X165568380Y-40918095D01*
X166282666Y-40584761D01*
X165568380Y-40251428D01*
X166568380Y-40251428D01*
X166187428Y-39775238D02*
X166187428Y-39013333D01*
X165568380Y-38632380D02*
X165568380Y-38013333D01*
X165949333Y-38346666D01*
X165949333Y-38203809D01*
X165996952Y-38108571D01*
X166044571Y-38060952D01*
X166139809Y-38013333D01*
X166377904Y-38013333D01*
X166473142Y-38060952D01*
X166520761Y-38108571D01*
X166568380Y-38203809D01*
X166568380Y-38489523D01*
X166520761Y-38584761D01*
X166473142Y-38632380D01*
X165663619Y-37632380D02*
X165616000Y-37584761D01*
X165568380Y-37489523D01*
X165568380Y-37251428D01*
X165616000Y-37156190D01*
X165663619Y-37108571D01*
X165758857Y-37060952D01*
X165854095Y-37060952D01*
X165996952Y-37108571D01*
X166568380Y-37680000D01*
X166568380Y-37060952D01*
G04 #@! TO.C,SW6*
X191004666Y-79144761D02*
X191147523Y-79192380D01*
X191385619Y-79192380D01*
X191480857Y-79144761D01*
X191528476Y-79097142D01*
X191576095Y-79001904D01*
X191576095Y-78906666D01*
X191528476Y-78811428D01*
X191480857Y-78763809D01*
X191385619Y-78716190D01*
X191195142Y-78668571D01*
X191099904Y-78620952D01*
X191052285Y-78573333D01*
X191004666Y-78478095D01*
X191004666Y-78382857D01*
X191052285Y-78287619D01*
X191099904Y-78240000D01*
X191195142Y-78192380D01*
X191433238Y-78192380D01*
X191576095Y-78240000D01*
X191909428Y-78192380D02*
X192147523Y-79192380D01*
X192338000Y-78478095D01*
X192528476Y-79192380D01*
X192766571Y-78192380D01*
X193576095Y-78192380D02*
X193385619Y-78192380D01*
X193290380Y-78240000D01*
X193242761Y-78287619D01*
X193147523Y-78430476D01*
X193099904Y-78620952D01*
X193099904Y-79001904D01*
X193147523Y-79097142D01*
X193195142Y-79144761D01*
X193290380Y-79192380D01*
X193480857Y-79192380D01*
X193576095Y-79144761D01*
X193623714Y-79097142D01*
X193671333Y-79001904D01*
X193671333Y-78763809D01*
X193623714Y-78668571D01*
X193576095Y-78620952D01*
X193480857Y-78573333D01*
X193290380Y-78573333D01*
X193195142Y-78620952D01*
X193147523Y-78668571D01*
X193099904Y-78763809D01*
G04 #@! TO.C,D2*
X151328380Y-63730095D02*
X150328380Y-63730095D01*
X150328380Y-63492000D01*
X150376000Y-63349142D01*
X150471238Y-63253904D01*
X150566476Y-63206285D01*
X150756952Y-63158666D01*
X150899809Y-63158666D01*
X151090285Y-63206285D01*
X151185523Y-63253904D01*
X151280761Y-63349142D01*
X151328380Y-63492000D01*
X151328380Y-63730095D01*
X150423619Y-62777714D02*
X150376000Y-62730095D01*
X150328380Y-62634857D01*
X150328380Y-62396761D01*
X150376000Y-62301523D01*
X150423619Y-62253904D01*
X150518857Y-62206285D01*
X150614095Y-62206285D01*
X150756952Y-62253904D01*
X151328380Y-62825333D01*
X151328380Y-62206285D01*
G04 #@! TO.C,D1*
X149550380Y-63730095D02*
X148550380Y-63730095D01*
X148550380Y-63492000D01*
X148598000Y-63349142D01*
X148693238Y-63253904D01*
X148788476Y-63206285D01*
X148978952Y-63158666D01*
X149121809Y-63158666D01*
X149312285Y-63206285D01*
X149407523Y-63253904D01*
X149502761Y-63349142D01*
X149550380Y-63492000D01*
X149550380Y-63730095D01*
X149550380Y-62206285D02*
X149550380Y-62777714D01*
X149550380Y-62492000D02*
X148550380Y-62492000D01*
X148693238Y-62587238D01*
X148788476Y-62682476D01*
X148836095Y-62777714D01*
G04 #@! TO.C,R5*
X147518380Y-63158666D02*
X147042190Y-63492000D01*
X147518380Y-63730095D02*
X146518380Y-63730095D01*
X146518380Y-63349142D01*
X146566000Y-63253904D01*
X146613619Y-63206285D01*
X146708857Y-63158666D01*
X146851714Y-63158666D01*
X146946952Y-63206285D01*
X146994571Y-63253904D01*
X147042190Y-63349142D01*
X147042190Y-63730095D01*
X146518380Y-62253904D02*
X146518380Y-62730095D01*
X146994571Y-62777714D01*
X146946952Y-62730095D01*
X146899333Y-62634857D01*
X146899333Y-62396761D01*
X146946952Y-62301523D01*
X146994571Y-62253904D01*
X147089809Y-62206285D01*
X147327904Y-62206285D01*
X147423142Y-62253904D01*
X147470761Y-62301523D01*
X147518380Y-62396761D01*
X147518380Y-62634857D01*
X147470761Y-62730095D01*
X147423142Y-62777714D01*
G04 #@! TO.C,R6*
X145740380Y-63158666D02*
X145264190Y-63492000D01*
X145740380Y-63730095D02*
X144740380Y-63730095D01*
X144740380Y-63349142D01*
X144788000Y-63253904D01*
X144835619Y-63206285D01*
X144930857Y-63158666D01*
X145073714Y-63158666D01*
X145168952Y-63206285D01*
X145216571Y-63253904D01*
X145264190Y-63349142D01*
X145264190Y-63730095D01*
X144740380Y-62301523D02*
X144740380Y-62492000D01*
X144788000Y-62587238D01*
X144835619Y-62634857D01*
X144978476Y-62730095D01*
X145168952Y-62777714D01*
X145549904Y-62777714D01*
X145645142Y-62730095D01*
X145692761Y-62682476D01*
X145740380Y-62587238D01*
X145740380Y-62396761D01*
X145692761Y-62301523D01*
X145645142Y-62253904D01*
X145549904Y-62206285D01*
X145311809Y-62206285D01*
X145216571Y-62253904D01*
X145168952Y-62301523D01*
X145121333Y-62396761D01*
X145121333Y-62587238D01*
X145168952Y-62682476D01*
X145216571Y-62730095D01*
X145311809Y-62777714D01*
G04 #@! TO.C,SW4*
X118494666Y-90574761D02*
X118637523Y-90622380D01*
X118875619Y-90622380D01*
X118970857Y-90574761D01*
X119018476Y-90527142D01*
X119066095Y-90431904D01*
X119066095Y-90336666D01*
X119018476Y-90241428D01*
X118970857Y-90193809D01*
X118875619Y-90146190D01*
X118685142Y-90098571D01*
X118589904Y-90050952D01*
X118542285Y-90003333D01*
X118494666Y-89908095D01*
X118494666Y-89812857D01*
X118542285Y-89717619D01*
X118589904Y-89670000D01*
X118685142Y-89622380D01*
X118923238Y-89622380D01*
X119066095Y-89670000D01*
X119399428Y-89622380D02*
X119637523Y-90622380D01*
X119828000Y-89908095D01*
X120018476Y-90622380D01*
X120256571Y-89622380D01*
X121066095Y-89955714D02*
X121066095Y-90622380D01*
X120828000Y-89574761D02*
X120589904Y-90289047D01*
X121208952Y-90289047D01*
G04 #@! TO.C,J1*
X178394273Y-30858208D02*
X179108559Y-30858208D01*
X179251416Y-30905827D01*
X179346654Y-31001065D01*
X179394273Y-31143922D01*
X179394273Y-31239160D01*
X179394273Y-29858208D02*
X179394273Y-30429636D01*
X179394273Y-30143922D02*
X178394273Y-30143922D01*
X178537131Y-30239160D01*
X178632369Y-30334398D01*
X178679988Y-30429636D01*
G04 #@! TO.C,J4*
X181660353Y-17247420D02*
X181660353Y-17961706D01*
X181612734Y-18104563D01*
X181517496Y-18199801D01*
X181374639Y-18247420D01*
X181279401Y-18247420D01*
X182565115Y-17580754D02*
X182565115Y-18247420D01*
X182327020Y-17199801D02*
X182088925Y-17914087D01*
X182707972Y-17914087D01*
G04 #@! TO.C,J6*
X181660353Y-22327420D02*
X181660353Y-23041706D01*
X181612734Y-23184563D01*
X181517496Y-23279801D01*
X181374639Y-23327420D01*
X181279401Y-23327420D01*
X182565115Y-22327420D02*
X182374639Y-22327420D01*
X182279401Y-22375040D01*
X182231782Y-22422659D01*
X182136544Y-22565516D01*
X182088925Y-22755992D01*
X182088925Y-23136944D01*
X182136544Y-23232182D01*
X182184163Y-23279801D01*
X182279401Y-23327420D01*
X182469877Y-23327420D01*
X182565115Y-23279801D01*
X182612734Y-23232182D01*
X182660353Y-23136944D01*
X182660353Y-22898849D01*
X182612734Y-22803611D01*
X182565115Y-22755992D01*
X182469877Y-22708373D01*
X182279401Y-22708373D01*
X182184163Y-22755992D01*
X182136544Y-22803611D01*
X182088925Y-22898849D01*
G04 #@! TO.C,J8*
X163435363Y-19793866D02*
X163435363Y-20508152D01*
X163387744Y-20651009D01*
X163292506Y-20746247D01*
X163149649Y-20793866D01*
X163054411Y-20793866D01*
X164054411Y-20222438D02*
X163959173Y-20174819D01*
X163911554Y-20127200D01*
X163863935Y-20031962D01*
X163863935Y-19984343D01*
X163911554Y-19889105D01*
X163959173Y-19841486D01*
X164054411Y-19793866D01*
X164244887Y-19793866D01*
X164340125Y-19841486D01*
X164387744Y-19889105D01*
X164435363Y-19984343D01*
X164435363Y-20031962D01*
X164387744Y-20127200D01*
X164340125Y-20174819D01*
X164244887Y-20222438D01*
X164054411Y-20222438D01*
X163959173Y-20270057D01*
X163911554Y-20317676D01*
X163863935Y-20412914D01*
X163863935Y-20603390D01*
X163911554Y-20698628D01*
X163959173Y-20746247D01*
X164054411Y-20793866D01*
X164244887Y-20793866D01*
X164340125Y-20746247D01*
X164387744Y-20698628D01*
X164435363Y-20603390D01*
X164435363Y-20412914D01*
X164387744Y-20317676D01*
X164340125Y-20270057D01*
X164244887Y-20222438D01*
G04 #@! TO.C,J9*
X163435363Y-22333866D02*
X163435363Y-23048152D01*
X163387744Y-23191009D01*
X163292506Y-23286247D01*
X163149649Y-23333866D01*
X163054411Y-23333866D01*
X163959173Y-23333866D02*
X164149649Y-23333866D01*
X164244887Y-23286247D01*
X164292506Y-23238628D01*
X164387744Y-23095771D01*
X164435363Y-22905295D01*
X164435363Y-22524343D01*
X164387744Y-22429105D01*
X164340125Y-22381486D01*
X164244887Y-22333866D01*
X164054411Y-22333866D01*
X163959173Y-22381486D01*
X163911554Y-22429105D01*
X163863935Y-22524343D01*
X163863935Y-22762438D01*
X163911554Y-22857676D01*
X163959173Y-22905295D01*
X164054411Y-22952914D01*
X164244887Y-22952914D01*
X164340125Y-22905295D01*
X164387744Y-22857676D01*
X164435363Y-22762438D01*
G04 #@! TO.C,J7*
X163435363Y-17253866D02*
X163435363Y-17968152D01*
X163387744Y-18111009D01*
X163292506Y-18206247D01*
X163149649Y-18253866D01*
X163054411Y-18253866D01*
X163816316Y-17253866D02*
X164482982Y-17253866D01*
X164054411Y-18253866D01*
G04 #@! TO.C,J5*
X181660353Y-19787420D02*
X181660353Y-20501706D01*
X181612734Y-20644563D01*
X181517496Y-20739801D01*
X181374639Y-20787420D01*
X181279401Y-20787420D01*
X182612734Y-19787420D02*
X182136544Y-19787420D01*
X182088925Y-20263611D01*
X182136544Y-20215992D01*
X182231782Y-20168373D01*
X182469877Y-20168373D01*
X182565115Y-20215992D01*
X182612734Y-20263611D01*
X182660353Y-20358849D01*
X182660353Y-20596944D01*
X182612734Y-20692182D01*
X182565115Y-20739801D01*
X182469877Y-20787420D01*
X182231782Y-20787420D01*
X182136544Y-20739801D01*
X182088925Y-20692182D01*
G04 #@! TO.C,N1*
X128574895Y-65171580D02*
X128574895Y-64171580D01*
X129146323Y-65171580D01*
X129146323Y-64171580D01*
X130146323Y-65171580D02*
X129574895Y-65171580D01*
X129860609Y-65171580D02*
X129860609Y-64171580D01*
X129765371Y-64314438D01*
X129670133Y-64409676D01*
X129574895Y-64457295D01*
G04 #@! TO.C,J2*
X178394273Y-56258208D02*
X179108559Y-56258208D01*
X179251416Y-56305827D01*
X179346654Y-56401065D01*
X179394273Y-56543922D01*
X179394273Y-56639160D01*
X178489512Y-55829636D02*
X178441893Y-55782017D01*
X178394273Y-55686779D01*
X178394273Y-55448684D01*
X178441893Y-55353446D01*
X178489512Y-55305827D01*
X178584750Y-55258208D01*
X178679988Y-55258208D01*
X178822845Y-55305827D01*
X179394273Y-55877255D01*
X179394273Y-55258208D01*
G04 #@! TO.C,C5*
X148693142Y-38012666D02*
X148740761Y-38060285D01*
X148788380Y-38203142D01*
X148788380Y-38298380D01*
X148740761Y-38441238D01*
X148645523Y-38536476D01*
X148550285Y-38584095D01*
X148359809Y-38631714D01*
X148216952Y-38631714D01*
X148026476Y-38584095D01*
X147931238Y-38536476D01*
X147836000Y-38441238D01*
X147788380Y-38298380D01*
X147788380Y-38203142D01*
X147836000Y-38060285D01*
X147883619Y-38012666D01*
X147788380Y-37107904D02*
X147788380Y-37584095D01*
X148264571Y-37631714D01*
X148216952Y-37584095D01*
X148169333Y-37488857D01*
X148169333Y-37250761D01*
X148216952Y-37155523D01*
X148264571Y-37107904D01*
X148359809Y-37060285D01*
X148597904Y-37060285D01*
X148693142Y-37107904D01*
X148740761Y-37155523D01*
X148788380Y-37250761D01*
X148788380Y-37488857D01*
X148740761Y-37584095D01*
X148693142Y-37631714D01*
G04 #@! TO.C,J10*
X168242380Y-84725523D02*
X168956666Y-84725523D01*
X169099523Y-84773142D01*
X169194761Y-84868380D01*
X169242380Y-85011238D01*
X169242380Y-85106476D01*
X169242380Y-83725523D02*
X169242380Y-84296952D01*
X169242380Y-84011238D02*
X168242380Y-84011238D01*
X168385238Y-84106476D01*
X168480476Y-84201714D01*
X168528095Y-84296952D01*
X168242380Y-83106476D02*
X168242380Y-83011238D01*
X168290000Y-82916000D01*
X168337619Y-82868380D01*
X168432857Y-82820761D01*
X168623333Y-82773142D01*
X168861428Y-82773142D01*
X169051904Y-82820761D01*
X169147142Y-82868380D01*
X169194761Y-82916000D01*
X169242380Y-83011238D01*
X169242380Y-83106476D01*
X169194761Y-83201714D01*
X169147142Y-83249333D01*
X169051904Y-83296952D01*
X168861428Y-83344571D01*
X168623333Y-83344571D01*
X168432857Y-83296952D01*
X168337619Y-83249333D01*
X168290000Y-83201714D01*
X168242380Y-83106476D01*
G04 #@! TO.C,C8*
X171553142Y-63412666D02*
X171600761Y-63460285D01*
X171648380Y-63603142D01*
X171648380Y-63698380D01*
X171600761Y-63841238D01*
X171505523Y-63936476D01*
X171410285Y-63984095D01*
X171219809Y-64031714D01*
X171076952Y-64031714D01*
X170886476Y-63984095D01*
X170791238Y-63936476D01*
X170696000Y-63841238D01*
X170648380Y-63698380D01*
X170648380Y-63603142D01*
X170696000Y-63460285D01*
X170743619Y-63412666D01*
X171076952Y-62841238D02*
X171029333Y-62936476D01*
X170981714Y-62984095D01*
X170886476Y-63031714D01*
X170838857Y-63031714D01*
X170743619Y-62984095D01*
X170696000Y-62936476D01*
X170648380Y-62841238D01*
X170648380Y-62650761D01*
X170696000Y-62555523D01*
X170743619Y-62507904D01*
X170838857Y-62460285D01*
X170886476Y-62460285D01*
X170981714Y-62507904D01*
X171029333Y-62555523D01*
X171076952Y-62650761D01*
X171076952Y-62841238D01*
X171124571Y-62936476D01*
X171172190Y-62984095D01*
X171267428Y-63031714D01*
X171457904Y-63031714D01*
X171553142Y-62984095D01*
X171600761Y-62936476D01*
X171648380Y-62841238D01*
X171648380Y-62650761D01*
X171600761Y-62555523D01*
X171553142Y-62507904D01*
X171457904Y-62460285D01*
X171267428Y-62460285D01*
X171172190Y-62507904D01*
X171124571Y-62555523D01*
X171076952Y-62650761D01*
G04 #@! TO.C,R4*
X169870380Y-63412666D02*
X169394190Y-63746000D01*
X169870380Y-63984095D02*
X168870380Y-63984095D01*
X168870380Y-63603142D01*
X168918000Y-63507904D01*
X168965619Y-63460285D01*
X169060857Y-63412666D01*
X169203714Y-63412666D01*
X169298952Y-63460285D01*
X169346571Y-63507904D01*
X169394190Y-63603142D01*
X169394190Y-63984095D01*
X169203714Y-62555523D02*
X169870380Y-62555523D01*
X168822761Y-62793619D02*
X169537047Y-63031714D01*
X169537047Y-62412666D01*
G04 #@! TO.C,SW5*
X117852666Y-84161261D02*
X117995523Y-84208880D01*
X118233619Y-84208880D01*
X118328857Y-84161261D01*
X118376476Y-84113642D01*
X118424095Y-84018404D01*
X118424095Y-83923166D01*
X118376476Y-83827928D01*
X118328857Y-83780309D01*
X118233619Y-83732690D01*
X118043142Y-83685071D01*
X117947904Y-83637452D01*
X117900285Y-83589833D01*
X117852666Y-83494595D01*
X117852666Y-83399357D01*
X117900285Y-83304119D01*
X117947904Y-83256500D01*
X118043142Y-83208880D01*
X118281238Y-83208880D01*
X118424095Y-83256500D01*
X118757428Y-83208880D02*
X118995523Y-84208880D01*
X119186000Y-83494595D01*
X119376476Y-84208880D01*
X119614571Y-83208880D01*
X120471714Y-83208880D02*
X119995523Y-83208880D01*
X119947904Y-83685071D01*
X119995523Y-83637452D01*
X120090761Y-83589833D01*
X120328857Y-83589833D01*
X120424095Y-83637452D01*
X120471714Y-83685071D01*
X120519333Y-83780309D01*
X120519333Y-84018404D01*
X120471714Y-84113642D01*
X120424095Y-84161261D01*
X120328857Y-84208880D01*
X120090761Y-84208880D01*
X119995523Y-84161261D01*
X119947904Y-84113642D01*
G04 #@! TO.C,SW3*
X187194666Y-88288761D02*
X187337523Y-88336380D01*
X187575619Y-88336380D01*
X187670857Y-88288761D01*
X187718476Y-88241142D01*
X187766095Y-88145904D01*
X187766095Y-88050666D01*
X187718476Y-87955428D01*
X187670857Y-87907809D01*
X187575619Y-87860190D01*
X187385142Y-87812571D01*
X187289904Y-87764952D01*
X187242285Y-87717333D01*
X187194666Y-87622095D01*
X187194666Y-87526857D01*
X187242285Y-87431619D01*
X187289904Y-87384000D01*
X187385142Y-87336380D01*
X187623238Y-87336380D01*
X187766095Y-87384000D01*
X188099428Y-87336380D02*
X188337523Y-88336380D01*
X188528000Y-87622095D01*
X188718476Y-88336380D01*
X188956571Y-87336380D01*
X189242285Y-87336380D02*
X189861333Y-87336380D01*
X189528000Y-87717333D01*
X189670857Y-87717333D01*
X189766095Y-87764952D01*
X189813714Y-87812571D01*
X189861333Y-87907809D01*
X189861333Y-88145904D01*
X189813714Y-88241142D01*
X189766095Y-88288761D01*
X189670857Y-88336380D01*
X189385142Y-88336380D01*
X189289904Y-88288761D01*
X189242285Y-88241142D01*
G04 #@! TO.C,SW2*
X111636666Y-84224761D02*
X111779523Y-84272380D01*
X112017619Y-84272380D01*
X112112857Y-84224761D01*
X112160476Y-84177142D01*
X112208095Y-84081904D01*
X112208095Y-83986666D01*
X112160476Y-83891428D01*
X112112857Y-83843809D01*
X112017619Y-83796190D01*
X111827142Y-83748571D01*
X111731904Y-83700952D01*
X111684285Y-83653333D01*
X111636666Y-83558095D01*
X111636666Y-83462857D01*
X111684285Y-83367619D01*
X111731904Y-83320000D01*
X111827142Y-83272380D01*
X112065238Y-83272380D01*
X112208095Y-83320000D01*
X112541428Y-83272380D02*
X112779523Y-84272380D01*
X112970000Y-83558095D01*
X113160476Y-84272380D01*
X113398571Y-83272380D01*
X113731904Y-83367619D02*
X113779523Y-83320000D01*
X113874761Y-83272380D01*
X114112857Y-83272380D01*
X114208095Y-83320000D01*
X114255714Y-83367619D01*
X114303333Y-83462857D01*
X114303333Y-83558095D01*
X114255714Y-83700952D01*
X113684285Y-84272380D01*
X114303333Y-84272380D01*
G04 #@! TO.C,SW1*
X110994666Y-77874761D02*
X111137523Y-77922380D01*
X111375619Y-77922380D01*
X111470857Y-77874761D01*
X111518476Y-77827142D01*
X111566095Y-77731904D01*
X111566095Y-77636666D01*
X111518476Y-77541428D01*
X111470857Y-77493809D01*
X111375619Y-77446190D01*
X111185142Y-77398571D01*
X111089904Y-77350952D01*
X111042285Y-77303333D01*
X110994666Y-77208095D01*
X110994666Y-77112857D01*
X111042285Y-77017619D01*
X111089904Y-76970000D01*
X111185142Y-76922380D01*
X111423238Y-76922380D01*
X111566095Y-76970000D01*
X111899428Y-76922380D02*
X112137523Y-77922380D01*
X112328000Y-77208095D01*
X112518476Y-77922380D01*
X112756571Y-76922380D01*
X113661333Y-77922380D02*
X113089904Y-77922380D01*
X113375619Y-77922380D02*
X113375619Y-76922380D01*
X113280380Y-77065238D01*
X113185142Y-77160476D01*
X113089904Y-77208095D01*
G04 #@! TO.C,C7*
X171807142Y-38012666D02*
X171854761Y-38060285D01*
X171902380Y-38203142D01*
X171902380Y-38298380D01*
X171854761Y-38441238D01*
X171759523Y-38536476D01*
X171664285Y-38584095D01*
X171473809Y-38631714D01*
X171330952Y-38631714D01*
X171140476Y-38584095D01*
X171045238Y-38536476D01*
X170950000Y-38441238D01*
X170902380Y-38298380D01*
X170902380Y-38203142D01*
X170950000Y-38060285D01*
X170997619Y-38012666D01*
X170902380Y-37679333D02*
X170902380Y-37012666D01*
X171902380Y-37441238D01*
G04 #@! TO.C,C6*
X138533142Y-63158666D02*
X138580761Y-63206285D01*
X138628380Y-63349142D01*
X138628380Y-63444380D01*
X138580761Y-63587238D01*
X138485523Y-63682476D01*
X138390285Y-63730095D01*
X138199809Y-63777714D01*
X138056952Y-63777714D01*
X137866476Y-63730095D01*
X137771238Y-63682476D01*
X137676000Y-63587238D01*
X137628380Y-63444380D01*
X137628380Y-63349142D01*
X137676000Y-63206285D01*
X137723619Y-63158666D01*
X137628380Y-62301523D02*
X137628380Y-62492000D01*
X137676000Y-62587238D01*
X137723619Y-62634857D01*
X137866476Y-62730095D01*
X138056952Y-62777714D01*
X138437904Y-62777714D01*
X138533142Y-62730095D01*
X138580761Y-62682476D01*
X138628380Y-62587238D01*
X138628380Y-62396761D01*
X138580761Y-62301523D01*
X138533142Y-62253904D01*
X138437904Y-62206285D01*
X138199809Y-62206285D01*
X138104571Y-62253904D01*
X138056952Y-62301523D01*
X138009333Y-62396761D01*
X138009333Y-62587238D01*
X138056952Y-62682476D01*
X138104571Y-62730095D01*
X138199809Y-62777714D01*
G04 #@! TO.C,C4*
X169013142Y-38012666D02*
X169060761Y-38060285D01*
X169108380Y-38203142D01*
X169108380Y-38298380D01*
X169060761Y-38441238D01*
X168965523Y-38536476D01*
X168870285Y-38584095D01*
X168679809Y-38631714D01*
X168536952Y-38631714D01*
X168346476Y-38584095D01*
X168251238Y-38536476D01*
X168156000Y-38441238D01*
X168108380Y-38298380D01*
X168108380Y-38203142D01*
X168156000Y-38060285D01*
X168203619Y-38012666D01*
X168441714Y-37155523D02*
X169108380Y-37155523D01*
X168060761Y-37393619D02*
X168775047Y-37631714D01*
X168775047Y-37012666D01*
G04 #@! TO.C,C3*
X141073142Y-38012666D02*
X141120761Y-38060285D01*
X141168380Y-38203142D01*
X141168380Y-38298380D01*
X141120761Y-38441238D01*
X141025523Y-38536476D01*
X140930285Y-38584095D01*
X140739809Y-38631714D01*
X140596952Y-38631714D01*
X140406476Y-38584095D01*
X140311238Y-38536476D01*
X140216000Y-38441238D01*
X140168380Y-38298380D01*
X140168380Y-38203142D01*
X140216000Y-38060285D01*
X140263619Y-38012666D01*
X140168380Y-37679333D02*
X140168380Y-37060285D01*
X140549333Y-37393619D01*
X140549333Y-37250761D01*
X140596952Y-37155523D01*
X140644571Y-37107904D01*
X140739809Y-37060285D01*
X140977904Y-37060285D01*
X141073142Y-37107904D01*
X141120761Y-37155523D01*
X141168380Y-37250761D01*
X141168380Y-37536476D01*
X141120761Y-37631714D01*
X141073142Y-37679333D01*
G04 #@! TO.C,C2*
X146153142Y-38012666D02*
X146200761Y-38060285D01*
X146248380Y-38203142D01*
X146248380Y-38298380D01*
X146200761Y-38441238D01*
X146105523Y-38536476D01*
X146010285Y-38584095D01*
X145819809Y-38631714D01*
X145676952Y-38631714D01*
X145486476Y-38584095D01*
X145391238Y-38536476D01*
X145296000Y-38441238D01*
X145248380Y-38298380D01*
X145248380Y-38203142D01*
X145296000Y-38060285D01*
X145343619Y-38012666D01*
X145343619Y-37631714D02*
X145296000Y-37584095D01*
X145248380Y-37488857D01*
X145248380Y-37250761D01*
X145296000Y-37155523D01*
X145343619Y-37107904D01*
X145438857Y-37060285D01*
X145534095Y-37060285D01*
X145676952Y-37107904D01*
X146248380Y-37679333D01*
X146248380Y-37060285D01*
G04 #@! TD*
M02*
