M48
;DRILL file {KiCad (5.0.1)-3} date 2018-10-31 오전 8:23:35
;FORMAT={-:-/ absolute / metric / decimal}
FMAT,2
METRIC,TZ
T1C0.400
T2C1.000
%
G90
G05
M71
T1
X107.32Y-84.01
X114.178Y-89.789
X117.978Y-77.533
X122.428Y-68.072
X124.841Y-83.629
X149.606Y-59.791
X155.829Y-75.819
X163.576Y-84.709
X173.99Y-90.678
X180.086Y-62.484
X181.102Y-66.04
X194.188Y-87.884
T2
X163.472Y-18.303
X166.012Y-18.303
X168.552Y-18.303
X171.092Y-18.303
X145.751Y-23.244
X148.291Y-23.244
X150.831Y-23.244
X153.371Y-23.244
X155.911Y-23.244
X158.451Y-23.244
X163.472Y-20.843
X166.012Y-20.843
X168.552Y-20.843
X171.092Y-20.843
X130.452Y-55.925
X132.992Y-55.925
X135.532Y-55.925
X138.072Y-55.925
X140.612Y-55.925
X143.152Y-55.925
X145.692Y-55.925
X148.232Y-55.925
X150.772Y-55.925
X153.312Y-55.925
X155.852Y-55.925
X158.392Y-55.925
X160.932Y-55.925
X163.472Y-55.925
X166.012Y-55.925
X168.552Y-55.925
X171.092Y-55.925
X173.632Y-55.925
X176.172Y-55.925
X176.276Y-23.622
X178.816Y-23.622
X181.356Y-23.622
X183.896Y-23.622
X186.436Y-23.622
X188.976Y-23.622
X163.472Y-23.383
X166.012Y-23.383
X168.552Y-23.383
X171.092Y-23.383
X145.751Y-20.704
X148.291Y-20.704
X150.831Y-20.704
X153.371Y-20.704
X155.911Y-20.704
X158.451Y-20.704
X145.751Y-18.164
X148.291Y-18.164
X150.831Y-18.164
X153.371Y-18.164
X155.911Y-18.164
X158.451Y-18.164
X130.452Y-30.525
X132.992Y-30.525
X135.532Y-30.525
X138.072Y-30.525
X140.612Y-30.525
X143.152Y-30.525
X145.692Y-30.525
X148.232Y-30.525
X150.772Y-30.525
X153.312Y-30.525
X155.852Y-30.525
X158.392Y-30.525
X160.932Y-30.525
X163.472Y-30.525
X166.012Y-30.525
X168.552Y-30.525
X171.092Y-30.525
X173.632Y-30.525
X176.172Y-30.525
T0
M30
