G04 #@! TF.GenerationSoftware,KiCad,Pcbnew,(5.0.1)-3*
G04 #@! TF.CreationDate,2018-10-31T18:48:16+09:00*
G04 #@! TF.ProjectId,badge,62616467652E6B696361645F70636200,rev?*
G04 #@! TF.SameCoordinates,Original*
G04 #@! TF.FileFunction,Legend,Top*
G04 #@! TF.FilePolarity,Positive*
%FSLAX46Y46*%
G04 Gerber Fmt 4.6, Leading zero omitted, Abs format (unit mm)*
G04 Created by KiCad (PCBNEW (5.0.1)-3) date 2018-10-31 오후 6:48:16*
%MOMM*%
%LPD*%
G01*
G04 APERTURE LIST*
%ADD10C,0.120000*%
%ADD11C,0.150000*%
G04 APERTURE END LIST*
D10*
G04 #@! TO.C,J13*
X176939480Y-53380640D02*
X176939480Y-54590640D01*
X129699480Y-54590640D02*
X129029480Y-54590640D01*
X134779480Y-54590640D02*
X131219480Y-54590640D01*
X139859480Y-54590640D02*
X136299480Y-54590640D01*
X144939480Y-54590640D02*
X141379480Y-54590640D01*
X150019480Y-54590640D02*
X146459480Y-54590640D01*
X155099480Y-54590640D02*
X151539480Y-54590640D01*
X160179480Y-54590640D02*
X156619480Y-54590640D01*
X165259480Y-54590640D02*
X161699480Y-54590640D01*
X170339480Y-54590640D02*
X166779480Y-54590640D01*
X175419480Y-54590640D02*
X171859480Y-54590640D01*
X177609480Y-54590640D02*
X176939480Y-54590640D01*
X129029480Y-54590640D02*
X129029480Y-57250640D01*
X132239480Y-57250640D02*
X129029480Y-57250640D01*
X137319480Y-57250640D02*
X133759480Y-57250640D01*
X142399480Y-57250640D02*
X138839480Y-57250640D01*
X147479480Y-57250640D02*
X143919480Y-57250640D01*
X152559480Y-57250640D02*
X148999480Y-57250640D01*
X157639480Y-57250640D02*
X154079480Y-57250640D01*
X162719480Y-57250640D02*
X159159480Y-57250640D01*
X167799480Y-57250640D02*
X164239480Y-57250640D01*
X172879480Y-57250640D02*
X169319480Y-57250640D01*
X177609480Y-57250640D02*
X174399480Y-57250640D01*
X177609480Y-54590640D02*
X177609480Y-57250640D01*
G04 #@! TO.C,J12*
X176939480Y-31877040D02*
X176939480Y-33087040D01*
X132239480Y-29217040D02*
X129029480Y-29217040D01*
X137319480Y-29217040D02*
X133759480Y-29217040D01*
X142399480Y-29217040D02*
X138839480Y-29217040D01*
X147479480Y-29217040D02*
X143919480Y-29217040D01*
X152559480Y-29217040D02*
X148999480Y-29217040D01*
X157639480Y-29217040D02*
X154079480Y-29217040D01*
X162719480Y-29217040D02*
X159159480Y-29217040D01*
X167799480Y-29217040D02*
X164239480Y-29217040D01*
X172879480Y-29217040D02*
X169319480Y-29217040D01*
X177609480Y-29217040D02*
X174399480Y-29217040D01*
X129029480Y-29217040D02*
X129029480Y-31877040D01*
X129699480Y-31877040D02*
X129029480Y-31877040D01*
X134779480Y-31877040D02*
X131219480Y-31877040D01*
X139859480Y-31877040D02*
X136299480Y-31877040D01*
X144939480Y-31877040D02*
X141379480Y-31877040D01*
X150019480Y-31877040D02*
X146459480Y-31877040D01*
X155099480Y-31877040D02*
X151539480Y-31877040D01*
X160179480Y-31877040D02*
X156619480Y-31877040D01*
X165259480Y-31877040D02*
X161699480Y-31877040D01*
X170339480Y-31877040D02*
X166779480Y-31877040D01*
X175419480Y-31877040D02*
X171859480Y-31877040D01*
X177609480Y-31877040D02*
X176939480Y-31877040D01*
X177609480Y-29217040D02*
X177609480Y-31877040D01*
G04 #@! TO.C,C9*
X179326000Y-19623721D02*
X179326000Y-19949279D01*
X178306000Y-19623721D02*
X178306000Y-19949279D01*
G04 #@! TO.C,R7*
X176786000Y-19974779D02*
X176786000Y-19649221D01*
X175766000Y-19974779D02*
X175766000Y-19649221D01*
G04 #@! TO.C,D1*
X147547000Y-62064000D02*
X147547000Y-59779000D01*
X146077000Y-62064000D02*
X147547000Y-62064000D01*
X146077000Y-59779000D02*
X146077000Y-62064000D01*
G04 #@! TO.C,R6*
X149858000Y-60416221D02*
X149858000Y-60741779D01*
X150878000Y-60416221D02*
X150878000Y-60741779D01*
G04 #@! TO.C,D2*
X151411000Y-59779000D02*
X151411000Y-62064000D01*
X151411000Y-62064000D02*
X152881000Y-62064000D01*
X152881000Y-62064000D02*
X152881000Y-59779000D01*
G04 #@! TO.C,R5*
X149100000Y-60416221D02*
X149100000Y-60741779D01*
X148080000Y-60416221D02*
X148080000Y-60741779D01*
G04 #@! TO.C,SW6*
X193338000Y-79990000D02*
X193338000Y-77490000D01*
X195088000Y-81490000D02*
X197088000Y-81490000D01*
X198838000Y-79990000D02*
X198838000Y-77490000D01*
X195088000Y-75990000D02*
X197088000Y-75990000D01*
X193788000Y-80440000D02*
X193338000Y-79990000D01*
X193788000Y-77040000D02*
X193338000Y-77490000D01*
X198388000Y-77040000D02*
X198838000Y-77490000D01*
X198388000Y-80440000D02*
X198838000Y-79990000D01*
G04 #@! TO.C,SW3*
X194578000Y-89584000D02*
X195028000Y-89134000D01*
X194578000Y-86184000D02*
X195028000Y-86634000D01*
X189978000Y-86184000D02*
X189528000Y-86634000D01*
X189978000Y-89584000D02*
X189528000Y-89134000D01*
X191278000Y-85134000D02*
X193278000Y-85134000D01*
X195028000Y-89134000D02*
X195028000Y-86634000D01*
X191278000Y-90634000D02*
X193278000Y-90634000D01*
X189528000Y-89134000D02*
X189528000Y-86634000D01*
G04 #@! TO.C,J11*
X177546000Y-24952000D02*
X177546000Y-22292000D01*
X177546000Y-24952000D02*
X190306000Y-24952000D01*
X190306000Y-24952000D02*
X190306000Y-22292000D01*
X177546000Y-22292000D02*
X190306000Y-22292000D01*
X174946000Y-22292000D02*
X176276000Y-22292000D01*
X174946000Y-23622000D02*
X174946000Y-22292000D01*
G04 #@! TO.C,SW4*
X118828000Y-88920000D02*
X118828000Y-91420000D01*
X117078000Y-87420000D02*
X115078000Y-87420000D01*
X113328000Y-88920000D02*
X113328000Y-91420000D01*
X117078000Y-92920000D02*
X115078000Y-92920000D01*
X118378000Y-88470000D02*
X118828000Y-88920000D01*
X118378000Y-91870000D02*
X118828000Y-91420000D01*
X113778000Y-91870000D02*
X113328000Y-91420000D01*
X113778000Y-88470000D02*
X113328000Y-88920000D01*
G04 #@! TO.C,J1*
X174901893Y-29194875D02*
X174901893Y-31854875D01*
X174901893Y-29194875D02*
X129121893Y-29194875D01*
X129121893Y-29194875D02*
X129121893Y-31854875D01*
X174901893Y-31854875D02*
X129121893Y-31854875D01*
X177501893Y-31854875D02*
X176171893Y-31854875D01*
X177501893Y-30524875D02*
X177501893Y-31854875D01*
G04 #@! TO.C,J4*
X169821893Y-16973040D02*
X169821893Y-19633040D01*
X169821893Y-16973040D02*
X162141893Y-16973040D01*
X162141893Y-16973040D02*
X162141893Y-19633040D01*
X169821893Y-19633040D02*
X162141893Y-19633040D01*
X172421893Y-19633040D02*
X171091893Y-19633040D01*
X172421893Y-18303040D02*
X172421893Y-19633040D01*
G04 #@! TO.C,J6*
X172421893Y-23383040D02*
X172421893Y-24713040D01*
X172421893Y-24713040D02*
X171091893Y-24713040D01*
X169821893Y-24713040D02*
X162141893Y-24713040D01*
X162141893Y-22053040D02*
X162141893Y-24713040D01*
X169821893Y-22053040D02*
X162141893Y-22053040D01*
X169821893Y-22053040D02*
X169821893Y-24713040D01*
G04 #@! TO.C,J8*
X144420516Y-20704346D02*
X144420516Y-19374346D01*
X144420516Y-19374346D02*
X145750516Y-19374346D01*
X147020516Y-19374346D02*
X159780516Y-19374346D01*
X159780516Y-22034346D02*
X159780516Y-19374346D01*
X147020516Y-22034346D02*
X159780516Y-22034346D01*
X147020516Y-22034346D02*
X147020516Y-19374346D01*
G04 #@! TO.C,J9*
X147020516Y-19494346D02*
X147020516Y-16834346D01*
X147020516Y-19494346D02*
X159780516Y-19494346D01*
X159780516Y-19494346D02*
X159780516Y-16834346D01*
X147020516Y-16834346D02*
X159780516Y-16834346D01*
X144420516Y-16834346D02*
X145750516Y-16834346D01*
X144420516Y-18164346D02*
X144420516Y-16834346D01*
G04 #@! TO.C,J7*
X147020516Y-24574346D02*
X147020516Y-21914346D01*
X147020516Y-24574346D02*
X159780516Y-24574346D01*
X159780516Y-24574346D02*
X159780516Y-21914346D01*
X147020516Y-21914346D02*
X159780516Y-21914346D01*
X144420516Y-21914346D02*
X145750516Y-21914346D01*
X144420516Y-23244346D02*
X144420516Y-21914346D01*
G04 #@! TO.C,J5*
X172421893Y-20843040D02*
X172421893Y-22173040D01*
X172421893Y-22173040D02*
X171091893Y-22173040D01*
X169821893Y-22173040D02*
X162141893Y-22173040D01*
X162141893Y-19513040D02*
X162141893Y-22173040D01*
X169821893Y-19513040D02*
X162141893Y-19513040D01*
X169821893Y-19513040D02*
X169821893Y-22173040D01*
G04 #@! TO.C,J2*
X177501893Y-55924875D02*
X177501893Y-57254875D01*
X177501893Y-57254875D02*
X176171893Y-57254875D01*
X174901893Y-57254875D02*
X129121893Y-57254875D01*
X129121893Y-54594875D02*
X129121893Y-57254875D01*
X174901893Y-54594875D02*
X129121893Y-54594875D01*
X174901893Y-54594875D02*
X174901893Y-57254875D01*
G04 #@! TO.C,J10*
X171274000Y-92110000D02*
X170374000Y-92110000D01*
X170450000Y-90500000D02*
X170096447Y-90250000D01*
X170374000Y-76064000D02*
X170074000Y-76064000D01*
X171274000Y-75214000D02*
X170374000Y-75214000D01*
X170074000Y-91260000D02*
X170074000Y-91010000D01*
X170096447Y-90750000D02*
X170450000Y-90500000D01*
X170074000Y-91010000D02*
X169934000Y-91010000D01*
X170374000Y-92110000D02*
X170374000Y-91260000D01*
X170374000Y-75214000D02*
X170374000Y-76064000D01*
X170096447Y-90250000D02*
X170096447Y-90750000D01*
X170074000Y-76064000D02*
X170074000Y-76314000D01*
X170374000Y-91260000D02*
X170074000Y-91260000D01*
X172994000Y-90940000D02*
X172994000Y-76460000D01*
G04 #@! TO.C,C8*
X175766000Y-60741779D02*
X175766000Y-60416221D01*
X176786000Y-60741779D02*
X176786000Y-60416221D01*
G04 #@! TO.C,R4*
X173861000Y-60741779D02*
X173861000Y-60416221D01*
X174881000Y-60741779D02*
X174881000Y-60416221D01*
G04 #@! TO.C,SW5*
X125236000Y-85456500D02*
X125686000Y-85006500D01*
X125236000Y-82056500D02*
X125686000Y-82506500D01*
X120636000Y-82056500D02*
X120186000Y-82506500D01*
X120636000Y-85456500D02*
X120186000Y-85006500D01*
X121936000Y-81006500D02*
X123936000Y-81006500D01*
X125686000Y-85006500D02*
X125686000Y-82506500D01*
X121936000Y-86506500D02*
X123936000Y-86506500D01*
X120186000Y-85006500D02*
X120186000Y-82506500D01*
G04 #@! TO.C,SW2*
X111970000Y-82570000D02*
X111970000Y-85070000D01*
X110220000Y-81070000D02*
X108220000Y-81070000D01*
X106470000Y-82570000D02*
X106470000Y-85070000D01*
X110220000Y-86570000D02*
X108220000Y-86570000D01*
X111520000Y-82120000D02*
X111970000Y-82570000D01*
X111520000Y-85520000D02*
X111970000Y-85070000D01*
X106920000Y-85520000D02*
X106470000Y-85070000D01*
X106920000Y-82120000D02*
X106470000Y-82570000D01*
G04 #@! TO.C,SW1*
X118378000Y-79170000D02*
X118828000Y-78720000D01*
X118378000Y-75770000D02*
X118828000Y-76220000D01*
X113778000Y-75770000D02*
X113328000Y-76220000D01*
X113778000Y-79170000D02*
X113328000Y-78720000D01*
X115078000Y-74720000D02*
X117078000Y-74720000D01*
X118828000Y-78720000D02*
X118828000Y-76220000D01*
X115078000Y-80220000D02*
X117078000Y-80220000D01*
X113328000Y-78720000D02*
X113328000Y-76220000D01*
G04 #@! TO.C,J13*
D11*
X180435000Y-56704763D02*
X181149286Y-56704763D01*
X181292143Y-56752382D01*
X181387381Y-56847620D01*
X181435000Y-56990478D01*
X181435000Y-57085716D01*
X181435000Y-55704763D02*
X181435000Y-56276192D01*
X181435000Y-55990478D02*
X180435000Y-55990478D01*
X180577858Y-56085716D01*
X180673096Y-56180954D01*
X180720715Y-56276192D01*
X180435000Y-55371430D02*
X180435000Y-54752382D01*
X180815953Y-55085716D01*
X180815953Y-54942859D01*
X180863572Y-54847620D01*
X180911191Y-54800001D01*
X181006429Y-54752382D01*
X181244524Y-54752382D01*
X181339762Y-54800001D01*
X181387381Y-54847620D01*
X181435000Y-54942859D01*
X181435000Y-55228573D01*
X181387381Y-55323811D01*
X181339762Y-55371430D01*
G04 #@! TO.C,J12*
X180310540Y-31309843D02*
X181024826Y-31309843D01*
X181167683Y-31357462D01*
X181262921Y-31452700D01*
X181310540Y-31595558D01*
X181310540Y-31690796D01*
X181310540Y-30309843D02*
X181310540Y-30881272D01*
X181310540Y-30595558D02*
X180310540Y-30595558D01*
X180453398Y-30690796D01*
X180548636Y-30786034D01*
X180596255Y-30881272D01*
X180405779Y-29928891D02*
X180358160Y-29881272D01*
X180310540Y-29786034D01*
X180310540Y-29547939D01*
X180358160Y-29452700D01*
X180405779Y-29405081D01*
X180501017Y-29357462D01*
X180596255Y-29357462D01*
X180739112Y-29405081D01*
X181310540Y-29976510D01*
X181310540Y-29357462D01*
G04 #@! TO.C,SW7*
X114752666Y-56888761D02*
X114895523Y-56936380D01*
X115133619Y-56936380D01*
X115228857Y-56888761D01*
X115276476Y-56841142D01*
X115324095Y-56745904D01*
X115324095Y-56650666D01*
X115276476Y-56555428D01*
X115228857Y-56507809D01*
X115133619Y-56460190D01*
X114943142Y-56412571D01*
X114847904Y-56364952D01*
X114800285Y-56317333D01*
X114752666Y-56222095D01*
X114752666Y-56126857D01*
X114800285Y-56031619D01*
X114847904Y-55984000D01*
X114943142Y-55936380D01*
X115181238Y-55936380D01*
X115324095Y-55984000D01*
X115657428Y-55936380D02*
X115895523Y-56936380D01*
X116086000Y-56222095D01*
X116276476Y-56936380D01*
X116514571Y-55936380D01*
X116800285Y-55936380D02*
X117466952Y-55936380D01*
X117038380Y-56936380D01*
G04 #@! TO.C,C9*
X179173142Y-17438666D02*
X179220761Y-17486285D01*
X179268380Y-17629142D01*
X179268380Y-17724380D01*
X179220761Y-17867238D01*
X179125523Y-17962476D01*
X179030285Y-18010095D01*
X178839809Y-18057714D01*
X178696952Y-18057714D01*
X178506476Y-18010095D01*
X178411238Y-17962476D01*
X178316000Y-17867238D01*
X178268380Y-17724380D01*
X178268380Y-17629142D01*
X178316000Y-17486285D01*
X178363619Y-17438666D01*
X179268380Y-16962476D02*
X179268380Y-16772000D01*
X179220761Y-16676761D01*
X179173142Y-16629142D01*
X179030285Y-16533904D01*
X178839809Y-16486285D01*
X178458857Y-16486285D01*
X178363619Y-16533904D01*
X178316000Y-16581523D01*
X178268380Y-16676761D01*
X178268380Y-16867238D01*
X178316000Y-16962476D01*
X178363619Y-17010095D01*
X178458857Y-17057714D01*
X178696952Y-17057714D01*
X178792190Y-17010095D01*
X178839809Y-16962476D01*
X178887428Y-16867238D01*
X178887428Y-16676761D01*
X178839809Y-16581523D01*
X178792190Y-16533904D01*
X178696952Y-16486285D01*
G04 #@! TO.C,R7*
X176728380Y-17438666D02*
X176252190Y-17772000D01*
X176728380Y-18010095D02*
X175728380Y-18010095D01*
X175728380Y-17629142D01*
X175776000Y-17533904D01*
X175823619Y-17486285D01*
X175918857Y-17438666D01*
X176061714Y-17438666D01*
X176156952Y-17486285D01*
X176204571Y-17533904D01*
X176252190Y-17629142D01*
X176252190Y-18010095D01*
X175728380Y-17105333D02*
X175728380Y-16438666D01*
X176728380Y-16867238D01*
G04 #@! TO.C,D1*
X147264380Y-63857095D02*
X146264380Y-63857095D01*
X146264380Y-63619000D01*
X146312000Y-63476142D01*
X146407238Y-63380904D01*
X146502476Y-63333285D01*
X146692952Y-63285666D01*
X146835809Y-63285666D01*
X147026285Y-63333285D01*
X147121523Y-63380904D01*
X147216761Y-63476142D01*
X147264380Y-63619000D01*
X147264380Y-63857095D01*
X147264380Y-62333285D02*
X147264380Y-62904714D01*
X147264380Y-62619000D02*
X146264380Y-62619000D01*
X146407238Y-62714238D01*
X146502476Y-62809476D01*
X146550095Y-62904714D01*
G04 #@! TO.C,R6*
X150820380Y-63285666D02*
X150344190Y-63619000D01*
X150820380Y-63857095D02*
X149820380Y-63857095D01*
X149820380Y-63476142D01*
X149868000Y-63380904D01*
X149915619Y-63333285D01*
X150010857Y-63285666D01*
X150153714Y-63285666D01*
X150248952Y-63333285D01*
X150296571Y-63380904D01*
X150344190Y-63476142D01*
X150344190Y-63857095D01*
X149820380Y-62428523D02*
X149820380Y-62619000D01*
X149868000Y-62714238D01*
X149915619Y-62761857D01*
X150058476Y-62857095D01*
X150248952Y-62904714D01*
X150629904Y-62904714D01*
X150725142Y-62857095D01*
X150772761Y-62809476D01*
X150820380Y-62714238D01*
X150820380Y-62523761D01*
X150772761Y-62428523D01*
X150725142Y-62380904D01*
X150629904Y-62333285D01*
X150391809Y-62333285D01*
X150296571Y-62380904D01*
X150248952Y-62428523D01*
X150201333Y-62523761D01*
X150201333Y-62714238D01*
X150248952Y-62809476D01*
X150296571Y-62857095D01*
X150391809Y-62904714D01*
G04 #@! TO.C,D2*
X152598380Y-63857095D02*
X151598380Y-63857095D01*
X151598380Y-63619000D01*
X151646000Y-63476142D01*
X151741238Y-63380904D01*
X151836476Y-63333285D01*
X152026952Y-63285666D01*
X152169809Y-63285666D01*
X152360285Y-63333285D01*
X152455523Y-63380904D01*
X152550761Y-63476142D01*
X152598380Y-63619000D01*
X152598380Y-63857095D01*
X151693619Y-62904714D02*
X151646000Y-62857095D01*
X151598380Y-62761857D01*
X151598380Y-62523761D01*
X151646000Y-62428523D01*
X151693619Y-62380904D01*
X151788857Y-62333285D01*
X151884095Y-62333285D01*
X152026952Y-62380904D01*
X152598380Y-62952333D01*
X152598380Y-62333285D01*
G04 #@! TO.C,R5*
X149042380Y-63285666D02*
X148566190Y-63619000D01*
X149042380Y-63857095D02*
X148042380Y-63857095D01*
X148042380Y-63476142D01*
X148090000Y-63380904D01*
X148137619Y-63333285D01*
X148232857Y-63285666D01*
X148375714Y-63285666D01*
X148470952Y-63333285D01*
X148518571Y-63380904D01*
X148566190Y-63476142D01*
X148566190Y-63857095D01*
X148042380Y-62380904D02*
X148042380Y-62857095D01*
X148518571Y-62904714D01*
X148470952Y-62857095D01*
X148423333Y-62761857D01*
X148423333Y-62523761D01*
X148470952Y-62428523D01*
X148518571Y-62380904D01*
X148613809Y-62333285D01*
X148851904Y-62333285D01*
X148947142Y-62380904D01*
X148994761Y-62428523D01*
X149042380Y-62523761D01*
X149042380Y-62761857D01*
X148994761Y-62857095D01*
X148947142Y-62904714D01*
G04 #@! TO.C,SW6*
X191004666Y-79144761D02*
X191147523Y-79192380D01*
X191385619Y-79192380D01*
X191480857Y-79144761D01*
X191528476Y-79097142D01*
X191576095Y-79001904D01*
X191576095Y-78906666D01*
X191528476Y-78811428D01*
X191480857Y-78763809D01*
X191385619Y-78716190D01*
X191195142Y-78668571D01*
X191099904Y-78620952D01*
X191052285Y-78573333D01*
X191004666Y-78478095D01*
X191004666Y-78382857D01*
X191052285Y-78287619D01*
X191099904Y-78240000D01*
X191195142Y-78192380D01*
X191433238Y-78192380D01*
X191576095Y-78240000D01*
X191909428Y-78192380D02*
X192147523Y-79192380D01*
X192338000Y-78478095D01*
X192528476Y-79192380D01*
X192766571Y-78192380D01*
X193576095Y-78192380D02*
X193385619Y-78192380D01*
X193290380Y-78240000D01*
X193242761Y-78287619D01*
X193147523Y-78430476D01*
X193099904Y-78620952D01*
X193099904Y-79001904D01*
X193147523Y-79097142D01*
X193195142Y-79144761D01*
X193290380Y-79192380D01*
X193480857Y-79192380D01*
X193576095Y-79144761D01*
X193623714Y-79097142D01*
X193671333Y-79001904D01*
X193671333Y-78763809D01*
X193623714Y-78668571D01*
X193576095Y-78620952D01*
X193480857Y-78573333D01*
X193290380Y-78573333D01*
X193195142Y-78620952D01*
X193147523Y-78668571D01*
X193099904Y-78763809D01*
G04 #@! TO.C,SW3*
X187194666Y-88288761D02*
X187337523Y-88336380D01*
X187575619Y-88336380D01*
X187670857Y-88288761D01*
X187718476Y-88241142D01*
X187766095Y-88145904D01*
X187766095Y-88050666D01*
X187718476Y-87955428D01*
X187670857Y-87907809D01*
X187575619Y-87860190D01*
X187385142Y-87812571D01*
X187289904Y-87764952D01*
X187242285Y-87717333D01*
X187194666Y-87622095D01*
X187194666Y-87526857D01*
X187242285Y-87431619D01*
X187289904Y-87384000D01*
X187385142Y-87336380D01*
X187623238Y-87336380D01*
X187766095Y-87384000D01*
X188099428Y-87336380D02*
X188337523Y-88336380D01*
X188528000Y-87622095D01*
X188718476Y-88336380D01*
X188956571Y-87336380D01*
X189242285Y-87336380D02*
X189861333Y-87336380D01*
X189528000Y-87717333D01*
X189670857Y-87717333D01*
X189766095Y-87764952D01*
X189813714Y-87812571D01*
X189861333Y-87907809D01*
X189861333Y-88145904D01*
X189813714Y-88241142D01*
X189766095Y-88288761D01*
X189670857Y-88336380D01*
X189385142Y-88336380D01*
X189289904Y-88288761D01*
X189242285Y-88241142D01*
G04 #@! TO.C,J11*
X172696476Y-23074380D02*
X172696476Y-23788666D01*
X172648857Y-23931523D01*
X172553619Y-24026761D01*
X172410761Y-24074380D01*
X172315523Y-24074380D01*
X173696476Y-24074380D02*
X173125047Y-24074380D01*
X173410761Y-24074380D02*
X173410761Y-23074380D01*
X173315523Y-23217238D01*
X173220285Y-23312476D01*
X173125047Y-23360095D01*
X174648857Y-24074380D02*
X174077428Y-24074380D01*
X174363142Y-24074380D02*
X174363142Y-23074380D01*
X174267904Y-23217238D01*
X174172666Y-23312476D01*
X174077428Y-23360095D01*
G04 #@! TO.C,H6*
X105918095Y-101132380D02*
X105918095Y-100132380D01*
X105918095Y-100608571D02*
X106489523Y-100608571D01*
X106489523Y-101132380D02*
X106489523Y-100132380D01*
X107394285Y-100132380D02*
X107203809Y-100132380D01*
X107108571Y-100180000D01*
X107060952Y-100227619D01*
X106965714Y-100370476D01*
X106918095Y-100560952D01*
X106918095Y-100941904D01*
X106965714Y-101037142D01*
X107013333Y-101084761D01*
X107108571Y-101132380D01*
X107299047Y-101132380D01*
X107394285Y-101084761D01*
X107441904Y-101037142D01*
X107489523Y-100941904D01*
X107489523Y-100703809D01*
X107441904Y-100608571D01*
X107394285Y-100560952D01*
X107299047Y-100513333D01*
X107108571Y-100513333D01*
X107013333Y-100560952D01*
X106965714Y-100608571D01*
X106918095Y-100703809D01*
G04 #@! TO.C,H5*
X194818095Y-101132380D02*
X194818095Y-100132380D01*
X194818095Y-100608571D02*
X195389523Y-100608571D01*
X195389523Y-101132380D02*
X195389523Y-100132380D01*
X196341904Y-100132380D02*
X195865714Y-100132380D01*
X195818095Y-100608571D01*
X195865714Y-100560952D01*
X195960952Y-100513333D01*
X196199047Y-100513333D01*
X196294285Y-100560952D01*
X196341904Y-100608571D01*
X196389523Y-100703809D01*
X196389523Y-100941904D01*
X196341904Y-101037142D01*
X196294285Y-101084761D01*
X196199047Y-101132380D01*
X195960952Y-101132380D01*
X195865714Y-101084761D01*
X195818095Y-101037142D01*
G04 #@! TO.C,H2*
X194818095Y-12232380D02*
X194818095Y-11232380D01*
X194818095Y-11708571D02*
X195389523Y-11708571D01*
X195389523Y-12232380D02*
X195389523Y-11232380D01*
X195818095Y-11327619D02*
X195865714Y-11280000D01*
X195960952Y-11232380D01*
X196199047Y-11232380D01*
X196294285Y-11280000D01*
X196341904Y-11327619D01*
X196389523Y-11422857D01*
X196389523Y-11518095D01*
X196341904Y-11660952D01*
X195770476Y-12232380D01*
X196389523Y-12232380D01*
G04 #@! TO.C,H1*
X105918095Y-12232380D02*
X105918095Y-11232380D01*
X105918095Y-11708571D02*
X106489523Y-11708571D01*
X106489523Y-12232380D02*
X106489523Y-11232380D01*
X107489523Y-12232380D02*
X106918095Y-12232380D01*
X107203809Y-12232380D02*
X107203809Y-11232380D01*
X107108571Y-11375238D01*
X107013333Y-11470476D01*
X106918095Y-11518095D01*
G04 #@! TO.C,LCD1*
X123801333Y-62682380D02*
X123325142Y-62682380D01*
X123325142Y-61682380D01*
X124706095Y-62587142D02*
X124658476Y-62634761D01*
X124515619Y-62682380D01*
X124420380Y-62682380D01*
X124277523Y-62634761D01*
X124182285Y-62539523D01*
X124134666Y-62444285D01*
X124087047Y-62253809D01*
X124087047Y-62110952D01*
X124134666Y-61920476D01*
X124182285Y-61825238D01*
X124277523Y-61730000D01*
X124420380Y-61682380D01*
X124515619Y-61682380D01*
X124658476Y-61730000D01*
X124706095Y-61777619D01*
X125134666Y-62682380D02*
X125134666Y-61682380D01*
X125372761Y-61682380D01*
X125515619Y-61730000D01*
X125610857Y-61825238D01*
X125658476Y-61920476D01*
X125706095Y-62110952D01*
X125706095Y-62253809D01*
X125658476Y-62444285D01*
X125610857Y-62539523D01*
X125515619Y-62634761D01*
X125372761Y-62682380D01*
X125134666Y-62682380D01*
X126658476Y-62682380D02*
X126087047Y-62682380D01*
X126372761Y-62682380D02*
X126372761Y-61682380D01*
X126277523Y-61825238D01*
X126182285Y-61920476D01*
X126087047Y-61968095D01*
G04 #@! TO.C,SW4*
X118494666Y-90574761D02*
X118637523Y-90622380D01*
X118875619Y-90622380D01*
X118970857Y-90574761D01*
X119018476Y-90527142D01*
X119066095Y-90431904D01*
X119066095Y-90336666D01*
X119018476Y-90241428D01*
X118970857Y-90193809D01*
X118875619Y-90146190D01*
X118685142Y-90098571D01*
X118589904Y-90050952D01*
X118542285Y-90003333D01*
X118494666Y-89908095D01*
X118494666Y-89812857D01*
X118542285Y-89717619D01*
X118589904Y-89670000D01*
X118685142Y-89622380D01*
X118923238Y-89622380D01*
X119066095Y-89670000D01*
X119399428Y-89622380D02*
X119637523Y-90622380D01*
X119828000Y-89908095D01*
X120018476Y-90622380D01*
X120256571Y-89622380D01*
X121066095Y-89955714D02*
X121066095Y-90622380D01*
X120828000Y-89574761D02*
X120589904Y-90289047D01*
X121208952Y-90289047D01*
G04 #@! TO.C,J1*
X178394273Y-30858208D02*
X179108559Y-30858208D01*
X179251416Y-30905827D01*
X179346654Y-31001065D01*
X179394273Y-31143922D01*
X179394273Y-31239160D01*
X179394273Y-29858208D02*
X179394273Y-30429636D01*
X179394273Y-30143922D02*
X178394273Y-30143922D01*
X178537131Y-30239160D01*
X178632369Y-30334398D01*
X178679988Y-30429636D01*
G04 #@! TO.C,J4*
X173528559Y-17755420D02*
X173528559Y-18469706D01*
X173480940Y-18612563D01*
X173385702Y-18707801D01*
X173242845Y-18755420D01*
X173147607Y-18755420D01*
X174433321Y-18088754D02*
X174433321Y-18755420D01*
X174195226Y-17707801D02*
X173957131Y-18422087D01*
X174576178Y-18422087D01*
G04 #@! TO.C,J6*
X173528559Y-22835420D02*
X173528559Y-23549706D01*
X173480940Y-23692563D01*
X173385702Y-23787801D01*
X173242845Y-23835420D01*
X173147607Y-23835420D01*
X174433321Y-22835420D02*
X174242845Y-22835420D01*
X174147607Y-22883040D01*
X174099988Y-22930659D01*
X174004750Y-23073516D01*
X173957131Y-23263992D01*
X173957131Y-23644944D01*
X174004750Y-23740182D01*
X174052369Y-23787801D01*
X174147607Y-23835420D01*
X174338083Y-23835420D01*
X174433321Y-23787801D01*
X174480940Y-23740182D01*
X174528559Y-23644944D01*
X174528559Y-23406849D01*
X174480940Y-23311611D01*
X174433321Y-23263992D01*
X174338083Y-23216373D01*
X174147607Y-23216373D01*
X174052369Y-23263992D01*
X174004750Y-23311611D01*
X173957131Y-23406849D01*
G04 #@! TO.C,J8*
X142647182Y-20156726D02*
X142647182Y-20871012D01*
X142599563Y-21013869D01*
X142504325Y-21109107D01*
X142361468Y-21156726D01*
X142266230Y-21156726D01*
X143266230Y-20585298D02*
X143170992Y-20537679D01*
X143123373Y-20490060D01*
X143075754Y-20394822D01*
X143075754Y-20347203D01*
X143123373Y-20251965D01*
X143170992Y-20204346D01*
X143266230Y-20156726D01*
X143456706Y-20156726D01*
X143551944Y-20204346D01*
X143599563Y-20251965D01*
X143647182Y-20347203D01*
X143647182Y-20394822D01*
X143599563Y-20490060D01*
X143551944Y-20537679D01*
X143456706Y-20585298D01*
X143266230Y-20585298D01*
X143170992Y-20632917D01*
X143123373Y-20680536D01*
X143075754Y-20775774D01*
X143075754Y-20966250D01*
X143123373Y-21061488D01*
X143170992Y-21109107D01*
X143266230Y-21156726D01*
X143456706Y-21156726D01*
X143551944Y-21109107D01*
X143599563Y-21061488D01*
X143647182Y-20966250D01*
X143647182Y-20775774D01*
X143599563Y-20680536D01*
X143551944Y-20632917D01*
X143456706Y-20585298D01*
G04 #@! TO.C,J9*
X142647182Y-17616726D02*
X142647182Y-18331012D01*
X142599563Y-18473869D01*
X142504325Y-18569107D01*
X142361468Y-18616726D01*
X142266230Y-18616726D01*
X143170992Y-18616726D02*
X143361468Y-18616726D01*
X143456706Y-18569107D01*
X143504325Y-18521488D01*
X143599563Y-18378631D01*
X143647182Y-18188155D01*
X143647182Y-17807203D01*
X143599563Y-17711965D01*
X143551944Y-17664346D01*
X143456706Y-17616726D01*
X143266230Y-17616726D01*
X143170992Y-17664346D01*
X143123373Y-17711965D01*
X143075754Y-17807203D01*
X143075754Y-18045298D01*
X143123373Y-18140536D01*
X143170992Y-18188155D01*
X143266230Y-18235774D01*
X143456706Y-18235774D01*
X143551944Y-18188155D01*
X143599563Y-18140536D01*
X143647182Y-18045298D01*
G04 #@! TO.C,J7*
X142647182Y-22696726D02*
X142647182Y-23411012D01*
X142599563Y-23553869D01*
X142504325Y-23649107D01*
X142361468Y-23696726D01*
X142266230Y-23696726D01*
X143028135Y-22696726D02*
X143694801Y-22696726D01*
X143266230Y-23696726D01*
G04 #@! TO.C,J5*
X173528559Y-20295420D02*
X173528559Y-21009706D01*
X173480940Y-21152563D01*
X173385702Y-21247801D01*
X173242845Y-21295420D01*
X173147607Y-21295420D01*
X174480940Y-20295420D02*
X174004750Y-20295420D01*
X173957131Y-20771611D01*
X174004750Y-20723992D01*
X174099988Y-20676373D01*
X174338083Y-20676373D01*
X174433321Y-20723992D01*
X174480940Y-20771611D01*
X174528559Y-20866849D01*
X174528559Y-21104944D01*
X174480940Y-21200182D01*
X174433321Y-21247801D01*
X174338083Y-21295420D01*
X174099988Y-21295420D01*
X174004750Y-21247801D01*
X173957131Y-21200182D01*
G04 #@! TO.C,J2*
X178394273Y-56258208D02*
X179108559Y-56258208D01*
X179251416Y-56305827D01*
X179346654Y-56401065D01*
X179394273Y-56543922D01*
X179394273Y-56639160D01*
X178489512Y-55829636D02*
X178441893Y-55782017D01*
X178394273Y-55686779D01*
X178394273Y-55448684D01*
X178441893Y-55353446D01*
X178489512Y-55305827D01*
X178584750Y-55258208D01*
X178679988Y-55258208D01*
X178822845Y-55305827D01*
X179394273Y-55877255D01*
X179394273Y-55258208D01*
G04 #@! TO.C,J10*
X168242380Y-84725523D02*
X168956666Y-84725523D01*
X169099523Y-84773142D01*
X169194761Y-84868380D01*
X169242380Y-85011238D01*
X169242380Y-85106476D01*
X169242380Y-83725523D02*
X169242380Y-84296952D01*
X169242380Y-84011238D02*
X168242380Y-84011238D01*
X168385238Y-84106476D01*
X168480476Y-84201714D01*
X168528095Y-84296952D01*
X168242380Y-83106476D02*
X168242380Y-83011238D01*
X168290000Y-82916000D01*
X168337619Y-82868380D01*
X168432857Y-82820761D01*
X168623333Y-82773142D01*
X168861428Y-82773142D01*
X169051904Y-82820761D01*
X169147142Y-82868380D01*
X169194761Y-82916000D01*
X169242380Y-83011238D01*
X169242380Y-83106476D01*
X169194761Y-83201714D01*
X169147142Y-83249333D01*
X169051904Y-83296952D01*
X168861428Y-83344571D01*
X168623333Y-83344571D01*
X168432857Y-83296952D01*
X168337619Y-83249333D01*
X168290000Y-83201714D01*
X168242380Y-83106476D01*
G04 #@! TO.C,C8*
X176633142Y-63412666D02*
X176680761Y-63460285D01*
X176728380Y-63603142D01*
X176728380Y-63698380D01*
X176680761Y-63841238D01*
X176585523Y-63936476D01*
X176490285Y-63984095D01*
X176299809Y-64031714D01*
X176156952Y-64031714D01*
X175966476Y-63984095D01*
X175871238Y-63936476D01*
X175776000Y-63841238D01*
X175728380Y-63698380D01*
X175728380Y-63603142D01*
X175776000Y-63460285D01*
X175823619Y-63412666D01*
X176156952Y-62841238D02*
X176109333Y-62936476D01*
X176061714Y-62984095D01*
X175966476Y-63031714D01*
X175918857Y-63031714D01*
X175823619Y-62984095D01*
X175776000Y-62936476D01*
X175728380Y-62841238D01*
X175728380Y-62650761D01*
X175776000Y-62555523D01*
X175823619Y-62507904D01*
X175918857Y-62460285D01*
X175966476Y-62460285D01*
X176061714Y-62507904D01*
X176109333Y-62555523D01*
X176156952Y-62650761D01*
X176156952Y-62841238D01*
X176204571Y-62936476D01*
X176252190Y-62984095D01*
X176347428Y-63031714D01*
X176537904Y-63031714D01*
X176633142Y-62984095D01*
X176680761Y-62936476D01*
X176728380Y-62841238D01*
X176728380Y-62650761D01*
X176680761Y-62555523D01*
X176633142Y-62507904D01*
X176537904Y-62460285D01*
X176347428Y-62460285D01*
X176252190Y-62507904D01*
X176204571Y-62555523D01*
X176156952Y-62650761D01*
G04 #@! TO.C,R4*
X174950380Y-63412666D02*
X174474190Y-63746000D01*
X174950380Y-63984095D02*
X173950380Y-63984095D01*
X173950380Y-63603142D01*
X173998000Y-63507904D01*
X174045619Y-63460285D01*
X174140857Y-63412666D01*
X174283714Y-63412666D01*
X174378952Y-63460285D01*
X174426571Y-63507904D01*
X174474190Y-63603142D01*
X174474190Y-63984095D01*
X174283714Y-62555523D02*
X174950380Y-62555523D01*
X173902761Y-62793619D02*
X174617047Y-63031714D01*
X174617047Y-62412666D01*
G04 #@! TO.C,SW5*
X117852666Y-84161261D02*
X117995523Y-84208880D01*
X118233619Y-84208880D01*
X118328857Y-84161261D01*
X118376476Y-84113642D01*
X118424095Y-84018404D01*
X118424095Y-83923166D01*
X118376476Y-83827928D01*
X118328857Y-83780309D01*
X118233619Y-83732690D01*
X118043142Y-83685071D01*
X117947904Y-83637452D01*
X117900285Y-83589833D01*
X117852666Y-83494595D01*
X117852666Y-83399357D01*
X117900285Y-83304119D01*
X117947904Y-83256500D01*
X118043142Y-83208880D01*
X118281238Y-83208880D01*
X118424095Y-83256500D01*
X118757428Y-83208880D02*
X118995523Y-84208880D01*
X119186000Y-83494595D01*
X119376476Y-84208880D01*
X119614571Y-83208880D01*
X120471714Y-83208880D02*
X119995523Y-83208880D01*
X119947904Y-83685071D01*
X119995523Y-83637452D01*
X120090761Y-83589833D01*
X120328857Y-83589833D01*
X120424095Y-83637452D01*
X120471714Y-83685071D01*
X120519333Y-83780309D01*
X120519333Y-84018404D01*
X120471714Y-84113642D01*
X120424095Y-84161261D01*
X120328857Y-84208880D01*
X120090761Y-84208880D01*
X119995523Y-84161261D01*
X119947904Y-84113642D01*
G04 #@! TO.C,SW2*
X111636666Y-84224761D02*
X111779523Y-84272380D01*
X112017619Y-84272380D01*
X112112857Y-84224761D01*
X112160476Y-84177142D01*
X112208095Y-84081904D01*
X112208095Y-83986666D01*
X112160476Y-83891428D01*
X112112857Y-83843809D01*
X112017619Y-83796190D01*
X111827142Y-83748571D01*
X111731904Y-83700952D01*
X111684285Y-83653333D01*
X111636666Y-83558095D01*
X111636666Y-83462857D01*
X111684285Y-83367619D01*
X111731904Y-83320000D01*
X111827142Y-83272380D01*
X112065238Y-83272380D01*
X112208095Y-83320000D01*
X112541428Y-83272380D02*
X112779523Y-84272380D01*
X112970000Y-83558095D01*
X113160476Y-84272380D01*
X113398571Y-83272380D01*
X113731904Y-83367619D02*
X113779523Y-83320000D01*
X113874761Y-83272380D01*
X114112857Y-83272380D01*
X114208095Y-83320000D01*
X114255714Y-83367619D01*
X114303333Y-83462857D01*
X114303333Y-83558095D01*
X114255714Y-83700952D01*
X113684285Y-84272380D01*
X114303333Y-84272380D01*
G04 #@! TO.C,SW1*
X110994666Y-77874761D02*
X111137523Y-77922380D01*
X111375619Y-77922380D01*
X111470857Y-77874761D01*
X111518476Y-77827142D01*
X111566095Y-77731904D01*
X111566095Y-77636666D01*
X111518476Y-77541428D01*
X111470857Y-77493809D01*
X111375619Y-77446190D01*
X111185142Y-77398571D01*
X111089904Y-77350952D01*
X111042285Y-77303333D01*
X110994666Y-77208095D01*
X110994666Y-77112857D01*
X111042285Y-77017619D01*
X111089904Y-76970000D01*
X111185142Y-76922380D01*
X111423238Y-76922380D01*
X111566095Y-76970000D01*
X111899428Y-76922380D02*
X112137523Y-77922380D01*
X112328000Y-77208095D01*
X112518476Y-77922380D01*
X112756571Y-76922380D01*
X113661333Y-77922380D02*
X113089904Y-77922380D01*
X113375619Y-77922380D02*
X113375619Y-76922380D01*
X113280380Y-77065238D01*
X113185142Y-77160476D01*
X113089904Y-77208095D01*
G04 #@! TD*
M02*
