G04 #@! TF.GenerationSoftware,KiCad,Pcbnew,(5.0.1)-3*
G04 #@! TF.CreationDate,2018-10-31T18:48:16+09:00*
G04 #@! TF.ProjectId,badge,62616467652E6B696361645F70636200,rev?*
G04 #@! TF.SameCoordinates,Original*
G04 #@! TF.FileFunction,Soldermask,Top*
G04 #@! TF.FilePolarity,Negative*
%FSLAX46Y46*%
G04 Gerber Fmt 4.6, Leading zero omitted, Abs format (unit mm)*
G04 Created by KiCad (PCBNEW (5.0.1)-3) date 2018-10-31 오후 6:48:16*
%MOMM*%
%LPD*%
G01*
G04 APERTURE LIST*
%ADD10C,0.100000*%
G04 APERTURE END LIST*
D10*
G36*
X196469941Y-103746248D02*
X196469943Y-103746249D01*
X196469944Y-103746249D01*
X197025190Y-103976239D01*
X197025191Y-103976240D01*
X197524902Y-104310136D01*
X197949864Y-104735098D01*
X197949866Y-104735101D01*
X198283761Y-105234810D01*
X198513751Y-105790056D01*
X198631000Y-106379503D01*
X198631000Y-106980497D01*
X198513751Y-107569944D01*
X198283761Y-108125190D01*
X198283760Y-108125191D01*
X197949864Y-108624902D01*
X197524902Y-109049864D01*
X197524899Y-109049866D01*
X197025190Y-109383761D01*
X196469944Y-109613751D01*
X196469943Y-109613751D01*
X196469941Y-109613752D01*
X195880499Y-109731000D01*
X195279501Y-109731000D01*
X194690059Y-109613752D01*
X194690057Y-109613751D01*
X194690056Y-109613751D01*
X194134810Y-109383761D01*
X193635101Y-109049866D01*
X193635098Y-109049864D01*
X193210136Y-108624902D01*
X192876240Y-108125191D01*
X192876239Y-108125190D01*
X192646249Y-107569944D01*
X192529000Y-106980497D01*
X192529000Y-106379503D01*
X192646249Y-105790056D01*
X192876239Y-105234810D01*
X193210134Y-104735101D01*
X193210136Y-104735098D01*
X193635098Y-104310136D01*
X194134809Y-103976240D01*
X194134810Y-103976239D01*
X194690056Y-103746249D01*
X194690057Y-103746249D01*
X194690059Y-103746248D01*
X195279501Y-103629000D01*
X195880499Y-103629000D01*
X196469941Y-103746248D01*
X196469941Y-103746248D01*
G37*
G36*
X107569941Y-103746248D02*
X107569943Y-103746249D01*
X107569944Y-103746249D01*
X108125190Y-103976239D01*
X108125191Y-103976240D01*
X108624902Y-104310136D01*
X109049864Y-104735098D01*
X109049866Y-104735101D01*
X109383761Y-105234810D01*
X109613751Y-105790056D01*
X109731000Y-106379503D01*
X109731000Y-106980497D01*
X109613751Y-107569944D01*
X109383761Y-108125190D01*
X109383760Y-108125191D01*
X109049864Y-108624902D01*
X108624902Y-109049864D01*
X108624899Y-109049866D01*
X108125190Y-109383761D01*
X107569944Y-109613751D01*
X107569943Y-109613751D01*
X107569941Y-109613752D01*
X106980499Y-109731000D01*
X106379501Y-109731000D01*
X105790059Y-109613752D01*
X105790057Y-109613751D01*
X105790056Y-109613751D01*
X105234810Y-109383761D01*
X104735101Y-109049866D01*
X104735098Y-109049864D01*
X104310136Y-108624902D01*
X103976240Y-108125191D01*
X103976239Y-108125190D01*
X103746249Y-107569944D01*
X103629000Y-106980497D01*
X103629000Y-106379503D01*
X103746249Y-105790056D01*
X103976239Y-105234810D01*
X104310134Y-104735101D01*
X104310136Y-104735098D01*
X104735098Y-104310136D01*
X105234809Y-103976240D01*
X105234810Y-103976239D01*
X105790056Y-103746249D01*
X105790057Y-103746249D01*
X105790059Y-103746248D01*
X106379501Y-103629000D01*
X106980499Y-103629000D01*
X107569941Y-103746248D01*
X107569941Y-103746248D01*
G37*
G36*
X114729000Y-94221000D02*
X113627000Y-94221000D01*
X113627000Y-92419000D01*
X114729000Y-92419000D01*
X114729000Y-94221000D01*
X114729000Y-94221000D01*
G37*
G36*
X118529000Y-94221000D02*
X117427000Y-94221000D01*
X117427000Y-92419000D01*
X118529000Y-92419000D01*
X118529000Y-94221000D01*
X118529000Y-94221000D01*
G37*
G36*
X190929000Y-91935000D02*
X189827000Y-91935000D01*
X189827000Y-90133000D01*
X190929000Y-90133000D01*
X190929000Y-91935000D01*
X190929000Y-91935000D01*
G37*
G36*
X194729000Y-91935000D02*
X193627000Y-91935000D01*
X193627000Y-90133000D01*
X194729000Y-90133000D01*
X194729000Y-91935000D01*
X194729000Y-91935000D01*
G37*
G36*
X172430048Y-76601284D02*
X172446446Y-76606258D01*
X172461552Y-76614333D01*
X172474797Y-76625203D01*
X172485667Y-76638448D01*
X172493742Y-76653554D01*
X172498716Y-76669952D01*
X172501000Y-76693141D01*
X172501000Y-77106859D01*
X172498716Y-77130048D01*
X172493742Y-77146446D01*
X172485667Y-77161552D01*
X172474797Y-77174797D01*
X172461552Y-77185667D01*
X172453895Y-77189760D01*
X172433521Y-77203374D01*
X172416194Y-77220701D01*
X172402580Y-77241075D01*
X172393202Y-77263714D01*
X172388422Y-77287748D01*
X172388422Y-77312252D01*
X172393202Y-77336286D01*
X172402580Y-77358925D01*
X172416194Y-77379299D01*
X172433521Y-77396626D01*
X172453895Y-77410240D01*
X172461552Y-77414333D01*
X172474797Y-77425203D01*
X172485667Y-77438448D01*
X172493742Y-77453554D01*
X172498716Y-77469952D01*
X172501000Y-77493141D01*
X172501000Y-77906859D01*
X172498716Y-77930048D01*
X172493742Y-77946446D01*
X172485667Y-77961552D01*
X172474797Y-77974797D01*
X172461552Y-77985667D01*
X172453895Y-77989760D01*
X172433521Y-78003374D01*
X172416194Y-78020701D01*
X172402580Y-78041075D01*
X172393202Y-78063714D01*
X172388422Y-78087748D01*
X172388422Y-78112252D01*
X172393202Y-78136286D01*
X172402580Y-78158925D01*
X172416194Y-78179299D01*
X172433521Y-78196626D01*
X172453895Y-78210240D01*
X172461552Y-78214333D01*
X172474797Y-78225203D01*
X172485667Y-78238448D01*
X172493742Y-78253554D01*
X172498716Y-78269952D01*
X172501000Y-78293141D01*
X172501000Y-78706859D01*
X172498716Y-78730048D01*
X172493742Y-78746446D01*
X172485667Y-78761552D01*
X172474797Y-78774797D01*
X172461552Y-78785667D01*
X172453895Y-78789760D01*
X172433521Y-78803374D01*
X172416194Y-78820701D01*
X172402580Y-78841075D01*
X172393202Y-78863714D01*
X172388422Y-78887748D01*
X172388422Y-78912252D01*
X172393202Y-78936286D01*
X172402580Y-78958925D01*
X172416194Y-78979299D01*
X172433521Y-78996626D01*
X172453895Y-79010240D01*
X172461552Y-79014333D01*
X172474797Y-79025203D01*
X172485667Y-79038448D01*
X172493742Y-79053554D01*
X172498716Y-79069952D01*
X172501000Y-79093141D01*
X172501000Y-79506859D01*
X172498716Y-79530048D01*
X172493742Y-79546446D01*
X172485667Y-79561552D01*
X172474797Y-79574797D01*
X172461552Y-79585667D01*
X172453895Y-79589760D01*
X172433521Y-79603374D01*
X172416194Y-79620701D01*
X172402580Y-79641075D01*
X172393202Y-79663714D01*
X172388422Y-79687748D01*
X172388422Y-79712252D01*
X172393202Y-79736286D01*
X172402580Y-79758925D01*
X172416194Y-79779299D01*
X172433521Y-79796626D01*
X172453895Y-79810240D01*
X172461552Y-79814333D01*
X172474797Y-79825203D01*
X172485667Y-79838448D01*
X172493742Y-79853554D01*
X172498716Y-79869952D01*
X172501000Y-79893141D01*
X172501000Y-80306859D01*
X172498716Y-80330048D01*
X172493742Y-80346446D01*
X172485667Y-80361552D01*
X172474797Y-80374797D01*
X172461552Y-80385667D01*
X172453895Y-80389760D01*
X172433521Y-80403374D01*
X172416194Y-80420701D01*
X172402580Y-80441075D01*
X172393202Y-80463714D01*
X172388422Y-80487748D01*
X172388422Y-80512252D01*
X172393202Y-80536286D01*
X172402580Y-80558925D01*
X172416194Y-80579299D01*
X172433521Y-80596626D01*
X172453895Y-80610240D01*
X172461552Y-80614333D01*
X172474797Y-80625203D01*
X172485667Y-80638448D01*
X172493742Y-80653554D01*
X172498716Y-80669952D01*
X172501000Y-80693141D01*
X172501000Y-81106859D01*
X172498716Y-81130048D01*
X172493742Y-81146446D01*
X172485667Y-81161552D01*
X172474797Y-81174797D01*
X172461552Y-81185667D01*
X172453895Y-81189760D01*
X172433521Y-81203374D01*
X172416194Y-81220701D01*
X172402580Y-81241075D01*
X172393202Y-81263714D01*
X172388422Y-81287748D01*
X172388422Y-81312252D01*
X172393202Y-81336286D01*
X172402580Y-81358925D01*
X172416194Y-81379299D01*
X172433521Y-81396626D01*
X172453895Y-81410240D01*
X172461552Y-81414333D01*
X172474797Y-81425203D01*
X172485667Y-81438448D01*
X172493742Y-81453554D01*
X172498716Y-81469952D01*
X172501000Y-81493141D01*
X172501000Y-81906859D01*
X172498716Y-81930048D01*
X172493742Y-81946446D01*
X172485667Y-81961552D01*
X172474797Y-81974797D01*
X172461552Y-81985667D01*
X172453895Y-81989760D01*
X172433521Y-82003374D01*
X172416194Y-82020701D01*
X172402580Y-82041075D01*
X172393202Y-82063714D01*
X172388422Y-82087748D01*
X172388422Y-82112252D01*
X172393202Y-82136286D01*
X172402580Y-82158925D01*
X172416194Y-82179299D01*
X172433521Y-82196626D01*
X172453895Y-82210240D01*
X172461552Y-82214333D01*
X172474797Y-82225203D01*
X172485667Y-82238448D01*
X172493742Y-82253554D01*
X172498716Y-82269952D01*
X172501000Y-82293141D01*
X172501000Y-82706859D01*
X172498716Y-82730048D01*
X172493742Y-82746446D01*
X172485667Y-82761552D01*
X172474797Y-82774797D01*
X172461552Y-82785667D01*
X172453895Y-82789760D01*
X172433521Y-82803374D01*
X172416194Y-82820701D01*
X172402580Y-82841075D01*
X172393202Y-82863714D01*
X172388422Y-82887748D01*
X172388422Y-82912252D01*
X172393202Y-82936286D01*
X172402580Y-82958925D01*
X172416194Y-82979299D01*
X172433521Y-82996626D01*
X172453895Y-83010240D01*
X172461552Y-83014333D01*
X172474797Y-83025203D01*
X172485667Y-83038448D01*
X172493742Y-83053554D01*
X172498716Y-83069952D01*
X172501000Y-83093141D01*
X172501000Y-83506859D01*
X172498716Y-83530048D01*
X172493742Y-83546446D01*
X172485667Y-83561552D01*
X172474797Y-83574797D01*
X172461552Y-83585667D01*
X172453895Y-83589760D01*
X172433521Y-83603374D01*
X172416194Y-83620701D01*
X172402580Y-83641075D01*
X172393202Y-83663714D01*
X172388422Y-83687748D01*
X172388422Y-83712252D01*
X172393202Y-83736286D01*
X172402580Y-83758925D01*
X172416194Y-83779299D01*
X172433521Y-83796626D01*
X172453895Y-83810240D01*
X172461552Y-83814333D01*
X172474797Y-83825203D01*
X172485667Y-83838448D01*
X172493742Y-83853554D01*
X172498716Y-83869952D01*
X172501000Y-83893141D01*
X172501000Y-84306859D01*
X172498716Y-84330048D01*
X172493742Y-84346446D01*
X172485667Y-84361552D01*
X172474797Y-84374797D01*
X172461552Y-84385667D01*
X172453895Y-84389760D01*
X172433521Y-84403374D01*
X172416194Y-84420701D01*
X172402580Y-84441075D01*
X172393202Y-84463714D01*
X172388422Y-84487748D01*
X172388422Y-84512252D01*
X172393202Y-84536286D01*
X172402580Y-84558925D01*
X172416194Y-84579299D01*
X172433521Y-84596626D01*
X172453895Y-84610240D01*
X172461552Y-84614333D01*
X172474797Y-84625203D01*
X172485667Y-84638448D01*
X172493742Y-84653554D01*
X172498716Y-84669952D01*
X172501000Y-84693141D01*
X172501000Y-85106859D01*
X172498716Y-85130048D01*
X172493742Y-85146446D01*
X172485667Y-85161552D01*
X172474797Y-85174797D01*
X172461552Y-85185667D01*
X172453895Y-85189760D01*
X172433521Y-85203374D01*
X172416194Y-85220701D01*
X172402580Y-85241075D01*
X172393202Y-85263714D01*
X172388422Y-85287748D01*
X172388422Y-85312252D01*
X172393202Y-85336286D01*
X172402580Y-85358925D01*
X172416194Y-85379299D01*
X172433521Y-85396626D01*
X172453895Y-85410240D01*
X172461552Y-85414333D01*
X172474797Y-85425203D01*
X172485667Y-85438448D01*
X172493742Y-85453554D01*
X172498716Y-85469952D01*
X172501000Y-85493141D01*
X172501000Y-85906859D01*
X172498716Y-85930048D01*
X172493742Y-85946446D01*
X172485667Y-85961552D01*
X172474797Y-85974797D01*
X172461552Y-85985667D01*
X172453895Y-85989760D01*
X172433521Y-86003374D01*
X172416194Y-86020701D01*
X172402580Y-86041075D01*
X172393202Y-86063714D01*
X172388422Y-86087748D01*
X172388422Y-86112252D01*
X172393202Y-86136286D01*
X172402580Y-86158925D01*
X172416194Y-86179299D01*
X172433521Y-86196626D01*
X172453895Y-86210240D01*
X172461552Y-86214333D01*
X172474797Y-86225203D01*
X172485667Y-86238448D01*
X172493742Y-86253554D01*
X172498716Y-86269952D01*
X172501000Y-86293141D01*
X172501000Y-86706859D01*
X172498716Y-86730048D01*
X172493742Y-86746446D01*
X172485667Y-86761552D01*
X172474797Y-86774797D01*
X172461552Y-86785667D01*
X172453895Y-86789760D01*
X172433521Y-86803374D01*
X172416194Y-86820701D01*
X172402580Y-86841075D01*
X172393202Y-86863714D01*
X172388422Y-86887748D01*
X172388422Y-86912252D01*
X172393202Y-86936286D01*
X172402580Y-86958925D01*
X172416194Y-86979299D01*
X172433521Y-86996626D01*
X172453895Y-87010240D01*
X172461552Y-87014333D01*
X172474797Y-87025203D01*
X172485667Y-87038448D01*
X172493742Y-87053554D01*
X172498716Y-87069952D01*
X172501000Y-87093141D01*
X172501000Y-87506859D01*
X172498716Y-87530048D01*
X172493742Y-87546446D01*
X172485667Y-87561552D01*
X172474797Y-87574797D01*
X172461552Y-87585667D01*
X172453895Y-87589760D01*
X172433521Y-87603374D01*
X172416194Y-87620701D01*
X172402580Y-87641075D01*
X172393202Y-87663714D01*
X172388422Y-87687748D01*
X172388422Y-87712252D01*
X172393202Y-87736286D01*
X172402580Y-87758925D01*
X172416194Y-87779299D01*
X172433521Y-87796626D01*
X172453895Y-87810240D01*
X172461552Y-87814333D01*
X172474797Y-87825203D01*
X172485667Y-87838448D01*
X172493742Y-87853554D01*
X172498716Y-87869952D01*
X172501000Y-87893141D01*
X172501000Y-88306859D01*
X172498716Y-88330048D01*
X172493742Y-88346446D01*
X172485667Y-88361552D01*
X172474797Y-88374797D01*
X172461552Y-88385667D01*
X172453895Y-88389760D01*
X172433521Y-88403374D01*
X172416194Y-88420701D01*
X172402580Y-88441075D01*
X172393202Y-88463714D01*
X172388422Y-88487748D01*
X172388422Y-88512252D01*
X172393202Y-88536286D01*
X172402580Y-88558925D01*
X172416194Y-88579299D01*
X172433521Y-88596626D01*
X172453895Y-88610240D01*
X172461552Y-88614333D01*
X172474797Y-88625203D01*
X172485667Y-88638448D01*
X172493742Y-88653554D01*
X172498716Y-88669952D01*
X172501000Y-88693141D01*
X172501000Y-89106859D01*
X172498716Y-89130048D01*
X172493742Y-89146446D01*
X172485667Y-89161552D01*
X172474797Y-89174797D01*
X172461552Y-89185667D01*
X172453895Y-89189760D01*
X172433521Y-89203374D01*
X172416194Y-89220701D01*
X172402580Y-89241075D01*
X172393202Y-89263714D01*
X172388422Y-89287748D01*
X172388422Y-89312252D01*
X172393202Y-89336286D01*
X172402580Y-89358925D01*
X172416194Y-89379299D01*
X172433521Y-89396626D01*
X172453895Y-89410240D01*
X172461552Y-89414333D01*
X172474797Y-89425203D01*
X172485667Y-89438448D01*
X172493742Y-89453554D01*
X172498716Y-89469952D01*
X172501000Y-89493141D01*
X172501000Y-89906859D01*
X172498716Y-89930048D01*
X172493742Y-89946446D01*
X172485667Y-89961552D01*
X172474797Y-89974797D01*
X172461552Y-89985667D01*
X172453895Y-89989760D01*
X172433521Y-90003374D01*
X172416194Y-90020701D01*
X172402580Y-90041075D01*
X172393202Y-90063714D01*
X172388422Y-90087748D01*
X172388422Y-90112252D01*
X172393202Y-90136286D01*
X172402580Y-90158925D01*
X172416194Y-90179299D01*
X172433521Y-90196626D01*
X172453895Y-90210240D01*
X172461552Y-90214333D01*
X172474797Y-90225203D01*
X172485667Y-90238448D01*
X172493742Y-90253554D01*
X172498716Y-90269952D01*
X172501000Y-90293141D01*
X172501000Y-90706859D01*
X172498716Y-90730048D01*
X172493742Y-90746446D01*
X172485667Y-90761552D01*
X172474797Y-90774797D01*
X172461552Y-90785667D01*
X172446446Y-90793742D01*
X172430048Y-90798716D01*
X172406859Y-90801000D01*
X170493141Y-90801000D01*
X170469952Y-90798716D01*
X170453554Y-90793742D01*
X170438448Y-90785667D01*
X170425203Y-90774797D01*
X170414333Y-90761552D01*
X170406258Y-90746446D01*
X170401284Y-90730048D01*
X170399000Y-90706859D01*
X170399000Y-90293141D01*
X170401284Y-90269952D01*
X170406258Y-90253554D01*
X170414333Y-90238448D01*
X170425203Y-90225203D01*
X170438448Y-90214333D01*
X170446105Y-90210240D01*
X170466479Y-90196626D01*
X170483806Y-90179299D01*
X170497420Y-90158925D01*
X170506798Y-90136286D01*
X170511578Y-90112252D01*
X170511578Y-90087748D01*
X170506798Y-90063714D01*
X170497420Y-90041075D01*
X170483806Y-90020701D01*
X170466479Y-90003374D01*
X170446105Y-89989760D01*
X170438448Y-89985667D01*
X170425203Y-89974797D01*
X170414333Y-89961552D01*
X170406258Y-89946446D01*
X170401284Y-89930048D01*
X170399000Y-89906859D01*
X170399000Y-89493141D01*
X170401284Y-89469952D01*
X170406258Y-89453554D01*
X170414333Y-89438448D01*
X170425203Y-89425203D01*
X170438448Y-89414333D01*
X170446105Y-89410240D01*
X170466479Y-89396626D01*
X170483806Y-89379299D01*
X170497420Y-89358925D01*
X170506798Y-89336286D01*
X170511578Y-89312252D01*
X170511578Y-89287748D01*
X170506798Y-89263714D01*
X170497420Y-89241075D01*
X170483806Y-89220701D01*
X170466479Y-89203374D01*
X170446105Y-89189760D01*
X170438448Y-89185667D01*
X170425203Y-89174797D01*
X170414333Y-89161552D01*
X170406258Y-89146446D01*
X170401284Y-89130048D01*
X170399000Y-89106859D01*
X170399000Y-88693141D01*
X170401284Y-88669952D01*
X170406258Y-88653554D01*
X170414333Y-88638448D01*
X170425203Y-88625203D01*
X170438448Y-88614333D01*
X170446105Y-88610240D01*
X170466479Y-88596626D01*
X170483806Y-88579299D01*
X170497420Y-88558925D01*
X170506798Y-88536286D01*
X170511578Y-88512252D01*
X170511578Y-88487748D01*
X170506798Y-88463714D01*
X170497420Y-88441075D01*
X170483806Y-88420701D01*
X170466479Y-88403374D01*
X170446105Y-88389760D01*
X170438448Y-88385667D01*
X170425203Y-88374797D01*
X170414333Y-88361552D01*
X170406258Y-88346446D01*
X170401284Y-88330048D01*
X170399000Y-88306859D01*
X170399000Y-87893141D01*
X170401284Y-87869952D01*
X170406258Y-87853554D01*
X170414333Y-87838448D01*
X170425203Y-87825203D01*
X170438448Y-87814333D01*
X170446105Y-87810240D01*
X170466479Y-87796626D01*
X170483806Y-87779299D01*
X170497420Y-87758925D01*
X170506798Y-87736286D01*
X170511578Y-87712252D01*
X170511578Y-87687748D01*
X170506798Y-87663714D01*
X170497420Y-87641075D01*
X170483806Y-87620701D01*
X170466479Y-87603374D01*
X170446105Y-87589760D01*
X170438448Y-87585667D01*
X170425203Y-87574797D01*
X170414333Y-87561552D01*
X170406258Y-87546446D01*
X170401284Y-87530048D01*
X170399000Y-87506859D01*
X170399000Y-87093141D01*
X170401284Y-87069952D01*
X170406258Y-87053554D01*
X170414333Y-87038448D01*
X170425203Y-87025203D01*
X170438448Y-87014333D01*
X170446105Y-87010240D01*
X170466479Y-86996626D01*
X170483806Y-86979299D01*
X170497420Y-86958925D01*
X170506798Y-86936286D01*
X170511578Y-86912252D01*
X170511578Y-86887748D01*
X170506798Y-86863714D01*
X170497420Y-86841075D01*
X170483806Y-86820701D01*
X170466479Y-86803374D01*
X170446105Y-86789760D01*
X170438448Y-86785667D01*
X170425203Y-86774797D01*
X170414333Y-86761552D01*
X170406258Y-86746446D01*
X170401284Y-86730048D01*
X170399000Y-86706859D01*
X170399000Y-86293141D01*
X170401284Y-86269952D01*
X170406258Y-86253554D01*
X170414333Y-86238448D01*
X170425203Y-86225203D01*
X170438448Y-86214333D01*
X170446105Y-86210240D01*
X170466479Y-86196626D01*
X170483806Y-86179299D01*
X170497420Y-86158925D01*
X170506798Y-86136286D01*
X170511578Y-86112252D01*
X170511578Y-86087748D01*
X170506798Y-86063714D01*
X170497420Y-86041075D01*
X170483806Y-86020701D01*
X170466479Y-86003374D01*
X170446105Y-85989760D01*
X170438448Y-85985667D01*
X170425203Y-85974797D01*
X170414333Y-85961552D01*
X170406258Y-85946446D01*
X170401284Y-85930048D01*
X170399000Y-85906859D01*
X170399000Y-85493141D01*
X170401284Y-85469952D01*
X170406258Y-85453554D01*
X170414333Y-85438448D01*
X170425203Y-85425203D01*
X170438448Y-85414333D01*
X170446105Y-85410240D01*
X170466479Y-85396626D01*
X170483806Y-85379299D01*
X170497420Y-85358925D01*
X170506798Y-85336286D01*
X170511578Y-85312252D01*
X170511578Y-85287748D01*
X170506798Y-85263714D01*
X170497420Y-85241075D01*
X170483806Y-85220701D01*
X170466479Y-85203374D01*
X170446105Y-85189760D01*
X170438448Y-85185667D01*
X170425203Y-85174797D01*
X170414333Y-85161552D01*
X170406258Y-85146446D01*
X170401284Y-85130048D01*
X170399000Y-85106859D01*
X170399000Y-84693141D01*
X170401284Y-84669952D01*
X170406258Y-84653554D01*
X170414333Y-84638448D01*
X170425203Y-84625203D01*
X170438448Y-84614333D01*
X170446105Y-84610240D01*
X170466479Y-84596626D01*
X170483806Y-84579299D01*
X170497420Y-84558925D01*
X170506798Y-84536286D01*
X170511578Y-84512252D01*
X170511578Y-84487748D01*
X170506798Y-84463714D01*
X170497420Y-84441075D01*
X170483806Y-84420701D01*
X170466479Y-84403374D01*
X170446105Y-84389760D01*
X170438448Y-84385667D01*
X170425203Y-84374797D01*
X170414333Y-84361552D01*
X170406258Y-84346446D01*
X170401284Y-84330048D01*
X170399000Y-84306859D01*
X170399000Y-83893141D01*
X170401284Y-83869952D01*
X170406258Y-83853554D01*
X170414333Y-83838448D01*
X170425203Y-83825203D01*
X170438448Y-83814333D01*
X170446105Y-83810240D01*
X170466479Y-83796626D01*
X170483806Y-83779299D01*
X170497420Y-83758925D01*
X170506798Y-83736286D01*
X170511578Y-83712252D01*
X170511578Y-83687748D01*
X170506798Y-83663714D01*
X170497420Y-83641075D01*
X170483806Y-83620701D01*
X170466479Y-83603374D01*
X170446105Y-83589760D01*
X170438448Y-83585667D01*
X170425203Y-83574797D01*
X170414333Y-83561552D01*
X170406258Y-83546446D01*
X170401284Y-83530048D01*
X170399000Y-83506859D01*
X170399000Y-83093141D01*
X170401284Y-83069952D01*
X170406258Y-83053554D01*
X170414333Y-83038448D01*
X170425203Y-83025203D01*
X170438448Y-83014333D01*
X170446105Y-83010240D01*
X170466479Y-82996626D01*
X170483806Y-82979299D01*
X170497420Y-82958925D01*
X170506798Y-82936286D01*
X170511578Y-82912252D01*
X170511578Y-82887748D01*
X170506798Y-82863714D01*
X170497420Y-82841075D01*
X170483806Y-82820701D01*
X170466479Y-82803374D01*
X170446105Y-82789760D01*
X170438448Y-82785667D01*
X170425203Y-82774797D01*
X170414333Y-82761552D01*
X170406258Y-82746446D01*
X170401284Y-82730048D01*
X170399000Y-82706859D01*
X170399000Y-82293141D01*
X170401284Y-82269952D01*
X170406258Y-82253554D01*
X170414333Y-82238448D01*
X170425203Y-82225203D01*
X170438448Y-82214333D01*
X170446105Y-82210240D01*
X170466479Y-82196626D01*
X170483806Y-82179299D01*
X170497420Y-82158925D01*
X170506798Y-82136286D01*
X170511578Y-82112252D01*
X170511578Y-82087748D01*
X170506798Y-82063714D01*
X170497420Y-82041075D01*
X170483806Y-82020701D01*
X170466479Y-82003374D01*
X170446105Y-81989760D01*
X170438448Y-81985667D01*
X170425203Y-81974797D01*
X170414333Y-81961552D01*
X170406258Y-81946446D01*
X170401284Y-81930048D01*
X170399000Y-81906859D01*
X170399000Y-81493141D01*
X170401284Y-81469952D01*
X170406258Y-81453554D01*
X170414333Y-81438448D01*
X170425203Y-81425203D01*
X170438448Y-81414333D01*
X170446105Y-81410240D01*
X170466479Y-81396626D01*
X170483806Y-81379299D01*
X170497420Y-81358925D01*
X170506798Y-81336286D01*
X170511578Y-81312252D01*
X170511578Y-81287748D01*
X170506798Y-81263714D01*
X170497420Y-81241075D01*
X170483806Y-81220701D01*
X170466479Y-81203374D01*
X170446105Y-81189760D01*
X170438448Y-81185667D01*
X170425203Y-81174797D01*
X170414333Y-81161552D01*
X170406258Y-81146446D01*
X170401284Y-81130048D01*
X170399000Y-81106859D01*
X170399000Y-80693141D01*
X170401284Y-80669952D01*
X170406258Y-80653554D01*
X170414333Y-80638448D01*
X170425203Y-80625203D01*
X170438448Y-80614333D01*
X170446105Y-80610240D01*
X170466479Y-80596626D01*
X170483806Y-80579299D01*
X170497420Y-80558925D01*
X170506798Y-80536286D01*
X170511578Y-80512252D01*
X170511578Y-80487748D01*
X170506798Y-80463714D01*
X170497420Y-80441075D01*
X170483806Y-80420701D01*
X170466479Y-80403374D01*
X170446105Y-80389760D01*
X170438448Y-80385667D01*
X170425203Y-80374797D01*
X170414333Y-80361552D01*
X170406258Y-80346446D01*
X170401284Y-80330048D01*
X170399000Y-80306859D01*
X170399000Y-79893141D01*
X170401284Y-79869952D01*
X170406258Y-79853554D01*
X170414333Y-79838448D01*
X170425203Y-79825203D01*
X170438448Y-79814333D01*
X170446105Y-79810240D01*
X170466479Y-79796626D01*
X170483806Y-79779299D01*
X170497420Y-79758925D01*
X170506798Y-79736286D01*
X170511578Y-79712252D01*
X170511578Y-79687748D01*
X170506798Y-79663714D01*
X170497420Y-79641075D01*
X170483806Y-79620701D01*
X170466479Y-79603374D01*
X170446105Y-79589760D01*
X170438448Y-79585667D01*
X170425203Y-79574797D01*
X170414333Y-79561552D01*
X170406258Y-79546446D01*
X170401284Y-79530048D01*
X170399000Y-79506859D01*
X170399000Y-79093141D01*
X170401284Y-79069952D01*
X170406258Y-79053554D01*
X170414333Y-79038448D01*
X170425203Y-79025203D01*
X170438448Y-79014333D01*
X170446105Y-79010240D01*
X170466479Y-78996626D01*
X170483806Y-78979299D01*
X170497420Y-78958925D01*
X170506798Y-78936286D01*
X170511578Y-78912252D01*
X170511578Y-78887748D01*
X170506798Y-78863714D01*
X170497420Y-78841075D01*
X170483806Y-78820701D01*
X170466479Y-78803374D01*
X170446105Y-78789760D01*
X170438448Y-78785667D01*
X170425203Y-78774797D01*
X170414333Y-78761552D01*
X170406258Y-78746446D01*
X170401284Y-78730048D01*
X170399000Y-78706859D01*
X170399000Y-78293141D01*
X170401284Y-78269952D01*
X170406258Y-78253554D01*
X170414333Y-78238448D01*
X170425203Y-78225203D01*
X170438448Y-78214333D01*
X170446105Y-78210240D01*
X170466479Y-78196626D01*
X170483806Y-78179299D01*
X170497420Y-78158925D01*
X170506798Y-78136286D01*
X170511578Y-78112252D01*
X170511578Y-78087748D01*
X170506798Y-78063714D01*
X170497420Y-78041075D01*
X170483806Y-78020701D01*
X170466479Y-78003374D01*
X170446105Y-77989760D01*
X170438448Y-77985667D01*
X170425203Y-77974797D01*
X170414333Y-77961552D01*
X170406258Y-77946446D01*
X170401284Y-77930048D01*
X170399000Y-77906859D01*
X170399000Y-77493141D01*
X170401284Y-77469952D01*
X170406258Y-77453554D01*
X170414333Y-77438448D01*
X170425203Y-77425203D01*
X170438448Y-77414333D01*
X170446105Y-77410240D01*
X170466479Y-77396626D01*
X170483806Y-77379299D01*
X170497420Y-77358925D01*
X170506798Y-77336286D01*
X170511578Y-77312252D01*
X170511578Y-77287748D01*
X170506798Y-77263714D01*
X170497420Y-77241075D01*
X170483806Y-77220701D01*
X170466479Y-77203374D01*
X170446105Y-77189760D01*
X170438448Y-77185667D01*
X170425203Y-77174797D01*
X170414333Y-77161552D01*
X170406258Y-77146446D01*
X170401284Y-77130048D01*
X170399000Y-77106859D01*
X170399000Y-76693141D01*
X170401284Y-76669952D01*
X170406258Y-76653554D01*
X170414333Y-76638448D01*
X170425203Y-76625203D01*
X170438448Y-76614333D01*
X170453554Y-76606258D01*
X170469952Y-76601284D01*
X170493141Y-76599000D01*
X172406859Y-76599000D01*
X172430048Y-76601284D01*
X172430048Y-76601284D01*
G37*
G36*
X114729000Y-87921000D02*
X113627000Y-87921000D01*
X113627000Y-86119000D01*
X114729000Y-86119000D01*
X114729000Y-87921000D01*
X114729000Y-87921000D01*
G37*
G36*
X118529000Y-87921000D02*
X117427000Y-87921000D01*
X117427000Y-86119000D01*
X118529000Y-86119000D01*
X118529000Y-87921000D01*
X118529000Y-87921000D01*
G37*
G36*
X107871000Y-87871000D02*
X106769000Y-87871000D01*
X106769000Y-86069000D01*
X107871000Y-86069000D01*
X107871000Y-87871000D01*
X107871000Y-87871000D01*
G37*
G36*
X111671000Y-87871000D02*
X110569000Y-87871000D01*
X110569000Y-86069000D01*
X111671000Y-86069000D01*
X111671000Y-87871000D01*
X111671000Y-87871000D01*
G37*
G36*
X121587000Y-87807500D02*
X120485000Y-87807500D01*
X120485000Y-86005500D01*
X121587000Y-86005500D01*
X121587000Y-87807500D01*
X121587000Y-87807500D01*
G37*
G36*
X125387000Y-87807500D02*
X124285000Y-87807500D01*
X124285000Y-86005500D01*
X125387000Y-86005500D01*
X125387000Y-87807500D01*
X125387000Y-87807500D01*
G37*
G36*
X190929000Y-85635000D02*
X189827000Y-85635000D01*
X189827000Y-83833000D01*
X190929000Y-83833000D01*
X190929000Y-85635000D01*
X190929000Y-85635000D01*
G37*
G36*
X194729000Y-85635000D02*
X193627000Y-85635000D01*
X193627000Y-83833000D01*
X194729000Y-83833000D01*
X194729000Y-85635000D01*
X194729000Y-85635000D01*
G37*
G36*
X198539000Y-82791000D02*
X197437000Y-82791000D01*
X197437000Y-80989000D01*
X198539000Y-80989000D01*
X198539000Y-82791000D01*
X198539000Y-82791000D01*
G37*
G36*
X194739000Y-82791000D02*
X193637000Y-82791000D01*
X193637000Y-80989000D01*
X194739000Y-80989000D01*
X194739000Y-82791000D01*
X194739000Y-82791000D01*
G37*
G36*
X111671000Y-81571000D02*
X110569000Y-81571000D01*
X110569000Y-79769000D01*
X111671000Y-79769000D01*
X111671000Y-81571000D01*
X111671000Y-81571000D01*
G37*
G36*
X107871000Y-81571000D02*
X106769000Y-81571000D01*
X106769000Y-79769000D01*
X107871000Y-79769000D01*
X107871000Y-81571000D01*
X107871000Y-81571000D01*
G37*
G36*
X114729000Y-81521000D02*
X113627000Y-81521000D01*
X113627000Y-79719000D01*
X114729000Y-79719000D01*
X114729000Y-81521000D01*
X114729000Y-81521000D01*
G37*
G36*
X118529000Y-81521000D02*
X117427000Y-81521000D01*
X117427000Y-79719000D01*
X118529000Y-79719000D01*
X118529000Y-81521000D01*
X118529000Y-81521000D01*
G37*
G36*
X125387000Y-81507500D02*
X124285000Y-81507500D01*
X124285000Y-79705500D01*
X125387000Y-79705500D01*
X125387000Y-81507500D01*
X125387000Y-81507500D01*
G37*
G36*
X121587000Y-81507500D02*
X120485000Y-81507500D01*
X120485000Y-79705500D01*
X121587000Y-79705500D01*
X121587000Y-81507500D01*
X121587000Y-81507500D01*
G37*
G36*
X198539000Y-76491000D02*
X197437000Y-76491000D01*
X197437000Y-74689000D01*
X198539000Y-74689000D01*
X198539000Y-76491000D01*
X198539000Y-76491000D01*
G37*
G36*
X194739000Y-76491000D02*
X193637000Y-76491000D01*
X193637000Y-74689000D01*
X194739000Y-74689000D01*
X194739000Y-76491000D01*
X194739000Y-76491000D01*
G37*
G36*
X118529000Y-75221000D02*
X117427000Y-75221000D01*
X117427000Y-73419000D01*
X118529000Y-73419000D01*
X118529000Y-75221000D01*
X118529000Y-75221000D01*
G37*
G36*
X114729000Y-75221000D02*
X113627000Y-75221000D01*
X113627000Y-73419000D01*
X114729000Y-73419000D01*
X114729000Y-75221000D01*
X114729000Y-75221000D01*
G37*
G36*
X123187000Y-66485000D02*
X121585000Y-66485000D01*
X121585000Y-64983000D01*
X123187000Y-64983000D01*
X123187000Y-66485000D01*
X123187000Y-66485000D01*
G37*
G36*
X111587000Y-66485000D02*
X109985000Y-66485000D01*
X109985000Y-64983000D01*
X111587000Y-64983000D01*
X111587000Y-66485000D01*
X111587000Y-66485000D01*
G37*
G36*
X114467552Y-64300331D02*
X114549625Y-64334327D01*
X114549626Y-64334328D01*
X114549629Y-64334329D01*
X114623496Y-64383686D01*
X114623500Y-64383689D01*
X114686311Y-64446500D01*
X114686313Y-64446503D01*
X114686314Y-64446504D01*
X114735671Y-64520371D01*
X114735672Y-64520374D01*
X114735673Y-64520375D01*
X114769669Y-64602448D01*
X114787000Y-64689579D01*
X114787000Y-64778421D01*
X114769669Y-64865552D01*
X114735673Y-64947625D01*
X114735671Y-64947629D01*
X114686314Y-65021496D01*
X114686311Y-65021500D01*
X114623500Y-65084311D01*
X114623497Y-65084313D01*
X114623496Y-65084314D01*
X114549629Y-65133671D01*
X114549626Y-65133672D01*
X114549625Y-65133673D01*
X114467552Y-65167669D01*
X114380421Y-65185000D01*
X114291579Y-65185000D01*
X114204448Y-65167669D01*
X114122375Y-65133673D01*
X114122374Y-65133672D01*
X114122371Y-65133671D01*
X114048504Y-65084314D01*
X114048503Y-65084313D01*
X114048500Y-65084311D01*
X113985689Y-65021500D01*
X113985686Y-65021496D01*
X113936329Y-64947629D01*
X113936327Y-64947625D01*
X113902331Y-64865552D01*
X113885000Y-64778421D01*
X113885000Y-64689579D01*
X113902331Y-64602448D01*
X113936327Y-64520375D01*
X113936328Y-64520374D01*
X113936329Y-64520371D01*
X113985686Y-64446504D01*
X113985687Y-64446503D01*
X113985689Y-64446500D01*
X114048500Y-64383689D01*
X114048504Y-64383686D01*
X114122371Y-64334329D01*
X114122374Y-64334328D01*
X114122375Y-64334327D01*
X114204448Y-64300331D01*
X114291579Y-64283000D01*
X114380421Y-64283000D01*
X114467552Y-64300331D01*
X114467552Y-64300331D01*
G37*
G36*
X118967552Y-64300331D02*
X119049625Y-64334327D01*
X119049626Y-64334328D01*
X119049629Y-64334329D01*
X119123496Y-64383686D01*
X119123500Y-64383689D01*
X119186311Y-64446500D01*
X119186313Y-64446503D01*
X119186314Y-64446504D01*
X119235671Y-64520371D01*
X119235672Y-64520374D01*
X119235673Y-64520375D01*
X119269669Y-64602448D01*
X119287000Y-64689579D01*
X119287000Y-64778421D01*
X119269669Y-64865552D01*
X119235673Y-64947625D01*
X119235671Y-64947629D01*
X119186314Y-65021496D01*
X119186311Y-65021500D01*
X119123500Y-65084311D01*
X119123497Y-65084313D01*
X119123496Y-65084314D01*
X119049629Y-65133671D01*
X119049626Y-65133672D01*
X119049625Y-65133673D01*
X118967552Y-65167669D01*
X118880421Y-65185000D01*
X118791579Y-65185000D01*
X118704448Y-65167669D01*
X118622375Y-65133673D01*
X118622374Y-65133672D01*
X118622371Y-65133671D01*
X118548504Y-65084314D01*
X118548503Y-65084313D01*
X118548500Y-65084311D01*
X118485689Y-65021500D01*
X118485686Y-65021496D01*
X118436329Y-64947629D01*
X118436327Y-64947625D01*
X118402331Y-64865552D01*
X118385000Y-64778421D01*
X118385000Y-64689579D01*
X118402331Y-64602448D01*
X118436327Y-64520375D01*
X118436328Y-64520374D01*
X118436329Y-64520371D01*
X118485686Y-64446504D01*
X118485687Y-64446503D01*
X118485689Y-64446500D01*
X118548500Y-64383689D01*
X118548504Y-64383686D01*
X118622371Y-64334329D01*
X118622374Y-64334328D01*
X118622375Y-64334327D01*
X118704448Y-64300331D01*
X118791579Y-64283000D01*
X118880421Y-64283000D01*
X118967552Y-64300331D01*
X118967552Y-64300331D01*
G37*
G36*
X111537000Y-63635000D02*
X110035000Y-63635000D01*
X110035000Y-62233000D01*
X111537000Y-62233000D01*
X111537000Y-63635000D01*
X111537000Y-63635000D01*
G37*
G36*
X123137000Y-63635000D02*
X121635000Y-63635000D01*
X121635000Y-62233000D01*
X123137000Y-62233000D01*
X123137000Y-63635000D01*
X123137000Y-63635000D01*
G37*
G36*
X148969591Y-60882085D02*
X149003569Y-60892393D01*
X149034887Y-60909133D01*
X149062339Y-60931661D01*
X149084867Y-60959113D01*
X149101607Y-60990431D01*
X149111915Y-61024409D01*
X149116000Y-61065890D01*
X149116000Y-61667110D01*
X149111915Y-61708591D01*
X149101607Y-61742569D01*
X149084867Y-61773887D01*
X149062339Y-61801339D01*
X149034887Y-61823867D01*
X149003569Y-61840607D01*
X148969591Y-61850915D01*
X148928110Y-61855000D01*
X148251890Y-61855000D01*
X148210409Y-61850915D01*
X148176431Y-61840607D01*
X148145113Y-61823867D01*
X148117661Y-61801339D01*
X148095133Y-61773887D01*
X148078393Y-61742569D01*
X148068085Y-61708591D01*
X148064000Y-61667110D01*
X148064000Y-61065890D01*
X148068085Y-61024409D01*
X148078393Y-60990431D01*
X148095133Y-60959113D01*
X148117661Y-60931661D01*
X148145113Y-60909133D01*
X148176431Y-60892393D01*
X148210409Y-60882085D01*
X148251890Y-60878000D01*
X148928110Y-60878000D01*
X148969591Y-60882085D01*
X148969591Y-60882085D01*
G37*
G36*
X150747591Y-60882085D02*
X150781569Y-60892393D01*
X150812887Y-60909133D01*
X150840339Y-60931661D01*
X150862867Y-60959113D01*
X150879607Y-60990431D01*
X150889915Y-61024409D01*
X150894000Y-61065890D01*
X150894000Y-61667110D01*
X150889915Y-61708591D01*
X150879607Y-61742569D01*
X150862867Y-61773887D01*
X150840339Y-61801339D01*
X150812887Y-61823867D01*
X150781569Y-61840607D01*
X150747591Y-61850915D01*
X150706110Y-61855000D01*
X150029890Y-61855000D01*
X149988409Y-61850915D01*
X149954431Y-61840607D01*
X149923113Y-61823867D01*
X149895661Y-61801339D01*
X149873133Y-61773887D01*
X149856393Y-61742569D01*
X149846085Y-61708591D01*
X149842000Y-61667110D01*
X149842000Y-61065890D01*
X149846085Y-61024409D01*
X149856393Y-60990431D01*
X149873133Y-60959113D01*
X149895661Y-60931661D01*
X149923113Y-60909133D01*
X149954431Y-60892393D01*
X149988409Y-60882085D01*
X150029890Y-60878000D01*
X150706110Y-60878000D01*
X150747591Y-60882085D01*
X150747591Y-60882085D01*
G37*
G36*
X176655591Y-60882085D02*
X176689569Y-60892393D01*
X176720887Y-60909133D01*
X176748339Y-60931661D01*
X176770867Y-60959113D01*
X176787607Y-60990431D01*
X176797915Y-61024409D01*
X176802000Y-61065890D01*
X176802000Y-61667110D01*
X176797915Y-61708591D01*
X176787607Y-61742569D01*
X176770867Y-61773887D01*
X176748339Y-61801339D01*
X176720887Y-61823867D01*
X176689569Y-61840607D01*
X176655591Y-61850915D01*
X176614110Y-61855000D01*
X175937890Y-61855000D01*
X175896409Y-61850915D01*
X175862431Y-61840607D01*
X175831113Y-61823867D01*
X175803661Y-61801339D01*
X175781133Y-61773887D01*
X175764393Y-61742569D01*
X175754085Y-61708591D01*
X175750000Y-61667110D01*
X175750000Y-61065890D01*
X175754085Y-61024409D01*
X175764393Y-60990431D01*
X175781133Y-60959113D01*
X175803661Y-60931661D01*
X175831113Y-60909133D01*
X175862431Y-60892393D01*
X175896409Y-60882085D01*
X175937890Y-60878000D01*
X176614110Y-60878000D01*
X176655591Y-60882085D01*
X176655591Y-60882085D01*
G37*
G36*
X174750591Y-60882085D02*
X174784569Y-60892393D01*
X174815887Y-60909133D01*
X174843339Y-60931661D01*
X174865867Y-60959113D01*
X174882607Y-60990431D01*
X174892915Y-61024409D01*
X174897000Y-61065890D01*
X174897000Y-61667110D01*
X174892915Y-61708591D01*
X174882607Y-61742569D01*
X174865867Y-61773887D01*
X174843339Y-61801339D01*
X174815887Y-61823867D01*
X174784569Y-61840607D01*
X174750591Y-61850915D01*
X174709110Y-61855000D01*
X174032890Y-61855000D01*
X173991409Y-61850915D01*
X173957431Y-61840607D01*
X173926113Y-61823867D01*
X173898661Y-61801339D01*
X173876133Y-61773887D01*
X173859393Y-61742569D01*
X173849085Y-61708591D01*
X173845000Y-61667110D01*
X173845000Y-61065890D01*
X173849085Y-61024409D01*
X173859393Y-60990431D01*
X173876133Y-60959113D01*
X173898661Y-60931661D01*
X173926113Y-60909133D01*
X173957431Y-60892393D01*
X173991409Y-60882085D01*
X174032890Y-60878000D01*
X174709110Y-60878000D01*
X174750591Y-60882085D01*
X174750591Y-60882085D01*
G37*
G36*
X152525591Y-60882085D02*
X152559569Y-60892393D01*
X152590887Y-60909133D01*
X152618339Y-60931661D01*
X152640867Y-60959113D01*
X152657607Y-60990431D01*
X152667915Y-61024409D01*
X152672000Y-61065890D01*
X152672000Y-61667110D01*
X152667915Y-61708591D01*
X152657607Y-61742569D01*
X152640867Y-61773887D01*
X152618339Y-61801339D01*
X152590887Y-61823867D01*
X152559569Y-61840607D01*
X152525591Y-61850915D01*
X152484110Y-61855000D01*
X151807890Y-61855000D01*
X151766409Y-61850915D01*
X151732431Y-61840607D01*
X151701113Y-61823867D01*
X151673661Y-61801339D01*
X151651133Y-61773887D01*
X151634393Y-61742569D01*
X151624085Y-61708591D01*
X151620000Y-61667110D01*
X151620000Y-61065890D01*
X151624085Y-61024409D01*
X151634393Y-60990431D01*
X151651133Y-60959113D01*
X151673661Y-60931661D01*
X151701113Y-60909133D01*
X151732431Y-60892393D01*
X151766409Y-60882085D01*
X151807890Y-60878000D01*
X152484110Y-60878000D01*
X152525591Y-60882085D01*
X152525591Y-60882085D01*
G37*
G36*
X147191591Y-60882085D02*
X147225569Y-60892393D01*
X147256887Y-60909133D01*
X147284339Y-60931661D01*
X147306867Y-60959113D01*
X147323607Y-60990431D01*
X147333915Y-61024409D01*
X147338000Y-61065890D01*
X147338000Y-61667110D01*
X147333915Y-61708591D01*
X147323607Y-61742569D01*
X147306867Y-61773887D01*
X147284339Y-61801339D01*
X147256887Y-61823867D01*
X147225569Y-61840607D01*
X147191591Y-61850915D01*
X147150110Y-61855000D01*
X146473890Y-61855000D01*
X146432409Y-61850915D01*
X146398431Y-61840607D01*
X146367113Y-61823867D01*
X146339661Y-61801339D01*
X146317133Y-61773887D01*
X146300393Y-61742569D01*
X146290085Y-61708591D01*
X146286000Y-61667110D01*
X146286000Y-61065890D01*
X146290085Y-61024409D01*
X146300393Y-60990431D01*
X146317133Y-60959113D01*
X146339661Y-60931661D01*
X146367113Y-60909133D01*
X146398431Y-60892393D01*
X146432409Y-60882085D01*
X146473890Y-60878000D01*
X147150110Y-60878000D01*
X147191591Y-60882085D01*
X147191591Y-60882085D01*
G37*
G36*
X150747591Y-59307085D02*
X150781569Y-59317393D01*
X150812887Y-59334133D01*
X150840339Y-59356661D01*
X150862867Y-59384113D01*
X150879607Y-59415431D01*
X150889915Y-59449409D01*
X150894000Y-59490890D01*
X150894000Y-60092110D01*
X150889915Y-60133591D01*
X150879607Y-60167569D01*
X150862867Y-60198887D01*
X150840339Y-60226339D01*
X150812887Y-60248867D01*
X150781569Y-60265607D01*
X150747591Y-60275915D01*
X150706110Y-60280000D01*
X150029890Y-60280000D01*
X149988409Y-60275915D01*
X149954431Y-60265607D01*
X149923113Y-60248867D01*
X149895661Y-60226339D01*
X149873133Y-60198887D01*
X149856393Y-60167569D01*
X149846085Y-60133591D01*
X149842000Y-60092110D01*
X149842000Y-59490890D01*
X149846085Y-59449409D01*
X149856393Y-59415431D01*
X149873133Y-59384113D01*
X149895661Y-59356661D01*
X149923113Y-59334133D01*
X149954431Y-59317393D01*
X149988409Y-59307085D01*
X150029890Y-59303000D01*
X150706110Y-59303000D01*
X150747591Y-59307085D01*
X150747591Y-59307085D01*
G37*
G36*
X152525591Y-59307085D02*
X152559569Y-59317393D01*
X152590887Y-59334133D01*
X152618339Y-59356661D01*
X152640867Y-59384113D01*
X152657607Y-59415431D01*
X152667915Y-59449409D01*
X152672000Y-59490890D01*
X152672000Y-60092110D01*
X152667915Y-60133591D01*
X152657607Y-60167569D01*
X152640867Y-60198887D01*
X152618339Y-60226339D01*
X152590887Y-60248867D01*
X152559569Y-60265607D01*
X152525591Y-60275915D01*
X152484110Y-60280000D01*
X151807890Y-60280000D01*
X151766409Y-60275915D01*
X151732431Y-60265607D01*
X151701113Y-60248867D01*
X151673661Y-60226339D01*
X151651133Y-60198887D01*
X151634393Y-60167569D01*
X151624085Y-60133591D01*
X151620000Y-60092110D01*
X151620000Y-59490890D01*
X151624085Y-59449409D01*
X151634393Y-59415431D01*
X151651133Y-59384113D01*
X151673661Y-59356661D01*
X151701113Y-59334133D01*
X151732431Y-59317393D01*
X151766409Y-59307085D01*
X151807890Y-59303000D01*
X152484110Y-59303000D01*
X152525591Y-59307085D01*
X152525591Y-59307085D01*
G37*
G36*
X147191591Y-59307085D02*
X147225569Y-59317393D01*
X147256887Y-59334133D01*
X147284339Y-59356661D01*
X147306867Y-59384113D01*
X147323607Y-59415431D01*
X147333915Y-59449409D01*
X147338000Y-59490890D01*
X147338000Y-60092110D01*
X147333915Y-60133591D01*
X147323607Y-60167569D01*
X147306867Y-60198887D01*
X147284339Y-60226339D01*
X147256887Y-60248867D01*
X147225569Y-60265607D01*
X147191591Y-60275915D01*
X147150110Y-60280000D01*
X146473890Y-60280000D01*
X146432409Y-60275915D01*
X146398431Y-60265607D01*
X146367113Y-60248867D01*
X146339661Y-60226339D01*
X146317133Y-60198887D01*
X146300393Y-60167569D01*
X146290085Y-60133591D01*
X146286000Y-60092110D01*
X146286000Y-59490890D01*
X146290085Y-59449409D01*
X146300393Y-59415431D01*
X146317133Y-59384113D01*
X146339661Y-59356661D01*
X146367113Y-59334133D01*
X146398431Y-59317393D01*
X146432409Y-59307085D01*
X146473890Y-59303000D01*
X147150110Y-59303000D01*
X147191591Y-59307085D01*
X147191591Y-59307085D01*
G37*
G36*
X148969591Y-59307085D02*
X149003569Y-59317393D01*
X149034887Y-59334133D01*
X149062339Y-59356661D01*
X149084867Y-59384113D01*
X149101607Y-59415431D01*
X149111915Y-59449409D01*
X149116000Y-59490890D01*
X149116000Y-60092110D01*
X149111915Y-60133591D01*
X149101607Y-60167569D01*
X149084867Y-60198887D01*
X149062339Y-60226339D01*
X149034887Y-60248867D01*
X149003569Y-60265607D01*
X148969591Y-60275915D01*
X148928110Y-60280000D01*
X148251890Y-60280000D01*
X148210409Y-60275915D01*
X148176431Y-60265607D01*
X148145113Y-60248867D01*
X148117661Y-60226339D01*
X148095133Y-60198887D01*
X148078393Y-60167569D01*
X148068085Y-60133591D01*
X148064000Y-60092110D01*
X148064000Y-59490890D01*
X148068085Y-59449409D01*
X148078393Y-59415431D01*
X148095133Y-59384113D01*
X148117661Y-59356661D01*
X148145113Y-59334133D01*
X148176431Y-59317393D01*
X148210409Y-59307085D01*
X148251890Y-59303000D01*
X148928110Y-59303000D01*
X148969591Y-59307085D01*
X148969591Y-59307085D01*
G37*
G36*
X174750591Y-59307085D02*
X174784569Y-59317393D01*
X174815887Y-59334133D01*
X174843339Y-59356661D01*
X174865867Y-59384113D01*
X174882607Y-59415431D01*
X174892915Y-59449409D01*
X174897000Y-59490890D01*
X174897000Y-60092110D01*
X174892915Y-60133591D01*
X174882607Y-60167569D01*
X174865867Y-60198887D01*
X174843339Y-60226339D01*
X174815887Y-60248867D01*
X174784569Y-60265607D01*
X174750591Y-60275915D01*
X174709110Y-60280000D01*
X174032890Y-60280000D01*
X173991409Y-60275915D01*
X173957431Y-60265607D01*
X173926113Y-60248867D01*
X173898661Y-60226339D01*
X173876133Y-60198887D01*
X173859393Y-60167569D01*
X173849085Y-60133591D01*
X173845000Y-60092110D01*
X173845000Y-59490890D01*
X173849085Y-59449409D01*
X173859393Y-59415431D01*
X173876133Y-59384113D01*
X173898661Y-59356661D01*
X173926113Y-59334133D01*
X173957431Y-59317393D01*
X173991409Y-59307085D01*
X174032890Y-59303000D01*
X174709110Y-59303000D01*
X174750591Y-59307085D01*
X174750591Y-59307085D01*
G37*
G36*
X176655591Y-59307085D02*
X176689569Y-59317393D01*
X176720887Y-59334133D01*
X176748339Y-59356661D01*
X176770867Y-59384113D01*
X176787607Y-59415431D01*
X176797915Y-59449409D01*
X176802000Y-59490890D01*
X176802000Y-60092110D01*
X176797915Y-60133591D01*
X176787607Y-60167569D01*
X176770867Y-60198887D01*
X176748339Y-60226339D01*
X176720887Y-60248867D01*
X176689569Y-60265607D01*
X176655591Y-60275915D01*
X176614110Y-60280000D01*
X175937890Y-60280000D01*
X175896409Y-60275915D01*
X175862431Y-60265607D01*
X175831113Y-60248867D01*
X175803661Y-60226339D01*
X175781133Y-60198887D01*
X175764393Y-60167569D01*
X175754085Y-60133591D01*
X175750000Y-60092110D01*
X175750000Y-59490890D01*
X175754085Y-59449409D01*
X175764393Y-59415431D01*
X175781133Y-59384113D01*
X175803661Y-59356661D01*
X175831113Y-59334133D01*
X175862431Y-59317393D01*
X175896409Y-59307085D01*
X175937890Y-59303000D01*
X176614110Y-59303000D01*
X176655591Y-59307085D01*
X176655591Y-59307085D01*
G37*
G36*
X123187000Y-59985000D02*
X121585000Y-59985000D01*
X121585000Y-58483000D01*
X123187000Y-58483000D01*
X123187000Y-59985000D01*
X123187000Y-59985000D01*
G37*
G36*
X111587000Y-59985000D02*
X109985000Y-59985000D01*
X109985000Y-58483000D01*
X111587000Y-58483000D01*
X111587000Y-59985000D01*
X111587000Y-59985000D01*
G37*
G36*
X133102336Y-55030394D02*
X133168520Y-55036912D01*
X133281746Y-55071259D01*
X133338360Y-55088432D01*
X133446339Y-55146149D01*
X133494884Y-55172097D01*
X133530622Y-55201427D01*
X133632079Y-55284689D01*
X133715341Y-55386146D01*
X133744671Y-55421884D01*
X133744672Y-55421886D01*
X133828336Y-55578408D01*
X133828336Y-55578409D01*
X133879856Y-55748248D01*
X133897252Y-55924875D01*
X133879856Y-56101502D01*
X133845509Y-56214728D01*
X133828336Y-56271342D01*
X133754241Y-56409962D01*
X133744671Y-56427866D01*
X133707140Y-56473597D01*
X133632076Y-56565064D01*
X133596181Y-56594522D01*
X133578854Y-56611849D01*
X133565240Y-56632223D01*
X133555863Y-56654862D01*
X133551082Y-56678896D01*
X133550480Y-56691148D01*
X133550480Y-58571640D01*
X132448480Y-58571640D01*
X132448480Y-56703601D01*
X132446078Y-56679215D01*
X132438965Y-56655766D01*
X132427414Y-56634155D01*
X132411868Y-56615213D01*
X132402779Y-56606975D01*
X132351710Y-56565064D01*
X132276646Y-56473597D01*
X132239115Y-56427866D01*
X132229545Y-56409962D01*
X132155450Y-56271342D01*
X132138277Y-56214728D01*
X132103930Y-56101502D01*
X132086534Y-55924875D01*
X132103930Y-55748248D01*
X132155450Y-55578409D01*
X132155450Y-55578408D01*
X132239114Y-55421886D01*
X132239115Y-55421884D01*
X132268445Y-55386146D01*
X132351707Y-55284689D01*
X132453164Y-55201427D01*
X132488902Y-55172097D01*
X132537447Y-55146149D01*
X132645426Y-55088432D01*
X132702040Y-55071259D01*
X132815266Y-55036912D01*
X132881450Y-55030394D01*
X132947633Y-55023875D01*
X133036153Y-55023875D01*
X133102336Y-55030394D01*
X133102336Y-55030394D01*
G37*
G36*
X163582336Y-55030394D02*
X163648520Y-55036912D01*
X163761746Y-55071259D01*
X163818360Y-55088432D01*
X163926339Y-55146149D01*
X163974884Y-55172097D01*
X164010622Y-55201427D01*
X164112079Y-55284689D01*
X164195341Y-55386146D01*
X164224671Y-55421884D01*
X164224672Y-55421886D01*
X164308336Y-55578408D01*
X164308336Y-55578409D01*
X164359856Y-55748248D01*
X164377252Y-55924875D01*
X164359856Y-56101502D01*
X164325509Y-56214728D01*
X164308336Y-56271342D01*
X164234241Y-56409962D01*
X164224671Y-56427866D01*
X164187140Y-56473597D01*
X164112076Y-56565064D01*
X164076181Y-56594522D01*
X164058854Y-56611849D01*
X164045240Y-56632223D01*
X164035863Y-56654862D01*
X164031082Y-56678896D01*
X164030480Y-56691148D01*
X164030480Y-58571640D01*
X162928480Y-58571640D01*
X162928480Y-56703601D01*
X162926078Y-56679215D01*
X162918965Y-56655766D01*
X162907414Y-56634155D01*
X162891868Y-56615213D01*
X162882779Y-56606975D01*
X162831710Y-56565064D01*
X162756646Y-56473597D01*
X162719115Y-56427866D01*
X162709545Y-56409962D01*
X162635450Y-56271342D01*
X162618277Y-56214728D01*
X162583930Y-56101502D01*
X162566534Y-55924875D01*
X162583930Y-55748248D01*
X162635450Y-55578409D01*
X162635450Y-55578408D01*
X162719114Y-55421886D01*
X162719115Y-55421884D01*
X162748445Y-55386146D01*
X162831707Y-55284689D01*
X162933164Y-55201427D01*
X162968902Y-55172097D01*
X163017447Y-55146149D01*
X163125426Y-55088432D01*
X163182040Y-55071259D01*
X163295266Y-55036912D01*
X163361450Y-55030394D01*
X163427633Y-55023875D01*
X163516153Y-55023875D01*
X163582336Y-55030394D01*
X163582336Y-55030394D01*
G37*
G36*
X173742336Y-55030394D02*
X173808520Y-55036912D01*
X173921746Y-55071259D01*
X173978360Y-55088432D01*
X174086339Y-55146149D01*
X174134884Y-55172097D01*
X174170622Y-55201427D01*
X174272079Y-55284689D01*
X174355341Y-55386146D01*
X174384671Y-55421884D01*
X174384672Y-55421886D01*
X174468336Y-55578408D01*
X174468336Y-55578409D01*
X174519856Y-55748248D01*
X174537252Y-55924875D01*
X174519856Y-56101502D01*
X174485509Y-56214728D01*
X174468336Y-56271342D01*
X174394241Y-56409962D01*
X174384671Y-56427866D01*
X174347140Y-56473597D01*
X174272076Y-56565064D01*
X174236181Y-56594522D01*
X174218854Y-56611849D01*
X174205240Y-56632223D01*
X174195863Y-56654862D01*
X174191082Y-56678896D01*
X174190480Y-56691148D01*
X174190480Y-58571640D01*
X173088480Y-58571640D01*
X173088480Y-56703601D01*
X173086078Y-56679215D01*
X173078965Y-56655766D01*
X173067414Y-56634155D01*
X173051868Y-56615213D01*
X173042779Y-56606975D01*
X172991710Y-56565064D01*
X172916646Y-56473597D01*
X172879115Y-56427866D01*
X172869545Y-56409962D01*
X172795450Y-56271342D01*
X172778277Y-56214728D01*
X172743930Y-56101502D01*
X172726534Y-55924875D01*
X172743930Y-55748248D01*
X172795450Y-55578409D01*
X172795450Y-55578408D01*
X172879114Y-55421886D01*
X172879115Y-55421884D01*
X172908445Y-55386146D01*
X172991707Y-55284689D01*
X173093164Y-55201427D01*
X173128902Y-55172097D01*
X173177447Y-55146149D01*
X173285426Y-55088432D01*
X173342040Y-55071259D01*
X173455266Y-55036912D01*
X173521450Y-55030394D01*
X173587633Y-55023875D01*
X173676153Y-55023875D01*
X173742336Y-55030394D01*
X173742336Y-55030394D01*
G37*
G36*
X168662336Y-55030394D02*
X168728520Y-55036912D01*
X168841746Y-55071259D01*
X168898360Y-55088432D01*
X169006339Y-55146149D01*
X169054884Y-55172097D01*
X169090622Y-55201427D01*
X169192079Y-55284689D01*
X169275341Y-55386146D01*
X169304671Y-55421884D01*
X169304672Y-55421886D01*
X169388336Y-55578408D01*
X169388336Y-55578409D01*
X169439856Y-55748248D01*
X169457252Y-55924875D01*
X169439856Y-56101502D01*
X169405509Y-56214728D01*
X169388336Y-56271342D01*
X169314241Y-56409962D01*
X169304671Y-56427866D01*
X169267140Y-56473597D01*
X169192076Y-56565064D01*
X169156181Y-56594522D01*
X169138854Y-56611849D01*
X169125240Y-56632223D01*
X169115863Y-56654862D01*
X169111082Y-56678896D01*
X169110480Y-56691148D01*
X169110480Y-58571640D01*
X168008480Y-58571640D01*
X168008480Y-56703601D01*
X168006078Y-56679215D01*
X167998965Y-56655766D01*
X167987414Y-56634155D01*
X167971868Y-56615213D01*
X167962779Y-56606975D01*
X167911710Y-56565064D01*
X167836646Y-56473597D01*
X167799115Y-56427866D01*
X167789545Y-56409962D01*
X167715450Y-56271342D01*
X167698277Y-56214728D01*
X167663930Y-56101502D01*
X167646534Y-55924875D01*
X167663930Y-55748248D01*
X167715450Y-55578409D01*
X167715450Y-55578408D01*
X167799114Y-55421886D01*
X167799115Y-55421884D01*
X167828445Y-55386146D01*
X167911707Y-55284689D01*
X168013164Y-55201427D01*
X168048902Y-55172097D01*
X168097447Y-55146149D01*
X168205426Y-55088432D01*
X168262040Y-55071259D01*
X168375266Y-55036912D01*
X168441450Y-55030394D01*
X168507633Y-55023875D01*
X168596153Y-55023875D01*
X168662336Y-55030394D01*
X168662336Y-55030394D01*
G37*
G36*
X138182336Y-55030394D02*
X138248520Y-55036912D01*
X138361746Y-55071259D01*
X138418360Y-55088432D01*
X138526339Y-55146149D01*
X138574884Y-55172097D01*
X138610622Y-55201427D01*
X138712079Y-55284689D01*
X138795341Y-55386146D01*
X138824671Y-55421884D01*
X138824672Y-55421886D01*
X138908336Y-55578408D01*
X138908336Y-55578409D01*
X138959856Y-55748248D01*
X138977252Y-55924875D01*
X138959856Y-56101502D01*
X138925509Y-56214728D01*
X138908336Y-56271342D01*
X138834241Y-56409962D01*
X138824671Y-56427866D01*
X138787140Y-56473597D01*
X138712076Y-56565064D01*
X138676181Y-56594522D01*
X138658854Y-56611849D01*
X138645240Y-56632223D01*
X138635863Y-56654862D01*
X138631082Y-56678896D01*
X138630480Y-56691148D01*
X138630480Y-58571640D01*
X137528480Y-58571640D01*
X137528480Y-56703601D01*
X137526078Y-56679215D01*
X137518965Y-56655766D01*
X137507414Y-56634155D01*
X137491868Y-56615213D01*
X137482779Y-56606975D01*
X137431710Y-56565064D01*
X137356646Y-56473597D01*
X137319115Y-56427866D01*
X137309545Y-56409962D01*
X137235450Y-56271342D01*
X137218277Y-56214728D01*
X137183930Y-56101502D01*
X137166534Y-55924875D01*
X137183930Y-55748248D01*
X137235450Y-55578409D01*
X137235450Y-55578408D01*
X137319114Y-55421886D01*
X137319115Y-55421884D01*
X137348445Y-55386146D01*
X137431707Y-55284689D01*
X137533164Y-55201427D01*
X137568902Y-55172097D01*
X137617447Y-55146149D01*
X137725426Y-55088432D01*
X137782040Y-55071259D01*
X137895266Y-55036912D01*
X137961450Y-55030394D01*
X138027633Y-55023875D01*
X138116153Y-55023875D01*
X138182336Y-55030394D01*
X138182336Y-55030394D01*
G37*
G36*
X143262336Y-55030394D02*
X143328520Y-55036912D01*
X143441746Y-55071259D01*
X143498360Y-55088432D01*
X143606339Y-55146149D01*
X143654884Y-55172097D01*
X143690622Y-55201427D01*
X143792079Y-55284689D01*
X143875341Y-55386146D01*
X143904671Y-55421884D01*
X143904672Y-55421886D01*
X143988336Y-55578408D01*
X143988336Y-55578409D01*
X144039856Y-55748248D01*
X144057252Y-55924875D01*
X144039856Y-56101502D01*
X144005509Y-56214728D01*
X143988336Y-56271342D01*
X143914241Y-56409962D01*
X143904671Y-56427866D01*
X143867140Y-56473597D01*
X143792076Y-56565064D01*
X143756181Y-56594522D01*
X143738854Y-56611849D01*
X143725240Y-56632223D01*
X143715863Y-56654862D01*
X143711082Y-56678896D01*
X143710480Y-56691148D01*
X143710480Y-58571640D01*
X142608480Y-58571640D01*
X142608480Y-56703601D01*
X142606078Y-56679215D01*
X142598965Y-56655766D01*
X142587414Y-56634155D01*
X142571868Y-56615213D01*
X142562779Y-56606975D01*
X142511710Y-56565064D01*
X142436646Y-56473597D01*
X142399115Y-56427866D01*
X142389545Y-56409962D01*
X142315450Y-56271342D01*
X142298277Y-56214728D01*
X142263930Y-56101502D01*
X142246534Y-55924875D01*
X142263930Y-55748248D01*
X142315450Y-55578409D01*
X142315450Y-55578408D01*
X142399114Y-55421886D01*
X142399115Y-55421884D01*
X142428445Y-55386146D01*
X142511707Y-55284689D01*
X142613164Y-55201427D01*
X142648902Y-55172097D01*
X142697447Y-55146149D01*
X142805426Y-55088432D01*
X142862040Y-55071259D01*
X142975266Y-55036912D01*
X143041450Y-55030394D01*
X143107633Y-55023875D01*
X143196153Y-55023875D01*
X143262336Y-55030394D01*
X143262336Y-55030394D01*
G37*
G36*
X148342336Y-55030394D02*
X148408520Y-55036912D01*
X148521746Y-55071259D01*
X148578360Y-55088432D01*
X148686339Y-55146149D01*
X148734884Y-55172097D01*
X148770622Y-55201427D01*
X148872079Y-55284689D01*
X148955341Y-55386146D01*
X148984671Y-55421884D01*
X148984672Y-55421886D01*
X149068336Y-55578408D01*
X149068336Y-55578409D01*
X149119856Y-55748248D01*
X149137252Y-55924875D01*
X149119856Y-56101502D01*
X149085509Y-56214728D01*
X149068336Y-56271342D01*
X148994241Y-56409962D01*
X148984671Y-56427866D01*
X148947140Y-56473597D01*
X148872076Y-56565064D01*
X148836181Y-56594522D01*
X148818854Y-56611849D01*
X148805240Y-56632223D01*
X148795863Y-56654862D01*
X148791082Y-56678896D01*
X148790480Y-56691148D01*
X148790480Y-58571640D01*
X147688480Y-58571640D01*
X147688480Y-56703601D01*
X147686078Y-56679215D01*
X147678965Y-56655766D01*
X147667414Y-56634155D01*
X147651868Y-56615213D01*
X147642779Y-56606975D01*
X147591710Y-56565064D01*
X147516646Y-56473597D01*
X147479115Y-56427866D01*
X147469545Y-56409962D01*
X147395450Y-56271342D01*
X147378277Y-56214728D01*
X147343930Y-56101502D01*
X147326534Y-55924875D01*
X147343930Y-55748248D01*
X147395450Y-55578409D01*
X147395450Y-55578408D01*
X147479114Y-55421886D01*
X147479115Y-55421884D01*
X147508445Y-55386146D01*
X147591707Y-55284689D01*
X147693164Y-55201427D01*
X147728902Y-55172097D01*
X147777447Y-55146149D01*
X147885426Y-55088432D01*
X147942040Y-55071259D01*
X148055266Y-55036912D01*
X148121450Y-55030394D01*
X148187633Y-55023875D01*
X148276153Y-55023875D01*
X148342336Y-55030394D01*
X148342336Y-55030394D01*
G37*
G36*
X153422336Y-55030394D02*
X153488520Y-55036912D01*
X153601746Y-55071259D01*
X153658360Y-55088432D01*
X153766339Y-55146149D01*
X153814884Y-55172097D01*
X153850622Y-55201427D01*
X153952079Y-55284689D01*
X154035341Y-55386146D01*
X154064671Y-55421884D01*
X154064672Y-55421886D01*
X154148336Y-55578408D01*
X154148336Y-55578409D01*
X154199856Y-55748248D01*
X154217252Y-55924875D01*
X154199856Y-56101502D01*
X154165509Y-56214728D01*
X154148336Y-56271342D01*
X154074241Y-56409962D01*
X154064671Y-56427866D01*
X154027140Y-56473597D01*
X153952076Y-56565064D01*
X153916181Y-56594522D01*
X153898854Y-56611849D01*
X153885240Y-56632223D01*
X153875863Y-56654862D01*
X153871082Y-56678896D01*
X153870480Y-56691148D01*
X153870480Y-58571640D01*
X152768480Y-58571640D01*
X152768480Y-56703601D01*
X152766078Y-56679215D01*
X152758965Y-56655766D01*
X152747414Y-56634155D01*
X152731868Y-56615213D01*
X152722779Y-56606975D01*
X152671710Y-56565064D01*
X152596646Y-56473597D01*
X152559115Y-56427866D01*
X152549545Y-56409962D01*
X152475450Y-56271342D01*
X152458277Y-56214728D01*
X152423930Y-56101502D01*
X152406534Y-55924875D01*
X152423930Y-55748248D01*
X152475450Y-55578409D01*
X152475450Y-55578408D01*
X152559114Y-55421886D01*
X152559115Y-55421884D01*
X152588445Y-55386146D01*
X152671707Y-55284689D01*
X152773164Y-55201427D01*
X152808902Y-55172097D01*
X152857447Y-55146149D01*
X152965426Y-55088432D01*
X153022040Y-55071259D01*
X153135266Y-55036912D01*
X153201450Y-55030394D01*
X153267633Y-55023875D01*
X153356153Y-55023875D01*
X153422336Y-55030394D01*
X153422336Y-55030394D01*
G37*
G36*
X158502336Y-55030394D02*
X158568520Y-55036912D01*
X158681746Y-55071259D01*
X158738360Y-55088432D01*
X158846339Y-55146149D01*
X158894884Y-55172097D01*
X158930622Y-55201427D01*
X159032079Y-55284689D01*
X159115341Y-55386146D01*
X159144671Y-55421884D01*
X159144672Y-55421886D01*
X159228336Y-55578408D01*
X159228336Y-55578409D01*
X159279856Y-55748248D01*
X159297252Y-55924875D01*
X159279856Y-56101502D01*
X159245509Y-56214728D01*
X159228336Y-56271342D01*
X159154241Y-56409962D01*
X159144671Y-56427866D01*
X159107140Y-56473597D01*
X159032076Y-56565064D01*
X158996181Y-56594522D01*
X158978854Y-56611849D01*
X158965240Y-56632223D01*
X158955863Y-56654862D01*
X158951082Y-56678896D01*
X158950480Y-56691148D01*
X158950480Y-58571640D01*
X157848480Y-58571640D01*
X157848480Y-56703601D01*
X157846078Y-56679215D01*
X157838965Y-56655766D01*
X157827414Y-56634155D01*
X157811868Y-56615213D01*
X157802779Y-56606975D01*
X157751710Y-56565064D01*
X157676646Y-56473597D01*
X157639115Y-56427866D01*
X157629545Y-56409962D01*
X157555450Y-56271342D01*
X157538277Y-56214728D01*
X157503930Y-56101502D01*
X157486534Y-55924875D01*
X157503930Y-55748248D01*
X157555450Y-55578409D01*
X157555450Y-55578408D01*
X157639114Y-55421886D01*
X157639115Y-55421884D01*
X157668445Y-55386146D01*
X157751707Y-55284689D01*
X157853164Y-55201427D01*
X157888902Y-55172097D01*
X157937447Y-55146149D01*
X158045426Y-55088432D01*
X158102040Y-55071259D01*
X158215266Y-55036912D01*
X158281450Y-55030394D01*
X158347633Y-55023875D01*
X158436153Y-55023875D01*
X158502336Y-55030394D01*
X158502336Y-55030394D01*
G37*
G36*
X161490480Y-55158602D02*
X161492882Y-55182988D01*
X161499995Y-55206437D01*
X161511546Y-55228048D01*
X161527092Y-55246990D01*
X161536181Y-55255228D01*
X161572076Y-55284686D01*
X161647140Y-55376153D01*
X161684671Y-55421884D01*
X161684672Y-55421886D01*
X161768336Y-55578408D01*
X161768336Y-55578409D01*
X161819856Y-55748248D01*
X161837252Y-55924875D01*
X161819856Y-56101502D01*
X161785509Y-56214728D01*
X161768336Y-56271342D01*
X161694241Y-56409962D01*
X161684671Y-56427866D01*
X161655341Y-56463604D01*
X161572079Y-56565061D01*
X161487886Y-56634155D01*
X161434884Y-56677653D01*
X161431962Y-56679215D01*
X161278360Y-56761318D01*
X161221746Y-56778491D01*
X161108520Y-56812838D01*
X161042336Y-56819356D01*
X160976153Y-56825875D01*
X160887633Y-56825875D01*
X160821450Y-56819356D01*
X160755266Y-56812838D01*
X160642040Y-56778491D01*
X160585426Y-56761318D01*
X160431824Y-56679215D01*
X160428902Y-56677653D01*
X160375900Y-56634155D01*
X160291707Y-56565061D01*
X160208445Y-56463604D01*
X160179115Y-56427866D01*
X160169545Y-56409962D01*
X160095450Y-56271342D01*
X160078277Y-56214728D01*
X160043930Y-56101502D01*
X160026534Y-55924875D01*
X160043930Y-55748248D01*
X160095450Y-55578409D01*
X160095450Y-55578408D01*
X160179114Y-55421886D01*
X160179115Y-55421884D01*
X160216646Y-55376153D01*
X160291710Y-55284686D01*
X160342779Y-55242775D01*
X160360106Y-55225448D01*
X160373720Y-55205074D01*
X160383098Y-55182435D01*
X160387878Y-55158401D01*
X160388480Y-55146149D01*
X160388480Y-53269640D01*
X161490480Y-53269640D01*
X161490480Y-55158602D01*
X161490480Y-55158602D01*
G37*
G36*
X166570480Y-55158602D02*
X166572882Y-55182988D01*
X166579995Y-55206437D01*
X166591546Y-55228048D01*
X166607092Y-55246990D01*
X166616181Y-55255228D01*
X166652076Y-55284686D01*
X166727140Y-55376153D01*
X166764671Y-55421884D01*
X166764672Y-55421886D01*
X166848336Y-55578408D01*
X166848336Y-55578409D01*
X166899856Y-55748248D01*
X166917252Y-55924875D01*
X166899856Y-56101502D01*
X166865509Y-56214728D01*
X166848336Y-56271342D01*
X166774241Y-56409962D01*
X166764671Y-56427866D01*
X166735341Y-56463604D01*
X166652079Y-56565061D01*
X166567886Y-56634155D01*
X166514884Y-56677653D01*
X166511962Y-56679215D01*
X166358360Y-56761318D01*
X166301746Y-56778491D01*
X166188520Y-56812838D01*
X166122336Y-56819356D01*
X166056153Y-56825875D01*
X165967633Y-56825875D01*
X165901450Y-56819356D01*
X165835266Y-56812838D01*
X165722040Y-56778491D01*
X165665426Y-56761318D01*
X165511824Y-56679215D01*
X165508902Y-56677653D01*
X165455900Y-56634155D01*
X165371707Y-56565061D01*
X165288445Y-56463604D01*
X165259115Y-56427866D01*
X165249545Y-56409962D01*
X165175450Y-56271342D01*
X165158277Y-56214728D01*
X165123930Y-56101502D01*
X165106534Y-55924875D01*
X165123930Y-55748248D01*
X165175450Y-55578409D01*
X165175450Y-55578408D01*
X165259114Y-55421886D01*
X165259115Y-55421884D01*
X165296646Y-55376153D01*
X165371710Y-55284686D01*
X165422779Y-55242775D01*
X165440106Y-55225448D01*
X165453720Y-55205074D01*
X165463098Y-55182435D01*
X165467878Y-55158401D01*
X165468480Y-55146149D01*
X165468480Y-53269640D01*
X166570480Y-53269640D01*
X166570480Y-55158602D01*
X166570480Y-55158602D01*
G37*
G36*
X171650480Y-55158602D02*
X171652882Y-55182988D01*
X171659995Y-55206437D01*
X171671546Y-55228048D01*
X171687092Y-55246990D01*
X171696181Y-55255228D01*
X171732076Y-55284686D01*
X171807140Y-55376153D01*
X171844671Y-55421884D01*
X171844672Y-55421886D01*
X171928336Y-55578408D01*
X171928336Y-55578409D01*
X171979856Y-55748248D01*
X171997252Y-55924875D01*
X171979856Y-56101502D01*
X171945509Y-56214728D01*
X171928336Y-56271342D01*
X171854241Y-56409962D01*
X171844671Y-56427866D01*
X171815341Y-56463604D01*
X171732079Y-56565061D01*
X171647886Y-56634155D01*
X171594884Y-56677653D01*
X171591962Y-56679215D01*
X171438360Y-56761318D01*
X171381746Y-56778491D01*
X171268520Y-56812838D01*
X171202336Y-56819356D01*
X171136153Y-56825875D01*
X171047633Y-56825875D01*
X170981450Y-56819356D01*
X170915266Y-56812838D01*
X170802040Y-56778491D01*
X170745426Y-56761318D01*
X170591824Y-56679215D01*
X170588902Y-56677653D01*
X170535900Y-56634155D01*
X170451707Y-56565061D01*
X170368445Y-56463604D01*
X170339115Y-56427866D01*
X170329545Y-56409962D01*
X170255450Y-56271342D01*
X170238277Y-56214728D01*
X170203930Y-56101502D01*
X170186534Y-55924875D01*
X170203930Y-55748248D01*
X170255450Y-55578409D01*
X170255450Y-55578408D01*
X170339114Y-55421886D01*
X170339115Y-55421884D01*
X170376646Y-55376153D01*
X170451710Y-55284686D01*
X170502779Y-55242775D01*
X170520106Y-55225448D01*
X170533720Y-55205074D01*
X170543098Y-55182435D01*
X170547878Y-55158401D01*
X170548480Y-55146149D01*
X170548480Y-53269640D01*
X171650480Y-53269640D01*
X171650480Y-55158602D01*
X171650480Y-55158602D01*
G37*
G36*
X176730480Y-54898875D02*
X176732882Y-54923261D01*
X176739995Y-54946710D01*
X176751546Y-54968321D01*
X176767092Y-54987263D01*
X176786034Y-55002809D01*
X176807645Y-55014360D01*
X176831094Y-55021473D01*
X176855480Y-55023875D01*
X177072893Y-55023875D01*
X177072893Y-56825875D01*
X175270893Y-56825875D01*
X175270893Y-55023875D01*
X175503480Y-55023875D01*
X175527866Y-55021473D01*
X175551315Y-55014360D01*
X175572926Y-55002809D01*
X175591868Y-54987263D01*
X175607414Y-54968321D01*
X175618965Y-54946710D01*
X175626078Y-54923261D01*
X175628480Y-54898875D01*
X175628480Y-53269640D01*
X176730480Y-53269640D01*
X176730480Y-54898875D01*
X176730480Y-54898875D01*
G37*
G36*
X136090480Y-55158602D02*
X136092882Y-55182988D01*
X136099995Y-55206437D01*
X136111546Y-55228048D01*
X136127092Y-55246990D01*
X136136181Y-55255228D01*
X136172076Y-55284686D01*
X136247140Y-55376153D01*
X136284671Y-55421884D01*
X136284672Y-55421886D01*
X136368336Y-55578408D01*
X136368336Y-55578409D01*
X136419856Y-55748248D01*
X136437252Y-55924875D01*
X136419856Y-56101502D01*
X136385509Y-56214728D01*
X136368336Y-56271342D01*
X136294241Y-56409962D01*
X136284671Y-56427866D01*
X136255341Y-56463604D01*
X136172079Y-56565061D01*
X136087886Y-56634155D01*
X136034884Y-56677653D01*
X136031962Y-56679215D01*
X135878360Y-56761318D01*
X135821746Y-56778491D01*
X135708520Y-56812838D01*
X135642336Y-56819356D01*
X135576153Y-56825875D01*
X135487633Y-56825875D01*
X135421450Y-56819356D01*
X135355266Y-56812838D01*
X135242040Y-56778491D01*
X135185426Y-56761318D01*
X135031824Y-56679215D01*
X135028902Y-56677653D01*
X134975900Y-56634155D01*
X134891707Y-56565061D01*
X134808445Y-56463604D01*
X134779115Y-56427866D01*
X134769545Y-56409962D01*
X134695450Y-56271342D01*
X134678277Y-56214728D01*
X134643930Y-56101502D01*
X134626534Y-55924875D01*
X134643930Y-55748248D01*
X134695450Y-55578409D01*
X134695450Y-55578408D01*
X134779114Y-55421886D01*
X134779115Y-55421884D01*
X134816646Y-55376153D01*
X134891710Y-55284686D01*
X134942779Y-55242775D01*
X134960106Y-55225448D01*
X134973720Y-55205074D01*
X134983098Y-55182435D01*
X134987878Y-55158401D01*
X134988480Y-55146149D01*
X134988480Y-53269640D01*
X136090480Y-53269640D01*
X136090480Y-55158602D01*
X136090480Y-55158602D01*
G37*
G36*
X156410480Y-55158602D02*
X156412882Y-55182988D01*
X156419995Y-55206437D01*
X156431546Y-55228048D01*
X156447092Y-55246990D01*
X156456181Y-55255228D01*
X156492076Y-55284686D01*
X156567140Y-55376153D01*
X156604671Y-55421884D01*
X156604672Y-55421886D01*
X156688336Y-55578408D01*
X156688336Y-55578409D01*
X156739856Y-55748248D01*
X156757252Y-55924875D01*
X156739856Y-56101502D01*
X156705509Y-56214728D01*
X156688336Y-56271342D01*
X156614241Y-56409962D01*
X156604671Y-56427866D01*
X156575341Y-56463604D01*
X156492079Y-56565061D01*
X156407886Y-56634155D01*
X156354884Y-56677653D01*
X156351962Y-56679215D01*
X156198360Y-56761318D01*
X156141746Y-56778491D01*
X156028520Y-56812838D01*
X155962336Y-56819356D01*
X155896153Y-56825875D01*
X155807633Y-56825875D01*
X155741450Y-56819356D01*
X155675266Y-56812838D01*
X155562040Y-56778491D01*
X155505426Y-56761318D01*
X155351824Y-56679215D01*
X155348902Y-56677653D01*
X155295900Y-56634155D01*
X155211707Y-56565061D01*
X155128445Y-56463604D01*
X155099115Y-56427866D01*
X155089545Y-56409962D01*
X155015450Y-56271342D01*
X154998277Y-56214728D01*
X154963930Y-56101502D01*
X154946534Y-55924875D01*
X154963930Y-55748248D01*
X155015450Y-55578409D01*
X155015450Y-55578408D01*
X155099114Y-55421886D01*
X155099115Y-55421884D01*
X155136646Y-55376153D01*
X155211710Y-55284686D01*
X155262779Y-55242775D01*
X155280106Y-55225448D01*
X155293720Y-55205074D01*
X155303098Y-55182435D01*
X155307878Y-55158401D01*
X155308480Y-55146149D01*
X155308480Y-53269640D01*
X156410480Y-53269640D01*
X156410480Y-55158602D01*
X156410480Y-55158602D01*
G37*
G36*
X131010480Y-55158602D02*
X131012882Y-55182988D01*
X131019995Y-55206437D01*
X131031546Y-55228048D01*
X131047092Y-55246990D01*
X131056181Y-55255228D01*
X131092076Y-55284686D01*
X131167140Y-55376153D01*
X131204671Y-55421884D01*
X131204672Y-55421886D01*
X131288336Y-55578408D01*
X131288336Y-55578409D01*
X131339856Y-55748248D01*
X131357252Y-55924875D01*
X131339856Y-56101502D01*
X131305509Y-56214728D01*
X131288336Y-56271342D01*
X131214241Y-56409962D01*
X131204671Y-56427866D01*
X131175341Y-56463604D01*
X131092079Y-56565061D01*
X131007886Y-56634155D01*
X130954884Y-56677653D01*
X130951962Y-56679215D01*
X130798360Y-56761318D01*
X130741746Y-56778491D01*
X130628520Y-56812838D01*
X130562336Y-56819356D01*
X130496153Y-56825875D01*
X130407633Y-56825875D01*
X130341450Y-56819356D01*
X130275266Y-56812838D01*
X130162040Y-56778491D01*
X130105426Y-56761318D01*
X129951824Y-56679215D01*
X129948902Y-56677653D01*
X129895900Y-56634155D01*
X129811707Y-56565061D01*
X129728445Y-56463604D01*
X129699115Y-56427866D01*
X129689545Y-56409962D01*
X129615450Y-56271342D01*
X129598277Y-56214728D01*
X129563930Y-56101502D01*
X129546534Y-55924875D01*
X129563930Y-55748248D01*
X129615450Y-55578409D01*
X129615450Y-55578408D01*
X129699114Y-55421886D01*
X129699115Y-55421884D01*
X129736646Y-55376153D01*
X129811710Y-55284686D01*
X129862779Y-55242775D01*
X129880106Y-55225448D01*
X129893720Y-55205074D01*
X129903098Y-55182435D01*
X129907878Y-55158401D01*
X129908480Y-55146149D01*
X129908480Y-53269640D01*
X131010480Y-53269640D01*
X131010480Y-55158602D01*
X131010480Y-55158602D01*
G37*
G36*
X146250480Y-55158602D02*
X146252882Y-55182988D01*
X146259995Y-55206437D01*
X146271546Y-55228048D01*
X146287092Y-55246990D01*
X146296181Y-55255228D01*
X146332076Y-55284686D01*
X146407140Y-55376153D01*
X146444671Y-55421884D01*
X146444672Y-55421886D01*
X146528336Y-55578408D01*
X146528336Y-55578409D01*
X146579856Y-55748248D01*
X146597252Y-55924875D01*
X146579856Y-56101502D01*
X146545509Y-56214728D01*
X146528336Y-56271342D01*
X146454241Y-56409962D01*
X146444671Y-56427866D01*
X146415341Y-56463604D01*
X146332079Y-56565061D01*
X146247886Y-56634155D01*
X146194884Y-56677653D01*
X146191962Y-56679215D01*
X146038360Y-56761318D01*
X145981746Y-56778491D01*
X145868520Y-56812838D01*
X145802336Y-56819356D01*
X145736153Y-56825875D01*
X145647633Y-56825875D01*
X145581450Y-56819356D01*
X145515266Y-56812838D01*
X145402040Y-56778491D01*
X145345426Y-56761318D01*
X145191824Y-56679215D01*
X145188902Y-56677653D01*
X145135900Y-56634155D01*
X145051707Y-56565061D01*
X144968445Y-56463604D01*
X144939115Y-56427866D01*
X144929545Y-56409962D01*
X144855450Y-56271342D01*
X144838277Y-56214728D01*
X144803930Y-56101502D01*
X144786534Y-55924875D01*
X144803930Y-55748248D01*
X144855450Y-55578409D01*
X144855450Y-55578408D01*
X144939114Y-55421886D01*
X144939115Y-55421884D01*
X144976646Y-55376153D01*
X145051710Y-55284686D01*
X145102779Y-55242775D01*
X145120106Y-55225448D01*
X145133720Y-55205074D01*
X145143098Y-55182435D01*
X145147878Y-55158401D01*
X145148480Y-55146149D01*
X145148480Y-53269640D01*
X146250480Y-53269640D01*
X146250480Y-55158602D01*
X146250480Y-55158602D01*
G37*
G36*
X151330480Y-55158602D02*
X151332882Y-55182988D01*
X151339995Y-55206437D01*
X151351546Y-55228048D01*
X151367092Y-55246990D01*
X151376181Y-55255228D01*
X151412076Y-55284686D01*
X151487140Y-55376153D01*
X151524671Y-55421884D01*
X151524672Y-55421886D01*
X151608336Y-55578408D01*
X151608336Y-55578409D01*
X151659856Y-55748248D01*
X151677252Y-55924875D01*
X151659856Y-56101502D01*
X151625509Y-56214728D01*
X151608336Y-56271342D01*
X151534241Y-56409962D01*
X151524671Y-56427866D01*
X151495341Y-56463604D01*
X151412079Y-56565061D01*
X151327886Y-56634155D01*
X151274884Y-56677653D01*
X151271962Y-56679215D01*
X151118360Y-56761318D01*
X151061746Y-56778491D01*
X150948520Y-56812838D01*
X150882336Y-56819356D01*
X150816153Y-56825875D01*
X150727633Y-56825875D01*
X150661450Y-56819356D01*
X150595266Y-56812838D01*
X150482040Y-56778491D01*
X150425426Y-56761318D01*
X150271824Y-56679215D01*
X150268902Y-56677653D01*
X150215900Y-56634155D01*
X150131707Y-56565061D01*
X150048445Y-56463604D01*
X150019115Y-56427866D01*
X150009545Y-56409962D01*
X149935450Y-56271342D01*
X149918277Y-56214728D01*
X149883930Y-56101502D01*
X149866534Y-55924875D01*
X149883930Y-55748248D01*
X149935450Y-55578409D01*
X149935450Y-55578408D01*
X150019114Y-55421886D01*
X150019115Y-55421884D01*
X150056646Y-55376153D01*
X150131710Y-55284686D01*
X150182779Y-55242775D01*
X150200106Y-55225448D01*
X150213720Y-55205074D01*
X150223098Y-55182435D01*
X150227878Y-55158401D01*
X150228480Y-55146149D01*
X150228480Y-53269640D01*
X151330480Y-53269640D01*
X151330480Y-55158602D01*
X151330480Y-55158602D01*
G37*
G36*
X141170480Y-55158602D02*
X141172882Y-55182988D01*
X141179995Y-55206437D01*
X141191546Y-55228048D01*
X141207092Y-55246990D01*
X141216181Y-55255228D01*
X141252076Y-55284686D01*
X141327140Y-55376153D01*
X141364671Y-55421884D01*
X141364672Y-55421886D01*
X141448336Y-55578408D01*
X141448336Y-55578409D01*
X141499856Y-55748248D01*
X141517252Y-55924875D01*
X141499856Y-56101502D01*
X141465509Y-56214728D01*
X141448336Y-56271342D01*
X141374241Y-56409962D01*
X141364671Y-56427866D01*
X141335341Y-56463604D01*
X141252079Y-56565061D01*
X141167886Y-56634155D01*
X141114884Y-56677653D01*
X141111962Y-56679215D01*
X140958360Y-56761318D01*
X140901746Y-56778491D01*
X140788520Y-56812838D01*
X140722336Y-56819356D01*
X140656153Y-56825875D01*
X140567633Y-56825875D01*
X140501450Y-56819356D01*
X140435266Y-56812838D01*
X140322040Y-56778491D01*
X140265426Y-56761318D01*
X140111824Y-56679215D01*
X140108902Y-56677653D01*
X140055900Y-56634155D01*
X139971707Y-56565061D01*
X139888445Y-56463604D01*
X139859115Y-56427866D01*
X139849545Y-56409962D01*
X139775450Y-56271342D01*
X139758277Y-56214728D01*
X139723930Y-56101502D01*
X139706534Y-55924875D01*
X139723930Y-55748248D01*
X139775450Y-55578409D01*
X139775450Y-55578408D01*
X139859114Y-55421886D01*
X139859115Y-55421884D01*
X139896646Y-55376153D01*
X139971710Y-55284686D01*
X140022779Y-55242775D01*
X140040106Y-55225448D01*
X140053720Y-55205074D01*
X140063098Y-55182435D01*
X140067878Y-55158401D01*
X140068480Y-55146149D01*
X140068480Y-53269640D01*
X141170480Y-53269640D01*
X141170480Y-55158602D01*
X141170480Y-55158602D01*
G37*
G36*
X120209329Y-33930682D02*
X120619971Y-34012363D01*
X121393604Y-34332812D01*
X122087501Y-34796460D01*
X122089858Y-34798035D01*
X122681965Y-35390142D01*
X122681967Y-35390145D01*
X123147188Y-36086396D01*
X123467637Y-36860029D01*
X123549318Y-37270671D01*
X123631000Y-37681312D01*
X123631000Y-38518688D01*
X123586796Y-38740916D01*
X123467637Y-39339971D01*
X123467636Y-39339973D01*
X123466514Y-39345614D01*
X123464112Y-39370000D01*
X123466514Y-39394386D01*
X123467636Y-39400027D01*
X123467637Y-39400029D01*
X123586796Y-39999084D01*
X123609576Y-40113604D01*
X123631000Y-40221313D01*
X123631000Y-41058687D01*
X123467637Y-41879971D01*
X123147188Y-42653604D01*
X122683540Y-43347501D01*
X122681965Y-43349858D01*
X122089858Y-43941965D01*
X122089855Y-43941967D01*
X121393604Y-44407188D01*
X120619971Y-44727637D01*
X120209329Y-44809318D01*
X119798688Y-44891000D01*
X118961312Y-44891000D01*
X118550671Y-44809318D01*
X118140029Y-44727637D01*
X117366396Y-44407188D01*
X116670145Y-43941967D01*
X116670142Y-43941965D01*
X116078035Y-43349858D01*
X116076460Y-43347501D01*
X115612812Y-42653604D01*
X115292363Y-41879971D01*
X115129000Y-41058687D01*
X115129000Y-40221313D01*
X115150425Y-40113604D01*
X115173204Y-39999084D01*
X115292363Y-39400029D01*
X115292364Y-39400027D01*
X115293486Y-39394386D01*
X115295888Y-39370000D01*
X115293486Y-39345614D01*
X115292364Y-39339973D01*
X115292363Y-39339971D01*
X115173204Y-38740916D01*
X115129000Y-38518688D01*
X115129000Y-37681312D01*
X115210682Y-37270671D01*
X115292363Y-36860029D01*
X115612812Y-36086396D01*
X116078033Y-35390145D01*
X116078035Y-35390142D01*
X116670142Y-34798035D01*
X116672499Y-34796460D01*
X117366396Y-34332812D01*
X118140029Y-34012363D01*
X118550671Y-33930681D01*
X118961312Y-33849000D01*
X119798688Y-33849000D01*
X120209329Y-33930682D01*
X120209329Y-33930682D01*
G37*
G36*
X166122336Y-29630394D02*
X166188520Y-29636912D01*
X166301746Y-29671259D01*
X166358360Y-29688432D01*
X166466339Y-29746149D01*
X166514884Y-29772097D01*
X166550622Y-29801427D01*
X166652079Y-29884689D01*
X166735341Y-29986146D01*
X166764671Y-30021884D01*
X166764672Y-30021886D01*
X166848336Y-30178408D01*
X166848336Y-30178409D01*
X166899856Y-30348248D01*
X166917252Y-30524875D01*
X166899856Y-30701502D01*
X166865509Y-30814728D01*
X166848336Y-30871342D01*
X166774241Y-31009962D01*
X166764671Y-31027866D01*
X166727140Y-31073597D01*
X166652076Y-31165064D01*
X166616181Y-31194522D01*
X166598854Y-31211849D01*
X166585240Y-31232223D01*
X166575863Y-31254862D01*
X166571082Y-31278896D01*
X166570480Y-31291148D01*
X166570480Y-33198040D01*
X165468480Y-33198040D01*
X165468480Y-31303601D01*
X165466078Y-31279215D01*
X165458965Y-31255766D01*
X165447414Y-31234155D01*
X165431868Y-31215213D01*
X165422779Y-31206975D01*
X165371710Y-31165064D01*
X165296646Y-31073597D01*
X165259115Y-31027866D01*
X165249545Y-31009962D01*
X165175450Y-30871342D01*
X165158277Y-30814728D01*
X165123930Y-30701502D01*
X165106534Y-30524875D01*
X165123930Y-30348248D01*
X165175450Y-30178409D01*
X165175450Y-30178408D01*
X165259114Y-30021886D01*
X165259115Y-30021884D01*
X165288445Y-29986146D01*
X165371707Y-29884689D01*
X165473164Y-29801427D01*
X165508902Y-29772097D01*
X165557447Y-29746149D01*
X165665426Y-29688432D01*
X165722040Y-29671259D01*
X165835266Y-29636912D01*
X165901450Y-29630394D01*
X165967633Y-29623875D01*
X166056153Y-29623875D01*
X166122336Y-29630394D01*
X166122336Y-29630394D01*
G37*
G36*
X150882336Y-29630394D02*
X150948520Y-29636912D01*
X151061746Y-29671259D01*
X151118360Y-29688432D01*
X151226339Y-29746149D01*
X151274884Y-29772097D01*
X151310622Y-29801427D01*
X151412079Y-29884689D01*
X151495341Y-29986146D01*
X151524671Y-30021884D01*
X151524672Y-30021886D01*
X151608336Y-30178408D01*
X151608336Y-30178409D01*
X151659856Y-30348248D01*
X151677252Y-30524875D01*
X151659856Y-30701502D01*
X151625509Y-30814728D01*
X151608336Y-30871342D01*
X151534241Y-31009962D01*
X151524671Y-31027866D01*
X151487140Y-31073597D01*
X151412076Y-31165064D01*
X151376181Y-31194522D01*
X151358854Y-31211849D01*
X151345240Y-31232223D01*
X151335863Y-31254862D01*
X151331082Y-31278896D01*
X151330480Y-31291148D01*
X151330480Y-33198040D01*
X150228480Y-33198040D01*
X150228480Y-31303601D01*
X150226078Y-31279215D01*
X150218965Y-31255766D01*
X150207414Y-31234155D01*
X150191868Y-31215213D01*
X150182779Y-31206975D01*
X150131710Y-31165064D01*
X150056646Y-31073597D01*
X150019115Y-31027866D01*
X150009545Y-31009962D01*
X149935450Y-30871342D01*
X149918277Y-30814728D01*
X149883930Y-30701502D01*
X149866534Y-30524875D01*
X149883930Y-30348248D01*
X149935450Y-30178409D01*
X149935450Y-30178408D01*
X150019114Y-30021886D01*
X150019115Y-30021884D01*
X150048445Y-29986146D01*
X150131707Y-29884689D01*
X150233164Y-29801427D01*
X150268902Y-29772097D01*
X150317447Y-29746149D01*
X150425426Y-29688432D01*
X150482040Y-29671259D01*
X150595266Y-29636912D01*
X150661450Y-29630394D01*
X150727633Y-29623875D01*
X150816153Y-29623875D01*
X150882336Y-29630394D01*
X150882336Y-29630394D01*
G37*
G36*
X145802336Y-29630394D02*
X145868520Y-29636912D01*
X145981746Y-29671259D01*
X146038360Y-29688432D01*
X146146339Y-29746149D01*
X146194884Y-29772097D01*
X146230622Y-29801427D01*
X146332079Y-29884689D01*
X146415341Y-29986146D01*
X146444671Y-30021884D01*
X146444672Y-30021886D01*
X146528336Y-30178408D01*
X146528336Y-30178409D01*
X146579856Y-30348248D01*
X146597252Y-30524875D01*
X146579856Y-30701502D01*
X146545509Y-30814728D01*
X146528336Y-30871342D01*
X146454241Y-31009962D01*
X146444671Y-31027866D01*
X146407140Y-31073597D01*
X146332076Y-31165064D01*
X146296181Y-31194522D01*
X146278854Y-31211849D01*
X146265240Y-31232223D01*
X146255863Y-31254862D01*
X146251082Y-31278896D01*
X146250480Y-31291148D01*
X146250480Y-33198040D01*
X145148480Y-33198040D01*
X145148480Y-31303601D01*
X145146078Y-31279215D01*
X145138965Y-31255766D01*
X145127414Y-31234155D01*
X145111868Y-31215213D01*
X145102779Y-31206975D01*
X145051710Y-31165064D01*
X144976646Y-31073597D01*
X144939115Y-31027866D01*
X144929545Y-31009962D01*
X144855450Y-30871342D01*
X144838277Y-30814728D01*
X144803930Y-30701502D01*
X144786534Y-30524875D01*
X144803930Y-30348248D01*
X144855450Y-30178409D01*
X144855450Y-30178408D01*
X144939114Y-30021886D01*
X144939115Y-30021884D01*
X144968445Y-29986146D01*
X145051707Y-29884689D01*
X145153164Y-29801427D01*
X145188902Y-29772097D01*
X145237447Y-29746149D01*
X145345426Y-29688432D01*
X145402040Y-29671259D01*
X145515266Y-29636912D01*
X145581450Y-29630394D01*
X145647633Y-29623875D01*
X145736153Y-29623875D01*
X145802336Y-29630394D01*
X145802336Y-29630394D01*
G37*
G36*
X155962336Y-29630394D02*
X156028520Y-29636912D01*
X156141746Y-29671259D01*
X156198360Y-29688432D01*
X156306339Y-29746149D01*
X156354884Y-29772097D01*
X156390622Y-29801427D01*
X156492079Y-29884689D01*
X156575341Y-29986146D01*
X156604671Y-30021884D01*
X156604672Y-30021886D01*
X156688336Y-30178408D01*
X156688336Y-30178409D01*
X156739856Y-30348248D01*
X156757252Y-30524875D01*
X156739856Y-30701502D01*
X156705509Y-30814728D01*
X156688336Y-30871342D01*
X156614241Y-31009962D01*
X156604671Y-31027866D01*
X156567140Y-31073597D01*
X156492076Y-31165064D01*
X156456181Y-31194522D01*
X156438854Y-31211849D01*
X156425240Y-31232223D01*
X156415863Y-31254862D01*
X156411082Y-31278896D01*
X156410480Y-31291148D01*
X156410480Y-33198040D01*
X155308480Y-33198040D01*
X155308480Y-31303601D01*
X155306078Y-31279215D01*
X155298965Y-31255766D01*
X155287414Y-31234155D01*
X155271868Y-31215213D01*
X155262779Y-31206975D01*
X155211710Y-31165064D01*
X155136646Y-31073597D01*
X155099115Y-31027866D01*
X155089545Y-31009962D01*
X155015450Y-30871342D01*
X154998277Y-30814728D01*
X154963930Y-30701502D01*
X154946534Y-30524875D01*
X154963930Y-30348248D01*
X155015450Y-30178409D01*
X155015450Y-30178408D01*
X155099114Y-30021886D01*
X155099115Y-30021884D01*
X155128445Y-29986146D01*
X155211707Y-29884689D01*
X155313164Y-29801427D01*
X155348902Y-29772097D01*
X155397447Y-29746149D01*
X155505426Y-29688432D01*
X155562040Y-29671259D01*
X155675266Y-29636912D01*
X155741450Y-29630394D01*
X155807633Y-29623875D01*
X155896153Y-29623875D01*
X155962336Y-29630394D01*
X155962336Y-29630394D01*
G37*
G36*
X177072893Y-31425875D02*
X176855480Y-31425875D01*
X176831094Y-31428277D01*
X176807645Y-31435390D01*
X176786034Y-31446941D01*
X176767092Y-31462487D01*
X176751546Y-31481429D01*
X176739995Y-31503040D01*
X176732882Y-31526489D01*
X176730480Y-31550875D01*
X176730480Y-33198040D01*
X175628480Y-33198040D01*
X175628480Y-31550875D01*
X175626078Y-31526489D01*
X175618965Y-31503040D01*
X175607414Y-31481429D01*
X175591868Y-31462487D01*
X175572926Y-31446941D01*
X175551315Y-31435390D01*
X175527866Y-31428277D01*
X175503480Y-31425875D01*
X175270893Y-31425875D01*
X175270893Y-29623875D01*
X177072893Y-29623875D01*
X177072893Y-31425875D01*
X177072893Y-31425875D01*
G37*
G36*
X171202336Y-29630394D02*
X171268520Y-29636912D01*
X171381746Y-29671259D01*
X171438360Y-29688432D01*
X171546339Y-29746149D01*
X171594884Y-29772097D01*
X171630622Y-29801427D01*
X171732079Y-29884689D01*
X171815341Y-29986146D01*
X171844671Y-30021884D01*
X171844672Y-30021886D01*
X171928336Y-30178408D01*
X171928336Y-30178409D01*
X171979856Y-30348248D01*
X171997252Y-30524875D01*
X171979856Y-30701502D01*
X171945509Y-30814728D01*
X171928336Y-30871342D01*
X171854241Y-31009962D01*
X171844671Y-31027866D01*
X171807140Y-31073597D01*
X171732076Y-31165064D01*
X171696181Y-31194522D01*
X171678854Y-31211849D01*
X171665240Y-31232223D01*
X171655863Y-31254862D01*
X171651082Y-31278896D01*
X171650480Y-31291148D01*
X171650480Y-33198040D01*
X170548480Y-33198040D01*
X170548480Y-31303601D01*
X170546078Y-31279215D01*
X170538965Y-31255766D01*
X170527414Y-31234155D01*
X170511868Y-31215213D01*
X170502779Y-31206975D01*
X170451710Y-31165064D01*
X170376646Y-31073597D01*
X170339115Y-31027866D01*
X170329545Y-31009962D01*
X170255450Y-30871342D01*
X170238277Y-30814728D01*
X170203930Y-30701502D01*
X170186534Y-30524875D01*
X170203930Y-30348248D01*
X170255450Y-30178409D01*
X170255450Y-30178408D01*
X170339114Y-30021886D01*
X170339115Y-30021884D01*
X170368445Y-29986146D01*
X170451707Y-29884689D01*
X170553164Y-29801427D01*
X170588902Y-29772097D01*
X170637447Y-29746149D01*
X170745426Y-29688432D01*
X170802040Y-29671259D01*
X170915266Y-29636912D01*
X170981450Y-29630394D01*
X171047633Y-29623875D01*
X171136153Y-29623875D01*
X171202336Y-29630394D01*
X171202336Y-29630394D01*
G37*
G36*
X130562336Y-29630394D02*
X130628520Y-29636912D01*
X130741746Y-29671259D01*
X130798360Y-29688432D01*
X130906339Y-29746149D01*
X130954884Y-29772097D01*
X130990622Y-29801427D01*
X131092079Y-29884689D01*
X131175341Y-29986146D01*
X131204671Y-30021884D01*
X131204672Y-30021886D01*
X131288336Y-30178408D01*
X131288336Y-30178409D01*
X131339856Y-30348248D01*
X131357252Y-30524875D01*
X131339856Y-30701502D01*
X131305509Y-30814728D01*
X131288336Y-30871342D01*
X131214241Y-31009962D01*
X131204671Y-31027866D01*
X131167140Y-31073597D01*
X131092076Y-31165064D01*
X131056181Y-31194522D01*
X131038854Y-31211849D01*
X131025240Y-31232223D01*
X131015863Y-31254862D01*
X131011082Y-31278896D01*
X131010480Y-31291148D01*
X131010480Y-33198040D01*
X129908480Y-33198040D01*
X129908480Y-31303601D01*
X129906078Y-31279215D01*
X129898965Y-31255766D01*
X129887414Y-31234155D01*
X129871868Y-31215213D01*
X129862779Y-31206975D01*
X129811710Y-31165064D01*
X129736646Y-31073597D01*
X129699115Y-31027866D01*
X129689545Y-31009962D01*
X129615450Y-30871342D01*
X129598277Y-30814728D01*
X129563930Y-30701502D01*
X129546534Y-30524875D01*
X129563930Y-30348248D01*
X129615450Y-30178409D01*
X129615450Y-30178408D01*
X129699114Y-30021886D01*
X129699115Y-30021884D01*
X129728445Y-29986146D01*
X129811707Y-29884689D01*
X129913164Y-29801427D01*
X129948902Y-29772097D01*
X129997447Y-29746149D01*
X130105426Y-29688432D01*
X130162040Y-29671259D01*
X130275266Y-29636912D01*
X130341450Y-29630394D01*
X130407633Y-29623875D01*
X130496153Y-29623875D01*
X130562336Y-29630394D01*
X130562336Y-29630394D01*
G37*
G36*
X135642336Y-29630394D02*
X135708520Y-29636912D01*
X135821746Y-29671259D01*
X135878360Y-29688432D01*
X135986339Y-29746149D01*
X136034884Y-29772097D01*
X136070622Y-29801427D01*
X136172079Y-29884689D01*
X136255341Y-29986146D01*
X136284671Y-30021884D01*
X136284672Y-30021886D01*
X136368336Y-30178408D01*
X136368336Y-30178409D01*
X136419856Y-30348248D01*
X136437252Y-30524875D01*
X136419856Y-30701502D01*
X136385509Y-30814728D01*
X136368336Y-30871342D01*
X136294241Y-31009962D01*
X136284671Y-31027866D01*
X136247140Y-31073597D01*
X136172076Y-31165064D01*
X136136181Y-31194522D01*
X136118854Y-31211849D01*
X136105240Y-31232223D01*
X136095863Y-31254862D01*
X136091082Y-31278896D01*
X136090480Y-31291148D01*
X136090480Y-33198040D01*
X134988480Y-33198040D01*
X134988480Y-31303601D01*
X134986078Y-31279215D01*
X134978965Y-31255766D01*
X134967414Y-31234155D01*
X134951868Y-31215213D01*
X134942779Y-31206975D01*
X134891710Y-31165064D01*
X134816646Y-31073597D01*
X134779115Y-31027866D01*
X134769545Y-31009962D01*
X134695450Y-30871342D01*
X134678277Y-30814728D01*
X134643930Y-30701502D01*
X134626534Y-30524875D01*
X134643930Y-30348248D01*
X134695450Y-30178409D01*
X134695450Y-30178408D01*
X134779114Y-30021886D01*
X134779115Y-30021884D01*
X134808445Y-29986146D01*
X134891707Y-29884689D01*
X134993164Y-29801427D01*
X135028902Y-29772097D01*
X135077447Y-29746149D01*
X135185426Y-29688432D01*
X135242040Y-29671259D01*
X135355266Y-29636912D01*
X135421450Y-29630394D01*
X135487633Y-29623875D01*
X135576153Y-29623875D01*
X135642336Y-29630394D01*
X135642336Y-29630394D01*
G37*
G36*
X140722336Y-29630394D02*
X140788520Y-29636912D01*
X140901746Y-29671259D01*
X140958360Y-29688432D01*
X141066339Y-29746149D01*
X141114884Y-29772097D01*
X141150622Y-29801427D01*
X141252079Y-29884689D01*
X141335341Y-29986146D01*
X141364671Y-30021884D01*
X141364672Y-30021886D01*
X141448336Y-30178408D01*
X141448336Y-30178409D01*
X141499856Y-30348248D01*
X141517252Y-30524875D01*
X141499856Y-30701502D01*
X141465509Y-30814728D01*
X141448336Y-30871342D01*
X141374241Y-31009962D01*
X141364671Y-31027866D01*
X141327140Y-31073597D01*
X141252076Y-31165064D01*
X141216181Y-31194522D01*
X141198854Y-31211849D01*
X141185240Y-31232223D01*
X141175863Y-31254862D01*
X141171082Y-31278896D01*
X141170480Y-31291148D01*
X141170480Y-33198040D01*
X140068480Y-33198040D01*
X140068480Y-31303601D01*
X140066078Y-31279215D01*
X140058965Y-31255766D01*
X140047414Y-31234155D01*
X140031868Y-31215213D01*
X140022779Y-31206975D01*
X139971710Y-31165064D01*
X139896646Y-31073597D01*
X139859115Y-31027866D01*
X139849545Y-31009962D01*
X139775450Y-30871342D01*
X139758277Y-30814728D01*
X139723930Y-30701502D01*
X139706534Y-30524875D01*
X139723930Y-30348248D01*
X139775450Y-30178409D01*
X139775450Y-30178408D01*
X139859114Y-30021886D01*
X139859115Y-30021884D01*
X139888445Y-29986146D01*
X139971707Y-29884689D01*
X140073164Y-29801427D01*
X140108902Y-29772097D01*
X140157447Y-29746149D01*
X140265426Y-29688432D01*
X140322040Y-29671259D01*
X140435266Y-29636912D01*
X140501450Y-29630394D01*
X140567633Y-29623875D01*
X140656153Y-29623875D01*
X140722336Y-29630394D01*
X140722336Y-29630394D01*
G37*
G36*
X161042336Y-29630394D02*
X161108520Y-29636912D01*
X161221746Y-29671259D01*
X161278360Y-29688432D01*
X161386339Y-29746149D01*
X161434884Y-29772097D01*
X161470622Y-29801427D01*
X161572079Y-29884689D01*
X161655341Y-29986146D01*
X161684671Y-30021884D01*
X161684672Y-30021886D01*
X161768336Y-30178408D01*
X161768336Y-30178409D01*
X161819856Y-30348248D01*
X161837252Y-30524875D01*
X161819856Y-30701502D01*
X161785509Y-30814728D01*
X161768336Y-30871342D01*
X161694241Y-31009962D01*
X161684671Y-31027866D01*
X161647140Y-31073597D01*
X161572076Y-31165064D01*
X161536181Y-31194522D01*
X161518854Y-31211849D01*
X161505240Y-31232223D01*
X161495863Y-31254862D01*
X161491082Y-31278896D01*
X161490480Y-31291148D01*
X161490480Y-33198040D01*
X160388480Y-33198040D01*
X160388480Y-31303601D01*
X160386078Y-31279215D01*
X160378965Y-31255766D01*
X160367414Y-31234155D01*
X160351868Y-31215213D01*
X160342779Y-31206975D01*
X160291710Y-31165064D01*
X160216646Y-31073597D01*
X160179115Y-31027866D01*
X160169545Y-31009962D01*
X160095450Y-30871342D01*
X160078277Y-30814728D01*
X160043930Y-30701502D01*
X160026534Y-30524875D01*
X160043930Y-30348248D01*
X160095450Y-30178409D01*
X160095450Y-30178408D01*
X160179114Y-30021886D01*
X160179115Y-30021884D01*
X160208445Y-29986146D01*
X160291707Y-29884689D01*
X160393164Y-29801427D01*
X160428902Y-29772097D01*
X160477447Y-29746149D01*
X160585426Y-29688432D01*
X160642040Y-29671259D01*
X160755266Y-29636912D01*
X160821450Y-29630394D01*
X160887633Y-29623875D01*
X160976153Y-29623875D01*
X161042336Y-29630394D01*
X161042336Y-29630394D01*
G37*
G36*
X148790480Y-29758602D02*
X148792882Y-29782988D01*
X148799995Y-29806437D01*
X148811546Y-29828048D01*
X148827092Y-29846990D01*
X148836181Y-29855228D01*
X148872076Y-29884686D01*
X148947140Y-29976153D01*
X148984671Y-30021884D01*
X148984672Y-30021886D01*
X149068336Y-30178408D01*
X149068336Y-30178409D01*
X149119856Y-30348248D01*
X149137252Y-30524875D01*
X149119856Y-30701502D01*
X149085509Y-30814728D01*
X149068336Y-30871342D01*
X148994241Y-31009962D01*
X148984671Y-31027866D01*
X148955341Y-31063604D01*
X148872079Y-31165061D01*
X148787886Y-31234155D01*
X148734884Y-31277653D01*
X148731962Y-31279215D01*
X148578360Y-31361318D01*
X148521746Y-31378491D01*
X148408520Y-31412838D01*
X148342335Y-31419357D01*
X148276153Y-31425875D01*
X148187633Y-31425875D01*
X148121451Y-31419357D01*
X148055266Y-31412838D01*
X147942040Y-31378491D01*
X147885426Y-31361318D01*
X147731824Y-31279215D01*
X147728902Y-31277653D01*
X147675900Y-31234155D01*
X147591707Y-31165061D01*
X147508445Y-31063604D01*
X147479115Y-31027866D01*
X147469545Y-31009962D01*
X147395450Y-30871342D01*
X147378277Y-30814728D01*
X147343930Y-30701502D01*
X147326534Y-30524875D01*
X147343930Y-30348248D01*
X147395450Y-30178409D01*
X147395450Y-30178408D01*
X147479114Y-30021886D01*
X147479115Y-30021884D01*
X147516646Y-29976153D01*
X147591710Y-29884686D01*
X147642779Y-29842775D01*
X147660106Y-29825448D01*
X147673720Y-29805074D01*
X147683098Y-29782435D01*
X147687878Y-29758401D01*
X147688480Y-29746149D01*
X147688480Y-27896040D01*
X148790480Y-27896040D01*
X148790480Y-29758602D01*
X148790480Y-29758602D01*
G37*
G36*
X138630480Y-29758602D02*
X138632882Y-29782988D01*
X138639995Y-29806437D01*
X138651546Y-29828048D01*
X138667092Y-29846990D01*
X138676181Y-29855228D01*
X138712076Y-29884686D01*
X138787140Y-29976153D01*
X138824671Y-30021884D01*
X138824672Y-30021886D01*
X138908336Y-30178408D01*
X138908336Y-30178409D01*
X138959856Y-30348248D01*
X138977252Y-30524875D01*
X138959856Y-30701502D01*
X138925509Y-30814728D01*
X138908336Y-30871342D01*
X138834241Y-31009962D01*
X138824671Y-31027866D01*
X138795341Y-31063604D01*
X138712079Y-31165061D01*
X138627886Y-31234155D01*
X138574884Y-31277653D01*
X138571962Y-31279215D01*
X138418360Y-31361318D01*
X138361746Y-31378491D01*
X138248520Y-31412838D01*
X138182335Y-31419357D01*
X138116153Y-31425875D01*
X138027633Y-31425875D01*
X137961451Y-31419357D01*
X137895266Y-31412838D01*
X137782040Y-31378491D01*
X137725426Y-31361318D01*
X137571824Y-31279215D01*
X137568902Y-31277653D01*
X137515900Y-31234155D01*
X137431707Y-31165061D01*
X137348445Y-31063604D01*
X137319115Y-31027866D01*
X137309545Y-31009962D01*
X137235450Y-30871342D01*
X137218277Y-30814728D01*
X137183930Y-30701502D01*
X137166534Y-30524875D01*
X137183930Y-30348248D01*
X137235450Y-30178409D01*
X137235450Y-30178408D01*
X137319114Y-30021886D01*
X137319115Y-30021884D01*
X137356646Y-29976153D01*
X137431710Y-29884686D01*
X137482779Y-29842775D01*
X137500106Y-29825448D01*
X137513720Y-29805074D01*
X137523098Y-29782435D01*
X137527878Y-29758401D01*
X137528480Y-29746149D01*
X137528480Y-27896040D01*
X138630480Y-27896040D01*
X138630480Y-29758602D01*
X138630480Y-29758602D01*
G37*
G36*
X153870480Y-29758602D02*
X153872882Y-29782988D01*
X153879995Y-29806437D01*
X153891546Y-29828048D01*
X153907092Y-29846990D01*
X153916181Y-29855228D01*
X153952076Y-29884686D01*
X154027140Y-29976153D01*
X154064671Y-30021884D01*
X154064672Y-30021886D01*
X154148336Y-30178408D01*
X154148336Y-30178409D01*
X154199856Y-30348248D01*
X154217252Y-30524875D01*
X154199856Y-30701502D01*
X154165509Y-30814728D01*
X154148336Y-30871342D01*
X154074241Y-31009962D01*
X154064671Y-31027866D01*
X154035341Y-31063604D01*
X153952079Y-31165061D01*
X153867886Y-31234155D01*
X153814884Y-31277653D01*
X153811962Y-31279215D01*
X153658360Y-31361318D01*
X153601746Y-31378491D01*
X153488520Y-31412838D01*
X153422335Y-31419357D01*
X153356153Y-31425875D01*
X153267633Y-31425875D01*
X153201451Y-31419357D01*
X153135266Y-31412838D01*
X153022040Y-31378491D01*
X152965426Y-31361318D01*
X152811824Y-31279215D01*
X152808902Y-31277653D01*
X152755900Y-31234155D01*
X152671707Y-31165061D01*
X152588445Y-31063604D01*
X152559115Y-31027866D01*
X152549545Y-31009962D01*
X152475450Y-30871342D01*
X152458277Y-30814728D01*
X152423930Y-30701502D01*
X152406534Y-30524875D01*
X152423930Y-30348248D01*
X152475450Y-30178409D01*
X152475450Y-30178408D01*
X152559114Y-30021886D01*
X152559115Y-30021884D01*
X152596646Y-29976153D01*
X152671710Y-29884686D01*
X152722779Y-29842775D01*
X152740106Y-29825448D01*
X152753720Y-29805074D01*
X152763098Y-29782435D01*
X152767878Y-29758401D01*
X152768480Y-29746149D01*
X152768480Y-27896040D01*
X153870480Y-27896040D01*
X153870480Y-29758602D01*
X153870480Y-29758602D01*
G37*
G36*
X158950480Y-29758602D02*
X158952882Y-29782988D01*
X158959995Y-29806437D01*
X158971546Y-29828048D01*
X158987092Y-29846990D01*
X158996181Y-29855228D01*
X159032076Y-29884686D01*
X159107140Y-29976153D01*
X159144671Y-30021884D01*
X159144672Y-30021886D01*
X159228336Y-30178408D01*
X159228336Y-30178409D01*
X159279856Y-30348248D01*
X159297252Y-30524875D01*
X159279856Y-30701502D01*
X159245509Y-30814728D01*
X159228336Y-30871342D01*
X159154241Y-31009962D01*
X159144671Y-31027866D01*
X159115341Y-31063604D01*
X159032079Y-31165061D01*
X158947886Y-31234155D01*
X158894884Y-31277653D01*
X158891962Y-31279215D01*
X158738360Y-31361318D01*
X158681746Y-31378491D01*
X158568520Y-31412838D01*
X158502335Y-31419357D01*
X158436153Y-31425875D01*
X158347633Y-31425875D01*
X158281451Y-31419357D01*
X158215266Y-31412838D01*
X158102040Y-31378491D01*
X158045426Y-31361318D01*
X157891824Y-31279215D01*
X157888902Y-31277653D01*
X157835900Y-31234155D01*
X157751707Y-31165061D01*
X157668445Y-31063604D01*
X157639115Y-31027866D01*
X157629545Y-31009962D01*
X157555450Y-30871342D01*
X157538277Y-30814728D01*
X157503930Y-30701502D01*
X157486534Y-30524875D01*
X157503930Y-30348248D01*
X157555450Y-30178409D01*
X157555450Y-30178408D01*
X157639114Y-30021886D01*
X157639115Y-30021884D01*
X157676646Y-29976153D01*
X157751710Y-29884686D01*
X157802779Y-29842775D01*
X157820106Y-29825448D01*
X157833720Y-29805074D01*
X157843098Y-29782435D01*
X157847878Y-29758401D01*
X157848480Y-29746149D01*
X157848480Y-27896040D01*
X158950480Y-27896040D01*
X158950480Y-29758602D01*
X158950480Y-29758602D01*
G37*
G36*
X164030480Y-29758602D02*
X164032882Y-29782988D01*
X164039995Y-29806437D01*
X164051546Y-29828048D01*
X164067092Y-29846990D01*
X164076181Y-29855228D01*
X164112076Y-29884686D01*
X164187140Y-29976153D01*
X164224671Y-30021884D01*
X164224672Y-30021886D01*
X164308336Y-30178408D01*
X164308336Y-30178409D01*
X164359856Y-30348248D01*
X164377252Y-30524875D01*
X164359856Y-30701502D01*
X164325509Y-30814728D01*
X164308336Y-30871342D01*
X164234241Y-31009962D01*
X164224671Y-31027866D01*
X164195341Y-31063604D01*
X164112079Y-31165061D01*
X164027886Y-31234155D01*
X163974884Y-31277653D01*
X163971962Y-31279215D01*
X163818360Y-31361318D01*
X163761746Y-31378491D01*
X163648520Y-31412838D01*
X163582335Y-31419357D01*
X163516153Y-31425875D01*
X163427633Y-31425875D01*
X163361451Y-31419357D01*
X163295266Y-31412838D01*
X163182040Y-31378491D01*
X163125426Y-31361318D01*
X162971824Y-31279215D01*
X162968902Y-31277653D01*
X162915900Y-31234155D01*
X162831707Y-31165061D01*
X162748445Y-31063604D01*
X162719115Y-31027866D01*
X162709545Y-31009962D01*
X162635450Y-30871342D01*
X162618277Y-30814728D01*
X162583930Y-30701502D01*
X162566534Y-30524875D01*
X162583930Y-30348248D01*
X162635450Y-30178409D01*
X162635450Y-30178408D01*
X162719114Y-30021886D01*
X162719115Y-30021884D01*
X162756646Y-29976153D01*
X162831710Y-29884686D01*
X162882779Y-29842775D01*
X162900106Y-29825448D01*
X162913720Y-29805074D01*
X162923098Y-29782435D01*
X162927878Y-29758401D01*
X162928480Y-29746149D01*
X162928480Y-27896040D01*
X164030480Y-27896040D01*
X164030480Y-29758602D01*
X164030480Y-29758602D01*
G37*
G36*
X169110480Y-29758602D02*
X169112882Y-29782988D01*
X169119995Y-29806437D01*
X169131546Y-29828048D01*
X169147092Y-29846990D01*
X169156181Y-29855228D01*
X169192076Y-29884686D01*
X169267140Y-29976153D01*
X169304671Y-30021884D01*
X169304672Y-30021886D01*
X169388336Y-30178408D01*
X169388336Y-30178409D01*
X169439856Y-30348248D01*
X169457252Y-30524875D01*
X169439856Y-30701502D01*
X169405509Y-30814728D01*
X169388336Y-30871342D01*
X169314241Y-31009962D01*
X169304671Y-31027866D01*
X169275341Y-31063604D01*
X169192079Y-31165061D01*
X169107886Y-31234155D01*
X169054884Y-31277653D01*
X169051962Y-31279215D01*
X168898360Y-31361318D01*
X168841746Y-31378491D01*
X168728520Y-31412838D01*
X168662335Y-31419357D01*
X168596153Y-31425875D01*
X168507633Y-31425875D01*
X168441451Y-31419357D01*
X168375266Y-31412838D01*
X168262040Y-31378491D01*
X168205426Y-31361318D01*
X168051824Y-31279215D01*
X168048902Y-31277653D01*
X167995900Y-31234155D01*
X167911707Y-31165061D01*
X167828445Y-31063604D01*
X167799115Y-31027866D01*
X167789545Y-31009962D01*
X167715450Y-30871342D01*
X167698277Y-30814728D01*
X167663930Y-30701502D01*
X167646534Y-30524875D01*
X167663930Y-30348248D01*
X167715450Y-30178409D01*
X167715450Y-30178408D01*
X167799114Y-30021886D01*
X167799115Y-30021884D01*
X167836646Y-29976153D01*
X167911710Y-29884686D01*
X167962779Y-29842775D01*
X167980106Y-29825448D01*
X167993720Y-29805074D01*
X168003098Y-29782435D01*
X168007878Y-29758401D01*
X168008480Y-29746149D01*
X168008480Y-27896040D01*
X169110480Y-27896040D01*
X169110480Y-29758602D01*
X169110480Y-29758602D01*
G37*
G36*
X133550480Y-29758602D02*
X133552882Y-29782988D01*
X133559995Y-29806437D01*
X133571546Y-29828048D01*
X133587092Y-29846990D01*
X133596181Y-29855228D01*
X133632076Y-29884686D01*
X133707140Y-29976153D01*
X133744671Y-30021884D01*
X133744672Y-30021886D01*
X133828336Y-30178408D01*
X133828336Y-30178409D01*
X133879856Y-30348248D01*
X133897252Y-30524875D01*
X133879856Y-30701502D01*
X133845509Y-30814728D01*
X133828336Y-30871342D01*
X133754241Y-31009962D01*
X133744671Y-31027866D01*
X133715341Y-31063604D01*
X133632079Y-31165061D01*
X133547886Y-31234155D01*
X133494884Y-31277653D01*
X133491962Y-31279215D01*
X133338360Y-31361318D01*
X133281746Y-31378491D01*
X133168520Y-31412838D01*
X133102335Y-31419357D01*
X133036153Y-31425875D01*
X132947633Y-31425875D01*
X132881451Y-31419357D01*
X132815266Y-31412838D01*
X132702040Y-31378491D01*
X132645426Y-31361318D01*
X132491824Y-31279215D01*
X132488902Y-31277653D01*
X132435900Y-31234155D01*
X132351707Y-31165061D01*
X132268445Y-31063604D01*
X132239115Y-31027866D01*
X132229545Y-31009962D01*
X132155450Y-30871342D01*
X132138277Y-30814728D01*
X132103930Y-30701502D01*
X132086534Y-30524875D01*
X132103930Y-30348248D01*
X132155450Y-30178409D01*
X132155450Y-30178408D01*
X132239114Y-30021886D01*
X132239115Y-30021884D01*
X132276646Y-29976153D01*
X132351710Y-29884686D01*
X132402779Y-29842775D01*
X132420106Y-29825448D01*
X132433720Y-29805074D01*
X132443098Y-29782435D01*
X132447878Y-29758401D01*
X132448480Y-29746149D01*
X132448480Y-27896040D01*
X133550480Y-27896040D01*
X133550480Y-29758602D01*
X133550480Y-29758602D01*
G37*
G36*
X143710480Y-29758602D02*
X143712882Y-29782988D01*
X143719995Y-29806437D01*
X143731546Y-29828048D01*
X143747092Y-29846990D01*
X143756181Y-29855228D01*
X143792076Y-29884686D01*
X143867140Y-29976153D01*
X143904671Y-30021884D01*
X143904672Y-30021886D01*
X143988336Y-30178408D01*
X143988336Y-30178409D01*
X144039856Y-30348248D01*
X144057252Y-30524875D01*
X144039856Y-30701502D01*
X144005509Y-30814728D01*
X143988336Y-30871342D01*
X143914241Y-31009962D01*
X143904671Y-31027866D01*
X143875341Y-31063604D01*
X143792079Y-31165061D01*
X143707886Y-31234155D01*
X143654884Y-31277653D01*
X143651962Y-31279215D01*
X143498360Y-31361318D01*
X143441746Y-31378491D01*
X143328520Y-31412838D01*
X143262335Y-31419357D01*
X143196153Y-31425875D01*
X143107633Y-31425875D01*
X143041451Y-31419357D01*
X142975266Y-31412838D01*
X142862040Y-31378491D01*
X142805426Y-31361318D01*
X142651824Y-31279215D01*
X142648902Y-31277653D01*
X142595900Y-31234155D01*
X142511707Y-31165061D01*
X142428445Y-31063604D01*
X142399115Y-31027866D01*
X142389545Y-31009962D01*
X142315450Y-30871342D01*
X142298277Y-30814728D01*
X142263930Y-30701502D01*
X142246534Y-30524875D01*
X142263930Y-30348248D01*
X142315450Y-30178409D01*
X142315450Y-30178408D01*
X142399114Y-30021886D01*
X142399115Y-30021884D01*
X142436646Y-29976153D01*
X142511710Y-29884686D01*
X142562779Y-29842775D01*
X142580106Y-29825448D01*
X142593720Y-29805074D01*
X142603098Y-29782435D01*
X142607878Y-29758401D01*
X142608480Y-29746149D01*
X142608480Y-27896040D01*
X143710480Y-27896040D01*
X143710480Y-29758602D01*
X143710480Y-29758602D01*
G37*
G36*
X174190480Y-29758602D02*
X174192882Y-29782988D01*
X174199995Y-29806437D01*
X174211546Y-29828048D01*
X174227092Y-29846990D01*
X174236181Y-29855228D01*
X174272076Y-29884686D01*
X174347140Y-29976153D01*
X174384671Y-30021884D01*
X174384672Y-30021886D01*
X174468336Y-30178408D01*
X174468336Y-30178409D01*
X174519856Y-30348248D01*
X174537252Y-30524875D01*
X174519856Y-30701502D01*
X174485509Y-30814728D01*
X174468336Y-30871342D01*
X174394241Y-31009962D01*
X174384671Y-31027866D01*
X174355341Y-31063604D01*
X174272079Y-31165061D01*
X174187886Y-31234155D01*
X174134884Y-31277653D01*
X174131962Y-31279215D01*
X173978360Y-31361318D01*
X173921746Y-31378491D01*
X173808520Y-31412838D01*
X173742335Y-31419357D01*
X173676153Y-31425875D01*
X173587633Y-31425875D01*
X173521451Y-31419357D01*
X173455266Y-31412838D01*
X173342040Y-31378491D01*
X173285426Y-31361318D01*
X173131824Y-31279215D01*
X173128902Y-31277653D01*
X173075900Y-31234155D01*
X172991707Y-31165061D01*
X172908445Y-31063604D01*
X172879115Y-31027866D01*
X172869545Y-31009962D01*
X172795450Y-30871342D01*
X172778277Y-30814728D01*
X172743930Y-30701502D01*
X172726534Y-30524875D01*
X172743930Y-30348248D01*
X172795450Y-30178409D01*
X172795450Y-30178408D01*
X172879114Y-30021886D01*
X172879115Y-30021884D01*
X172916646Y-29976153D01*
X172991710Y-29884686D01*
X173042779Y-29842775D01*
X173060106Y-29825448D01*
X173073720Y-29805074D01*
X173083098Y-29782435D01*
X173087878Y-29758401D01*
X173088480Y-29746149D01*
X173088480Y-27896040D01*
X174190480Y-27896040D01*
X174190480Y-29758602D01*
X174190480Y-29758602D01*
G37*
G36*
X181466442Y-22727518D02*
X181532627Y-22734037D01*
X181645853Y-22768384D01*
X181702467Y-22785557D01*
X181841087Y-22859652D01*
X181858991Y-22869222D01*
X181872186Y-22880051D01*
X181996186Y-22981814D01*
X182066685Y-23067719D01*
X182108778Y-23119009D01*
X182108779Y-23119011D01*
X182192443Y-23275533D01*
X182192443Y-23275534D01*
X182243963Y-23445373D01*
X182261359Y-23622000D01*
X182243963Y-23798627D01*
X182217904Y-23884531D01*
X182192443Y-23968467D01*
X182163173Y-24023226D01*
X182108778Y-24124991D01*
X182092073Y-24145346D01*
X181996186Y-24262186D01*
X181894729Y-24345448D01*
X181858991Y-24374778D01*
X181858989Y-24374779D01*
X181702467Y-24458443D01*
X181645853Y-24475616D01*
X181532627Y-24509963D01*
X181466442Y-24516482D01*
X181400260Y-24523000D01*
X181311740Y-24523000D01*
X181245558Y-24516482D01*
X181179373Y-24509963D01*
X181066147Y-24475616D01*
X181009533Y-24458443D01*
X180853011Y-24374779D01*
X180853009Y-24374778D01*
X180817271Y-24345448D01*
X180715814Y-24262186D01*
X180619927Y-24145346D01*
X180603222Y-24124991D01*
X180548827Y-24023226D01*
X180519557Y-23968467D01*
X180494096Y-23884531D01*
X180468037Y-23798627D01*
X180450641Y-23622000D01*
X180468037Y-23445373D01*
X180519557Y-23275534D01*
X180519557Y-23275533D01*
X180603221Y-23119011D01*
X180603222Y-23119009D01*
X180645315Y-23067719D01*
X180715814Y-22981814D01*
X180839814Y-22880051D01*
X180853009Y-22869222D01*
X180870913Y-22859652D01*
X181009533Y-22785557D01*
X181066147Y-22768384D01*
X181179373Y-22734037D01*
X181245557Y-22727519D01*
X181311740Y-22721000D01*
X181400260Y-22721000D01*
X181466442Y-22727518D01*
X181466442Y-22727518D01*
G37*
G36*
X178926442Y-22727518D02*
X178992627Y-22734037D01*
X179105853Y-22768384D01*
X179162467Y-22785557D01*
X179301087Y-22859652D01*
X179318991Y-22869222D01*
X179332186Y-22880051D01*
X179456186Y-22981814D01*
X179526685Y-23067719D01*
X179568778Y-23119009D01*
X179568779Y-23119011D01*
X179652443Y-23275533D01*
X179652443Y-23275534D01*
X179703963Y-23445373D01*
X179721359Y-23622000D01*
X179703963Y-23798627D01*
X179677904Y-23884531D01*
X179652443Y-23968467D01*
X179623173Y-24023226D01*
X179568778Y-24124991D01*
X179552073Y-24145346D01*
X179456186Y-24262186D01*
X179354729Y-24345448D01*
X179318991Y-24374778D01*
X179318989Y-24374779D01*
X179162467Y-24458443D01*
X179105853Y-24475616D01*
X178992627Y-24509963D01*
X178926442Y-24516482D01*
X178860260Y-24523000D01*
X178771740Y-24523000D01*
X178705558Y-24516482D01*
X178639373Y-24509963D01*
X178526147Y-24475616D01*
X178469533Y-24458443D01*
X178313011Y-24374779D01*
X178313009Y-24374778D01*
X178277271Y-24345448D01*
X178175814Y-24262186D01*
X178079927Y-24145346D01*
X178063222Y-24124991D01*
X178008827Y-24023226D01*
X177979557Y-23968467D01*
X177954096Y-23884531D01*
X177928037Y-23798627D01*
X177910641Y-23622000D01*
X177928037Y-23445373D01*
X177979557Y-23275534D01*
X177979557Y-23275533D01*
X178063221Y-23119011D01*
X178063222Y-23119009D01*
X178105315Y-23067719D01*
X178175814Y-22981814D01*
X178299814Y-22880051D01*
X178313009Y-22869222D01*
X178330913Y-22859652D01*
X178469533Y-22785557D01*
X178526147Y-22768384D01*
X178639373Y-22734037D01*
X178705557Y-22727519D01*
X178771740Y-22721000D01*
X178860260Y-22721000D01*
X178926442Y-22727518D01*
X178926442Y-22727518D01*
G37*
G36*
X184006442Y-22727518D02*
X184072627Y-22734037D01*
X184185853Y-22768384D01*
X184242467Y-22785557D01*
X184381087Y-22859652D01*
X184398991Y-22869222D01*
X184412186Y-22880051D01*
X184536186Y-22981814D01*
X184606685Y-23067719D01*
X184648778Y-23119009D01*
X184648779Y-23119011D01*
X184732443Y-23275533D01*
X184732443Y-23275534D01*
X184783963Y-23445373D01*
X184801359Y-23622000D01*
X184783963Y-23798627D01*
X184757904Y-23884531D01*
X184732443Y-23968467D01*
X184703173Y-24023226D01*
X184648778Y-24124991D01*
X184632073Y-24145346D01*
X184536186Y-24262186D01*
X184434729Y-24345448D01*
X184398991Y-24374778D01*
X184398989Y-24374779D01*
X184242467Y-24458443D01*
X184185853Y-24475616D01*
X184072627Y-24509963D01*
X184006442Y-24516482D01*
X183940260Y-24523000D01*
X183851740Y-24523000D01*
X183785558Y-24516482D01*
X183719373Y-24509963D01*
X183606147Y-24475616D01*
X183549533Y-24458443D01*
X183393011Y-24374779D01*
X183393009Y-24374778D01*
X183357271Y-24345448D01*
X183255814Y-24262186D01*
X183159927Y-24145346D01*
X183143222Y-24124991D01*
X183088827Y-24023226D01*
X183059557Y-23968467D01*
X183034096Y-23884531D01*
X183008037Y-23798627D01*
X182990641Y-23622000D01*
X183008037Y-23445373D01*
X183059557Y-23275534D01*
X183059557Y-23275533D01*
X183143221Y-23119011D01*
X183143222Y-23119009D01*
X183185315Y-23067719D01*
X183255814Y-22981814D01*
X183379814Y-22880051D01*
X183393009Y-22869222D01*
X183410913Y-22859652D01*
X183549533Y-22785557D01*
X183606147Y-22768384D01*
X183719373Y-22734037D01*
X183785557Y-22727519D01*
X183851740Y-22721000D01*
X183940260Y-22721000D01*
X184006442Y-22727518D01*
X184006442Y-22727518D01*
G37*
G36*
X177177000Y-24523000D02*
X175375000Y-24523000D01*
X175375000Y-22721000D01*
X177177000Y-22721000D01*
X177177000Y-24523000D01*
X177177000Y-24523000D01*
G37*
G36*
X186546442Y-22727518D02*
X186612627Y-22734037D01*
X186725853Y-22768384D01*
X186782467Y-22785557D01*
X186921087Y-22859652D01*
X186938991Y-22869222D01*
X186952186Y-22880051D01*
X187076186Y-22981814D01*
X187146685Y-23067719D01*
X187188778Y-23119009D01*
X187188779Y-23119011D01*
X187272443Y-23275533D01*
X187272443Y-23275534D01*
X187323963Y-23445373D01*
X187341359Y-23622000D01*
X187323963Y-23798627D01*
X187297904Y-23884531D01*
X187272443Y-23968467D01*
X187243173Y-24023226D01*
X187188778Y-24124991D01*
X187172073Y-24145346D01*
X187076186Y-24262186D01*
X186974729Y-24345448D01*
X186938991Y-24374778D01*
X186938989Y-24374779D01*
X186782467Y-24458443D01*
X186725853Y-24475616D01*
X186612627Y-24509963D01*
X186546442Y-24516482D01*
X186480260Y-24523000D01*
X186391740Y-24523000D01*
X186325558Y-24516482D01*
X186259373Y-24509963D01*
X186146147Y-24475616D01*
X186089533Y-24458443D01*
X185933011Y-24374779D01*
X185933009Y-24374778D01*
X185897271Y-24345448D01*
X185795814Y-24262186D01*
X185699927Y-24145346D01*
X185683222Y-24124991D01*
X185628827Y-24023226D01*
X185599557Y-23968467D01*
X185574096Y-23884531D01*
X185548037Y-23798627D01*
X185530641Y-23622000D01*
X185548037Y-23445373D01*
X185599557Y-23275534D01*
X185599557Y-23275533D01*
X185683221Y-23119011D01*
X185683222Y-23119009D01*
X185725315Y-23067719D01*
X185795814Y-22981814D01*
X185919814Y-22880051D01*
X185933009Y-22869222D01*
X185950913Y-22859652D01*
X186089533Y-22785557D01*
X186146147Y-22768384D01*
X186259373Y-22734037D01*
X186325557Y-22727519D01*
X186391740Y-22721000D01*
X186480260Y-22721000D01*
X186546442Y-22727518D01*
X186546442Y-22727518D01*
G37*
G36*
X189086442Y-22727518D02*
X189152627Y-22734037D01*
X189265853Y-22768384D01*
X189322467Y-22785557D01*
X189461087Y-22859652D01*
X189478991Y-22869222D01*
X189492186Y-22880051D01*
X189616186Y-22981814D01*
X189686685Y-23067719D01*
X189728778Y-23119009D01*
X189728779Y-23119011D01*
X189812443Y-23275533D01*
X189812443Y-23275534D01*
X189863963Y-23445373D01*
X189881359Y-23622000D01*
X189863963Y-23798627D01*
X189837904Y-23884531D01*
X189812443Y-23968467D01*
X189783173Y-24023226D01*
X189728778Y-24124991D01*
X189712073Y-24145346D01*
X189616186Y-24262186D01*
X189514729Y-24345448D01*
X189478991Y-24374778D01*
X189478989Y-24374779D01*
X189322467Y-24458443D01*
X189265853Y-24475616D01*
X189152627Y-24509963D01*
X189086442Y-24516482D01*
X189020260Y-24523000D01*
X188931740Y-24523000D01*
X188865558Y-24516482D01*
X188799373Y-24509963D01*
X188686147Y-24475616D01*
X188629533Y-24458443D01*
X188473011Y-24374779D01*
X188473009Y-24374778D01*
X188437271Y-24345448D01*
X188335814Y-24262186D01*
X188239927Y-24145346D01*
X188223222Y-24124991D01*
X188168827Y-24023226D01*
X188139557Y-23968467D01*
X188114096Y-23884531D01*
X188088037Y-23798627D01*
X188070641Y-23622000D01*
X188088037Y-23445373D01*
X188139557Y-23275534D01*
X188139557Y-23275533D01*
X188223221Y-23119011D01*
X188223222Y-23119009D01*
X188265315Y-23067719D01*
X188335814Y-22981814D01*
X188459814Y-22880051D01*
X188473009Y-22869222D01*
X188490913Y-22859652D01*
X188629533Y-22785557D01*
X188686147Y-22768384D01*
X188799373Y-22734037D01*
X188865557Y-22727519D01*
X188931740Y-22721000D01*
X189020260Y-22721000D01*
X189086442Y-22727518D01*
X189086442Y-22727518D01*
G37*
G36*
X171992893Y-24284040D02*
X170190893Y-24284040D01*
X170190893Y-22482040D01*
X171992893Y-22482040D01*
X171992893Y-24284040D01*
X171992893Y-24284040D01*
G37*
G36*
X168662336Y-22488559D02*
X168728520Y-22495077D01*
X168841746Y-22529424D01*
X168898360Y-22546597D01*
X169006051Y-22604160D01*
X169054884Y-22630262D01*
X169090622Y-22659592D01*
X169192079Y-22742854D01*
X169275341Y-22844311D01*
X169304671Y-22880049D01*
X169304672Y-22880051D01*
X169388336Y-23036573D01*
X169388336Y-23036574D01*
X169439856Y-23206413D01*
X169457252Y-23383040D01*
X169439856Y-23559667D01*
X169405509Y-23672893D01*
X169388336Y-23729507D01*
X169351391Y-23798625D01*
X169304671Y-23886031D01*
X169275341Y-23921769D01*
X169192079Y-24023226D01*
X169121937Y-24080789D01*
X169054884Y-24135818D01*
X169054882Y-24135819D01*
X168898360Y-24219483D01*
X168841746Y-24236656D01*
X168728520Y-24271003D01*
X168662336Y-24277521D01*
X168596153Y-24284040D01*
X168507633Y-24284040D01*
X168441451Y-24277522D01*
X168375266Y-24271003D01*
X168262040Y-24236656D01*
X168205426Y-24219483D01*
X168048904Y-24135819D01*
X168048902Y-24135818D01*
X167981849Y-24080789D01*
X167911707Y-24023226D01*
X167828445Y-23921769D01*
X167799115Y-23886031D01*
X167752395Y-23798625D01*
X167715450Y-23729507D01*
X167698277Y-23672893D01*
X167663930Y-23559667D01*
X167646534Y-23383040D01*
X167663930Y-23206413D01*
X167715450Y-23036574D01*
X167715450Y-23036573D01*
X167799114Y-22880051D01*
X167799115Y-22880049D01*
X167828445Y-22844311D01*
X167911707Y-22742854D01*
X168013164Y-22659592D01*
X168048902Y-22630262D01*
X168097735Y-22604160D01*
X168205426Y-22546597D01*
X168262040Y-22529424D01*
X168375266Y-22495077D01*
X168441451Y-22488558D01*
X168507633Y-22482040D01*
X168596153Y-22482040D01*
X168662336Y-22488559D01*
X168662336Y-22488559D01*
G37*
G36*
X163582336Y-22488559D02*
X163648520Y-22495077D01*
X163761746Y-22529424D01*
X163818360Y-22546597D01*
X163926051Y-22604160D01*
X163974884Y-22630262D01*
X164010622Y-22659592D01*
X164112079Y-22742854D01*
X164195341Y-22844311D01*
X164224671Y-22880049D01*
X164224672Y-22880051D01*
X164308336Y-23036573D01*
X164308336Y-23036574D01*
X164359856Y-23206413D01*
X164377252Y-23383040D01*
X164359856Y-23559667D01*
X164325509Y-23672893D01*
X164308336Y-23729507D01*
X164271391Y-23798625D01*
X164224671Y-23886031D01*
X164195341Y-23921769D01*
X164112079Y-24023226D01*
X164041937Y-24080789D01*
X163974884Y-24135818D01*
X163974882Y-24135819D01*
X163818360Y-24219483D01*
X163761746Y-24236656D01*
X163648520Y-24271003D01*
X163582336Y-24277521D01*
X163516153Y-24284040D01*
X163427633Y-24284040D01*
X163361451Y-24277522D01*
X163295266Y-24271003D01*
X163182040Y-24236656D01*
X163125426Y-24219483D01*
X162968904Y-24135819D01*
X162968902Y-24135818D01*
X162901849Y-24080789D01*
X162831707Y-24023226D01*
X162748445Y-23921769D01*
X162719115Y-23886031D01*
X162672395Y-23798625D01*
X162635450Y-23729507D01*
X162618277Y-23672893D01*
X162583930Y-23559667D01*
X162566534Y-23383040D01*
X162583930Y-23206413D01*
X162635450Y-23036574D01*
X162635450Y-23036573D01*
X162719114Y-22880051D01*
X162719115Y-22880049D01*
X162748445Y-22844311D01*
X162831707Y-22742854D01*
X162933164Y-22659592D01*
X162968902Y-22630262D01*
X163017735Y-22604160D01*
X163125426Y-22546597D01*
X163182040Y-22529424D01*
X163295266Y-22495077D01*
X163361451Y-22488558D01*
X163427633Y-22482040D01*
X163516153Y-22482040D01*
X163582336Y-22488559D01*
X163582336Y-22488559D01*
G37*
G36*
X166122336Y-22488559D02*
X166188520Y-22495077D01*
X166301746Y-22529424D01*
X166358360Y-22546597D01*
X166466051Y-22604160D01*
X166514884Y-22630262D01*
X166550622Y-22659592D01*
X166652079Y-22742854D01*
X166735341Y-22844311D01*
X166764671Y-22880049D01*
X166764672Y-22880051D01*
X166848336Y-23036573D01*
X166848336Y-23036574D01*
X166899856Y-23206413D01*
X166917252Y-23383040D01*
X166899856Y-23559667D01*
X166865509Y-23672893D01*
X166848336Y-23729507D01*
X166811391Y-23798625D01*
X166764671Y-23886031D01*
X166735341Y-23921769D01*
X166652079Y-24023226D01*
X166581937Y-24080789D01*
X166514884Y-24135818D01*
X166514882Y-24135819D01*
X166358360Y-24219483D01*
X166301746Y-24236656D01*
X166188520Y-24271003D01*
X166122336Y-24277521D01*
X166056153Y-24284040D01*
X165967633Y-24284040D01*
X165901451Y-24277522D01*
X165835266Y-24271003D01*
X165722040Y-24236656D01*
X165665426Y-24219483D01*
X165508904Y-24135819D01*
X165508902Y-24135818D01*
X165441849Y-24080789D01*
X165371707Y-24023226D01*
X165288445Y-23921769D01*
X165259115Y-23886031D01*
X165212395Y-23798625D01*
X165175450Y-23729507D01*
X165158277Y-23672893D01*
X165123930Y-23559667D01*
X165106534Y-23383040D01*
X165123930Y-23206413D01*
X165175450Y-23036574D01*
X165175450Y-23036573D01*
X165259114Y-22880051D01*
X165259115Y-22880049D01*
X165288445Y-22844311D01*
X165371707Y-22742854D01*
X165473164Y-22659592D01*
X165508902Y-22630262D01*
X165557735Y-22604160D01*
X165665426Y-22546597D01*
X165722040Y-22529424D01*
X165835266Y-22495077D01*
X165901451Y-22488558D01*
X165967633Y-22482040D01*
X166056153Y-22482040D01*
X166122336Y-22488559D01*
X166122336Y-22488559D01*
G37*
G36*
X146651516Y-24145346D02*
X144849516Y-24145346D01*
X144849516Y-22343346D01*
X146651516Y-22343346D01*
X146651516Y-24145346D01*
X146651516Y-24145346D01*
G37*
G36*
X158560958Y-22349864D02*
X158627143Y-22356383D01*
X158740369Y-22390730D01*
X158796983Y-22407903D01*
X158935603Y-22481998D01*
X158953507Y-22491568D01*
X158989245Y-22520898D01*
X159090702Y-22604160D01*
X159173964Y-22705617D01*
X159203294Y-22741355D01*
X159203295Y-22741357D01*
X159286959Y-22897879D01*
X159286959Y-22897880D01*
X159338479Y-23067719D01*
X159355875Y-23244346D01*
X159338479Y-23420973D01*
X159304132Y-23534199D01*
X159286959Y-23590813D01*
X159270289Y-23622000D01*
X159203294Y-23747337D01*
X159173964Y-23783075D01*
X159090702Y-23884532D01*
X158989245Y-23967794D01*
X158953507Y-23997124D01*
X158953505Y-23997125D01*
X158796983Y-24080789D01*
X158740369Y-24097962D01*
X158627143Y-24132309D01*
X158560958Y-24138828D01*
X158494776Y-24145346D01*
X158406256Y-24145346D01*
X158340073Y-24138827D01*
X158273889Y-24132309D01*
X158160663Y-24097962D01*
X158104049Y-24080789D01*
X157947527Y-23997125D01*
X157947525Y-23997124D01*
X157911787Y-23967794D01*
X157810330Y-23884532D01*
X157727068Y-23783075D01*
X157697738Y-23747337D01*
X157630743Y-23622000D01*
X157614073Y-23590813D01*
X157596900Y-23534199D01*
X157562553Y-23420973D01*
X157545157Y-23244346D01*
X157562553Y-23067719D01*
X157614073Y-22897880D01*
X157614073Y-22897879D01*
X157697737Y-22741357D01*
X157697738Y-22741355D01*
X157727068Y-22705617D01*
X157810330Y-22604160D01*
X157911787Y-22520898D01*
X157947525Y-22491568D01*
X157965429Y-22481998D01*
X158104049Y-22407903D01*
X158160663Y-22390730D01*
X158273889Y-22356383D01*
X158340074Y-22349864D01*
X158406256Y-22343346D01*
X158494776Y-22343346D01*
X158560958Y-22349864D01*
X158560958Y-22349864D01*
G37*
G36*
X148400958Y-22349864D02*
X148467143Y-22356383D01*
X148580369Y-22390730D01*
X148636983Y-22407903D01*
X148775603Y-22481998D01*
X148793507Y-22491568D01*
X148829245Y-22520898D01*
X148930702Y-22604160D01*
X149013964Y-22705617D01*
X149043294Y-22741355D01*
X149043295Y-22741357D01*
X149126959Y-22897879D01*
X149126959Y-22897880D01*
X149178479Y-23067719D01*
X149195875Y-23244346D01*
X149178479Y-23420973D01*
X149144132Y-23534199D01*
X149126959Y-23590813D01*
X149110289Y-23622000D01*
X149043294Y-23747337D01*
X149013964Y-23783075D01*
X148930702Y-23884532D01*
X148829245Y-23967794D01*
X148793507Y-23997124D01*
X148793505Y-23997125D01*
X148636983Y-24080789D01*
X148580369Y-24097962D01*
X148467143Y-24132309D01*
X148400958Y-24138828D01*
X148334776Y-24145346D01*
X148246256Y-24145346D01*
X148180073Y-24138827D01*
X148113889Y-24132309D01*
X148000663Y-24097962D01*
X147944049Y-24080789D01*
X147787527Y-23997125D01*
X147787525Y-23997124D01*
X147751787Y-23967794D01*
X147650330Y-23884532D01*
X147567068Y-23783075D01*
X147537738Y-23747337D01*
X147470743Y-23622000D01*
X147454073Y-23590813D01*
X147436900Y-23534199D01*
X147402553Y-23420973D01*
X147385157Y-23244346D01*
X147402553Y-23067719D01*
X147454073Y-22897880D01*
X147454073Y-22897879D01*
X147537737Y-22741357D01*
X147537738Y-22741355D01*
X147567068Y-22705617D01*
X147650330Y-22604160D01*
X147751787Y-22520898D01*
X147787525Y-22491568D01*
X147805429Y-22481998D01*
X147944049Y-22407903D01*
X148000663Y-22390730D01*
X148113889Y-22356383D01*
X148180074Y-22349864D01*
X148246256Y-22343346D01*
X148334776Y-22343346D01*
X148400958Y-22349864D01*
X148400958Y-22349864D01*
G37*
G36*
X150940958Y-22349864D02*
X151007143Y-22356383D01*
X151120369Y-22390730D01*
X151176983Y-22407903D01*
X151315603Y-22481998D01*
X151333507Y-22491568D01*
X151369245Y-22520898D01*
X151470702Y-22604160D01*
X151553964Y-22705617D01*
X151583294Y-22741355D01*
X151583295Y-22741357D01*
X151666959Y-22897879D01*
X151666959Y-22897880D01*
X151718479Y-23067719D01*
X151735875Y-23244346D01*
X151718479Y-23420973D01*
X151684132Y-23534199D01*
X151666959Y-23590813D01*
X151650289Y-23622000D01*
X151583294Y-23747337D01*
X151553964Y-23783075D01*
X151470702Y-23884532D01*
X151369245Y-23967794D01*
X151333507Y-23997124D01*
X151333505Y-23997125D01*
X151176983Y-24080789D01*
X151120369Y-24097962D01*
X151007143Y-24132309D01*
X150940958Y-24138828D01*
X150874776Y-24145346D01*
X150786256Y-24145346D01*
X150720073Y-24138827D01*
X150653889Y-24132309D01*
X150540663Y-24097962D01*
X150484049Y-24080789D01*
X150327527Y-23997125D01*
X150327525Y-23997124D01*
X150291787Y-23967794D01*
X150190330Y-23884532D01*
X150107068Y-23783075D01*
X150077738Y-23747337D01*
X150010743Y-23622000D01*
X149994073Y-23590813D01*
X149976900Y-23534199D01*
X149942553Y-23420973D01*
X149925157Y-23244346D01*
X149942553Y-23067719D01*
X149994073Y-22897880D01*
X149994073Y-22897879D01*
X150077737Y-22741357D01*
X150077738Y-22741355D01*
X150107068Y-22705617D01*
X150190330Y-22604160D01*
X150291787Y-22520898D01*
X150327525Y-22491568D01*
X150345429Y-22481998D01*
X150484049Y-22407903D01*
X150540663Y-22390730D01*
X150653889Y-22356383D01*
X150720074Y-22349864D01*
X150786256Y-22343346D01*
X150874776Y-22343346D01*
X150940958Y-22349864D01*
X150940958Y-22349864D01*
G37*
G36*
X153480958Y-22349864D02*
X153547143Y-22356383D01*
X153660369Y-22390730D01*
X153716983Y-22407903D01*
X153855603Y-22481998D01*
X153873507Y-22491568D01*
X153909245Y-22520898D01*
X154010702Y-22604160D01*
X154093964Y-22705617D01*
X154123294Y-22741355D01*
X154123295Y-22741357D01*
X154206959Y-22897879D01*
X154206959Y-22897880D01*
X154258479Y-23067719D01*
X154275875Y-23244346D01*
X154258479Y-23420973D01*
X154224132Y-23534199D01*
X154206959Y-23590813D01*
X154190289Y-23622000D01*
X154123294Y-23747337D01*
X154093964Y-23783075D01*
X154010702Y-23884532D01*
X153909245Y-23967794D01*
X153873507Y-23997124D01*
X153873505Y-23997125D01*
X153716983Y-24080789D01*
X153660369Y-24097962D01*
X153547143Y-24132309D01*
X153480958Y-24138828D01*
X153414776Y-24145346D01*
X153326256Y-24145346D01*
X153260073Y-24138827D01*
X153193889Y-24132309D01*
X153080663Y-24097962D01*
X153024049Y-24080789D01*
X152867527Y-23997125D01*
X152867525Y-23997124D01*
X152831787Y-23967794D01*
X152730330Y-23884532D01*
X152647068Y-23783075D01*
X152617738Y-23747337D01*
X152550743Y-23622000D01*
X152534073Y-23590813D01*
X152516900Y-23534199D01*
X152482553Y-23420973D01*
X152465157Y-23244346D01*
X152482553Y-23067719D01*
X152534073Y-22897880D01*
X152534073Y-22897879D01*
X152617737Y-22741357D01*
X152617738Y-22741355D01*
X152647068Y-22705617D01*
X152730330Y-22604160D01*
X152831787Y-22520898D01*
X152867525Y-22491568D01*
X152885429Y-22481998D01*
X153024049Y-22407903D01*
X153080663Y-22390730D01*
X153193889Y-22356383D01*
X153260074Y-22349864D01*
X153326256Y-22343346D01*
X153414776Y-22343346D01*
X153480958Y-22349864D01*
X153480958Y-22349864D01*
G37*
G36*
X156020958Y-22349864D02*
X156087143Y-22356383D01*
X156200369Y-22390730D01*
X156256983Y-22407903D01*
X156395603Y-22481998D01*
X156413507Y-22491568D01*
X156449245Y-22520898D01*
X156550702Y-22604160D01*
X156633964Y-22705617D01*
X156663294Y-22741355D01*
X156663295Y-22741357D01*
X156746959Y-22897879D01*
X156746959Y-22897880D01*
X156798479Y-23067719D01*
X156815875Y-23244346D01*
X156798479Y-23420973D01*
X156764132Y-23534199D01*
X156746959Y-23590813D01*
X156730289Y-23622000D01*
X156663294Y-23747337D01*
X156633964Y-23783075D01*
X156550702Y-23884532D01*
X156449245Y-23967794D01*
X156413507Y-23997124D01*
X156413505Y-23997125D01*
X156256983Y-24080789D01*
X156200369Y-24097962D01*
X156087143Y-24132309D01*
X156020958Y-24138828D01*
X155954776Y-24145346D01*
X155866256Y-24145346D01*
X155800073Y-24138827D01*
X155733889Y-24132309D01*
X155620663Y-24097962D01*
X155564049Y-24080789D01*
X155407527Y-23997125D01*
X155407525Y-23997124D01*
X155371787Y-23967794D01*
X155270330Y-23884532D01*
X155187068Y-23783075D01*
X155157738Y-23747337D01*
X155090743Y-23622000D01*
X155074073Y-23590813D01*
X155056900Y-23534199D01*
X155022553Y-23420973D01*
X155005157Y-23244346D01*
X155022553Y-23067719D01*
X155074073Y-22897880D01*
X155074073Y-22897879D01*
X155157737Y-22741357D01*
X155157738Y-22741355D01*
X155187068Y-22705617D01*
X155270330Y-22604160D01*
X155371787Y-22520898D01*
X155407525Y-22491568D01*
X155425429Y-22481998D01*
X155564049Y-22407903D01*
X155620663Y-22390730D01*
X155733889Y-22356383D01*
X155800074Y-22349864D01*
X155866256Y-22343346D01*
X155954776Y-22343346D01*
X156020958Y-22349864D01*
X156020958Y-22349864D01*
G37*
G36*
X163582336Y-19948559D02*
X163648520Y-19955077D01*
X163761746Y-19989424D01*
X163818360Y-20006597D01*
X163926051Y-20064160D01*
X163974884Y-20090262D01*
X164007017Y-20116633D01*
X164112079Y-20202854D01*
X164195341Y-20304311D01*
X164224671Y-20340049D01*
X164224672Y-20340051D01*
X164308336Y-20496573D01*
X164308336Y-20496574D01*
X164359856Y-20666413D01*
X164377252Y-20843040D01*
X164359856Y-21019667D01*
X164339127Y-21088000D01*
X164308336Y-21189507D01*
X164234241Y-21328127D01*
X164224671Y-21346031D01*
X164195341Y-21381769D01*
X164112079Y-21483226D01*
X164041937Y-21540789D01*
X163974884Y-21595818D01*
X163974882Y-21595819D01*
X163818360Y-21679483D01*
X163761746Y-21696656D01*
X163648520Y-21731003D01*
X163582335Y-21737522D01*
X163516153Y-21744040D01*
X163427633Y-21744040D01*
X163361451Y-21737522D01*
X163295266Y-21731003D01*
X163182040Y-21696656D01*
X163125426Y-21679483D01*
X162968904Y-21595819D01*
X162968902Y-21595818D01*
X162901849Y-21540789D01*
X162831707Y-21483226D01*
X162748445Y-21381769D01*
X162719115Y-21346031D01*
X162709545Y-21328127D01*
X162635450Y-21189507D01*
X162604659Y-21088000D01*
X162583930Y-21019667D01*
X162566534Y-20843040D01*
X162583930Y-20666413D01*
X162635450Y-20496574D01*
X162635450Y-20496573D01*
X162719114Y-20340051D01*
X162719115Y-20340049D01*
X162748445Y-20304311D01*
X162831707Y-20202854D01*
X162936769Y-20116633D01*
X162968902Y-20090262D01*
X163017735Y-20064160D01*
X163125426Y-20006597D01*
X163182040Y-19989424D01*
X163295266Y-19955077D01*
X163361450Y-19948559D01*
X163427633Y-19942040D01*
X163516153Y-19942040D01*
X163582336Y-19948559D01*
X163582336Y-19948559D01*
G37*
G36*
X166122336Y-19948559D02*
X166188520Y-19955077D01*
X166301746Y-19989424D01*
X166358360Y-20006597D01*
X166466051Y-20064160D01*
X166514884Y-20090262D01*
X166547017Y-20116633D01*
X166652079Y-20202854D01*
X166735341Y-20304311D01*
X166764671Y-20340049D01*
X166764672Y-20340051D01*
X166848336Y-20496573D01*
X166848336Y-20496574D01*
X166899856Y-20666413D01*
X166917252Y-20843040D01*
X166899856Y-21019667D01*
X166879127Y-21088000D01*
X166848336Y-21189507D01*
X166774241Y-21328127D01*
X166764671Y-21346031D01*
X166735341Y-21381769D01*
X166652079Y-21483226D01*
X166581937Y-21540789D01*
X166514884Y-21595818D01*
X166514882Y-21595819D01*
X166358360Y-21679483D01*
X166301746Y-21696656D01*
X166188520Y-21731003D01*
X166122335Y-21737522D01*
X166056153Y-21744040D01*
X165967633Y-21744040D01*
X165901451Y-21737522D01*
X165835266Y-21731003D01*
X165722040Y-21696656D01*
X165665426Y-21679483D01*
X165508904Y-21595819D01*
X165508902Y-21595818D01*
X165441849Y-21540789D01*
X165371707Y-21483226D01*
X165288445Y-21381769D01*
X165259115Y-21346031D01*
X165249545Y-21328127D01*
X165175450Y-21189507D01*
X165144659Y-21088000D01*
X165123930Y-21019667D01*
X165106534Y-20843040D01*
X165123930Y-20666413D01*
X165175450Y-20496574D01*
X165175450Y-20496573D01*
X165259114Y-20340051D01*
X165259115Y-20340049D01*
X165288445Y-20304311D01*
X165371707Y-20202854D01*
X165476769Y-20116633D01*
X165508902Y-20090262D01*
X165557735Y-20064160D01*
X165665426Y-20006597D01*
X165722040Y-19989424D01*
X165835266Y-19955077D01*
X165901450Y-19948559D01*
X165967633Y-19942040D01*
X166056153Y-19942040D01*
X166122336Y-19948559D01*
X166122336Y-19948559D01*
G37*
G36*
X168662336Y-19948559D02*
X168728520Y-19955077D01*
X168841746Y-19989424D01*
X168898360Y-20006597D01*
X169006051Y-20064160D01*
X169054884Y-20090262D01*
X169087017Y-20116633D01*
X169192079Y-20202854D01*
X169275341Y-20304311D01*
X169304671Y-20340049D01*
X169304672Y-20340051D01*
X169388336Y-20496573D01*
X169388336Y-20496574D01*
X169439856Y-20666413D01*
X169457252Y-20843040D01*
X169439856Y-21019667D01*
X169419127Y-21088000D01*
X169388336Y-21189507D01*
X169314241Y-21328127D01*
X169304671Y-21346031D01*
X169275341Y-21381769D01*
X169192079Y-21483226D01*
X169121937Y-21540789D01*
X169054884Y-21595818D01*
X169054882Y-21595819D01*
X168898360Y-21679483D01*
X168841746Y-21696656D01*
X168728520Y-21731003D01*
X168662335Y-21737522D01*
X168596153Y-21744040D01*
X168507633Y-21744040D01*
X168441451Y-21737522D01*
X168375266Y-21731003D01*
X168262040Y-21696656D01*
X168205426Y-21679483D01*
X168048904Y-21595819D01*
X168048902Y-21595818D01*
X167981849Y-21540789D01*
X167911707Y-21483226D01*
X167828445Y-21381769D01*
X167799115Y-21346031D01*
X167789545Y-21328127D01*
X167715450Y-21189507D01*
X167684659Y-21088000D01*
X167663930Y-21019667D01*
X167646534Y-20843040D01*
X167663930Y-20666413D01*
X167715450Y-20496574D01*
X167715450Y-20496573D01*
X167799114Y-20340051D01*
X167799115Y-20340049D01*
X167828445Y-20304311D01*
X167911707Y-20202854D01*
X168016769Y-20116633D01*
X168048902Y-20090262D01*
X168097735Y-20064160D01*
X168205426Y-20006597D01*
X168262040Y-19989424D01*
X168375266Y-19955077D01*
X168441450Y-19948559D01*
X168507633Y-19942040D01*
X168596153Y-19942040D01*
X168662336Y-19948559D01*
X168662336Y-19948559D01*
G37*
G36*
X171992893Y-21744040D02*
X170190893Y-21744040D01*
X170190893Y-19942040D01*
X171992893Y-19942040D01*
X171992893Y-21744040D01*
X171992893Y-21744040D01*
G37*
G36*
X146651516Y-21605346D02*
X144849516Y-21605346D01*
X144849516Y-19803346D01*
X146651516Y-19803346D01*
X146651516Y-21605346D01*
X146651516Y-21605346D01*
G37*
G36*
X148400958Y-19809864D02*
X148467143Y-19816383D01*
X148580369Y-19850730D01*
X148636983Y-19867903D01*
X148775603Y-19941998D01*
X148793507Y-19951568D01*
X148829245Y-19980898D01*
X148930702Y-20064160D01*
X149001036Y-20149864D01*
X149043294Y-20201355D01*
X149043295Y-20201357D01*
X149126959Y-20357879D01*
X149126959Y-20357880D01*
X149178479Y-20527719D01*
X149195875Y-20704346D01*
X149178479Y-20880973D01*
X149157519Y-20950069D01*
X149126959Y-21050813D01*
X149052864Y-21189433D01*
X149043294Y-21207337D01*
X149013964Y-21243075D01*
X148930702Y-21344532D01*
X148829245Y-21427794D01*
X148793507Y-21457124D01*
X148793505Y-21457125D01*
X148636983Y-21540789D01*
X148580369Y-21557962D01*
X148467143Y-21592309D01*
X148400959Y-21598827D01*
X148334776Y-21605346D01*
X148246256Y-21605346D01*
X148180073Y-21598827D01*
X148113889Y-21592309D01*
X148000663Y-21557962D01*
X147944049Y-21540789D01*
X147787527Y-21457125D01*
X147787525Y-21457124D01*
X147751787Y-21427794D01*
X147650330Y-21344532D01*
X147567068Y-21243075D01*
X147537738Y-21207337D01*
X147528168Y-21189433D01*
X147454073Y-21050813D01*
X147423513Y-20950069D01*
X147402553Y-20880973D01*
X147385157Y-20704346D01*
X147402553Y-20527719D01*
X147454073Y-20357880D01*
X147454073Y-20357879D01*
X147537737Y-20201357D01*
X147537738Y-20201355D01*
X147579996Y-20149864D01*
X147650330Y-20064160D01*
X147751787Y-19980898D01*
X147787525Y-19951568D01*
X147805429Y-19941998D01*
X147944049Y-19867903D01*
X148000663Y-19850730D01*
X148113889Y-19816383D01*
X148180073Y-19809865D01*
X148246256Y-19803346D01*
X148334776Y-19803346D01*
X148400958Y-19809864D01*
X148400958Y-19809864D01*
G37*
G36*
X150940958Y-19809864D02*
X151007143Y-19816383D01*
X151120369Y-19850730D01*
X151176983Y-19867903D01*
X151315603Y-19941998D01*
X151333507Y-19951568D01*
X151369245Y-19980898D01*
X151470702Y-20064160D01*
X151541036Y-20149864D01*
X151583294Y-20201355D01*
X151583295Y-20201357D01*
X151666959Y-20357879D01*
X151666959Y-20357880D01*
X151718479Y-20527719D01*
X151735875Y-20704346D01*
X151718479Y-20880973D01*
X151697519Y-20950069D01*
X151666959Y-21050813D01*
X151592864Y-21189433D01*
X151583294Y-21207337D01*
X151553964Y-21243075D01*
X151470702Y-21344532D01*
X151369245Y-21427794D01*
X151333507Y-21457124D01*
X151333505Y-21457125D01*
X151176983Y-21540789D01*
X151120369Y-21557962D01*
X151007143Y-21592309D01*
X150940959Y-21598827D01*
X150874776Y-21605346D01*
X150786256Y-21605346D01*
X150720073Y-21598827D01*
X150653889Y-21592309D01*
X150540663Y-21557962D01*
X150484049Y-21540789D01*
X150327527Y-21457125D01*
X150327525Y-21457124D01*
X150291787Y-21427794D01*
X150190330Y-21344532D01*
X150107068Y-21243075D01*
X150077738Y-21207337D01*
X150068168Y-21189433D01*
X149994073Y-21050813D01*
X149963513Y-20950069D01*
X149942553Y-20880973D01*
X149925157Y-20704346D01*
X149942553Y-20527719D01*
X149994073Y-20357880D01*
X149994073Y-20357879D01*
X150077737Y-20201357D01*
X150077738Y-20201355D01*
X150119996Y-20149864D01*
X150190330Y-20064160D01*
X150291787Y-19980898D01*
X150327525Y-19951568D01*
X150345429Y-19941998D01*
X150484049Y-19867903D01*
X150540663Y-19850730D01*
X150653889Y-19816383D01*
X150720073Y-19809865D01*
X150786256Y-19803346D01*
X150874776Y-19803346D01*
X150940958Y-19809864D01*
X150940958Y-19809864D01*
G37*
G36*
X158560958Y-19809864D02*
X158627143Y-19816383D01*
X158740369Y-19850730D01*
X158796983Y-19867903D01*
X158935603Y-19941998D01*
X158953507Y-19951568D01*
X158989245Y-19980898D01*
X159090702Y-20064160D01*
X159161036Y-20149864D01*
X159203294Y-20201355D01*
X159203295Y-20201357D01*
X159286959Y-20357879D01*
X159286959Y-20357880D01*
X159338479Y-20527719D01*
X159355875Y-20704346D01*
X159338479Y-20880973D01*
X159317519Y-20950069D01*
X159286959Y-21050813D01*
X159212864Y-21189433D01*
X159203294Y-21207337D01*
X159173964Y-21243075D01*
X159090702Y-21344532D01*
X158989245Y-21427794D01*
X158953507Y-21457124D01*
X158953505Y-21457125D01*
X158796983Y-21540789D01*
X158740369Y-21557962D01*
X158627143Y-21592309D01*
X158560959Y-21598827D01*
X158494776Y-21605346D01*
X158406256Y-21605346D01*
X158340073Y-21598827D01*
X158273889Y-21592309D01*
X158160663Y-21557962D01*
X158104049Y-21540789D01*
X157947527Y-21457125D01*
X157947525Y-21457124D01*
X157911787Y-21427794D01*
X157810330Y-21344532D01*
X157727068Y-21243075D01*
X157697738Y-21207337D01*
X157688168Y-21189433D01*
X157614073Y-21050813D01*
X157583513Y-20950069D01*
X157562553Y-20880973D01*
X157545157Y-20704346D01*
X157562553Y-20527719D01*
X157614073Y-20357880D01*
X157614073Y-20357879D01*
X157697737Y-20201357D01*
X157697738Y-20201355D01*
X157739996Y-20149864D01*
X157810330Y-20064160D01*
X157911787Y-19980898D01*
X157947525Y-19951568D01*
X157965429Y-19941998D01*
X158104049Y-19867903D01*
X158160663Y-19850730D01*
X158273889Y-19816383D01*
X158340073Y-19809865D01*
X158406256Y-19803346D01*
X158494776Y-19803346D01*
X158560958Y-19809864D01*
X158560958Y-19809864D01*
G37*
G36*
X156020958Y-19809864D02*
X156087143Y-19816383D01*
X156200369Y-19850730D01*
X156256983Y-19867903D01*
X156395603Y-19941998D01*
X156413507Y-19951568D01*
X156449245Y-19980898D01*
X156550702Y-20064160D01*
X156621036Y-20149864D01*
X156663294Y-20201355D01*
X156663295Y-20201357D01*
X156746959Y-20357879D01*
X156746959Y-20357880D01*
X156798479Y-20527719D01*
X156815875Y-20704346D01*
X156798479Y-20880973D01*
X156777519Y-20950069D01*
X156746959Y-21050813D01*
X156672864Y-21189433D01*
X156663294Y-21207337D01*
X156633964Y-21243075D01*
X156550702Y-21344532D01*
X156449245Y-21427794D01*
X156413507Y-21457124D01*
X156413505Y-21457125D01*
X156256983Y-21540789D01*
X156200369Y-21557962D01*
X156087143Y-21592309D01*
X156020959Y-21598827D01*
X155954776Y-21605346D01*
X155866256Y-21605346D01*
X155800073Y-21598827D01*
X155733889Y-21592309D01*
X155620663Y-21557962D01*
X155564049Y-21540789D01*
X155407527Y-21457125D01*
X155407525Y-21457124D01*
X155371787Y-21427794D01*
X155270330Y-21344532D01*
X155187068Y-21243075D01*
X155157738Y-21207337D01*
X155148168Y-21189433D01*
X155074073Y-21050813D01*
X155043513Y-20950069D01*
X155022553Y-20880973D01*
X155005157Y-20704346D01*
X155022553Y-20527719D01*
X155074073Y-20357880D01*
X155074073Y-20357879D01*
X155157737Y-20201357D01*
X155157738Y-20201355D01*
X155199996Y-20149864D01*
X155270330Y-20064160D01*
X155371787Y-19980898D01*
X155407525Y-19951568D01*
X155425429Y-19941998D01*
X155564049Y-19867903D01*
X155620663Y-19850730D01*
X155733889Y-19816383D01*
X155800073Y-19809865D01*
X155866256Y-19803346D01*
X155954776Y-19803346D01*
X156020958Y-19809864D01*
X156020958Y-19809864D01*
G37*
G36*
X153480958Y-19809864D02*
X153547143Y-19816383D01*
X153660369Y-19850730D01*
X153716983Y-19867903D01*
X153855603Y-19941998D01*
X153873507Y-19951568D01*
X153909245Y-19980898D01*
X154010702Y-20064160D01*
X154081036Y-20149864D01*
X154123294Y-20201355D01*
X154123295Y-20201357D01*
X154206959Y-20357879D01*
X154206959Y-20357880D01*
X154258479Y-20527719D01*
X154275875Y-20704346D01*
X154258479Y-20880973D01*
X154237519Y-20950069D01*
X154206959Y-21050813D01*
X154132864Y-21189433D01*
X154123294Y-21207337D01*
X154093964Y-21243075D01*
X154010702Y-21344532D01*
X153909245Y-21427794D01*
X153873507Y-21457124D01*
X153873505Y-21457125D01*
X153716983Y-21540789D01*
X153660369Y-21557962D01*
X153547143Y-21592309D01*
X153480959Y-21598827D01*
X153414776Y-21605346D01*
X153326256Y-21605346D01*
X153260073Y-21598827D01*
X153193889Y-21592309D01*
X153080663Y-21557962D01*
X153024049Y-21540789D01*
X152867527Y-21457125D01*
X152867525Y-21457124D01*
X152831787Y-21427794D01*
X152730330Y-21344532D01*
X152647068Y-21243075D01*
X152617738Y-21207337D01*
X152608168Y-21189433D01*
X152534073Y-21050813D01*
X152503513Y-20950069D01*
X152482553Y-20880973D01*
X152465157Y-20704346D01*
X152482553Y-20527719D01*
X152534073Y-20357880D01*
X152534073Y-20357879D01*
X152617737Y-20201357D01*
X152617738Y-20201355D01*
X152659996Y-20149864D01*
X152730330Y-20064160D01*
X152831787Y-19980898D01*
X152867525Y-19951568D01*
X152885429Y-19941998D01*
X153024049Y-19867903D01*
X153080663Y-19850730D01*
X153193889Y-19816383D01*
X153260073Y-19809865D01*
X153326256Y-19803346D01*
X153414776Y-19803346D01*
X153480958Y-19809864D01*
X153480958Y-19809864D01*
G37*
G36*
X176655591Y-20115085D02*
X176689569Y-20125393D01*
X176720887Y-20142133D01*
X176748339Y-20164661D01*
X176770867Y-20192113D01*
X176787607Y-20223431D01*
X176797915Y-20257409D01*
X176802000Y-20298890D01*
X176802000Y-20900110D01*
X176797915Y-20941591D01*
X176787607Y-20975569D01*
X176770867Y-21006887D01*
X176748339Y-21034339D01*
X176720887Y-21056867D01*
X176689569Y-21073607D01*
X176655591Y-21083915D01*
X176614110Y-21088000D01*
X175937890Y-21088000D01*
X175896409Y-21083915D01*
X175862431Y-21073607D01*
X175831113Y-21056867D01*
X175803661Y-21034339D01*
X175781133Y-21006887D01*
X175764393Y-20975569D01*
X175754085Y-20941591D01*
X175750000Y-20900110D01*
X175750000Y-20298890D01*
X175754085Y-20257409D01*
X175764393Y-20223431D01*
X175781133Y-20192113D01*
X175803661Y-20164661D01*
X175831113Y-20142133D01*
X175862431Y-20125393D01*
X175896409Y-20115085D01*
X175937890Y-20111000D01*
X176614110Y-20111000D01*
X176655591Y-20115085D01*
X176655591Y-20115085D01*
G37*
G36*
X179195591Y-20089585D02*
X179229569Y-20099893D01*
X179260887Y-20116633D01*
X179288339Y-20139161D01*
X179310867Y-20166613D01*
X179327607Y-20197931D01*
X179337915Y-20231909D01*
X179342000Y-20273390D01*
X179342000Y-20874610D01*
X179337915Y-20916091D01*
X179327607Y-20950069D01*
X179310867Y-20981387D01*
X179288339Y-21008839D01*
X179260887Y-21031367D01*
X179229569Y-21048107D01*
X179195591Y-21058415D01*
X179154110Y-21062500D01*
X178477890Y-21062500D01*
X178436409Y-21058415D01*
X178402431Y-21048107D01*
X178371113Y-21031367D01*
X178343661Y-21008839D01*
X178321133Y-20981387D01*
X178304393Y-20950069D01*
X178294085Y-20916091D01*
X178290000Y-20874610D01*
X178290000Y-20273390D01*
X178294085Y-20231909D01*
X178304393Y-20197931D01*
X178321133Y-20166613D01*
X178343661Y-20139161D01*
X178371113Y-20116633D01*
X178402431Y-20099893D01*
X178436409Y-20089585D01*
X178477890Y-20085500D01*
X179154110Y-20085500D01*
X179195591Y-20089585D01*
X179195591Y-20089585D01*
G37*
G36*
X107569941Y-14846248D02*
X107569943Y-14846249D01*
X107569944Y-14846249D01*
X108125190Y-15076239D01*
X108125191Y-15076240D01*
X108624902Y-15410136D01*
X109049864Y-15835098D01*
X109049866Y-15835101D01*
X109383761Y-16334810D01*
X109613751Y-16890056D01*
X109613752Y-16890059D01*
X109731000Y-17479501D01*
X109731000Y-18080499D01*
X109615475Y-18661280D01*
X109613751Y-18669944D01*
X109383761Y-19225190D01*
X109194588Y-19508307D01*
X109049864Y-19724902D01*
X108624902Y-20149864D01*
X108624899Y-20149866D01*
X108125190Y-20483761D01*
X107569944Y-20713751D01*
X107569943Y-20713751D01*
X107569941Y-20713752D01*
X106980499Y-20831000D01*
X106379501Y-20831000D01*
X105790059Y-20713752D01*
X105790057Y-20713751D01*
X105790056Y-20713751D01*
X105234810Y-20483761D01*
X104735101Y-20149866D01*
X104735098Y-20149864D01*
X104310136Y-19724902D01*
X104165412Y-19508307D01*
X103976239Y-19225190D01*
X103746249Y-18669944D01*
X103744526Y-18661280D01*
X103629000Y-18080499D01*
X103629000Y-17479501D01*
X103746248Y-16890059D01*
X103746249Y-16890056D01*
X103976239Y-16334810D01*
X104310134Y-15835101D01*
X104310136Y-15835098D01*
X104735098Y-15410136D01*
X105234809Y-15076240D01*
X105234810Y-15076239D01*
X105790056Y-14846249D01*
X105790057Y-14846249D01*
X105790059Y-14846248D01*
X106379501Y-14729000D01*
X106980499Y-14729000D01*
X107569941Y-14846248D01*
X107569941Y-14846248D01*
G37*
G36*
X196469941Y-14846248D02*
X196469943Y-14846249D01*
X196469944Y-14846249D01*
X197025190Y-15076239D01*
X197025191Y-15076240D01*
X197524902Y-15410136D01*
X197949864Y-15835098D01*
X197949866Y-15835101D01*
X198283761Y-16334810D01*
X198513751Y-16890056D01*
X198513752Y-16890059D01*
X198631000Y-17479501D01*
X198631000Y-18080499D01*
X198515475Y-18661280D01*
X198513751Y-18669944D01*
X198283761Y-19225190D01*
X198094588Y-19508307D01*
X197949864Y-19724902D01*
X197524902Y-20149864D01*
X197524899Y-20149866D01*
X197025190Y-20483761D01*
X196469944Y-20713751D01*
X196469943Y-20713751D01*
X196469941Y-20713752D01*
X195880499Y-20831000D01*
X195279501Y-20831000D01*
X194690059Y-20713752D01*
X194690057Y-20713751D01*
X194690056Y-20713751D01*
X194134810Y-20483761D01*
X193635101Y-20149866D01*
X193635098Y-20149864D01*
X193210136Y-19724902D01*
X193065412Y-19508307D01*
X192876239Y-19225190D01*
X192646249Y-18669944D01*
X192644526Y-18661280D01*
X192529000Y-18080499D01*
X192529000Y-17479501D01*
X192646248Y-16890059D01*
X192646249Y-16890056D01*
X192876239Y-16334810D01*
X193210134Y-15835101D01*
X193210136Y-15835098D01*
X193635098Y-15410136D01*
X194134809Y-15076240D01*
X194134810Y-15076239D01*
X194690056Y-14846249D01*
X194690057Y-14846249D01*
X194690059Y-14846248D01*
X195279501Y-14729000D01*
X195880499Y-14729000D01*
X196469941Y-14846248D01*
X196469941Y-14846248D01*
G37*
G36*
X176655591Y-18540085D02*
X176689569Y-18550393D01*
X176720887Y-18567133D01*
X176748339Y-18589661D01*
X176770867Y-18617113D01*
X176787607Y-18648431D01*
X176797915Y-18682409D01*
X176802000Y-18723890D01*
X176802000Y-19325110D01*
X176797915Y-19366591D01*
X176787607Y-19400569D01*
X176770867Y-19431887D01*
X176748339Y-19459339D01*
X176720887Y-19481867D01*
X176689569Y-19498607D01*
X176655591Y-19508915D01*
X176614110Y-19513000D01*
X175937890Y-19513000D01*
X175896409Y-19508915D01*
X175862431Y-19498607D01*
X175831113Y-19481867D01*
X175803661Y-19459339D01*
X175781133Y-19431887D01*
X175764393Y-19400569D01*
X175754085Y-19366591D01*
X175750000Y-19325110D01*
X175750000Y-18723890D01*
X175754085Y-18682409D01*
X175764393Y-18648431D01*
X175781133Y-18617113D01*
X175803661Y-18589661D01*
X175831113Y-18567133D01*
X175862431Y-18550393D01*
X175896409Y-18540085D01*
X175937890Y-18536000D01*
X176614110Y-18536000D01*
X176655591Y-18540085D01*
X176655591Y-18540085D01*
G37*
G36*
X179195591Y-18514585D02*
X179229569Y-18524893D01*
X179260887Y-18541633D01*
X179288339Y-18564161D01*
X179310867Y-18591613D01*
X179327607Y-18622931D01*
X179337915Y-18656909D01*
X179342000Y-18698390D01*
X179342000Y-19299610D01*
X179337915Y-19341091D01*
X179327607Y-19375069D01*
X179310867Y-19406387D01*
X179288339Y-19433839D01*
X179260887Y-19456367D01*
X179229569Y-19473107D01*
X179195591Y-19483415D01*
X179154110Y-19487500D01*
X178477890Y-19487500D01*
X178436409Y-19483415D01*
X178402431Y-19473107D01*
X178371113Y-19456367D01*
X178343661Y-19433839D01*
X178321133Y-19406387D01*
X178304393Y-19375069D01*
X178294085Y-19341091D01*
X178290000Y-19299610D01*
X178290000Y-18698390D01*
X178294085Y-18656909D01*
X178304393Y-18622931D01*
X178321133Y-18591613D01*
X178343661Y-18564161D01*
X178371113Y-18541633D01*
X178402431Y-18524893D01*
X178436409Y-18514585D01*
X178477890Y-18510500D01*
X179154110Y-18510500D01*
X179195591Y-18514585D01*
X179195591Y-18514585D01*
G37*
G36*
X168662336Y-17408559D02*
X168728520Y-17415077D01*
X168841746Y-17449424D01*
X168898360Y-17466597D01*
X169006051Y-17524160D01*
X169054884Y-17550262D01*
X169090622Y-17579592D01*
X169192079Y-17662854D01*
X169275341Y-17764311D01*
X169304671Y-17800049D01*
X169304672Y-17800051D01*
X169388336Y-17956573D01*
X169388336Y-17956574D01*
X169439856Y-18126413D01*
X169457252Y-18303040D01*
X169439856Y-18479667D01*
X169410281Y-18577164D01*
X169388336Y-18649507D01*
X169318451Y-18780250D01*
X169304671Y-18806031D01*
X169275341Y-18841769D01*
X169192079Y-18943226D01*
X169121937Y-19000789D01*
X169054884Y-19055818D01*
X169054882Y-19055819D01*
X168898360Y-19139483D01*
X168841746Y-19156656D01*
X168728520Y-19191003D01*
X168662335Y-19197522D01*
X168596153Y-19204040D01*
X168507633Y-19204040D01*
X168441451Y-19197522D01*
X168375266Y-19191003D01*
X168262040Y-19156656D01*
X168205426Y-19139483D01*
X168048904Y-19055819D01*
X168048902Y-19055818D01*
X167981849Y-19000789D01*
X167911707Y-18943226D01*
X167828445Y-18841769D01*
X167799115Y-18806031D01*
X167785335Y-18780250D01*
X167715450Y-18649507D01*
X167693505Y-18577164D01*
X167663930Y-18479667D01*
X167646534Y-18303040D01*
X167663930Y-18126413D01*
X167715450Y-17956574D01*
X167715450Y-17956573D01*
X167799114Y-17800051D01*
X167799115Y-17800049D01*
X167828445Y-17764311D01*
X167911707Y-17662854D01*
X168013164Y-17579592D01*
X168048902Y-17550262D01*
X168097735Y-17524160D01*
X168205426Y-17466597D01*
X168262040Y-17449424D01*
X168375266Y-17415077D01*
X168441451Y-17408558D01*
X168507633Y-17402040D01*
X168596153Y-17402040D01*
X168662336Y-17408559D01*
X168662336Y-17408559D01*
G37*
G36*
X171992893Y-19204040D02*
X170190893Y-19204040D01*
X170190893Y-17402040D01*
X171992893Y-17402040D01*
X171992893Y-19204040D01*
X171992893Y-19204040D01*
G37*
G36*
X163582336Y-17408559D02*
X163648520Y-17415077D01*
X163761746Y-17449424D01*
X163818360Y-17466597D01*
X163926051Y-17524160D01*
X163974884Y-17550262D01*
X164010622Y-17579592D01*
X164112079Y-17662854D01*
X164195341Y-17764311D01*
X164224671Y-17800049D01*
X164224672Y-17800051D01*
X164308336Y-17956573D01*
X164308336Y-17956574D01*
X164359856Y-18126413D01*
X164377252Y-18303040D01*
X164359856Y-18479667D01*
X164330281Y-18577164D01*
X164308336Y-18649507D01*
X164238451Y-18780250D01*
X164224671Y-18806031D01*
X164195341Y-18841769D01*
X164112079Y-18943226D01*
X164041937Y-19000789D01*
X163974884Y-19055818D01*
X163974882Y-19055819D01*
X163818360Y-19139483D01*
X163761746Y-19156656D01*
X163648520Y-19191003D01*
X163582335Y-19197522D01*
X163516153Y-19204040D01*
X163427633Y-19204040D01*
X163361451Y-19197522D01*
X163295266Y-19191003D01*
X163182040Y-19156656D01*
X163125426Y-19139483D01*
X162968904Y-19055819D01*
X162968902Y-19055818D01*
X162901849Y-19000789D01*
X162831707Y-18943226D01*
X162748445Y-18841769D01*
X162719115Y-18806031D01*
X162705335Y-18780250D01*
X162635450Y-18649507D01*
X162613505Y-18577164D01*
X162583930Y-18479667D01*
X162566534Y-18303040D01*
X162583930Y-18126413D01*
X162635450Y-17956574D01*
X162635450Y-17956573D01*
X162719114Y-17800051D01*
X162719115Y-17800049D01*
X162748445Y-17764311D01*
X162831707Y-17662854D01*
X162933164Y-17579592D01*
X162968902Y-17550262D01*
X163017735Y-17524160D01*
X163125426Y-17466597D01*
X163182040Y-17449424D01*
X163295266Y-17415077D01*
X163361451Y-17408558D01*
X163427633Y-17402040D01*
X163516153Y-17402040D01*
X163582336Y-17408559D01*
X163582336Y-17408559D01*
G37*
G36*
X166122336Y-17408559D02*
X166188520Y-17415077D01*
X166301746Y-17449424D01*
X166358360Y-17466597D01*
X166466051Y-17524160D01*
X166514884Y-17550262D01*
X166550622Y-17579592D01*
X166652079Y-17662854D01*
X166735341Y-17764311D01*
X166764671Y-17800049D01*
X166764672Y-17800051D01*
X166848336Y-17956573D01*
X166848336Y-17956574D01*
X166899856Y-18126413D01*
X166917252Y-18303040D01*
X166899856Y-18479667D01*
X166870281Y-18577164D01*
X166848336Y-18649507D01*
X166778451Y-18780250D01*
X166764671Y-18806031D01*
X166735341Y-18841769D01*
X166652079Y-18943226D01*
X166581937Y-19000789D01*
X166514884Y-19055818D01*
X166514882Y-19055819D01*
X166358360Y-19139483D01*
X166301746Y-19156656D01*
X166188520Y-19191003D01*
X166122335Y-19197522D01*
X166056153Y-19204040D01*
X165967633Y-19204040D01*
X165901451Y-19197522D01*
X165835266Y-19191003D01*
X165722040Y-19156656D01*
X165665426Y-19139483D01*
X165508904Y-19055819D01*
X165508902Y-19055818D01*
X165441849Y-19000789D01*
X165371707Y-18943226D01*
X165288445Y-18841769D01*
X165259115Y-18806031D01*
X165245335Y-18780250D01*
X165175450Y-18649507D01*
X165153505Y-18577164D01*
X165123930Y-18479667D01*
X165106534Y-18303040D01*
X165123930Y-18126413D01*
X165175450Y-17956574D01*
X165175450Y-17956573D01*
X165259114Y-17800051D01*
X165259115Y-17800049D01*
X165288445Y-17764311D01*
X165371707Y-17662854D01*
X165473164Y-17579592D01*
X165508902Y-17550262D01*
X165557735Y-17524160D01*
X165665426Y-17466597D01*
X165722040Y-17449424D01*
X165835266Y-17415077D01*
X165901451Y-17408558D01*
X165967633Y-17402040D01*
X166056153Y-17402040D01*
X166122336Y-17408559D01*
X166122336Y-17408559D01*
G37*
G36*
X148400958Y-17269864D02*
X148467143Y-17276383D01*
X148580369Y-17310730D01*
X148636983Y-17327903D01*
X148775603Y-17401998D01*
X148793507Y-17411568D01*
X148829245Y-17440898D01*
X148930702Y-17524160D01*
X149013964Y-17625617D01*
X149043294Y-17661355D01*
X149043295Y-17661357D01*
X149126959Y-17817879D01*
X149126959Y-17817880D01*
X149178479Y-17987719D01*
X149195875Y-18164346D01*
X149178479Y-18340973D01*
X149144132Y-18454199D01*
X149126959Y-18510813D01*
X149069103Y-18619052D01*
X149043294Y-18667337D01*
X149027337Y-18686780D01*
X148930702Y-18804532D01*
X148829245Y-18887794D01*
X148793507Y-18917124D01*
X148793505Y-18917125D01*
X148636983Y-19000789D01*
X148580369Y-19017962D01*
X148467143Y-19052309D01*
X148400959Y-19058827D01*
X148334776Y-19065346D01*
X148246256Y-19065346D01*
X148180074Y-19058828D01*
X148113889Y-19052309D01*
X148000663Y-19017962D01*
X147944049Y-19000789D01*
X147787527Y-18917125D01*
X147787525Y-18917124D01*
X147751787Y-18887794D01*
X147650330Y-18804532D01*
X147553695Y-18686780D01*
X147537738Y-18667337D01*
X147511929Y-18619052D01*
X147454073Y-18510813D01*
X147436900Y-18454199D01*
X147402553Y-18340973D01*
X147385157Y-18164346D01*
X147402553Y-17987719D01*
X147454073Y-17817880D01*
X147454073Y-17817879D01*
X147537737Y-17661357D01*
X147537738Y-17661355D01*
X147567068Y-17625617D01*
X147650330Y-17524160D01*
X147751787Y-17440898D01*
X147787525Y-17411568D01*
X147805429Y-17401998D01*
X147944049Y-17327903D01*
X148000663Y-17310730D01*
X148113889Y-17276383D01*
X148180073Y-17269865D01*
X148246256Y-17263346D01*
X148334776Y-17263346D01*
X148400958Y-17269864D01*
X148400958Y-17269864D01*
G37*
G36*
X146651516Y-19065346D02*
X144849516Y-19065346D01*
X144849516Y-17263346D01*
X146651516Y-17263346D01*
X146651516Y-19065346D01*
X146651516Y-19065346D01*
G37*
G36*
X150940958Y-17269864D02*
X151007143Y-17276383D01*
X151120369Y-17310730D01*
X151176983Y-17327903D01*
X151315603Y-17401998D01*
X151333507Y-17411568D01*
X151369245Y-17440898D01*
X151470702Y-17524160D01*
X151553964Y-17625617D01*
X151583294Y-17661355D01*
X151583295Y-17661357D01*
X151666959Y-17817879D01*
X151666959Y-17817880D01*
X151718479Y-17987719D01*
X151735875Y-18164346D01*
X151718479Y-18340973D01*
X151684132Y-18454199D01*
X151666959Y-18510813D01*
X151609103Y-18619052D01*
X151583294Y-18667337D01*
X151567337Y-18686780D01*
X151470702Y-18804532D01*
X151369245Y-18887794D01*
X151333507Y-18917124D01*
X151333505Y-18917125D01*
X151176983Y-19000789D01*
X151120369Y-19017962D01*
X151007143Y-19052309D01*
X150940959Y-19058827D01*
X150874776Y-19065346D01*
X150786256Y-19065346D01*
X150720074Y-19058828D01*
X150653889Y-19052309D01*
X150540663Y-19017962D01*
X150484049Y-19000789D01*
X150327527Y-18917125D01*
X150327525Y-18917124D01*
X150291787Y-18887794D01*
X150190330Y-18804532D01*
X150093695Y-18686780D01*
X150077738Y-18667337D01*
X150051929Y-18619052D01*
X149994073Y-18510813D01*
X149976900Y-18454199D01*
X149942553Y-18340973D01*
X149925157Y-18164346D01*
X149942553Y-17987719D01*
X149994073Y-17817880D01*
X149994073Y-17817879D01*
X150077737Y-17661357D01*
X150077738Y-17661355D01*
X150107068Y-17625617D01*
X150190330Y-17524160D01*
X150291787Y-17440898D01*
X150327525Y-17411568D01*
X150345429Y-17401998D01*
X150484049Y-17327903D01*
X150540663Y-17310730D01*
X150653889Y-17276383D01*
X150720073Y-17269865D01*
X150786256Y-17263346D01*
X150874776Y-17263346D01*
X150940958Y-17269864D01*
X150940958Y-17269864D01*
G37*
G36*
X153480958Y-17269864D02*
X153547143Y-17276383D01*
X153660369Y-17310730D01*
X153716983Y-17327903D01*
X153855603Y-17401998D01*
X153873507Y-17411568D01*
X153909245Y-17440898D01*
X154010702Y-17524160D01*
X154093964Y-17625617D01*
X154123294Y-17661355D01*
X154123295Y-17661357D01*
X154206959Y-17817879D01*
X154206959Y-17817880D01*
X154258479Y-17987719D01*
X154275875Y-18164346D01*
X154258479Y-18340973D01*
X154224132Y-18454199D01*
X154206959Y-18510813D01*
X154149103Y-18619052D01*
X154123294Y-18667337D01*
X154107337Y-18686780D01*
X154010702Y-18804532D01*
X153909245Y-18887794D01*
X153873507Y-18917124D01*
X153873505Y-18917125D01*
X153716983Y-19000789D01*
X153660369Y-19017962D01*
X153547143Y-19052309D01*
X153480959Y-19058827D01*
X153414776Y-19065346D01*
X153326256Y-19065346D01*
X153260074Y-19058828D01*
X153193889Y-19052309D01*
X153080663Y-19017962D01*
X153024049Y-19000789D01*
X152867527Y-18917125D01*
X152867525Y-18917124D01*
X152831787Y-18887794D01*
X152730330Y-18804532D01*
X152633695Y-18686780D01*
X152617738Y-18667337D01*
X152591929Y-18619052D01*
X152534073Y-18510813D01*
X152516900Y-18454199D01*
X152482553Y-18340973D01*
X152465157Y-18164346D01*
X152482553Y-17987719D01*
X152534073Y-17817880D01*
X152534073Y-17817879D01*
X152617737Y-17661357D01*
X152617738Y-17661355D01*
X152647068Y-17625617D01*
X152730330Y-17524160D01*
X152831787Y-17440898D01*
X152867525Y-17411568D01*
X152885429Y-17401998D01*
X153024049Y-17327903D01*
X153080663Y-17310730D01*
X153193889Y-17276383D01*
X153260073Y-17269865D01*
X153326256Y-17263346D01*
X153414776Y-17263346D01*
X153480958Y-17269864D01*
X153480958Y-17269864D01*
G37*
G36*
X156020958Y-17269864D02*
X156087143Y-17276383D01*
X156200369Y-17310730D01*
X156256983Y-17327903D01*
X156395603Y-17401998D01*
X156413507Y-17411568D01*
X156449245Y-17440898D01*
X156550702Y-17524160D01*
X156633964Y-17625617D01*
X156663294Y-17661355D01*
X156663295Y-17661357D01*
X156746959Y-17817879D01*
X156746959Y-17817880D01*
X156798479Y-17987719D01*
X156815875Y-18164346D01*
X156798479Y-18340973D01*
X156764132Y-18454199D01*
X156746959Y-18510813D01*
X156689103Y-18619052D01*
X156663294Y-18667337D01*
X156647337Y-18686780D01*
X156550702Y-18804532D01*
X156449245Y-18887794D01*
X156413507Y-18917124D01*
X156413505Y-18917125D01*
X156256983Y-19000789D01*
X156200369Y-19017962D01*
X156087143Y-19052309D01*
X156020959Y-19058827D01*
X155954776Y-19065346D01*
X155866256Y-19065346D01*
X155800074Y-19058828D01*
X155733889Y-19052309D01*
X155620663Y-19017962D01*
X155564049Y-19000789D01*
X155407527Y-18917125D01*
X155407525Y-18917124D01*
X155371787Y-18887794D01*
X155270330Y-18804532D01*
X155173695Y-18686780D01*
X155157738Y-18667337D01*
X155131929Y-18619052D01*
X155074073Y-18510813D01*
X155056900Y-18454199D01*
X155022553Y-18340973D01*
X155005157Y-18164346D01*
X155022553Y-17987719D01*
X155074073Y-17817880D01*
X155074073Y-17817879D01*
X155157737Y-17661357D01*
X155157738Y-17661355D01*
X155187068Y-17625617D01*
X155270330Y-17524160D01*
X155371787Y-17440898D01*
X155407525Y-17411568D01*
X155425429Y-17401998D01*
X155564049Y-17327903D01*
X155620663Y-17310730D01*
X155733889Y-17276383D01*
X155800073Y-17269865D01*
X155866256Y-17263346D01*
X155954776Y-17263346D01*
X156020958Y-17269864D01*
X156020958Y-17269864D01*
G37*
G36*
X158560958Y-17269864D02*
X158627143Y-17276383D01*
X158740369Y-17310730D01*
X158796983Y-17327903D01*
X158935603Y-17401998D01*
X158953507Y-17411568D01*
X158989245Y-17440898D01*
X159090702Y-17524160D01*
X159173964Y-17625617D01*
X159203294Y-17661355D01*
X159203295Y-17661357D01*
X159286959Y-17817879D01*
X159286959Y-17817880D01*
X159338479Y-17987719D01*
X159355875Y-18164346D01*
X159338479Y-18340973D01*
X159304132Y-18454199D01*
X159286959Y-18510813D01*
X159229103Y-18619052D01*
X159203294Y-18667337D01*
X159187337Y-18686780D01*
X159090702Y-18804532D01*
X158989245Y-18887794D01*
X158953507Y-18917124D01*
X158953505Y-18917125D01*
X158796983Y-19000789D01*
X158740369Y-19017962D01*
X158627143Y-19052309D01*
X158560959Y-19058827D01*
X158494776Y-19065346D01*
X158406256Y-19065346D01*
X158340074Y-19058828D01*
X158273889Y-19052309D01*
X158160663Y-19017962D01*
X158104049Y-19000789D01*
X157947527Y-18917125D01*
X157947525Y-18917124D01*
X157911787Y-18887794D01*
X157810330Y-18804532D01*
X157713695Y-18686780D01*
X157697738Y-18667337D01*
X157671929Y-18619052D01*
X157614073Y-18510813D01*
X157596900Y-18454199D01*
X157562553Y-18340973D01*
X157545157Y-18164346D01*
X157562553Y-17987719D01*
X157614073Y-17817880D01*
X157614073Y-17817879D01*
X157697737Y-17661357D01*
X157697738Y-17661355D01*
X157727068Y-17625617D01*
X157810330Y-17524160D01*
X157911787Y-17440898D01*
X157947525Y-17411568D01*
X157965429Y-17401998D01*
X158104049Y-17327903D01*
X158160663Y-17310730D01*
X158273889Y-17276383D01*
X158340073Y-17269865D01*
X158406256Y-17263346D01*
X158494776Y-17263346D01*
X158560958Y-17269864D01*
X158560958Y-17269864D01*
G37*
M02*
