G04 #@! TF.GenerationSoftware,KiCad,Pcbnew,(5.0.1)-3*
G04 #@! TF.CreationDate,2018-11-05T12:52:08+09:00*
G04 #@! TF.ProjectId,badge,62616467652E6B696361645F70636200,rev?*
G04 #@! TF.SameCoordinates,Original*
G04 #@! TF.FileFunction,Paste,Top*
G04 #@! TF.FilePolarity,Positive*
%FSLAX46Y46*%
G04 Gerber Fmt 4.6, Leading zero omitted, Abs format (unit mm)*
G04 Created by KiCad (PCBNEW (5.0.1)-3) date 2018-11-05 오후 12:52:08*
%MOMM*%
%LPD*%
G01*
G04 APERTURE LIST*
%ADD10R,0.900000X0.300000*%
%ADD11R,1.500000X1.400000*%
%ADD12C,0.100000*%
%ADD13C,0.975000*%
%ADD14R,1.000000X1.900000*%
%ADD15R,1.000000X1.500000*%
%ADD16R,1.400000X1.300000*%
%ADD17R,0.800000X0.900000*%
G04 APERTURE END LIST*
D10*
G04 #@! TO.C,DS2*
X125850000Y-67000000D03*
X125850000Y-67500000D03*
X125850000Y-68000000D03*
X125850000Y-68500000D03*
X125850000Y-69000000D03*
X125850000Y-69500000D03*
X125850000Y-70000000D03*
X125850000Y-70500000D03*
X125850000Y-71000000D03*
X125850000Y-71500000D03*
X125850000Y-72000000D03*
X125850000Y-72500000D03*
X125850000Y-73000000D03*
X125850000Y-73500000D03*
X125850000Y-74000000D03*
X125850000Y-74500000D03*
X125850000Y-75000000D03*
X125850000Y-75500000D03*
X125850000Y-76000000D03*
X125850000Y-76500000D03*
X125850000Y-77000000D03*
X125850000Y-77500000D03*
X125850000Y-78000000D03*
X125850000Y-78500000D03*
X125850000Y-79000000D03*
X125850000Y-79500000D03*
X125850000Y-80000000D03*
X125850000Y-80500000D03*
X125850000Y-81000000D03*
X125850000Y-81500000D03*
X125850000Y-82000000D03*
X125850000Y-82500000D03*
X125850000Y-83000000D03*
X125850000Y-83500000D03*
X125850000Y-84000000D03*
X125850000Y-84500000D03*
X125850000Y-85000000D03*
X125850000Y-85500000D03*
X125850000Y-86000000D03*
X125850000Y-86500000D03*
D11*
X128950000Y-88000000D03*
X128950000Y-65500000D03*
G04 #@! TD*
D12*
G04 #@! TO.C,R7*
G36*
X146403142Y-39059174D02*
X146426803Y-39062684D01*
X146450007Y-39068496D01*
X146472529Y-39076554D01*
X146494153Y-39086782D01*
X146514670Y-39099079D01*
X146533883Y-39113329D01*
X146551607Y-39129393D01*
X146567671Y-39147117D01*
X146581921Y-39166330D01*
X146594218Y-39186847D01*
X146604446Y-39208471D01*
X146612504Y-39230993D01*
X146618316Y-39254197D01*
X146621826Y-39277858D01*
X146623000Y-39301750D01*
X146623000Y-39789250D01*
X146621826Y-39813142D01*
X146618316Y-39836803D01*
X146612504Y-39860007D01*
X146604446Y-39882529D01*
X146594218Y-39904153D01*
X146581921Y-39924670D01*
X146567671Y-39943883D01*
X146551607Y-39961607D01*
X146533883Y-39977671D01*
X146514670Y-39991921D01*
X146494153Y-40004218D01*
X146472529Y-40014446D01*
X146450007Y-40022504D01*
X146426803Y-40028316D01*
X146403142Y-40031826D01*
X146379250Y-40033000D01*
X145466750Y-40033000D01*
X145442858Y-40031826D01*
X145419197Y-40028316D01*
X145395993Y-40022504D01*
X145373471Y-40014446D01*
X145351847Y-40004218D01*
X145331330Y-39991921D01*
X145312117Y-39977671D01*
X145294393Y-39961607D01*
X145278329Y-39943883D01*
X145264079Y-39924670D01*
X145251782Y-39904153D01*
X145241554Y-39882529D01*
X145233496Y-39860007D01*
X145227684Y-39836803D01*
X145224174Y-39813142D01*
X145223000Y-39789250D01*
X145223000Y-39301750D01*
X145224174Y-39277858D01*
X145227684Y-39254197D01*
X145233496Y-39230993D01*
X145241554Y-39208471D01*
X145251782Y-39186847D01*
X145264079Y-39166330D01*
X145278329Y-39147117D01*
X145294393Y-39129393D01*
X145312117Y-39113329D01*
X145331330Y-39099079D01*
X145351847Y-39086782D01*
X145373471Y-39076554D01*
X145395993Y-39068496D01*
X145419197Y-39062684D01*
X145442858Y-39059174D01*
X145466750Y-39058000D01*
X146379250Y-39058000D01*
X146403142Y-39059174D01*
X146403142Y-39059174D01*
G37*
D13*
X145923000Y-39545500D03*
D12*
G36*
X146403142Y-37184174D02*
X146426803Y-37187684D01*
X146450007Y-37193496D01*
X146472529Y-37201554D01*
X146494153Y-37211782D01*
X146514670Y-37224079D01*
X146533883Y-37238329D01*
X146551607Y-37254393D01*
X146567671Y-37272117D01*
X146581921Y-37291330D01*
X146594218Y-37311847D01*
X146604446Y-37333471D01*
X146612504Y-37355993D01*
X146618316Y-37379197D01*
X146621826Y-37402858D01*
X146623000Y-37426750D01*
X146623000Y-37914250D01*
X146621826Y-37938142D01*
X146618316Y-37961803D01*
X146612504Y-37985007D01*
X146604446Y-38007529D01*
X146594218Y-38029153D01*
X146581921Y-38049670D01*
X146567671Y-38068883D01*
X146551607Y-38086607D01*
X146533883Y-38102671D01*
X146514670Y-38116921D01*
X146494153Y-38129218D01*
X146472529Y-38139446D01*
X146450007Y-38147504D01*
X146426803Y-38153316D01*
X146403142Y-38156826D01*
X146379250Y-38158000D01*
X145466750Y-38158000D01*
X145442858Y-38156826D01*
X145419197Y-38153316D01*
X145395993Y-38147504D01*
X145373471Y-38139446D01*
X145351847Y-38129218D01*
X145331330Y-38116921D01*
X145312117Y-38102671D01*
X145294393Y-38086607D01*
X145278329Y-38068883D01*
X145264079Y-38049670D01*
X145251782Y-38029153D01*
X145241554Y-38007529D01*
X145233496Y-37985007D01*
X145227684Y-37961803D01*
X145224174Y-37938142D01*
X145223000Y-37914250D01*
X145223000Y-37426750D01*
X145224174Y-37402858D01*
X145227684Y-37379197D01*
X145233496Y-37355993D01*
X145241554Y-37333471D01*
X145251782Y-37311847D01*
X145264079Y-37291330D01*
X145278329Y-37272117D01*
X145294393Y-37254393D01*
X145312117Y-37238329D01*
X145331330Y-37224079D01*
X145351847Y-37211782D01*
X145373471Y-37201554D01*
X145395993Y-37193496D01*
X145419197Y-37187684D01*
X145442858Y-37184174D01*
X145466750Y-37183000D01*
X146379250Y-37183000D01*
X146403142Y-37184174D01*
X146403142Y-37184174D01*
G37*
D13*
X145923000Y-37670500D03*
G04 #@! TD*
D12*
G04 #@! TO.C,C8*
G36*
X143863142Y-39059174D02*
X143886803Y-39062684D01*
X143910007Y-39068496D01*
X143932529Y-39076554D01*
X143954153Y-39086782D01*
X143974670Y-39099079D01*
X143993883Y-39113329D01*
X144011607Y-39129393D01*
X144027671Y-39147117D01*
X144041921Y-39166330D01*
X144054218Y-39186847D01*
X144064446Y-39208471D01*
X144072504Y-39230993D01*
X144078316Y-39254197D01*
X144081826Y-39277858D01*
X144083000Y-39301750D01*
X144083000Y-39789250D01*
X144081826Y-39813142D01*
X144078316Y-39836803D01*
X144072504Y-39860007D01*
X144064446Y-39882529D01*
X144054218Y-39904153D01*
X144041921Y-39924670D01*
X144027671Y-39943883D01*
X144011607Y-39961607D01*
X143993883Y-39977671D01*
X143974670Y-39991921D01*
X143954153Y-40004218D01*
X143932529Y-40014446D01*
X143910007Y-40022504D01*
X143886803Y-40028316D01*
X143863142Y-40031826D01*
X143839250Y-40033000D01*
X142926750Y-40033000D01*
X142902858Y-40031826D01*
X142879197Y-40028316D01*
X142855993Y-40022504D01*
X142833471Y-40014446D01*
X142811847Y-40004218D01*
X142791330Y-39991921D01*
X142772117Y-39977671D01*
X142754393Y-39961607D01*
X142738329Y-39943883D01*
X142724079Y-39924670D01*
X142711782Y-39904153D01*
X142701554Y-39882529D01*
X142693496Y-39860007D01*
X142687684Y-39836803D01*
X142684174Y-39813142D01*
X142683000Y-39789250D01*
X142683000Y-39301750D01*
X142684174Y-39277858D01*
X142687684Y-39254197D01*
X142693496Y-39230993D01*
X142701554Y-39208471D01*
X142711782Y-39186847D01*
X142724079Y-39166330D01*
X142738329Y-39147117D01*
X142754393Y-39129393D01*
X142772117Y-39113329D01*
X142791330Y-39099079D01*
X142811847Y-39086782D01*
X142833471Y-39076554D01*
X142855993Y-39068496D01*
X142879197Y-39062684D01*
X142902858Y-39059174D01*
X142926750Y-39058000D01*
X143839250Y-39058000D01*
X143863142Y-39059174D01*
X143863142Y-39059174D01*
G37*
D13*
X143383000Y-39545500D03*
D12*
G36*
X143863142Y-37184174D02*
X143886803Y-37187684D01*
X143910007Y-37193496D01*
X143932529Y-37201554D01*
X143954153Y-37211782D01*
X143974670Y-37224079D01*
X143993883Y-37238329D01*
X144011607Y-37254393D01*
X144027671Y-37272117D01*
X144041921Y-37291330D01*
X144054218Y-37311847D01*
X144064446Y-37333471D01*
X144072504Y-37355993D01*
X144078316Y-37379197D01*
X144081826Y-37402858D01*
X144083000Y-37426750D01*
X144083000Y-37914250D01*
X144081826Y-37938142D01*
X144078316Y-37961803D01*
X144072504Y-37985007D01*
X144064446Y-38007529D01*
X144054218Y-38029153D01*
X144041921Y-38049670D01*
X144027671Y-38068883D01*
X144011607Y-38086607D01*
X143993883Y-38102671D01*
X143974670Y-38116921D01*
X143954153Y-38129218D01*
X143932529Y-38139446D01*
X143910007Y-38147504D01*
X143886803Y-38153316D01*
X143863142Y-38156826D01*
X143839250Y-38158000D01*
X142926750Y-38158000D01*
X142902858Y-38156826D01*
X142879197Y-38153316D01*
X142855993Y-38147504D01*
X142833471Y-38139446D01*
X142811847Y-38129218D01*
X142791330Y-38116921D01*
X142772117Y-38102671D01*
X142754393Y-38086607D01*
X142738329Y-38068883D01*
X142724079Y-38049670D01*
X142711782Y-38029153D01*
X142701554Y-38007529D01*
X142693496Y-37985007D01*
X142687684Y-37961803D01*
X142684174Y-37938142D01*
X142683000Y-37914250D01*
X142683000Y-37426750D01*
X142684174Y-37402858D01*
X142687684Y-37379197D01*
X142693496Y-37355993D01*
X142701554Y-37333471D01*
X142711782Y-37311847D01*
X142724079Y-37291330D01*
X142738329Y-37272117D01*
X142754393Y-37254393D01*
X142772117Y-37238329D01*
X142791330Y-37224079D01*
X142811847Y-37211782D01*
X142833471Y-37201554D01*
X142855993Y-37193496D01*
X142879197Y-37187684D01*
X142902858Y-37184174D01*
X142926750Y-37183000D01*
X143839250Y-37183000D01*
X143863142Y-37184174D01*
X143863142Y-37184174D01*
G37*
D13*
X143383000Y-37670500D03*
G04 #@! TD*
D12*
G04 #@! TO.C,R4*
G36*
X141323142Y-39059174D02*
X141346803Y-39062684D01*
X141370007Y-39068496D01*
X141392529Y-39076554D01*
X141414153Y-39086782D01*
X141434670Y-39099079D01*
X141453883Y-39113329D01*
X141471607Y-39129393D01*
X141487671Y-39147117D01*
X141501921Y-39166330D01*
X141514218Y-39186847D01*
X141524446Y-39208471D01*
X141532504Y-39230993D01*
X141538316Y-39254197D01*
X141541826Y-39277858D01*
X141543000Y-39301750D01*
X141543000Y-39789250D01*
X141541826Y-39813142D01*
X141538316Y-39836803D01*
X141532504Y-39860007D01*
X141524446Y-39882529D01*
X141514218Y-39904153D01*
X141501921Y-39924670D01*
X141487671Y-39943883D01*
X141471607Y-39961607D01*
X141453883Y-39977671D01*
X141434670Y-39991921D01*
X141414153Y-40004218D01*
X141392529Y-40014446D01*
X141370007Y-40022504D01*
X141346803Y-40028316D01*
X141323142Y-40031826D01*
X141299250Y-40033000D01*
X140386750Y-40033000D01*
X140362858Y-40031826D01*
X140339197Y-40028316D01*
X140315993Y-40022504D01*
X140293471Y-40014446D01*
X140271847Y-40004218D01*
X140251330Y-39991921D01*
X140232117Y-39977671D01*
X140214393Y-39961607D01*
X140198329Y-39943883D01*
X140184079Y-39924670D01*
X140171782Y-39904153D01*
X140161554Y-39882529D01*
X140153496Y-39860007D01*
X140147684Y-39836803D01*
X140144174Y-39813142D01*
X140143000Y-39789250D01*
X140143000Y-39301750D01*
X140144174Y-39277858D01*
X140147684Y-39254197D01*
X140153496Y-39230993D01*
X140161554Y-39208471D01*
X140171782Y-39186847D01*
X140184079Y-39166330D01*
X140198329Y-39147117D01*
X140214393Y-39129393D01*
X140232117Y-39113329D01*
X140251330Y-39099079D01*
X140271847Y-39086782D01*
X140293471Y-39076554D01*
X140315993Y-39068496D01*
X140339197Y-39062684D01*
X140362858Y-39059174D01*
X140386750Y-39058000D01*
X141299250Y-39058000D01*
X141323142Y-39059174D01*
X141323142Y-39059174D01*
G37*
D13*
X140843000Y-39545500D03*
D12*
G36*
X141323142Y-37184174D02*
X141346803Y-37187684D01*
X141370007Y-37193496D01*
X141392529Y-37201554D01*
X141414153Y-37211782D01*
X141434670Y-37224079D01*
X141453883Y-37238329D01*
X141471607Y-37254393D01*
X141487671Y-37272117D01*
X141501921Y-37291330D01*
X141514218Y-37311847D01*
X141524446Y-37333471D01*
X141532504Y-37355993D01*
X141538316Y-37379197D01*
X141541826Y-37402858D01*
X141543000Y-37426750D01*
X141543000Y-37914250D01*
X141541826Y-37938142D01*
X141538316Y-37961803D01*
X141532504Y-37985007D01*
X141524446Y-38007529D01*
X141514218Y-38029153D01*
X141501921Y-38049670D01*
X141487671Y-38068883D01*
X141471607Y-38086607D01*
X141453883Y-38102671D01*
X141434670Y-38116921D01*
X141414153Y-38129218D01*
X141392529Y-38139446D01*
X141370007Y-38147504D01*
X141346803Y-38153316D01*
X141323142Y-38156826D01*
X141299250Y-38158000D01*
X140386750Y-38158000D01*
X140362858Y-38156826D01*
X140339197Y-38153316D01*
X140315993Y-38147504D01*
X140293471Y-38139446D01*
X140271847Y-38129218D01*
X140251330Y-38116921D01*
X140232117Y-38102671D01*
X140214393Y-38086607D01*
X140198329Y-38068883D01*
X140184079Y-38049670D01*
X140171782Y-38029153D01*
X140161554Y-38007529D01*
X140153496Y-37985007D01*
X140147684Y-37961803D01*
X140144174Y-37938142D01*
X140143000Y-37914250D01*
X140143000Y-37426750D01*
X140144174Y-37402858D01*
X140147684Y-37379197D01*
X140153496Y-37355993D01*
X140161554Y-37333471D01*
X140171782Y-37311847D01*
X140184079Y-37291330D01*
X140198329Y-37272117D01*
X140214393Y-37254393D01*
X140232117Y-37238329D01*
X140251330Y-37224079D01*
X140271847Y-37211782D01*
X140293471Y-37201554D01*
X140315993Y-37193496D01*
X140339197Y-37187684D01*
X140362858Y-37184174D01*
X140386750Y-37183000D01*
X141299250Y-37183000D01*
X141323142Y-37184174D01*
X141323142Y-37184174D01*
G37*
D13*
X140843000Y-37670500D03*
G04 #@! TD*
D14*
G04 #@! TO.C,J12*
X112776000Y-28917083D03*
X117856000Y-28917083D03*
X122936000Y-28917083D03*
X128016000Y-28917083D03*
X133096000Y-28917083D03*
X138176000Y-28917083D03*
X143256000Y-28917083D03*
X148336000Y-28917083D03*
X153416000Y-28917083D03*
X158496000Y-28917083D03*
X115316000Y-25617083D03*
X120396000Y-25617083D03*
X125476000Y-25617083D03*
X130556000Y-25617083D03*
X135636000Y-25617083D03*
X140716000Y-25617083D03*
X145796000Y-25617083D03*
X150876000Y-25617083D03*
X155956000Y-25617083D03*
G04 #@! TD*
D15*
G04 #@! TO.C,SW3*
X145375000Y-123070000D03*
X140375000Y-108070000D03*
X145375000Y-108070000D03*
X140375000Y-123070000D03*
G04 #@! TD*
G04 #@! TO.C,SW6*
X158710000Y-120530000D03*
X153710000Y-105530000D03*
X158710000Y-105530000D03*
X153710000Y-120530000D03*
G04 #@! TD*
D16*
G04 #@! TO.C,SW7*
X114850000Y-114750000D03*
X126450000Y-114750000D03*
D11*
X126450000Y-111050000D03*
X114850000Y-111050000D03*
X114850000Y-117550000D03*
X126450000Y-117550000D03*
G04 #@! TD*
D12*
G04 #@! TO.C,C3*
G36*
X155166142Y-39059174D02*
X155189803Y-39062684D01*
X155213007Y-39068496D01*
X155235529Y-39076554D01*
X155257153Y-39086782D01*
X155277670Y-39099079D01*
X155296883Y-39113329D01*
X155314607Y-39129393D01*
X155330671Y-39147117D01*
X155344921Y-39166330D01*
X155357218Y-39186847D01*
X155367446Y-39208471D01*
X155375504Y-39230993D01*
X155381316Y-39254197D01*
X155384826Y-39277858D01*
X155386000Y-39301750D01*
X155386000Y-39789250D01*
X155384826Y-39813142D01*
X155381316Y-39836803D01*
X155375504Y-39860007D01*
X155367446Y-39882529D01*
X155357218Y-39904153D01*
X155344921Y-39924670D01*
X155330671Y-39943883D01*
X155314607Y-39961607D01*
X155296883Y-39977671D01*
X155277670Y-39991921D01*
X155257153Y-40004218D01*
X155235529Y-40014446D01*
X155213007Y-40022504D01*
X155189803Y-40028316D01*
X155166142Y-40031826D01*
X155142250Y-40033000D01*
X154229750Y-40033000D01*
X154205858Y-40031826D01*
X154182197Y-40028316D01*
X154158993Y-40022504D01*
X154136471Y-40014446D01*
X154114847Y-40004218D01*
X154094330Y-39991921D01*
X154075117Y-39977671D01*
X154057393Y-39961607D01*
X154041329Y-39943883D01*
X154027079Y-39924670D01*
X154014782Y-39904153D01*
X154004554Y-39882529D01*
X153996496Y-39860007D01*
X153990684Y-39836803D01*
X153987174Y-39813142D01*
X153986000Y-39789250D01*
X153986000Y-39301750D01*
X153987174Y-39277858D01*
X153990684Y-39254197D01*
X153996496Y-39230993D01*
X154004554Y-39208471D01*
X154014782Y-39186847D01*
X154027079Y-39166330D01*
X154041329Y-39147117D01*
X154057393Y-39129393D01*
X154075117Y-39113329D01*
X154094330Y-39099079D01*
X154114847Y-39086782D01*
X154136471Y-39076554D01*
X154158993Y-39068496D01*
X154182197Y-39062684D01*
X154205858Y-39059174D01*
X154229750Y-39058000D01*
X155142250Y-39058000D01*
X155166142Y-39059174D01*
X155166142Y-39059174D01*
G37*
D13*
X154686000Y-39545500D03*
D12*
G36*
X155166142Y-37184174D02*
X155189803Y-37187684D01*
X155213007Y-37193496D01*
X155235529Y-37201554D01*
X155257153Y-37211782D01*
X155277670Y-37224079D01*
X155296883Y-37238329D01*
X155314607Y-37254393D01*
X155330671Y-37272117D01*
X155344921Y-37291330D01*
X155357218Y-37311847D01*
X155367446Y-37333471D01*
X155375504Y-37355993D01*
X155381316Y-37379197D01*
X155384826Y-37402858D01*
X155386000Y-37426750D01*
X155386000Y-37914250D01*
X155384826Y-37938142D01*
X155381316Y-37961803D01*
X155375504Y-37985007D01*
X155367446Y-38007529D01*
X155357218Y-38029153D01*
X155344921Y-38049670D01*
X155330671Y-38068883D01*
X155314607Y-38086607D01*
X155296883Y-38102671D01*
X155277670Y-38116921D01*
X155257153Y-38129218D01*
X155235529Y-38139446D01*
X155213007Y-38147504D01*
X155189803Y-38153316D01*
X155166142Y-38156826D01*
X155142250Y-38158000D01*
X154229750Y-38158000D01*
X154205858Y-38156826D01*
X154182197Y-38153316D01*
X154158993Y-38147504D01*
X154136471Y-38139446D01*
X154114847Y-38129218D01*
X154094330Y-38116921D01*
X154075117Y-38102671D01*
X154057393Y-38086607D01*
X154041329Y-38068883D01*
X154027079Y-38049670D01*
X154014782Y-38029153D01*
X154004554Y-38007529D01*
X153996496Y-37985007D01*
X153990684Y-37961803D01*
X153987174Y-37938142D01*
X153986000Y-37914250D01*
X153986000Y-37426750D01*
X153987174Y-37402858D01*
X153990684Y-37379197D01*
X153996496Y-37355993D01*
X154004554Y-37333471D01*
X154014782Y-37311847D01*
X154027079Y-37291330D01*
X154041329Y-37272117D01*
X154057393Y-37254393D01*
X154075117Y-37238329D01*
X154094330Y-37224079D01*
X154114847Y-37211782D01*
X154136471Y-37201554D01*
X154158993Y-37193496D01*
X154182197Y-37187684D01*
X154205858Y-37184174D01*
X154229750Y-37183000D01*
X155142250Y-37183000D01*
X155166142Y-37184174D01*
X155166142Y-37184174D01*
G37*
D13*
X154686000Y-37670500D03*
G04 #@! TD*
D12*
G04 #@! TO.C,C2*
G36*
X151356142Y-39059174D02*
X151379803Y-39062684D01*
X151403007Y-39068496D01*
X151425529Y-39076554D01*
X151447153Y-39086782D01*
X151467670Y-39099079D01*
X151486883Y-39113329D01*
X151504607Y-39129393D01*
X151520671Y-39147117D01*
X151534921Y-39166330D01*
X151547218Y-39186847D01*
X151557446Y-39208471D01*
X151565504Y-39230993D01*
X151571316Y-39254197D01*
X151574826Y-39277858D01*
X151576000Y-39301750D01*
X151576000Y-39789250D01*
X151574826Y-39813142D01*
X151571316Y-39836803D01*
X151565504Y-39860007D01*
X151557446Y-39882529D01*
X151547218Y-39904153D01*
X151534921Y-39924670D01*
X151520671Y-39943883D01*
X151504607Y-39961607D01*
X151486883Y-39977671D01*
X151467670Y-39991921D01*
X151447153Y-40004218D01*
X151425529Y-40014446D01*
X151403007Y-40022504D01*
X151379803Y-40028316D01*
X151356142Y-40031826D01*
X151332250Y-40033000D01*
X150419750Y-40033000D01*
X150395858Y-40031826D01*
X150372197Y-40028316D01*
X150348993Y-40022504D01*
X150326471Y-40014446D01*
X150304847Y-40004218D01*
X150284330Y-39991921D01*
X150265117Y-39977671D01*
X150247393Y-39961607D01*
X150231329Y-39943883D01*
X150217079Y-39924670D01*
X150204782Y-39904153D01*
X150194554Y-39882529D01*
X150186496Y-39860007D01*
X150180684Y-39836803D01*
X150177174Y-39813142D01*
X150176000Y-39789250D01*
X150176000Y-39301750D01*
X150177174Y-39277858D01*
X150180684Y-39254197D01*
X150186496Y-39230993D01*
X150194554Y-39208471D01*
X150204782Y-39186847D01*
X150217079Y-39166330D01*
X150231329Y-39147117D01*
X150247393Y-39129393D01*
X150265117Y-39113329D01*
X150284330Y-39099079D01*
X150304847Y-39086782D01*
X150326471Y-39076554D01*
X150348993Y-39068496D01*
X150372197Y-39062684D01*
X150395858Y-39059174D01*
X150419750Y-39058000D01*
X151332250Y-39058000D01*
X151356142Y-39059174D01*
X151356142Y-39059174D01*
G37*
D13*
X150876000Y-39545500D03*
D12*
G36*
X151356142Y-37184174D02*
X151379803Y-37187684D01*
X151403007Y-37193496D01*
X151425529Y-37201554D01*
X151447153Y-37211782D01*
X151467670Y-37224079D01*
X151486883Y-37238329D01*
X151504607Y-37254393D01*
X151520671Y-37272117D01*
X151534921Y-37291330D01*
X151547218Y-37311847D01*
X151557446Y-37333471D01*
X151565504Y-37355993D01*
X151571316Y-37379197D01*
X151574826Y-37402858D01*
X151576000Y-37426750D01*
X151576000Y-37914250D01*
X151574826Y-37938142D01*
X151571316Y-37961803D01*
X151565504Y-37985007D01*
X151557446Y-38007529D01*
X151547218Y-38029153D01*
X151534921Y-38049670D01*
X151520671Y-38068883D01*
X151504607Y-38086607D01*
X151486883Y-38102671D01*
X151467670Y-38116921D01*
X151447153Y-38129218D01*
X151425529Y-38139446D01*
X151403007Y-38147504D01*
X151379803Y-38153316D01*
X151356142Y-38156826D01*
X151332250Y-38158000D01*
X150419750Y-38158000D01*
X150395858Y-38156826D01*
X150372197Y-38153316D01*
X150348993Y-38147504D01*
X150326471Y-38139446D01*
X150304847Y-38129218D01*
X150284330Y-38116921D01*
X150265117Y-38102671D01*
X150247393Y-38086607D01*
X150231329Y-38068883D01*
X150217079Y-38049670D01*
X150204782Y-38029153D01*
X150194554Y-38007529D01*
X150186496Y-37985007D01*
X150180684Y-37961803D01*
X150177174Y-37938142D01*
X150176000Y-37914250D01*
X150176000Y-37426750D01*
X150177174Y-37402858D01*
X150180684Y-37379197D01*
X150186496Y-37355993D01*
X150194554Y-37333471D01*
X150204782Y-37311847D01*
X150217079Y-37291330D01*
X150231329Y-37272117D01*
X150247393Y-37254393D01*
X150265117Y-37238329D01*
X150284330Y-37224079D01*
X150304847Y-37211782D01*
X150326471Y-37201554D01*
X150348993Y-37193496D01*
X150372197Y-37187684D01*
X150395858Y-37184174D01*
X150419750Y-37183000D01*
X151332250Y-37183000D01*
X151356142Y-37184174D01*
X151356142Y-37184174D01*
G37*
D13*
X150876000Y-37670500D03*
G04 #@! TD*
D12*
G04 #@! TO.C,D2*
G36*
X138873142Y-15557174D02*
X138896803Y-15560684D01*
X138920007Y-15566496D01*
X138942529Y-15574554D01*
X138964153Y-15584782D01*
X138984670Y-15597079D01*
X139003883Y-15611329D01*
X139021607Y-15627393D01*
X139037671Y-15645117D01*
X139051921Y-15664330D01*
X139064218Y-15684847D01*
X139074446Y-15706471D01*
X139082504Y-15728993D01*
X139088316Y-15752197D01*
X139091826Y-15775858D01*
X139093000Y-15799750D01*
X139093000Y-16712250D01*
X139091826Y-16736142D01*
X139088316Y-16759803D01*
X139082504Y-16783007D01*
X139074446Y-16805529D01*
X139064218Y-16827153D01*
X139051921Y-16847670D01*
X139037671Y-16866883D01*
X139021607Y-16884607D01*
X139003883Y-16900671D01*
X138984670Y-16914921D01*
X138964153Y-16927218D01*
X138942529Y-16937446D01*
X138920007Y-16945504D01*
X138896803Y-16951316D01*
X138873142Y-16954826D01*
X138849250Y-16956000D01*
X138361750Y-16956000D01*
X138337858Y-16954826D01*
X138314197Y-16951316D01*
X138290993Y-16945504D01*
X138268471Y-16937446D01*
X138246847Y-16927218D01*
X138226330Y-16914921D01*
X138207117Y-16900671D01*
X138189393Y-16884607D01*
X138173329Y-16866883D01*
X138159079Y-16847670D01*
X138146782Y-16827153D01*
X138136554Y-16805529D01*
X138128496Y-16783007D01*
X138122684Y-16759803D01*
X138119174Y-16736142D01*
X138118000Y-16712250D01*
X138118000Y-15799750D01*
X138119174Y-15775858D01*
X138122684Y-15752197D01*
X138128496Y-15728993D01*
X138136554Y-15706471D01*
X138146782Y-15684847D01*
X138159079Y-15664330D01*
X138173329Y-15645117D01*
X138189393Y-15627393D01*
X138207117Y-15611329D01*
X138226330Y-15597079D01*
X138246847Y-15584782D01*
X138268471Y-15574554D01*
X138290993Y-15566496D01*
X138314197Y-15560684D01*
X138337858Y-15557174D01*
X138361750Y-15556000D01*
X138849250Y-15556000D01*
X138873142Y-15557174D01*
X138873142Y-15557174D01*
G37*
D13*
X138605500Y-16256000D03*
D12*
G36*
X136998142Y-15557174D02*
X137021803Y-15560684D01*
X137045007Y-15566496D01*
X137067529Y-15574554D01*
X137089153Y-15584782D01*
X137109670Y-15597079D01*
X137128883Y-15611329D01*
X137146607Y-15627393D01*
X137162671Y-15645117D01*
X137176921Y-15664330D01*
X137189218Y-15684847D01*
X137199446Y-15706471D01*
X137207504Y-15728993D01*
X137213316Y-15752197D01*
X137216826Y-15775858D01*
X137218000Y-15799750D01*
X137218000Y-16712250D01*
X137216826Y-16736142D01*
X137213316Y-16759803D01*
X137207504Y-16783007D01*
X137199446Y-16805529D01*
X137189218Y-16827153D01*
X137176921Y-16847670D01*
X137162671Y-16866883D01*
X137146607Y-16884607D01*
X137128883Y-16900671D01*
X137109670Y-16914921D01*
X137089153Y-16927218D01*
X137067529Y-16937446D01*
X137045007Y-16945504D01*
X137021803Y-16951316D01*
X136998142Y-16954826D01*
X136974250Y-16956000D01*
X136486750Y-16956000D01*
X136462858Y-16954826D01*
X136439197Y-16951316D01*
X136415993Y-16945504D01*
X136393471Y-16937446D01*
X136371847Y-16927218D01*
X136351330Y-16914921D01*
X136332117Y-16900671D01*
X136314393Y-16884607D01*
X136298329Y-16866883D01*
X136284079Y-16847670D01*
X136271782Y-16827153D01*
X136261554Y-16805529D01*
X136253496Y-16783007D01*
X136247684Y-16759803D01*
X136244174Y-16736142D01*
X136243000Y-16712250D01*
X136243000Y-15799750D01*
X136244174Y-15775858D01*
X136247684Y-15752197D01*
X136253496Y-15728993D01*
X136261554Y-15706471D01*
X136271782Y-15684847D01*
X136284079Y-15664330D01*
X136298329Y-15645117D01*
X136314393Y-15627393D01*
X136332117Y-15611329D01*
X136351330Y-15597079D01*
X136371847Y-15584782D01*
X136393471Y-15574554D01*
X136415993Y-15566496D01*
X136439197Y-15560684D01*
X136462858Y-15557174D01*
X136486750Y-15556000D01*
X136974250Y-15556000D01*
X136998142Y-15557174D01*
X136998142Y-15557174D01*
G37*
D13*
X136730500Y-16256000D03*
G04 #@! TD*
D12*
G04 #@! TO.C,D1*
G36*
X135317142Y-15557174D02*
X135340803Y-15560684D01*
X135364007Y-15566496D01*
X135386529Y-15574554D01*
X135408153Y-15584782D01*
X135428670Y-15597079D01*
X135447883Y-15611329D01*
X135465607Y-15627393D01*
X135481671Y-15645117D01*
X135495921Y-15664330D01*
X135508218Y-15684847D01*
X135518446Y-15706471D01*
X135526504Y-15728993D01*
X135532316Y-15752197D01*
X135535826Y-15775858D01*
X135537000Y-15799750D01*
X135537000Y-16712250D01*
X135535826Y-16736142D01*
X135532316Y-16759803D01*
X135526504Y-16783007D01*
X135518446Y-16805529D01*
X135508218Y-16827153D01*
X135495921Y-16847670D01*
X135481671Y-16866883D01*
X135465607Y-16884607D01*
X135447883Y-16900671D01*
X135428670Y-16914921D01*
X135408153Y-16927218D01*
X135386529Y-16937446D01*
X135364007Y-16945504D01*
X135340803Y-16951316D01*
X135317142Y-16954826D01*
X135293250Y-16956000D01*
X134805750Y-16956000D01*
X134781858Y-16954826D01*
X134758197Y-16951316D01*
X134734993Y-16945504D01*
X134712471Y-16937446D01*
X134690847Y-16927218D01*
X134670330Y-16914921D01*
X134651117Y-16900671D01*
X134633393Y-16884607D01*
X134617329Y-16866883D01*
X134603079Y-16847670D01*
X134590782Y-16827153D01*
X134580554Y-16805529D01*
X134572496Y-16783007D01*
X134566684Y-16759803D01*
X134563174Y-16736142D01*
X134562000Y-16712250D01*
X134562000Y-15799750D01*
X134563174Y-15775858D01*
X134566684Y-15752197D01*
X134572496Y-15728993D01*
X134580554Y-15706471D01*
X134590782Y-15684847D01*
X134603079Y-15664330D01*
X134617329Y-15645117D01*
X134633393Y-15627393D01*
X134651117Y-15611329D01*
X134670330Y-15597079D01*
X134690847Y-15584782D01*
X134712471Y-15574554D01*
X134734993Y-15566496D01*
X134758197Y-15560684D01*
X134781858Y-15557174D01*
X134805750Y-15556000D01*
X135293250Y-15556000D01*
X135317142Y-15557174D01*
X135317142Y-15557174D01*
G37*
D13*
X135049500Y-16256000D03*
D12*
G36*
X133442142Y-15557174D02*
X133465803Y-15560684D01*
X133489007Y-15566496D01*
X133511529Y-15574554D01*
X133533153Y-15584782D01*
X133553670Y-15597079D01*
X133572883Y-15611329D01*
X133590607Y-15627393D01*
X133606671Y-15645117D01*
X133620921Y-15664330D01*
X133633218Y-15684847D01*
X133643446Y-15706471D01*
X133651504Y-15728993D01*
X133657316Y-15752197D01*
X133660826Y-15775858D01*
X133662000Y-15799750D01*
X133662000Y-16712250D01*
X133660826Y-16736142D01*
X133657316Y-16759803D01*
X133651504Y-16783007D01*
X133643446Y-16805529D01*
X133633218Y-16827153D01*
X133620921Y-16847670D01*
X133606671Y-16866883D01*
X133590607Y-16884607D01*
X133572883Y-16900671D01*
X133553670Y-16914921D01*
X133533153Y-16927218D01*
X133511529Y-16937446D01*
X133489007Y-16945504D01*
X133465803Y-16951316D01*
X133442142Y-16954826D01*
X133418250Y-16956000D01*
X132930750Y-16956000D01*
X132906858Y-16954826D01*
X132883197Y-16951316D01*
X132859993Y-16945504D01*
X132837471Y-16937446D01*
X132815847Y-16927218D01*
X132795330Y-16914921D01*
X132776117Y-16900671D01*
X132758393Y-16884607D01*
X132742329Y-16866883D01*
X132728079Y-16847670D01*
X132715782Y-16827153D01*
X132705554Y-16805529D01*
X132697496Y-16783007D01*
X132691684Y-16759803D01*
X132688174Y-16736142D01*
X132687000Y-16712250D01*
X132687000Y-15799750D01*
X132688174Y-15775858D01*
X132691684Y-15752197D01*
X132697496Y-15728993D01*
X132705554Y-15706471D01*
X132715782Y-15684847D01*
X132728079Y-15664330D01*
X132742329Y-15645117D01*
X132758393Y-15627393D01*
X132776117Y-15611329D01*
X132795330Y-15597079D01*
X132815847Y-15584782D01*
X132837471Y-15574554D01*
X132859993Y-15566496D01*
X132883197Y-15560684D01*
X132906858Y-15557174D01*
X132930750Y-15556000D01*
X133418250Y-15556000D01*
X133442142Y-15557174D01*
X133442142Y-15557174D01*
G37*
D13*
X133174500Y-16256000D03*
G04 #@! TD*
D12*
G04 #@! TO.C,R9*
G36*
X121892142Y-39059174D02*
X121915803Y-39062684D01*
X121939007Y-39068496D01*
X121961529Y-39076554D01*
X121983153Y-39086782D01*
X122003670Y-39099079D01*
X122022883Y-39113329D01*
X122040607Y-39129393D01*
X122056671Y-39147117D01*
X122070921Y-39166330D01*
X122083218Y-39186847D01*
X122093446Y-39208471D01*
X122101504Y-39230993D01*
X122107316Y-39254197D01*
X122110826Y-39277858D01*
X122112000Y-39301750D01*
X122112000Y-39789250D01*
X122110826Y-39813142D01*
X122107316Y-39836803D01*
X122101504Y-39860007D01*
X122093446Y-39882529D01*
X122083218Y-39904153D01*
X122070921Y-39924670D01*
X122056671Y-39943883D01*
X122040607Y-39961607D01*
X122022883Y-39977671D01*
X122003670Y-39991921D01*
X121983153Y-40004218D01*
X121961529Y-40014446D01*
X121939007Y-40022504D01*
X121915803Y-40028316D01*
X121892142Y-40031826D01*
X121868250Y-40033000D01*
X120955750Y-40033000D01*
X120931858Y-40031826D01*
X120908197Y-40028316D01*
X120884993Y-40022504D01*
X120862471Y-40014446D01*
X120840847Y-40004218D01*
X120820330Y-39991921D01*
X120801117Y-39977671D01*
X120783393Y-39961607D01*
X120767329Y-39943883D01*
X120753079Y-39924670D01*
X120740782Y-39904153D01*
X120730554Y-39882529D01*
X120722496Y-39860007D01*
X120716684Y-39836803D01*
X120713174Y-39813142D01*
X120712000Y-39789250D01*
X120712000Y-39301750D01*
X120713174Y-39277858D01*
X120716684Y-39254197D01*
X120722496Y-39230993D01*
X120730554Y-39208471D01*
X120740782Y-39186847D01*
X120753079Y-39166330D01*
X120767329Y-39147117D01*
X120783393Y-39129393D01*
X120801117Y-39113329D01*
X120820330Y-39099079D01*
X120840847Y-39086782D01*
X120862471Y-39076554D01*
X120884993Y-39068496D01*
X120908197Y-39062684D01*
X120931858Y-39059174D01*
X120955750Y-39058000D01*
X121868250Y-39058000D01*
X121892142Y-39059174D01*
X121892142Y-39059174D01*
G37*
D13*
X121412000Y-39545500D03*
D12*
G36*
X121892142Y-37184174D02*
X121915803Y-37187684D01*
X121939007Y-37193496D01*
X121961529Y-37201554D01*
X121983153Y-37211782D01*
X122003670Y-37224079D01*
X122022883Y-37238329D01*
X122040607Y-37254393D01*
X122056671Y-37272117D01*
X122070921Y-37291330D01*
X122083218Y-37311847D01*
X122093446Y-37333471D01*
X122101504Y-37355993D01*
X122107316Y-37379197D01*
X122110826Y-37402858D01*
X122112000Y-37426750D01*
X122112000Y-37914250D01*
X122110826Y-37938142D01*
X122107316Y-37961803D01*
X122101504Y-37985007D01*
X122093446Y-38007529D01*
X122083218Y-38029153D01*
X122070921Y-38049670D01*
X122056671Y-38068883D01*
X122040607Y-38086607D01*
X122022883Y-38102671D01*
X122003670Y-38116921D01*
X121983153Y-38129218D01*
X121961529Y-38139446D01*
X121939007Y-38147504D01*
X121915803Y-38153316D01*
X121892142Y-38156826D01*
X121868250Y-38158000D01*
X120955750Y-38158000D01*
X120931858Y-38156826D01*
X120908197Y-38153316D01*
X120884993Y-38147504D01*
X120862471Y-38139446D01*
X120840847Y-38129218D01*
X120820330Y-38116921D01*
X120801117Y-38102671D01*
X120783393Y-38086607D01*
X120767329Y-38068883D01*
X120753079Y-38049670D01*
X120740782Y-38029153D01*
X120730554Y-38007529D01*
X120722496Y-37985007D01*
X120716684Y-37961803D01*
X120713174Y-37938142D01*
X120712000Y-37914250D01*
X120712000Y-37426750D01*
X120713174Y-37402858D01*
X120716684Y-37379197D01*
X120722496Y-37355993D01*
X120730554Y-37333471D01*
X120740782Y-37311847D01*
X120753079Y-37291330D01*
X120767329Y-37272117D01*
X120783393Y-37254393D01*
X120801117Y-37238329D01*
X120820330Y-37224079D01*
X120840847Y-37211782D01*
X120862471Y-37201554D01*
X120884993Y-37193496D01*
X120908197Y-37187684D01*
X120931858Y-37184174D01*
X120955750Y-37183000D01*
X121868250Y-37183000D01*
X121892142Y-37184174D01*
X121892142Y-37184174D01*
G37*
D13*
X121412000Y-37670500D03*
G04 #@! TD*
D12*
G04 #@! TO.C,R8*
G36*
X128496142Y-39059174D02*
X128519803Y-39062684D01*
X128543007Y-39068496D01*
X128565529Y-39076554D01*
X128587153Y-39086782D01*
X128607670Y-39099079D01*
X128626883Y-39113329D01*
X128644607Y-39129393D01*
X128660671Y-39147117D01*
X128674921Y-39166330D01*
X128687218Y-39186847D01*
X128697446Y-39208471D01*
X128705504Y-39230993D01*
X128711316Y-39254197D01*
X128714826Y-39277858D01*
X128716000Y-39301750D01*
X128716000Y-39789250D01*
X128714826Y-39813142D01*
X128711316Y-39836803D01*
X128705504Y-39860007D01*
X128697446Y-39882529D01*
X128687218Y-39904153D01*
X128674921Y-39924670D01*
X128660671Y-39943883D01*
X128644607Y-39961607D01*
X128626883Y-39977671D01*
X128607670Y-39991921D01*
X128587153Y-40004218D01*
X128565529Y-40014446D01*
X128543007Y-40022504D01*
X128519803Y-40028316D01*
X128496142Y-40031826D01*
X128472250Y-40033000D01*
X127559750Y-40033000D01*
X127535858Y-40031826D01*
X127512197Y-40028316D01*
X127488993Y-40022504D01*
X127466471Y-40014446D01*
X127444847Y-40004218D01*
X127424330Y-39991921D01*
X127405117Y-39977671D01*
X127387393Y-39961607D01*
X127371329Y-39943883D01*
X127357079Y-39924670D01*
X127344782Y-39904153D01*
X127334554Y-39882529D01*
X127326496Y-39860007D01*
X127320684Y-39836803D01*
X127317174Y-39813142D01*
X127316000Y-39789250D01*
X127316000Y-39301750D01*
X127317174Y-39277858D01*
X127320684Y-39254197D01*
X127326496Y-39230993D01*
X127334554Y-39208471D01*
X127344782Y-39186847D01*
X127357079Y-39166330D01*
X127371329Y-39147117D01*
X127387393Y-39129393D01*
X127405117Y-39113329D01*
X127424330Y-39099079D01*
X127444847Y-39086782D01*
X127466471Y-39076554D01*
X127488993Y-39068496D01*
X127512197Y-39062684D01*
X127535858Y-39059174D01*
X127559750Y-39058000D01*
X128472250Y-39058000D01*
X128496142Y-39059174D01*
X128496142Y-39059174D01*
G37*
D13*
X128016000Y-39545500D03*
D12*
G36*
X128496142Y-37184174D02*
X128519803Y-37187684D01*
X128543007Y-37193496D01*
X128565529Y-37201554D01*
X128587153Y-37211782D01*
X128607670Y-37224079D01*
X128626883Y-37238329D01*
X128644607Y-37254393D01*
X128660671Y-37272117D01*
X128674921Y-37291330D01*
X128687218Y-37311847D01*
X128697446Y-37333471D01*
X128705504Y-37355993D01*
X128711316Y-37379197D01*
X128714826Y-37402858D01*
X128716000Y-37426750D01*
X128716000Y-37914250D01*
X128714826Y-37938142D01*
X128711316Y-37961803D01*
X128705504Y-37985007D01*
X128697446Y-38007529D01*
X128687218Y-38029153D01*
X128674921Y-38049670D01*
X128660671Y-38068883D01*
X128644607Y-38086607D01*
X128626883Y-38102671D01*
X128607670Y-38116921D01*
X128587153Y-38129218D01*
X128565529Y-38139446D01*
X128543007Y-38147504D01*
X128519803Y-38153316D01*
X128496142Y-38156826D01*
X128472250Y-38158000D01*
X127559750Y-38158000D01*
X127535858Y-38156826D01*
X127512197Y-38153316D01*
X127488993Y-38147504D01*
X127466471Y-38139446D01*
X127444847Y-38129218D01*
X127424330Y-38116921D01*
X127405117Y-38102671D01*
X127387393Y-38086607D01*
X127371329Y-38068883D01*
X127357079Y-38049670D01*
X127344782Y-38029153D01*
X127334554Y-38007529D01*
X127326496Y-37985007D01*
X127320684Y-37961803D01*
X127317174Y-37938142D01*
X127316000Y-37914250D01*
X127316000Y-37426750D01*
X127317174Y-37402858D01*
X127320684Y-37379197D01*
X127326496Y-37355993D01*
X127334554Y-37333471D01*
X127344782Y-37311847D01*
X127357079Y-37291330D01*
X127371329Y-37272117D01*
X127387393Y-37254393D01*
X127405117Y-37238329D01*
X127424330Y-37224079D01*
X127444847Y-37211782D01*
X127466471Y-37201554D01*
X127488993Y-37193496D01*
X127512197Y-37187684D01*
X127535858Y-37184174D01*
X127559750Y-37183000D01*
X128472250Y-37183000D01*
X128496142Y-37184174D01*
X128496142Y-37184174D01*
G37*
D13*
X128016000Y-37670500D03*
G04 #@! TD*
D12*
G04 #@! TO.C,R5*
G36*
X131036142Y-39059174D02*
X131059803Y-39062684D01*
X131083007Y-39068496D01*
X131105529Y-39076554D01*
X131127153Y-39086782D01*
X131147670Y-39099079D01*
X131166883Y-39113329D01*
X131184607Y-39129393D01*
X131200671Y-39147117D01*
X131214921Y-39166330D01*
X131227218Y-39186847D01*
X131237446Y-39208471D01*
X131245504Y-39230993D01*
X131251316Y-39254197D01*
X131254826Y-39277858D01*
X131256000Y-39301750D01*
X131256000Y-39789250D01*
X131254826Y-39813142D01*
X131251316Y-39836803D01*
X131245504Y-39860007D01*
X131237446Y-39882529D01*
X131227218Y-39904153D01*
X131214921Y-39924670D01*
X131200671Y-39943883D01*
X131184607Y-39961607D01*
X131166883Y-39977671D01*
X131147670Y-39991921D01*
X131127153Y-40004218D01*
X131105529Y-40014446D01*
X131083007Y-40022504D01*
X131059803Y-40028316D01*
X131036142Y-40031826D01*
X131012250Y-40033000D01*
X130099750Y-40033000D01*
X130075858Y-40031826D01*
X130052197Y-40028316D01*
X130028993Y-40022504D01*
X130006471Y-40014446D01*
X129984847Y-40004218D01*
X129964330Y-39991921D01*
X129945117Y-39977671D01*
X129927393Y-39961607D01*
X129911329Y-39943883D01*
X129897079Y-39924670D01*
X129884782Y-39904153D01*
X129874554Y-39882529D01*
X129866496Y-39860007D01*
X129860684Y-39836803D01*
X129857174Y-39813142D01*
X129856000Y-39789250D01*
X129856000Y-39301750D01*
X129857174Y-39277858D01*
X129860684Y-39254197D01*
X129866496Y-39230993D01*
X129874554Y-39208471D01*
X129884782Y-39186847D01*
X129897079Y-39166330D01*
X129911329Y-39147117D01*
X129927393Y-39129393D01*
X129945117Y-39113329D01*
X129964330Y-39099079D01*
X129984847Y-39086782D01*
X130006471Y-39076554D01*
X130028993Y-39068496D01*
X130052197Y-39062684D01*
X130075858Y-39059174D01*
X130099750Y-39058000D01*
X131012250Y-39058000D01*
X131036142Y-39059174D01*
X131036142Y-39059174D01*
G37*
D13*
X130556000Y-39545500D03*
D12*
G36*
X131036142Y-37184174D02*
X131059803Y-37187684D01*
X131083007Y-37193496D01*
X131105529Y-37201554D01*
X131127153Y-37211782D01*
X131147670Y-37224079D01*
X131166883Y-37238329D01*
X131184607Y-37254393D01*
X131200671Y-37272117D01*
X131214921Y-37291330D01*
X131227218Y-37311847D01*
X131237446Y-37333471D01*
X131245504Y-37355993D01*
X131251316Y-37379197D01*
X131254826Y-37402858D01*
X131256000Y-37426750D01*
X131256000Y-37914250D01*
X131254826Y-37938142D01*
X131251316Y-37961803D01*
X131245504Y-37985007D01*
X131237446Y-38007529D01*
X131227218Y-38029153D01*
X131214921Y-38049670D01*
X131200671Y-38068883D01*
X131184607Y-38086607D01*
X131166883Y-38102671D01*
X131147670Y-38116921D01*
X131127153Y-38129218D01*
X131105529Y-38139446D01*
X131083007Y-38147504D01*
X131059803Y-38153316D01*
X131036142Y-38156826D01*
X131012250Y-38158000D01*
X130099750Y-38158000D01*
X130075858Y-38156826D01*
X130052197Y-38153316D01*
X130028993Y-38147504D01*
X130006471Y-38139446D01*
X129984847Y-38129218D01*
X129964330Y-38116921D01*
X129945117Y-38102671D01*
X129927393Y-38086607D01*
X129911329Y-38068883D01*
X129897079Y-38049670D01*
X129884782Y-38029153D01*
X129874554Y-38007529D01*
X129866496Y-37985007D01*
X129860684Y-37961803D01*
X129857174Y-37938142D01*
X129856000Y-37914250D01*
X129856000Y-37426750D01*
X129857174Y-37402858D01*
X129860684Y-37379197D01*
X129866496Y-37355993D01*
X129874554Y-37333471D01*
X129884782Y-37311847D01*
X129897079Y-37291330D01*
X129911329Y-37272117D01*
X129927393Y-37254393D01*
X129945117Y-37238329D01*
X129964330Y-37224079D01*
X129984847Y-37211782D01*
X130006471Y-37201554D01*
X130028993Y-37193496D01*
X130052197Y-37187684D01*
X130075858Y-37184174D01*
X130099750Y-37183000D01*
X131012250Y-37183000D01*
X131036142Y-37184174D01*
X131036142Y-37184174D01*
G37*
D13*
X130556000Y-37670500D03*
G04 #@! TD*
D12*
G04 #@! TO.C,R6*
G36*
X133576142Y-37184174D02*
X133599803Y-37187684D01*
X133623007Y-37193496D01*
X133645529Y-37201554D01*
X133667153Y-37211782D01*
X133687670Y-37224079D01*
X133706883Y-37238329D01*
X133724607Y-37254393D01*
X133740671Y-37272117D01*
X133754921Y-37291330D01*
X133767218Y-37311847D01*
X133777446Y-37333471D01*
X133785504Y-37355993D01*
X133791316Y-37379197D01*
X133794826Y-37402858D01*
X133796000Y-37426750D01*
X133796000Y-37914250D01*
X133794826Y-37938142D01*
X133791316Y-37961803D01*
X133785504Y-37985007D01*
X133777446Y-38007529D01*
X133767218Y-38029153D01*
X133754921Y-38049670D01*
X133740671Y-38068883D01*
X133724607Y-38086607D01*
X133706883Y-38102671D01*
X133687670Y-38116921D01*
X133667153Y-38129218D01*
X133645529Y-38139446D01*
X133623007Y-38147504D01*
X133599803Y-38153316D01*
X133576142Y-38156826D01*
X133552250Y-38158000D01*
X132639750Y-38158000D01*
X132615858Y-38156826D01*
X132592197Y-38153316D01*
X132568993Y-38147504D01*
X132546471Y-38139446D01*
X132524847Y-38129218D01*
X132504330Y-38116921D01*
X132485117Y-38102671D01*
X132467393Y-38086607D01*
X132451329Y-38068883D01*
X132437079Y-38049670D01*
X132424782Y-38029153D01*
X132414554Y-38007529D01*
X132406496Y-37985007D01*
X132400684Y-37961803D01*
X132397174Y-37938142D01*
X132396000Y-37914250D01*
X132396000Y-37426750D01*
X132397174Y-37402858D01*
X132400684Y-37379197D01*
X132406496Y-37355993D01*
X132414554Y-37333471D01*
X132424782Y-37311847D01*
X132437079Y-37291330D01*
X132451329Y-37272117D01*
X132467393Y-37254393D01*
X132485117Y-37238329D01*
X132504330Y-37224079D01*
X132524847Y-37211782D01*
X132546471Y-37201554D01*
X132568993Y-37193496D01*
X132592197Y-37187684D01*
X132615858Y-37184174D01*
X132639750Y-37183000D01*
X133552250Y-37183000D01*
X133576142Y-37184174D01*
X133576142Y-37184174D01*
G37*
D13*
X133096000Y-37670500D03*
D12*
G36*
X133576142Y-39059174D02*
X133599803Y-39062684D01*
X133623007Y-39068496D01*
X133645529Y-39076554D01*
X133667153Y-39086782D01*
X133687670Y-39099079D01*
X133706883Y-39113329D01*
X133724607Y-39129393D01*
X133740671Y-39147117D01*
X133754921Y-39166330D01*
X133767218Y-39186847D01*
X133777446Y-39208471D01*
X133785504Y-39230993D01*
X133791316Y-39254197D01*
X133794826Y-39277858D01*
X133796000Y-39301750D01*
X133796000Y-39789250D01*
X133794826Y-39813142D01*
X133791316Y-39836803D01*
X133785504Y-39860007D01*
X133777446Y-39882529D01*
X133767218Y-39904153D01*
X133754921Y-39924670D01*
X133740671Y-39943883D01*
X133724607Y-39961607D01*
X133706883Y-39977671D01*
X133687670Y-39991921D01*
X133667153Y-40004218D01*
X133645529Y-40014446D01*
X133623007Y-40022504D01*
X133599803Y-40028316D01*
X133576142Y-40031826D01*
X133552250Y-40033000D01*
X132639750Y-40033000D01*
X132615858Y-40031826D01*
X132592197Y-40028316D01*
X132568993Y-40022504D01*
X132546471Y-40014446D01*
X132524847Y-40004218D01*
X132504330Y-39991921D01*
X132485117Y-39977671D01*
X132467393Y-39961607D01*
X132451329Y-39943883D01*
X132437079Y-39924670D01*
X132424782Y-39904153D01*
X132414554Y-39882529D01*
X132406496Y-39860007D01*
X132400684Y-39836803D01*
X132397174Y-39813142D01*
X132396000Y-39789250D01*
X132396000Y-39301750D01*
X132397174Y-39277858D01*
X132400684Y-39254197D01*
X132406496Y-39230993D01*
X132414554Y-39208471D01*
X132424782Y-39186847D01*
X132437079Y-39166330D01*
X132451329Y-39147117D01*
X132467393Y-39129393D01*
X132485117Y-39113329D01*
X132504330Y-39099079D01*
X132524847Y-39086782D01*
X132546471Y-39076554D01*
X132568993Y-39068496D01*
X132592197Y-39062684D01*
X132615858Y-39059174D01*
X132639750Y-39058000D01*
X133552250Y-39058000D01*
X133576142Y-39059174D01*
X133576142Y-39059174D01*
G37*
D13*
X133096000Y-39545500D03*
G04 #@! TD*
D17*
G04 #@! TO.C,Q1*
X125664000Y-37608000D03*
X123764000Y-37608000D03*
X124714000Y-39608000D03*
G04 #@! TD*
D14*
G04 #@! TO.C,J13*
X115316000Y-54290683D03*
X120396000Y-54290683D03*
X125476000Y-54290683D03*
X130556000Y-54290683D03*
X135636000Y-54290683D03*
X140716000Y-54290683D03*
X145796000Y-54290683D03*
X150876000Y-54290683D03*
X155956000Y-54290683D03*
X112776000Y-50990683D03*
X117856000Y-50990683D03*
X122936000Y-50990683D03*
X128016000Y-50990683D03*
X133096000Y-50990683D03*
X138176000Y-50990683D03*
X143256000Y-50990683D03*
X148336000Y-50990683D03*
X153416000Y-50990683D03*
X158496000Y-50990683D03*
G04 #@! TD*
M02*
